<?xml version="1.0" standalone="no"?>
<!DOCTYPE svg PUBLIC "-//W3C//DTD SVG 20010904//EN"
 "http://www.w3.org/TR/2001/REC-SVG-20010904/DTD/svg10.dtd">
<svg version="1.0" xmlns="http://www.w3.org/2000/svg"
 width="260.000000pt" height="260.000000pt" viewBox="0 0 260.000000 260.000000"
 preserveAspectRatio="xMidYMid meet">
<metadata>
Created by potrace 1.14, written by Peter Selinger 2001-2017
</metadata>
<g transform="translate(0.000000,260.000000) scale(0.100000,-0.100000)"
fill="#000000" stroke="none">
<path d="M835 2122 c-45 -21 -85 -64 -103 -108 -25 -63 -102 -374 -96 -388 3
-9 17 -19 30 -22 44 -11 47 -35 19 -139 -15 -52 -28 -103 -30 -113 -2 -9 -11
-42 -20 -72 -9 -30 -17 -62 -19 -70 -2 -8 -11 -40 -19 -71 -16 -63 -10 -84 28
-93 14 -4 27 -16 30 -29 3 -12 -12 -90 -35 -174 -44 -165 -45 -179 -29 -238
35 -124 203 -180 311 -104 58 41 77 89 148 368 25 99 22 122 -20 138 -22 8
-30 18 -30 35 0 12 27 124 60 248 33 123 58 232 55 241 -3 9 -19 22 -35 29
-16 6 -31 18 -34 26 -3 8 13 81 35 162 50 183 51 227 11 295 -48 83 -170 120
-257 79z"/>
<path d="M1640 2070 c-4 -8 -22 -71 -40 -140 -17 -69 -40 -154 -50 -190 -10
-36 -26 -90 -34 -121 l-16 -57 -166 2 c-91 0 -168 -2 -170 -6 -3 -4 17 -86 42
-182 46 -170 48 -176 73 -177 14 0 79 -1 144 -1 64 0 117 -3 117 -7 0 -4 -8
-37 -19 -74 -10 -37 -16 -69 -12 -70 3 -2 33 -4 65 -5 33 -1 60 -3 62 -5 2 -2
-46 -188 -109 -420 -13 -48 -21 -89 -18 -91 3 -2 89 -3 190 -2 l185 1 68 254
c37 140 66 256 64 259 -3 2 -33 5 -68 5 l-64 1 68 255 c37 140 65 257 62 260
-3 3 -32 4 -65 3 l-60 -2 4 27 c3 16 26 107 52 203 62 233 74 284 70 289 -3 2
-86 4 -186 5 -152 1 -182 -1 -189 -14z"/>
</g>
</svg>
