<svg width="307" height="64" viewBox="0 0 307 64" fill="none" xmlns="http://www.w3.org/2000/svg">
<path d="M85.3686 45.3626L88.7681 44.0878L100.454 15.8293H101.729L113.84 44.7252L115.964 45.3626V46H110.865C109.392 46 108.188 45.6742 107.253 45.0226C106.318 44.3427 105.624 43.4645 105.171 42.388L103.004 37.2887H92.8476L90.043 44.0878L93.23 45.3626V46H85.3686V45.3626ZM93.2725 36.2264H102.579L97.9043 25.0505L93.2725 36.2264ZM114.675 26.0278L112.55 25.3904V24.753H117.862C119.335 24.753 120.496 25.0647 121.346 25.6879C122.224 26.2828 122.975 27.1752 123.598 28.365L128.655 38.1811L133.372 26.6653L130.185 25.3904V24.753H138.046V25.3904L134.647 26.6653L126.573 46.4249H125.298L114.675 26.0278ZM138.878 45.3626L141.427 44.7252V26.0278L138.878 25.3904V24.753H144.402C146.952 24.753 148.226 26.0278 148.226 28.5775V44.7252L150.776 45.3626V46H138.878V45.3626ZM144.402 22.2034C143.552 22.2034 142.844 21.9201 142.277 21.3535C141.711 20.7869 141.427 20.0787 141.427 19.2288C141.427 18.3789 141.711 17.6707 142.277 17.1041C142.844 16.5375 143.552 16.2542 144.402 16.2542C145.252 16.2542 145.96 16.5375 146.527 17.1041C147.093 17.6707 147.377 18.3789 147.377 19.2288C147.377 20.0787 147.093 20.7869 146.527 21.3535C145.96 21.9201 145.252 22.2034 144.402 22.2034ZM161.605 46.6374C159.084 46.6374 157.144 46.0992 155.784 45.0226C154.424 43.9461 153.744 42.5722 153.744 40.9007C153.744 39.7959 153.985 38.7052 154.466 37.6287C154.665 37.1188 154.92 36.6513 155.231 36.2264C156.393 35.9431 157.653 35.6881 159.013 35.4615C162.073 34.9516 164.778 34.64 167.13 34.5266V33.2518C167.13 30.1073 166.747 27.9401 165.982 26.7502C165.217 25.5604 164.042 24.9655 162.455 24.9655C161.86 24.9655 161.35 25.0363 160.926 25.178L160.331 25.3904V31.7645L159.778 31.892C159.325 31.9487 158.942 31.977 158.631 31.977C157.668 31.977 156.889 31.6937 156.294 31.1271C155.727 30.5322 155.444 29.7531 155.444 28.79C155.444 27.4868 156.095 26.382 157.399 25.4754C158.73 24.5689 160.699 24.1156 163.305 24.1156C165.515 24.1156 167.413 24.5122 168.999 25.3055C170.614 26.0703 171.832 27.1469 172.654 28.535C173.504 29.8948 173.929 31.4671 173.929 33.2518V44.7252L176.478 45.3626V46H172.654C170.954 46 169.637 45.4759 168.702 44.4277C168.305 44.0028 167.994 43.4645 167.767 42.813C167.37 43.5212 166.903 44.1586 166.365 44.7252C165.09 46 163.503 46.6374 161.605 46.6374ZM163.305 45.1501C164.353 45.1501 165.302 44.5835 166.152 43.4504C166.464 43.0254 166.79 42.4588 167.13 41.7506V35.589C165.826 35.589 164.58 35.6598 163.39 35.8015C162.512 35.9148 161.917 35.9856 161.605 36.0139C161.464 36.3255 161.322 36.7505 161.18 37.2887C160.897 38.3653 160.756 39.4276 160.756 40.4758C160.756 42.0622 160.996 43.2379 161.478 44.0028C161.96 44.7677 162.569 45.1501 163.305 45.1501ZM179.048 45.3626L181.597 44.7252V26.0278L179.048 25.3904V24.753H182.872C184.544 24.753 185.861 25.2913 186.824 26.3678C187.193 26.7927 187.504 27.3168 187.759 27.9401C188.156 27.2035 188.623 26.5661 189.161 26.0278C190.436 24.753 192.023 24.1156 193.921 24.1156C195.507 24.1156 196.924 24.4556 198.17 25.1355C199.445 25.787 200.436 26.6511 201.145 27.7276C201.853 28.8041 202.207 29.9373 202.207 31.1271V44.7252L204.757 45.3626V46H199.232C196.683 46 195.408 44.7252 195.408 42.1755V31.1271C195.408 29.3424 195.082 27.9826 194.431 27.0477C193.807 26.0845 193.071 25.6029 192.221 25.6029C191.144 25.6029 190.181 26.1695 189.331 27.3027C188.963 27.7843 188.651 28.3509 188.397 29.0024V44.7252L190.946 45.3626V46H179.048V45.3626ZM207.733 45.3626L210.283 44.7252V17.5291L207.733 16.8916V16.2542H219.844V16.8916L217.294 17.5291V44.9377H226.43C226.43 43.1529 226.884 41.4956 227.79 39.9659C228.187 39.3143 228.654 38.776 229.192 38.3511H230.467V46H207.733V45.3626ZM244.718 46.6374C241.091 46.6374 238.273 45.6459 236.261 43.6628C234.25 41.6515 233.244 38.8893 233.244 35.3765C233.244 33.0818 233.683 31.0846 234.562 29.3849C235.44 27.6851 236.658 26.382 238.216 25.4754C239.802 24.5689 241.616 24.1156 243.655 24.1156C245.695 24.1156 247.48 24.4981 249.009 25.263C250.568 26.0278 251.757 27.0619 252.579 28.365C253.429 29.6398 253.854 31.0563 253.854 32.6144C253.854 33.3226 253.783 33.9317 253.641 34.4416L253.429 35.164C252.211 35.419 250.893 35.6315 249.477 35.8015C246.502 36.2264 243.499 36.4389 240.468 36.4389C240.468 39.7251 240.921 42.0764 241.828 43.4929C242.735 44.881 243.981 45.5751 245.567 45.5751C246.672 45.5751 247.692 45.3201 248.627 44.8102C249.59 44.2719 250.341 43.5778 250.879 42.728C251.446 41.8498 251.729 40.9574 251.729 40.0508H252.791C252.791 41.184 252.451 42.2605 251.772 43.2804C251.092 44.3002 250.143 45.1218 248.924 45.745C247.706 46.34 246.304 46.6374 244.718 46.6374ZM240.468 35.3765C242.281 35.3765 243.754 35.3057 244.888 35.164C245.369 35.1357 245.879 35.0649 246.417 34.9516C246.446 34.8099 246.516 34.4983 246.63 34.0167C246.771 33.3085 246.842 32.5578 246.842 31.7645C246.842 29.4132 246.531 27.6993 245.907 26.6228C245.284 25.5179 244.533 24.9655 243.655 24.9655C241.531 24.9655 240.468 28.4358 240.468 35.3765ZM257.023 45.3626L259.572 44.7252V26.0278L257.023 25.3904V24.753H260.847C262.518 24.753 263.836 25.2913 264.799 26.3678C265.167 26.7927 265.479 27.3168 265.734 27.9401C266.13 27.2035 266.598 26.5661 267.136 26.0278C268.411 24.753 269.997 24.1156 271.895 24.1156C273.482 24.1156 274.898 24.4556 276.145 25.1355C277.42 25.787 278.411 26.6511 279.119 27.7276C279.828 28.8041 280.182 29.9373 280.182 31.1271V44.7252L282.731 45.3626V46H277.207C274.658 46 273.383 44.7252 273.383 42.1755V31.1271C273.383 29.3424 273.057 27.9826 272.405 27.0477C271.782 26.0845 271.046 25.6029 270.196 25.6029C269.119 25.6029 268.156 26.1695 267.306 27.3027C266.938 27.7843 266.626 28.3509 266.371 29.0024V44.7252L268.921 45.3626V46H257.023V45.3626ZM295.269 46.6374C293.512 46.6374 291.94 46.255 290.552 45.4901C289.872 45.1218 289.32 44.7252 288.895 44.3002C288.441 44.9235 287.946 45.4051 287.407 45.745C287.152 45.915 286.869 46.0708 286.558 46.2125H285.495V38.9885H287.195C287.563 40.1783 288.101 41.2832 288.81 42.303C290.311 44.4844 292.181 45.5751 294.419 45.5751C295.609 45.5751 296.501 45.2918 297.096 44.7252C297.719 44.1303 298.031 43.2804 298.031 42.1755C298.031 41.2407 297.606 40.4616 296.756 39.8384C295.935 39.1868 294.631 38.3936 292.847 37.4587C291.317 36.6938 290.07 36.0139 289.107 35.419C288.172 34.7958 287.365 34.0309 286.685 33.1243C286.033 32.1895 285.708 31.0988 285.708 29.8523C285.708 28.1525 286.43 26.7786 287.875 25.7304C289.348 24.6539 291.6 24.1156 294.631 24.1156C296.133 24.1156 297.521 24.5122 298.796 25.3055C299.419 25.6737 299.957 26.0562 300.411 26.4528C300.779 25.9429 301.275 25.4613 301.898 25.008C302.379 24.7247 302.663 24.5689 302.748 24.5406H303.81V31.7645H302.11C301.685 30.5464 301.161 29.4557 300.538 28.4925C299.122 26.2828 297.436 25.178 295.481 25.178C294.716 25.178 294.065 25.4613 293.527 26.0278C292.988 26.5944 292.719 27.3027 292.719 28.1525C292.719 29.2291 293.172 30.1356 294.079 30.8722C294.985 31.5804 296.359 32.4019 298.201 33.3368C299.702 34.1017 300.892 34.7816 301.77 35.3765C302.677 35.9431 303.442 36.6513 304.065 37.5012C304.717 38.3511 305.042 39.3426 305.042 40.4758C305.042 44.5835 301.785 46.6374 295.269 46.6374Z" fill="#00FF85"/>
<path d="M33.1776 34.7574H30.0178V57.4025H33.1776V34.7574Z" fill="url(#paint0_linear_984_3392)"/>
<path d="M46.3433 43.4615L21.2349 34.4533C16.8969 32.897 14.3069 28.4461 15.097 23.9056L16.9353 13.3423L52.1228 19.4657L46.3433 43.4615Z" fill="#137457"/>
<path d="M28.4378 27.136L68.4616 64L46.4824 25.4332L28.4378 27.136Z" fill="url(#paint1_linear_984_3392)"/>
<path d="M25.7705 10.5057L72.6823 24.9812C64.7149 28.1577 57.4291 31.8818 53.4527 37.6686L26.6814 27.9547C23.8754 26.9366 22.3024 23.953 23.0479 21.0626L25.7705 10.5057Z" fill="url(#paint2_linear_984_3392)"/>
<path d="M2.37275 14.015C1.56219 13.7782 1.48667 12.6595 2.25805 12.3159L13.5023 7.30742L10.2491 16.3161L2.37275 14.015Z" fill="#B9DD67"/>
<path fill-rule="evenodd" clip-rule="evenodd" d="M32.6511 11.3371C32.6511 17.5985 26.9662 22.6743 19.9535 22.6743C12.9408 22.6743 7.25586 17.5985 7.25586 11.3371C7.25586 5.07583 12.9407 3.58939e-05 19.9534 0C19.9534 0 19.9534 0 19.9535 0H22.7609C28.223 0 32.651 4.42794 32.651 9.89008V10.8837L32.6407 10.8748C32.6476 11.0282 32.6511 11.1823 32.6511 11.3371Z" fill="url(#paint3_linear_984_3392)"/>
<path d="M14.7382 10.8836C15.8652 10.8836 16.7789 9.96997 16.7789 8.84293C16.7789 7.71589 15.8652 6.80225 14.7382 6.80225C13.6112 6.80225 12.6975 7.71589 12.6975 8.84293C12.6975 9.96997 13.6112 10.8836 14.7382 10.8836Z" fill="#B9DD67"/>
<defs>
<linearGradient id="paint0_linear_984_3392" x1="31.5977" y1="34.7574" x2="31.5977" y2="57.4025" gradientUnits="userSpaceOnUse">
<stop stop-color="#B9DD67"/>
<stop offset="1" stop-color="#B9DD67" stop-opacity="0"/>
</linearGradient>
<linearGradient id="paint1_linear_984_3392" x1="55.5548" y1="25.8744" x2="53.9056" y2="69.7653" gradientUnits="userSpaceOnUse">
<stop stop-color="#00FFFF"/>
<stop offset="1" stop-color="white"/>
</linearGradient>
<linearGradient id="paint2_linear_984_3392" x1="21.3792" y1="25.7494" x2="71.0445" y2="34.3923" gradientUnits="userSpaceOnUse">
<stop offset="0.165568" stop-color="#08D0FF"/>
<stop offset="1" stop-color="#00FF85"/>
</linearGradient>
<linearGradient id="paint3_linear_984_3392" x1="15.7105" y1="0.758409" x2="24.3431" y2="24.4753" gradientUnits="userSpaceOnUse">
<stop stop-color="#146A41"/>
<stop offset="1" stop-color="#00FF85"/>
</linearGradient>
</defs>
</svg>
