<svg width="61" height="48" viewBox="0 0 61 48" fill="none" xmlns="http://www.w3.org/2000/svg">
<path opacity="0.3" d="M46.8551 1.23659e-06C50.9807 8.75917e-07 54.399 1.42223 57.1101 4.26667C59.7034 7.22963 61 11.1407 61 16C61 26.9037 57.4638 35.437 50.3913 41.6C47.3266 44.4444 43.7903 46.5778 39.7826 48L38.0145 43.5556C40.4899 42.7259 42.9652 41.363 45.4406 39.4667C50.6271 35.5556 53.7507 30.4 54.8116 24L52.513 25.2444C50.6271 26.1926 48.7411 26.6667 46.8551 26.6667C43.3188 26.6667 40.2541 25.3037 37.6609 22.5778C34.9498 19.9704 33.5942 16.8889 33.5942 13.3333C33.5942 9.77778 34.9498 6.63704 37.6609 3.91111C40.2541 1.30371 43.3188 1.54574e-06 46.8551 1.23659e-06ZM13.2609 4.17349e-06C17.3865 3.81282e-06 20.8048 1.42223 23.5159 4.26667C26.1092 7.22964 27.4058 11.1407 27.4058 16C27.4058 26.9037 23.8696 35.437 16.7971 41.6C13.8502 44.4444 10.314 46.5778 6.1884 48L4.42029 43.5556C6.89565 42.7259 9.37101 41.363 11.8464 39.4667C17.0328 35.5556 20.1565 30.4 21.2174 24L18.9188 25.2444C17.0328 26.1926 15.1469 26.6667 13.2609 26.6667C9.72463 26.6667 6.6599 25.3037 4.06667 22.5778C1.35555 19.9704 -2.71982e-06 16.8889 -3.03066e-06 13.3333C-3.34149e-06 9.77778 1.35555 6.63704 4.06667 3.91111C6.6599 1.30371 9.72463 4.48263e-06 13.2609 4.17349e-06Z" fill="#00FF85"/>
</svg>
