<svg width="61" height="48" viewBox="0 0 61 48" fill="none" xmlns="http://www.w3.org/2000/svg">
<path opacity="0.3" d="M14.1449 48C10.0193 48 6.60097 46.5778 3.88985 43.7333C1.29662 40.7704 0 36.8593 0 32C0 21.0963 3.53623 12.563 10.6087 6.4C13.6734 3.55556 17.2097 1.42222 21.2174 0L22.9855 4.44444C20.5101 5.27407 18.0348 6.63704 15.5594 8.53333C10.3729 12.4444 7.24928 17.6 6.18841 24L8.48696 22.7556C10.3729 21.8074 12.2589 21.3333 14.1449 21.3333C17.6812 21.3333 20.7459 22.6963 23.3391 25.4222C26.0502 28.0296 27.4058 31.1111 27.4058 34.6667C27.4058 38.2222 26.0502 41.363 23.3391 44.0889C20.7459 46.6963 17.6812 48 14.1449 48ZM47.7391 48C43.6135 48 40.1952 46.5778 37.4841 43.7333C34.8908 40.7704 33.5942 36.8593 33.5942 32C33.5942 21.0963 37.1304 12.563 44.2029 6.4C47.1498 3.55556 50.686 1.42222 54.8116 0L56.5797 4.44444C54.1043 5.27407 51.629 6.63704 49.1536 8.53333C43.9672 12.4444 40.8435 17.6 39.7826 24L42.0812 22.7556C43.9672 21.8074 45.8531 21.3333 47.7391 21.3333C51.2754 21.3333 54.3401 22.6963 56.9333 25.4222C59.6444 28.0296 61 31.1111 61 34.6667C61 38.2222 59.6444 41.363 56.9333 44.0889C54.3401 46.6963 51.2754 48 47.7391 48Z" fill="#00FF85"/>
</svg>
