<svg width="48" height="48" viewBox="0 0 48 48" fill="none" xmlns="http://www.w3.org/2000/svg">
<path d="M10.3402 28.2963L23.319 40.3667C23.642 40.667 23.8034 40.8172 24 40.8172C24.1966 40.8172 24.358 40.667 24.681 40.3667L37.6599 28.2963C37.9256 28.0492 38.0585 27.9256 38.1695 27.8149C41.3116 24.6818 41.7012 19.7261 39.0874 16.1404C38.9951 16.0137 38.8832 15.8709 38.6593 15.5852L38.659 15.5848C38.3334 15.1694 38.1706 14.9616 38.0464 14.8178C34.3892 10.5822 27.6249 11.3139 24.958 16.2336C24.8674 16.4007 24.7528 16.6386 24.5234 17.1143L24 18.2L23.4766 17.1143C23.2472 16.6386 23.1326 16.4007 23.042 16.2336C20.3751 11.3139 13.6108 10.5822 9.95363 14.8178C9.8294 14.9617 9.66651 15.1695 9.34074 15.5852L9.34072 15.5852L9.34067 15.5853C9.11683 15.8709 9.00491 16.0137 8.91257 16.1404C6.2988 19.7261 6.68844 24.6818 9.83049 27.8149C9.94147 27.9256 10.0743 28.0491 10.3399 28.2962L10.3402 28.2963Z" stroke="white" stroke-width="3"/>
</svg>
