<svg width="59" height="108" viewBox="0 0 59 108" fill="none" xmlns="http://www.w3.org/2000/svg">
<path d="M33.4558 4C33.4558 1.79086 31.665 9.65645e-08 29.4558 0C27.2467 -9.65645e-08 25.4558 1.79086 25.4558 4L29.4558 4L33.4558 4ZM26.6274 106.828C28.1895 108.391 30.7222 108.391 32.2843 106.828L57.7401 81.3726C59.3022 79.8105 59.3022 77.2778 57.7401 75.7157C56.178 74.1536 53.6454 74.1536 52.0833 75.7157L29.4558 98.3431L6.82842 75.7157C5.26632 74.1536 2.73366 74.1536 1.17157 75.7157C-0.390531 77.2778 -0.390531 79.8105 1.17157 81.3726L26.6274 106.828ZM29.4558 4L25.4558 4L25.4558 104L29.4558 104L33.4558 104L33.4558 4L29.4558 4Z" fill="url(#paint0_linear_1187_3178)"/>
<defs>
<linearGradient id="paint0_linear_1187_3178" x1="28.9558" y1="4" x2="28.9558" y2="104" gradientUnits="userSpaceOnUse">
<stop stop-color="#64AEB0" stop-opacity="0"/>
<stop offset="1" stop-color="#64AEB0"/>
</linearGradient>
</defs>
</svg>
