<svg width="501" height="144" viewBox="0 0 501 144" fill="none" xmlns="http://www.w3.org/2000/svg">
<path d="M87.7678 85V84.28L91.1278 83.32V56.968L86.0878 60.52L85.1278 59.32L93.8638 51.4H99.0478V83.32L102.408 84.28V85H87.7678ZM131.93 85.72C129.946 85.72 128.17 85.288 126.602 84.424C125.834 84.008 125.21 83.56 124.73 83.08C124.218 83.784 123.658 84.328 123.05 84.712C122.762 84.904 122.442 85.08 122.09 85.24H120.89V77.08H122.81C123.226 78.424 123.834 79.672 124.634 80.824C126.33 83.288 128.442 84.52 130.97 84.52C132.314 84.52 133.322 84.2 133.994 83.56C134.698 82.888 135.05 81.928 135.05 80.68C135.05 79.624 134.57 78.744 133.61 78.04C132.682 77.304 131.21 76.408 129.194 75.352C127.466 74.488 126.058 73.72 124.97 73.048C123.914 72.344 123.002 71.48 122.234 70.456C121.498 69.4 121.13 68.168 121.13 66.76C121.13 64.84 121.946 63.288 123.578 62.104C125.242 60.888 127.786 60.28 131.21 60.28C132.906 60.28 134.474 60.728 135.914 61.624C136.618 62.04 137.226 62.472 137.738 62.92C138.154 62.344 138.714 61.8 139.418 61.288C139.962 60.968 140.282 60.792 140.378 60.76H141.578V68.92H139.658C139.178 67.544 138.586 66.312 137.882 65.224C136.282 62.728 134.378 61.48 132.17 61.48C131.306 61.48 130.57 61.8 129.962 62.44C129.354 63.08 129.05 63.88 129.05 64.84C129.05 66.056 129.562 67.08 130.586 67.912C131.61 68.712 133.162 69.64 135.242 70.696C136.938 71.56 138.282 72.328 139.274 73C140.298 73.64 141.162 74.44 141.866 75.4C142.602 76.36 142.97 77.48 142.97 78.76C142.97 83.4 139.29 85.72 131.93 85.72ZM173.452 85.72C171.34 85.72 169.5 85.336 167.932 84.568C166.396 83.8 165.212 82.744 164.38 81.4C163.548 80.056 163.132 78.536 163.132 76.84V62.2H159.772V61H163.132V58.6C163.132 55.72 164.572 54.28 167.452 54.28H170.812V61H177.532V62.2H170.812V76.84C170.812 79.784 171.116 81.8 171.724 82.888C172.332 83.976 173.228 84.52 174.412 84.52C175.564 84.52 176.572 83.96 177.436 82.84C178.3 81.72 178.732 80.2 178.732 78.28H179.932C179.932 80.648 179.34 82.488 178.156 83.8C176.972 85.08 175.404 85.72 173.452 85.72ZM225.314 84.28L228.194 83.56V52.84L225.314 52.12V51.4H238.754C244.066 51.4 247.874 52.28 250.178 54.04C252.482 55.768 253.634 58.328 253.634 61.72C253.634 65.112 252.482 67.688 250.178 69.448C247.874 71.176 244.066 72.04 238.754 72.04H236.114V83.56L238.994 84.28V85H225.314V84.28ZM238.754 70.84C240.77 70.84 242.386 70.072 243.602 68.536C244.85 67 245.474 64.728 245.474 61.72C245.474 58.744 244.85 56.488 243.602 54.952C242.386 53.384 240.77 52.6 238.754 52.6H236.114V70.84H238.754ZM271.625 84.28L274.505 83.56V52.84L271.625 52.12V51.4H277.865C280.745 51.4 282.185 52.84 282.185 55.72V83.56L285.065 84.28V85H271.625V84.28ZM311.697 85.72C308.849 85.72 306.657 85.112 305.121 83.896C303.585 82.68 302.817 81.128 302.817 79.24C302.817 77.992 303.089 76.76 303.633 75.544C303.857 74.968 304.145 74.44 304.497 73.96C305.809 73.64 307.233 73.352 308.769 73.096C312.225 72.52 315.281 72.168 317.937 72.04V70.6C317.937 67.048 317.505 64.6 316.641 63.256C315.777 61.912 314.449 61.24 312.657 61.24C311.985 61.24 311.409 61.32 310.929 61.48L310.257 61.72V68.92L309.633 69.064C309.121 69.128 308.689 69.16 308.337 69.16C307.249 69.16 306.369 68.84 305.697 68.2C305.057 67.528 304.737 66.648 304.737 65.56C304.737 64.088 305.473 62.84 306.945 61.816C308.449 60.792 310.673 60.28 313.617 60.28C316.113 60.28 318.257 60.728 320.049 61.624C321.873 62.488 323.249 63.704 324.177 65.272C325.137 66.808 325.617 68.584 325.617 70.6V83.56L328.497 84.28V85H324.177C322.257 85 320.769 84.408 319.713 83.224C319.265 82.744 318.913 82.136 318.657 81.4C318.209 82.2 317.681 82.92 317.073 83.56C315.633 85 313.841 85.72 311.697 85.72ZM313.617 84.04C314.801 84.04 315.873 83.4 316.833 82.12C317.185 81.64 317.553 81 317.937 80.2V73.24C316.465 73.24 315.057 73.32 313.713 73.48C312.721 73.608 312.049 73.688 311.697 73.72C311.537 74.072 311.377 74.552 311.217 75.16C310.897 76.376 310.737 77.576 310.737 78.76C310.737 80.552 311.009 81.88 311.553 82.744C312.097 83.608 312.785 84.04 313.617 84.04ZM358.76 85.72C354.664 85.72 351.48 84.6 349.208 82.36C346.936 80.088 345.8 76.968 345.8 73C345.8 69.032 346.936 65.928 349.208 63.688C351.48 61.416 354.664 60.28 358.76 60.28C361.704 60.28 363.912 60.792 365.384 61.816C366.888 62.84 367.64 64.088 367.64 65.56C367.64 66.648 367.304 67.528 366.632 68.2C365.992 68.84 365.128 69.16 364.04 69.16C363.592 69.16 363.144 69.128 362.696 69.064L362.12 68.92V61.72L361.448 61.48C360.968 61.32 360.392 61.24 359.72 61.24C357.896 61.24 356.472 62.104 355.448 63.832C354.456 65.56 353.96 68.616 353.96 73C353.96 77.256 354.456 80.248 355.448 81.976C356.472 83.672 357.896 84.52 359.72 84.52C360.968 84.52 362.12 84.232 363.176 83.656C364.264 83.048 365.112 82.264 365.72 81.304C366.36 80.312 366.68 79.304 366.68 78.28H367.88C367.88 79.56 367.496 80.776 366.728 81.928C365.96 83.08 364.888 84.008 363.512 84.712C362.136 85.384 360.552 85.72 358.76 85.72ZM398.613 85.72C394.517 85.72 391.333 84.6 389.061 82.36C386.789 80.088 385.653 76.968 385.653 73C385.653 70.408 386.149 68.152 387.141 66.232C388.133 64.312 389.509 62.84 391.269 61.816C393.061 60.792 395.109 60.28 397.413 60.28C399.717 60.28 401.733 60.712 403.461 61.576C405.221 62.44 406.565 63.608 407.493 65.08C408.453 66.52 408.933 68.12 408.933 69.88C408.933 70.68 408.853 71.368 408.693 71.944L408.453 72.76C407.077 73.048 405.589 73.288 403.989 73.48C400.629 73.96 397.237 74.2 393.813 74.2C393.813 77.912 394.325 80.568 395.349 82.168C396.373 83.736 397.781 84.52 399.573 84.52C400.821 84.52 401.973 84.232 403.029 83.656C404.117 83.048 404.965 82.264 405.573 81.304C406.213 80.312 406.533 79.304 406.533 78.28H407.733C407.733 79.56 407.349 80.776 406.581 81.928C405.813 83.08 404.741 84.008 403.365 84.712C401.989 85.384 400.405 85.72 398.613 85.72ZM393.813 73C395.861 73 397.525 72.92 398.805 72.76C399.349 72.728 399.925 72.648 400.533 72.52C400.565 72.36 400.645 72.008 400.773 71.464C400.933 70.664 401.013 69.816 401.013 68.92C401.013 66.264 400.661 64.328 399.957 63.112C399.253 61.864 398.405 61.24 397.413 61.24C395.013 61.24 393.813 65.16 393.813 73Z" fill="white"/>
<path fill-rule="evenodd" clip-rule="evenodd" d="M469.539 131.936C468.885 131.852 468.276 131.769 467.622 131.641C465.745 131.306 464.033 130.632 462.765 129.077C462.477 128.742 462.277 128.319 462.028 127.94C461.946 127.812 461.907 127.645 461.785 127.645C461.092 127.433 460.439 127.054 459.702 127.349C457.01 128.403 454.235 129.156 451.417 129.579C451.09 129.623 450.968 129.495 451.007 129.16C451.046 128.698 451.295 128.403 451.782 128.319C454.801 127.812 457.659 126.887 460.473 125.711C460.839 125.583 460.96 125.332 461.087 124.953C461.375 124.072 461.331 123.186 461.248 122.305C461.043 119.574 461.736 117.049 462.96 114.608C464.267 112 466.222 110.027 468.714 108.594C468.875 108.511 469.08 108.467 469.285 108.383C469.285 108.594 469.368 108.801 469.324 108.973C468.958 111.158 468.632 113.388 468.222 115.578C467.895 117.384 467.408 119.151 466.466 120.711C465.652 122.098 464.506 123.191 463.038 123.865C462.794 123.993 462.506 124.032 462.224 124.077C461.736 124.116 461.531 124.495 461.692 125.046L462.306 124.795C465.94 123.029 469.163 120.716 472.143 117.984C472.757 117.394 473.123 116.808 473.079 115.922C473.04 115.332 473.04 114.785 472.835 114.239C472.099 112.305 471.855 110.287 471.938 108.225C472.099 104.441 473.201 101.035 475.327 97.9646C475.615 97.5463 475.942 97.1673 476.264 96.7884C476.347 96.7047 476.468 96.6211 476.629 96.4538C476.712 96.9164 476.751 97.251 476.79 97.5906C476.995 99.19 477.2 100.784 477.361 102.384C477.522 103.983 477.649 105.578 477.566 107.221C477.527 108.481 477.405 109.746 476.995 110.922C476.508 112.31 475.771 113.57 474.669 114.539C474.464 114.707 474.22 114.874 473.976 115.002C473.611 115.214 473.362 115.76 473.528 116.178C473.567 116.218 473.733 116.306 473.772 116.262C473.933 116.178 474.059 116.011 474.181 115.883C477.039 112.812 479.448 109.407 481.526 105.75C481.73 105.371 481.813 104.992 481.73 104.574C481.609 104.195 481.609 103.777 481.526 103.353C481.487 103.186 481.443 103.019 481.321 102.891C479.526 100.533 478.707 97.7579 478.38 94.8593C478.014 91.2421 478.585 87.7923 480.014 84.4705C480.097 84.3032 480.175 84.1752 480.302 83.9685C480.385 84.1358 480.463 84.1801 480.506 84.3032C481.321 86.4488 482.179 88.5945 482.916 90.7795C483.569 92.5856 484.018 94.436 484.14 96.375C484.262 97.8908 483.935 99.4016 483.447 100.834C483.159 101.631 482.833 102.349 482.223 102.896C481.979 103.147 481.979 103.693 482.262 104.2C482.384 104.032 482.467 103.905 482.55 103.737C483.774 101.296 484.876 98.8159 485.734 96.2077C486.427 94.062 486.997 91.9163 487.612 89.7756C487.651 89.564 487.612 89.2687 487.529 89.062C487.368 88.5994 487.163 88.1811 486.958 87.7185C486.836 87.5069 486.715 87.2116 486.51 87.0886C484.51 85.7008 483.203 83.7667 482.184 81.5817C481.287 79.6476 480.716 77.5856 480.511 75.44C480.35 73.6339 480.389 71.7835 480.633 69.9724C480.633 69.8445 480.672 69.7215 480.716 69.6378C480.716 69.5984 480.755 69.5984 480.799 69.5098C480.882 69.5935 480.96 69.6378 481.004 69.7215C482.516 71.8228 484.105 73.9291 485.573 76.0699C486.675 77.6693 487.534 79.3917 487.982 81.2864C488.309 82.7579 488.431 84.19 488.021 85.6614C487.9 86.0404 487.778 86.4193 487.573 86.7146C487.329 87.0492 487.285 87.3445 487.49 87.7234C487.573 87.8908 487.651 88.1024 487.817 88.3976C487.939 88.1467 488.021 88.063 488.021 87.935C488.387 85.75 488.758 83.56 489.041 81.375C489.367 78.7274 489.489 76.0748 489.45 73.4272C489.45 73.2156 489.328 73.0089 489.207 72.8366C489.124 72.6693 488.919 72.5413 488.841 72.374C488.514 71.7441 488.026 71.3652 487.373 71.1142C485.412 70.44 483.984 69.0128 482.759 67.3691C480.843 64.8051 479.741 61.9016 479.292 58.7077C479.17 57.9498 479.131 57.1526 479.048 56.3947C479.048 56.2667 479.087 56.1437 479.087 55.9321C479.248 56.0157 479.331 56.06 479.414 56.1437C481.004 57.4478 482.599 58.7077 484.149 60.0561C486.027 61.7392 487.617 63.6289 488.392 66.1535C488.841 67.6693 489.085 69.2244 488.68 70.8238C488.558 71.2864 488.885 71.749 489.455 72V71.3258C489.333 69.5591 489.211 67.8366 489.089 66.0699C488.846 63.2106 488.353 60.3908 487.744 57.5758C487.661 57.2805 487.622 56.9852 487.539 56.6949C487.539 56.6686 487.526 56.6408 487.5 56.6112C487.012 56.065 486.437 55.5581 485.788 55.2677C482.808 55.3957 480.521 53.9242 478.522 51.9016C476.439 49.8396 475.176 47.2313 474.318 44.4557C474.279 44.3278 474.279 44.2047 474.235 43.9931C474.396 44.0325 474.523 43.9931 474.601 44.0325C476.478 44.7904 478.395 45.5482 480.272 46.3898C481.74 47.064 483.086 47.9055 484.232 49.1211C485.661 50.6368 486.354 52.4872 486.315 54.5886C486.315 55.0069 486.558 55.3022 487.173 55.4301C487.173 55.2628 487.173 55.1348 487.134 55.0118C485.993 50.6368 484.481 46.4341 482.603 42.3543C482.442 42.0197 482.194 41.8474 481.828 41.6408C481.014 41.2224 480.238 41.3061 479.38 41.5571C477.541 42.0591 475.791 41.5571 474.074 40.7992C471.665 39.7067 469.87 37.8957 468.402 35.6663C468.241 35.4154 468.076 35.1595 467.954 34.9085C467.749 34.5738 467.832 34.4459 468.241 34.4902C469.178 34.5344 470.158 34.6181 471.099 34.6575C472.689 34.7411 474.24 34.8691 475.791 35.3317C477.098 35.7106 478.278 36.3012 479.258 37.31C480.072 38.1516 480.604 39.2047 480.809 40.3809C480.892 40.8878 481.379 41.1388 481.95 41.0108C481.911 40.8829 481.828 40.7156 481.789 40.5925C480.116 37.2264 478.2 34.0325 475.952 31.0453C475.791 30.7943 475.586 30.75 475.298 30.6663C474.44 30.4154 473.708 30.7106 472.933 31.0453C470.402 32.1821 467.832 31.8868 465.384 30.7106C463.672 29.9134 462.282 28.6929 461.141 27.1772C460.853 26.7982 460.897 26.7146 461.346 26.6309C463.262 26.3356 465.223 25.9567 467.139 25.8337C469.426 25.7057 471.548 26.3406 473.138 28.1909C473.464 28.5699 473.708 29.0718 473.952 29.5344C474.24 30.0807 474.44 30.2087 475.137 30.0413C474.849 29.6624 474.567 29.2835 474.279 28.9488C472.767 27.0984 471.177 25.3317 469.422 23.6929C469.056 23.314 468.607 22.9793 468.198 22.6841C468.076 22.6004 467.954 22.5167 467.788 22.5167C464.808 22.4331 462.443 21.0896 460.444 18.8996C458.771 17.0935 457.708 14.9035 457.054 12.5069C457.015 12.3789 457.015 12.2116 457.015 12C457.503 12.1673 457.873 12.3346 458.278 12.4626C459.79 13.0531 461.341 13.5994 462.848 14.2687C464.847 15.1939 466.564 16.5817 467.622 18.6437C468.154 19.6526 468.397 20.7057 468.315 21.8819C468.315 22.0492 468.397 22.2608 468.519 22.3445C471.538 25.1201 474.235 28.1909 476.722 31.5128C476.805 31.6407 476.883 31.8081 477.049 31.8917C477.171 31.3455 477.171 30.9222 476.805 30.5482C474.888 28.4026 473.542 25.9665 472.806 23.1467C472.235 20.9173 471.909 18.6043 472.031 16.2913C472.07 15.2825 472.192 14.2293 472.274 13.2205C472.314 12.7579 472.479 12.7136 472.845 13.0089C474.601 14.564 475.825 16.498 476.927 18.56C477.785 20.2431 478.439 22.0098 478.765 23.8602C479.092 25.6663 479.131 27.4331 478.478 29.1604C478.273 29.623 477.946 30.0413 477.702 30.5039C477.619 30.6713 477.541 30.8829 477.541 31.0945C477.541 31.5128 477.663 31.936 477.663 32.3543C477.702 32.8563 477.951 33.1959 478.195 33.5748C480.438 36.813 482.36 40.2628 484.032 43.8799C484.154 44.1309 484.276 44.3868 484.481 44.5935C484.642 44.2146 484.564 43.8356 484.359 43.501C483.501 41.9852 482.891 40.3465 482.482 38.6634C481.994 36.562 481.828 34.4163 481.95 32.2313C482.072 30.002 482.564 27.8563 483.418 25.7992C483.579 25.3809 483.827 25.002 483.988 24.5787H484.149C484.393 24.997 484.637 25.376 484.886 25.7992C485.661 27.315 486.232 28.9094 486.597 30.5925C486.924 32.1476 487.251 33.7028 487.456 35.3022C487.743 37.4035 487.744 39.5098 487.007 41.4833C486.641 42.4085 486.149 43.25 485.417 43.9242C485.256 44.0522 485.173 44.3425 485.173 44.5541C485.134 45.1447 485.091 45.7303 485.173 46.2766C485.212 46.6949 485.417 47.1181 485.583 47.5364C486.89 50.9862 487.948 54.4754 488.685 58.0925C488.724 58.3041 488.807 58.5551 488.89 58.8898C489.177 58.5108 489.216 58.1762 489.133 57.8366C488.846 56.4488 488.519 55.061 488.319 53.6732C488.031 51.9508 488.031 50.1841 488.236 48.4173C488.524 45.8533 489.338 43.4567 490.723 41.311C491.211 40.5532 491.742 39.8396 492.313 39.0817C492.518 38.8307 492.679 38.8701 492.762 39.249C493.049 40.3022 493.376 41.3504 493.537 42.4035C493.947 44.7608 493.947 47.1132 493.825 49.4705C493.703 51.2766 493.537 53.0876 492.845 54.7707C492.274 56.1978 491.416 57.4183 490.031 58.1368C489.87 58.2205 489.704 58.4321 489.665 58.5994C489.504 59.19 489.338 59.7756 489.216 60.4055C489.177 60.6565 489.216 60.9518 489.255 61.2028C489.46 62.8415 489.704 64.4852 489.87 66.124C490.031 67.6791 490.075 69.2343 490.157 70.7894C490.197 71.7982 490.24 72.8514 490.279 73.8602C490.279 73.8996 490.318 73.9882 490.362 74.0719C490.689 73.8602 490.728 73.5256 490.728 73.2303C490.689 72.3888 490.689 71.5472 490.689 70.7057C490.65 66.2471 492.118 62.3346 494.81 58.8898C495.707 57.7136 496.809 56.6604 497.994 55.7795C498.404 55.4449 498.565 55.5285 498.609 56.0748C498.648 57.128 498.731 58.1762 498.692 59.2293C498.57 61.498 498.16 63.7274 497.507 65.9173C496.936 67.7677 496.283 69.6181 495.181 71.2175C494.322 72.438 493.303 73.4469 491.835 73.7421C491.265 73.8701 491.021 74.1604 490.816 74.6673C490.406 75.5482 490.328 76.4734 490.284 77.4429C490.245 78.7864 490.162 80.0905 490.04 81.439C489.836 83.3337 489.592 85.2234 489.348 87.1181C489.226 87.9154 489.021 88.7175 488.86 89.5148C488.821 89.6427 488.821 89.7658 488.821 89.8937C488.86 89.8937 488.904 89.938 488.982 89.938C489.065 89.7707 489.187 89.6034 489.226 89.3917C489.636 87.9596 489.919 86.4882 490.411 85.1447C491.879 81.2323 494.493 78.3337 498.004 76.2274C498.741 75.7648 499.555 75.4695 500.369 75.1348C500.857 74.9232 501.062 75.0512 500.984 75.5974C500.823 76.69 500.618 77.8268 500.291 78.875C499.477 81.2717 498.453 83.5846 497.029 85.6467C495.927 87.2018 494.742 88.6732 492.991 89.5591C492.055 90.061 491.03 90.3169 489.972 90.1053C489.684 90.061 489.524 90.189 489.319 90.4006C488.299 91.5374 488.056 93.0482 487.563 94.436C486.705 96.7047 485.89 99.0177 484.949 101.247C484.296 102.802 483.481 104.274 482.745 105.789C482.706 105.917 482.662 106.04 482.584 106.168C483.033 106.168 483.154 105.873 483.32 105.622C484.013 104.402 484.666 103.097 485.486 101.921C487.69 98.8504 490.587 96.7884 494.259 96.1191C495.239 95.9518 496.297 95.9518 497.278 95.9075C497.809 95.8632 497.931 96.0354 497.726 96.5374C497.399 97.4626 497.073 98.3878 496.624 99.2293C495.195 101.754 493.318 103.939 490.952 105.622C489.158 106.926 487.158 107.556 484.954 107.138C484.505 107.054 484.096 106.843 483.691 106.675C483.447 106.547 483.242 106.547 483.037 106.715C482.672 106.966 482.262 107.221 481.896 107.472C481.735 107.556 481.609 107.723 481.531 107.891C480.141 110.248 478.551 112.517 476.795 114.618C475.859 115.755 474.796 116.847 473.816 117.94C473.733 118.068 473.611 118.191 473.489 118.319C473.937 118.486 474.103 118.235 474.347 117.984C475.123 117.226 475.859 116.385 476.712 115.671C478.712 113.988 481.038 113.23 483.569 113.107C485.934 112.979 488.182 113.403 490.387 114.328C491.001 114.579 491.04 114.707 490.674 115.297C490.06 116.178 489.285 116.936 488.387 117.566C486.51 118.909 484.549 120.046 482.306 120.637C480.672 121.055 479.082 121.35 477.41 121.016C476.225 120.765 475.205 120.219 474.391 119.333C474.186 119.121 473.981 118.998 473.698 119.082C473.411 119.121 473.128 119.121 472.84 119.21C472.596 119.293 472.309 119.421 472.104 119.589C469.041 122.32 465.696 124.594 462.024 126.36C461.902 126.4 461.78 126.488 461.614 126.572C461.941 126.907 462.185 126.739 462.472 126.616C463.087 126.282 463.696 125.942 464.311 125.647C467.208 124.175 470.187 124.092 473.206 125.056C475.41 125.73 477.327 126.907 479.121 128.378C479.609 128.796 479.609 128.885 479.121 129.347C478.185 130.145 477.122 130.568 475.981 130.947C474.552 131.409 473.084 131.705 471.572 131.833C471.489 131.833 471.411 131.872 471.367 131.916C470.631 132 470.104 132 469.573 132L469.539 131.936Z" fill="#FFEDC4"/>
<path fill-rule="evenodd" clip-rule="evenodd" d="M0.06845 75.2162C0.229797 74.965 0.435147 75.0044 0.640497 75.0882C2.35664 75.6349 3.87232 76.5608 5.26576 77.738C8.08688 80.0972 10.1355 82.9982 11.1574 86.6626C11.4018 87.5442 11.5681 88.4702 11.8125 89.3568C11.8516 89.5686 11.9739 89.736 12.057 89.9035C12.0961 89.9035 12.1401 89.8591 12.1792 89.8591V89.608C11.8516 87.628 11.4409 85.6923 11.1574 83.7173C10.952 82.4564 10.9129 81.1906 10.8298 79.9297C10.7467 78.5851 10.7907 77.2356 10.5853 75.891C10.5022 75.2162 10.0964 74.5858 9.80791 73.9553C9.7688 73.8716 9.64656 73.8273 9.51944 73.8273C7.63707 73.4924 6.40986 72.2709 5.42711 70.7145C4.28302 68.8183 3.58385 66.7595 3.0558 64.5677C2.48376 62.0854 2.07306 59.603 2.19529 57.0763C2.19529 56.6971 2.2344 56.2784 2.31752 55.8992C2.40064 55.4805 2.47887 55.4805 2.80645 55.6874C5.09953 57.3719 6.81567 59.5193 8.126 62.0854C9.10874 63.9767 9.84213 66.001 10.0475 68.1435C10.2088 69.6605 10.1306 71.2169 10.2088 72.7289C10.2088 73.1082 10.2919 73.5268 10.3311 73.9061C10.3311 73.9898 10.3702 74.0341 10.4533 74.1573C10.5364 73.9898 10.5755 73.9061 10.5755 73.8618C10.6586 71.8818 10.6978 69.9461 10.864 67.9711C11.0253 66.0355 11.2747 64.0998 11.48 62.1642C11.5192 61.6569 11.6414 61.1939 11.6854 60.6915C11.6854 60.4403 11.5632 60.1842 11.524 59.9773C11.4409 59.5587 11.4018 59.1351 11.2796 58.7165C11.1965 58.5047 11.0742 58.2535 10.8689 58.1254C9.55856 57.4113 8.69804 56.2735 8.126 54.8846C7.50995 53.4513 7.26548 51.9787 7.18725 50.4666C7.10414 48.5309 7.02591 46.5953 7.10414 44.6597C7.18725 42.8077 7.47083 41.0002 8.126 39.2714C8.16511 39.1433 8.28734 39.0596 8.37046 38.9365C8.45358 39.0202 8.57581 39.0645 8.65893 39.1877C10.1306 40.9558 11.2796 42.9752 11.9739 45.2064C12.4628 46.8071 12.7121 48.4472 12.7904 50.1317C12.8735 52.7421 12.4237 55.3082 11.8076 57.7905C11.7245 58.1698 11.7685 58.5047 12.013 58.9283C12.0961 58.6327 12.1743 58.4209 12.2574 58.2141C12.9957 54.3822 14.1398 50.639 15.6115 47.0189C15.9 46.3047 15.6946 45.6299 15.8168 44.9158C15.9 44.4085 15.6946 44.0736 15.3279 43.7386C14.1838 42.6009 13.6118 41.0888 13.4455 39.4881C13.118 36.5822 13.5678 33.8043 14.2621 30.987C14.6728 29.3863 15.1226 27.7905 15.8168 26.3129C16.0613 25.8056 16.3498 25.3426 16.5942 24.8797C16.6334 24.7959 16.7556 24.7122 16.8827 24.5447C17.0881 24.9634 17.2934 25.3426 17.4548 25.7219C18.2713 27.6181 18.7651 29.5932 18.9264 31.6569C19.1709 35.0652 18.8042 38.3504 17.4939 41.5075C17.2054 42.2216 16.7996 42.9358 16.472 43.6549C16.3498 43.9504 16.3498 44.2853 16.2667 44.5809C16.3498 44.6252 16.3889 44.6252 16.472 44.6646C16.5942 44.4134 16.7165 44.2016 16.8387 43.9504C17.7383 42.1822 18.5548 40.3746 19.5376 38.6459C20.6035 36.7496 21.8698 34.942 22.9748 33.0901C23.1801 32.7109 23.1801 32.2085 23.3023 31.7849C23.3415 31.7012 23.3023 31.5731 23.3415 31.45C23.4246 31.0314 23.3806 30.6521 23.053 30.2729C22.3147 29.4306 22.0311 28.3372 21.948 27.2438C21.6204 23.4119 22.9308 20.0873 24.8522 16.9302C25.7128 15.4576 26.7346 14.1524 28.0009 13.0146C28.4116 12.6354 28.573 12.6797 28.617 13.2264C28.7392 14.4479 28.8615 15.6693 28.8615 16.9302C28.9006 20.0873 28.3285 23.1607 27.0622 26.0617C26.3239 27.7019 25.3461 29.1351 24.158 30.4797C23.7913 30.8984 23.7473 31.3219 23.7473 31.9524C23.9526 31.7849 24.0749 31.7012 24.158 31.5731C25.8741 29.2582 27.7174 27.0714 29.722 25.0077C30.5825 24.1212 31.5212 23.2839 32.3817 22.3973C32.504 22.2693 32.6262 22.1018 32.6262 21.9343C32.4649 20.0824 33.1591 18.5654 34.3032 17.1765C35.6527 15.5364 37.4128 14.4824 39.3343 13.7239C40.7669 13.1771 42.1994 12.6304 43.632 12.0837C43.7151 12.0394 43.7933 12.0394 43.9205 12C43.9205 12.1675 43.9596 12.2955 43.9205 12.4187C43.06 15.4083 41.6274 18.0581 39.2561 20.0775C37.4959 21.5502 35.4913 22.4367 33.1983 22.4761C33.0369 22.4761 32.7876 22.5598 32.6653 22.6879C31.4772 23.8256 30.25 24.9191 29.145 26.0962C28.0792 27.1896 27.1404 28.4111 26.1577 29.5882C26.0355 29.7163 25.9523 29.8838 25.8692 30.0069C26.3581 30.2581 26.808 30.0906 26.9742 29.672C27.6685 27.9038 28.9788 26.8941 30.6998 26.2637C32.2937 25.6726 33.8925 25.6726 35.5256 25.9287C36.875 26.0962 38.1853 26.3474 39.5348 26.5592C39.6179 26.5592 39.6961 26.5986 39.7792 26.5986C40.1459 26.6823 40.1899 26.8104 39.9406 27.0616C39.3245 27.7363 38.7134 28.4948 38.0191 29.0809C35.8483 30.9772 33.3156 31.8982 30.4505 31.647C29.3455 31.5633 28.2796 31.2284 27.3409 30.6373C27.0524 30.4699 26.808 30.3861 26.4804 30.5093C26.275 30.593 26.0306 30.6373 25.7861 30.6373C25.4194 30.6373 25.2141 30.8048 25.0087 31.056C22.8379 34.0013 20.9164 37.1584 19.2785 40.4436C19.1953 40.5717 19.1562 40.6948 19.0731 40.8623V40.9903C19.562 41.1184 20.0559 40.8623 20.139 40.4436C20.6279 37.8775 22.2658 36.3605 24.598 35.5183C26.1528 34.9716 27.7467 34.8041 29.3846 34.7204C30.4896 34.6761 31.6337 34.5923 32.7387 34.5086C33.1494 34.4692 33.2276 34.5923 33.0271 34.9273C31.0225 38.2962 28.3628 40.7785 24.4367 41.5764C23.1703 41.8276 21.9431 41.7439 20.711 41.3252C20.3834 41.1972 20.095 41.1972 19.7723 41.409C19.5669 41.537 19.3616 41.6208 19.1562 41.6602C18.6673 41.6996 18.5011 42.0394 18.2957 42.4186C17.0294 45.1522 15.9244 47.9301 15.0248 50.7966C14.575 52.1855 14.2083 53.6139 13.7976 55.0028C13.7585 55.1308 13.7585 55.254 13.7585 55.382C14.3745 55.3377 14.6581 55.0028 14.6581 54.4561C14.6581 51.9737 15.5968 49.9938 17.4401 48.393C18.9949 47.0878 20.755 46.2456 22.5934 45.4871C23.8206 44.9798 25.0478 44.5168 26.275 44.0144C26.3973 43.9701 26.5195 43.9307 26.764 43.8864C26.6417 44.3494 26.5586 44.6843 26.4364 45.0635C25.8203 46.8711 25.0429 48.5999 23.8988 50.112C22.2609 52.3825 20.2172 54.195 17.5183 54.9929C16.824 55.2047 16.0026 55.1604 15.2692 55.2885C15.0248 55.3279 14.8194 55.4165 14.6141 55.5396C14.4527 55.6234 14.3256 55.8352 14.1643 55.9189C13.5482 56.2144 13.3038 56.7611 13.2255 57.4359C12.8979 59.4159 12.4872 61.3515 12.1597 63.3265C11.9152 64.7598 11.793 66.2325 11.6707 67.6608C11.5485 69.0054 11.5094 70.3549 11.4654 71.6996C11.4654 71.7833 11.4654 71.9113 11.5045 71.9951C11.9543 71.9113 12.365 71.3646 12.2819 70.9017C11.7098 67.912 12.5704 65.2622 14.2865 62.8636C15.6359 60.9279 17.4352 59.4947 19.2393 58.0663C20.0167 57.4753 20.755 56.8449 21.5324 56.2144C21.6155 56.1307 21.7378 56.047 21.9431 55.9189C21.9431 56.4656 21.9822 56.8892 21.9431 57.3078C21.6155 60.7161 20.7159 63.9176 18.7504 66.7349C17.2787 68.8823 15.4795 70.6061 12.9811 71.409C12.8197 71.4533 12.6535 71.6602 12.5312 71.8276C12.3259 72.0788 12.2037 72.4187 11.9592 72.6255C11.5925 72.9604 11.5094 73.3397 11.5485 73.8027C11.6707 76.0732 11.6707 78.3881 11.8761 80.6636C12.1205 83.1066 12.5704 85.5446 12.9419 87.9875C12.9419 88.1156 13.0251 88.2387 13.0642 88.3668C13.5971 87.9481 13.6802 87.3128 13.3918 86.8104C12.8588 85.9681 12.7366 85.0028 12.6975 84.0325C12.6584 81.9688 13.2304 80.0332 14.1692 78.1813C15.3573 75.9107 16.912 73.8864 18.4228 71.8276C18.9118 71.1972 19.3616 70.5224 19.8554 69.8476C19.9385 69.7196 20.0167 69.6359 20.183 69.429C20.2661 69.6802 20.3443 69.8476 20.3443 70.02C20.6719 72.3349 20.6719 74.6498 20.2612 76.9204C19.8945 79.1072 19.0731 81.1709 18.0121 83.1066C17.1125 84.663 15.9684 86.0125 14.5359 87.0616C14.2914 87.229 14.1252 87.5246 14.0029 87.8201C13.7976 88.2387 13.5922 88.6623 13.4309 89.1253C13.3478 89.3371 13.3086 89.5883 13.3478 89.7557C14.4918 94.6367 16.1689 99.3502 18.4228 103.813C18.506 103.941 18.5842 104.064 18.6673 104.231C18.9558 103.896 19.034 103.261 18.7895 103.01C17.6454 101.872 17.3179 100.399 17.0294 98.9266C16.5796 96.8235 16.9903 94.8041 17.5183 92.7798C18.2126 90.1694 19.2785 87.6871 20.2172 85.1604C20.3394 84.8255 20.5057 84.4462 20.667 84.0227C20.8284 84.2345 20.9115 84.3576 20.9555 84.525C21.8551 86.5887 22.388 88.6918 22.5934 90.923C22.8379 93.7009 22.5543 96.4344 21.6938 99.1286C21.3271 100.306 20.7941 101.399 20.0559 102.369C19.606 103 19.4398 103.675 19.2785 104.389C19.1171 105.147 19.3176 105.694 19.6452 106.324C21.6889 109.861 24.0651 113.141 26.8031 116.091C26.9644 116.259 27.1307 116.342 27.336 116.471C27.3751 116.259 27.4191 116.008 27.3751 115.796C27.336 115.628 27.2138 115.377 27.0867 115.293C25.8594 114.619 25.1212 113.525 24.466 112.348C23.8499 111.21 23.4832 109.949 23.4441 108.644C23.405 107.339 23.2828 106.034 23.361 104.729C23.4441 103.128 23.7277 101.488 23.8939 99.887C23.9771 99.0054 24.0993 98.1189 24.1824 97.1929C24.1824 97.0255 24.2655 96.858 24.3046 96.5625C24.5491 96.8137 24.7153 96.9417 24.8376 97.1092C27.0084 99.887 28.397 103 28.8468 106.581C29.1353 108.851 29.0913 111.127 28.4801 113.313C28.397 113.648 28.2748 114.028 28.1525 114.323C27.9081 114.914 27.9081 115.5 27.8641 116.091C27.8641 116.889 28.1085 117.48 28.7246 118.027C31.795 120.849 35.1051 123.203 38.8307 125.016C38.9921 125.1 39.1974 125.351 39.3637 125.055C39.4859 124.844 39.2414 124.297 38.997 124.257C36.1758 123.666 34.6602 121.608 33.6774 119.037C32.9391 117.101 32.5724 115.082 32.284 113.062C32.0786 111.673 31.8341 110.284 31.6288 108.895C31.5897 108.767 31.6288 108.6 31.6288 108.477C31.7901 108.521 31.9564 108.477 32.0786 108.561C34.4499 109.905 36.3763 111.718 37.7257 114.2C38.42 115.461 38.953 116.766 39.3196 118.155C39.6863 119.5 39.8086 120.889 39.7303 122.277C39.6912 123.248 39.6081 124.174 39.8917 125.1C40.0139 125.435 40.1362 125.646 40.4637 125.774C43.2849 126.952 46.194 127.878 49.1764 128.385C49.6654 128.469 49.9147 128.72 49.993 129.227C50.0321 129.562 49.9098 129.69 49.5823 129.646C46.8394 129.227 44.1796 128.552 41.6469 127.498C40.7864 127.163 40.0922 127.459 39.3148 127.582C39.1925 127.626 39.0703 127.749 38.9872 127.917C37.9653 129.897 36.3274 130.946 34.2837 131.453C33.4232 131.665 32.5235 131.749 31.6239 131.916C31.5408 131.916 31.4626 131.961 31.3794 132H29.8247C29.7415 131.961 29.7024 131.916 29.6193 131.916C28.1036 131.788 26.632 131.498 25.1994 131.035C24.0553 130.655 22.9503 130.237 22.0067 129.434C21.5178 129.015 21.5178 128.932 22.0067 128.508C23.7668 127.035 25.7323 125.858 27.9374 125.183C31.0079 124.213 33.9952 124.297 36.8554 125.774C37.4715 126.07 38.0827 126.449 38.6987 126.745C38.9872 126.873 39.2316 127.04 39.5592 126.705C39.3979 126.622 39.2708 126.538 39.1485 126.494C35.4669 124.77 32.1128 122.494 29.0424 119.716C28.837 119.549 28.5534 119.421 28.3041 119.337C28.0156 119.253 27.732 119.253 27.4436 119.209C27.1551 119.165 26.9546 119.248 26.7493 119.46C25.9328 120.386 24.906 120.933 23.7228 121.145C22.0458 121.48 20.4079 121.228 18.814 120.765C16.5649 120.174 14.5994 119.042 12.717 117.692C11.8565 117.062 11.0791 116.347 10.424 115.421C10.0133 114.83 10.0573 114.707 10.7124 114.451C12.8833 113.525 15.1715 113.107 17.5477 113.23C20.1243 113.358 22.4565 114.111 24.422 115.796C25.2825 116.51 26.0159 117.313 26.7933 118.111C26.9986 118.322 27.204 118.618 27.6538 118.446C27.5316 118.278 27.4485 118.15 27.3262 118.066C26.3435 116.973 25.2825 115.879 24.3389 114.742C22.5787 112.639 21.0239 110.363 19.5914 108.009C19.5083 107.841 19.386 107.713 19.2247 107.59C18.858 107.339 18.4473 107.083 18.0806 106.832C17.8752 106.664 17.6699 106.704 17.4254 106.792C17.0147 106.96 16.5649 107.172 16.1591 107.255C13.9491 107.674 11.9445 107.044 10.1453 105.738C7.77397 104.054 5.93071 101.867 4.45903 99.3403C3.9701 98.4981 3.68163 97.5722 3.35405 96.6462C3.1927 96.1389 3.27093 95.9714 3.80387 96.0158C4.82573 96.0552 5.84759 96.0552 6.83034 96.2276C10.512 96.9023 13.4162 98.9611 15.6262 102.034C16.4427 103.172 17.0978 104.477 17.797 105.738C17.9584 106.034 18.0855 106.285 18.5353 106.285C18.4962 106.118 18.4522 105.989 18.3739 105.906C17.6357 104.389 16.8192 102.916 16.164 101.36C15.2252 99.1286 14.3647 96.858 13.5433 94.5825C13.0104 93.1936 12.805 91.6766 11.7832 90.5438C11.5387 90.2926 11.3334 90.2088 11.0058 90.2088C10.4729 90.2482 9.93992 90.2482 9.41188 90.1251C7.77397 89.7902 6.50764 88.7805 5.44178 87.5147C2.90424 84.5694 1.26633 81.0773 0.288468 77.2848C0.166236 76.8662 0.0831179 76.4032 0 75.9796C0.0391143 75.6841 0.0391143 75.4329 0.0391143 75.1817L0.06845 75.2162Z" fill="#FFEDC4"/>
<path d="M186.344 18V6.72656H190.133C193.469 6.72656 195.453 8.80469 195.453 12.3438V12.3594C195.453 15.9141 193.484 18 190.133 18H186.344ZM187.75 16.7344H190.039C192.594 16.7344 194.016 15.1719 194.016 12.375V12.3594C194.016 9.54688 192.594 7.99219 190.039 7.99219H187.75V16.7344ZM200.336 18.1562C198 18.1562 196.594 16.5234 196.594 13.9688V13.9609C196.594 11.4453 198.031 9.71875 200.25 9.71875C202.469 9.71875 203.82 11.3672 203.82 13.8047V14.3047H197.969C198 15.9766 198.922 16.9531 200.367 16.9531C201.398 16.9531 202.125 16.4375 202.359 15.7422L202.383 15.6719H203.719L203.703 15.75C203.438 17.0938 202.109 18.1562 200.336 18.1562ZM200.242 10.9219C199.062 10.9219 198.141 11.7266 197.992 13.2422H202.438C202.305 11.6641 201.43 10.9219 200.242 10.9219ZM208.078 18.1562C206.164 18.1562 205.008 17.1797 204.844 15.7266L204.836 15.6562H206.195L206.211 15.7344C206.375 16.5469 206.977 17.0234 208.086 17.0234C209.188 17.0234 209.844 16.5625 209.844 15.8281V15.8203C209.844 15.2344 209.539 14.9062 208.617 14.6797L207.328 14.3672C205.797 14 205.055 13.2891 205.055 12.1172V12.1094C205.055 10.7109 206.281 9.71875 208.039 9.71875C209.82 9.71875 210.953 10.7578 211.055 12.1172L211.062 12.2188H209.766L209.758 12.1641C209.648 11.375 209.047 10.8516 208.039 10.8516C207.055 10.8516 206.445 11.3281 206.445 12.0469V12.0547C206.445 12.6094 206.812 12.9922 207.711 13.2109L209 13.5234C210.641 13.9219 211.234 14.5703 211.234 15.7266V15.7344C211.234 17.1562 209.891 18.1562 208.078 18.1562ZM213.414 8.5C212.945 8.5 212.562 8.11719 212.562 7.64844C212.562 7.17188 212.945 6.79688 213.414 6.79688C213.891 6.79688 214.266 7.17188 214.266 7.64844C214.266 8.11719 213.891 8.5 213.414 8.5ZM212.734 18V9.875H214.094V18H212.734ZM219.383 20.8906C217.375 20.8906 216.109 19.9453 215.844 18.7422L215.828 18.6719H217.195L217.227 18.7422C217.484 19.3281 218.258 19.6875 219.367 19.6875C220.797 19.6875 221.609 18.8984 221.609 17.6406V16.6016H221.578C221.094 17.5 220.156 18.0781 218.992 18.0781C216.945 18.0781 215.547 16.4297 215.547 13.8906V13.8828C215.547 11.3594 216.961 9.71875 219.023 9.71875C220.172 9.71875 221.078 10.3438 221.578 11.25H221.609V9.875H222.969V17.7734C222.969 19.6562 221.586 20.8906 219.383 20.8906ZM219.289 16.875C220.672 16.875 221.609 15.6953 221.609 13.8906V13.8828C221.609 12.0938 220.664 10.9219 219.289 10.9219C217.844 10.9219 216.938 12.0781 216.938 13.8828V13.8906C216.938 15.7344 217.844 16.875 219.289 16.875ZM224.727 18V9.875H226.086V11.0312H226.117C226.555 10.2734 227.383 9.71875 228.617 9.71875C230.398 9.71875 231.43 10.875 231.43 12.7266V18H230.07V12.9688C230.07 11.6484 229.453 10.9219 228.203 10.9219C226.922 10.9219 226.086 11.8359 226.086 13.2188V18H224.727ZM236.656 18V6.72656H238.062V11.6016H244.25V6.72656H245.656V18H244.25V12.8672H238.062V18H236.656ZM249.773 18.1562C248.156 18.1562 247.07 17.1797 247.07 15.7031V15.6875C247.07 14.3047 248.148 13.4375 250.016 13.3281L252.344 13.1953V12.5156C252.344 11.5234 251.695 10.9219 250.562 10.9219C249.516 10.9219 248.859 11.4219 248.703 12.1484L248.688 12.2188H247.375L247.383 12.1328C247.5 10.7969 248.664 9.71875 250.578 9.71875C252.5 9.71875 253.703 10.7578 253.703 12.3828V18H252.344V16.6797H252.312C251.836 17.5703 250.859 18.1562 249.773 18.1562ZM248.461 15.7031C248.461 16.4844 249.102 16.9766 250.078 16.9766C251.359 16.9766 252.344 16.0938 252.344 14.9141V14.25L250.172 14.3828C249.086 14.4453 248.461 14.9297 248.461 15.6875V15.7031ZM258.797 18.1562C256.492 18.1562 255.031 16.5156 255.031 13.9297V13.9219C255.031 11.3594 256.523 9.71875 258.781 9.71875C260.805 9.71875 262 11.0625 262.172 12.4531L262.18 12.5156H260.852L260.836 12.4531C260.633 11.6406 259.977 10.9219 258.781 10.9219C257.367 10.9219 256.422 12.0938 256.422 13.9375V13.9453C256.422 15.8359 257.391 16.9531 258.797 16.9531C259.906 16.9531 260.617 16.3281 260.844 15.4219L260.859 15.3594H262.195L262.188 15.4141C261.969 16.9609 260.633 18.1562 258.797 18.1562ZM263.555 18V6.72656H264.914V13.4609H264.945L268.508 9.875H270.156L266.633 13.3828L270.266 18H268.688L265.672 14.2109L264.914 14.9375V18H263.555ZM273.586 18.1562C271.969 18.1562 270.883 17.1797 270.883 15.7031V15.6875C270.883 14.3047 271.961 13.4375 273.828 13.3281L276.156 13.1953V12.5156C276.156 11.5234 275.508 10.9219 274.375 10.9219C273.328 10.9219 272.672 11.4219 272.516 12.1484L272.5 12.2188H271.188L271.195 12.1328C271.312 10.7969 272.477 9.71875 274.391 9.71875C276.312 9.71875 277.516 10.7578 277.516 12.3828V18H276.156V16.6797H276.125C275.648 17.5703 274.672 18.1562 273.586 18.1562ZM272.273 15.7031C272.273 16.4844 272.914 16.9766 273.891 16.9766C275.172 16.9766 276.156 16.0938 276.156 14.9141V14.25L273.984 14.3828C272.898 14.4453 272.273 14.9297 272.273 15.6875V15.7031ZM281.883 18.1562C280.391 18.1562 279.656 17.4844 279.656 15.9297V11H278.469V9.875H279.656V7.67969H281.062V9.875H282.609V11H281.062V15.9219C281.062 16.7891 281.445 17.0312 282.172 17.0312C282.336 17.0312 282.492 17.0078 282.609 17V18.1016C282.438 18.125 282.148 18.1562 281.883 18.1562ZM284.141 18V6.72656H285.5V11.1719H285.531C285.969 10.2578 286.852 9.71875 288.062 9.71875C289.789 9.71875 290.969 11.0547 290.969 13.0234V18H289.609V13.2578C289.609 11.7891 288.859 10.9219 287.594 10.9219C286.336 10.9219 285.5 11.875 285.5 13.2578V18H284.141ZM296.062 18.1562C293.805 18.1562 292.297 16.5234 292.297 13.9375V13.9219C292.297 11.3359 293.812 9.71875 296.055 9.71875C298.297 9.71875 299.82 11.3281 299.82 13.9219V13.9375C299.82 16.5312 298.305 18.1562 296.062 18.1562ZM296.07 16.9531C297.5 16.9531 298.43 15.8438 298.43 13.9375V13.9219C298.43 12.0156 297.492 10.9219 296.055 10.9219C294.641 10.9219 293.688 12.0234 293.688 13.9219V13.9375C293.688 15.8516 294.633 16.9531 296.07 16.9531ZM301.195 18V9.875H302.555V11.0312H302.586C303.023 10.2734 303.852 9.71875 305.086 9.71875C306.867 9.71875 307.898 10.875 307.898 12.7266V18H306.539V12.9688C306.539 11.6484 305.922 10.9219 304.672 10.9219C303.391 10.9219 302.555 11.8359 302.555 13.2188V18H301.195Z" fill="#FFEDC4"/>
<path d="M222.895 135.281C218.195 135.281 215.172 131.859 215.172 126.539V126.527C215.172 121.207 218.184 117.809 222.895 117.809C226.41 117.809 229.141 119.941 229.785 123.141L229.809 123.258H227.676L227.594 123C226.938 120.949 225.273 119.754 222.895 119.754C219.52 119.754 217.34 122.414 217.34 126.527V126.539C217.34 130.652 219.531 133.336 222.895 133.336C225.262 133.336 226.902 132.164 227.641 129.938L227.676 129.832H229.809L229.785 129.949C229.141 133.184 226.434 135.281 222.895 135.281ZM232.305 135V118.09H234.414V135H232.305ZM243.227 135.281C239.57 135.281 237.098 133.488 236.887 130.594L236.875 130.43H238.984L239.008 130.594C239.254 132.293 240.895 133.336 243.344 133.336C245.781 133.336 247.316 132.234 247.316 130.488V130.477C247.316 128.988 246.344 128.156 244.023 127.641L242.148 127.23C238.844 126.504 237.297 125.016 237.297 122.543V122.531C237.309 119.754 239.77 117.809 243.25 117.809C246.555 117.809 248.969 119.719 249.156 122.484L249.168 122.66H247.059L247.035 122.496C246.777 120.773 245.336 119.754 243.191 119.754C240.93 119.766 239.453 120.844 239.453 122.473V122.484C239.453 123.867 240.473 124.734 242.676 125.215L244.551 125.625C248.02 126.387 249.473 127.793 249.473 130.371V130.383C249.473 133.383 247.094 135.281 243.227 135.281ZM257.477 135.281C253.82 135.281 251.348 133.488 251.137 130.594L251.125 130.43H253.234L253.258 130.594C253.504 132.293 255.145 133.336 257.594 133.336C260.031 133.336 261.566 132.234 261.566 130.488V130.477C261.566 128.988 260.594 128.156 258.273 127.641L256.398 127.23C253.094 126.504 251.547 125.016 251.547 122.543V122.531C251.559 119.754 254.02 117.809 257.5 117.809C260.805 117.809 263.219 119.719 263.406 122.484L263.418 122.66H261.309L261.285 122.496C261.027 120.773 259.586 119.754 257.441 119.754C255.18 119.766 253.703 120.844 253.703 122.473V122.484C253.703 123.867 254.723 124.734 256.926 125.215L258.801 125.625C262.27 126.387 263.723 127.793 263.723 130.371V130.383C263.723 133.383 261.344 135.281 257.477 135.281ZM264.848 135L271.141 118.09H273.227L279.508 135H277.293L275.582 130.16H268.773L267.062 135H264.848ZM272.16 120.621L269.418 128.367H274.949L272.207 120.621H272.16Z" fill="#FFEDC4"/>
</svg>
