<svg width="120" height="120" viewBox="0 0 120 120" fill="none" xmlns="http://www.w3.org/2000/svg">
<rect width="120" height="120" rx="16" fill="#67AFB1" fill-opacity="0.23"/>
<path d="M43.6667 36V68M43.6667 68C39.2485 68 35.6667 71.5817 35.6667 76C35.6667 80.4183 39.2485 84 43.6667 84C48.085 84 51.6667 80.4183 51.6667 76M43.6667 68C48.085 68 51.6667 71.5817 51.6667 76M75.6667 52C80.085 52 83.6667 48.4183 83.6667 44C83.6667 39.5817 80.085 36 75.6667 36C71.2485 36 67.6667 39.5817 67.6667 44C67.6667 48.4183 71.2485 52 75.6667 52ZM75.6667 52C75.6667 58.3652 73.1382 64.4697 68.6373 68.9706C64.1364 73.4714 58.0319 76 51.6667 76" stroke="white" stroke-width="5.33333" stroke-linecap="round" stroke-linejoin="round"/>
</svg>
