<svg width="120" height="120" viewBox="0 0 120 120" fill="none" xmlns="http://www.w3.org/2000/svg">
<rect width="120" height="120" rx="16" fill="#67AFB1" fill-opacity="0.23"/>
<path d="M55.999 52.006C56.4688 50.6703 57.3962 49.544 58.6169 48.8266C59.8376 48.1092 61.2728 47.8469 62.6683 48.0863C64.0639 48.3257 65.3296 49.0512 66.2415 50.1344C67.1533 51.2176 67.6524 52.5886 67.6503 54.0045C67.6503 58.0015 61.6547 60 61.6547 60M61.732 68H61.7587M61.3323 81.3333C73.8507 81.3333 83.999 71.1851 83.999 58.6667C83.999 46.1482 73.8507 36 61.3323 36C48.8138 36 38.6656 46.1482 38.6656 58.6667C38.6656 61.2 39.0812 63.6362 39.8479 65.911C40.1365 66.767 40.2807 67.195 40.3068 67.5238C40.3325 67.8485 40.313 68.0762 40.2327 68.3919C40.1514 68.7115 39.9717 69.044 39.6125 69.7088L35.2508 77.7823C34.6286 78.9339 34.3175 79.5097 34.3872 79.9541C34.4478 80.3411 34.6756 80.6819 35.0101 80.886C35.3941 81.1202 36.0451 81.0529 37.3471 80.9183L51.0031 79.5067C51.4167 79.464 51.6235 79.4426 51.8119 79.4498C51.9973 79.4569 52.1281 79.4743 52.3089 79.516C52.4927 79.5583 52.7238 79.6474 53.186 79.8254C55.7142 80.7994 58.4609 81.3333 61.3323 81.3333Z" stroke="white" stroke-width="5.33333" stroke-linecap="round" stroke-linejoin="round"/>
</svg>
