<svg width="965" height="375" viewBox="0 0 965 375" fill="none" xmlns="http://www.w3.org/2000/svg">
<path d="M0.168274 71.998L12.4357 10.6611H40.1249C46.6091 10.6611 52.1878 11.7126 56.8611 13.8156C61.5344 15.9186 65.127 18.927 67.6389 22.8409C70.1508 26.6963 71.4067 31.3112 71.4067 36.6855C71.4067 42.1182 70.4429 46.9959 68.5151 51.3187C66.6458 55.6415 63.9879 59.3509 60.5413 62.447C57.1532 65.5431 53.1225 67.9089 48.4492 69.5446C43.7759 71.1802 38.6353 71.998 33.0273 71.998H0.168274ZM24.0897 55.8752H33.7283C37.4085 55.8752 40.4754 55.0866 42.9289 53.5093C45.4408 51.8737 47.3393 49.7123 48.6244 47.0251C49.9096 44.2796 50.5522 41.242 50.5522 37.9122C50.5522 35.5172 50.0556 33.5018 49.0626 31.8662C48.1279 30.2305 46.6967 28.9746 44.769 28.0983C42.8997 27.2221 40.563 26.784 37.759 26.784H29.8729L24.0897 55.8752Z" fill="white"/>
<path d="M100.513 72.8743C95.2556 72.8743 90.6407 71.9688 86.6684 70.1579C82.7545 68.347 79.6877 65.7767 77.4678 62.447C75.248 59.1173 74.1381 55.2034 74.1381 50.7054C74.1381 45.4479 75.3649 40.7454 77.8183 36.5979C80.2718 32.4503 83.7184 29.179 88.158 26.784C92.656 24.3889 97.8843 23.1914 103.843 23.1914C108.983 23.1914 113.365 24.0968 116.986 25.9077C120.608 27.7186 123.383 30.2013 125.311 33.3558C127.238 36.5102 128.202 40.1613 128.202 44.3088C128.202 45.7692 128.085 47.2004 127.852 48.6024C127.676 50.0044 127.443 51.3479 127.151 52.6331H89.9105L91.7506 43.0821H118.038L109.801 45.6232C110.268 43.7538 110.239 42.1766 109.714 40.8915C109.246 39.5479 108.428 38.5256 107.26 37.8246C106.092 37.0652 104.661 36.6855 102.966 36.6855C100.571 36.6855 98.6729 37.3281 97.2709 38.6132C95.8689 39.8984 94.8466 41.5632 94.2041 43.6078C93.6199 45.6524 93.3278 47.7846 93.3278 50.0044C93.3278 52.9836 94.1164 55.1158 95.6937 56.4009C97.3293 57.6277 99.6952 58.241 102.791 58.241C104.602 58.241 106.413 57.9782 108.224 57.4524C110.035 56.8683 111.7 56.0212 113.219 54.9113L121.455 66.9158C118.184 69.1356 114.767 70.6837 111.203 71.5599C107.698 72.4362 104.135 72.8743 100.513 72.8743Z" fill="white"/>
<path d="M148.745 72.8743C144.48 72.8743 140.42 72.4654 136.565 71.6475C132.768 70.7713 129.818 69.7198 127.715 68.4931L134.55 54.9989C136.945 56.4593 139.632 57.5692 142.611 58.3287C145.649 59.0297 148.511 59.3801 151.198 59.3801C153.418 59.3801 154.937 59.1757 155.755 58.7668C156.631 58.2995 157.069 57.7445 157.069 57.1019C157.069 56.4009 156.485 55.9044 155.316 55.6123C154.148 55.2618 152.629 54.9697 150.76 54.7361C148.949 54.5024 147.021 54.1519 144.977 53.6846C142.932 53.2172 140.975 52.5455 139.106 51.6692C137.295 50.7346 135.805 49.4494 134.637 47.8138C133.469 46.1781 132.885 44.0167 132.885 41.3296C132.885 37.182 134.082 33.7939 136.477 31.1652C138.931 28.478 142.202 26.4919 146.291 25.2067C150.38 23.8632 154.908 23.1914 159.873 23.1914C163.378 23.1914 166.737 23.5127 169.95 24.1552C173.221 24.7394 176.113 25.6156 178.624 26.784L171.79 40.2781C169.278 38.8177 166.766 37.8538 164.254 37.3865C161.801 36.9192 159.552 36.6855 157.507 36.6855C155.229 36.6855 153.652 36.9484 152.775 37.4741C151.899 37.9414 151.461 38.4672 151.461 39.0513C151.461 39.7523 152.045 40.2781 153.213 40.6286C154.382 40.9791 155.871 41.3004 157.682 41.5925C159.493 41.8261 161.421 42.1766 163.465 42.6439C165.568 43.0528 167.525 43.7246 169.336 44.6593C171.147 45.5355 172.637 46.7915 173.805 48.4271C174.973 50.0628 175.558 52.2242 175.558 54.9113C175.558 58.8836 174.331 62.2133 171.877 64.9005C169.482 67.5876 166.24 69.603 162.151 70.9465C158.12 72.2317 153.652 72.8743 148.745 72.8743Z" fill="white"/>
<path d="M178.312 71.998L187.863 24.0676H207.578L198.027 71.998H178.312ZM199.867 20.2122C196.421 20.2122 193.675 19.3067 191.63 17.4958C189.644 15.6849 188.651 13.4651 188.651 10.8364C188.651 7.74031 189.79 5.17 192.069 3.12544C194.405 1.08088 197.472 0.0585938 201.269 0.0585938C204.716 0.0585938 207.432 0.905627 209.418 2.59969C211.463 4.29376 212.485 6.45516 212.485 9.08388C212.485 12.3552 211.317 15.0423 208.98 17.1453C206.702 19.1899 203.664 20.2122 199.867 20.2122Z" fill="white"/>
<path d="M229.589 89.8734C224.74 89.8734 220.301 89.3768 216.27 88.3838C212.298 87.3907 208.822 85.9011 205.843 83.9149L214.255 70.4208C216.182 71.8812 218.548 73.0203 221.352 73.8381C224.215 74.7144 227.077 75.1525 229.939 75.1525C233.795 75.1525 236.599 74.3347 238.351 72.699C240.104 71.1218 241.272 68.902 241.856 66.0396L243.083 59.9059L246.676 46.2365L249.742 31.3404L251.144 24.0676H269.984L262.36 62.3594C260.433 72.1149 256.636 79.1248 250.969 83.3892C245.361 87.712 238.234 89.8734 229.589 89.8734ZM230.027 69.3693C226.522 69.3693 223.192 68.5515 220.038 66.9158C216.883 65.2802 214.313 62.9143 212.327 59.8183C210.341 56.7222 209.348 53.0128 209.348 48.69C209.348 45.1266 209.99 41.8261 211.275 38.7885C212.619 35.6924 214.459 32.9761 216.796 30.6394C219.191 28.3028 221.936 26.4919 225.032 25.2067C228.187 23.8632 231.546 23.1914 235.109 23.1914C238.673 23.1914 241.769 23.8924 244.397 25.2944C247.084 26.6963 249.012 29.0914 250.181 32.4795C251.349 35.8092 251.436 40.3949 250.443 46.2365C249.567 51.494 248.194 55.846 246.325 59.2925C244.456 62.6807 242.148 65.2218 239.403 66.9158C236.657 68.5515 233.532 69.3693 230.027 69.3693ZM236.336 53.8598C238.03 53.8598 239.52 53.5093 240.805 52.8083C242.09 52.0489 243.083 50.9974 243.784 49.6539C244.485 48.3103 244.835 46.7331 244.835 44.9222C244.835 43.1113 244.222 41.6509 242.995 40.541C241.827 39.3726 240.133 38.7885 237.913 38.7885C236.219 38.7885 234.729 39.1682 233.444 39.9276C232.159 40.6286 231.137 41.6509 230.377 42.9944C229.676 44.338 229.326 45.9152 229.326 47.7261C229.326 49.537 229.939 51.0266 231.166 52.195C232.451 53.3049 234.175 53.8598 236.336 53.8598Z" fill="white"/>
<path d="M310.723 23.1914C314.696 23.1914 318.084 24.0384 320.888 25.7325C323.75 27.3681 325.765 29.8508 326.934 33.1805C328.161 36.4518 328.277 40.5702 327.284 45.5355L322.027 71.998H302.224L307.043 47.9014C307.569 45.2727 307.452 43.2865 306.693 41.9429C305.933 40.541 304.502 39.84 302.399 39.84C300.179 39.84 298.31 40.5994 296.791 42.1182C295.272 43.5786 294.192 45.8568 293.549 48.9529L288.905 71.998H269.102L278.653 24.0676H297.317L294.6 37.4741L292.322 33.7939C294.6 30.1137 297.404 27.4265 300.734 25.7325C304.122 24.0384 307.452 23.1914 310.723 23.1914Z" fill="white"/>
<path d="M340.879 72.8743C337.666 72.8743 335.037 71.9104 332.993 69.9827C331.007 67.9965 330.014 65.4846 330.014 62.447C330.014 58.7668 331.211 55.8168 333.606 53.597C336.06 51.3771 339.01 50.2672 342.456 50.2672C345.728 50.2672 348.327 51.2311 350.255 53.1588C352.241 55.0866 353.234 57.5985 353.234 60.6945C353.234 63.148 352.679 65.2802 351.569 67.0911C350.459 68.902 348.97 70.3332 347.1 71.3847C345.231 72.3777 343.157 72.8743 340.879 72.8743Z" fill="white"/>
<path d="M202.125 24.0676C199.506 25.2042 197.733 27.9171 197.985 30.9789C198.326 35.1233 194.957 38.6284 190.802 38.4502L185.046 38.2034L178.312 71.9981H198.027L207.578 24.0676H202.125Z" fill="#6CFFB0"/>
<path fill-rule="evenodd" clip-rule="evenodd" d="M236.572 89.3529L216.769 88.5037C216.602 88.4646 216.436 88.4246 216.27 88.3838C212.298 87.3907 208.822 85.9011 205.843 83.9149L214.255 70.4208C216.182 71.8812 218.548 73.0203 221.352 73.8382C224.215 74.7144 227.077 75.1525 229.939 75.1525C233.795 75.1525 236.599 74.3347 238.351 72.6991C240.104 71.1218 241.272 68.902 241.856 66.0396L242.093 64.8553C241.249 65.6434 240.352 66.3302 239.403 66.9159C236.657 68.5515 233.532 69.3693 230.027 69.3693C226.522 69.3693 223.192 68.5515 220.038 66.9159C216.883 65.2802 214.313 62.9144 212.327 59.8183C210.341 56.7223 209.348 53.0128 209.348 48.69C209.348 45.1267 209.99 41.8261 211.275 38.7885C212.619 35.6925 214.459 32.9761 216.796 30.6395C219.191 28.3028 221.936 26.4919 225.032 25.2068C225.698 24.9233 226.372 24.6698 227.056 24.4462L244.18 25.1805C244.253 25.2179 244.325 25.2559 244.397 25.2944C246.772 26.5335 248.554 28.5484 249.743 31.3391L250.875 25.4676L269.545 26.2683L262.36 62.3594C260.433 72.1149 256.636 79.1248 250.969 83.3892C246.95 86.4873 242.151 88.4752 236.572 89.3529ZM240.805 52.8084C239.52 53.5094 238.03 53.8599 236.336 53.8599C234.175 53.8599 232.451 53.3049 231.166 52.195C229.939 51.0267 229.326 49.5371 229.326 47.7262C229.326 45.9153 229.676 44.338 230.377 42.9945C231.137 41.6509 232.159 40.6286 233.444 39.9276C234.729 39.1682 236.219 38.7885 237.913 38.7885C240.133 38.7885 241.827 39.3727 242.995 40.541C244.222 41.6509 244.835 43.1113 244.835 44.9222C244.835 46.7331 244.485 48.3103 243.784 49.6539C243.083 50.9975 242.09 52.049 240.805 52.8084Z" fill="#6CFFB0"/>
<path d="M278.141 26.6364C280.405 26.7081 282.429 25.6864 283.737 24.0676H297.317L296.356 28.8084C297.698 27.5603 299.157 26.535 300.734 25.7325C304.122 24.0384 307.452 23.1914 310.723 23.1914C314.696 23.1914 318.084 24.0384 320.888 25.7325C323.75 27.3682 325.765 29.8508 326.934 33.1806C328.161 36.4519 328.277 40.5702 327.284 45.5356L322.027 71.9981H302.224L307.043 47.9014C307.569 45.2727 307.452 43.2866 306.693 41.943C305.933 40.541 304.502 39.84 302.399 39.84C300.179 39.84 298.31 40.5994 296.791 42.1182C295.272 43.5786 294.192 45.8569 293.549 48.9529L288.905 71.9981H269.102L278.141 26.6364Z" fill="#6CFFB0"/>
<path d="M113.055 71.04C112.712 66.2636 113.426 61.6752 114.988 57.4905L121.455 66.9159C118.755 68.7484 115.955 70.1231 113.055 71.04Z" fill="#6CFFB0"/>
<path d="M117.282 52.6331H127.151C127.443 51.348 127.676 50.0044 127.852 48.6024C128.085 47.2004 128.202 45.7692 128.202 44.3088C128.202 43.3317 128.149 42.3821 128.042 41.4601C123.61 44.255 119.908 48.0991 117.282 52.6331Z" fill="#6CFFB0"/>
<path d="M133.033 38.8921C137.182 37.1992 141.765 36.3474 146.573 36.5536L154.542 36.8953C153.788 37.0266 153.2 37.2195 152.775 37.4741C151.899 37.9415 151.461 38.4672 151.461 39.0514C151.461 39.7524 152.045 40.2781 153.213 40.6286C154.382 40.9791 155.871 41.3004 157.682 41.5925C159.493 41.8261 161.421 42.1766 163.465 42.644C165.568 43.0529 167.525 43.7247 169.336 44.6593C171.147 45.5356 172.637 46.7915 173.805 48.4272C174.973 50.0628 175.558 52.2242 175.558 54.9113C175.558 58.8836 174.331 62.2134 171.877 64.9005C169.482 67.5876 166.24 69.603 162.151 70.9466C158.12 72.2317 153.652 72.8743 148.745 72.8743C144.48 72.8743 140.42 72.4654 136.565 71.6476C132.768 70.7713 129.818 69.7198 127.715 68.4931L134.55 54.999C136.945 56.4594 139.632 57.5693 142.611 58.3287C145.649 59.0297 148.511 59.3802 151.198 59.3802C153.418 59.3802 154.937 59.1757 155.755 58.7668C156.631 58.2995 157.069 57.7445 157.069 57.102C157.069 56.401 156.485 55.9044 155.316 55.6123C154.148 55.2618 152.629 54.9698 150.76 54.7361C148.949 54.5024 147.021 54.1519 144.977 53.6846C142.932 53.2173 140.975 52.5455 139.106 51.6693C137.295 50.7346 135.805 49.4495 134.637 47.8138C133.469 46.1781 132.885 44.0167 132.885 41.3296C132.885 40.4857 132.934 39.6732 133.033 38.8921Z" fill="#6CFFB0"/>
<path d="M163.727 37.2892C163.902 37.3204 164.077 37.3529 164.254 37.3865C166.766 37.8539 169.278 38.8177 171.79 40.2781L173.1 37.6911L163.727 37.2892Z" fill="#6CFFB0"/>
<path d="M332.993 69.9827C335.037 71.9104 337.666 72.8743 340.879 72.8743C343.157 72.8743 345.231 72.3778 347.1 71.3847C348.97 70.3332 350.459 68.902 351.569 67.0911C352.679 65.2802 353.234 63.148 353.234 60.6945C353.234 57.5985 352.241 55.0866 350.255 53.1589C348.327 51.2311 345.728 50.2673 342.456 50.2673C339.01 50.2673 336.06 51.3772 333.606 53.597C331.211 55.8168 330.014 58.7668 330.014 62.447C330.014 65.4847 331.007 67.9966 332.993 69.9827Z" fill="#6CFFB0"/>
<path d="M302.73 222.599L314.998 161.262H342.687C349.171 161.262 354.75 162.314 359.423 164.417C364.097 166.52 367.689 169.528 370.201 173.442C372.713 177.297 373.969 181.912 373.969 187.287C373.969 192.719 373.005 197.597 371.077 201.92C369.208 206.243 366.55 209.952 363.103 213.048C359.715 216.144 355.685 218.51 351.011 220.146C346.338 221.781 341.197 222.599 335.589 222.599H302.73ZM326.652 206.476H336.29C339.971 206.476 343.038 205.688 345.491 204.11C348.003 202.475 349.901 200.313 351.187 197.626C352.472 194.881 353.114 191.843 353.114 188.513C353.114 186.118 352.618 184.103 351.625 182.467C350.69 180.832 349.259 179.576 347.331 178.699C345.462 177.823 343.125 177.385 340.321 177.385H332.435L326.652 206.476Z" fill="white"/>
<path d="M403.075 223.475C397.818 223.475 393.203 222.57 389.231 220.759C385.317 218.948 382.25 216.378 380.03 213.048C377.81 209.718 376.7 205.805 376.7 201.306C376.7 196.049 377.927 191.347 380.38 187.199C382.834 183.051 386.28 179.78 390.72 177.385C395.218 174.99 400.446 173.793 406.405 173.793C411.545 173.793 415.927 174.698 419.548 176.509C423.17 178.32 425.945 180.802 427.873 183.957C429.801 187.111 430.764 190.762 430.764 194.91C430.764 196.37 430.648 197.802 430.414 199.204C430.239 200.605 430.005 201.949 429.713 203.234H392.473L394.313 193.683H420.6L412.363 196.224C412.831 194.355 412.801 192.778 412.276 191.493C411.808 190.149 410.991 189.127 409.822 188.426C408.654 187.666 407.223 187.287 405.529 187.287C403.134 187.287 401.235 187.929 399.833 189.214C398.431 190.5 397.409 192.164 396.766 194.209C396.182 196.253 395.89 198.386 395.89 200.605C395.89 203.585 396.679 205.717 398.256 207.002C399.891 208.229 402.257 208.842 405.353 208.842C407.164 208.842 408.975 208.579 410.786 208.054C412.597 207.469 414.262 206.622 415.781 205.512L424.017 217.517C420.746 219.737 417.329 221.285 413.765 222.161C410.26 223.037 406.697 223.475 403.075 223.475Z" fill="white"/>
<path d="M444.142 222.599L434.416 174.669H453.956L461.141 213.661H450.889L473.934 174.669H493.475L464.646 222.599H444.142Z" fill="white"/>
<path d="M514.146 223.475C508.888 223.475 504.273 222.57 500.301 220.759C496.387 218.948 493.32 216.378 491.1 213.048C488.881 209.718 487.771 205.805 487.771 201.306C487.771 196.049 488.997 191.347 491.451 187.199C493.904 183.051 497.351 179.78 501.791 177.385C506.289 174.99 511.517 173.793 517.475 173.793C522.616 173.793 526.997 174.698 530.619 176.509C534.241 178.32 537.016 180.802 538.943 183.957C540.871 187.111 541.835 190.762 541.835 194.91C541.835 196.37 541.718 197.802 541.484 199.204C541.309 200.605 541.075 201.949 540.783 203.234H503.543L505.383 193.683H531.67L523.434 196.224C523.901 194.355 523.872 192.778 523.346 191.493C522.879 190.149 522.061 189.127 520.893 188.426C519.724 187.666 518.293 187.287 516.599 187.287C514.204 187.287 512.306 187.929 510.904 189.214C509.502 190.5 508.479 192.164 507.837 194.209C507.253 196.253 506.96 198.386 506.96 200.605C506.96 203.585 507.749 205.717 509.326 207.002C510.962 208.229 513.328 208.842 516.424 208.842C518.235 208.842 520.046 208.579 521.857 208.054C523.667 207.469 525.332 206.622 526.851 205.512L535.088 217.517C531.816 219.737 528.399 221.285 524.836 222.161C521.331 223.037 517.767 223.475 514.146 223.475Z" fill="white"/>
<path d="M542.399 222.599L555.367 157.582H575.17L562.202 222.599H542.399Z" fill="white"/>
<path d="M599.107 223.475C593.849 223.475 589.264 222.57 585.35 220.759C581.436 218.89 578.398 216.29 576.237 212.961C574.134 209.631 573.082 205.746 573.082 201.306C573.082 196.049 574.368 191.347 576.938 187.199C579.508 183.051 583.042 179.78 587.54 177.385C592.038 174.99 597.179 173.793 602.962 173.793C608.278 173.793 612.864 174.727 616.719 176.596C620.633 178.407 623.642 180.978 625.745 184.307C627.906 187.579 628.987 191.463 628.987 195.961C628.987 201.219 627.702 205.921 625.131 210.069C622.561 214.216 619.027 217.488 614.529 219.883C610.089 222.278 604.948 223.475 599.107 223.475ZM600.246 208.054C601.998 208.054 603.517 207.615 604.802 206.739C606.088 205.805 607.081 204.519 607.782 202.884C608.541 201.19 608.921 199.204 608.921 196.925C608.921 194.881 608.307 193.099 607.081 191.58C605.854 190.003 604.101 189.214 601.823 189.214C600.129 189.214 598.61 189.682 597.267 190.616C595.982 191.493 594.959 192.778 594.2 194.472C593.499 196.107 593.148 198.064 593.148 200.343C593.148 202.621 593.762 204.49 594.988 205.951C596.274 207.353 598.026 208.054 600.246 208.054Z" fill="white"/>
<path d="M664.718 223.475C661.038 223.475 657.796 222.716 654.992 221.197C652.246 219.678 650.26 217.108 649.033 213.486C647.865 209.864 647.777 204.928 648.771 198.678C649.647 193.479 651.049 189.039 652.977 185.359C654.904 181.62 657.328 178.758 660.249 176.772C663.229 174.786 666.646 173.793 670.501 173.793C673.714 173.793 676.81 174.669 679.789 176.421C682.827 178.115 685.31 180.598 687.238 183.869C689.224 187.141 690.217 191.171 690.217 195.961C690.217 199.875 689.545 203.526 688.201 206.914C686.858 210.244 684.989 213.165 682.593 215.677C680.257 218.13 677.54 220.058 674.444 221.46C671.407 222.804 668.165 223.475 664.718 223.475ZM626.777 239.598L639.745 174.669H658.409L657.095 181.153L653.853 198.678L651.312 216.027L646.58 239.598H626.777ZM661.476 207.878C663.229 207.878 664.747 207.44 666.033 206.564C667.318 205.629 668.311 204.344 669.012 202.708C669.771 201.073 670.151 199.145 670.151 196.925C670.151 194.705 669.508 192.895 668.223 191.493C666.996 190.091 665.273 189.39 663.053 189.39C661.359 189.39 659.84 189.857 658.497 190.792C657.212 191.668 656.189 192.924 655.43 194.559C654.729 196.195 654.378 198.123 654.378 200.343C654.378 202.562 654.992 204.373 656.219 205.775C657.504 207.177 659.256 207.878 661.476 207.878Z" fill="white"/>
<path d="M701.8 223.475C698.587 223.475 695.959 222.512 693.914 220.584C691.928 218.598 690.935 216.086 690.935 213.048C690.935 209.368 692.132 206.418 694.527 204.198C696.981 201.978 699.931 200.868 703.378 200.868C706.649 200.868 709.248 201.832 711.176 203.76C713.162 205.688 714.155 208.2 714.155 211.296C714.155 213.749 713.6 215.881 712.49 217.692C711.381 219.503 709.891 220.934 708.022 221.986C706.152 222.979 704.078 223.475 701.8 223.475Z" fill="white"/>
<g style="mix-blend-mode:darken">
<path fill-rule="evenodd" clip-rule="evenodd" d="M673.593 221.817C673.879 221.704 674.162 221.585 674.444 221.46C677.54 220.058 680.257 218.13 682.593 215.677C684.989 213.165 686.858 210.244 688.201 206.914C689.545 203.526 690.217 199.875 690.217 195.961C690.217 191.171 689.224 187.141 687.238 183.869C685.31 180.598 682.827 178.115 679.79 176.421C676.81 174.669 673.714 173.793 670.501 173.793C666.646 173.793 663.229 174.786 660.249 176.772C659.288 177.425 658.381 178.173 657.528 179.016L658.409 174.669H639.745L627.074 238.11L640.42 239.543L637.068 217.895L650.644 219.353L651.009 217.534C651.534 218.299 652.118 218.981 652.762 219.58L673.593 221.817ZM661.476 207.878C663.229 207.878 664.747 207.44 666.033 206.564C667.318 205.629 668.311 204.344 669.012 202.708C669.771 201.073 670.151 199.145 670.151 196.925C670.151 194.705 669.508 192.895 668.223 191.493C666.996 190.091 665.273 189.39 663.053 189.39C661.359 189.39 659.84 189.857 658.497 190.792C657.212 191.668 656.189 192.924 655.43 194.559C654.729 196.195 654.378 198.123 654.378 200.343C654.378 202.562 654.992 204.373 656.219 205.775C657.504 207.177 659.256 207.878 661.476 207.878Z" fill="#FFF96C"/>
<path d="M470.13 213.481L486.783 185.795L468.518 183.834L466.157 187.828L470.13 213.481Z" fill="#FFF96C"/>
<path d="M491.974 186.352C491.795 186.63 491.62 186.912 491.451 187.199C488.997 191.347 487.771 196.049 487.771 201.306C487.771 205.805 488.881 209.718 491.1 213.048C493.32 216.378 496.387 218.948 500.301 220.759C504.273 222.57 508.888 223.475 514.146 223.475C517.767 223.475 521.331 223.037 524.836 222.161C528.399 221.285 531.816 219.737 535.088 217.517L526.851 205.512C525.332 206.622 523.667 207.469 521.857 208.054C520.046 208.579 518.235 208.842 516.424 208.842C513.328 208.842 510.962 208.229 509.326 207.002C508.26 206.133 507.554 204.877 507.209 203.234H540.783C541.075 201.949 541.309 200.605 541.484 199.204C541.718 197.802 541.835 196.37 541.835 194.91C541.835 193.799 541.766 192.723 541.627 191.683L522.291 189.607C522.743 190.143 523.095 190.771 523.346 191.493C523.614 192.147 523.753 192.877 523.763 193.683H508.013C508.66 191.877 509.624 190.388 510.904 189.214C511.199 188.943 511.517 188.701 511.857 188.487L491.974 186.352Z" fill="#FFF96C"/>
<path d="M548.42 192.412L542.399 222.599H562.202L571.965 173.652L552.577 171.57L549.306 187.97L550.021 192.584L548.42 192.412Z" fill="#FFF96C"/>
<path d="M569.538 157.582L572 173.477L575.17 157.582H569.538Z" fill="#FFF96C"/>
<path fill-rule="evenodd" clip-rule="evenodd" d="M585.35 220.759C589.264 222.57 593.849 223.475 599.107 223.475C604.948 223.475 610.089 222.278 614.529 219.883C619.027 217.488 622.561 214.216 625.131 210.069C627.702 205.921 628.987 201.219 628.987 195.961C628.987 191.463 627.906 187.579 625.745 184.307C623.642 180.978 620.633 178.407 616.719 176.596C612.864 174.727 608.278 173.793 602.962 173.793C597.179 173.793 592.038 174.99 587.54 177.385C583.042 179.78 579.508 183.051 576.938 187.199C574.368 191.347 573.082 196.049 573.082 201.306C573.082 205.746 574.134 209.631 576.237 212.961C578.398 216.29 581.436 218.89 585.35 220.759ZM604.802 206.739C603.517 207.615 601.998 208.054 600.246 208.054C598.026 208.054 596.274 207.353 594.988 205.951C593.762 204.49 593.148 202.621 593.148 200.343C593.148 198.064 593.499 196.107 594.2 194.472C594.959 192.778 595.982 191.493 597.267 190.616C598.61 189.682 600.129 189.214 601.823 189.214C604.101 189.214 605.854 190.003 607.081 191.58C608.307 193.099 608.921 194.881 608.921 196.925C608.921 199.204 608.541 201.19 607.782 202.884C607.081 204.519 606.088 205.805 604.802 206.739Z" fill="#FFF96C"/>
<path d="M693.914 220.584C695.959 222.512 698.587 223.475 701.8 223.475C704.079 223.475 706.152 222.979 708.022 221.986C709.891 220.934 711.381 219.503 712.49 217.692C713.6 215.881 714.155 213.749 714.155 211.296C714.155 208.2 713.162 205.688 711.176 203.76C709.248 201.832 706.649 200.868 703.378 200.868C699.931 200.868 696.981 201.978 694.527 204.198C692.132 206.418 690.935 209.368 690.935 213.048C690.935 216.086 691.928 218.598 693.914 220.584Z" fill="#FFF96C"/>
</g>
<path d="M605.302 373.197L617.569 311.86H645.259C651.743 311.86 657.321 312.911 661.995 315.014C666.668 317.117 670.261 320.126 672.773 324.04C675.284 327.895 676.54 332.51 676.54 337.884C676.54 343.317 675.577 348.195 673.649 352.517C671.779 356.84 669.122 360.55 665.675 363.646C662.287 366.742 658.256 369.108 653.583 370.743C648.91 372.379 643.769 373.197 638.161 373.197H605.302ZM629.223 357.074H638.862C642.542 357.074 645.609 356.285 648.063 354.708C650.574 353.072 652.473 350.911 653.758 348.224C655.043 345.478 655.686 342.441 655.686 339.111C655.686 336.716 655.189 334.701 654.196 333.065C653.262 331.429 651.83 330.173 649.903 329.297C648.033 328.421 645.697 327.983 642.893 327.983H635.007L629.223 357.074Z" fill="white"/>
<path d="M705.647 374.073C700.389 374.073 695.774 373.168 691.802 371.357C687.888 369.546 684.821 366.975 682.602 363.646C680.382 360.316 679.272 356.402 679.272 351.904C679.272 346.647 680.499 341.944 682.952 337.797C685.405 333.649 688.852 330.378 693.292 327.983C697.79 325.588 703.018 324.39 708.976 324.39C714.117 324.39 718.498 325.296 722.12 327.106C725.742 328.917 728.517 331.4 730.444 334.555C732.372 337.709 733.336 341.36 733.336 345.508C733.336 346.968 733.219 348.399 732.985 349.801C732.81 351.203 732.576 352.547 732.284 353.832H695.044L696.884 344.281H723.172L714.935 346.822C715.402 344.953 715.373 343.375 714.847 342.09C714.38 340.747 713.562 339.724 712.394 339.023C711.225 338.264 709.794 337.884 708.1 337.884C705.705 337.884 703.807 338.527 702.405 339.812C701.003 341.097 699.98 342.762 699.338 344.807C698.754 346.851 698.461 348.983 698.461 351.203C698.461 354.182 699.25 356.315 700.827 357.6C702.463 358.826 704.829 359.44 707.925 359.44C709.736 359.44 711.547 359.177 713.358 358.651C715.168 358.067 716.833 357.22 718.352 356.11L726.589 368.115C723.318 370.334 719.9 371.882 716.337 372.759C712.832 373.635 709.268 374.073 705.647 374.073Z" fill="white"/>
<path d="M733.9 373.197L746.868 308.18H766.671L753.703 373.197H733.9Z" fill="white"/>
<path d="M762.481 373.197L772.032 325.266H791.747L782.196 373.197H762.481ZM784.036 321.411C780.59 321.411 777.844 320.505 775.799 318.695C773.813 316.884 772.82 314.664 772.82 312.035C772.82 308.939 773.959 306.369 776.238 304.324C778.574 302.28 781.641 301.257 785.438 301.257C788.885 301.257 791.601 302.104 793.587 303.798C795.632 305.492 796.654 307.654 796.654 310.283C796.654 313.554 795.486 316.241 793.149 318.344C790.871 320.389 787.833 321.411 784.036 321.411Z" fill="white"/>
<path d="M804.645 373.197L794.919 325.266H814.459L821.644 364.259H811.392L834.437 325.266H853.977L825.149 373.197H804.645Z" fill="white"/>
<path d="M874.648 374.073C869.391 374.073 864.776 373.168 860.804 371.357C856.89 369.546 853.823 366.975 851.603 363.646C849.383 360.316 848.273 356.402 848.273 351.904C848.273 346.647 849.5 341.944 851.954 337.797C854.407 333.649 857.854 330.378 862.293 327.983C866.791 325.588 872.02 324.39 877.978 324.39C883.119 324.39 887.5 325.296 891.122 327.106C894.743 328.917 897.518 331.4 899.446 334.555C901.374 337.709 902.338 341.36 902.338 345.508C902.338 346.968 902.221 348.399 901.987 349.801C901.812 351.203 901.578 352.547 901.286 353.832H864.046L865.886 344.281H892.173L883.936 346.822C884.404 344.953 884.375 343.375 883.849 342.09C883.382 340.747 882.564 339.724 881.395 339.023C880.227 338.264 878.796 337.884 877.102 337.884C874.707 337.884 872.808 338.527 871.406 339.812C870.004 341.097 868.982 342.762 868.339 344.807C867.755 346.851 867.463 348.983 867.463 351.203C867.463 354.182 868.252 356.315 869.829 357.6C871.465 358.826 873.83 359.44 876.927 359.44C878.737 359.44 880.548 359.177 882.359 358.651C884.17 358.067 885.835 357.22 887.354 356.11L895.59 368.115C892.319 370.334 888.902 371.882 885.338 372.759C881.834 373.635 878.27 374.073 874.648 374.073Z" fill="white"/>
<path d="M902.902 373.197L912.453 325.266H931.117L928.4 338.848L926.56 334.993C928.546 331.196 931.292 328.479 934.797 326.844C938.36 325.208 942.42 324.39 946.977 324.39L943.472 341.915C942.654 341.798 941.894 341.71 941.193 341.652C940.551 341.594 939.879 341.564 939.178 341.564C935.907 341.564 933.249 342.295 931.204 343.755C929.218 345.215 927.875 347.64 927.174 351.028L922.705 373.197H902.902Z" fill="white"/>
<path d="M952.259 374.073C949.046 374.073 946.418 373.109 944.373 371.181C942.387 369.195 941.394 366.683 941.394 363.646C941.394 359.966 942.592 357.015 944.987 354.796C947.44 352.576 950.39 351.466 953.837 351.466C957.108 351.466 959.707 352.43 961.635 354.358C963.621 356.285 964.614 358.797 964.614 361.893C964.614 364.347 964.059 366.479 962.95 368.29C961.84 370.101 960.35 371.532 958.481 372.583C956.611 373.576 954.538 374.073 952.259 374.073Z" fill="white"/>
<path d="M272.938 141.282C276.372 143.791 277.401 148.465 275.339 152.185C272.878 156.627 267.079 157.904 262.979 154.907L253.618 148.066C252.739 147.423 251.495 147.697 250.967 148.65C250.439 149.602 249.195 149.876 248.316 149.233L232.888 137.958C232.009 137.315 230.765 137.589 230.237 138.541C229.709 139.494 228.466 139.768 227.586 139.125L216.049 130.693C212.615 128.183 211.586 123.51 213.648 119.789C216.109 115.347 221.908 114.07 226.008 117.067L235.369 123.909C236.248 124.551 237.492 124.277 238.02 123.325C238.548 122.372 239.791 122.098 240.671 122.741L256.099 134.017C256.978 134.659 258.222 134.386 258.75 133.433C259.278 132.48 260.521 132.206 261.4 132.849L272.938 141.282Z" fill="#6CFFB0"/>
<path d="M510.501 259.445L503.342 275.312L522.375 290.846L515.866 305.27L532.884 307.958L538.302 295.949L544.013 300.609L546.616 294.839L565.65 310.372L572.81 294.505L553.776 278.972L551.172 284.742L532.139 269.208L529.535 274.978L510.501 259.445Z" fill="#FFF96C"/>
</svg>
