<svg width="704" height="64" viewBox="0 0 704 64" fill="none" xmlns="http://www.w3.org/2000/svg">
<rect x="12" y="8" width="40" height="48" rx="4" fill="#232B3E"/>
<path fill-rule="evenodd" clip-rule="evenodd" d="M37.0714 16.8299C38.2699 17.974 38.3141 19.8729 37.1701 21.0714L26.6701 32.0714C26.1007 32.6679 25.311 33.0037 24.4865 33C23.662 32.9963 22.8753 32.6534 22.3114 32.0518L17.8114 27.2518C16.6782 26.0431 16.7394 24.1446 17.9482 23.0114C19.1569 21.8782 21.0554 21.9394 22.1886 23.1482L24.5196 25.6346L32.8299 16.9286C33.974 15.7301 35.8729 15.6859 37.0714 16.8299ZM17 40C17 38.3432 18.3431 37 20 37H44C45.6569 37 47 38.3432 47 40C47 41.6569 45.6569 43 44 43H20C18.3431 43 17 41.6569 17 40ZM40 25C38.3431 25 37 26.3431 37 28C37 29.6569 38.3431 31 40 31H44C45.6569 31 47 29.6569 47 28C47 26.3432 45.6569 25 44 25H40Z" fill="url(#paint0_linear_277_2074)"/>
<g filter="url(#filter0_b_277_2074)">
<path fill-rule="evenodd" clip-rule="evenodd" d="M126 38.2829C129.703 34.653 132 29.5948 132 24C132 12.9543 123.046 4 112 4C100.954 4 92 12.9543 92 24C92 29.5948 94.2973 34.653 98 38.2829V56.1136C98 57.7404 99.8387 58.6866 101.162 57.7411L110.838 50.8303C111.533 50.3336 112.467 50.3336 113.162 50.8303L122.838 57.7411C124.161 58.6866 126 57.7404 126 56.1136V38.2829Z" fill="#232B3E"/>
</g>
<circle cx="112" cy="24" r="14" fill="url(#paint1_linear_277_2074)"/>
<g filter="url(#filter1_b_277_2074)">
<circle cx="192" cy="32" r="24" fill="#232B3E"/>
</g>
<path fill-rule="evenodd" clip-rule="evenodd" d="M195 18C195 16.3431 193.657 15 192 15C190.343 15 189 16.3431 189 18V32C189 33.6569 190.343 35 192 35H206C207.657 35 209 33.6569 209 32C209 30.3431 207.657 29 206 29H195V18Z" fill="url(#paint2_linear_277_2074)"/>
<path d="M272 56C251.833 48.6665 251.154 27.9347 251.944 10.6229C252.024 8.87151 254.267 8.0074 255.778 8.89715C260.534 11.6984 265.934 11.2124 270.466 7.43921C271.345 6.70742 272.655 6.70742 273.534 7.43921C278.066 11.2124 283.466 11.6984 288.222 8.89715C289.733 8.0074 291.976 8.87151 292.056 10.6229C292.847 27.9347 292.167 48.6665 272 56Z" fill="#232B3E"/>
<path d="M264 32L270 38L282 26" stroke="url(#paint3_linear_277_2074)" stroke-width="6" stroke-linecap="round" stroke-linejoin="round"/>
<path fill-rule="evenodd" clip-rule="evenodd" d="M364.527 38.8702C366.404 35.9503 367.493 32.4756 367.493 28.7465C367.493 18.3931 359.1 10 348.746 10C338.393 10 330 18.3931 330 28.7465C330 39.0999 338.393 47.493 348.746 47.493C352.476 47.493 355.95 46.4041 358.87 44.5271L367.164 52.8209C368.726 54.383 371.259 54.383 372.821 52.8209C374.383 51.2588 374.383 48.7262 372.821 47.1641L364.527 38.8702Z" fill="#232B3E"/>
<path d="M356 26C356 25.2121 355.845 24.4319 355.543 23.7039C355.242 22.9759 354.8 22.3145 354.243 21.7574C353.685 21.2002 353.024 20.7583 352.296 20.4567C351.568 20.1552 350.788 20 350 20" stroke="url(#paint4_linear_277_2074)" stroke-width="6" stroke-linecap="round"/>
<path fill-rule="evenodd" clip-rule="evenodd" d="M425 24C425 22.3431 423.657 21 422 21C420.343 21 419 22.3431 419 24V26C419 27.6569 420.343 29 422 29C423.657 29 425 27.6569 425 26V24ZM429 26C429 24.3431 430.343 23 432 23C433.657 23 435 24.3431 435 26V29.1916L437.952 31.7222C439.21 32.8005 439.356 34.6944 438.278 35.9524C437.2 37.2104 435.306 37.356 434.048 36.2778L430.048 32.8492C429.383 32.2793 429 31.4472 429 30.5714V26ZM442 21C443.657 21 445 22.3431 445 24V26C445 27.6569 443.657 29 442 29C440.343 29 439 27.6569 439 26V24C439 22.3431 440.343 21 442 21ZM426.949 40.1539C425.377 39.63 423.678 40.4795 423.154 42.0513C422.63 43.6231 423.479 45.3221 425.051 45.8461L425.359 45.9487C429.67 47.3856 434.33 47.3856 438.641 45.9487L438.949 45.8461C440.521 45.3221 441.37 43.6231 440.846 42.0513C440.322 40.4795 438.623 39.63 437.051 40.1539L436.743 40.2566C433.664 41.2829 430.336 41.2829 427.257 40.2566L426.949 40.1539Z" fill="#232B3E"/>
<circle cx="432" cy="32" r="23" stroke="#232B3E" stroke-width="6"/>
<mask id="mask0_277_2074" style="mask-type:alpha" maskUnits="userSpaceOnUse" x="649" y="10" width="49" height="46">
<path fill-rule="evenodd" clip-rule="evenodd" d="M669.266 10.1968C664.756 10.7905 660.523 12.7084 657.103 15.7077C653.683 18.707 651.229 22.6532 650.052 27.0472C648.874 31.4411 649.026 36.0856 650.489 40.3931C651.951 44.7007 654.657 48.4779 658.266 51.2471C661.875 54.0164 666.224 55.6533 670.764 55.9508C675.303 56.2483 679.828 55.1931 683.768 52.9186C685.203 52.0902 685.694 50.2554 684.866 48.8205C684.038 47.3856 682.203 46.894 680.768 47.7224C677.856 49.4036 674.511 50.1835 671.156 49.9636C667.801 49.7437 664.586 48.5338 661.919 46.487C659.252 44.4402 657.251 41.6483 656.17 38.4645C655.089 35.2806 654.977 31.8478 655.847 28.6001C656.717 25.3524 658.531 22.4356 661.059 20.2187C663.587 18.0018 666.715 16.5843 670.049 16.1455C673.383 15.7066 676.771 16.2661 679.787 17.7532C682.503 19.0925 684.806 21.1299 686.465 23.6487L685.624 24.134C684.573 24.7407 683.992 25.9206 684.15 27.1236C684.308 28.3267 685.176 29.3158 686.348 29.6298L691.812 31.0939C693.412 31.5228 695.057 30.573 695.486 28.9726L696.95 23.5085C697.264 22.3365 696.841 21.0907 695.879 20.352C694.916 19.6133 693.603 19.5273 692.553 20.134L691.668 20.6448C689.41 17.1003 686.221 14.2362 682.441 12.3719C678.361 10.36 673.776 9.60303 669.266 10.1968Z" fill="black"/>
</mask>
<g mask="url(#mask0_277_2074)">
<rect x="640" width="64" height="64" fill="#232B3E"/>
</g>
<mask id="mask1_277_2074" style="mask-type:alpha" maskUnits="userSpaceOnUse" x="575" y="15" width="34" height="34">
<path fill-rule="evenodd" clip-rule="evenodd" d="M580.121 15.8787C578.95 14.7071 577.05 14.7071 575.879 15.8787C574.707 17.0503 574.707 18.9497 575.879 20.1213L587.757 32L575.879 43.8787C574.707 45.0503 574.707 46.9497 575.879 48.1213C577.05 49.2929 578.95 49.2929 580.121 48.1213L592 36.2426L603.879 48.1213C605.05 49.2929 606.95 49.2929 608.121 48.1213C609.293 46.9497 609.293 45.0503 608.121 43.8787L596.243 32L608.121 20.1213C609.293 18.9497 609.293 17.0503 608.121 15.8787C606.95 14.7071 605.05 14.7071 603.879 15.8787L592 27.7574L580.121 15.8787Z" fill="black"/>
</mask>
<g mask="url(#mask1_277_2074)">
<rect x="560" width="64" height="64" fill="#232B3E"/>
</g>
<path d="M503 50H494V41M521 50H530V41" stroke="#232B3E" stroke-width="6" stroke-linecap="round" stroke-linejoin="round"/>
<path d="M503 14H494V23M521 14H530V23" stroke="#232B3E" stroke-width="6" stroke-linecap="round" stroke-linejoin="round"/>
<path d="M486 32H538" stroke="#232B3E" stroke-width="6" stroke-linecap="round"/>
<defs>
<filter id="filter0_b_277_2074" x="90" y="2" width="44" height="58.1172" filterUnits="userSpaceOnUse" color-interpolation-filters="sRGB">
<feFlood flood-opacity="0" result="BackgroundImageFix"/>
<feGaussianBlur in="BackgroundImageFix" stdDeviation="1"/>
<feComposite in2="SourceAlpha" operator="in" result="effect1_backgroundBlur_277_2074"/>
<feBlend mode="normal" in="SourceGraphic" in2="effect1_backgroundBlur_277_2074" result="shape"/>
</filter>
<filter id="filter1_b_277_2074" x="166" y="6" width="52" height="52" filterUnits="userSpaceOnUse" color-interpolation-filters="sRGB">
<feFlood flood-opacity="0" result="BackgroundImageFix"/>
<feGaussianBlur in="BackgroundImageFix" stdDeviation="1"/>
<feComposite in2="SourceAlpha" operator="in" result="effect1_backgroundBlur_277_2074"/>
<feBlend mode="normal" in="SourceGraphic" in2="effect1_backgroundBlur_277_2074" result="shape"/>
</filter>
<linearGradient id="paint0_linear_277_2074" x1="17" y1="-11" x2="57.2287" y2="28.9095" gradientUnits="userSpaceOnUse">
<stop stop-color="#82FF96"/>
<stop offset="1" stop-color="#7CFFFF"/>
</linearGradient>
<linearGradient id="paint1_linear_277_2074" x1="94.7998" y1="4" x2="146.8" y2="65" gradientUnits="userSpaceOnUse">
<stop stop-color="#7CFFFF"/>
<stop offset="1" stop-color="#82FF96"/>
</linearGradient>
<linearGradient id="paint2_linear_277_2074" x1="177.399" y1="7" x2="213.399" y2="37" gradientUnits="userSpaceOnUse">
<stop stop-color="#82FF96"/>
<stop offset="1" stop-color="#7CFFFF"/>
</linearGradient>
<linearGradient id="paint3_linear_277_2074" x1="262" y1="19" x2="280" y2="40" gradientUnits="userSpaceOnUse">
<stop stop-color="#82FF96"/>
<stop offset="1" stop-color="#7CFFFF"/>
</linearGradient>
<linearGradient id="paint4_linear_277_2074" x1="359" y1="28" x2="339" y2="12" gradientUnits="userSpaceOnUse">
<stop stop-color="#7CFFFF"/>
<stop offset="1" stop-color="#82FF96"/>
</linearGradient>
</defs>
</svg>
