<svg width="522" height="72" viewBox="0 0 522 72" fill="none" xmlns="http://www.w3.org/2000/svg">
<path d="M129.093 20.0323L127.339 30.403C127.229 31.0724 126.72 31.6019 126.062 31.7518L125.693 31.8317C125.235 31.9316 124.766 31.8317 124.377 31.5719C122.463 30.2531 120.499 29.2041 118.504 28.4248C116.291 27.5655 114.436 27.1359 112.921 27.1359C111.535 27.1359 110.468 27.4456 109.71 28.0751C108.952 28.7045 108.573 29.4838 108.573 30.403C108.573 31.522 109.132 32.4512 110.258 33.1805C111.375 33.9099 113.29 34.829 115.992 35.958C118.893 37.077 121.316 38.186 123.26 39.275C125.205 40.3641 126.89 41.9027 128.306 43.8809C129.722 45.8591 130.43 48.3369 130.43 51.3143C130.43 54.2916 129.692 57.0591 128.206 59.6368C126.72 62.2145 124.377 64.2926 121.187 65.8812C117.986 67.4698 114.017 68.2591 109.271 68.2591C103.997 68.2591 98.8317 67.4198 93.7864 65.7413C93.0187 65.4816 92.55 64.6923 92.6797 63.893L94.4645 52.4033C94.5143 52.0836 94.6838 51.8038 94.9431 51.604H94.963C95.5812 51.1344 96.4287 51.1744 97.027 51.6639C99.071 53.3225 101.305 54.6713 103.737 55.7203C106.569 56.9392 109.042 57.5487 111.156 57.5487C112.542 57.5487 113.658 57.219 114.516 56.5596C115.373 55.9002 115.802 55.0709 115.802 54.0818C115.802 52.9628 115.244 52.0336 114.117 51.3043C113 50.5749 111.086 49.6557 108.384 48.5268C105.413 47.3378 102.96 46.1789 101.015 45.0599C99.071 43.9409 97.3859 42.3823 95.9701 40.404C94.5542 38.4258 93.8463 35.9081 93.8463 32.8708C93.8463 29.8335 94.6838 26.8462 96.3689 24.2985C98.054 21.7607 100.477 19.7425 103.638 18.2539C106.798 16.7652 110.558 16.0259 114.915 16.0259C119.272 16.0259 123.639 16.7352 128.007 18.144C128.784 18.3938 129.253 19.203 129.123 20.0123L129.093 20.0323Z" fill="#254441"/>
<path d="M171.958 29.0242L163.243 28.5346C163.243 28.5346 163.194 28.5346 163.174 28.5346C162.206 28.5346 161.419 29.3139 161.399 30.2831L161.04 50.9845C161.04 50.9845 161.04 51.0445 161.04 51.0844L161.568 65.4416C161.608 66.4507 160.801 67.2899 159.793 67.2899H148.666C147.649 67.2899 146.841 66.4407 146.891 65.4316L147.489 52.5831C147.489 52.5831 147.489 52.5032 147.489 52.4732L147.12 30.3031C147.1 29.3339 146.313 28.5546 145.346 28.5546C145.346 28.5546 145.296 28.5546 145.276 28.5546L135.205 29.1141C134.836 29.1341 134.487 28.9842 134.238 28.7145L133.989 28.4447C133.759 28.1949 133.65 27.8652 133.68 27.5255L134.398 18.5936C134.467 17.6644 135.245 16.955 136.172 16.955H173.174C173.563 16.955 173.932 17.1448 174.162 17.4546L174.321 17.6744C174.491 17.9142 174.57 18.1939 174.55 18.4936L173.832 27.4057C173.753 28.3648 172.925 29.0941 171.958 29.0442V29.0242Z" fill="#254441"/>
<path d="M194.801 67.2797H182.506C181.808 67.2797 181.26 66.7002 181.29 66.0008L181.918 52.5529C181.918 52.5529 181.918 52.5029 181.918 52.4729L181.25 18.1837C181.24 17.5043 181.789 16.9448 182.467 16.9448H195.11C195.798 16.9448 196.346 17.5143 196.326 18.1936L195.469 50.9943C195.469 50.9943 195.469 51.0442 195.469 51.0742L196.017 66.0208C196.047 66.7102 195.489 67.2797 194.801 67.2797Z" fill="#254441"/>
<path d="M244.426 19.3929L242.192 29.9634C242.123 30.3131 241.893 30.6128 241.584 30.7827C241.215 30.9825 240.767 30.9725 240.408 30.7627C237.446 29.0742 234.046 28.235 230.217 28.235C226.658 28.235 224.015 29.2241 222.31 31.2123C220.595 33.1905 219.738 36.4276 219.738 40.9236C219.738 50.8347 223.527 55.7903 231.115 55.7903C234.904 55.7903 238.374 55.1409 241.524 53.852C241.883 53.7021 242.282 53.7321 242.611 53.9319L242.721 54.0019C243.12 54.2516 243.339 54.7012 243.289 55.1708L242.172 65.6714C242.123 66.171 241.774 66.5906 241.285 66.7305C237.755 67.6996 233.996 68.1892 230.018 68.1892C221.513 68.1892 215.072 65.9911 210.684 61.5951C206.297 57.199 204.104 50.8747 204.104 42.6221C204.104 34.3695 206.447 27.6455 211.123 23.0496C215.799 18.4537 222.43 16.1658 231.005 16.1658C235.542 16.1658 239.74 16.7752 243.618 18.0041C244.217 18.194 244.556 18.8134 244.426 19.4229V19.3929Z" fill="#254441"/>
<path d="M297.521 64.6322L297.481 64.932C297.421 65.4415 297.053 65.8711 296.544 65.981C292.217 66.9801 287.67 67.7295 282.904 68.229C282.675 68.249 282.435 68.209 282.226 68.1091L281.059 67.5196C280.87 67.4297 280.71 67.2799 280.591 67.11C275.715 59.8665 271.348 53.0926 267.479 46.8082C266.841 45.7791 265.265 46.2087 265.235 47.4276L265.146 50.9944C265.146 50.9944 265.146 51.0444 265.146 51.0744L265.694 66.021C265.724 66.7104 265.166 67.2799 264.478 67.2799H252.173C251.476 67.2799 250.927 66.7004 250.957 66.001L251.585 52.5531C251.585 52.5531 251.585 52.5031 251.585 52.4731L250.917 18.1839C250.907 17.5045 251.456 16.945 252.134 16.945H264.777C265.465 16.945 266.013 17.5144 265.993 18.1938L265.544 34.8189C265.515 36.0279 267.06 36.5374 267.748 35.5583L277.061 22.3501C277.061 22.3501 277.111 22.2802 277.131 22.2402L279.723 17.5644C279.933 17.1847 280.341 16.945 280.78 16.935L293.732 16.855C294.719 16.855 295.308 17.964 294.729 18.7733L279.773 40.0143C279.474 40.4339 279.474 40.9934 279.773 41.423C284.729 48.4268 290.542 55.8601 297.232 63.7031C297.451 63.9628 297.561 64.3025 297.521 64.6322Z" fill="#254441"/>
<path d="M339.769 56.809L338.932 66.1707C338.872 66.8001 338.353 67.2797 337.725 67.2797H303.814C303.116 67.2797 302.568 66.7002 302.598 66.0008L303.226 52.5529C303.226 52.5529 303.226 52.5029 303.226 52.4729L302.558 18.1837C302.548 17.5043 303.096 16.9448 303.774 16.9448H338.742C339.111 16.9448 339.45 17.1046 339.679 17.3944L339.889 17.6541C340.088 17.9039 340.188 18.2136 340.158 18.5333L339.321 27.7851C339.261 28.4345 338.712 28.914 338.064 28.8941L326.159 28.4445H318.541C317.883 28.4445 317.345 28.974 317.325 29.6334L317.185 34.9286C317.165 35.618 317.714 36.1775 318.402 36.1775H325.66L333.617 35.8978C334.016 35.8878 334.405 36.0676 334.644 36.3973L334.794 36.5972C334.963 36.8369 335.043 37.1267 335.023 37.4164L334.265 46.808C334.215 47.4574 333.667 47.947 333.019 47.927L324.683 47.6672L318.033 47.7472C317.384 47.7472 316.856 48.2767 316.836 48.9261L316.776 50.9843C316.776 50.9843 316.776 51.0442 316.776 51.0742L316.926 54.621C316.956 55.2704 317.484 55.79 318.142 55.79H325.281L338.363 55.3104C338.722 55.3004 339.071 55.4403 339.311 55.71L339.47 55.8799C339.699 56.1297 339.809 56.4694 339.779 56.809H339.769Z" fill="#254441"/>
<path d="M391.967 64.3125L391.927 64.6922C391.867 65.1817 391.518 65.5914 391.05 65.7313C386.423 67.07 382.016 67.8693 377.828 68.1491C377.549 68.1691 377.27 68.0891 377.031 67.9193L375.545 66.8503C375.395 66.7403 375.266 66.6005 375.176 66.4406C372.594 61.6849 370.211 57.069 368.027 52.603C367.827 52.1834 367.409 51.9236 366.94 51.9236H362.433C361.745 51.9236 361.187 52.5031 361.217 53.1925L361.715 66.021C361.745 66.7104 361.187 67.2899 360.499 67.2899H348.205C347.507 67.2899 346.958 66.7104 346.988 66.011L347.616 52.563C347.616 52.563 347.616 52.5131 347.616 52.4831L346.948 18.1839C346.938 17.5045 347.477 16.945 348.155 16.945L370.759 16.855C376.622 16.855 381.139 18.1938 384.309 20.8714C387.47 23.549 389.056 27.3656 389.056 32.3212C389.056 35.3585 388.268 38.2059 386.682 40.8435C385.287 43.1715 383.412 45.1897 381.049 46.8981C380.51 47.2878 380.351 48.0271 380.72 48.5766C383.651 52.9327 387.311 57.8783 391.708 63.4333C391.907 63.6831 392.007 64.0128 391.967 64.3325V64.3125ZM371.507 29.0241C370.3 28.045 368.366 27.4855 365.714 27.3456C365.654 27.3456 365.594 27.3456 365.534 27.3456L362.862 27.5555C362.244 27.6054 361.755 28.115 361.735 28.7444L361.486 39.7445C361.476 40.4039 361.975 40.9535 362.633 40.9834L367.808 41.2931C367.987 41.3031 368.186 41.2732 368.356 41.2032C371.676 39.8544 373.331 37.3866 373.331 33.7799C373.331 31.6018 372.723 30.0133 371.507 29.0241Z" fill="#254441"/>
<path d="M452.94 67.2799H439.35C438.662 67.2799 438.103 66.7004 438.133 66.0111L438.871 48.3869C438.871 48.3869 438.871 48.3369 438.871 48.3169L438.791 43.0916C438.781 42.4322 438.253 41.9027 437.595 41.8927L425.919 41.7128L415.709 41.9826C415.061 42.0026 414.542 42.5221 414.522 43.1715L414.442 46.7683L415.001 66.031C415.021 66.7204 414.472 67.2799 413.784 67.2799H400.194C399.496 67.2799 398.948 66.7004 398.978 66.0011L399.805 48.3869C399.805 48.3869 399.805 48.3369 399.805 48.3069L398.938 4.60608C398.928 3.92669 399.476 3.36719 400.154 3.36719H414.093C414.771 3.36719 415.32 3.92669 415.31 4.60608L414.861 27.5255C414.851 28.1949 415.38 28.7544 416.048 28.7644L426.906 29.0342L437.356 28.8543C438.024 28.8444 438.562 28.2849 438.552 27.6155L438.103 4.60608C438.093 3.92669 438.642 3.36719 439.32 3.36719H453.159C453.837 3.36719 454.386 3.92669 454.376 4.60608L453.508 46.7283C453.508 46.7283 453.508 46.7683 453.508 46.7983L454.157 66.0211C454.177 66.7104 453.628 67.2799 452.94 67.2799Z" fill="#00D81E"/>
<path d="M514 10.6406C518.946 15.756 521.419 23.1394 521.419 32.7908C521.419 44.1506 518.587 52.8728 512.913 58.9473C507.24 65.0219 499.134 68.0592 488.584 68.0592C482.522 68.0592 476.38 67.8793 467.147 67.3498C466.259 67.2999 465.571 66.5505 465.621 65.6513L466.439 48.3768C466.439 48.3768 466.439 48.3269 466.439 48.2969L465.571 4.60602C465.561 3.91664 466.11 3.34715 466.798 3.34715H468.094L492.543 2.94751C501.905 2.94751 509.055 5.50522 514 10.6306V10.6406ZM504.707 36.6573C504.707 29.1241 503.65 23.7389 501.547 20.5018C499.433 17.2647 496.013 15.6461 491.257 15.6461C488.195 15.6461 485.364 15.746 482.751 15.9559C482.133 16.0058 481.655 16.5253 481.645 17.1548L481.076 46.7682L481.246 54.0417C481.256 54.6412 481.714 55.1507 482.313 55.2207C485.773 55.6603 488.854 55.8801 491.556 55.8801C500.32 55.8801 504.707 49.4758 504.707 36.6573Z" fill="#00D81E"/>
<path d="M31.2198 17.9039C29.435 19.3226 29.1359 21.9303 30.5517 23.7287C31.9676 25.5171 34.57 25.8168 36.3648 24.3981C38.1496 22.9793 38.4487 20.3717 37.0328 18.5733C35.617 16.7849 33.0145 16.4851 31.2198 17.9039Z" fill="#00D81E"/>
<path d="M53.4551 22.0801C51.6703 23.4988 51.3712 26.0965 52.7871 27.8849C54.2029 29.6733 56.7954 29.973 58.5802 28.5543C60.365 27.1356 60.6641 24.5379 59.2482 22.7495C57.8324 20.9611 55.2399 20.6614 53.4551 22.0801Z" fill="#00D81E"/>
<path d="M36.3041 0C14.1986 0 0 21.6306 0 50.4948C0 69.7275 30.3315 74.1536 60.5035 71.1363C82.4595 68.9382 82.9381 52.413 82.9381 33.1803C82.9381 13.9475 58.4096 0 36.3041 0ZM35.0677 33.9196C21.1084 31.1521 14.5974 24.1883 20.8691 15.656C28.7461 4.94557 42.4861 7.29347 52.8658 11.15C66.1072 16.0656 74.6822 28.5045 68.9589 34.2593C65.828 37.4065 52.0382 37.2866 35.0577 33.9296L35.0677 33.9196Z" fill="#00D81E"/>
</svg>
