<svg width="222" height="157" viewBox="0 0 222 157" fill="none" xmlns="http://www.w3.org/2000/svg">
<path d="M0.150121 138.363L3.54964 137.088L15.2355 108.829H16.5103L28.6211 137.725L30.7458 138.363V139H25.6465C24.1734 139 22.9694 138.674 22.0345 138.023C21.0996 137.343 20.4056 136.465 19.9523 135.388L17.7851 130.289H7.62905L4.82445 137.088L8.0115 138.363V139H0.150121V138.363ZM8.05399 129.226H17.3602L12.6858 118.05L8.05399 129.226ZM29.456 119.028L27.3313 118.39V117.753H32.643C34.1162 117.753 35.2777 118.065 36.1275 118.688C37.0058 119.283 37.7565 120.175 38.3797 121.365L43.4365 131.181L48.1533 119.665L44.9663 118.39V117.753H52.8277V118.39L49.4282 119.665L41.3543 139.425H40.0795L29.456 119.028ZM53.6593 138.363L56.2089 137.725V119.028L53.6593 118.39V117.753H59.1835C61.7331 117.753 63.008 119.028 63.008 121.577V137.725L65.5576 138.363V139H53.6593V138.363ZM59.1835 115.203C58.3336 115.203 57.6254 114.92 57.0588 114.354C56.4922 113.787 56.2089 113.079 56.2089 112.229C56.2089 111.379 56.4922 110.671 57.0588 110.104C57.6254 109.538 58.3336 109.254 59.1835 109.254C60.0334 109.254 60.7416 109.538 61.3082 110.104C61.8748 110.671 62.1581 111.379 62.1581 112.229C62.1581 113.079 61.8748 113.787 61.3082 114.354C60.7416 114.92 60.0334 115.203 59.1835 115.203ZM76.3869 139.637C73.8656 139.637 71.925 139.099 70.5652 138.023C69.2054 136.946 68.5255 135.572 68.5255 133.901C68.5255 132.796 68.7663 131.705 69.2479 130.629C69.4462 130.119 69.7012 129.651 70.0128 129.226C71.1743 128.943 72.435 128.688 73.7948 128.462C76.8543 127.952 79.5598 127.64 81.9111 127.527V126.252C81.9111 123.107 81.5287 120.94 80.7638 119.75C79.9989 118.56 78.8232 117.965 77.2368 117.965C76.6419 117.965 76.1319 118.036 75.707 118.178L75.1121 118.39V124.765L74.5597 124.892C74.1064 124.949 73.7239 124.977 73.4123 124.977C72.4491 124.977 71.6701 124.694 71.0752 124.127C70.5086 123.532 70.2253 122.753 70.2253 121.79C70.2253 120.487 70.8769 119.382 72.18 118.475C73.5115 117.569 75.4804 117.116 78.0867 117.116C80.2963 117.116 82.1944 117.512 83.7808 118.305C85.3956 119.07 86.6138 120.147 87.4353 121.535C88.2852 122.895 88.7101 124.467 88.7101 126.252V137.725L91.2598 138.363V139H87.4353C85.7356 139 84.4183 138.476 83.4834 137.428C83.0868 137.003 82.7752 136.465 82.5485 135.813C82.1519 136.521 81.6845 137.159 81.1462 137.725C79.8714 139 78.285 139.637 76.3869 139.637ZM78.0867 138.15C79.1348 138.15 80.0839 137.584 80.9338 136.45C81.2454 136.025 81.5712 135.459 81.9111 134.751V128.589C80.608 128.589 79.3615 128.66 78.1716 128.801C77.2934 128.915 76.6985 128.986 76.3869 129.014C76.2453 129.326 76.1036 129.75 75.962 130.289C75.6787 131.365 75.537 132.428 75.537 133.476C75.537 135.062 75.7778 136.238 76.2594 137.003C76.741 137.768 77.3501 138.15 78.0867 138.15ZM93.8293 138.363L96.379 137.725V119.028L93.8293 118.39V117.753H97.6538C99.3252 117.753 100.643 118.291 101.606 119.368C101.974 119.793 102.286 120.317 102.541 120.94C102.937 120.204 103.405 119.566 103.943 119.028C105.218 117.753 106.804 117.116 108.702 117.116C110.289 117.116 111.705 117.456 112.952 118.135C114.226 118.787 115.218 119.651 115.926 120.728C116.634 121.804 116.989 122.937 116.989 124.127V137.725L119.538 138.363V139H114.014C111.464 139 110.19 137.725 110.19 135.176V124.127C110.19 122.342 109.864 120.983 109.212 120.048C108.589 119.085 107.852 118.603 107.002 118.603C105.926 118.603 104.963 119.169 104.113 120.303C103.745 120.784 103.433 121.351 103.178 122.002V137.725L105.728 138.363V139H93.8293V138.363ZM122.514 138.363L125.064 137.725V110.529L122.514 109.892V109.254H134.625V109.892L132.076 110.529V137.938H141.212C141.212 136.153 141.665 134.496 142.572 132.966C142.968 132.314 143.436 131.776 143.974 131.351H145.249V139H122.514V138.363ZM159.499 139.637C155.873 139.637 153.054 138.646 151.043 136.663C149.031 134.651 148.026 131.889 148.026 128.377C148.026 126.082 148.465 124.085 149.343 122.385C150.221 120.685 151.439 119.382 152.998 118.475C154.584 117.569 156.397 117.116 158.437 117.116C160.476 117.116 162.261 117.498 163.791 118.263C165.349 119.028 166.539 120.062 167.36 121.365C168.21 122.64 168.635 124.056 168.635 125.614C168.635 126.323 168.564 126.932 168.423 127.442L168.21 128.164C166.992 128.419 165.675 128.631 164.258 128.801C161.284 129.226 158.281 129.439 155.25 129.439C155.25 132.725 155.703 135.076 156.609 136.493C157.516 137.881 158.763 138.575 160.349 138.575C161.454 138.575 162.474 138.32 163.409 137.81C164.372 137.272 165.122 136.578 165.661 135.728C166.227 134.85 166.511 133.957 166.511 133.051H167.573C167.573 134.184 167.233 135.261 166.553 136.28C165.873 137.3 164.924 138.122 163.706 138.745C162.488 139.34 161.086 139.637 159.499 139.637ZM155.25 128.377C157.063 128.377 158.536 128.306 159.669 128.164C160.151 128.136 160.661 128.065 161.199 127.952C161.227 127.81 161.298 127.498 161.411 127.017C161.553 126.308 161.624 125.558 161.624 124.765C161.624 122.413 161.312 120.699 160.689 119.623C160.066 118.518 159.315 117.965 158.437 117.965C156.312 117.965 155.25 121.436 155.25 128.377ZM171.804 138.363L174.354 137.725V119.028L171.804 118.39V117.753H175.629C177.3 117.753 178.617 118.291 179.58 119.368C179.949 119.793 180.26 120.317 180.515 120.94C180.912 120.204 181.379 119.566 181.918 119.028C183.192 117.753 184.779 117.116 186.677 117.116C188.263 117.116 189.68 117.456 190.926 118.135C192.201 118.787 193.193 119.651 193.901 120.728C194.609 121.804 194.963 122.937 194.963 124.127V137.725L197.513 138.363V139H191.989C189.439 139 188.164 137.725 188.164 135.176V124.127C188.164 122.342 187.838 120.983 187.187 120.048C186.564 119.085 185.827 118.603 184.977 118.603C183.901 118.603 182.937 119.169 182.088 120.303C181.719 120.784 181.408 121.351 181.153 122.002V137.725L183.702 138.363V139H171.804V138.363ZM210.05 139.637C208.294 139.637 206.722 139.255 205.333 138.49C204.654 138.122 204.101 137.725 203.676 137.3C203.223 137.923 202.727 138.405 202.189 138.745C201.934 138.915 201.651 139.071 201.339 139.212H200.277V131.988H201.976C202.345 133.178 202.883 134.283 203.591 135.303C205.093 137.484 206.962 138.575 209.2 138.575C210.39 138.575 211.283 138.292 211.877 137.725C212.501 137.13 212.812 136.28 212.812 135.176C212.812 134.241 212.387 133.462 211.538 132.838C210.716 132.187 209.413 131.394 207.628 130.459C206.098 129.694 204.852 129.014 203.889 128.419C202.954 127.796 202.146 127.031 201.466 126.124C200.815 125.189 200.489 124.099 200.489 122.852C200.489 121.153 201.212 119.779 202.656 118.73C204.129 117.654 206.382 117.116 209.413 117.116C210.914 117.116 212.302 117.512 213.577 118.305C214.201 118.674 214.739 119.056 215.192 119.453C215.56 118.943 216.056 118.461 216.679 118.008C217.161 117.725 217.444 117.569 217.529 117.541H218.592V124.765H216.892C216.467 123.546 215.943 122.456 215.32 121.492C213.903 119.283 212.217 118.178 210.263 118.178C209.498 118.178 208.846 118.461 208.308 119.028C207.77 119.594 207.501 120.303 207.501 121.153C207.501 122.229 207.954 123.136 208.86 123.872C209.767 124.58 211.141 125.402 212.982 126.337C214.484 127.102 215.674 127.782 216.552 128.377C217.458 128.943 218.223 129.651 218.847 130.501C219.498 131.351 219.824 132.343 219.824 133.476C219.824 137.584 216.566 139.637 210.05 139.637Z" fill="#00FF85"/>
<path d="M105.519 48.7339H101.088V80.4846H105.519V48.7339Z" fill="url(#paint0_linear_1084_2435)"/>
<path d="M123.978 60.9379L88.7736 48.3074C82.6913 46.1253 79.0598 39.8847 80.1677 33.5185L82.7451 18.7075L132.082 27.2932L123.978 60.9379Z" fill="#137457"/>
<path d="M98.873 38.0477L154.991 89.735L124.174 35.6603L98.873 38.0477Z" fill="url(#paint1_linear_1084_2435)"/>
<path d="M95.1331 14.7299L160.909 35.0261C149.737 39.4799 139.522 44.7015 133.947 52.8152L96.4103 39.1953C92.476 37.7678 90.2706 33.5844 91.3157 29.5317L95.1331 14.7299Z" fill="url(#paint2_linear_1084_2435)"/>
<path d="M62.327 19.6506C61.1905 19.3186 61.0846 17.7501 62.1662 17.2683L77.9318 10.2459L73.3705 22.8769L62.327 19.6506Z" fill="#B9DD67"/>
<path fill-rule="evenodd" clip-rule="evenodd" d="M104.78 15.8959C104.78 24.6749 96.8094 31.7918 86.9769 31.7918C77.1443 31.7918 69.1735 24.6749 69.1735 15.8959C69.1735 7.11683 77.1443 0 86.9769 0H90.9132C98.5717 0 104.78 6.20846 104.78 13.867V15.2601L104.766 15.2477C104.775 15.4627 104.78 15.6788 104.78 15.8959Z" fill="url(#paint3_linear_1084_2435)"/>
<path d="M79.6646 15.2601C81.2448 15.2601 82.5259 13.9791 82.5259 12.3989C82.5259 10.8186 81.2448 9.5376 79.6646 9.5376C78.0844 9.5376 76.8033 10.8186 76.8033 12.3989C76.8033 13.9791 78.0844 15.2601 79.6646 15.2601Z" fill="#B9DD67"/>
<defs>
<linearGradient id="paint0_linear_1084_2435" x1="103.303" y1="48.7339" x2="103.303" y2="80.4846" gradientUnits="userSpaceOnUse">
<stop stop-color="#B9DD67"/>
<stop offset="1" stop-color="#B9DD67" stop-opacity="0"/>
</linearGradient>
<linearGradient id="paint1_linear_1084_2435" x1="136.894" y1="36.2789" x2="134.582" y2="97.8187" gradientUnits="userSpaceOnUse">
<stop stop-color="#00FFFF"/>
<stop offset="1" stop-color="white"/>
</linearGradient>
<linearGradient id="paint2_linear_1084_2435" x1="88.9761" y1="36.1032" x2="158.612" y2="48.2215" gradientUnits="userSpaceOnUse">
<stop offset="0.165568" stop-color="#08D0FF"/>
<stop offset="1" stop-color="#00FF85"/>
</linearGradient>
<linearGradient id="paint3_linear_1084_2435" x1="81.0278" y1="1.06337" x2="93.1316" y2="34.317" gradientUnits="userSpaceOnUse">
<stop stop-color="#146A41"/>
<stop offset="1" stop-color="#00FF85"/>
</linearGradient>
</defs>
</svg>
