<svg width="134" height="32" viewBox="0 0 134 32" fill="none" xmlns="http://www.w3.org/2000/svg">
<g clip-path="url(#clip0_943_1661)">
<path d="M8.07975 5.1978C7.96654 5.71227 7.46375 6.05082 6.94598 5.94461C3.49138 5.24759 0.7044 7.96598 0.113373 11.0395C-0.0797514 12.0452 -0.0181514 13.0393 0.253222 13.9571C0.982432 16.4182 3.8793 17.4953 6.07525 16.1577L15.7365 10.2728C16.9402 9.54756 18.2737 9.36334 19.1295 9.99896C19.9402 10.5997 19.8437 12.0286 19.6539 13.0177L19.5473 13.5687C19.4857 13.8923 19.8354 14.138 20.1201 13.9687C20.1201 13.9687 25.6124 10.6794 27.4521 9.599C30.2141 7.97428 29.9611 5.37704 28.188 3.63282C27.3439 2.80303 26.2518 2.20392 24.9998 1.96328C23.513 1.67783 22.0463 1.94835 20.8193 2.62711C20.19 2.97397 19.4025 2.83124 18.9497 2.27528C18.024 1.14179 16.6938 0.326937 15.1238 0.074681C12.1004 -0.413235 8.89554 1.51188 8.08142 5.1978H8.07975Z" fill="white"/>
<path d="M25.1694 26.8022C25.2827 26.2877 25.7854 25.9492 26.3032 26.0554C29.7578 26.7541 32.5448 24.0357 33.1358 20.9621C33.3289 19.9564 33.2673 18.9623 32.996 18.0446C32.2668 15.5834 29.3699 14.5064 27.1739 15.844L17.5127 21.7289C16.309 22.4541 14.9755 22.6383 14.1197 22.0027C13.3089 21.4019 13.4055 19.973 13.5953 18.9839L13.7019 18.4329C13.7635 18.1093 13.4138 17.8637 13.1291 18.033C13.1291 18.033 7.63675 21.3223 5.79707 22.4027C3.03506 24.0274 3.28812 26.6246 5.0612 28.3688C5.90529 29.1986 6.99744 29.7977 8.24942 30.0384C9.73614 30.3238 11.2029 30.0533 12.4299 29.3745C13.0592 29.0277 13.8467 29.1704 14.2995 29.7264C15.2252 30.8599 16.5554 31.6747 18.1254 31.927C21.1488 32.4149 24.3537 30.4898 25.1678 26.8039L25.1694 26.8022Z" fill="white"/>
<path d="M66.876 27.2918C66.806 27.2918 66.7361 27.2918 66.6662 27.2885C61.9863 27.179 58.1787 23.2159 58.1787 18.4546V11.023C58.1787 9.65713 59.2925 8.54688 60.6627 8.54688C62.0329 8.54688 63.1467 9.65713 63.1467 11.023V18.5209C63.1467 20.5622 64.7016 22.2367 66.6878 22.3347C66.7511 22.338 66.8127 22.3396 66.876 22.3396C68.9321 22.3396 70.6053 20.6718 70.6053 18.6222V11.023C70.6053 9.65713 71.7191 8.54688 73.0892 8.54688C74.4594 8.54688 75.5732 9.65713 75.5732 11.023V18.6222C75.5732 23.4018 71.6724 27.2918 66.876 27.2918Z" fill="white"/>
<path d="M53.7567 26.935C52.3865 26.935 51.2727 25.8247 51.2727 24.4589V16.868C51.2727 14.8267 49.7178 13.1522 47.7316 13.0543C47.6683 13.051 47.6067 13.0493 47.5434 13.0493C45.4873 13.0493 43.8142 14.7172 43.8142 16.7667V24.4589C43.8142 25.8247 42.7004 26.935 41.3302 26.935C39.96 26.935 38.8462 25.8247 38.8462 24.4589V16.7667C38.8462 11.9872 42.747 8.09711 47.5434 8.09711C47.6134 8.09711 47.6833 8.09711 47.7532 8.09877C52.4332 8.20996 56.2407 12.1714 56.2407 16.9327V24.4589C56.2407 25.8247 55.1269 26.935 53.7567 26.935Z" fill="white"/>
<path d="M87.1408 27.2918C81.9215 27.2918 77.5112 22.8225 77.5112 17.5318V7.11629C77.5112 5.75046 78.625 4.6402 79.9952 4.6402C81.3654 4.6402 82.4792 5.75046 82.4792 7.11629V8.92689C82.4792 9.00489 82.5208 9.07791 82.5874 9.1194C82.624 9.14098 82.664 9.15259 82.7056 9.15259C82.7406 9.15259 82.7755 9.14429 82.8072 9.1277C84.1624 8.44395 85.6208 8.0971 87.1391 8.0971C87.2507 8.0971 87.3622 8.09876 87.4738 8.10208C92.5 8.27302 96.5789 12.3307 96.7604 17.3376C96.8553 19.9614 95.903 22.4475 94.0766 24.3411C92.2486 26.2363 89.7946 27.2835 87.1658 27.2901H87.1408V27.2918ZM87.1391 13.0493C84.5703 13.0493 82.4792 15.1337 82.4792 17.6944C82.4792 20.2552 84.5703 22.3396 87.1391 22.3396C89.708 22.3396 91.7991 20.2552 91.7991 17.6944C91.7991 15.1337 89.708 13.0493 87.1391 13.0493Z" fill="white"/>
<path d="M130.703 27.2917C129.843 27.2917 129.055 26.8553 128.597 26.1234C128.554 26.0553 128.481 26.0172 128.406 26.0172C128.368 26.0172 128.329 26.0271 128.294 26.047C126.853 26.8619 125.216 27.2934 123.56 27.2934C118.25 27.2934 113.932 22.9884 113.932 17.696C113.932 12.4036 118.25 8.09869 123.56 8.09869C128.869 8.09869 133.187 12.4036 133.187 17.696C133.187 17.706 133.187 17.716 133.189 17.7259H133.187V24.8173C133.187 26.1831 132.074 27.2934 130.703 27.2934V27.2917ZM123.56 13.0492C120.991 13.0492 118.9 15.1336 118.9 17.6944C118.9 20.2551 120.991 22.3395 123.56 22.3395C126.128 22.3395 128.22 20.2551 128.22 17.6944C128.22 15.1336 126.128 13.0492 123.56 13.0492Z" fill="white"/>
<path d="M101.442 26.827C100.072 26.827 98.958 25.7168 98.958 24.3509V13.5985C98.958 12.2327 100.072 11.1224 101.442 11.1224C102.812 11.1224 103.926 12.2327 103.926 13.5985V24.3509C103.926 25.7168 102.812 26.827 101.442 26.827Z" fill="white"/>
<path d="M109.283 26.827C107.913 26.827 106.799 25.7168 106.799 24.3509V6.73452C106.799 5.36868 107.913 4.25842 109.283 4.25842C110.653 4.25842 111.767 5.36868 111.767 6.73452V24.3526C111.767 25.7184 110.653 26.8287 109.283 26.8287V26.827Z" fill="white"/>
<path d="M101.442 9.26213C100.058 9.26213 98.9312 8.14025 98.9312 6.75948C98.9312 5.37871 100.057 4.25684 101.442 4.25684C102.827 4.25684 103.952 5.37871 103.952 6.75948C103.952 8.14025 102.827 9.26213 101.442 9.26213Z" fill="white"/>
</g>
<defs>
<clipPath id="clip0_943_1661">
<rect width="133.189" height="32" fill="white"/>
</clipPath>
</defs>
</svg>
