<svg width="351" height="475" viewBox="0 0 351 475" fill="none" xmlns="http://www.w3.org/2000/svg">
<g clip-path="url(#clip0_215_548)">
<rect width="351" height="475" fill="white"/>
<g clip-path="url(#clip1_215_548)">
<rect width="700" height="1200" transform="translate(-162)" fill="white"/>
<g filter="url(#filter0_f_215_548)">
<ellipse cx="294.5" cy="246" rx="129.5" ry="114" fill="#7CFFFF"/>
</g>
<g filter="url(#filter1_f_215_548)">
<ellipse cx="67" cy="80" rx="89" ry="88" fill="#82FF96"/>
</g>
<g filter="url(#filter2_f_215_548)">
<ellipse cx="280.5" cy="33" rx="50.5" ry="47" fill="#B094FF"/>
</g>
<g filter="url(#filter3_f_215_548)">
<ellipse cx="47" cy="241" rx="57" ry="50" fill="#B094FF"/>
</g>
</g>
<path d="M0 131.04C0 124.837 5.02874 119.808 11.232 119.808H339.768C345.971 119.808 351 124.837 351 131.04V475.032H0V131.04Z" fill="white"/>
<path d="M95.0037 367.32V354.216H97.587L104.102 362.678V354.216H106.647V367.32H104.251L97.5683 358.559V367.32H95.0037ZM113.612 367.507C112.638 367.507 111.758 367.283 110.972 366.833C110.186 366.384 109.562 365.779 109.1 365.018C108.638 364.256 108.408 363.401 108.408 362.453C108.408 361.504 108.632 360.65 109.082 359.888C109.543 359.114 110.167 358.503 110.954 358.054C111.752 357.604 112.638 357.38 113.612 357.38C114.585 357.38 115.465 357.604 116.251 358.054C117.05 358.503 117.674 359.114 118.123 359.888C118.585 360.65 118.816 361.504 118.816 362.453C118.816 363.401 118.585 364.256 118.123 365.018C117.674 365.779 117.056 366.384 116.27 366.833C115.484 367.283 114.598 367.507 113.612 367.507ZM113.612 365.28C114.123 365.28 114.579 365.155 114.978 364.905C115.39 364.656 115.715 364.319 115.952 363.894C116.201 363.458 116.326 362.977 116.326 362.453C116.326 361.916 116.201 361.436 115.952 361.011C115.715 360.587 115.39 360.25 114.978 360.001C114.579 359.738 114.123 359.607 113.612 359.607C113.113 359.607 112.657 359.738 112.245 360.001C111.833 360.25 111.509 360.587 111.272 361.011C111.035 361.436 110.916 361.916 110.916 362.453C110.916 362.977 111.035 363.458 111.272 363.894C111.509 364.319 111.833 364.656 112.245 364.905C112.657 365.155 113.113 365.28 113.612 365.28ZM124.327 367.32V354.216H130.729C131.615 354.216 132.395 354.391 133.069 354.74C133.755 355.077 134.286 355.551 134.66 356.163C135.047 356.774 135.241 357.48 135.241 358.278C135.241 359.114 135.01 359.851 134.548 360.487C134.086 361.124 133.468 361.598 132.695 361.91L135.596 367.32H132.564L129.999 362.303H127.041V367.32H124.327ZM127.041 360.075H130.486C131.097 360.075 131.584 359.913 131.946 359.589C132.32 359.264 132.507 358.84 132.507 358.316C132.507 357.792 132.32 357.367 131.946 357.043C131.584 356.718 131.097 356.556 130.486 356.556H127.041V360.075ZM140.462 367.507C139.714 367.507 139.046 367.345 138.459 367.021C137.885 366.684 137.43 366.222 137.093 365.635C136.768 365.049 136.606 364.375 136.606 363.614V357.567H139.171V363.239C139.171 363.863 139.352 364.362 139.714 364.737C140.088 365.111 140.587 365.298 141.211 365.298C141.636 365.298 142.016 365.217 142.353 365.055C142.703 364.88 142.99 364.637 143.214 364.325V357.567H145.779V367.32H143.214V366.534C142.465 367.183 141.548 367.507 140.462 367.507ZM147.778 367.32V354.216L150.342 353.786V367.32H147.778ZM157.122 367.507C156.148 367.507 155.262 367.283 154.463 366.833C153.677 366.384 153.053 365.779 152.591 365.018C152.13 364.256 151.899 363.401 151.899 362.453C151.899 361.504 152.117 360.65 152.554 359.888C153.003 359.127 153.608 358.522 154.37 358.072C155.131 357.623 155.98 357.398 156.916 357.398C157.852 357.398 158.682 357.629 159.405 358.091C160.129 358.553 160.697 359.177 161.109 359.963C161.533 360.749 161.745 361.642 161.745 362.64V363.314H154.52C154.632 363.701 154.813 364.05 155.062 364.362C155.324 364.674 155.643 364.918 156.017 365.092C156.404 365.267 156.816 365.354 157.253 365.354C157.689 365.354 158.089 365.286 158.451 365.149C158.825 365.011 159.143 364.818 159.405 364.568L161.09 366.103C160.491 366.59 159.873 366.946 159.237 367.17C158.613 367.395 157.908 367.507 157.122 367.507ZM154.482 361.479H159.218C159.131 361.093 158.969 360.756 158.732 360.469C158.507 360.169 158.232 359.938 157.908 359.776C157.596 359.601 157.246 359.514 156.86 359.514C156.46 359.514 156.098 359.595 155.774 359.757C155.449 359.919 155.175 360.15 154.95 360.45C154.738 360.737 154.582 361.08 154.482 361.479ZM167.059 367.507C166.16 367.507 165.33 367.395 164.569 367.17C163.808 366.933 163.146 366.596 162.584 366.159L163.857 364.456C164.419 364.83 164.956 365.111 165.467 365.298C165.992 365.486 166.509 365.579 167.021 365.579C167.595 365.579 168.051 365.486 168.388 365.298C168.737 365.099 168.912 364.843 168.912 364.531C168.912 364.281 168.812 364.082 168.612 363.932C168.425 363.782 168.119 363.676 167.695 363.614L165.823 363.333C164.85 363.183 164.113 362.871 163.614 362.397C163.115 361.91 162.865 361.274 162.865 360.487C162.865 359.851 163.028 359.308 163.352 358.859C163.689 358.397 164.157 358.041 164.756 357.792C165.368 357.53 166.091 357.398 166.928 357.398C167.639 357.398 168.332 357.498 169.005 357.698C169.692 357.898 170.335 358.203 170.934 358.615L169.698 360.281C169.161 359.944 168.65 359.701 168.163 359.551C167.676 359.402 167.183 359.327 166.684 359.327C166.222 359.327 165.848 359.414 165.561 359.589C165.286 359.763 165.149 359.994 165.149 360.281C165.149 360.543 165.249 360.749 165.449 360.899C165.648 361.049 165.992 361.155 166.478 361.217L168.332 361.498C169.305 361.635 170.048 361.947 170.559 362.434C171.071 362.908 171.327 363.526 171.327 364.287C171.327 364.911 171.14 365.467 170.765 365.954C170.391 366.428 169.885 366.808 169.249 367.095C168.612 367.37 167.882 367.507 167.059 367.507ZM175.284 367.32L180.675 354.216H183.801L189.137 367.32H186.198L184.868 363.876H179.458L178.111 367.32H175.284ZM180.301 361.704H184.045L182.173 356.874L180.301 361.704ZM191.581 367.32L187.406 357.567H190.195L192.872 364.063L195.53 357.567H198.264L194.07 367.32H191.581ZM202.109 367.489C201.41 367.489 200.793 367.364 200.256 367.114C199.719 366.852 199.301 366.496 199.002 366.047C198.702 365.598 198.552 365.08 198.552 364.493C198.552 363.557 198.902 362.834 199.601 362.322C200.312 361.798 201.286 361.536 202.521 361.536C203.37 361.536 204.168 361.667 204.917 361.929V361.217C204.917 360.656 204.743 360.231 204.393 359.944C204.044 359.657 203.532 359.514 202.858 359.514C202.446 359.514 202.003 359.582 201.529 359.72C201.055 359.845 200.506 360.044 199.882 360.319L198.946 358.428C199.719 358.079 200.456 357.817 201.155 357.642C201.866 357.467 202.577 357.38 203.289 357.38C204.599 357.38 205.616 357.698 206.34 358.334C207.076 358.958 207.444 359.845 207.444 360.993V367.32H204.917V366.627C204.518 366.927 204.087 367.145 203.626 367.283C203.164 367.42 202.658 367.489 202.109 367.489ZM200.986 364.437C200.986 364.812 201.148 365.111 201.473 365.336C201.797 365.548 202.228 365.654 202.764 365.654C203.189 365.654 203.582 365.604 203.944 365.504C204.306 365.392 204.63 365.23 204.917 365.018V363.595C204.605 363.47 204.281 363.376 203.944 363.314C203.607 363.252 203.245 363.22 202.858 363.22C202.271 363.22 201.81 363.333 201.473 363.557C201.148 363.77 200.986 364.063 200.986 364.437ZM209.385 367.32V357.567H211.95V367.32H209.385ZM210.658 356.406C210.259 356.406 209.916 356.263 209.629 355.976C209.342 355.689 209.198 355.346 209.198 354.946C209.198 354.534 209.342 354.191 209.629 353.917C209.916 353.63 210.259 353.486 210.658 353.486C211.07 353.486 211.413 353.63 211.688 353.917C211.975 354.191 212.119 354.534 212.119 354.946C212.119 355.346 211.975 355.689 211.688 355.976C211.413 356.263 211.07 356.406 210.658 356.406ZM213.956 367.32V354.216L216.52 353.786V367.32H213.956ZM221.634 367.489C220.935 367.489 220.317 367.364 219.78 367.114C219.244 366.852 218.826 366.496 218.526 366.047C218.227 365.598 218.077 365.08 218.077 364.493C218.077 363.557 218.426 362.834 219.125 362.322C219.837 361.798 220.81 361.536 222.045 361.536C222.894 361.536 223.693 361.667 224.442 361.929V361.217C224.442 360.656 224.267 360.231 223.917 359.944C223.568 359.657 223.056 359.514 222.382 359.514C221.971 359.514 221.528 359.582 221.053 359.72C220.579 359.845 220.03 360.044 219.406 360.319L218.47 358.428C219.244 358.079 219.98 357.817 220.679 357.642C221.39 357.467 222.102 357.38 222.813 357.38C224.123 357.38 225.141 357.698 225.864 358.334C226.601 358.958 226.969 359.845 226.969 360.993V367.32H224.442V366.627C224.042 366.927 223.612 367.145 223.15 367.283C222.688 367.42 222.183 367.489 221.634 367.489ZM220.51 364.437C220.51 364.812 220.673 365.111 220.997 365.336C221.322 365.548 221.752 365.654 222.289 365.654C222.713 365.654 223.106 365.604 223.468 365.504C223.83 365.392 224.155 365.23 224.442 365.018V363.595C224.13 363.47 223.805 363.376 223.468 363.314C223.131 363.252 222.769 363.22 222.382 363.22C221.796 363.22 221.334 363.333 220.997 363.557C220.673 363.77 220.51 364.063 220.51 364.437ZM228.91 367.32V354.216L231.474 353.786V358.353C232.248 357.742 233.159 357.436 234.208 357.436C235.131 357.436 235.967 357.661 236.716 358.11C237.465 358.559 238.058 359.164 238.494 359.926C238.944 360.674 239.168 361.517 239.168 362.453C239.168 363.389 238.944 364.238 238.494 364.999C238.045 365.748 237.44 366.347 236.679 366.796C235.917 367.233 235.069 367.451 234.133 367.451C233.646 367.451 233.172 367.382 232.71 367.245C232.248 367.108 231.824 366.908 231.437 366.646V367.32H228.91ZM233.796 365.28C234.332 365.28 234.813 365.155 235.237 364.905C235.674 364.656 236.017 364.319 236.267 363.894C236.516 363.47 236.641 362.99 236.641 362.453C236.641 361.916 236.516 361.436 236.267 361.011C236.017 360.575 235.674 360.238 235.237 360.001C234.813 359.751 234.332 359.626 233.796 359.626C233.322 359.626 232.885 359.707 232.485 359.87C232.098 360.019 231.762 360.25 231.474 360.562V364.362C231.749 364.649 232.086 364.874 232.485 365.036C232.897 365.198 233.334 365.28 233.796 365.28ZM240.72 367.32V354.216L243.284 353.786V367.32H240.72ZM250.063 367.507C249.09 367.507 248.204 367.283 247.405 366.833C246.619 366.384 245.995 365.779 245.533 365.018C245.071 364.256 244.841 363.401 244.841 362.453C244.841 361.504 245.059 360.65 245.496 359.888C245.945 359.127 246.55 358.522 247.312 358.072C248.073 357.623 248.922 357.398 249.858 357.398C250.794 357.398 251.623 357.629 252.347 358.091C253.071 358.553 253.639 359.177 254.051 359.963C254.475 360.749 254.687 361.642 254.687 362.64V363.314H247.461C247.574 363.701 247.755 364.05 248.004 364.362C248.266 364.674 248.585 364.918 248.959 365.092C249.346 365.267 249.758 365.354 250.194 365.354C250.631 365.354 251.031 365.286 251.393 365.149C251.767 365.011 252.085 364.818 252.347 364.568L254.032 366.103C253.433 366.59 252.815 366.946 252.179 367.17C251.555 367.395 250.85 367.507 250.063 367.507ZM247.424 361.479H252.16C252.073 361.093 251.91 360.756 251.673 360.469C251.449 360.169 251.174 359.938 250.85 359.776C250.538 359.601 250.188 359.514 249.801 359.514C249.402 359.514 249.04 359.595 248.716 359.757C248.391 359.919 248.117 360.15 247.892 360.45C247.68 360.737 247.524 361.08 247.424 361.479Z" fill="#232B3E"/>
<rect x="67.392" y="268.632" width="215.28" height="62.712" rx="7.488" fill="white"/>
<rect x="78.624" y="282.672" width="24.336" height="22.464" rx="7.488" fill="url(#paint0_linear_215_548)"/>
<rect x="78.624" y="308.88" width="24.336" height="8.424" rx="4.212" fill="url(#paint1_linear_215_548)"/>
<rect x="117.936" y="282.672" width="128.232" height="18.72" rx="7.488" fill="url(#paint2_linear_215_548)"/>
<rect x="117.936" y="306.072" width="51.48" height="11.232" rx="5.616" fill="url(#paint3_linear_215_548)"/>
<rect x="67.392" y="194.688" width="215.28" height="62.712" rx="7.488" fill="white"/>
<rect x="78.624" y="208.728" width="24.336" height="22.464" rx="7.488" fill="url(#paint4_linear_215_548)"/>
<rect x="78.624" y="234.936" width="24.336" height="8.424" rx="4.212" fill="url(#paint5_linear_215_548)"/>
<rect x="117.936" y="208.728" width="128.232" height="18.72" rx="7.488" fill="url(#paint6_linear_215_548)"/>
<rect x="117.936" y="232.128" width="51.48" height="11.232" rx="5.616" fill="url(#paint7_linear_215_548)"/>
<rect opacity="0.35" x="315.276" y="16.6919" width="19.656" height="9.672" rx="2.028" stroke="#3C3C43" stroke-opacity="0.6" stroke-width="0.936"/>
<path opacity="0.4" d="M336.336 19.656V23.4C337.089 23.0829 337.579 22.3453 337.579 21.528C337.579 20.7108 337.089 19.9731 336.336 19.656" fill="#3C3C43" fill-opacity="0.6"/>
<rect x="316.68" y="18.0959" width="16.848" height="6.864" rx="1.248" fill="black"/>
<path fill-rule="evenodd" clip-rule="evenodd" d="M302.952 18.3597C305.035 18.3598 307.037 19.1592 308.547 20.5928C308.66 20.7035 308.842 20.7021 308.954 20.5897L310.04 19.4943C310.097 19.4372 310.128 19.36 310.128 19.2797C310.127 19.1993 310.095 19.1224 310.038 19.0661C306.077 15.2732 299.827 15.2732 295.866 19.0661C295.809 19.1224 295.776 19.1992 295.776 19.2796C295.775 19.3599 295.807 19.4372 295.864 19.4943L296.95 20.5897C297.062 20.7023 297.244 20.7037 297.357 20.5928C298.867 19.1592 300.87 18.3597 302.952 18.3597ZM302.952 21.9235C304.096 21.9235 305.2 22.3484 306.048 23.1157C306.163 23.2246 306.343 23.2222 306.455 23.1104L307.54 22.0149C307.597 21.9575 307.629 21.8795 307.628 21.7985C307.627 21.7175 307.594 21.6402 307.536 21.584C304.953 19.1837 300.954 19.1837 298.371 21.584C298.313 21.6402 298.28 21.7176 298.279 21.7986C298.278 21.8796 298.31 21.9576 298.367 22.0149L299.452 23.1104C299.564 23.2222 299.744 23.2246 299.859 23.1157C300.707 22.3489 301.809 21.924 302.952 21.9235ZM305.126 24.3215C305.128 24.4027 305.096 24.481 305.038 24.5379L303.161 26.4305C303.106 26.4861 303.031 26.5174 302.952 26.5174C302.874 26.5174 302.799 26.4861 302.744 26.4305L300.867 24.5379C300.809 24.4809 300.777 24.4026 300.779 24.3214C300.78 24.2402 300.815 24.1632 300.876 24.1088C302.075 23.0958 303.83 23.0958 305.029 24.1088C305.089 24.1633 305.124 24.2402 305.126 24.3215Z" fill="black"/>
<path fill-rule="evenodd" clip-rule="evenodd" d="M290.16 16.5358H289.224C288.707 16.5358 288.288 16.9549 288.288 17.4718V25.5838C288.288 26.1008 288.707 26.5198 289.224 26.5198H290.16C290.677 26.5198 291.096 26.1008 291.096 25.5838V17.4718C291.096 16.9549 290.677 16.5358 290.16 16.5358ZM284.856 18.7198H285.792C286.309 18.7198 286.728 19.1388 286.728 19.6558V25.5838C286.728 26.1007 286.309 26.5198 285.792 26.5198H284.856C284.339 26.5198 283.92 26.1007 283.92 25.5838V19.6558C283.92 19.1388 284.339 18.7198 284.856 18.7198ZM281.424 20.9039H280.488C279.971 20.9039 279.552 21.323 279.552 21.8399V25.5839C279.552 26.1009 279.971 26.5199 280.488 26.5199H281.424C281.941 26.5199 282.36 26.1009 282.36 25.5839V21.8399C282.36 21.323 281.941 20.9039 281.424 20.9039ZM277.056 22.7759H276.12C275.603 22.7759 275.184 23.195 275.184 23.7119V25.5839C275.184 26.1009 275.603 26.5199 276.12 26.5199H277.056C277.573 26.5199 277.992 26.1009 277.992 25.5839V23.7119C277.992 23.195 277.573 22.7759 277.056 22.7759Z" fill="black"/>
<path d="M36.5233 16.6471C34.5334 16.6471 33.0681 17.9844 33.0681 19.8464V19.8591C33.0681 21.5931 34.3222 22.8728 36.101 22.8728C37.3487 22.8728 38.27 22.233 38.6348 21.3884H38.6731C38.6731 21.4907 38.6668 21.5867 38.6604 21.6827C38.5964 23.4295 37.9757 24.8499 36.4913 24.8499C35.6659 24.8499 35.1028 24.4404 34.8533 23.807L34.8341 23.7494H33.1961L33.2089 23.8198C33.4968 25.2146 34.7765 26.2 36.4849 26.2C38.8395 26.2 40.2536 24.3764 40.2536 21.3244V21.3116C40.2536 18.074 38.558 16.6471 36.5233 16.6471ZM36.5233 21.5995C35.4739 21.5995 34.6933 20.8509 34.6933 19.8016V19.7888C34.6933 18.7906 35.5187 17.9972 36.5425 17.9972C37.579 17.9972 38.3852 18.797 38.3852 19.8208V19.8272C38.3852 20.8573 37.579 21.5995 36.5233 21.5995ZM42.0518 19.9999C42.5701 19.9999 42.9732 19.5904 42.9732 19.0721C42.9732 18.5539 42.5701 18.1508 42.0518 18.1508C41.5335 18.1508 41.124 18.5539 41.124 19.0721C41.124 19.5904 41.5335 19.9999 42.0518 19.9999ZM42.0518 24.6964C42.5701 24.6964 42.9732 24.2869 42.9732 23.7686C42.9732 23.2503 42.5701 22.8472 42.0518 22.8472C41.5335 22.8472 41.124 23.2503 41.124 23.7686C41.124 24.2869 41.5335 24.6964 42.0518 24.6964ZM48.3865 26.04H49.9605V24.2677H51.2146V22.9112H49.9605V16.8071H47.6123L43.7796 22.86V24.2677H48.3865V26.04ZM45.2641 22.9496V22.9048L48.3737 18.0548H48.4121V22.9496H45.2641ZM54.3373 26.04H55.9561V16.8071H54.3245L51.9123 18.5027V20.0191L54.2989 18.3811H54.3373V26.04Z" fill="black"/>
<path d="M27.6394 86.6479H22.9009L15.2776 71.5769H19.8186L25.303 82.9186L30.7764 71.5769H35.3175L27.6394 86.6479ZM37.7964 86.6479V71.5769H53.0539V74.7907H41.9755V77.2806H52.4836V80.4945H41.9755V83.4341H53.2075V86.6479H37.7964ZM61.2147 86.6479H57.1453V71.5769H67.3462C68.4431 71.5769 69.3718 71.6902 70.1323 71.9169C70.9001 72.1436 71.5217 72.4654 71.997 72.8822C72.4796 73.299 72.8269 73.8035 73.039 74.3959C73.2584 74.9809 73.3681 75.6353 73.3681 76.3593C73.3681 76.9954 73.2767 77.5512 73.0939 78.0265C72.9184 78.5018 72.677 78.9113 72.3699 79.255C72.0701 79.5914 71.7191 79.8766 71.3169 80.1106C70.9147 80.3446 70.4906 80.5384 70.0445 80.6919L74.9805 86.6479H70.22L65.657 81.0978H61.2147V86.6479ZM69.2548 76.3373C69.2548 76.0448 69.2146 75.7962 69.1341 75.5914C69.061 75.3867 68.9294 75.2222 68.7393 75.0979C68.5491 74.9662 68.2932 74.8712 67.9714 74.8127C67.657 74.7542 67.2621 74.7249 66.7868 74.7249H61.2147V77.9497H66.7868C67.2621 77.9497 67.657 77.9205 67.9714 77.862C68.2932 77.8035 68.5491 77.7121 68.7393 77.5878C68.9294 77.4561 69.061 77.2879 69.1341 77.0832C69.2146 76.8784 69.2548 76.6298 69.2548 76.3373ZM77.8982 86.6479V71.5769H81.9676V86.6479H77.8982ZM90.7645 74.7907V77.4123H100.56V80.6261H90.7645V86.6479H86.6951V71.5769H101.097V74.7907H90.7645ZM114.029 80.4945V86.6479H109.971V80.4945L102.666 71.5769H107.229L112.011 77.6426L116.771 71.5769H121.334L114.029 80.4945Z" fill="#232B3E"/>
<path fill-rule="evenodd" clip-rule="evenodd" d="M274.287 73.5121C274.17 73.4862 274.054 73.4485 273.939 73.3984L273.918 73.3889L273.12 73.0286L272.534 72.7645C271.658 72.3689 270.624 72.7019 270.143 73.5348L268.843 75.7858C268.363 76.6187 268.591 77.6804 269.372 78.2418L269.893 78.6166L270.605 79.1278L270.623 79.1416C270.724 79.216 270.815 79.298 270.896 79.386C270.971 79.4676 271.037 79.5543 271.094 79.6451C271.48 80.2533 271.48 81.0424 271.094 81.6506C271.037 81.7414 270.971 81.8281 270.896 81.9096C270.815 81.9977 270.724 82.0797 270.623 82.1541L270.605 82.1679L269.893 82.6791L269.372 83.0539C268.591 83.6152 268.363 84.677 268.843 85.5099L270.143 87.7609C270.624 88.5938 271.658 88.9268 272.534 88.5312L273.12 88.2671L273.918 87.9068L273.939 87.8973C274.054 87.8471 274.171 87.8095 274.287 87.7835C274.395 87.7595 274.503 87.7456 274.611 87.7411C275.33 87.7111 276.014 88.1056 276.348 88.7437C276.397 88.839 276.439 88.9398 276.473 89.0453C276.509 89.1594 276.534 89.279 276.548 89.4035L276.551 89.4268L276.638 90.2984L276.702 90.9373C276.797 91.8942 277.603 92.623 278.564 92.623H281.164C282.125 92.623 282.931 91.8942 283.026 90.9373L283.09 90.2984L283.177 89.4267L283.18 89.4034C283.194 89.2789 283.219 89.1593 283.255 89.0452C283.288 88.9398 283.331 88.8391 283.38 88.7439C283.714 88.1055 284.398 87.7109 285.117 87.741C285.225 87.7455 285.333 87.7594 285.441 87.7834C285.557 87.8093 285.674 87.847 285.789 87.8972L285.81 87.9067L286.608 88.267L287.194 88.5311C288.07 88.9267 289.104 88.5937 289.585 87.7608L290.885 85.5098C291.365 84.6769 291.137 83.6151 290.356 83.0538L289.835 82.679L289.124 82.1679L289.105 82.1541C289.004 82.0798 288.913 81.9978 288.832 81.9097C288.757 81.8281 288.691 81.7413 288.634 81.6504C288.248 81.0423 288.248 80.2535 288.634 79.6453C288.691 79.5544 288.757 79.4676 288.832 79.386C288.913 79.2979 289.004 79.2159 289.105 79.1416L289.124 79.1278L289.835 78.6167L290.356 78.2419C291.137 77.6806 291.365 76.6188 290.885 75.7859L289.585 73.5349C289.104 72.702 288.07 72.369 287.194 72.7646L286.608 73.0287L285.81 73.389L285.789 73.3985C285.674 73.4487 285.557 73.4864 285.441 73.5123C285.333 73.5363 285.225 73.5502 285.117 73.5547C284.398 73.5848 283.714 73.1902 283.38 72.5518C283.33 72.4566 283.288 72.3559 283.255 72.2505C283.219 72.1365 283.194 72.0168 283.18 71.8923L283.177 71.869L283.09 70.9974L283.026 70.3586C282.931 69.4016 282.125 68.6729 281.164 68.6729H278.564C277.603 68.6729 276.797 69.4016 276.702 70.3586L276.638 70.9974L276.551 71.8688L276.548 71.8921C276.534 72.0167 276.509 72.1363 276.473 72.2503C276.439 72.3559 276.397 72.4567 276.348 72.552C276.014 73.1901 275.33 73.5845 274.611 73.5546C274.503 73.5501 274.395 73.5361 274.287 73.5121ZM279.864 85.3279C282.449 85.3279 284.544 83.2326 284.544 80.6479C284.544 78.0632 282.449 75.9679 279.864 75.9679C277.279 75.9679 275.184 78.0632 275.184 80.6479C275.184 83.2326 277.279 85.3279 279.864 85.3279Z" fill="#232B3E"/>
<g filter="url(#filter4_b_215_548)">
<path fill-rule="evenodd" clip-rule="evenodd" d="M321.048 92.816C327.768 92.816 333.216 87.3682 333.216 80.648C333.216 73.9278 327.768 68.48 321.048 68.48C314.328 68.48 308.88 73.9278 308.88 80.648C308.88 87.3682 314.328 92.816 321.048 92.816ZM321.048 72.2239C322.082 72.2239 322.92 73.062 322.92 74.0959V78.7759H327.6C328.634 78.7759 329.472 79.614 329.472 80.6479C329.472 81.6818 328.634 82.5199 327.6 82.5199H321.048C320.014 82.5199 319.176 81.6818 319.176 80.6479V74.0959C319.176 73.062 320.014 72.2239 321.048 72.2239Z" fill="#232B3E"/>
</g>
</g>
<defs>
<filter id="filter0_f_215_548" x="-175" y="-208" width="939" height="908" filterUnits="userSpaceOnUse" color-interpolation-filters="sRGB">
<feFlood flood-opacity="0" result="BackgroundImageFix"/>
<feBlend mode="normal" in="SourceGraphic" in2="BackgroundImageFix" result="shape"/>
<feGaussianBlur stdDeviation="170" result="effect1_foregroundBlur_215_548"/>
</filter>
<filter id="filter1_f_215_548" x="-372" y="-358" width="878" height="876" filterUnits="userSpaceOnUse" color-interpolation-filters="sRGB">
<feFlood flood-opacity="0" result="BackgroundImageFix"/>
<feBlend mode="normal" in="SourceGraphic" in2="BackgroundImageFix" result="shape"/>
<feGaussianBlur stdDeviation="175" result="effect1_foregroundBlur_215_548"/>
</filter>
<filter id="filter2_f_215_548" x="30" y="-214" width="501" height="494" filterUnits="userSpaceOnUse" color-interpolation-filters="sRGB">
<feFlood flood-opacity="0" result="BackgroundImageFix"/>
<feBlend mode="normal" in="SourceGraphic" in2="BackgroundImageFix" result="shape"/>
<feGaussianBlur stdDeviation="100" result="effect1_foregroundBlur_215_548"/>
</filter>
<filter id="filter3_f_215_548" x="-210" y="-9" width="514" height="500" filterUnits="userSpaceOnUse" color-interpolation-filters="sRGB">
<feFlood flood-opacity="0" result="BackgroundImageFix"/>
<feBlend mode="normal" in="SourceGraphic" in2="BackgroundImageFix" result="shape"/>
<feGaussianBlur stdDeviation="100" result="effect1_foregroundBlur_215_548"/>
</filter>
<filter id="filter4_b_215_548" x="307.944" y="67.544" width="26.208" height="26.2079" filterUnits="userSpaceOnUse" color-interpolation-filters="sRGB">
<feFlood flood-opacity="0" result="BackgroundImageFix"/>
<feGaussianBlur in="BackgroundImageFix" stdDeviation="0.468"/>
<feComposite in2="SourceAlpha" operator="in" result="effect1_backgroundBlur_215_548"/>
<feBlend mode="normal" in="SourceGraphic" in2="effect1_backgroundBlur_215_548" result="shape"/>
</filter>
<linearGradient id="paint0_linear_215_548" x1="-14.157" y1="248.976" x2="42.6525" y2="343.877" gradientUnits="userSpaceOnUse">
<stop stop-color="#2D8093"/>
<stop offset="1" stop-color="#2D8093" stop-opacity="0"/>
</linearGradient>
<linearGradient id="paint1_linear_215_548" x1="-14.157" y1="296.244" x2="-3.82602" y2="342.265" gradientUnits="userSpaceOnUse">
<stop stop-color="#2D8093"/>
<stop offset="1" stop-color="#2D8093" stop-opacity="0"/>
</linearGradient>
<linearGradient id="paint2_linear_215_548" x1="117.936" y1="292.032" x2="231.92" y2="292.032" gradientUnits="userSpaceOnUse">
<stop stop-color="#232B3E" stop-opacity="0.1"/>
<stop offset="1" stop-color="#232B3E" stop-opacity="0"/>
</linearGradient>
<linearGradient id="paint3_linear_215_548" x1="117.936" y1="311.688" x2="163.696" y2="311.688" gradientUnits="userSpaceOnUse">
<stop stop-color="#232B3E" stop-opacity="0.1"/>
<stop offset="1" stop-color="#232B3E" stop-opacity="0"/>
</linearGradient>
<linearGradient id="paint4_linear_215_548" x1="-14.157" y1="175.032" x2="42.6525" y2="269.933" gradientUnits="userSpaceOnUse">
<stop stop-color="#2D8093"/>
<stop offset="1" stop-color="#2D8093" stop-opacity="0"/>
</linearGradient>
<linearGradient id="paint5_linear_215_548" x1="-14.157" y1="222.3" x2="-3.82602" y2="268.321" gradientUnits="userSpaceOnUse">
<stop stop-color="#2D8093"/>
<stop offset="1" stop-color="#2D8093" stop-opacity="0"/>
</linearGradient>
<linearGradient id="paint6_linear_215_548" x1="117.936" y1="218.088" x2="231.92" y2="218.088" gradientUnits="userSpaceOnUse">
<stop stop-color="#232B3E" stop-opacity="0.1"/>
<stop offset="1" stop-color="#232B3E" stop-opacity="0"/>
</linearGradient>
<linearGradient id="paint7_linear_215_548" x1="117.936" y1="237.744" x2="163.696" y2="237.744" gradientUnits="userSpaceOnUse">
<stop stop-color="#232B3E" stop-opacity="0.1"/>
<stop offset="1" stop-color="#232B3E" stop-opacity="0"/>
</linearGradient>
<clipPath id="clip0_215_548">
<rect width="351" height="475" fill="white"/>
</clipPath>
<clipPath id="clip1_215_548">
<rect width="700" height="1200" fill="white" transform="translate(-162)"/>
</clipPath>
</defs>
</svg>
