<svg width="351" height="475" viewBox="0 0 351 475" fill="none" xmlns="http://www.w3.org/2000/svg">
<g clip-path="url(#clip0_213_568)">
<rect width="351" height="474.552" fill="white"/>
<g clip-path="url(#clip1_213_568)">
<g clip-path="url(#clip2_213_568)">
<rect width="700" height="1200" transform="translate(-162)" fill="#232B3E"/>
<g filter="url(#filter0_f_213_568)">
<ellipse cx="294.5" cy="246" rx="129.5" ry="114" fill="#7CFFFF"/>
</g>
<g filter="url(#filter1_f_213_568)">
<ellipse cx="67" cy="80" rx="89" ry="88" fill="#82FF96"/>
</g>
<g filter="url(#filter2_f_213_568)">
<ellipse cx="280.5" cy="33" rx="50.5" ry="47" fill="#B094FF"/>
</g>
<g filter="url(#filter3_f_213_568)">
<ellipse cx="47" cy="241" rx="57" ry="50" fill="#B094FF"/>
</g>
</g>
</g>
<rect opacity="0.35" x="315.276" y="16.6919" width="19.656" height="9.672" rx="2.028" stroke="#EBEBF5" stroke-opacity="0.6" stroke-width="0.936"/>
<path opacity="0.4" d="M336.336 19.656V23.4C337.089 23.0829 337.579 22.3453 337.579 21.528C337.579 20.7108 337.089 19.9731 336.336 19.656" fill="#EBEBF5" fill-opacity="0.6"/>
<rect x="316.68" y="18.0959" width="16.848" height="6.864" rx="1.248" fill="white"/>
<path fill-rule="evenodd" clip-rule="evenodd" d="M302.952 18.3597C305.035 18.3598 307.037 19.1592 308.547 20.5928C308.66 20.7035 308.842 20.7021 308.954 20.5897L310.04 19.4943C310.097 19.4372 310.128 19.36 310.128 19.2797C310.127 19.1993 310.095 19.1224 310.038 19.0661C306.077 15.2732 299.828 15.2732 295.866 19.0661C295.809 19.1224 295.777 19.1992 295.776 19.2796C295.775 19.3599 295.807 19.4372 295.864 19.4943L296.95 20.5897C297.062 20.7023 297.244 20.7037 297.358 20.5928C298.867 19.1592 300.87 18.3597 302.952 18.3597ZM302.952 21.9235C304.097 21.9235 305.2 22.3484 306.048 23.1157C306.163 23.2246 306.343 23.2222 306.455 23.1104L307.54 22.0149C307.597 21.9575 307.629 21.8795 307.628 21.7985C307.627 21.7175 307.594 21.6402 307.536 21.584C304.953 19.1837 300.954 19.1837 298.371 21.584C298.313 21.6402 298.28 21.7176 298.279 21.7986C298.278 21.8796 298.31 21.9576 298.367 22.0149L299.452 23.1104C299.564 23.2222 299.744 23.2246 299.859 23.1157C300.707 22.3489 301.809 21.924 302.952 21.9235ZM305.126 24.3215C305.128 24.4027 305.096 24.481 305.038 24.5379L303.161 26.4305C303.106 26.4861 303.031 26.5174 302.952 26.5174C302.874 26.5174 302.799 26.4861 302.744 26.4305L300.867 24.5379C300.809 24.4809 300.777 24.4026 300.779 24.3214C300.78 24.2402 300.816 24.1632 300.876 24.1088C302.075 23.0958 303.83 23.0958 305.029 24.1088C305.089 24.1633 305.124 24.2402 305.126 24.3215Z" fill="white"/>
<path fill-rule="evenodd" clip-rule="evenodd" d="M290.16 16.5358H289.224C288.707 16.5358 288.288 16.9549 288.288 17.4718V25.5838C288.288 26.1008 288.707 26.5198 289.224 26.5198H290.16C290.677 26.5198 291.096 26.1008 291.096 25.5838V17.4718C291.096 16.9549 290.677 16.5358 290.16 16.5358ZM284.856 18.7198H285.792C286.309 18.7198 286.728 19.1388 286.728 19.6558V25.5838C286.728 26.1007 286.309 26.5198 285.792 26.5198H284.856C284.339 26.5198 283.92 26.1007 283.92 25.5838V19.6558C283.92 19.1388 284.339 18.7198 284.856 18.7198ZM281.424 20.9039H280.488C279.971 20.9039 279.552 21.323 279.552 21.8399V25.5839C279.552 26.1009 279.971 26.5199 280.488 26.5199H281.424C281.941 26.5199 282.36 26.1009 282.36 25.5839V21.8399C282.36 21.323 281.941 20.9039 281.424 20.9039ZM277.056 22.7759H276.12C275.603 22.7759 275.184 23.195 275.184 23.7119V25.5839C275.184 26.1009 275.603 26.5199 276.12 26.5199H277.056C277.573 26.5199 277.992 26.1009 277.992 25.5839V23.7119C277.992 23.195 277.573 22.7759 277.056 22.7759Z" fill="white"/>
<path d="M36.5233 16.6471C34.5334 16.6471 33.0681 17.9844 33.0681 19.8464V19.8591C33.0681 21.5931 34.3222 22.8728 36.101 22.8728C37.3487 22.8728 38.27 22.233 38.6348 21.3884H38.6731C38.6731 21.4907 38.6667 21.5867 38.6603 21.6827C38.5964 23.4295 37.9757 24.8499 36.4913 24.8499C35.6659 24.8499 35.1028 24.4404 34.8533 23.807L34.8341 23.7494H33.1961L33.2089 23.8198C33.4968 25.2146 34.7765 26.2 36.4849 26.2C38.8395 26.2 40.2536 24.3764 40.2536 21.3244V21.3116C40.2536 18.074 38.558 16.6471 36.5233 16.6471ZM36.5233 21.5995C35.4739 21.5995 34.6933 20.8509 34.6933 19.8016V19.7888C34.6933 18.7906 35.5187 17.9972 36.5425 17.9972C37.579 17.9972 38.3852 18.797 38.3852 19.8208V19.8272C38.3852 20.8573 37.579 21.5995 36.5233 21.5995ZM42.0518 19.9999C42.57 19.9999 42.9731 19.5904 42.9731 19.0721C42.9731 18.5539 42.57 18.1508 42.0518 18.1508C41.5335 18.1508 41.124 18.5539 41.124 19.0721C41.124 19.5904 41.5335 19.9999 42.0518 19.9999ZM42.0518 24.6964C42.57 24.6964 42.9731 24.2869 42.9731 23.7686C42.9731 23.2503 42.57 22.8472 42.0518 22.8472C41.5335 22.8472 41.124 23.2503 41.124 23.7686C41.124 24.2869 41.5335 24.6964 42.0518 24.6964ZM48.3865 26.04H49.9605V24.2677H51.2146V22.9112H49.9605V16.8071H47.6123L43.7796 22.86V24.2677H48.3865V26.04ZM45.264 22.9496V22.9048L48.3737 18.0548H48.4121V22.9496H45.264ZM54.3373 26.04H55.9561V16.8071H54.3245L51.9123 18.5027V20.0191L54.2989 18.3811H54.3373V26.04Z" fill="white"/>
<path d="M34.1335 85.6169C33.607 85.8363 33.0768 86.0337 32.543 86.2092C32.0092 86.3847 31.4571 86.5346 30.8867 86.6589C30.3164 86.7905 29.7131 86.8893 29.0769 86.9551C28.448 87.0209 27.7716 87.0538 27.0477 87.0538C25.5121 87.0538 24.0971 86.8893 22.8028 86.5602C21.5158 86.2311 20.4043 85.7375 19.4683 85.0794C18.5396 84.414 17.8157 83.5877 17.2965 82.6005C16.7773 81.606 16.5177 80.4469 16.5177 79.1234C16.5177 77.7998 16.7773 76.6444 17.2965 75.6573C17.8157 74.6628 18.5396 73.8364 19.4683 73.1783C20.4043 72.5129 21.5158 72.0156 22.8028 71.6866C24.0971 71.3575 25.5121 71.193 27.0477 71.193C27.7716 71.193 28.448 71.2259 29.0769 71.2917C29.7131 71.3575 30.3164 71.4562 30.8867 71.5879C31.4571 71.7122 32.0092 71.8621 32.543 72.0376C33.0768 72.2131 33.607 72.4105 34.1335 72.6299V76.2934C33.7167 76.0668 33.2779 75.8437 32.8172 75.6244C32.3566 75.3977 31.8483 75.1966 31.2926 75.0211C30.7368 74.8383 30.1262 74.692 29.4608 74.5823C28.7954 74.4653 28.0458 74.4068 27.2122 74.4068C25.9325 74.4068 24.8686 74.5384 24.0203 74.8017C23.1794 75.0649 22.5066 75.4159 22.0021 75.8547C21.4975 76.2934 21.1428 76.798 20.9381 77.3684C20.7333 77.9314 20.631 78.5164 20.631 79.1234C20.631 79.5256 20.6748 79.9241 20.7626 80.319C20.8503 80.7065 20.9966 81.0758 21.2013 81.4268C21.4061 81.7705 21.673 82.0886 22.0021 82.3811C22.3311 82.6736 22.7406 82.9259 23.2306 83.1379C23.7205 83.35 24.2909 83.5182 24.9417 83.6425C25.5998 83.7595 26.3567 83.818 27.2122 83.818C28.0458 83.818 28.7954 83.7668 29.4608 83.6644C30.1262 83.5548 30.7368 83.4122 31.2926 83.2367C31.8483 83.0612 32.3566 82.8637 32.8172 82.6444C33.2779 82.4177 33.7167 82.1873 34.1335 81.9533V85.6169ZM41.9981 86.6479H37.9287V71.5769H48.1296C49.2265 71.5769 50.1552 71.6902 50.9157 71.9169C51.6835 72.1436 52.3051 72.4654 52.7804 72.8822C53.263 73.299 53.6103 73.8035 53.8224 74.3959C54.0418 74.9809 54.1515 75.6353 54.1515 76.3593C54.1515 76.9954 54.0601 77.5512 53.8772 78.0265C53.7017 78.5018 53.4604 78.9113 53.1533 79.255C52.8535 79.5914 52.5025 79.8766 52.1003 80.1106C51.6981 80.3446 51.274 80.5384 50.8279 80.6919L55.7639 86.6479H51.0034L46.4404 81.0978H41.9981V86.6479ZM50.0382 76.3373C50.0382 76.0448 49.998 75.7962 49.9175 75.5914C49.8444 75.3867 49.7128 75.2222 49.5227 75.0979C49.3325 74.9662 49.0766 74.8712 48.7548 74.8127C48.4404 74.7542 48.0455 74.7249 47.5702 74.7249H41.9981V77.9497H47.5702C48.0455 77.9497 48.4404 77.9205 48.7548 77.862C49.0766 77.8035 49.3325 77.7121 49.5227 77.5878C49.7128 77.4561 49.8444 77.2879 49.9175 77.0832C49.998 76.8784 50.0382 76.6298 50.0382 76.3373ZM58.6816 86.6479V71.5769H73.9391V74.7907H62.8607V77.2806H73.3687V80.4945H62.8607V83.4341H74.0927V86.6479H58.6816ZM96.4908 79.1014C96.4908 80.0667 96.3848 80.9259 96.1727 81.6791C95.9607 82.425 95.6609 83.0758 95.2733 83.6315C94.8931 84.1873 94.4324 84.6589 93.8912 85.0465C93.3574 85.4341 92.7615 85.7449 92.1033 85.9789C91.4452 86.2129 90.7359 86.3847 89.9754 86.4944C89.2149 86.5968 88.4215 86.6479 87.5952 86.6479H78.0304V71.5769H87.5732C88.3996 71.5769 89.193 71.6317 89.9535 71.7414C90.714 71.8438 91.4233 72.012 92.0814 72.246C92.7468 72.48 93.3501 72.7908 93.8912 73.1783C94.4324 73.5586 94.8931 74.0302 95.2733 74.5933C95.6609 75.149 95.9607 75.7999 96.1727 76.5457C96.3848 77.2916 96.4908 78.1435 96.4908 79.1014ZM92.3885 79.1014C92.3885 78.3775 92.2935 77.7486 92.1033 77.2148C91.9205 76.681 91.6207 76.2423 91.2039 75.8986C90.7944 75.5476 90.2569 75.288 89.5915 75.1198C88.9261 74.9443 88.1144 74.8565 87.1564 74.8565H82.0998V83.3683H87.1564C88.1144 83.3683 88.9261 83.2842 89.5915 83.116C90.2569 82.9405 90.7944 82.6773 91.2039 82.3263C91.6207 81.9679 91.9205 81.5219 92.1033 80.9881C92.2935 80.4543 92.3885 79.8254 92.3885 79.1014ZM100.209 86.6479V71.5769H115.467V74.7907H104.388V77.2806H114.896V80.4945H104.388V83.4341H115.62V86.6479H100.209ZM133.796 86.6479L123.628 76.2934V86.6479H119.558V71.5769H123.979L134.158 81.9753V71.5769H138.205V86.6479H133.796ZM151.367 74.8565V86.6479H147.298V74.8565H140.903V71.5769H157.773V74.8565H151.367ZM160.472 86.6479V71.5769H164.541V86.6479H160.472ZM181.378 83.7961H172.976L171.561 86.6479H167.02L174.906 71.5769H179.448L187.334 86.6479H182.793L181.378 83.7961ZM174.435 80.8564H179.941L177.199 75.3063L174.435 80.8564ZM189.802 86.6479V71.5769H193.871V83.3464H204.873V86.6479H189.802Z" fill="white"/>
<path fill-rule="evenodd" clip-rule="evenodd" d="M274.287 73.5121C274.17 73.4862 274.054 73.4485 273.939 73.3984L273.918 73.3889L273.12 73.0286L272.534 72.7645C271.658 72.3689 270.624 72.7019 270.143 73.5348L268.843 75.7858C268.363 76.6187 268.591 77.6804 269.372 78.2418L269.893 78.6166L270.605 79.1278L270.624 79.1416C270.724 79.216 270.815 79.298 270.896 79.386C270.971 79.4676 271.037 79.5543 271.094 79.6451C271.48 80.2533 271.48 81.0424 271.095 81.6506C271.037 81.7414 270.971 81.8281 270.896 81.9096C270.815 81.9977 270.724 82.0797 270.624 82.1541L270.605 82.1679L269.893 82.6791L269.372 83.0539C268.591 83.6152 268.363 84.677 268.843 85.5099L270.143 87.7609C270.624 88.5938 271.658 88.9268 272.534 88.5312L273.12 88.2671L273.918 87.9068L273.939 87.8973C274.054 87.8471 274.171 87.8095 274.287 87.7835C274.395 87.7595 274.503 87.7456 274.611 87.7411C275.33 87.7111 276.014 88.1056 276.348 88.7437C276.397 88.839 276.44 88.9398 276.473 89.0453C276.509 89.1594 276.534 89.279 276.548 89.4035L276.551 89.4268L276.638 90.2984L276.702 90.9373C276.797 91.8942 277.603 92.623 278.564 92.623H281.164C282.125 92.623 282.931 91.8942 283.026 90.9373L283.09 90.2984L283.177 89.4267L283.18 89.4034C283.194 89.2789 283.219 89.1593 283.255 89.0452C283.289 88.9398 283.331 88.8391 283.38 88.7439C283.714 88.1055 284.398 87.7109 285.117 87.741C285.225 87.7455 285.333 87.7594 285.441 87.7834C285.557 87.8093 285.674 87.847 285.789 87.8972L285.81 87.9067L286.609 88.267L287.194 88.5311C288.07 88.9267 289.104 88.5937 289.585 87.7608L290.885 85.5098C291.365 84.6769 291.137 83.6151 290.356 83.0538L289.835 82.679L289.124 82.1679L289.105 82.1541C289.004 82.0798 288.913 81.9978 288.832 81.9097C288.757 81.8281 288.691 81.7413 288.634 81.6504C288.248 81.0423 288.248 80.2535 288.634 79.6453C288.691 79.5544 288.757 79.4676 288.832 79.386C288.913 79.2979 289.004 79.2159 289.105 79.1416L289.124 79.1278L289.835 78.6167L290.356 78.2419C291.137 77.6806 291.365 76.6188 290.885 75.7859L289.585 73.5349C289.104 72.702 288.07 72.369 287.194 72.7646L286.608 73.0287L285.81 73.389L285.789 73.3985C285.674 73.4487 285.557 73.4864 285.441 73.5123C285.333 73.5363 285.225 73.5502 285.117 73.5547C284.398 73.5848 283.714 73.1902 283.38 72.5518C283.33 72.4566 283.288 72.3559 283.255 72.2505C283.219 72.1365 283.194 72.0168 283.18 71.8923L283.177 71.869L283.09 70.9974L283.026 70.3586C282.931 69.4016 282.125 68.6729 281.164 68.6729H278.564C277.603 68.6729 276.797 69.4016 276.702 70.3586L276.638 70.9974L276.551 71.8688L276.548 71.8921C276.534 72.0167 276.509 72.1363 276.473 72.2503C276.439 72.3559 276.397 72.4567 276.348 72.552C276.014 73.1901 275.33 73.5845 274.611 73.5546C274.503 73.5501 274.395 73.5361 274.287 73.5121ZM279.864 85.3279C282.449 85.3279 284.544 83.2326 284.544 80.6479C284.544 78.0632 282.449 75.9679 279.864 75.9679C277.279 75.9679 275.184 78.0632 275.184 80.6479C275.184 83.2326 277.279 85.3279 279.864 85.3279Z" fill="white"/>
<g filter="url(#filter4_b_213_568)">
<path fill-rule="evenodd" clip-rule="evenodd" d="M321.048 92.816C327.768 92.816 333.216 87.3682 333.216 80.648C333.216 73.9278 327.768 68.48 321.048 68.48C314.328 68.48 308.88 73.9278 308.88 80.648C308.88 87.3682 314.328 92.816 321.048 92.816ZM321.048 72.2239C322.082 72.2239 322.92 73.062 322.92 74.0959V78.7759H327.6C328.634 78.7759 329.472 79.614 329.472 80.6479C329.472 81.6818 328.634 82.5199 327.6 82.5199H321.048C320.014 82.5199 319.176 81.6818 319.176 80.6479V74.0959C319.176 73.062 320.014 72.2239 321.048 72.2239Z" fill="white"/>
</g>
<path d="M53.0836 358.147C52.0228 358.147 50.987 357.954 49.9761 357.567C48.9652 357.167 48.0667 356.606 47.2804 355.882L48.8342 353.935C49.5955 354.609 50.3256 355.096 51.0244 355.395C51.7358 355.695 52.4846 355.845 53.2708 355.845C53.82 355.845 54.2942 355.782 54.6936 355.657C55.0929 355.52 55.3987 355.327 55.6108 355.077C55.8355 354.827 55.9478 354.534 55.9478 354.197C55.9478 353.748 55.7856 353.405 55.4611 353.168C55.1366 352.918 54.5812 352.725 53.795 352.587L51.1929 352.138C50.0822 351.951 49.2336 351.558 48.647 350.959C48.0729 350.36 47.7859 349.586 47.7859 348.637C47.7859 347.826 47.9918 347.121 48.4036 346.522C48.828 345.923 49.4208 345.467 50.182 345.155C50.9558 344.831 51.8731 344.669 52.9339 344.669C53.8948 344.669 54.8496 344.831 55.798 345.155C56.759 345.48 57.6076 345.929 58.344 346.503L56.8838 348.525C55.511 347.477 54.132 346.953 52.7467 346.953C52.26 346.953 51.8356 347.015 51.4737 347.14C51.1118 347.265 50.831 347.439 50.6313 347.664C50.4441 347.876 50.3505 348.132 50.3505 348.431C50.3505 348.831 50.494 349.143 50.7811 349.367C51.0681 349.58 51.5486 349.742 52.2225 349.854L54.6936 350.266C56.004 350.478 56.9836 350.896 57.6326 351.52C58.2816 352.132 58.606 352.943 58.606 353.954C58.606 354.803 58.3814 355.545 57.9321 356.182C57.4828 356.806 56.8401 357.292 56.004 357.642C55.1803 357.979 54.2068 358.147 53.0836 358.147ZM64.3945 358.11C63.3087 358.11 62.485 357.866 61.9234 357.38C61.3743 356.88 61.0998 356.157 61.0998 355.208V350.341H59.0967V348.207H61.0998V345.717L63.6644 345.137V348.207H66.4537V350.341H63.6644V354.684C63.6644 355.133 63.7642 355.458 63.9639 355.657C64.1636 355.845 64.513 355.938 65.0122 355.938C65.2618 355.938 65.4865 355.926 65.6862 355.901C65.8983 355.863 66.1292 355.801 66.3788 355.714V357.829C66.1167 357.916 65.786 357.985 65.3866 358.035C64.9998 358.085 64.669 358.11 64.3945 358.11ZM70.8122 358.128C70.1133 358.128 69.4956 358.004 68.9589 357.754C68.4223 357.492 68.0042 357.136 67.7047 356.687C67.4052 356.238 67.2554 355.72 67.2554 355.133C67.2554 354.197 67.6049 353.473 68.3037 352.962C69.0151 352.438 69.9885 352.175 71.2241 352.175C72.0727 352.175 72.8714 352.307 73.6202 352.569V351.857C73.6202 351.296 73.4455 350.871 73.0961 350.584C72.7466 350.297 72.2349 350.154 71.561 350.154C71.1492 350.154 70.7061 350.222 70.2319 350.36C69.7577 350.484 69.2085 350.684 68.5845 350.959L67.6485 349.068C68.4223 348.719 69.1586 348.456 69.8575 348.282C70.5689 348.107 71.2802 348.02 71.9916 348.02C73.302 348.02 74.3191 348.338 75.0429 348.974C75.7793 349.598 76.1474 350.484 76.1474 351.633V357.96H73.6202V357.267C73.2209 357.567 72.7903 357.785 72.3285 357.923C71.8668 358.06 71.3613 358.128 70.8122 358.128ZM69.689 355.077C69.689 355.451 69.8513 355.751 70.1757 355.976C70.5002 356.188 70.9308 356.294 71.4674 356.294C71.8917 356.294 72.2849 356.244 72.6468 356.144C73.0087 356.032 73.3332 355.87 73.6202 355.657V354.235C73.3082 354.11 72.9837 354.016 72.6468 353.954C72.3098 353.891 71.9479 353.86 71.561 353.86C70.9745 353.86 70.5127 353.973 70.1757 354.197C69.8513 354.409 69.689 354.703 69.689 355.077ZM78.0884 357.96V348.207H80.6531V349.293C80.9651 348.868 81.3395 348.544 81.7763 348.319C82.2131 348.095 82.706 347.982 83.2552 347.982C83.7294 347.995 84.0851 348.07 84.3222 348.207V350.453C84.135 350.366 83.9291 350.303 83.7044 350.266C83.4798 350.216 83.2489 350.191 83.0118 350.191C82.5126 350.191 82.0571 350.316 81.6452 350.566C81.2334 350.815 80.9027 351.171 80.6531 351.633V357.96H78.0884ZM90.3539 358.11C89.2681 358.11 88.4444 357.866 87.8828 357.38C87.3337 356.88 87.0591 356.157 87.0591 355.208V350.341H85.0561V348.207H87.0591V345.717L89.6238 345.137V348.207H92.4131V350.341H89.6238V354.684C89.6238 355.133 89.7236 355.458 89.9233 355.657C90.123 355.845 90.4724 355.938 90.9716 355.938C91.2212 355.938 91.4459 355.926 91.6455 355.901C91.8577 355.863 92.0886 355.801 92.3382 355.714V357.829C92.0761 357.916 91.7454 357.985 91.346 358.035C90.9591 358.085 90.6284 358.11 90.3539 358.11ZM97.43 357.96V344.856L99.9946 344.425V348.993C100.768 348.382 101.679 348.076 102.728 348.076C103.651 348.076 104.487 348.3 105.236 348.75C105.985 349.199 106.578 349.804 107.015 350.566C107.464 351.314 107.689 352.157 107.689 353.093C107.689 354.029 107.464 354.877 107.015 355.639C106.565 356.387 105.96 356.987 105.199 357.436C104.438 357.873 103.589 358.091 102.653 358.091C102.166 358.091 101.692 358.022 101.23 357.885C100.768 357.748 100.344 357.548 99.9572 357.286V357.96H97.43ZM102.316 355.919C102.853 355.919 103.333 355.795 103.757 355.545C104.194 355.295 104.537 354.959 104.787 354.534C105.037 354.11 105.161 353.629 105.161 353.093C105.161 352.556 105.037 352.076 104.787 351.651C104.537 351.215 104.194 350.878 103.757 350.64C103.333 350.391 102.853 350.266 102.316 350.266C101.842 350.266 101.405 350.347 101.006 350.509C100.619 350.659 100.282 350.89 99.9946 351.202V355.002C100.269 355.289 100.606 355.514 101.006 355.676C101.417 355.838 101.854 355.919 102.316 355.919ZM109.92 361.985C109.696 361.985 109.477 361.972 109.265 361.947C109.065 361.935 108.897 361.916 108.76 361.891V359.682C109.009 359.732 109.309 359.757 109.658 359.757C110.594 359.757 111.243 359.314 111.605 358.428L111.755 358.054L107.955 348.207H110.781L113.215 354.852L115.967 348.207H118.737L114.245 358.746C113.908 359.532 113.539 360.163 113.14 360.637C112.741 361.111 112.279 361.454 111.755 361.667C111.243 361.879 110.632 361.985 109.92 361.985ZM130.144 358.166C129.17 358.166 128.266 357.997 127.429 357.66C126.593 357.311 125.857 356.831 125.22 356.219C124.584 355.595 124.085 354.877 123.723 354.066C123.373 353.243 123.199 352.356 123.199 351.408C123.199 350.459 123.373 349.58 123.723 348.768C124.085 347.945 124.578 347.227 125.202 346.616C125.826 345.992 126.556 345.511 127.392 345.174C128.241 344.825 129.145 344.65 130.106 344.65C131.192 344.65 132.215 344.868 133.176 345.305C134.137 345.73 134.93 346.329 135.554 347.102L133.663 348.843C133.214 348.282 132.683 347.857 132.072 347.57C131.46 347.283 130.805 347.14 130.106 347.14C129.52 347.14 128.977 347.252 128.478 347.477C127.979 347.689 127.542 347.988 127.167 348.375C126.793 348.75 126.5 349.199 126.287 349.723C126.088 350.235 125.988 350.796 125.988 351.408C125.988 352.019 126.094 352.587 126.306 353.111C126.518 353.636 126.812 354.091 127.186 354.478C127.573 354.852 128.016 355.152 128.515 355.377C129.027 355.589 129.582 355.695 130.181 355.695C130.805 355.695 131.367 355.583 131.866 355.358C132.365 355.121 132.783 354.796 133.12 354.384C133.47 353.96 133.701 353.486 133.813 352.962H129.938V350.603H136.715V351.427C136.715 352.4 136.546 353.299 136.209 354.122C135.885 354.934 135.429 355.645 134.843 356.256C134.256 356.855 133.563 357.323 132.765 357.66C131.966 357.997 131.092 358.166 130.144 358.166ZM143.172 358.147C142.198 358.147 141.312 357.923 140.514 357.473C139.727 357.024 139.103 356.419 138.642 355.657C138.18 354.896 137.949 354.041 137.949 353.093C137.949 352.144 138.167 351.289 138.604 350.528C139.053 349.767 139.659 349.162 140.42 348.712C141.181 348.263 142.03 348.038 142.966 348.038C143.902 348.038 144.732 348.269 145.456 348.731C146.18 349.193 146.747 349.817 147.159 350.603C147.584 351.389 147.796 352.282 147.796 353.28V353.954H140.57C140.682 354.341 140.863 354.69 141.113 355.002C141.375 355.314 141.693 355.558 142.067 355.732C142.454 355.907 142.866 355.994 143.303 355.994C143.74 355.994 144.139 355.926 144.501 355.788C144.875 355.651 145.194 355.458 145.456 355.208L147.141 356.743C146.541 357.23 145.924 357.586 145.287 357.81C144.663 358.035 143.958 358.147 143.172 358.147ZM140.532 352.119H145.269C145.181 351.732 145.019 351.395 144.782 351.108C144.557 350.809 144.283 350.578 143.958 350.416C143.646 350.241 143.297 350.154 142.91 350.154C142.51 350.154 142.149 350.235 141.824 350.397C141.5 350.559 141.225 350.79 141 351.09C140.788 351.377 140.632 351.72 140.532 352.119ZM153.717 358.11C152.631 358.11 151.807 357.866 151.246 357.38C150.696 356.88 150.422 356.157 150.422 355.208V350.341H148.419V348.207H150.422V345.717L152.987 345.137V348.207H155.776V350.341H152.987V354.684C152.987 355.133 153.086 355.458 153.286 355.657C153.486 355.845 153.835 355.938 154.334 355.938C154.584 355.938 154.809 355.926 155.008 355.901C155.22 355.863 155.451 355.801 155.701 355.714V357.829C155.439 357.916 155.108 357.985 154.709 358.035C154.322 358.085 153.991 358.11 153.717 358.11ZM161.834 358.11C160.748 358.11 159.924 357.866 159.362 357.38C158.813 356.88 158.539 356.157 158.539 355.208V350.341H156.536V348.207H158.539V345.717L161.103 345.137V348.207H163.893V350.341H161.103V354.684C161.103 355.133 161.203 355.458 161.403 355.657C161.603 355.845 161.952 355.938 162.451 355.938C162.701 355.938 162.926 355.926 163.125 355.901C163.337 355.863 163.568 355.801 163.818 355.714V357.829C163.556 357.916 163.225 357.985 162.826 358.035C162.439 358.085 162.108 358.11 161.834 358.11ZM165.144 357.96V348.207H167.708V357.96H165.144ZM166.417 347.046C166.017 347.046 165.674 346.903 165.387 346.616C165.1 346.329 164.957 345.985 164.957 345.586C164.957 345.174 165.1 344.831 165.387 344.556C165.674 344.269 166.017 344.126 166.417 344.126C166.829 344.126 167.172 344.269 167.446 344.556C167.733 344.831 167.877 345.174 167.877 345.586C167.877 345.985 167.733 346.329 167.446 346.616C167.172 346.903 166.829 347.046 166.417 347.046ZM169.714 357.96V348.207H172.279V349.012C173.015 348.35 173.926 348.02 175.012 348.02C175.773 348.02 176.441 348.188 177.015 348.525C177.601 348.85 178.057 349.305 178.381 349.892C178.706 350.466 178.868 351.14 178.868 351.913V357.96H176.304V352.288C176.304 351.651 176.123 351.152 175.761 350.79C175.399 350.416 174.906 350.229 174.282 350.229C173.845 350.229 173.458 350.316 173.121 350.491C172.784 350.653 172.503 350.89 172.279 351.202V357.96H169.714ZM185.715 361.966C184.967 361.966 184.243 361.885 183.544 361.723C182.845 361.573 182.215 361.355 181.653 361.067L182.552 359.083C183.088 359.345 183.613 359.539 184.124 359.663C184.636 359.788 185.148 359.851 185.659 359.851C186.421 359.851 186.995 359.688 187.382 359.364C187.781 359.039 187.981 358.553 187.981 357.904V357.136C187.182 357.723 186.29 358.016 185.304 358.016C184.38 358.016 183.544 357.798 182.795 357.361C182.059 356.912 181.466 356.306 181.017 355.545C180.58 354.784 180.362 353.941 180.362 353.018C180.362 352.094 180.58 351.258 181.017 350.509C181.466 349.761 182.071 349.168 182.833 348.731C183.594 348.282 184.442 348.057 185.378 348.057C185.853 348.057 186.314 348.126 186.764 348.263C187.213 348.4 187.631 348.594 188.018 348.843V348.207H190.545V357.941C190.545 359.227 190.127 360.219 189.291 360.918C188.467 361.617 187.275 361.966 185.715 361.966ZM185.697 355.845C186.171 355.845 186.602 355.77 186.988 355.62C187.375 355.458 187.706 355.233 187.981 354.946V351.127C187.706 350.853 187.369 350.64 186.97 350.491C186.583 350.328 186.165 350.247 185.715 350.247C185.179 350.247 184.698 350.372 184.274 350.622C183.85 350.859 183.513 351.19 183.263 351.614C183.014 352.026 182.889 352.494 182.889 353.018C182.889 353.555 183.007 354.035 183.244 354.459C183.494 354.884 183.831 355.221 184.255 355.47C184.692 355.72 185.173 355.845 185.697 355.845ZM199.421 358.128C198.722 358.128 198.104 358.004 197.568 357.754C197.031 357.492 196.613 357.136 196.313 356.687C196.014 356.238 195.864 355.72 195.864 355.133C195.864 354.197 196.213 353.473 196.912 352.962C197.624 352.438 198.597 352.175 199.833 352.175C200.681 352.175 201.48 352.307 202.229 352.569V351.857C202.229 351.296 202.054 350.871 201.705 350.584C201.355 350.297 200.844 350.154 200.17 350.154C199.758 350.154 199.315 350.222 198.84 350.36C198.366 350.484 197.817 350.684 197.193 350.959L196.257 349.068C197.031 348.719 197.767 348.456 198.466 348.282C199.177 348.107 199.889 348.02 200.6 348.02C201.911 348.02 202.928 348.338 203.652 348.974C204.388 349.598 204.756 350.484 204.756 351.633V357.96H202.229V357.267C201.829 357.567 201.399 357.785 200.937 357.923C200.475 358.06 199.97 358.128 199.421 358.128ZM198.298 355.077C198.298 355.451 198.46 355.751 198.784 355.976C199.109 356.188 199.539 356.294 200.076 356.294C200.5 356.294 200.893 356.244 201.255 356.144C201.617 356.032 201.942 355.87 202.229 355.657V354.235C201.917 354.11 201.592 354.016 201.255 353.954C200.918 353.891 200.556 353.86 200.17 353.86C199.583 353.86 199.121 353.973 198.784 354.197C198.46 354.409 198.298 354.703 198.298 355.077ZM217.09 358.147C216.116 358.147 215.205 357.979 214.357 357.642C213.508 357.292 212.766 356.812 212.129 356.2C211.505 355.589 211.012 354.877 210.65 354.066C210.301 353.243 210.126 352.356 210.126 351.408C210.126 350.447 210.301 349.561 210.65 348.75C211.012 347.926 211.511 347.208 212.148 346.597C212.784 345.985 213.521 345.511 214.357 345.174C215.205 344.825 216.116 344.65 217.09 344.65C217.814 344.65 218.513 344.75 219.186 344.95C219.86 345.149 220.484 345.43 221.058 345.792C221.645 346.154 222.144 346.591 222.556 347.102L220.722 348.918C220.247 348.332 219.698 347.889 219.074 347.589C218.463 347.29 217.801 347.14 217.09 347.14C216.503 347.14 215.954 347.252 215.442 347.477C214.931 347.689 214.488 347.988 214.113 348.375C213.739 348.75 213.446 349.199 213.234 349.723C213.021 350.235 212.915 350.796 212.915 351.408C212.915 352.007 213.021 352.569 213.234 353.093C213.446 353.604 213.745 354.054 214.132 354.441C214.519 354.815 214.968 355.108 215.48 355.32C216.004 355.533 216.572 355.639 217.183 355.639C217.87 355.639 218.513 355.495 219.112 355.208C219.711 354.921 220.241 354.509 220.703 353.973L222.481 355.732C222.069 356.231 221.576 356.662 221.002 357.024C220.428 357.386 219.804 357.667 219.13 357.866C218.469 358.054 217.789 358.147 217.09 358.147ZM223.9 357.96V348.207H226.464V349.293C226.776 348.868 227.151 348.544 227.588 348.319C228.024 348.095 228.517 347.982 229.066 347.982C229.541 347.995 229.896 348.07 230.133 348.207V350.453C229.946 350.366 229.74 350.303 229.516 350.266C229.291 350.216 229.06 350.191 228.823 350.191C228.324 350.191 227.868 350.316 227.456 350.566C227.045 350.815 226.714 351.171 226.464 351.633V357.96H223.9ZM235.931 358.147C234.958 358.147 234.071 357.923 233.273 357.473C232.486 357.024 231.862 356.419 231.401 355.657C230.939 354.896 230.708 354.041 230.708 353.093C230.708 352.144 230.926 351.289 231.363 350.528C231.813 349.767 232.418 349.162 233.179 348.712C233.94 348.263 234.789 348.038 235.725 348.038C236.661 348.038 237.491 348.269 238.215 348.731C238.939 349.193 239.506 349.817 239.918 350.603C240.343 351.389 240.555 352.282 240.555 353.28V353.954H233.329C233.441 354.341 233.622 354.69 233.872 355.002C234.134 355.314 234.452 355.558 234.826 355.732C235.213 355.907 235.625 355.994 236.062 355.994C236.499 355.994 236.898 355.926 237.26 355.788C237.634 355.651 237.953 355.458 238.215 355.208L239.9 356.743C239.301 357.23 238.683 357.586 238.046 357.81C237.422 358.035 236.717 358.147 235.931 358.147ZM233.291 352.119H238.028C237.94 351.732 237.778 351.395 237.541 351.108C237.316 350.809 237.042 350.578 236.717 350.416C236.405 350.241 236.056 350.154 235.669 350.154C235.27 350.154 234.908 350.235 234.583 350.397C234.259 350.559 233.984 350.79 233.759 351.09C233.547 351.377 233.391 351.72 233.291 352.119ZM246.711 358.091C245.787 358.091 244.951 357.866 244.202 357.417C243.453 356.968 242.854 356.369 242.405 355.62C241.968 354.859 241.75 354.01 241.75 353.074C241.75 352.138 241.968 351.296 242.405 350.547C242.854 349.786 243.46 349.187 244.221 348.75C244.982 348.3 245.837 348.076 246.786 348.076C247.272 348.076 247.74 348.144 248.19 348.282C248.639 348.407 249.057 348.594 249.444 348.843V344.856L252.008 344.425V357.96H249.481V357.155C248.683 357.779 247.759 358.091 246.711 358.091ZM247.123 355.901C247.597 355.901 248.027 355.826 248.414 355.676C248.814 355.514 249.157 355.277 249.444 354.965V351.165C249.157 350.878 248.814 350.653 248.414 350.491C248.015 350.328 247.584 350.247 247.123 350.247C246.586 350.247 246.099 350.372 245.662 350.622C245.238 350.859 244.901 351.196 244.652 351.633C244.402 352.057 244.277 352.537 244.277 353.074C244.277 353.611 244.402 354.091 244.652 354.515C244.901 354.94 245.238 355.277 245.662 355.526C246.099 355.776 246.586 355.901 247.123 355.901ZM258.783 358.147C257.809 358.147 256.923 357.923 256.124 357.473C255.338 357.024 254.714 356.419 254.252 355.657C253.791 354.896 253.56 354.041 253.56 353.093C253.56 352.144 253.778 351.289 254.215 350.528C254.664 349.767 255.269 349.162 256.031 348.712C256.792 348.263 257.641 348.038 258.577 348.038C259.513 348.038 260.343 348.269 261.066 348.731C261.79 349.193 262.358 349.817 262.77 350.603C263.194 351.389 263.406 352.282 263.406 353.28V353.954H256.18C256.293 354.341 256.474 354.69 256.723 355.002C256.985 355.314 257.304 355.558 257.678 355.732C258.065 355.907 258.477 355.994 258.914 355.994C259.35 355.994 259.75 355.926 260.112 355.788C260.486 355.651 260.804 355.458 261.066 355.208L262.751 356.743C262.152 357.23 261.534 357.586 260.898 357.81C260.274 358.035 259.569 358.147 258.783 358.147ZM256.143 352.119H260.879C260.792 351.732 260.63 351.395 260.392 351.108C260.168 350.809 259.893 350.578 259.569 350.416C259.257 350.241 258.907 350.154 258.52 350.154C258.121 350.154 257.759 350.235 257.435 350.397C257.11 350.559 256.836 350.79 256.611 351.09C256.399 351.377 256.243 351.72 256.143 352.119ZM264.978 357.96V348.207H267.542V349.012C268.279 348.35 269.19 348.02 270.275 348.02C271.037 348.02 271.704 348.188 272.278 348.525C272.865 348.85 273.321 349.305 273.645 349.892C273.969 350.466 274.132 351.14 274.132 351.913V357.96H271.567V352.288C271.567 351.651 271.386 351.152 271.024 350.79C270.662 350.416 270.169 350.229 269.545 350.229C269.109 350.229 268.722 350.316 268.385 350.491C268.048 350.653 267.767 350.89 267.542 351.202V357.96H264.978ZM280.424 358.11C279.338 358.11 278.515 357.866 277.953 357.38C277.404 356.88 277.129 356.157 277.129 355.208V350.341H275.126V348.207H277.129V345.717L279.694 345.137V348.207H282.483V350.341H279.694V354.684C279.694 355.133 279.794 355.458 279.993 355.657C280.193 355.845 280.543 355.938 281.042 355.938C281.291 355.938 281.516 355.926 281.716 355.901C281.928 355.863 282.159 355.801 282.408 355.714V357.829C282.146 357.916 281.816 357.985 281.416 358.035C281.029 358.085 280.699 358.11 280.424 358.11ZM283.734 357.96V348.207H286.299V357.96H283.734ZM285.007 347.046C284.608 347.046 284.265 346.903 283.978 346.616C283.691 346.329 283.547 345.985 283.547 345.586C283.547 345.174 283.691 344.831 283.978 344.556C284.265 344.269 284.608 344.126 285.007 344.126C285.419 344.126 285.762 344.269 286.037 344.556C286.324 344.831 286.467 345.174 286.467 345.586C286.467 345.985 286.324 346.329 286.037 346.616C285.762 346.903 285.419 347.046 285.007 347.046ZM291.412 358.128C290.713 358.128 290.095 358.004 289.559 357.754C289.022 357.492 288.604 357.136 288.305 356.687C288.005 356.238 287.855 355.72 287.855 355.133C287.855 354.197 288.205 353.473 288.904 352.962C289.615 352.438 290.588 352.175 291.824 352.175C292.673 352.175 293.471 352.307 294.22 352.569V351.857C294.22 351.296 294.045 350.871 293.696 350.584C293.346 350.297 292.835 350.154 292.161 350.154C291.749 350.154 291.306 350.222 290.832 350.36C290.357 350.484 289.808 350.684 289.184 350.959L288.248 349.068C289.022 348.719 289.758 348.456 290.457 348.282C291.169 348.107 291.88 348.02 292.591 348.02C293.902 348.02 294.919 348.338 295.643 348.974C296.379 349.598 296.747 350.484 296.747 351.633V357.96H294.22V357.267C293.821 357.567 293.39 357.785 292.928 357.923C292.467 358.06 291.961 358.128 291.412 358.128ZM290.289 355.077C290.289 355.451 290.451 355.751 290.776 355.976C291.1 356.188 291.531 356.294 292.067 356.294C292.492 356.294 292.885 356.244 293.247 356.144C293.609 356.032 293.933 355.87 294.22 355.657V354.235C293.908 354.11 293.584 354.016 293.247 353.954C292.91 353.891 292.548 353.86 292.161 353.86C291.574 353.86 291.113 353.973 290.776 354.197C290.451 354.409 290.289 354.703 290.289 355.077ZM298.688 357.96V344.856L301.253 344.425V357.96H298.688Z" fill="white"/>
<mask id="path-15-inside-1_213_568" fill="white">
<path d="M76.752 194.688C76.752 182.282 86.8095 172.224 99.216 172.224H251.784C264.191 172.224 274.248 182.282 274.248 194.688V321.984H76.752V194.688Z"/>
</mask>
<path d="M76.752 194.688C76.752 182.282 86.8095 172.224 99.216 172.224H251.784C264.191 172.224 274.248 182.282 274.248 194.688V321.984H76.752V194.688Z" fill="url(#paint0_linear_213_568)"/>
<path d="M69.264 194.688C69.264 178.146 82.674 164.736 99.216 164.736H251.784C268.326 164.736 281.736 178.146 281.736 194.688H266.76C266.76 186.417 260.055 179.712 251.784 179.712H99.216C90.945 179.712 84.24 186.417 84.24 194.688H69.264ZM274.248 321.984H76.752H274.248ZM69.264 321.984V194.688C69.264 178.146 82.674 164.736 99.216 164.736V179.712C90.945 179.712 84.24 186.417 84.24 194.688V321.984H69.264ZM251.784 164.736C268.326 164.736 281.736 178.146 281.736 194.688V321.984H266.76V194.688C266.76 186.417 260.055 179.712 251.784 179.712V164.736Z" fill="url(#paint1_linear_213_568)" mask="url(#path-15-inside-1_213_568)"/>
<g clip-path="url(#clip3_213_568)">
<mask id="mask0_213_568" style="mask-type:alpha" maskUnits="userSpaceOnUse" x="84" y="179" width="183" height="143">
<rect x="84.24" y="179.712" width="182.52" height="142.272" fill="url(#paint2_linear_213_568)"/>
</mask>
<g mask="url(#mask0_213_568)">
<g filter="url(#filter5_f_213_568)">
<ellipse cx="213.663" cy="285.262" rx="52.5719" ry="46.2795" fill="#7CFFFF"/>
</g>
<g filter="url(#filter6_f_213_568)">
<ellipse cx="121.306" cy="217.872" rx="36.1305" ry="35.7245" fill="#82FF96"/>
</g>
<g filter="url(#filter7_f_213_568)">
<ellipse cx="207.979" cy="198.792" rx="20.501" ry="19.0801" fill="#B094FF"/>
</g>
<g filter="url(#filter8_f_213_568)">
<ellipse cx="113.187" cy="283.232" rx="23.1398" ry="20.298" fill="#B094FF"/>
</g>
<rect x="84.24" y="179.712" width="182.52" height="142.272" fill="url(#paint3_linear_213_568)" fill-opacity="0.3"/>
</g>
</g>
<g opacity="0.8">
<g clip-path="url(#clip4_213_568)">
<rect x="93.6" y="210.6" width="163.8" height="71.136" rx="5.616" fill="url(#paint4_linear_213_568)"/>
<rect x="93.6" y="210.6" width="163.8" height="71.136" rx="5.616" fill="url(#paint5_linear_213_568)"/>
<path opacity="0.5" d="M169.416 279.139C175.662 278.098 326.869 214.293 401.692 182.52" stroke="url(#paint6_linear_213_568)" stroke-width="48.672"/>
<path opacity="0.5" d="M45.864 304.411C52.1101 303.37 203.317 239.565 278.14 207.792" stroke="url(#paint7_linear_213_568)" stroke-width="48.672"/>
<path d="M101.088 225.576C101.088 223.508 102.764 221.832 104.832 221.832H162.864V236.808H104.832C102.764 236.808 101.088 235.132 101.088 233.064V225.576Z" fill="url(#paint8_linear_213_568)"/>
<path d="M101.088 225.576C101.088 223.508 102.764 221.832 104.832 221.832H162.864V236.808H104.832C102.764 236.808 101.088 235.132 101.088 233.064V225.576Z" fill="url(#paint9_linear_213_568)" fill-opacity="0.15"/>
<path d="M101.088 248.04C101.088 245.972 102.764 244.296 104.832 244.296H139.464V251.784H104.832C102.764 251.784 101.088 250.108 101.088 248.04V248.04Z" fill="url(#paint10_linear_213_568)"/>
<path d="M101.088 248.04C101.088 245.972 102.764 244.296 104.832 244.296H139.464V251.784H104.832C102.764 251.784 101.088 250.108 101.088 248.04V248.04Z" fill="url(#paint11_linear_213_568)" fill-opacity="0.15"/>
</g>
<rect x="94.536" y="211.536" width="161.928" height="69.264" rx="4.68" stroke="url(#paint12_linear_213_568)" stroke-width="1.872"/>
</g>
<path fill-rule="evenodd" clip-rule="evenodd" d="M222.768 175.968C222.768 173.9 221.092 172.224 219.024 172.224H131.976C129.908 172.224 128.232 173.9 128.232 175.968V175.968C128.232 178.036 129.908 179.712 131.976 179.712H138.528C142.147 179.712 145.08 182.646 145.08 186.264V189.072C145.08 192.691 148.013 195.624 151.632 195.624H199.368C202.987 195.624 205.92 192.691 205.92 189.072V186.264C205.92 182.646 208.853 179.712 212.472 179.712H219.024C221.092 179.712 222.768 178.036 222.768 175.968V175.968Z" fill="#232B3E"/>
</g>
<defs>
<filter id="filter0_f_213_568" x="-175" y="-208" width="939" height="908" filterUnits="userSpaceOnUse" color-interpolation-filters="sRGB">
<feFlood flood-opacity="0" result="BackgroundImageFix"/>
<feBlend mode="normal" in="SourceGraphic" in2="BackgroundImageFix" result="shape"/>
<feGaussianBlur stdDeviation="170" result="effect1_foregroundBlur_213_568"/>
</filter>
<filter id="filter1_f_213_568" x="-372" y="-358" width="878" height="876" filterUnits="userSpaceOnUse" color-interpolation-filters="sRGB">
<feFlood flood-opacity="0" result="BackgroundImageFix"/>
<feBlend mode="normal" in="SourceGraphic" in2="BackgroundImageFix" result="shape"/>
<feGaussianBlur stdDeviation="175" result="effect1_foregroundBlur_213_568"/>
</filter>
<filter id="filter2_f_213_568" x="30" y="-214" width="501" height="494" filterUnits="userSpaceOnUse" color-interpolation-filters="sRGB">
<feFlood flood-opacity="0" result="BackgroundImageFix"/>
<feBlend mode="normal" in="SourceGraphic" in2="BackgroundImageFix" result="shape"/>
<feGaussianBlur stdDeviation="100" result="effect1_foregroundBlur_213_568"/>
</filter>
<filter id="filter3_f_213_568" x="-210" y="-9" width="514" height="500" filterUnits="userSpaceOnUse" color-interpolation-filters="sRGB">
<feFlood flood-opacity="0" result="BackgroundImageFix"/>
<feBlend mode="normal" in="SourceGraphic" in2="BackgroundImageFix" result="shape"/>
<feGaussianBlur stdDeviation="100" result="effect1_foregroundBlur_213_568"/>
</filter>
<filter id="filter4_b_213_568" x="307.944" y="67.544" width="26.208" height="26.2079" filterUnits="userSpaceOnUse" color-interpolation-filters="sRGB">
<feFlood flood-opacity="0" result="BackgroundImageFix"/>
<feGaussianBlur in="BackgroundImageFix" stdDeviation="0.468"/>
<feComposite in2="SourceAlpha" operator="in" result="effect1_backgroundBlur_213_568"/>
<feBlend mode="normal" in="SourceGraphic" in2="effect1_backgroundBlur_213_568" result="shape"/>
</filter>
<filter id="filter5_f_213_568" x="23.0642" y="100.956" width="381.197" height="368.612" filterUnits="userSpaceOnUse" color-interpolation-filters="sRGB">
<feFlood flood-opacity="0" result="BackgroundImageFix"/>
<feBlend mode="normal" in="SourceGraphic" in2="BackgroundImageFix" result="shape"/>
<feGaussianBlur stdDeviation="69.0133" result="effect1_foregroundBlur_213_568"/>
</filter>
<filter id="filter6_f_213_568" x="-56.9102" y="40.0615" width="356.433" height="355.621" filterUnits="userSpaceOnUse" color-interpolation-filters="sRGB">
<feFlood flood-opacity="0" result="BackgroundImageFix"/>
<feBlend mode="normal" in="SourceGraphic" in2="BackgroundImageFix" result="shape"/>
<feGaussianBlur stdDeviation="71.0431" result="effect1_foregroundBlur_213_568"/>
</filter>
<filter id="filter7_f_213_568" x="106.286" y="98.5198" width="203.386" height="200.545" filterUnits="userSpaceOnUse" color-interpolation-filters="sRGB">
<feFlood flood-opacity="0" result="BackgroundImageFix"/>
<feBlend mode="normal" in="SourceGraphic" in2="BackgroundImageFix" result="shape"/>
<feGaussianBlur stdDeviation="40.5961" result="effect1_foregroundBlur_213_568"/>
</filter>
<filter id="filter8_f_213_568" x="8.85551" y="181.742" width="208.664" height="202.98" filterUnits="userSpaceOnUse" color-interpolation-filters="sRGB">
<feFlood flood-opacity="0" result="BackgroundImageFix"/>
<feBlend mode="normal" in="SourceGraphic" in2="BackgroundImageFix" result="shape"/>
<feGaussianBlur stdDeviation="40.5961" result="effect1_foregroundBlur_213_568"/>
</filter>
<linearGradient id="paint0_linear_213_568" x1="175.5" y1="172.224" x2="175.5" y2="321.984" gradientUnits="userSpaceOnUse">
<stop stop-color="#232B3E" stop-opacity="0.8"/>
<stop offset="1" stop-color="#232B3E" stop-opacity="0"/>
</linearGradient>
<linearGradient id="paint1_linear_213_568" x1="175.5" y1="172.224" x2="175.5" y2="321.984" gradientUnits="userSpaceOnUse">
<stop stop-color="#232B3E"/>
<stop offset="1" stop-color="#232B3E" stop-opacity="0"/>
</linearGradient>
<linearGradient id="paint2_linear_213_568" x1="175.5" y1="179.712" x2="175.5" y2="321.984" gradientUnits="userSpaceOnUse">
<stop stop-color="#D9D9D9"/>
<stop offset="1" stop-color="#D9D9D9" stop-opacity="0"/>
</linearGradient>
<linearGradient id="paint3_linear_213_568" x1="175.5" y1="179.712" x2="175.5" y2="321.984" gradientUnits="userSpaceOnUse">
<stop stop-color="#232B3E"/>
<stop offset="1" stop-color="#232B3E" stop-opacity="0"/>
</linearGradient>
<linearGradient id="paint4_linear_213_568" x1="93.6" y1="210.6" x2="280.314" y2="333.058" gradientUnits="userSpaceOnUse">
<stop stop-color="white"/>
<stop offset="1" stop-color="white"/>
</linearGradient>
<linearGradient id="paint5_linear_213_568" x1="430.273" y1="384.903" x2="221.29" y2="207.501" gradientUnits="userSpaceOnUse">
<stop stop-color="#7CFFFF"/>
<stop offset="1" stop-color="#7CFFFF" stop-opacity="0"/>
</linearGradient>
<linearGradient id="paint6_linear_213_568" x1="401.692" y1="182.52" x2="193.815" y2="268.078" gradientUnits="userSpaceOnUse">
<stop stop-color="#82FF96" stop-opacity="0.5"/>
<stop offset="1" stop-color="#82FF96" stop-opacity="0"/>
</linearGradient>
<linearGradient id="paint7_linear_213_568" x1="278.14" y1="207.792" x2="70.2628" y2="293.35" gradientUnits="userSpaceOnUse">
<stop stop-color="#7CFFFF" stop-opacity="0"/>
<stop offset="1" stop-color="#7CFFFF" stop-opacity="0.4"/>
</linearGradient>
<linearGradient id="paint8_linear_213_568" x1="101.088" y1="229.32" x2="162.864" y2="229.32" gradientUnits="userSpaceOnUse">
<stop stop-color="white"/>
<stop offset="1" stop-color="white" stop-opacity="0"/>
</linearGradient>
<linearGradient id="paint9_linear_213_568" x1="101.088" y1="229.32" x2="162.864" y2="229.32" gradientUnits="userSpaceOnUse">
<stop stop-color="#232B3E"/>
<stop offset="1" stop-color="#232B3E" stop-opacity="0"/>
</linearGradient>
<linearGradient id="paint10_linear_213_568" x1="101.088" y1="248.04" x2="139.464" y2="248.04" gradientUnits="userSpaceOnUse">
<stop stop-color="white"/>
<stop offset="1" stop-color="white" stop-opacity="0"/>
</linearGradient>
<linearGradient id="paint11_linear_213_568" x1="101.088" y1="248.04" x2="139.464" y2="248.04" gradientUnits="userSpaceOnUse">
<stop stop-color="#232B3E"/>
<stop offset="1" stop-color="#232B3E" stop-opacity="0"/>
</linearGradient>
<linearGradient id="paint12_linear_213_568" x1="301.096" y1="308.265" x2="180.126" y2="195.556" gradientUnits="userSpaceOnUse">
<stop stop-color="#7CFFFF"/>
<stop offset="1" stop-color="#7CFFFF" stop-opacity="0"/>
</linearGradient>
<clipPath id="clip0_213_568">
<rect width="351" height="474.552" fill="white"/>
</clipPath>
<clipPath id="clip1_213_568">
<rect width="700" height="1200" fill="white" transform="translate(-162)"/>
</clipPath>
<clipPath id="clip2_213_568">
<rect width="700" height="1200" fill="white" transform="translate(-162)"/>
</clipPath>
<clipPath id="clip3_213_568">
<path d="M84.24 194.688C84.24 186.417 90.945 179.712 99.216 179.712H251.784C260.055 179.712 266.76 186.417 266.76 194.688V321.984H84.24V194.688Z" fill="white"/>
</clipPath>
<clipPath id="clip4_213_568">
<rect x="93.6" y="210.6" width="163.8" height="71.136" rx="5.616" fill="white"/>
</clipPath>
</defs>
</svg>
