<svg width="105" height="32" viewBox="0 0 105 32" fill="none" xmlns="http://www.w3.org/2000/svg">
<path d="M93.9996 4.57226C100.278 5.67178 104.756 11.272 104.449 17.6383C104.081 25.239 97.1324 30.796 89.6368 29.4832L72.5231 26.486C70.9155 26.2045 69.4252 27.3963 69.3464 29.0265C69.2676 30.6566 67.7773 31.8484 66.1697 31.5669L37.9647 26.6272C36.3571 26.3457 34.8668 27.5375 34.788 29.1676C34.7092 30.7977 33.2189 31.9895 31.6113 31.708L10.5186 28.014C4.24045 26.9144 -0.238045 21.3142 0.0696907 14.9479C0.437104 7.34718 7.38583 1.79026 14.8814 3.10298L31.9951 6.10017C33.6027 6.38171 35.093 5.18991 35.1718 3.55977C35.2506 1.92964 36.7409 0.737841 38.3484 1.01938L66.5535 5.95903C68.1611 6.24058 69.6514 5.04877 69.7302 3.41863C69.809 1.78848 71.2993 0.596676 72.9069 0.878218L93.9996 4.57226Z" fill="#6CFFB0"/>
</svg>
