<?xml version="1.0" encoding="utf-8"?>
<!-- Generator: Adobe Illustrator 26.2.1, SVG Export Plug-In . SVG Version: 6.00 Build 0)  -->
<svg version="1.1" xmlns="http://www.w3.org/2000/svg" xmlns:xlink="http://www.w3.org/1999/xlink" x="0px" y="0px"
	 viewBox="0 0 48 48" style="enable-background:new 0 0 48 48;" xml:space="preserve">
<style type="text/css">
	.st0{
        fill:#6CFFB0;
        transform-origin: 15px 20px;
        animation-name: left;
        animation-duration: 6s;
        animation-iteration-count: infinite;
    }
	.st1{
        fill:#FFF96C;
        transform-origin: center;
        animation-name: right;
        animation-duration: 6s;
        animation-fill-mode: both;
        animation-iteration-count: infinite;
    }
    @keyframes left {
        0% {
            transform: translate(8px, 0px);
        }
        12.5% {
            transform: translate(0px, 0px);
        }
        25% {
            transform: rotate(84deg) translate(3px, -12px);
        }
        75% {
            transform: rotate(84deg) translate(3px, -12px);
        }
        87.5% {
            transform: translate(0px, 0px);
        }
        100% {
            transform: translate(8px, 0px);
        }
    }
    @keyframes right {
        0% {
            transform: translate(-8px, 0px);
        }
        12.5% {
            transform: translate(0px, 0px);
        }
        25% {
            transform: translate(-8px, 0px);
        }
        75% {
            transform: translate(-8px, 0px);
        }
        87.5% {
            transform: translate(0px, 0px);
        }
        100% {
            transform: translate(-8px, 0px);
        }
    }
    #group{
        transform-origin: center;
        animation-name: group;
        animation-delay: 1.5s;
        animation-duration: 6s;
        animation-iteration-count: infinite;
    }
    @keyframes group {
        0% {
            transform: rotate(0deg);
        }
        25% {
            transform: rotate(220deg);
        }
        50% {
            transform: rotate(0deg);
        }
        100% {
            transform: rotate(0deg);
        }
    }
</style>
<g id="group">
    <g id="right">
	<path class="st1" d="M37.3,9.6h-7l-2.6,9.6h-6.4l1.8,6.7h5.3l-0.8,2.9h2.6l-2.6,9.6h7l2.6-9.6h-2.6l2.6-9.6h-2.6L37.3,9.6z"/>
    </g>
    <g id="left">   
	<path class="st0" d="M13.3,11.3c0.5-1.8,2.3-3,4.1-2.8c2.2,0.3,3.7,2.5,3.1,4.7l-1.3,5c-0.1,0.5,0.2,0.9,0.7,1 
		c0.5,0.1,0.8,0.5,0.7,1l-2.2,8.2c-0.1,0.5,0.2,0.9,0.7,1c0.5,0.1,0.8,0.5,0.7,1l-1.6,6.2c-0.5,1.8-2.3,3-4.1,2.8    
		c-2.2-0.3-3.7-2.5-3.1-4.7l1.3-5c0.1-0.5-0.2-0.9-0.7-1c-0.5-0.1-0.8-0.5-0.7-1l2.2-8.2c0.1-0.5-0.2-0.9-0.7-1  
		c-0.5-0.1-0.8-0.5-0.7-1L13.3,11.3z"/>
    </g>
</g>
</svg>
