<svg width="48" height="48" viewBox="0 0 48 48" fill="none" xmlns="http://www.w3.org/2000/svg">
<rect width="48" height="48" fill="#0B1D3F"/>
<path d="M13.3367 11.2754C13.8257 9.44159 15.6031 8.25839 17.4836 8.51482C19.7287 8.82097 21.1968 11.0264 20.613 13.2157L19.28 18.2145C19.1548 18.6841 19.4696 19.1571 19.9512 19.2227C20.4327 19.2884 20.7475 19.7614 20.6223 20.231L18.4254 28.4694C18.3002 28.939 18.6151 29.412 19.0966 29.4776C19.5781 29.5433 19.8929 30.0163 19.7677 30.4859L18.1248 36.6469C17.6358 38.4807 15.8584 39.6639 13.9779 39.4074C11.7328 39.1013 10.2647 36.8959 10.8485 34.7065L12.1815 29.7077C12.3067 29.2382 11.9919 28.7652 11.5103 28.6995C11.0288 28.6339 10.714 28.1609 10.8392 27.6913L13.0361 19.4528C13.1613 18.9833 12.8464 18.5103 12.3649 18.4446C11.8834 18.379 11.5685 17.906 11.6938 17.4364L13.3367 11.2754Z" fill="#6CFFB0"/>
<path d="M37.3307 9.56128H30.2907L27.7307 19.1613H21.3307L23.1707 25.8813H28.4987L27.7307 28.7613H30.2907L27.7307 38.3613H34.7707L37.3307 28.7613H34.7707L37.3307 19.1613H34.7707L37.3307 9.56128Z" fill="#FFF96C"/>
</svg>
