<svg width="43" height="7" viewBox="0 0 43 7" fill="none" xmlns="http://www.w3.org/2000/svg">
<path d="M40.9235 1.82777C42.2857 2.16934 43.1646 3.41084 42.9741 4.72435C42.7467 6.29255 41.1085 7.31803 39.4821 6.91023L35.7688 5.97913C35.42 5.89166 35.0686 6.1116 35.0199 6.44793C34.9711 6.78427 34.6197 7.00421 34.2709 6.91674L28.1511 5.3822C27.8023 5.29474 27.4509 5.51467 27.4021 5.85101C27.3533 6.18734 27.002 6.40728 26.6532 6.31981L22.0765 5.17223C20.7143 4.83066 19.8354 3.58916 20.0259 2.27565C20.2533 0.707445 21.8915 -0.318033 23.5179 0.089774L27.2312 1.02087C27.58 1.10834 27.9314 0.888401 27.9801 0.552068C28.0289 0.215734 28.3803 -0.00420058 28.7291 0.083262L34.8489 1.6178C35.1977 1.70527 35.5491 1.48533 35.5979 1.149C35.6467 0.81266 35.998 0.592724 36.3468 0.680187L40.9235 1.82777Z" fill="#FFF96C"/>
<path d="M20.9235 1.82777C22.2857 2.16934 23.1646 3.41084 22.9741 4.72435C22.7467 6.29255 21.1085 7.31803 19.4821 6.91023L15.7688 5.97913C15.42 5.89166 15.0686 6.1116 15.0199 6.44793C14.9711 6.78427 14.6197 7.00421 14.2709 6.91674L8.15106 5.3822C7.80225 5.29474 7.4509 5.51467 7.40212 5.85101C7.35335 6.18734 7.00199 6.40728 6.65318 6.31981L2.07655 5.17223C0.714323 4.83066 -0.164608 3.58916 0.0258769 2.27565C0.2533 0.707445 1.89155 -0.318033 3.51791 0.089774L7.2312 1.02087C7.58001 1.10834 7.93136 0.888401 7.98014 0.552068C8.02891 0.215734 8.38027 -0.00420058 8.72907 0.083262L14.8489 1.6178C15.1977 1.70527 15.5491 1.48533 15.5979 1.149C15.6467 0.81266 15.998 0.592724 16.3468 0.680187L20.9235 1.82777Z" fill="#6CFFB0"/>
</svg>
