<svg width="36" height="36" viewBox="0 0 36 36" fill="none" xmlns="http://www.w3.org/2000/svg">
<path d="M24 12.023C24 12.4297 23.6568 12.75 23.25 12.75C16.6226 12.75 11.25 18.1226 11.25 24.75C11.25 25.1568 10.9307 25.5 10.5239 25.5H6C4.34315 25.5 3 24.1569 3 22.5V7.5C3 5.84315 4.34315 4.5 6 4.5H21C22.6569 4.5 24 5.84315 24 7.5V12.023Z" fill="white"/>
<path d="M24 12.023C24 12.4297 23.6568 12.75 23.25 12.75C16.6226 12.75 11.25 18.1226 11.25 24.75C11.25 25.1568 10.9307 25.5 10.5239 25.5H6C4.34315 25.5 3 24.1569 3 22.5V7.5C3 5.84315 4.34315 4.5 6 4.5H21C22.6569 4.5 24 5.84315 24 7.5V12.023Z" fill="url(#paint0_linear_3164_4733)"/>
<path d="M7.5 16.5H10.5" stroke="#3565B6" stroke-width="3" stroke-linecap="round" stroke-linejoin="round"/>
<path d="M7.5 10.5H13.5" stroke="#3565B6" stroke-width="3" stroke-linecap="round" stroke-linejoin="round"/>
<circle cx="23.25" cy="24.75" r="9.75" fill="white"/>
<circle cx="23.25" cy="24.75" r="9.75" fill="url(#paint1_linear_3164_4733)"/>
<path d="M23.25 24.75V19.5" stroke="#3565B6" stroke-width="3" stroke-linecap="round" stroke-linejoin="round"/>
<path d="M23.25 24.75H28.5" stroke="#3565B6" stroke-width="3" stroke-linecap="round" stroke-linejoin="round"/>
<defs>
<linearGradient id="paint0_linear_3164_4733" x1="13.5" y1="4.5" x2="13.5" y2="25.5" gradientUnits="userSpaceOnUse">
<stop stop-color="#5FC2FC"/>
<stop offset="1" stop-color="#5FC2FC" stop-opacity="0.5"/>
</linearGradient>
<linearGradient id="paint1_linear_3164_4733" x1="23.25" y1="15" x2="23.25" y2="34.5" gradientUnits="userSpaceOnUse">
<stop stop-color="#5FC2FC"/>
<stop offset="1" stop-color="#5FC2FC" stop-opacity="0.5"/>
</linearGradient>
</defs>
</svg>
