<svg width="256" height="118" viewBox="0 0 256 118" fill="none" xmlns="http://www.w3.org/2000/svg">
<path d="M8 50.9121C3.58172 50.9121 0 54.4938 0 58.9121C0 63.3304 3.58172 66.9121 8 66.9121V58.9121V50.9121ZM253.657 64.569C256.781 61.4448 256.781 56.3794 253.657 53.2553L202.745 2.34357C199.621 -0.780628 194.556 -0.780628 191.431 2.34357C188.307 5.46776 188.307 10.5331 191.431 13.6573L236.686 58.9121L191.431 104.167C188.307 107.291 188.307 112.356 191.431 115.481C194.556 118.605 199.621 118.605 202.745 115.481L253.657 64.569ZM8 58.9121V66.9121H248V58.9121V50.9121H8V58.9121Z" fill="url(#paint0_linear_3031_3297)"/>
<defs>
<linearGradient id="paint0_linear_3031_3297" x1="8" y1="59.4121" x2="248" y2="59.4121" gradientUnits="userSpaceOnUse">
<stop stop-color="#64AEB0" stop-opacity="0"/>
<stop offset="1" stop-color="#64AEB0"/>
</linearGradient>
</defs>
</svg>
