<svg width="2133" height="1257" viewBox="0 0 2133 1257" fill="none" xmlns="http://www.w3.org/2000/svg">
<rect width="931" height="146" transform="translate(0 819)" fill="#254441"/>
<rect width="232" height="146" transform="translate(0 965)" fill="#2E706D"/>
<rect width="233" height="146" transform="translate(232 965)" fill="#358C8B"/>
<rect width="232" height="146" transform="translate(465 965)" fill="#5CAEB0"/>
<rect width="234" height="146" transform="translate(697 965)" fill="#B5DBDD"/>
<rect width="208" height="146" transform="translate(931 819)" fill="#E16F00"/>
<rect width="69" height="146" transform="translate(931 965)" fill="#032596"/>
<rect width="69" height="146" transform="translate(1139 965)" fill="#086100"/>
<rect width="69" height="146" transform="translate(1347 965)" fill="#836713"/>
<rect width="69" height="146" transform="translate(1000 965)" fill="#3756CC"/>
<rect width="69" height="146" transform="translate(1208 965)" fill="#76B91A"/>
<rect width="69" height="146" transform="translate(1416 965)" fill="#D9C728"/>
<rect width="70" height="146" transform="translate(1069 965)" fill="#C6CCF0"/>
<rect width="70" height="146" transform="translate(1277 965)" fill="#D7EABE"/>
<rect width="68" height="146" transform="translate(1485 965)" fill="#F5EDBD"/>
<rect width="206" height="146" transform="translate(1347 819)" fill="#F7F4BC"/>
<rect width="208" height="146" transform="translate(1139 819)" fill="#E5DA01"/>
<rect width="931" height="292" transform="translate(0 527)" fill="#007A00"/>
<rect width="622" height="32" transform="translate(931 787)" fill="url(#paint0_linear_3038_3336)"/>
<rect width="622" height="32" transform="translate(931 787)" fill="url(#paint1_linear_3038_3336)" fill-opacity="0.3"/>
<rect width="622" height="260" transform="translate(931 527)" fill="url(#paint2_linear_3038_3336)"/>
<rect width="931" height="527" fill="#00D81D"/>
<rect width="207" height="527" transform="translate(931)" fill="#7CE670"/>
<rect width="208" height="527" transform="translate(1138)" fill="#A6EE9C"/>
<rect width="207" height="527" transform="translate(1346)" fill="#EAFBE7"/>
<rect width="146" height="155.3" transform="translate(0 1257) rotate(-90)" fill="#262629"/>
<rect width="146" height="155.3" transform="translate(155.3 1257) rotate(-90)" fill="#47474B"/>
<rect width="146" height="155.3" transform="translate(310.6 1257) rotate(-90)" fill="#67676B"/>
<rect width="146" height="155.3" transform="translate(465.9 1257) rotate(-90)" fill="#7B7B7F"/>
<rect width="146" height="155.3" transform="translate(621.2 1257) rotate(-90)" fill="#A4A4A9"/>
<rect width="146" height="155.3" transform="translate(776.5 1257) rotate(-90)" fill="#C3C3C8"/>
<rect width="146" height="155.3" transform="translate(931.8 1257) rotate(-90)" fill="#E5E5EA"/>
<rect width="146" height="155.3" transform="translate(1087.1 1257) rotate(-90)" fill="#F2F2F7"/>
<rect width="146" height="155.3" transform="translate(1242.4 1257) rotate(-90)" fill="#F7F7FC"/>
<rect width="146" height="155.3" transform="translate(1397.7 1257) rotate(-90)" fill="white"/>
<rect width="580" height="1257" transform="translate(1553)" fill="white"/>
<rect x="1649" y="306" width="64" height="64" rx="20" fill="#2E706D"/>
<rect x="1649" y="454" width="64" height="64" rx="20" fill="#2E706D"/>
<rect x="1649" y="602" width="64" height="64" rx="20" fill="#2E706D"/>
<rect x="1608" y="806" width="470" height="108" rx="54" fill="#2E706D"/>
<rect x="1608" y="806" width="470" height="108" rx="54" stroke="#B5DBDD" stroke-width="4"/>
<path d="M1760.17 863.24H1765.8L1765.1 860.648C1764.36 858.184 1763.72 855.464 1763.02 852.904H1762.89C1762.28 855.496 1761.58 858.184 1760.88 860.648L1760.17 863.24ZM1768.49 873L1766.83 866.92H1759.15L1757.48 873H1752.68L1760.27 849.32H1765.84L1773.45 873H1768.49ZM1782.14 873.448C1777.7 873.448 1774.82 869.928 1774.82 864.072C1774.82 858.216 1778.46 854.632 1782.34 854.632C1784.35 854.632 1785.6 855.4 1786.88 856.584L1786.69 853.768V847.464H1791.39V873H1787.58L1787.2 871.144H1787.1C1785.79 872.424 1784 873.448 1782.14 873.448ZM1783.36 869.576C1784.61 869.576 1785.66 869.064 1786.69 867.72V859.848C1785.6 858.856 1784.48 858.504 1783.36 858.504C1781.34 858.504 1779.65 860.424 1779.65 864.008C1779.65 867.72 1780.99 869.576 1783.36 869.576ZM1802.74 873.448C1798.29 873.448 1795.41 869.928 1795.41 864.072C1795.41 858.216 1799.06 854.632 1802.93 854.632C1804.95 854.632 1806.19 855.4 1807.47 856.584L1807.28 853.768V847.464H1811.99V873H1808.18L1807.79 871.144H1807.7C1806.39 872.424 1804.59 873.448 1802.74 873.448ZM1803.95 869.576C1805.2 869.576 1806.26 869.064 1807.28 867.72V859.848C1806.19 858.856 1805.07 858.504 1803.95 858.504C1801.94 858.504 1800.24 860.424 1800.24 864.008C1800.24 867.72 1801.59 869.576 1803.95 869.576ZM1830.84 873.448C1826.58 873.448 1824.95 870.76 1824.95 866.728V858.792H1822.42V855.304L1825.17 855.08L1825.72 850.28H1829.65V855.08H1834.07V858.792H1829.65V866.728C1829.65 868.776 1830.49 869.736 1832.09 869.736C1832.66 869.736 1833.37 869.544 1833.85 869.352L1834.61 872.776C1833.65 873.096 1832.41 873.448 1830.84 873.448ZM1844.61 873.448C1840.13 873.448 1836 869.992 1836 864.072C1836 858.088 1840.13 854.632 1844.61 854.632C1849.09 854.632 1853.22 858.088 1853.22 864.072C1853.22 869.992 1849.09 873.448 1844.61 873.448ZM1844.61 869.608C1847.04 869.608 1848.42 867.432 1848.42 864.072C1848.42 860.68 1847.04 858.472 1844.61 858.472C1842.18 858.472 1840.8 860.68 1840.8 864.072C1840.8 867.432 1842.18 869.608 1844.61 869.608ZM1874.45 873.448C1868.47 873.448 1863.6 869.16 1863.6 861.256C1863.6 853.448 1868.63 848.872 1874.61 848.872C1877.62 848.872 1880.02 850.312 1881.56 851.912L1879.06 854.92C1877.88 853.768 1876.5 852.936 1874.71 852.936C1871.12 852.936 1868.44 856.008 1868.44 861.096C1868.44 866.248 1870.87 869.352 1874.61 869.352C1876.63 869.352 1878.23 868.392 1879.51 867.016L1882 869.96C1880.05 872.232 1877.52 873.448 1874.45 873.448ZM1889.85 873.448C1886.65 873.448 1884.54 871.176 1884.54 868.136C1884.54 864.296 1887.64 862.28 1894.84 861.512C1894.78 859.752 1894.01 858.408 1891.8 858.408C1890.14 858.408 1888.54 859.144 1886.87 860.104L1885.18 857C1887.29 855.688 1889.85 854.632 1892.67 854.632C1897.21 854.632 1899.55 857.352 1899.55 862.536V873H1895.71L1895.35 871.08H1895.26C1893.69 872.424 1891.9 873.448 1889.85 873.448ZM1891.39 869.768C1892.73 869.768 1893.72 869.128 1894.84 868.008V864.392C1890.49 864.968 1889.02 866.152 1889.02 867.752C1889.02 869.16 1890.01 869.768 1891.39 869.768ZM1904.34 873V855.08H1908.18L1908.5 858.248H1908.63C1909.94 855.912 1911.86 854.632 1913.72 854.632C1914.71 854.632 1915.28 854.792 1915.83 855.016L1915 859.08C1914.39 858.888 1913.88 858.792 1913.14 858.792C1911.73 858.792 1910.04 859.72 1909.01 862.312V873H1904.34ZM1924.84 873.448C1920.58 873.448 1918.95 870.76 1918.95 866.728V858.792H1916.42V855.304L1919.17 855.08L1919.72 850.28H1923.65V855.08H1928.07V858.792H1923.65V866.728C1923.65 868.776 1924.49 869.736 1926.09 869.736C1926.66 869.736 1927.37 869.544 1927.85 869.352L1928.61 872.776C1927.65 873.096 1926.41 873.448 1924.84 873.448Z" fill="white"/>
<path d="M1732.17 351L1733 344.056H1730.25V341.016H1733.35L1733.9 336.632H1730.98V333.56H1734.28L1735.08 327.416H1737.8L1737.06 333.56H1741.1L1741.9 327.416H1744.62L1743.91 333.56H1746.76V336.632H1743.53L1742.98 341.016H1746.02V344.056H1742.63L1741.8 351H1738.98L1739.82 344.056H1735.82L1734.95 351H1732.17ZM1736.14 341.016H1740.17L1740.71 336.632H1736.68L1736.14 341.016ZM1749.22 351V348.28C1755.65 342.52 1759.46 338.072 1759.46 334.424C1759.46 332.024 1758.15 330.584 1755.91 330.584C1754.18 330.584 1752.74 331.704 1751.56 333.016L1749 330.456C1751.17 328.152 1753.28 326.872 1756.52 326.872C1761 326.872 1763.97 329.752 1763.97 334.168C1763.97 338.456 1760.42 343.064 1756.1 347.288C1757.28 347.16 1758.85 347.032 1759.94 347.032H1765.09V351H1749.22ZM1769.6 351V327.32H1784.13V331.256H1774.34V336.728H1782.66V340.696H1774.34V347.032H1784.48V351H1769.6ZM1792.33 351C1792.74 342.776 1794.12 337.528 1798.63 331.256H1787.98V327.32H1803.72V330.168C1798.22 336.888 1797.48 341.72 1797.1 351H1792.33ZM1814.66 351.448C1809.83 351.448 1806.63 347.224 1806.63 339.064C1806.63 330.872 1809.83 326.872 1814.66 326.872C1819.46 326.872 1822.66 330.904 1822.66 339.064C1822.66 347.224 1819.46 351.448 1814.66 351.448ZM1814.66 347.768C1816.67 347.768 1818.21 345.72 1818.21 339.064C1818.21 332.44 1816.67 330.52 1814.66 330.52C1812.61 330.52 1811.07 332.44 1811.07 339.064C1811.07 345.72 1812.61 347.768 1814.66 347.768ZM1834.08 347.896C1835.84 347.896 1837.28 346.424 1837.28 343.544C1837.28 340.728 1835.97 339.416 1833.92 339.416C1832.64 339.416 1831.23 340.088 1830.05 341.912C1830.49 346.232 1832.09 347.896 1834.08 347.896ZM1841.25 329.56L1838.75 332.376C1837.92 331.416 1836.48 330.648 1835.1 330.648C1832.38 330.648 1830.14 332.696 1829.95 338.616C1831.23 337.048 1833.28 336.088 1834.81 336.088C1838.78 336.088 1841.6 338.456 1841.6 343.544C1841.6 348.408 1838.21 351.448 1834.17 351.448C1829.66 351.448 1825.66 347.832 1825.66 339.48C1825.66 330.648 1830.05 326.872 1834.81 326.872C1837.69 326.872 1839.81 328.088 1841.25 329.56ZM1845.82 351V327.32H1852.31C1859.55 327.32 1864.03 331.064 1864.03 339.064C1864.03 347.032 1859.55 351 1852.57 351H1845.82ZM1850.55 347.192H1852.03C1856.44 347.192 1859.19 344.824 1859.19 339.064C1859.19 333.272 1856.44 331.096 1852.03 331.096H1850.55V347.192Z" fill="#2E706D"/>
<path d="M1736.65 499.448C1734.25 499.448 1731.59 498.392 1729.83 496.92L1731.98 493.976C1733.58 495.224 1735.11 495.928 1736.78 495.928C1738.57 495.928 1739.37 495.16 1739.37 494.04C1739.37 492.696 1737.51 492.088 1735.62 491.352C1733.35 490.488 1730.73 489.112 1730.73 486.136C1730.73 482.904 1733.35 480.632 1737.38 480.632C1740.01 480.632 1741.99 481.72 1743.5 482.84L1741.38 485.688C1740.1 484.792 1738.86 484.152 1737.51 484.152C1735.91 484.152 1735.14 484.856 1735.14 485.88C1735.14 487.192 1736.9 487.672 1738.79 488.376C1741.16 489.272 1743.78 490.456 1743.78 493.784C1743.78 496.92 1741.32 499.448 1736.65 499.448ZM1755.15 499.448C1750.16 499.448 1746.25 495.96 1746.25 490.072C1746.25 484.248 1750.32 480.632 1754.6 480.632C1759.53 480.632 1762.09 484.248 1762.09 489.208C1762.09 490.072 1762 490.936 1761.87 491.352H1750.83C1751.21 494.296 1753.13 495.832 1755.79 495.832C1757.26 495.832 1758.54 495.384 1759.82 494.584L1761.42 497.464C1759.66 498.68 1757.39 499.448 1755.15 499.448ZM1750.76 488.248H1758.06C1758.06 485.816 1756.97 484.28 1754.67 484.28C1752.78 484.28 1751.12 485.624 1750.76 488.248ZM1773.58 499.448C1768.62 499.448 1764.85 495.992 1764.85 490.072C1764.85 484.088 1769.13 480.632 1774 480.632C1776.21 480.632 1777.9 481.496 1779.21 482.616L1776.97 485.656C1776.08 484.888 1775.25 484.472 1774.22 484.472C1771.5 484.472 1769.65 486.68 1769.65 490.072C1769.65 493.432 1771.5 495.608 1774.09 495.608C1775.37 495.608 1776.59 495 1777.58 494.168L1779.44 497.272C1777.74 498.776 1775.57 499.448 1773.58 499.448ZM1789.36 499.448C1784.88 499.448 1780.75 495.992 1780.75 490.072C1780.75 484.088 1784.88 480.632 1789.36 480.632C1793.84 480.632 1797.97 484.088 1797.97 490.072C1797.97 495.992 1793.84 499.448 1789.36 499.448ZM1789.36 495.608C1791.79 495.608 1793.17 493.432 1793.17 490.072C1793.17 486.68 1791.79 484.472 1789.36 484.472C1786.93 484.472 1785.55 486.68 1785.55 490.072C1785.55 493.432 1786.93 495.608 1789.36 495.608ZM1801.9 499V481.08H1805.74L1806.06 483.448H1806.19C1807.76 481.912 1809.58 480.632 1812.02 480.632C1815.89 480.632 1817.55 483.32 1817.55 487.832V499H1812.85V488.408C1812.85 485.656 1812.08 484.664 1810.32 484.664C1808.85 484.664 1807.92 485.368 1806.58 486.68V499H1801.9ZM1828.71 499.448C1824.26 499.448 1821.38 495.928 1821.38 490.072C1821.38 484.216 1825.03 480.632 1828.9 480.632C1830.92 480.632 1832.16 481.4 1833.44 482.584L1833.25 479.768V473.464H1837.95V499H1834.15L1833.76 497.144H1833.67C1832.36 498.424 1830.56 499.448 1828.71 499.448ZM1829.92 495.576C1831.17 495.576 1832.23 495.064 1833.25 493.72V485.848C1832.16 484.856 1831.04 484.504 1829.92 484.504C1827.91 484.504 1826.21 486.424 1826.21 490.008C1826.21 493.72 1827.56 495.576 1829.92 495.576ZM1847.41 499.448C1844.21 499.448 1842.1 497.176 1842.1 494.136C1842.1 490.296 1845.2 488.28 1852.4 487.512C1852.34 485.752 1851.57 484.408 1849.36 484.408C1847.7 484.408 1846.1 485.144 1844.44 486.104L1842.74 483C1844.85 481.688 1847.41 480.632 1850.23 480.632C1854.77 480.632 1857.11 483.352 1857.11 488.536V499H1853.27L1852.92 497.08H1852.82C1851.25 498.424 1849.46 499.448 1847.41 499.448ZM1848.95 495.768C1850.29 495.768 1851.28 495.128 1852.4 494.008V490.392C1848.05 490.968 1846.58 492.152 1846.58 493.752C1846.58 495.16 1847.57 495.768 1848.95 495.768ZM1861.9 499V481.08H1865.74L1866.06 484.248H1866.19C1867.5 481.912 1869.42 480.632 1871.28 480.632C1872.27 480.632 1872.85 480.792 1873.39 481.016L1872.56 485.08C1871.95 484.888 1871.44 484.792 1870.7 484.792C1869.3 484.792 1867.6 485.72 1866.58 488.312V499H1861.9ZM1877.85 506.2C1876.79 506.2 1876.09 506.072 1875.38 505.848L1876.25 502.232C1876.57 502.328 1877.08 502.456 1877.49 502.456C1879.32 502.456 1880.34 501.304 1880.85 499.736L1881.17 498.68L1874.2 481.08H1878.93L1881.78 489.4C1882.33 491 1882.77 492.728 1883.29 494.456H1883.45C1883.86 492.792 1884.31 491.064 1884.73 489.4L1887.19 481.08H1891.7L1885.33 499.544C1883.77 503.768 1881.85 506.2 1877.85 506.2ZM1893.69 491.512V488.152H1902.43V491.512H1893.69ZM1909.92 499C1910.34 490.776 1911.71 485.528 1916.22 479.256H1905.57V475.32H1921.31V478.168C1915.81 484.888 1915.07 489.72 1914.69 499H1909.92ZM1932.25 499.448C1927.42 499.448 1924.22 495.224 1924.22 487.064C1924.22 478.872 1927.42 474.872 1932.25 474.872C1937.05 474.872 1940.25 478.904 1940.25 487.064C1940.25 495.224 1937.05 499.448 1932.25 499.448ZM1932.25 495.768C1934.27 495.768 1935.8 493.72 1935.8 487.064C1935.8 480.44 1934.27 478.52 1932.25 478.52C1930.2 478.52 1928.67 480.44 1928.67 487.064C1928.67 493.72 1930.2 495.768 1932.25 495.768ZM1951.1 499.448C1946.26 499.448 1943.06 495.224 1943.06 487.064C1943.06 478.872 1946.26 474.872 1951.1 474.872C1955.9 474.872 1959.1 478.904 1959.1 487.064C1959.1 495.224 1955.9 499.448 1951.1 499.448ZM1951.1 495.768C1953.11 495.768 1954.65 493.72 1954.65 487.064C1954.65 480.44 1953.11 478.52 1951.1 478.52C1949.05 478.52 1947.51 480.44 1947.51 487.064C1947.51 493.72 1949.05 495.768 1951.1 495.768Z" fill="#2E706D"/>
<path d="M1740.52 647.448C1738.92 647.448 1737.19 646.616 1735.72 645.112H1735.62L1735.21 647H1731.53V621.464H1736.2V627.896L1736.1 630.776C1737.51 629.496 1739.3 628.632 1741.06 628.632C1745.48 628.632 1748.14 632.248 1748.14 637.72C1748.14 643.896 1744.46 647.448 1740.52 647.448ZM1739.46 643.576C1741.64 643.576 1743.3 641.72 1743.3 637.816C1743.3 634.392 1742.22 632.504 1739.75 632.504C1738.54 632.504 1737.45 633.112 1736.2 634.36V642.232C1737.32 643.224 1738.5 643.576 1739.46 643.576ZM1756.1 647.448C1752.9 647.448 1750.79 645.176 1750.79 642.136C1750.79 638.296 1753.89 636.28 1761.09 635.512C1761.03 633.752 1760.26 632.408 1758.05 632.408C1756.39 632.408 1754.79 633.144 1753.12 634.104L1751.43 631C1753.54 629.688 1756.1 628.632 1758.92 628.632C1763.46 628.632 1765.8 631.352 1765.8 636.536V647H1761.96L1761.6 645.08H1761.51C1759.94 646.424 1758.15 647.448 1756.1 647.448ZM1757.64 643.768C1758.98 643.768 1759.97 643.128 1761.09 642.008V638.392C1756.74 638.968 1755.27 640.152 1755.27 641.752C1755.27 643.16 1756.26 643.768 1757.64 643.768ZM1778.21 647.448C1773.25 647.448 1769.47 643.992 1769.47 638.072C1769.47 632.088 1773.76 628.632 1778.62 628.632C1780.83 628.632 1782.53 629.496 1783.84 630.616L1781.6 633.656C1780.7 632.888 1779.87 632.472 1778.85 632.472C1776.13 632.472 1774.27 634.68 1774.27 638.072C1774.27 641.432 1776.13 643.608 1778.72 643.608C1780 643.608 1781.21 643 1782.21 642.168L1784.06 645.272C1782.37 646.776 1780.19 647.448 1778.21 647.448ZM1787.47 647V621.464H1792.04V636.824H1792.17L1798.38 629.08H1803.5L1797.29 636.408L1804.07 647H1798.99L1794.63 639.576L1792.04 642.52V647H1787.47ZM1812.77 654.776C1808.55 654.776 1805.28 653.336 1805.28 650.168C1805.28 648.664 1806.21 647.384 1807.84 646.456V646.296C1806.91 645.688 1806.21 644.76 1806.21 643.288C1806.21 641.944 1807.14 640.696 1808.19 639.928V639.8C1806.98 638.904 1805.83 637.208 1805.83 635.128C1805.83 630.904 1809.25 628.632 1813.06 628.632C1814.05 628.632 1815.01 628.824 1815.75 629.08H1822.21V632.536H1819.14C1819.62 633.144 1819.97 634.136 1819.97 635.256C1819.97 639.288 1816.9 641.336 1813.06 641.336C1812.35 641.336 1811.52 641.176 1810.75 640.92C1810.24 641.336 1809.99 641.752 1809.99 642.456C1809.99 643.416 1810.69 643.928 1812.8 643.928H1815.84C1820.16 643.928 1822.5 645.272 1822.5 648.408C1822.5 652.024 1818.75 654.776 1812.77 654.776ZM1813.06 638.424C1814.63 638.424 1815.84 637.24 1815.84 635.128C1815.84 633.016 1814.66 631.832 1813.06 631.832C1811.46 631.832 1810.24 633.016 1810.24 635.128C1810.24 637.24 1811.49 638.424 1813.06 638.424ZM1813.47 651.8C1816.16 651.8 1818.02 650.616 1818.02 649.208C1818.02 647.928 1816.96 647.608 1815.04 647.608H1812.87C1811.78 647.608 1811.01 647.512 1810.37 647.352C1809.57 647.992 1809.19 648.696 1809.19 649.432C1809.19 650.936 1810.85 651.8 1813.47 651.8ZM1825.56 647V629.08H1829.4L1829.72 632.248H1829.85C1831.16 629.912 1833.08 628.632 1834.94 628.632C1835.93 628.632 1836.5 628.792 1837.05 629.016L1836.22 633.08C1835.61 632.888 1835.1 632.792 1834.36 632.792C1832.95 632.792 1831.26 633.72 1830.23 636.312V647H1825.56ZM1846.61 647.448C1842.13 647.448 1838 643.992 1838 638.072C1838 632.088 1842.13 628.632 1846.61 628.632C1851.09 628.632 1855.22 632.088 1855.22 638.072C1855.22 643.992 1851.09 647.448 1846.61 647.448ZM1846.61 643.608C1849.04 643.608 1850.42 641.432 1850.42 638.072C1850.42 634.68 1849.04 632.472 1846.61 632.472C1844.18 632.472 1842.8 634.68 1842.8 638.072C1842.8 641.432 1844.18 643.608 1846.61 643.608ZM1864.47 647.448C1860.62 647.448 1858.96 644.76 1858.96 640.28V629.08H1863.67V639.672C1863.67 642.456 1864.43 643.416 1866.16 643.416C1867.63 643.416 1868.59 642.776 1869.81 641.176V629.08H1874.51V647H1870.67L1870.32 644.44H1870.19C1868.66 646.264 1866.93 647.448 1864.47 647.448ZM1879.53 647V629.08H1883.37L1883.69 631.448H1883.82C1885.38 629.912 1887.21 628.632 1889.64 628.632C1893.51 628.632 1895.18 631.32 1895.18 635.832V647H1890.47V636.408C1890.47 633.656 1889.7 632.664 1887.94 632.664C1886.47 632.664 1885.54 633.368 1884.2 634.68V647H1879.53ZM1906.33 647.448C1901.88 647.448 1899 643.928 1899 638.072C1899 632.216 1902.65 628.632 1906.52 628.632C1908.54 628.632 1909.79 629.4 1911.07 630.584L1910.88 627.768V621.464H1915.58V647H1911.77L1911.39 645.144H1911.29C1909.98 646.424 1908.19 647.448 1906.33 647.448ZM1907.55 643.576C1908.8 643.576 1909.85 643.064 1910.88 641.72V633.848C1909.79 632.856 1908.67 632.504 1907.55 632.504C1905.53 632.504 1903.84 634.424 1903.84 638.008C1903.84 641.72 1905.18 643.576 1907.55 643.576ZM1919.66 639.512V636.152H1928.4V639.512H1919.66ZM1941.46 647.448C1939.86 647.448 1938.13 646.616 1936.66 645.112H1936.56L1936.15 647H1932.47V621.464H1937.14V627.896L1937.04 630.776C1938.45 629.496 1940.24 628.632 1942 628.632C1946.42 628.632 1949.07 632.248 1949.07 637.72C1949.07 643.896 1945.39 647.448 1941.46 647.448ZM1940.4 643.576C1942.58 643.576 1944.24 641.72 1944.24 637.816C1944.24 634.392 1943.15 632.504 1940.69 632.504C1939.47 632.504 1938.39 633.112 1937.14 634.36V642.232C1938.26 643.224 1939.44 643.576 1940.4 643.576ZM1958.37 647.448C1954.53 647.448 1952.87 644.76 1952.87 640.28V629.08H1957.57V639.672C1957.57 642.456 1958.34 643.416 1960.07 643.416C1961.54 643.416 1962.5 642.776 1963.72 641.176V629.08H1968.42V647H1964.58L1964.23 644.44H1964.1C1962.56 646.264 1960.84 647.448 1958.37 647.448ZM1979.99 647.448C1975.74 647.448 1974.11 644.76 1974.11 640.728V632.792H1971.58V629.304L1974.33 629.08L1974.87 624.28H1978.81V629.08H1983.23V632.792H1978.81V640.728C1978.81 642.776 1979.64 643.736 1981.24 643.736C1981.82 643.736 1982.52 643.544 1983 643.352L1983.77 646.776C1982.81 647.096 1981.56 647.448 1979.99 647.448ZM1992.68 647.448C1988.43 647.448 1986.79 644.76 1986.79 640.728V632.792H1984.27V629.304L1987.02 629.08L1987.56 624.28H1991.5V629.08H1995.91V632.792H1991.5V640.728C1991.5 642.776 1992.33 643.736 1993.93 643.736C1994.51 643.736 1995.21 643.544 1995.69 643.352L1996.46 646.776C1995.5 647.096 1994.25 647.448 1992.68 647.448ZM2006.45 647.448C2001.97 647.448 1997.85 643.992 1997.85 638.072C1997.85 632.088 2001.97 628.632 2006.45 628.632C2010.93 628.632 2015.06 632.088 2015.06 638.072C2015.06 643.992 2010.93 647.448 2006.45 647.448ZM2006.45 643.608C2008.89 643.608 2010.26 641.432 2010.26 638.072C2010.26 634.68 2008.89 632.472 2006.45 632.472C2004.02 632.472 2002.65 634.68 2002.65 638.072C2002.65 641.432 2004.02 643.608 2006.45 643.608ZM2019 647V629.08H2022.84L2023.16 631.448H2023.28C2024.85 629.912 2026.68 628.632 2029.11 628.632C2032.98 628.632 2034.64 631.32 2034.64 635.832V647H2029.94V636.408C2029.94 633.656 2029.17 632.664 2027.41 632.664C2025.94 632.664 2025.01 633.368 2023.67 634.68V647H2019ZM1730.57 687.512V684.152H1739.3V687.512H1730.57ZM1748.49 695.448C1746.09 695.448 1743.44 694.392 1741.68 692.92L1743.82 689.976C1745.42 691.224 1746.96 691.928 1748.62 691.928C1750.41 691.928 1751.21 691.16 1751.21 690.04C1751.21 688.696 1749.36 688.088 1747.47 687.352C1745.2 686.488 1742.57 685.112 1742.57 682.136C1742.57 678.904 1745.2 676.632 1749.23 676.632C1751.85 676.632 1753.84 677.72 1755.34 678.84L1753.23 681.688C1751.95 680.792 1750.7 680.152 1749.36 680.152C1747.76 680.152 1746.99 680.856 1746.99 681.88C1746.99 683.192 1748.75 683.672 1750.64 684.376C1753 685.272 1755.63 686.456 1755.63 689.784C1755.63 692.92 1753.16 695.448 1748.49 695.448ZM1766.99 695.448C1762 695.448 1758.1 691.96 1758.1 686.072C1758.1 680.248 1762.16 676.632 1766.45 676.632C1771.38 676.632 1773.94 680.248 1773.94 685.208C1773.94 686.072 1773.84 686.936 1773.71 687.352H1762.67C1763.06 690.296 1764.98 691.832 1767.63 691.832C1769.1 691.832 1770.38 691.384 1771.66 690.584L1773.26 693.464C1771.5 694.68 1769.23 695.448 1766.99 695.448ZM1762.61 684.248H1769.9C1769.9 681.816 1768.82 680.28 1766.51 680.28C1764.62 680.28 1762.96 681.624 1762.61 684.248ZM1785.43 695.448C1780.47 695.448 1776.69 691.992 1776.69 686.072C1776.69 680.088 1780.98 676.632 1785.84 676.632C1788.05 676.632 1789.75 677.496 1791.06 678.616L1788.82 681.656C1787.92 680.888 1787.09 680.472 1786.07 680.472C1783.35 680.472 1781.49 682.68 1781.49 686.072C1781.49 689.432 1783.35 691.608 1785.94 691.608C1787.22 691.608 1788.43 691 1789.43 690.168L1791.28 693.272C1789.59 694.776 1787.41 695.448 1785.43 695.448ZM1801.2 695.448C1796.72 695.448 1792.6 691.992 1792.6 686.072C1792.6 680.088 1796.72 676.632 1801.2 676.632C1805.68 676.632 1809.81 680.088 1809.81 686.072C1809.81 691.992 1805.68 695.448 1801.2 695.448ZM1801.2 691.608C1803.64 691.608 1805.01 689.432 1805.01 686.072C1805.01 682.68 1803.64 680.472 1801.2 680.472C1798.77 680.472 1797.4 682.68 1797.4 686.072C1797.4 689.432 1798.77 691.608 1801.2 691.608ZM1813.75 695V677.08H1817.59L1817.91 679.448H1818.03C1819.6 677.912 1821.43 676.632 1823.86 676.632C1827.73 676.632 1829.39 679.32 1829.39 683.832V695H1824.69V684.408C1824.69 681.656 1823.92 680.664 1822.16 680.664C1820.69 680.664 1819.76 681.368 1818.42 682.68V695H1813.75ZM1840.55 695.448C1836.1 695.448 1833.22 691.928 1833.22 686.072C1833.22 680.216 1836.87 676.632 1840.74 676.632C1842.76 676.632 1844.01 677.4 1845.29 678.584L1845.09 675.768V669.464H1849.8V695H1845.99L1845.61 693.144H1845.51C1844.2 694.424 1842.41 695.448 1840.55 695.448ZM1841.77 691.576C1843.01 691.576 1844.07 691.064 1845.09 689.72V681.848C1844.01 680.856 1842.89 680.504 1841.77 680.504C1839.75 680.504 1838.05 682.424 1838.05 686.008C1838.05 689.72 1839.4 691.576 1841.77 691.576ZM1859.26 695.448C1856.06 695.448 1853.94 693.176 1853.94 690.136C1853.94 686.296 1857.05 684.28 1864.25 683.512C1864.18 681.752 1863.42 680.408 1861.21 680.408C1859.54 680.408 1857.94 681.144 1856.28 682.104L1854.58 679C1856.7 677.688 1859.26 676.632 1862.07 676.632C1866.62 676.632 1868.95 679.352 1868.95 684.536V695H1865.11L1864.76 693.08H1864.66C1863.1 694.424 1861.3 695.448 1859.26 695.448ZM1860.79 691.768C1862.14 691.768 1863.13 691.128 1864.25 690.008V686.392C1859.9 686.968 1858.42 688.152 1858.42 689.752C1858.42 691.16 1859.42 691.768 1860.79 691.768ZM1873.75 695V677.08H1877.59L1877.91 680.248H1878.03C1879.35 677.912 1881.27 676.632 1883.12 676.632C1884.11 676.632 1884.69 676.792 1885.23 677.016L1884.4 681.08C1883.79 680.888 1883.28 680.792 1882.55 680.792C1881.14 680.792 1879.44 681.72 1878.42 684.312V695H1873.75ZM1889.69 702.2C1888.63 702.2 1887.93 702.072 1887.23 701.848L1888.09 698.232C1888.41 698.328 1888.92 698.456 1889.34 698.456C1891.16 698.456 1892.19 697.304 1892.7 695.736L1893.02 694.68L1886.04 677.08H1890.78L1893.63 685.4C1894.17 687 1894.62 688.728 1895.13 690.456H1895.29C1895.71 688.792 1896.15 687.064 1896.57 685.4L1899.03 677.08H1903.55L1897.18 695.544C1895.61 699.768 1893.69 702.2 1889.69 702.2ZM1905.54 687.512V684.152H1914.27V687.512H1905.54ZM1924.64 695.448C1920.2 695.448 1917.32 691.928 1917.32 686.072C1917.32 680.216 1920.96 676.632 1924.84 676.632C1926.85 676.632 1928.1 677.4 1929.38 678.584L1929.19 675.768V669.464H1933.89V695H1930.08L1929.7 693.144H1929.6C1928.29 694.424 1926.5 695.448 1924.64 695.448ZM1925.86 691.576C1927.11 691.576 1928.16 691.064 1929.19 689.72V681.848C1928.1 680.856 1926.98 680.504 1925.86 680.504C1923.84 680.504 1922.15 682.424 1922.15 686.008C1922.15 689.72 1923.49 691.576 1925.86 691.576ZM1946.71 695.448C1941.72 695.448 1937.81 691.96 1937.81 686.072C1937.81 680.248 1941.88 676.632 1946.17 676.632C1951.09 676.632 1953.65 680.248 1953.65 685.208C1953.65 686.072 1953.56 686.936 1953.43 687.352H1942.39C1942.77 690.296 1944.69 691.832 1947.35 691.832C1948.82 691.832 1950.1 691.384 1951.38 690.584L1952.98 693.464C1951.22 694.68 1948.95 695.448 1946.71 695.448ZM1942.33 684.248H1949.62C1949.62 681.816 1948.53 680.28 1946.23 680.28C1944.34 680.28 1942.68 681.624 1942.33 684.248ZM1967.8 669.656L1966.94 673.112C1966.33 672.888 1965.63 672.728 1965.05 672.728C1963.64 672.728 1962.88 673.56 1962.88 675.544V677.08H1966.24V680.792H1962.88V695H1958.17V680.792H1955.77V677.304L1958.17 677.112V675.64C1958.17 671.896 1959.9 669.016 1964.41 669.016C1965.79 669.016 1967 669.336 1967.8 669.656ZM1972.94 695.448C1969.74 695.448 1967.63 693.176 1967.63 690.136C1967.63 686.296 1970.74 684.28 1977.94 683.512C1977.87 681.752 1977.1 680.408 1974.9 680.408C1973.23 680.408 1971.63 681.144 1969.97 682.104L1968.27 679C1970.38 677.688 1972.94 676.632 1975.76 676.632C1980.3 676.632 1982.64 679.352 1982.64 684.536V695H1978.8L1978.45 693.08H1978.35C1976.78 694.424 1974.99 695.448 1972.94 695.448ZM1974.48 691.768C1975.82 691.768 1976.82 691.128 1977.94 690.008V686.392C1973.58 686.968 1972.11 688.152 1972.11 689.752C1972.11 691.16 1973.1 691.768 1974.48 691.768ZM1992.75 695.448C1988.91 695.448 1987.24 692.76 1987.24 688.28V677.08H1991.95V687.672C1991.95 690.456 1992.71 691.416 1994.44 691.416C1995.91 691.416 1996.87 690.776 1998.09 689.176V677.08H2002.79V695H1998.95L1998.6 692.44H1998.47C1996.94 694.264 1995.21 695.448 1992.75 695.448ZM2012.23 695.448C2008.96 695.448 2007.81 693.304 2007.81 689.976V669.464H2012.48V690.2C2012.48 691.256 2012.99 691.608 2013.44 691.608C2013.63 691.608 2013.76 691.608 2014.08 691.544L2014.66 695.032C2014.11 695.256 2013.31 695.448 2012.23 695.448ZM2024.46 695.448C2020.21 695.448 2018.58 692.76 2018.58 688.728V680.792H2016.05V677.304L2018.8 677.08L2019.34 672.28H2023.28V677.08H2027.7V680.792H2023.28V688.728C2023.28 690.776 2024.11 691.736 2025.71 691.736C2026.29 691.736 2026.99 691.544 2027.47 691.352L2028.24 694.776C2027.28 695.096 2026.03 695.448 2024.46 695.448Z" fill="#2E706D"/>
<line x1="1680" y1="378" x2="1680" y2="446" stroke="#262629" stroke-width="4"/>
<line x1="1680" y1="526" x2="1680" y2="594" stroke="#262629" stroke-width="4"/>
<path d="M1679 839L1690.55 819H1667.45L1679 839ZM1679 674H1677V821H1679H1681V674H1679Z" fill="#262629"/>
<defs>
<linearGradient id="paint0_linear_3038_3336" x1="-5.51632e-07" y1="-11.7778" x2="197.458" y2="308.016" gradientUnits="userSpaceOnUse">
<stop stop-color="#BDB9F6"/>
<stop offset="0.384615" stop-color="#EFF5E5"/>
<stop offset="0.625" stop-color="white"/>
<stop offset="0.826923" stop-color="#FDFFC7"/>
<stop offset="1" stop-color="#91FDEB"/>
</linearGradient>
<linearGradient id="paint1_linear_3038_3336" x1="191.626" y1="3.14437e-07" x2="191.626" y2="32" gradientUnits="userSpaceOnUse">
<stop stop-color="white" stop-opacity="0"/>
<stop offset="0.471154" stop-color="white"/>
<stop offset="1" stop-color="white" stop-opacity="0"/>
</linearGradient>
<linearGradient id="paint2_linear_3038_3336" x1="622.989" y1="-2.88887" x2="-22.9615" y2="89.3107" gradientUnits="userSpaceOnUse">
<stop stop-color="#007A00"/>
<stop offset="1" stop-color="#00B202"/>
</linearGradient>
</defs>
</svg>
