<svg width="282" height="294" viewBox="0 0 282 294" fill="none" xmlns="http://www.w3.org/2000/svg">
<path opacity="0.4" d="M165.607 2.33889C171.809 -2.50621 180.944 0.539501 182.998 8.137L204.237 86.7127C204.926 89.2648 206.512 91.4831 208.704 92.9616L276.182 138.48C282.707 142.881 282.633 152.511 276.042 156.811L207.875 201.292C205.661 202.737 204.041 204.931 203.313 207.472L180.874 285.713C178.704 293.279 169.523 296.184 163.396 291.245L100.028 240.16C97.9698 238.5 95.3829 237.638 92.7408 237.73L11.3947 240.567C3.52936 240.842 -2.07104 233.008 0.733269 225.655L29.7363 149.602C30.6783 147.131 30.6992 144.405 29.7951 141.92L1.95921 65.4323C-0.732244 58.0367 4.98736 50.2897 12.8476 50.6843L94.1407 54.7662C96.7811 54.8988 99.3809 54.076 101.464 52.4484L165.607 2.33889Z" fill="#254441"/>
</svg>
