<svg width="172" height="23" viewBox="0 0 172 23" fill="none" xmlns="http://www.w3.org/2000/svg">
<line y1="10.8574" x2="66" y2="10.8574" stroke="#7ECEC6"/>
<path d="M84.172 0.894266C84.9631 -0.298089 86.7139 -0.298089 87.505 0.894267L90.2681 5.05865C90.5338 5.45918 90.9349 5.75061 91.398 5.87958L96.2124 7.22051C97.5908 7.60445 98.1319 9.2696 97.2423 10.3905L94.1356 14.3051C93.8368 14.6816 93.6836 15.1532 93.704 15.6334L93.9164 20.6265C93.9773 22.0562 92.5608 23.0853 91.2199 22.5857L86.5368 20.8407C86.0864 20.6728 85.5906 20.6729 85.1402 20.8407L80.4571 22.5857C79.1162 23.0853 77.6997 22.0562 77.7605 20.6265L77.973 15.6334C77.9934 15.1532 77.8402 14.6816 77.5414 14.3051L74.4346 10.3905C73.5451 9.2696 74.0862 7.60445 75.4646 7.22051L80.279 5.87958C80.7421 5.75061 81.1432 5.45918 81.4089 5.05865L84.172 0.894266Z" fill="#7ECEC6"/>
<line x1="105.677" y1="10.8574" x2="171.677" y2="10.8574" stroke="#7ECEC6"/>
</svg>
