<svg width="787" height="152" viewBox="0 0 787 152" fill="none" xmlns="http://www.w3.org/2000/svg">
<rect width="787" height="152" fill="#F8F7FD"/>
<g filter="url(#filter0_i_3040_3566)">
<path d="M61.297 50.6308C40.9944 51.4322 45.0015 26.0539 58.0913 25.7867L57.5571 22.5811C53.2828 23.3825 42.063 27.1224 45.2686 43.1508C48.4743 59.1792 75.7226 57.3093 74.9212 39.4109C74.2801 25.0922 63.6123 22.5811 58.3585 23.1153L58.6256 26.5882C75.1883 24.451 77.0583 50.0086 61.297 50.6308Z" fill="#F2F2F2"/>
</g>
<path d="M57.7769 25.5303C51.2117 25.8593 47.0047 32.3416 46.9048 38.6055C46.8538 41.8015 47.8658 44.9819 50.2017 47.3135C52.5404 49.648 56.175 51.1 61.3071 50.8975C65.3276 50.7388 68.2424 48.9852 70.0737 46.4678C71.8997 43.9576 72.6378 40.7049 72.3491 37.5508C72.0603 34.3962 70.7428 31.317 68.4292 29.1602C66.161 27.0456 62.9525 25.8343 58.8706 26.29L58.644 23.3594C61.2199 23.1546 64.9861 23.6816 68.2173 25.9131C71.5448 28.2113 74.3375 32.3374 74.6548 39.4229C74.8518 43.8231 73.3266 47.2218 70.8901 49.6094C68.4487 52.0017 65.0777 53.3916 61.5718 53.7373C54.5474 54.4298 47.0982 50.9352 45.5308 43.0986C43.9422 35.1559 45.9324 30.3075 48.8003 27.3418C51.5651 24.4827 55.1825 23.3352 57.3384 22.8965L57.7769 25.5303Z" stroke="#BEBEBE" stroke-width="0.53428"/>
<mask id="mask0_3040_3566" style="mask-type:alpha" maskUnits="userSpaceOnUse" x="59" y="44" width="13" height="15">
<path d="M71.4149 58.9119H59.1265V54.0757C61.0618 54.1516 63.0155 53.9145 64.858 53.3682L63.6678 50.3264C62.9274 50.4933 62.1371 50.5974 61.297 50.6306C60.5399 50.6604 59.8167 50.6526 59.1265 50.6123V44.4863H71.4149V58.9119Z" fill="#F2F2F2"/>
</mask>
<g mask="url(#mask0_3040_3566)">
<g filter="url(#filter1_i_3040_3566)">
<path d="M63.1297 49.4957C64.3359 48.5854 65.8343 52.661 66.4327 54.8126L68.8509 54.8808C66.9447 49.2197 64.2875 45.072 61.8439 49.0463C59.889 52.2257 62.8123 56.9141 64.5183 58.8608L65.1895 55.9875C64.0004 54.2029 61.9235 50.4061 63.1297 49.4957Z" fill="#D9D9D9"/>
</g>
<path d="M63.1297 49.4957C64.3359 48.5854 65.8343 52.661 66.4327 54.8126L68.8509 54.8808C66.9447 49.2197 64.2875 45.072 61.8439 49.0463C59.889 52.2257 62.8123 56.9141 64.5183 58.8608L65.1895 55.9875C64.0004 54.2029 61.9235 50.4061 63.1297 49.4957Z" stroke="#BEBEBE" stroke-width="0.53428"/>
</g>
<path d="M61.7511 61.4018C70.7183 58.2338 81.1863 57.7579 90.0996 60.0478C99.0158 62.3385 106.329 67.3819 109.08 75.2126C111.875 83.1716 114.349 90.539 113.992 96.928C113.814 100.112 112.933 103.045 111.038 105.684C109.143 108.325 106.22 110.688 101.931 112.71C90.0769 118.298 77.6704 122.351 67.5461 123.031C62.4842 123.371 58.0134 122.865 54.4713 121.306C50.9384 119.75 48.3201 117.142 46.9509 113.244C42.7764 101.357 42.0196 89.9607 44.5354 80.7573C47.0494 71.5611 52.8294 64.5539 61.7511 61.4018Z" fill="#EEEEEE" stroke="#BEBEBE" stroke-width="0.53428"/>
<path d="M60.048 58.9639C68.9535 55.827 79.3386 55.3255 88.1721 57.5418C97.0091 59.7591 104.245 64.6809 106.946 72.3482C109.692 80.145 112.121 87.3604 111.746 93.6255C111.559 96.7475 110.675 99.6266 108.788 102.22C106.899 104.816 103.992 107.144 99.7314 109.141C87.9542 114.66 75.6341 118.676 65.5892 119.377C60.567 119.727 56.1343 119.246 52.6265 117.728C49.128 116.215 46.5415 113.667 45.1973 109.851C41.0962 98.2079 40.3827 87.0349 42.9082 78.0019C45.4317 68.9763 51.1874 62.0852 60.048 58.9639Z" fill="white" fill-opacity="0.6" stroke="#BEBEBE" stroke-width="0.53428"/>
<path d="M80.0303 76.8753C80.7944 75.6593 82.3975 75.295 83.6131 76.0604C84.8289 76.8261 85.1948 78.4315 84.4306 79.6478C83.6665 80.8637 82.0634 81.2281 80.8478 80.4627C79.632 79.6971 79.2662 78.0916 80.0303 76.8753Z" fill="#00D81E"/>
<path d="M80.0303 76.8753C80.7944 75.6593 82.3975 75.295 83.6131 76.0604C84.8289 76.8261 85.1948 78.4315 84.4306 79.6478C83.6665 80.8637 82.0634 81.2281 80.8478 80.4627C79.632 79.6971 79.2662 78.0916 80.0303 76.8753Z" fill="white" fill-opacity="0.34"/>
<path d="M65.9387 79.0514C66.7088 77.833 68.3189 77.4658 69.5347 78.2315C70.7524 79.0031 71.1207 80.6145 70.3567 81.8308C69.5868 83.0491 67.9765 83.416 66.7608 82.6506C65.5431 81.8791 65.175 80.2676 65.9387 79.0514Z" fill="#00D81E"/>
<path d="M65.9387 79.0514C66.7088 77.833 68.3189 77.4658 69.5347 78.2315C70.7524 79.0031 71.1207 80.6145 70.3567 81.8308C69.5868 83.0491 67.9765 83.416 66.7608 82.6506C65.5431 81.8791 65.175 80.2676 65.9387 79.0514Z" fill="white" fill-opacity="0.34"/>
<path fill-rule="evenodd" clip-rule="evenodd" d="M65.2167 67.3533C78.3568 62.7248 95.8553 65.8716 99.8788 77.2939C103.902 88.7162 107.075 98.6315 94.4836 104.534C77.1797 112.644 58.2233 116.365 54.1997 104.943C48.1615 87.8007 52.0767 71.9819 65.2167 67.3533ZM77.3938 70.5073C70.417 70.3903 61.7588 71.8728 59.3171 79.8831C57.3741 86.2636 62.7005 89.0364 71.577 87.7573L71.5738 87.7648C82.3697 86.203 90.5923 83.3869 91.7949 80.8623C93.993 76.2461 86.2931 70.6541 77.3938 70.5073Z" fill="#00D81E"/>
<path fill-rule="evenodd" clip-rule="evenodd" d="M65.2167 67.3533C78.3568 62.7248 95.8553 65.8716 99.8788 77.2939C103.902 88.7162 107.075 98.6315 94.4836 104.534C77.1797 112.644 58.2233 116.365 54.1997 104.943C48.1615 87.8007 52.0767 71.9819 65.2167 67.3533ZM77.3938 70.5073C70.417 70.3903 61.7588 71.8728 59.3171 79.8831C57.3741 86.2636 62.7005 89.0364 71.577 87.7573L71.5738 87.7648C82.3697 86.203 90.5923 83.3869 91.7949 80.8623C93.993 76.2461 86.2931 70.6541 77.3938 70.5073Z" fill="white" fill-opacity="0.34"/>
<mask id="mask1_3040_3566" style="mask-type:alpha" maskUnits="userSpaceOnUse" x="41" y="55" width="74" height="69">
<path d="M59.9593 58.7123C76.2394 52.9779 97.4274 56.0018 105.264 68.295C107.036 70.2726 108.427 72.5478 109.331 75.1239C114.912 91.0146 119.317 104.807 102.045 112.951C78.3445 124.122 52.361 129.207 46.7252 113.406C45.9998 112.388 45.4015 111.236 44.9451 109.94C36.7161 86.5784 42.0518 65.0203 59.9593 58.7123Z" fill="black"/>
</mask>
<g mask="url(#mask1_3040_3566)">
<path opacity="0.33" d="M61.0225 50.8828H80.0504L61.0225 124.457H41.9946L61.0225 50.8828Z" fill="white"/>
<path opacity="0.33" d="M88.9297 50.8828H107.958L88.9297 124.457H69.9019L88.9297 50.8828Z" fill="white"/>
</g>
<circle cx="68.7435" cy="57.8436" r="4.0071" fill="#E2E2E2" stroke="#BEBEBE" stroke-width="0.53428"/>
<g filter="url(#filter2_di_3040_3566)">
<path d="M179.806 123.85C177.905 116.721 172.974 77.2121 168.221 56.7151L231.494 46.9121C231.494 55.8239 241 103.947 241 112.265C237.198 112.265 198.62 119.989 179.806 123.85Z" fill="#F3F3F3"/>
<path d="M179.806 123.85C177.905 116.721 172.974 77.2121 168.221 56.7151L231.494 46.9121C231.494 55.8239 241 103.947 241 112.265C237.198 112.265 198.62 119.989 179.806 123.85Z" stroke="#BEBEBE" stroke-width="0.594118"/>
</g>
<path d="M165.25 37.4063L168.221 56.7151L231.494 46.9122L228.226 27.9004L165.25 37.4063Z" fill="#D9D9D9" stroke="#BEBEBE" stroke-width="0.594118"/>
<path opacity="0.2" d="M212.779 89.9855C198.52 85.8266 191.688 91.4708 182.776 81.6678C186.341 79.5884 195.847 84.6384 202.382 85.5296C207.61 86.2425 211.492 88.7972 212.779 89.9855Z" fill="#5F5F5F"/>
<path opacity="0.2" d="M186.935 92.9561C194.362 99.4913 207.729 101.868 223.176 106.027C218.72 101.274 194.956 96.5208 186.935 92.9561Z" fill="#5F5F5F"/>
<path opacity="0.2" d="M181.291 120.286C181.291 114.938 174.459 74.2414 173.567 69.1914C176.538 70.9738 180.4 95.0355 183.667 105.136C186.184 112.913 209.087 112.69 221.483 111.515C221.971 111.455 222.437 111.408 222.879 111.374C222.431 111.422 221.965 111.469 221.483 111.515C209.18 113.018 183.005 122.286 181.291 120.286Z" fill="#5F5F5F"/>
<path opacity="0.2" d="M199.115 56.7144C203.274 56.7144 224.959 62.3585 227.632 71.5673C228.227 56.1203 211.591 54.932 199.115 56.7144Z" fill="#5F5F5F"/>
<g clip-path="url(#clip0_3040_3566)">
<path d="M186.429 42.4564L186.412 43.3669C186.411 43.4256 186.374 43.4776 186.32 43.499L186.289 43.5106C186.251 43.5252 186.209 43.5227 186.172 43.5056C185.99 43.4177 185.808 43.3535 185.626 43.3128C185.424 43.2682 185.259 43.2556 185.128 43.2754C185.009 43.2935 184.921 43.3339 184.864 43.3976C184.807 43.4614 184.784 43.533 184.796 43.6117C184.811 43.7075 184.871 43.7797 184.977 43.8275C185.083 43.8753 185.26 43.929 185.507 43.9904C185.771 44.0483 185.994 44.1116 186.176 44.1794C186.357 44.2473 186.523 44.357 186.67 44.5078C186.818 44.6586 186.911 44.8615 186.949 45.1163C186.988 45.3711 186.96 45.6176 186.866 45.8576C186.771 46.0976 186.597 46.306 186.342 46.4836C186.087 46.6614 185.756 46.7807 185.347 46.8426C184.893 46.9114 184.437 46.907 183.981 46.8291C183.912 46.8169 183.861 46.7555 183.862 46.6854L183.867 45.6787C183.867 45.6507 183.878 45.6246 183.897 45.6041L183.899 45.6038C183.946 45.5556 184.02 45.5479 184.078 45.582C184.275 45.6973 184.485 45.7836 184.708 45.8416C184.968 45.909 185.189 45.9289 185.371 45.9013C185.49 45.8833 185.582 45.8405 185.647 45.7728C185.712 45.7052 185.739 45.6287 185.726 45.544C185.711 45.4482 185.651 45.376 185.545 45.3283C185.439 45.2804 185.262 45.2267 185.015 45.1653C184.744 45.1024 184.517 45.0352 184.335 44.9648C184.153 44.8944 183.988 44.783 183.841 44.6321C183.693 44.4813 183.599 44.275 183.56 44.0151C183.521 43.7551 183.554 43.4885 183.666 43.2485C183.778 43.0093 183.961 42.805 184.214 42.6363C184.466 42.4677 184.781 42.3553 185.156 42.2985C185.531 42.2416 185.916 42.2454 186.311 42.309C186.381 42.3202 186.432 42.3833 186.431 42.4543L186.429 42.4564Z" fill="#254441"/>
<path d="M190.237 42.6673L189.48 42.7391C189.48 42.7391 189.476 42.7397 189.474 42.74C189.391 42.7526 189.333 42.8296 189.344 42.9128L189.581 44.6892C189.581 44.6892 189.582 44.6944 189.583 44.6978L189.814 45.9197C189.831 46.0055 189.772 46.0879 189.686 46.101L188.727 46.2462C188.64 46.2595 188.559 46.1973 188.55 46.1103L188.435 45.0029C188.435 45.0029 188.434 44.996 188.434 44.9934L188.115 43.1008C188.1 43.0181 188.022 42.9617 187.939 42.9743C187.939 42.9743 187.935 42.9749 187.933 42.9752L187.073 43.1545C187.042 43.161 187.01 43.1527 186.985 43.1329L186.96 43.1131C186.937 43.0947 186.923 43.0679 186.921 43.0384L186.867 42.2646C186.861 42.1842 186.919 42.1133 186.999 42.1012L190.185 41.6184C190.219 41.6134 190.253 41.6248 190.277 41.6483L190.293 41.665C190.311 41.6834 190.321 41.7063 190.323 41.7322L190.377 42.5043C190.383 42.5874 190.321 42.6606 190.237 42.669L190.237 42.6673Z" fill="#254441"/>
<path d="M192.7 45.6429L191.641 45.8033C191.581 45.8124 191.526 45.77 191.52 45.7098L191.4 44.5506C191.4 44.5506 191.399 44.5463 191.399 44.5438L190.896 41.6178C190.887 41.5597 190.927 41.5047 190.985 41.4958L192.074 41.3309C192.133 41.3219 192.188 41.3635 192.195 41.4219L192.546 44.2404C192.546 44.2404 192.547 44.2447 192.547 44.2472L192.788 45.5193C192.8 45.5779 192.759 45.634 192.7 45.6429Z" fill="#254441"/>
<path d="M196.352 40.8976L196.297 41.8314C196.295 41.8623 196.279 41.8909 196.255 41.9095C196.226 41.9314 196.187 41.9364 196.153 41.9231C195.876 41.8172 195.573 41.7898 195.243 41.8397C194.937 41.8862 194.722 42.0053 194.601 42.1977C194.479 42.3894 194.447 42.6776 194.505 43.0624C194.634 43.9107 195.024 44.2854 195.678 44.1864C196.004 44.137 196.294 44.0361 196.549 43.8847C196.578 43.8672 196.613 43.8645 196.644 43.8773L196.654 43.8819C196.691 43.8981 196.716 43.9337 196.718 43.9745L196.758 44.8878C196.76 44.9312 196.736 44.9717 196.695 44.99C196.404 45.119 196.087 45.21 195.744 45.2619C195.012 45.3729 194.428 45.2688 193.994 44.9498C193.559 44.6308 193.288 44.1181 193.181 43.4118C193.074 42.7055 193.189 42.0994 193.532 41.645C193.875 41.1907 194.416 40.9084 195.154 40.7965C195.545 40.7373 195.914 40.7347 196.264 40.7893C196.318 40.7977 196.356 40.8463 196.352 40.9001L196.352 40.8976Z" fill="#254441"/>
<path d="M201.511 44.0768L201.511 44.1029C201.513 44.1473 201.486 44.1889 201.444 44.205C201.084 44.3469 200.702 44.4704 200.299 44.5753C200.279 44.58 200.258 44.5797 200.239 44.5739L200.131 44.5387C200.113 44.5334 200.097 44.5227 200.085 44.5097C199.571 43.9534 199.107 43.4306 198.693 42.9432C198.624 42.8635 198.494 42.9208 198.507 43.0255L198.546 43.332C198.546 43.332 198.547 43.3362 198.547 43.3388L198.788 44.6109C198.799 44.6695 198.759 44.7255 198.7 44.7345L197.64 44.895C197.58 44.9041 197.525 44.8617 197.519 44.8014L197.398 43.6423C197.398 43.6423 197.398 43.638 197.397 43.6354L196.895 40.7094C196.886 40.6514 196.925 40.5964 196.984 40.5875L198.073 40.4226C198.132 40.4136 198.186 40.4552 198.194 40.5136L198.37 41.9423C198.384 42.0462 198.523 42.0696 198.57 41.9769L199.2 40.7249C199.2 40.7249 199.204 40.7183 199.205 40.7146L199.368 40.2806C199.381 40.2454 199.413 40.2195 199.451 40.2129L200.565 40.0371C200.65 40.0242 200.715 40.1115 200.676 40.1883L199.663 42.2014C199.643 42.2412 199.65 42.2891 199.681 42.3219C200.199 42.8567 200.796 43.417 201.474 44.001C201.496 44.0204 201.51 44.048 201.511 44.0768Z" fill="#254441"/>
<path d="M205.047 42.8551L205.097 43.6672C205.1 43.7219 205.061 43.7697 205.007 43.7779L202.087 44.2203C202.027 44.2294 201.972 44.187 201.966 44.1268L201.845 42.9676C201.845 42.9676 201.845 42.9633 201.844 42.9607L201.342 40.0347C201.333 39.9767 201.373 39.9217 201.431 39.9128L204.442 39.4566C204.474 39.4518 204.505 39.4611 204.529 39.4829L204.55 39.5024C204.57 39.5211 204.583 39.5463 204.585 39.5741L204.632 40.3769C204.636 40.4332 204.595 40.4814 204.539 40.4882L203.508 40.605L202.852 40.7044C202.795 40.713 202.755 40.7653 202.762 40.822L202.819 41.2771C202.826 41.3363 202.881 41.377 202.94 41.3681L203.565 41.2734L204.247 41.1456C204.281 41.1396 204.317 41.1499 204.341 41.175L204.357 41.1901C204.375 41.2084 204.385 41.2322 204.387 41.2572L204.444 42.0709C204.448 42.1272 204.407 42.1762 204.351 42.183L203.63 42.2695L203.058 42.3631C203.002 42.3716 202.964 42.4238 202.97 42.4796L202.992 42.6565C202.992 42.6565 202.993 42.6617 202.993 42.6642L203.052 42.9658C203.063 43.021 203.115 43.0586 203.172 43.05L203.787 42.9569L204.907 42.7452C204.938 42.7396 204.97 42.747 204.994 42.767L205.01 42.7795C205.033 42.7978 205.046 42.8255 205.048 42.8549L205.047 42.8551Z" fill="#254441"/>
<path d="M209.639 42.8172L209.641 42.8502C209.642 42.8929 209.617 42.9325 209.579 42.9506C209.198 43.1255 208.829 43.2514 208.472 43.33C208.448 43.3353 208.423 43.3321 208.4 43.3207L208.258 43.2486C208.244 43.2412 208.231 43.2309 208.221 43.2184C207.937 42.845 207.672 42.4811 207.426 42.1273C207.404 42.094 207.364 42.0772 207.324 42.0834L206.936 42.1422C206.876 42.1511 206.836 42.208 206.847 42.2666L207.057 43.3581C207.068 43.4167 207.028 43.4736 206.968 43.4825L205.91 43.6429C205.85 43.6521 205.795 43.6096 205.788 43.5494L205.668 42.3902C205.668 42.3902 205.667 42.3859 205.667 42.3834L205.165 39.4565C205.155 39.3985 205.194 39.3436 205.253 39.3347L207.198 39.0321C207.703 38.9556 208.109 39.0113 208.417 39.1991C208.724 39.387 208.91 39.693 208.974 40.1171C209.013 40.3771 208.982 40.631 208.88 40.8775C208.79 41.0949 208.655 41.2921 208.473 41.4692C208.432 41.5095 208.428 41.5749 208.467 41.6171C208.776 41.9517 209.155 42.3272 209.606 42.7453C209.626 42.7641 209.639 42.791 209.64 42.8189L209.639 42.8172ZM207.42 40.0639C207.303 39.9958 207.13 39.9732 206.899 39.9958C206.894 39.9966 206.889 39.9974 206.884 39.9981L206.657 40.051C206.604 40.0633 206.569 40.1133 206.575 40.1674L206.696 41.1121C206.704 41.1687 206.754 41.2092 206.811 41.2032L207.261 41.1622C207.276 41.1607 207.293 41.1556 207.307 41.1474C207.575 40.9886 207.686 40.7558 207.639 40.4471C207.611 40.2607 207.538 40.1327 207.42 40.0639Z" fill="#254441"/>
<path d="M214.928 42.2753L213.758 42.4526C213.699 42.4616 213.643 42.4193 213.637 42.3599L213.472 40.8419C213.472 40.8419 213.471 40.8376 213.471 40.8359L213.396 40.3897C213.387 40.3334 213.334 40.295 213.278 40.3027L212.27 40.4396L211.394 40.5959C211.339 40.6061 211.301 40.6573 211.307 40.7132L211.347 41.022L211.645 42.6634C211.656 42.7221 211.616 42.7772 211.556 42.7862L210.386 42.9635C210.326 42.9726 210.271 42.9301 210.265 42.8699L210.108 41.3515C210.108 41.3515 210.107 41.3473 210.107 41.3447L209.465 37.6158C209.456 37.5578 209.496 37.5027 209.554 37.4939L210.754 37.312C210.813 37.3032 210.867 37.3439 210.875 37.4022L211.134 39.3697C211.142 39.4271 211.194 39.4681 211.252 39.4602L212.19 39.3416L213.088 39.1899C213.145 39.1803 213.184 39.1254 213.175 39.0683L212.838 37.1048C212.828 37.0468 212.868 36.9917 212.927 36.9829L214.118 36.8023C214.177 36.7935 214.231 36.8342 214.239 36.8925L214.711 40.5089C214.711 40.5089 214.711 40.5124 214.712 40.5149L215.017 42.1517C215.027 42.2104 214.987 42.2663 214.928 42.2753Z" fill="#00D81E"/>
<path d="M219.452 36.6311C219.944 37.0044 220.253 37.604 220.378 38.43C220.525 39.4023 220.394 40.1858 219.984 40.7797C219.575 41.3736 218.916 41.7393 218.008 41.877C217.486 41.9561 216.954 42.0208 216.152 42.0959C216.075 42.1032 216.006 42.0481 215.999 41.9705L215.845 40.4813C215.845 40.4813 215.845 40.4771 215.844 40.4745L215.203 36.7464C215.193 36.6876 215.233 36.6317 215.292 36.6227L215.404 36.6058L217.504 36.2526C218.31 36.1304 218.959 36.2561 219.452 36.6302L219.452 36.6311ZM218.989 38.979C218.891 38.3343 218.73 37.8871 218.507 37.6375C218.283 37.3881 217.968 37.2942 217.558 37.3562C217.295 37.3962 217.052 37.4416 216.83 37.4937C216.777 37.506 216.743 37.5567 216.75 37.6107L217.085 40.1527L217.194 40.773C217.203 40.8242 217.249 40.8618 217.301 40.86C217.605 40.8525 217.873 40.8311 218.106 40.7958C218.86 40.6815 219.155 40.0761 218.989 38.979Z" fill="#00D81E"/>
<path d="M177.973 43.5514C177.838 43.6961 177.846 43.9232 177.991 44.0586C178.136 44.1932 178.364 44.1849 178.5 44.0401C178.636 43.8954 178.628 43.6683 178.482 43.5328C178.337 43.3982 178.109 43.4065 177.973 43.5514Z" fill="#00D81E"/>
<path d="M179.942 43.6188C179.807 43.7635 179.815 43.9897 179.96 44.1243C180.105 44.2589 180.332 44.2507 180.467 44.106C180.603 43.9613 180.595 43.7351 180.45 43.6005C180.304 43.4659 180.077 43.474 179.942 43.6188Z" fill="#00D81E"/>
<path d="M178.179 41.9531C176.275 42.2415 175.333 44.2781 175.708 46.7485C175.957 48.3945 178.626 48.3776 181.185 47.7257C183.047 47.2511 182.874 45.8305 182.625 44.1845C182.375 42.5384 180.082 41.6647 178.179 41.9531ZM178.512 44.8723C177.274 44.8176 176.623 44.3065 177.053 43.4944C177.592 42.475 178.806 42.4967 179.75 42.6913C180.954 42.9393 181.853 43.892 181.435 44.4592C181.206 44.7694 180.017 44.9391 178.512 44.8733L178.512 44.8723Z" fill="#00D81E"/>
</g>
<g filter="url(#filter3_d_3040_3566)">
<path d="M279.105 31.1845C279.047 30.5644 279.504 30.0151 280.124 29.959L345.994 24.0107C346.613 23.9548 347.16 24.4111 347.216 25.0298L355.899 121.183C355.955 121.801 355.498 122.348 354.88 122.404L313.041 126.182C309.354 126.515 305.839 124.556 304.183 121.244L284.331 81.5395C283.926 80.7306 283.675 79.8537 283.591 78.9533L279.105 31.1845Z" fill="white"/>
<path d="M280.15 30.2391L346.019 24.2908C346.483 24.2489 346.894 24.5912 346.935 25.0552L355.619 121.208C355.66 121.672 355.318 122.082 354.854 122.124L313.016 125.902C309.444 126.225 306.038 124.327 304.434 121.119L284.582 81.4141C284.193 80.6363 283.952 79.7927 283.871 78.927L279.385 31.1583C279.342 30.6932 279.684 30.2811 280.15 30.2391Z" stroke="#BEBEBE" stroke-width="0.562416"/>
</g>
<g clip-path="url(#clip1_3040_3566)">
<path d="M301.751 39.3825L301.67 40.402C301.665 40.4677 301.62 40.5234 301.557 40.5437L301.522 40.5546C301.478 40.5683 301.432 40.5627 301.392 40.5409C301.194 40.4299 300.993 40.3454 300.792 40.2873C300.569 40.2233 300.385 40.1978 300.237 40.211C300.102 40.2231 300.001 40.2624 299.932 40.3299C299.864 40.3974 299.834 40.4762 299.842 40.5652C299.851 40.6736 299.914 40.7587 300.03 40.8195C300.145 40.8804 300.34 40.9527 300.613 41.0386C300.905 41.1217 301.151 41.208 301.349 41.2965C301.548 41.385 301.726 41.5194 301.881 41.6986C302.036 41.8778 302.126 42.1116 302.152 42.3999C302.178 42.6882 302.13 42.9626 302.007 43.2251C301.885 43.4876 301.674 43.7092 301.377 43.8908C301.079 44.0725 300.699 44.1834 300.237 44.2247C299.723 44.2706 299.213 44.2343 298.707 44.1156C298.63 44.0972 298.577 44.0248 298.583 43.9463L298.657 42.8182C298.66 42.7868 298.674 42.7583 298.697 42.7367L298.699 42.7365C298.755 42.6856 298.838 42.6821 298.901 42.7243C299.114 42.8671 299.343 42.9783 299.59 43.0587C299.876 43.1521 300.122 43.1896 300.328 43.1712C300.463 43.1592 300.569 43.1175 300.647 43.0462C300.725 42.9749 300.759 42.8909 300.751 42.7951C300.741 42.6868 300.679 42.6017 300.563 42.5408C300.448 42.4799 300.253 42.4076 299.98 42.3218C299.68 42.2325 299.431 42.1416 299.232 42.0502C299.033 41.9587 298.855 41.8225 298.7 41.6432C298.545 41.464 298.455 41.2264 298.428 40.9323C298.402 40.6382 298.458 40.3416 298.6 40.0803C298.742 39.8199 298.961 39.6034 299.256 39.4317C299.551 39.2601 299.911 39.1558 300.335 39.1179C300.76 39.08 301.191 39.1107 301.629 39.2091C301.707 39.2265 301.76 39.3008 301.754 39.3803L301.751 39.3825Z" fill="#254441"/>
<path d="M306.005 39.8805L305.152 39.9089C305.152 39.9089 305.147 39.9094 305.145 39.9096C305.051 39.918 304.981 40.0003 304.987 40.0943L305.131 42.1019C305.131 42.1019 305.132 42.1077 305.132 42.1116L305.308 43.4972C305.32 43.5946 305.249 43.6829 305.151 43.6916L304.067 43.7884C303.968 43.7973 303.881 43.7221 303.878 43.6239L303.825 42.3746C303.825 42.3746 303.824 42.3669 303.824 42.364L303.596 40.2204C303.586 40.1268 303.502 40.0582 303.408 40.0666C303.408 40.0666 303.403 40.067 303.401 40.0672L302.425 40.209C302.389 40.2141 302.354 40.2026 302.327 40.1787L302.301 40.1547C302.276 40.1325 302.263 40.1016 302.263 40.0684L302.255 39.1973C302.254 39.1067 302.324 39.0313 302.414 39.0232L306.019 38.7013C306.057 38.6979 306.095 38.7131 306.12 38.7411L306.137 38.761C306.156 38.7827 306.166 38.8091 306.166 38.8383L306.174 39.7075C306.174 39.8011 306.1 39.8789 306.005 39.8825L306.005 39.8805Z" fill="#254441"/>
<path d="M308.561 43.3859L307.363 43.4929C307.295 43.4989 307.237 43.4476 307.234 43.3796L307.179 42.072C307.179 42.072 307.178 42.0671 307.178 42.0642L306.816 38.7498C306.81 38.6841 306.858 38.6252 306.924 38.6193L308.156 38.5093C308.223 38.5033 308.281 38.5537 308.285 38.6197L308.485 41.8032C308.485 41.8032 308.486 41.808 308.486 41.8109L308.669 43.2534C308.678 43.3199 308.628 43.3799 308.561 43.3859Z" fill="#254441"/>
<path d="M312.982 38.3172L312.855 39.3601C312.852 39.3946 312.832 39.4256 312.803 39.4448C312.769 39.4673 312.725 39.4703 312.688 39.4531C312.385 39.3153 312.047 39.2636 311.674 39.2969C311.327 39.3279 311.078 39.4467 310.929 39.654C310.779 39.8605 310.724 40.1814 310.763 40.6167C310.848 41.5764 311.26 42.0233 311.999 41.9573C312.369 41.9244 312.701 41.8313 312.997 41.6791C313.031 41.6614 313.07 41.6609 313.103 41.6774L313.115 41.6832C313.156 41.7039 313.181 41.7455 313.18 41.7914L313.162 42.8179C313.162 42.8667 313.131 42.9104 313.085 42.9282C312.749 43.0527 312.387 43.1328 312 43.1674C311.171 43.2414 310.525 43.0846 310.059 42.6971C309.594 42.3096 309.325 41.7163 309.254 40.9172C309.183 40.1181 309.353 39.4467 309.769 38.961C310.185 38.4753 310.811 38.196 311.646 38.1214C312.088 38.082 312.502 38.1045 312.891 38.1897C312.951 38.2029 312.989 38.2599 312.982 38.3201L312.982 38.3172Z" fill="#254441"/>
<path d="M318.545 42.2355L318.544 42.2648C318.542 42.3147 318.51 42.3595 318.462 42.3746C318.049 42.509 317.612 42.6211 317.152 42.7109C317.13 42.7148 317.106 42.713 317.085 42.7052L316.966 42.6583C316.947 42.6512 316.93 42.6381 316.917 42.6227C316.38 41.9637 315.896 41.3458 315.464 40.7709C315.393 40.6768 315.243 40.7321 315.251 40.8504L315.273 41.1966C315.273 41.1966 315.274 41.2014 315.274 41.2043L315.457 42.6468C315.465 42.7133 315.416 42.7733 315.349 42.7793L314.15 42.8863C314.082 42.8924 314.024 42.8411 314.021 42.7731L313.966 41.4655C313.966 41.4655 313.965 41.4606 313.965 41.4577L313.603 38.1433C313.596 38.0776 313.645 38.0187 313.711 38.0128L314.943 37.9028C315.01 37.8968 315.068 37.9472 315.072 38.0131L315.172 39.6268C315.18 39.7442 315.335 39.78 315.393 39.6793L316.186 38.3193C316.186 38.3193 316.191 38.3121 316.192 38.3081L316.404 37.8327C316.421 37.7942 316.459 37.7674 316.502 37.7626L317.763 37.6422C317.859 37.6336 317.926 37.7359 317.877 37.8193L316.603 40.0061C316.578 40.0494 316.583 40.1035 316.615 40.1425C317.159 40.7776 317.789 41.4468 318.509 42.148C318.533 42.1713 318.546 42.2032 318.545 42.2355Z" fill="#254441"/>
<path d="M322.593 41.1105L322.593 42.0243C322.592 42.0858 322.546 42.1367 322.485 42.1422L319.181 42.4372C319.113 42.4433 319.055 42.3919 319.052 42.3239L318.997 41.0163C318.997 41.0163 318.996 41.0115 318.996 41.0086L318.634 37.6942C318.627 37.6285 318.676 37.5695 318.742 37.5636L322.149 37.2594C322.185 37.2562 322.219 37.2688 322.244 37.2948L322.267 37.3181C322.288 37.3406 322.301 37.3697 322.3 37.4009L322.299 38.3041C322.299 38.3675 322.249 38.4187 322.186 38.4224L321.022 38.4824L320.28 38.5487C320.216 38.5544 320.168 38.6104 320.172 38.6744L320.204 39.1883C320.208 39.2553 320.266 39.3047 320.333 39.2987L321.041 39.2355L321.813 39.1392C321.852 39.1348 321.892 39.1488 321.918 39.1787L321.934 39.1967C321.953 39.2185 321.963 39.2458 321.963 39.2741L321.971 40.19C321.972 40.2533 321.922 40.3055 321.859 40.3092L321.045 40.3566L320.397 40.4222C320.334 40.4278 320.287 40.4837 320.291 40.5467L320.303 40.7466C320.303 40.7466 320.304 40.7524 320.304 40.7553L320.349 41.0974C320.358 41.16 320.414 41.2057 320.478 41.2L321.173 41.1379L322.444 40.9777C322.478 40.9736 322.514 40.9841 322.539 41.0081L322.556 41.0232C322.581 41.0454 322.594 41.0773 322.594 41.1105L322.593 41.1105Z" fill="#254441"/>
<path d="M327.743 41.3833L327.743 41.4204C327.741 41.4684 327.711 41.5111 327.666 41.5287C327.227 41.6986 326.805 41.8143 326.399 41.8778C326.372 41.8822 326.344 41.8769 326.319 41.8625L326.166 41.7719C326.15 41.7626 326.136 41.7502 326.126 41.7355C325.833 41.2974 325.561 40.8712 325.31 40.4578C325.287 40.4189 325.244 40.3974 325.198 40.4014L324.759 40.4407C324.692 40.4466 324.643 40.5076 324.652 40.5741L324.811 41.8119C324.82 41.8784 324.771 41.9394 324.703 41.9454L323.506 42.0523C323.438 42.0584 323.379 42.0071 323.376 41.9391L323.321 40.6315C323.321 40.6315 323.321 40.6266 323.32 40.6237L322.959 37.3084C322.952 37.2427 323 37.1838 323.066 37.1779L325.267 36.9726C325.838 36.9215 326.29 37.0119 326.622 37.2436C326.953 37.4754 327.14 37.8311 327.183 38.311C327.209 38.6051 327.157 38.8876 327.026 39.1568C326.91 39.3944 326.745 39.6061 326.529 39.7921C326.48 39.8345 326.471 39.9075 326.512 39.9575C326.835 40.3538 327.234 40.8008 327.711 41.3005C327.732 41.3229 327.745 41.354 327.744 41.3853L327.743 41.3833ZM325.445 38.1444C325.319 38.0601 325.126 38.0227 324.866 38.0322C324.86 38.0328 324.854 38.0333 324.849 38.0338L324.59 38.0774C324.53 38.0876 324.487 38.1412 324.491 38.2023L324.561 39.2696C324.566 39.3335 324.62 39.3824 324.684 39.3796L325.191 39.3646C325.208 39.364 325.227 39.3593 325.243 39.3511C325.555 39.1916 325.695 38.9382 325.664 38.589C325.645 38.3781 325.572 38.2296 325.445 38.1444Z" fill="#254441"/>
<path d="M333.709 41.1398L332.385 41.258C332.318 41.264 332.259 41.2127 332.256 41.1457L332.175 39.4327C332.175 39.4327 332.175 39.4279 332.175 39.426L332.122 38.9207C332.115 38.8569 332.059 38.8103 331.995 38.815L330.856 38.8992L329.863 39.0141C329.8 39.0217 329.754 39.0765 329.758 39.1396L329.781 39.4885L330.002 41.3489C330.01 41.4154 329.962 41.4744 329.895 41.4804L328.571 41.5986C328.503 41.6047 328.444 41.5533 328.441 41.4854L328.369 39.7726C328.369 39.7726 328.369 39.7677 328.369 39.7648L327.906 35.5409C327.899 35.4752 327.948 35.4162 328.014 35.4103L329.372 35.2891C329.438 35.2832 329.496 35.3326 329.501 35.3984L329.656 37.6216C329.661 37.6865 329.717 37.7361 329.782 37.7313L330.842 37.6629L331.859 37.5546C331.924 37.5478 331.971 37.489 331.965 37.4242L331.722 35.2001C331.715 35.1344 331.764 35.0755 331.83 35.0696L333.178 34.9492C333.244 34.9433 333.302 34.9927 333.307 35.0586L333.587 39.1448C333.587 39.1448 333.587 39.1487 333.587 39.1516L333.817 41.0073C333.825 41.0739 333.776 41.1338 333.709 41.1398Z" fill="#00D81E"/>
<path d="M339.168 35.1244C339.694 35.5767 339.999 36.2701 340.083 37.2047C340.181 38.3046 339.98 39.1738 339.48 39.8114C338.98 40.4489 338.216 40.8135 337.189 40.9053C336.598 40.9581 335.998 40.9941 335.094 41.0231C335.007 41.026 334.934 40.9594 334.931 40.8719L334.861 39.1921C334.861 39.1921 334.861 39.1873 334.86 39.1844L334.398 34.9614C334.391 34.8947 334.44 34.8348 334.507 34.8288L334.633 34.8175L337.011 34.5661C337.924 34.4847 338.642 34.6702 339.168 35.1234L339.168 35.1244ZM338.488 37.7244C338.423 36.995 338.273 36.4827 338.04 36.1876C337.806 35.8925 337.459 35.7656 336.996 35.8069C336.698 35.8336 336.423 35.8679 336.17 35.9109C336.11 35.9211 336.068 35.9756 336.073 36.0366L336.273 38.909L336.353 39.6119C336.359 39.6698 336.408 39.7152 336.467 39.7167C336.808 39.7292 337.11 39.7237 337.373 39.7002C338.227 39.6239 338.599 38.9656 338.488 37.7244Z" fill="#00D81E"/>
<path d="M292.197 40.0272C292.036 40.1801 292.029 40.4352 292.183 40.597C292.336 40.7579 292.592 40.7643 292.755 40.6113C292.916 40.4584 292.923 40.2033 292.77 40.0415C292.616 39.8806 292.36 39.8742 292.197 40.0272Z" fill="#00D81E"/>
<path d="M294.4 40.2381C294.238 40.3911 294.232 40.6452 294.385 40.806C294.539 40.9669 294.794 40.9734 294.955 40.8205C295.117 40.6676 295.124 40.4134 294.97 40.2526C294.817 40.0917 294.562 40.0852 294.4 40.2381Z" fill="#00D81E"/>
<path d="M292.538 38.2496C290.385 38.4419 289.188 40.6599 289.438 43.4548C289.604 45.3171 292.598 45.4818 295.511 44.9272C297.631 44.5233 297.535 42.9191 297.368 41.0568C297.202 39.1945 294.692 38.0573 292.538 38.2496ZM292.711 41.5448C291.327 41.3982 290.633 40.7806 291.17 39.8998C291.845 38.7942 293.204 38.9021 294.248 39.1852C295.581 39.546 296.524 40.6758 296.016 41.2828C295.738 41.6148 294.394 41.7232 292.71 41.5458L292.711 41.5448Z" fill="#00D81E"/>
</g>
<path d="M284 79.5L307.225 95.8367C307.786 96.2316 307.862 97.0344 307.408 97.5491C300.873 104.96 301.311 111.034 304 120.25" stroke="#BEBEBE" stroke-width="0.5" stroke-linecap="round"/>
<rect x="289.278" y="55.0967" width="53" height="5.5" transform="rotate(-5.64137 289.278 55.0967)" fill="#D9D9D9"/>
<rect opacity="0.6" x="290.163" y="64.0527" width="22.5" height="5.5" transform="rotate(-5.64137 290.163 64.0527)" fill="#D9D9D9"/>
<rect opacity="0.6" x="291.048" y="73.0098" width="40.5" height="5.5" transform="rotate(-5.64137 291.048 73.0098)" fill="#D9D9D9"/>
<g filter="url(#filter4_d_3040_3566)">
<rect x="318.776" y="76" width="63.0106" height="43.4442" rx="1" transform="rotate(3.66405 318.776 76)" fill="url(#paint0_linear_3040_3566)"/>
<rect x="319.01" y="76.2655" width="62.5106" height="42.9442" rx="0.75" transform="rotate(3.66405 319.01 76.2655)" stroke="#BEBEBE" stroke-width="0.5"/>
</g>
<g clip-path="url(#clip2_3040_3566)">
<path d="M340.022 96.4881L339.851 97.2231C339.84 97.2706 339.802 97.3063 339.753 97.3142L339.727 97.3184C339.693 97.3236 339.66 97.3144 339.633 97.2941C339.501 97.1915 339.364 97.108 339.223 97.0436C339.067 96.9726 338.936 96.9339 338.826 96.9274C338.727 96.9214 338.648 96.939 338.591 96.9808C338.534 97.0226 338.503 97.0768 338.499 97.1426C338.495 97.2228 338.531 97.2917 338.609 97.3487C338.686 97.4058 338.82 97.4798 339.01 97.5722C339.214 97.6648 339.384 97.7546 339.52 97.8409C339.655 97.9272 339.77 98.0446 339.863 98.1923C339.957 98.3401 339.997 98.5205 339.985 98.7337C339.972 98.9469 339.907 99.1419 339.789 99.3201C339.671 99.4983 339.493 99.637 339.257 99.7371C339.019 99.8371 338.73 99.8766 338.388 99.8562C338.008 99.8336 337.64 99.7514 337.283 99.6095C337.229 99.5876 337.199 99.5291 337.212 99.4724L337.389 98.6574C337.394 98.6347 337.407 98.6154 337.427 98.6022L337.428 98.6023C337.475 98.5713 337.536 98.5778 337.577 98.6155C337.717 98.743 337.872 98.8491 338.043 98.9347C338.242 99.0341 338.417 99.0884 338.57 99.0974C338.669 99.1034 338.751 99.0846 338.816 99.041C338.88 98.9975 338.915 98.9399 338.919 98.8691C338.924 98.789 338.888 98.7201 338.81 98.663C338.732 98.606 338.598 98.532 338.408 98.4395C338.199 98.3417 338.028 98.2482 337.892 98.1597C337.757 98.0712 337.642 97.9524 337.549 97.8047C337.455 97.657 337.415 97.4736 337.428 97.2562C337.441 97.0387 337.514 96.8284 337.646 96.6532C337.778 96.4787 337.961 96.3446 338.196 96.2516C338.43 96.1585 338.704 96.1217 339.017 96.1404C339.331 96.1591 339.643 96.2286 339.952 96.3482C340.007 96.3694 340.037 96.4294 340.024 96.4868L340.022 96.4881Z" fill="#254441"/>
<path d="M343.071 97.3155L342.446 97.2431C342.446 97.2431 342.442 97.2429 342.441 97.2428C342.371 97.2386 342.311 97.2911 342.305 97.3604L342.191 98.8411C342.191 98.8411 342.191 98.8454 342.191 98.8483L342.167 99.8785C342.166 99.951 342.104 100.008 342.032 100.003L341.23 99.9555C341.157 99.9512 341.102 99.8869 341.11 99.8149L341.208 98.8974C341.208 98.8974 341.208 98.8917 341.209 98.8896L341.276 97.3005C341.279 97.2311 341.226 97.1719 341.156 97.1677C341.156 97.1677 341.152 97.1675 341.151 97.1674L340.423 97.1643C340.396 97.1642 340.372 97.1519 340.355 97.1315L340.338 97.1112C340.323 97.0923 340.316 97.0682 340.32 97.044L340.41 96.4075C340.419 96.3413 340.478 96.2938 340.545 96.2978L343.21 96.4566C343.238 96.4582 343.264 96.4734 343.279 96.4966L343.29 96.513C343.301 96.5309 343.306 96.5513 343.303 96.5726L343.213 97.2077C343.203 97.276 343.141 97.3247 343.071 97.317L343.071 97.3155Z" fill="#254441"/>
<path d="M344.554 100.152L343.668 100.1C343.618 100.097 343.581 100.053 343.586 100.003L343.689 99.0427C343.689 99.0427 343.689 99.0392 343.689 99.037L343.787 96.5789C343.789 96.5303 343.831 96.4925 343.88 96.4955L344.791 96.5497C344.841 96.5526 344.878 96.5958 344.873 96.6443L344.672 98.9893C344.672 98.9893 344.671 98.9929 344.671 98.995L344.647 100.068C344.646 100.117 344.604 100.155 344.554 100.152Z" fill="#254441"/>
<path d="M348.333 96.9373L348.127 97.6846C348.121 97.7093 348.103 97.7298 348.08 97.7406C348.052 97.7533 348.02 97.7507 347.995 97.7341C347.789 97.6005 347.548 97.5258 347.272 97.5094C347.015 97.4941 346.821 97.5536 346.689 97.6887C346.557 97.823 346.482 98.0511 346.463 98.373C346.42 99.0827 346.672 99.4538 347.219 99.4863C347.492 99.5026 347.745 99.4709 347.977 99.3922C348.004 99.383 348.032 99.3868 348.055 99.4026L348.063 99.408C348.09 99.4276 348.104 99.4608 348.099 99.4942L347.973 100.241C347.968 100.277 347.941 100.305 347.905 100.313C347.646 100.368 347.374 100.386 347.087 100.369C346.474 100.333 346.02 100.148 345.722 99.8143C345.425 99.4807 345.294 99.0185 345.329 98.4276C345.364 97.8366 345.562 97.3652 345.918 97.0562C346.275 96.7472 346.762 96.6118 347.38 96.6486C347.707 96.6681 348.007 96.7297 348.281 96.8343C348.323 96.8505 348.345 96.8963 348.333 96.9394L348.333 96.9373Z" fill="#254441"/>
<path d="M351.965 100.404L351.961 100.425C351.955 100.462 351.926 100.491 351.889 100.497C351.573 100.549 351.242 100.584 350.897 100.599C350.88 100.599 350.863 100.596 350.849 100.587L350.767 100.54C350.754 100.533 350.743 100.522 350.735 100.509C350.415 99.9693 350.129 99.4656 349.877 98.999C349.835 98.9226 349.72 98.9466 349.713 99.0337L349.691 99.2887C349.691 99.2887 349.691 99.2923 349.691 99.2944L349.666 100.367C349.666 100.417 349.623 100.455 349.573 100.452L348.687 100.399C348.637 100.396 348.6 100.352 348.605 100.302L348.707 99.3422C348.707 99.3422 348.708 99.3386 348.708 99.3364L348.806 96.8784C348.808 96.8297 348.85 96.792 348.899 96.7949L349.81 96.8491C349.859 96.852 349.896 96.8952 349.892 96.9437L349.789 98.1322C349.781 98.2187 349.891 98.2618 349.944 98.1946L350.672 97.2888C350.672 97.2888 350.675 97.284 350.677 97.2813L350.884 96.9576C350.9 96.9313 350.931 96.9159 350.963 96.917L351.896 96.9669C351.967 96.9711 352.005 97.053 351.96 97.1085L350.792 98.5653C350.768 98.594 350.766 98.6341 350.786 98.6661C351.113 99.1889 351.5 99.7461 351.948 100.336C351.963 100.356 351.97 100.381 351.965 100.404Z" fill="#254441"/>
<path d="M355.042 100.025L354.942 100.692C354.935 100.736 354.895 100.768 354.85 100.766L352.407 100.62C352.357 100.617 352.32 100.573 352.325 100.523L352.428 99.5633C352.428 99.5633 352.428 99.5597 352.428 99.5575L352.526 97.0995C352.528 97.0508 352.57 97.0131 352.619 97.016L355.138 97.166C355.165 97.1676 355.188 97.1805 355.204 97.2022L355.218 97.2217C355.231 97.2404 355.237 97.263 355.233 97.2858L355.133 97.9446C355.126 97.9909 355.085 98.0229 355.038 98.0187L354.182 97.9354L353.634 97.9027C353.586 97.8999 353.545 97.9355 353.541 97.9826L353.508 98.3612C353.504 98.4105 353.541 98.4529 353.591 98.4558L354.114 98.487L354.688 98.5011C354.717 98.5021 354.744 98.5166 354.76 98.5413L354.77 98.5562C354.781 98.5741 354.785 98.5952 354.783 98.6158L354.688 99.2851C354.682 99.3313 354.64 99.364 354.594 99.3598L353.994 99.3055L353.515 99.2827C353.468 99.2799 353.428 99.3155 353.424 99.362L353.41 99.5091C353.41 99.5091 353.41 99.5134 353.41 99.5155L353.406 99.7701C353.405 99.8167 353.441 99.8562 353.488 99.859L354.003 99.8897L354.947 99.9114C354.973 99.9123 354.998 99.9238 355.014 99.9441L355.024 99.957C355.04 99.9758 355.046 100.001 355.043 100.025L355.042 100.025Z" fill="#254441"/>
<path d="M358.771 100.787L358.766 100.814C358.76 100.848 358.733 100.876 358.699 100.884C358.36 100.96 358.039 100.999 357.736 101.001C357.716 101.001 357.696 100.994 357.679 100.981L357.577 100.898C357.567 100.889 357.558 100.879 357.552 100.867C357.386 100.515 357.234 100.175 357.096 99.8454C357.084 99.8145 357.054 99.7941 357.021 99.7921L356.696 99.7728C356.646 99.7698 356.604 99.8089 356.603 99.8584L356.584 100.779C356.583 100.829 356.541 100.868 356.491 100.865L355.605 100.812C355.555 100.809 355.518 100.765 355.523 100.715L355.626 99.755C355.626 99.755 355.626 99.7514 355.626 99.7493L355.724 97.2905C355.727 97.2418 355.768 97.204 355.817 97.2069L357.445 97.2975C357.868 97.3226 358.187 97.4378 358.404 97.6432C358.621 97.8485 358.719 98.1285 358.698 98.4834C358.685 98.7008 358.616 98.9014 358.49 99.0834C358.38 99.2441 358.236 99.3806 358.059 99.4928C358.018 99.5184 358.003 99.5706 358.028 99.6115C358.22 99.936 358.463 100.306 358.756 100.722C358.769 100.741 358.775 100.765 358.771 100.788L358.771 100.787ZM357.447 98.172C357.365 98.0967 357.228 98.0484 357.037 98.027C357.033 98.0267 357.029 98.0265 357.024 98.0262L356.831 98.0298C356.786 98.0307 356.749 98.0651 356.745 98.1101L356.68 98.8966C356.676 98.9438 356.71 98.9853 356.757 98.9903L357.129 99.0346C357.141 99.0361 357.156 99.0348 357.168 99.0306C357.413 98.9482 357.543 98.7786 357.558 98.5204C357.568 98.3644 357.531 98.2481 357.447 98.172Z" fill="#254441"/>
<path d="M363.151 101.26L362.172 101.202C362.122 101.199 362.084 101.155 362.089 101.106L362.218 99.847C362.218 99.847 362.218 99.8434 362.218 99.842L362.234 99.4675C362.237 99.4202 362.201 99.3801 362.153 99.3765L361.313 99.3136L360.576 99.2891C360.53 99.2877 360.49 99.3227 360.486 99.3691L360.465 99.6263L360.423 101.008C360.421 101.057 360.379 101.095 360.33 101.092L359.351 101.034C359.3 101.031 359.263 100.987 359.269 100.937L359.403 99.6794C359.403 99.6794 359.403 99.6758 359.404 99.6737L359.527 96.5409C359.53 96.4922 359.572 96.4545 359.62 96.4574L360.625 96.5172C360.673 96.5201 360.711 96.5625 360.707 96.6111L360.577 98.2503C360.573 98.2982 360.609 98.3405 360.657 98.3441L361.438 98.41L362.192 98.4419C362.24 98.4441 362.281 98.4063 362.283 98.3583L362.349 96.7089C362.351 96.6602 362.393 96.6225 362.442 96.6254L363.439 96.6848C363.488 96.6877 363.525 96.7301 363.521 96.7787L363.279 99.791C363.279 99.791 363.279 99.7939 363.279 99.796L363.244 101.175C363.242 101.225 363.2 101.263 363.151 101.26Z" fill="#00D81E"/>
<path d="M367.791 97.4666C368.126 97.8541 368.272 98.3934 368.231 99.0845C368.183 99.8978 367.941 100.51 367.507 100.921C367.072 101.331 366.475 101.514 365.715 101.469C365.278 101.443 364.837 101.404 364.174 101.326C364.11 101.319 364.064 101.262 364.071 101.198L364.204 99.9646C364.204 99.9646 364.204 99.961 364.204 99.9589L364.328 96.8268C364.33 96.7774 364.372 96.7389 364.422 96.7419L364.515 96.7474L366.278 96.8237C366.953 96.8639 367.457 97.0777 367.791 97.4659L367.791 97.4666ZM367.011 99.2896C367.043 98.7502 366.99 98.3601 366.852 98.1193C366.713 97.8784 366.474 97.7479 366.131 97.7275C365.911 97.7143 365.706 97.7093 365.517 97.7131C365.472 97.7141 365.436 97.7492 365.432 97.7942L365.265 99.9122L365.246 100.434C365.244 100.477 365.275 100.515 365.318 100.523C365.566 100.569 365.787 100.598 365.981 100.61C366.613 100.647 366.956 100.207 367.011 99.2896Z" fill="#00D81E"/>
<path d="M332.98 95.9155C332.845 96.0095 332.812 96.1949 332.907 96.3297C333.001 96.4639 333.187 96.4965 333.323 96.4026C333.457 96.3087 333.49 96.1232 333.396 95.9884C333.301 95.8543 333.115 95.8216 332.98 95.9155Z" fill="#00D81E"/>
<path d="M334.564 96.3101C334.429 96.404 334.397 96.5887 334.491 96.7228C334.585 96.857 334.771 96.8896 334.905 96.7956C335.04 96.7017 335.073 96.517 334.978 96.3828C334.884 96.2487 334.698 96.2161 334.564 96.3101Z" fill="#00D81E"/>
<path d="M333.423 94.6557C331.83 94.5609 330.715 96.0488 330.592 98.1156C330.51 99.4927 332.676 99.9397 334.863 99.8531C336.454 99.7899 336.559 98.6087 336.641 97.2316C336.723 95.8545 335.015 94.7506 333.423 94.6557ZM333.189 97.0792C332.195 96.8211 331.756 96.2946 332.244 95.7105C332.857 94.9774 333.837 95.2045 334.568 95.5252C335.501 95.9339 336.066 96.8614 335.629 97.2489C335.39 97.4608 334.397 97.3931 333.188 97.0799L333.189 97.0792Z" fill="#00D81E"/>
</g>
<g filter="url(#filter5_d_3040_3566)">
<rect x="415.108" y="38.0781" width="95" height="65.5" rx="1" transform="rotate(8.85571 415.108 38.0781)" fill="white"/>
<rect x="415.316" y="38.3636" width="94.5" height="65" rx="0.75" transform="rotate(8.85571 415.316 38.3636)" stroke="#BEBEBE" stroke-width="0.5"/>
</g>
<g filter="url(#filter6_d_3040_3566)">
<rect x="410" y="43.5" width="95" height="65" rx="1" fill="white"/>
<rect x="410.25" y="43.75" width="94.5" height="64.5" rx="0.75" stroke="#BEBEBE" stroke-width="0.5"/>
</g>
<rect x="414.899" y="48.3359" width="25.5" height="25.5" fill="white" stroke="#878787" stroke-width="0.5"/>
<rect x="416.899" y="50.0859" width="21.5" height="22" fill="white"/>
<path d="M429.038 57.7706C429.318 57.4702 429.788 57.454 430.088 57.7342C430.388 58.0145 430.405 58.485 430.125 58.7855C429.845 59.0859 429.375 59.1021 429.075 58.8219C428.775 58.5416 428.758 58.0712 429.038 57.7706Z" fill="#00D81E"/>
<path d="M424.964 57.6249C425.246 57.3242 425.718 57.3075 426.018 57.5878C426.319 57.8699 426.335 58.3422 426.056 58.6427C425.774 58.9434 425.302 58.96 425.002 58.6798C424.701 58.3978 424.684 57.9255 424.964 57.6249Z" fill="#00D81E"/>
<path fill-rule="evenodd" clip-rule="evenodd" d="M425.39 54.3013C429.328 53.7072 434.073 55.5306 434.589 58.9541C435.106 62.3776 435.464 65.3323 431.611 66.3137C426.317 67.6616 420.794 67.6887 420.277 64.2651C419.502 59.1272 421.451 54.8954 425.39 54.3013ZM428.64 55.8409C426.687 55.4333 424.176 55.3847 423.06 57.5029C422.172 59.1902 423.519 60.2549 426.08 60.3724L426.079 60.3744C429.194 60.5155 431.654 60.1664 432.128 59.522C432.993 58.3438 431.131 56.36 428.64 55.8409Z" fill="#00D81E"/>
<rect x="414.899" y="78.25" width="25.5" height="25.5" fill="white" stroke="#878787" stroke-width="0.5"/>
<rect x="416.899" y="80" width="21.5" height="22" fill="white"/>
<path d="M429.038 87.6847C429.318 87.3843 429.788 87.3681 430.088 87.6483C430.388 87.9286 430.405 88.399 430.125 88.6995C429.845 88.9999 429.375 89.0162 429.075 88.736C428.775 88.4557 428.758 87.9852 429.038 87.6847Z" fill="#00D81E"/>
<path d="M424.964 87.539C425.246 87.2382 425.718 87.2216 426.018 87.5019C426.319 87.784 426.335 88.2562 426.056 88.5568C425.774 88.8575 425.302 88.8741 425.002 88.5939C424.701 88.3118 424.684 87.8395 424.964 87.539Z" fill="#00D81E"/>
<path fill-rule="evenodd" clip-rule="evenodd" d="M425.39 84.2153C429.328 83.6213 434.073 85.4446 434.589 88.8682C435.106 92.2917 435.464 95.2463 431.611 96.2277C426.317 97.5757 420.794 97.6027 420.277 94.1792C419.502 89.0412 421.451 84.8094 425.39 84.2153ZM428.64 85.7549C426.687 85.3474 424.176 85.2988 423.06 87.417C422.172 89.1043 423.519 90.169 426.08 90.2865L426.079 90.2884C429.194 90.4296 431.654 90.0804 432.128 89.4361C432.993 88.2578 431.131 86.2741 428.64 85.7549Z" fill="#00D81E"/>
<rect x="444.75" y="48.3359" width="25.5" height="25.5" fill="white" stroke="#878787" stroke-width="0.5"/>
<rect x="446.75" y="50.0859" width="21.5" height="22" fill="white"/>
<path d="M458.889 57.7706C459.169 57.4702 459.638 57.454 459.939 57.7342C460.239 58.0145 460.255 58.485 459.975 58.7855C459.696 59.0859 459.226 59.1021 458.926 58.8219C458.625 58.5416 458.609 58.0712 458.889 57.7706Z" fill="#00D81E"/>
<path d="M454.815 57.6249C455.096 57.3242 455.568 57.3075 455.869 57.5878C456.169 57.8699 456.186 58.3422 455.906 58.6427C455.624 58.9434 455.153 58.96 454.852 58.6798C454.552 58.3978 454.535 57.9255 454.815 57.6249Z" fill="#00D81E"/>
<path fill-rule="evenodd" clip-rule="evenodd" d="M455.24 54.3013C459.179 53.7072 463.923 55.5306 464.44 58.9541C464.956 62.3776 465.315 65.3323 461.462 66.3137C456.167 67.6616 450.644 67.6887 450.128 64.2651C449.353 59.1272 451.302 54.8954 455.24 54.3013ZM458.49 55.8409C456.537 55.4333 454.027 55.3847 452.911 57.5029C452.022 59.1902 453.369 60.2549 455.931 60.3724L455.929 60.3744C459.045 60.5155 461.505 60.1664 461.978 59.522C462.843 58.3438 460.981 56.36 458.49 55.8409Z" fill="#00D81E"/>
<rect x="444.75" y="78.25" width="25.5" height="25.5" fill="white" stroke="#878787" stroke-width="0.5"/>
<rect x="446.75" y="80" width="21.5" height="22" fill="white"/>
<path d="M458.889 87.6847C459.169 87.3843 459.638 87.3681 459.939 87.6483C460.239 87.9286 460.255 88.399 459.975 88.6995C459.696 88.9999 459.226 89.0162 458.926 88.736C458.625 88.4557 458.609 87.9852 458.889 87.6847Z" fill="#00D81E"/>
<path d="M454.815 87.539C455.096 87.2382 455.568 87.2216 455.869 87.5019C456.169 87.784 456.186 88.2562 455.906 88.5568C455.624 88.8575 455.153 88.8741 454.852 88.5939C454.552 88.3118 454.535 87.8395 454.815 87.539Z" fill="#00D81E"/>
<path fill-rule="evenodd" clip-rule="evenodd" d="M455.24 84.2153C459.179 83.6213 463.923 85.4446 464.44 88.8682C464.956 92.2917 465.315 95.2463 461.462 96.2277C456.167 97.5757 450.644 97.6027 450.128 94.1792C449.353 89.0412 451.302 84.8094 455.24 84.2153ZM458.49 85.7549C456.537 85.3474 454.027 85.2988 452.911 87.417C452.022 89.1043 453.369 90.169 455.931 90.2865L455.929 90.2884C459.045 90.4296 461.505 90.0804 461.978 89.4361C462.843 88.2578 460.981 86.2741 458.49 85.7549Z" fill="#00D81E"/>
<rect x="474.25" y="48.3359" width="25.5" height="25.5" fill="white" stroke="#878787" stroke-width="0.5"/>
<rect x="476.25" y="50.0859" width="21.5" height="22" fill="white"/>
<path d="M488.389 57.7706C488.669 57.4702 489.138 57.454 489.439 57.7342C489.739 58.0145 489.755 58.485 489.475 58.7855C489.196 59.0859 488.726 59.1021 488.426 58.8219C488.125 58.5416 488.109 58.0712 488.389 57.7706Z" fill="#00D81E"/>
<path d="M484.315 57.6249C484.596 57.3242 485.068 57.3075 485.369 57.5878C485.669 57.8699 485.686 58.3422 485.406 58.6427C485.124 58.9434 484.653 58.96 484.352 58.6798C484.052 58.3978 484.035 57.9255 484.315 57.6249Z" fill="#00D81E"/>
<path fill-rule="evenodd" clip-rule="evenodd" d="M484.74 54.3013C488.679 53.7072 493.423 55.5306 493.94 58.9541C494.456 62.3776 494.815 65.3323 490.962 66.3137C485.667 67.6616 480.144 67.6887 479.628 64.2651C478.853 59.1272 480.802 54.8954 484.74 54.3013ZM487.99 55.8409C486.037 55.4333 483.527 55.3847 482.411 57.5029C481.522 59.1902 482.869 60.2549 485.431 60.3724L485.429 60.3744C488.545 60.5155 491.005 60.1664 491.478 59.522C492.343 58.3438 490.481 56.36 487.99 55.8409Z" fill="#00D81E"/>
<rect x="474.25" y="78.25" width="25.5" height="25.5" fill="white" stroke="#878787" stroke-width="0.5"/>
<rect x="476.25" y="80" width="21.5" height="22" fill="white"/>
<path d="M488.389 87.6847C488.669 87.3843 489.138 87.3681 489.439 87.6483C489.739 87.9286 489.755 88.399 489.475 88.6995C489.196 88.9999 488.726 89.0162 488.426 88.736C488.125 88.4557 488.109 87.9852 488.389 87.6847Z" fill="#00D81E"/>
<path d="M484.315 87.539C484.596 87.2382 485.068 87.2216 485.369 87.5019C485.669 87.784 485.686 88.2562 485.406 88.5568C485.124 88.8575 484.653 88.8741 484.352 88.5939C484.052 88.3118 484.035 87.8395 484.315 87.539Z" fill="#00D81E"/>
<path fill-rule="evenodd" clip-rule="evenodd" d="M484.74 84.2153C488.679 83.6213 493.423 85.4446 493.94 88.8682C494.456 92.2917 494.815 95.2463 490.962 96.2277C485.667 97.5757 480.144 97.6027 479.628 94.1792C478.853 89.0412 480.802 84.8094 484.74 84.2153ZM487.99 85.7549C486.037 85.3474 483.527 85.2988 482.411 87.417C481.522 89.1043 482.869 90.169 485.431 90.2865L485.429 90.2884C488.545 90.4296 491.005 90.0804 491.478 89.4361C492.343 88.2578 490.481 86.2741 487.99 85.7549Z" fill="#00D81E"/>
<g filter="url(#filter7_d_3040_3566)">
<rect x="545.253" y="37.0859" width="95" height="74" rx="1" transform="rotate(6.67693 545.253 37.0859)" fill="white"/>
<rect x="545.473" y="37.3633" width="94.5" height="73.5" rx="0.75" transform="rotate(6.67693 545.473 37.3633)" stroke="#BEBEBE" stroke-width="0.5"/>
</g>
<g filter="url(#filter8_d_3040_3566)">
<rect x="539.495" y="30.3701" width="95" height="74" rx="1" transform="rotate(6.67693 539.495 30.3701)" fill="white"/>
<rect x="539.714" y="30.6475" width="94.5" height="73.5" rx="0.75" transform="rotate(6.67693 539.714 30.6475)" stroke="#BEBEBE" stroke-width="0.5"/>
</g>
<path d="M561.632 82.7209L561.203 84.1932C561.175 84.2883 561.093 84.3564 560.995 84.367L560.94 84.3723C560.872 84.379 560.806 84.3566 560.754 84.3124C560.5 84.0889 560.233 83.9037 559.958 83.7571C559.652 83.5951 559.391 83.5015 559.172 83.4758C558.971 83.4523 558.811 83.4791 558.691 83.5574C558.571 83.6358 558.503 83.7422 558.487 83.8753C558.468 84.0374 558.533 84.1814 558.684 84.3062C558.833 84.4307 559.095 84.5963 559.466 84.8056C559.867 85.0168 560.199 85.2184 560.462 85.4091C560.725 85.5998 560.943 85.8512 561.114 86.1617C561.285 86.4722 561.346 86.843 561.295 87.2742C561.245 87.7055 561.091 88.0938 560.832 88.4419C560.574 88.7901 560.199 89.0514 559.711 89.2274C559.221 89.4033 558.633 89.4504 557.946 89.37C557.183 89.2806 556.45 89.0716 555.748 88.743C555.641 88.6924 555.587 88.5701 555.619 88.4565L556.072 86.8227C556.085 86.7772 556.114 86.7396 556.155 86.715L556.158 86.7154C556.255 86.6578 556.377 86.678 556.456 86.759C556.723 87.0339 557.024 87.267 557.358 87.4602C557.747 87.6847 558.095 87.8149 558.401 87.8507C558.601 87.8742 558.768 87.8453 558.904 87.7643C559.039 87.6834 559.115 87.5705 559.132 87.4273C559.151 87.2652 559.086 87.1212 558.935 86.9964C558.786 86.8719 558.524 86.7063 558.152 86.497C557.743 86.2745 557.407 86.0651 557.145 85.8701C556.882 85.6751 556.665 85.4208 556.494 85.1103C556.322 84.7998 556.263 84.4232 556.314 83.9833C556.366 83.5434 556.537 83.1249 556.824 82.7844C557.111 82.4454 557.496 82.1942 557.979 82.0321C558.461 81.8701 559.018 81.8267 559.649 81.9005C560.279 81.9743 560.899 82.151 561.507 82.429C561.615 82.4784 561.67 82.6035 561.637 82.7185L561.632 82.7209Z" fill="#254441"/>
<path d="M567.683 84.7491L566.43 84.5306C566.43 84.5306 566.423 84.5297 566.42 84.5294C566.28 84.513 566.153 84.6125 566.134 84.7525L565.731 87.7447C565.731 87.7447 565.73 87.7534 565.729 87.7592L565.562 89.8475C565.551 89.9944 565.42 90.1022 565.274 90.0852L563.664 89.8967C563.516 89.8794 563.414 89.7428 563.438 89.5974L563.743 87.7467C563.743 87.7467 563.744 87.7351 563.745 87.7308L564.067 84.5136C564.081 84.3729 563.98 84.2466 563.84 84.2303C563.84 84.2303 563.833 84.2294 563.83 84.2291L562.363 84.1395C562.309 84.1362 562.261 84.1085 562.23 84.0652L562.198 84.0219C562.169 83.9819 562.159 83.9323 562.169 83.8836L562.424 82.6021C562.45 82.4687 562.575 82.3791 562.709 82.3948L568.064 83.0217C568.12 83.0283 568.17 83.062 568.198 83.1108L568.217 83.1453C568.238 83.1829 568.245 83.2248 568.237 83.2678L567.982 84.5464C567.954 84.684 567.822 84.7756 567.683 84.752L567.683 84.7491Z" fill="#254441"/>
<path d="M570.34 90.6769L568.561 90.4687C568.46 90.4569 568.39 90.3636 568.406 90.2628L568.725 88.3258C568.725 88.3258 568.726 88.3185 568.727 88.3142L569.211 83.3367C569.222 83.2381 569.31 83.1664 569.408 83.1778L571.238 83.392C571.338 83.4037 571.407 83.4954 571.393 83.5935L570.713 88.3296C570.713 88.3296 570.712 88.3368 570.711 88.3412L570.537 90.5152C570.53 90.6156 570.439 90.6886 570.34 90.6769Z" fill="#254441"/>
<path d="M578.333 84.5821L577.831 86.0752C577.815 86.1247 577.776 86.1642 577.729 86.1836C577.672 86.2063 577.607 86.1972 577.559 86.1608C577.159 85.8661 576.681 85.6869 576.127 85.622C575.612 85.5617 575.213 85.6602 574.932 85.9193C574.651 86.1768 574.472 86.6311 574.395 87.2823C574.227 88.7177 574.692 89.4996 575.79 89.6282C576.338 89.6924 576.851 89.6571 577.329 89.5238C577.383 89.5082 577.441 89.5193 577.485 89.5538L577.5 89.5658C577.553 89.6087 577.577 89.6775 577.562 89.7447L577.222 91.2466C577.207 91.3181 577.149 91.373 577.076 91.385C576.549 91.4655 575.997 91.4728 575.421 91.4054C574.19 91.2613 573.295 90.8338 572.735 90.1228C572.174 89.4118 571.964 88.4586 572.104 87.2634C572.244 86.0681 572.697 85.134 573.452 84.5476C574.206 83.9611 575.205 83.7421 576.446 83.8874C577.102 83.9642 577.699 84.1236 578.24 84.3673C578.323 84.4049 578.362 84.5004 578.333 84.5865L578.333 84.5821Z" fill="#254441"/>
<path d="M585.25 92.0334L585.239 92.0762C585.221 92.149 585.161 92.2049 585.085 92.2122C584.442 92.2836 583.771 92.3151 583.073 92.3068C583.04 92.3058 583.006 92.2959 582.977 92.2779L582.818 92.1728C582.792 92.1565 582.772 92.1321 582.757 92.1055C582.175 90.9738 581.658 89.9187 581.204 88.943C581.129 88.7831 580.894 88.8187 580.869 88.9947L580.796 89.5098C580.796 89.5098 580.795 89.517 580.794 89.5214L580.62 91.6954C580.613 91.7958 580.522 91.8688 580.423 91.8571L578.642 91.6487C578.541 91.6369 578.472 91.5436 578.488 91.4429L578.807 89.5058C578.807 89.5058 578.808 89.4986 578.808 89.4942L579.293 84.5167C579.303 84.4181 579.392 84.3464 579.49 84.3579L581.32 84.572C581.419 84.5837 581.489 84.6755 581.474 84.7735L581.128 87.1738C581.103 87.3484 581.318 87.4484 581.434 87.3182L583.006 85.563C583.006 85.563 583.014 85.5537 583.018 85.5482L583.472 84.915C583.509 84.8635 583.572 84.8357 583.636 84.8417L585.511 85.0495C585.654 85.0663 585.72 85.2368 585.623 85.3443L583.099 88.1673C583.048 88.223 583.039 88.304 583.075 88.3713C583.673 89.4696 584.388 90.6447 585.223 91.894C585.251 91.9353 585.261 91.9864 585.25 92.0334Z" fill="#254441"/>
<path d="M591.496 91.616L591.216 92.9577C591.197 93.0478 591.114 93.1085 591.023 93.0978L586.116 92.5234C586.015 92.5115 585.945 92.4183 585.961 92.3175L586.28 90.3805C586.28 90.3805 586.281 90.3732 586.281 90.3689L586.766 85.3913C586.776 85.2928 586.865 85.221 586.963 85.2325L592.023 85.8249C592.077 85.8312 592.123 85.86 592.151 85.9059L592.177 85.9471C592.202 85.9866 592.211 86.0332 592.201 86.079L591.923 87.4047C591.904 87.4978 591.816 87.5579 591.723 87.5441L590.008 87.2773L588.905 87.1482C588.81 87.1371 588.723 87.2046 588.709 87.2998L588.599 88.0644C588.584 88.1639 588.654 88.2542 588.754 88.2659L589.804 88.3888L590.96 88.4831C591.018 88.4884 591.072 88.5211 591.101 88.5729L591.119 88.6043C591.139 88.6419 591.146 88.6852 591.138 88.7269L590.869 90.0742C590.851 90.1675 590.763 90.2291 590.67 90.2152L589.468 90.0364L588.504 89.9353C588.41 89.9243 588.325 89.992 588.311 90.0858L588.268 90.3828C588.268 90.3828 588.267 90.3915 588.266 90.3959L588.228 90.9121C588.221 91.0067 588.289 91.0909 588.384 91.102L589.417 91.2229L591.318 91.3751C591.37 91.3797 591.418 91.4059 591.448 91.449L591.469 91.4763C591.498 91.5164 591.508 91.5674 591.498 91.6161L591.496 91.616Z" fill="#254441"/>
<path d="M598.923 93.5872L598.91 93.6415C598.893 93.7114 598.836 93.7649 598.766 93.7772C598.073 93.8927 597.422 93.9338 596.811 93.9034C596.771 93.9015 596.732 93.8852 596.7 93.8566L596.503 93.6766C596.483 93.6581 596.467 93.6357 596.457 93.611C596.163 92.8785 595.897 92.1696 595.657 91.4857C595.635 91.4216 595.579 91.3769 595.511 91.3689L594.859 91.2926C594.759 91.2809 594.668 91.3554 594.661 91.4558L594.516 93.3222C594.508 93.4225 594.418 93.497 594.318 93.4854L592.539 93.2771C592.438 93.2653 592.369 93.172 592.385 93.0713L592.704 91.1342C592.704 91.1342 592.705 91.127 592.705 91.1226L593.19 86.1436C593.2 86.0451 593.287 85.9732 593.385 85.9846L596.658 86.3545C597.507 86.4539 598.137 86.7243 598.551 87.1658C598.963 87.6072 599.128 88.1868 599.044 88.9045C598.992 89.3444 598.83 89.7435 598.556 90.0986C598.314 90.4121 598.009 90.6727 597.638 90.8801C597.553 90.9274 597.518 91.0318 597.562 91.1176C597.912 91.7982 598.358 92.5765 598.9 93.4555C598.925 93.4951 598.933 93.5445 598.922 93.5901L598.923 93.5872ZM596.56 88.1297C596.402 87.9674 596.132 87.8536 595.75 87.7885C595.741 87.7874 595.733 87.7864 595.724 87.7854L595.334 87.7705C595.244 87.7673 595.164 87.8328 595.151 87.9236L594.928 89.5126C594.915 89.6079 594.978 89.696 595.073 89.7115L595.817 89.844C595.842 89.8485 595.872 89.8475 595.898 89.8403C596.401 89.7012 596.682 89.3718 596.743 88.8494C596.78 88.5339 596.719 88.2936 596.56 88.1297Z" fill="#254441"/>
<path d="M607.696 95.0495L605.729 94.8192C605.629 94.8076 605.558 94.7142 605.574 94.6148L605.98 92.0748C605.98 92.0748 605.981 92.0675 605.981 92.0646L606.058 91.3065C606.068 91.2108 606 91.1252 605.905 91.1126L604.219 90.8887L602.737 90.7548C602.642 90.7468 602.559 90.8132 602.545 90.9069L602.472 91.4265L602.226 94.2259C602.218 94.326 602.129 94.3978 602.029 94.3861L600.063 94.1559C599.962 94.1441 599.892 94.0509 599.908 93.9501L600.327 91.413C600.327 91.413 600.327 91.4057 600.328 91.4014L600.943 85.0574C600.953 84.9588 601.042 84.8871 601.14 84.8985L603.158 85.1347C603.256 85.1462 603.326 85.2365 603.313 85.3347L602.859 88.6466C602.846 88.7434 602.913 88.8334 603.01 88.8462L604.577 89.0692L606.092 89.2201C606.189 89.23 606.276 89.1581 606.286 89.061L606.611 85.7209C606.621 85.6223 606.71 85.5505 606.808 85.562L608.811 85.7965C608.909 85.808 608.979 85.8983 608.966 85.9965L608.126 92.0825C608.126 92.0825 608.126 92.0883 608.125 92.0927L607.893 94.8877C607.884 94.9879 607.795 95.0611 607.696 95.0495Z" fill="#00D81E"/>
<path d="M617.492 87.8809C618.121 88.7056 618.354 89.8168 618.19 91.2147C617.997 92.8599 617.44 94.0752 616.516 94.8589C615.592 95.6426 614.367 95.9452 612.841 95.7665C611.963 95.6638 611.077 95.5337 609.75 95.3006C609.623 95.2783 609.536 95.1581 609.558 95.0287L609.97 92.5407C609.97 92.5407 609.97 92.5334 609.971 92.5291L610.586 86.1865C610.596 86.0865 610.685 86.0133 610.785 86.0249L610.973 86.0469L614.517 86.4032C615.872 86.5618 616.863 87.0534 617.492 87.8795L617.492 87.8809ZM615.706 91.4916C615.834 90.4005 615.772 89.6027 615.523 89.0982C615.272 88.5935 614.804 88.3012 614.116 88.2206C613.673 88.1687 613.261 88.1352 612.88 88.1214C612.79 88.1181 612.711 88.1853 612.699 88.2763L612.115 92.5556L612.016 93.612C612.008 93.699 612.065 93.7805 612.151 93.8008C612.644 93.9231 613.086 94.0071 613.477 94.0529C614.745 94.2013 615.489 93.3481 615.706 91.4916Z" fill="#00D81E"/>
<path d="M547.505 80.7538C547.222 80.929 547.135 81.3016 547.309 81.5861C547.484 81.8691 547.855 81.9566 548.139 81.7815C548.422 81.6063 548.509 81.2337 548.335 80.9492C548.16 80.6662 547.789 80.5787 547.505 80.7538Z" fill="#00D81E"/>
<path d="M550.652 81.7352C550.369 81.9105 550.282 82.2816 550.457 82.5646C550.631 82.8476 551.001 82.935 551.284 82.7597C551.566 82.5845 551.653 82.2133 551.479 81.9303C551.304 81.6473 550.934 81.56 550.652 81.7352Z" fill="#00D81E"/>
<path d="M548.544 78.2468C545.345 77.8724 542.924 80.7647 542.434 84.9452C542.108 87.7307 546.423 88.8856 550.84 88.9597C554.055 89.0133 554.404 86.628 554.73 83.8425C555.056 81.0569 551.743 78.6213 548.544 78.2468ZM547.79 83.1386C545.817 82.5013 544.993 81.3824 546.045 80.2529C547.367 78.8351 549.315 79.4079 550.752 80.1423C552.585 81.0786 553.615 83.0254 552.689 83.7619C552.182 84.1647 550.189 83.9137 547.789 83.1399L547.79 83.1386Z" fill="#00D81E"/>
<path d="M548.903 75.1791C551.091 75.4352 553.291 76.377 554.953 77.7821C555.467 78.2169 555.973 78.7368 556.413 79.3328C556.604 79.2463 556.799 79.1696 556.996 79.1034C558.005 78.7645 559.036 78.718 560.007 78.8317C560.74 78.9174 561.451 79.0938 562.136 79.3486C562.438 79.2988 562.751 79.2896 563.068 79.3266L568.422 79.9534C568.649 79.98 568.869 80.0314 569.08 80.102C569.304 80.0811 569.534 80.0824 569.768 80.1097L571.597 80.3239C572.29 80.4049 572.903 80.6965 573.385 81.1253C574.496 80.7485 575.671 80.686 576.805 80.8187C577.529 80.9035 578.238 81.0649 578.922 81.3138C579.221 81.2633 579.532 81.2528 579.849 81.2899L581.679 81.5041C582.089 81.5521 582.471 81.6743 582.814 81.8544C583.177 81.7626 583.553 81.7308 583.925 81.7658L583.95 81.7688L583.976 81.7712L585.851 81.9792L585.871 81.9814C586.133 82.0121 586.381 82.074 586.615 82.159C586.845 82.1362 587.082 82.1366 587.322 82.1647L592.382 82.7571C592.61 82.7837 592.833 82.8356 593.049 82.9086C593.271 82.8876 593.499 82.8893 593.732 82.9157L597.005 83.2849L597.017 83.2863C597.416 83.333 597.83 83.4102 598.243 83.5294C598.856 82.3901 600.119 81.6691 601.499 81.8306L603.516 82.0667C604.196 82.1463 604.799 82.4279 605.276 82.8424C605.835 82.5491 606.487 82.4145 607.167 82.4941L609.17 82.7286C609.513 82.7687 609.836 82.8605 610.133 82.9943C610.455 82.9313 610.795 82.9158 611.144 82.9567L611.318 82.977L614.826 83.3294L614.877 83.3353C616.79 83.5593 618.667 84.323 619.95 86.0079L620.704 86.9999L620.678 87.2234C621.311 88.5993 621.428 90.1148 621.257 91.5726C621.008 93.7039 620.225 95.7616 618.513 97.2131C616.771 98.6906 614.616 99.0828 612.482 98.8329C611.532 98.7218 610.586 98.5819 609.216 98.3413C608.918 98.289 608.636 98.1968 608.373 98.0725C608.041 98.1402 607.693 98.1582 607.336 98.1164L605.369 97.8862C604.682 97.8056 604.069 97.5162 603.587 97.0897C603.019 97.3933 602.357 97.5335 601.67 97.4531L599.703 97.2229C599.322 97.1782 598.967 97.0697 598.644 96.9118C597.979 96.9912 597.32 97.0185 596.671 96.987L596.672 96.9876C596.087 96.9612 595.543 96.7792 595.08 96.488C594.723 96.5715 594.345 96.5968 593.959 96.5517L592.18 96.3434C591.917 96.3125 591.666 96.251 591.429 96.1644C591.181 96.1935 590.925 96.1952 590.664 96.1647L585.756 95.5901C585.424 95.5512 585.112 95.4631 584.823 95.337C584.238 95.3824 583.642 95.4011 583.037 95.3938L583.009 95.3937L582.982 95.3929C582.426 95.3765 581.85 95.2167 581.331 94.89L581.302 94.8714L581.257 94.8418C580.876 94.94 580.473 94.9717 580.064 94.9238L578.283 94.7153C577.951 94.6764 577.638 94.5883 577.35 94.4621C576.592 94.5607 575.826 94.5607 575.062 94.4712C573.956 94.3417 572.833 94.023 571.845 93.406C571.286 93.6914 570.642 93.8207 569.981 93.7435L568.202 93.5352C567.601 93.4649 567.065 93.2377 566.621 92.9037C566.102 93.1267 565.519 93.2223 564.915 93.1516L563.304 92.963C562.486 92.8672 561.774 92.4839 561.253 91.9279C561.089 92.0035 560.924 92.0719 560.758 92.1317L560.754 92.1331C559.691 92.5144 558.596 92.554 557.587 92.4359C556.492 92.3077 555.438 92.0065 554.438 91.5383L554.431 91.5351L554.424 91.5318C554.311 91.4784 554.204 91.4187 554.1 91.3548C553.131 91.8438 552.077 92.0403 551.01 92.0479L550.788 92.0469C548.403 92.0068 545.789 91.6803 543.696 90.8297C542.647 90.4037 541.507 89.7571 540.64 88.7412C539.698 87.637 539.178 86.1995 539.367 84.5859C539.666 82.0331 540.579 79.6184 542.166 77.835C543.809 75.988 546.171 74.8594 548.903 75.1791Z" stroke="#878787" stroke-width="0.5"/>
<path d="M553.491 47.3379C553.042 47.6621 552.94 48.2911 553.264 48.7429C553.588 49.1922 554.216 49.2938 554.667 48.9696C555.116 48.6454 555.218 48.0164 554.894 47.5647C554.57 47.1153 553.942 47.0138 553.491 47.3379Z" fill="#00D81E"/>
<path d="M558.841 48.5977C558.392 48.9219 558.291 49.5485 558.614 49.9978C558.938 50.4471 559.564 50.5486 560.013 50.2243C560.462 49.9001 560.563 49.2736 560.239 48.8242C559.915 48.3749 559.29 48.2735 558.841 48.5977Z" fill="#00D81E"/>
<path d="M554.923 43.0528C549.558 42.8078 545.873 47.8953 545.553 54.8942C545.34 59.5577 552.652 60.9671 560.008 60.57C565.361 60.2804 565.66 56.2787 565.873 51.6152C566.086 46.9517 560.288 43.2979 554.923 43.0528ZM554.247 51.2638C550.89 50.438 549.387 48.6773 551.004 46.6779C553.034 44.1682 556.343 44.8899 558.819 45.9401C561.978 47.2788 563.921 50.3899 562.469 51.7219C561.674 52.4503 558.329 52.2684 554.245 51.2662L554.247 51.2638Z" fill="#00D81E"/>
<path d="M554.79 41.3175C557.974 41.4629 561.284 42.6188 563.772 44.4337C566.258 46.2467 567.96 48.7481 567.831 51.5892C567.707 54.3017 567.558 56.89 566.632 58.838C566.164 59.8207 565.495 60.6472 564.532 61.2476C563.571 61.8466 562.332 62.2109 560.737 62.2972C556.423 62.5301 552.101 62.2346 548.878 61.1856C547.267 60.6611 545.911 59.9422 544.972 58.9894C544.026 58.0299 543.508 56.8381 543.574 55.4004C543.763 51.2713 544.945 47.6845 546.891 45.1603C548.842 42.6308 551.562 41.1701 554.79 41.3175Z" stroke="#878787" stroke-width="0.5"/>
<path d="M581.797 50.6504C581.348 50.9746 581.247 51.6036 581.571 52.0554C581.894 52.5047 582.523 52.6063 582.974 52.2821C583.423 51.9579 583.524 51.3289 583.201 50.8772C582.877 50.4278 582.249 50.3263 581.797 50.6504Z" fill="#00D81E"/>
<path d="M587.147 51.9102C586.699 52.2344 586.597 52.861 586.921 53.3103C587.245 53.7596 587.871 53.8611 588.319 53.5368C588.768 53.2126 588.87 52.5861 588.546 52.1367C588.222 51.6874 587.596 51.586 587.147 51.9102Z" fill="#00D81E"/>
<path d="M583.23 46.3653C577.865 46.1203 574.179 51.2078 573.86 58.2067C573.647 62.8702 580.959 64.2796 588.315 63.8825C593.668 63.5929 593.967 59.5912 594.18 54.9277C594.393 50.2642 588.594 46.6104 583.23 46.3653ZM582.554 54.5763C579.197 53.7505 577.694 51.9898 579.31 49.9904C581.341 47.4807 584.649 48.2024 587.126 49.2526C590.285 50.5913 592.228 53.7024 590.775 55.0344C589.981 55.7628 586.635 55.5809 582.551 54.5787L582.554 54.5763Z" fill="#00D81E"/>
<path d="M583.096 44.63C586.28 44.7754 589.59 45.9313 592.079 47.7462C594.564 49.5592 596.267 52.0606 596.137 54.9017C596.013 57.6142 595.865 60.2025 594.938 62.1505C594.471 63.1332 593.802 63.9597 592.839 64.5601C591.877 65.1591 590.638 65.5234 589.044 65.6097C584.729 65.8426 580.407 65.5471 577.185 64.4981C575.573 63.9736 574.218 63.2547 573.279 62.3019C572.333 61.3424 571.815 60.1506 571.881 58.7129C572.069 54.5838 573.251 50.997 575.198 48.4728C577.149 45.9433 579.868 44.4826 583.096 44.63Z" stroke="#878787" stroke-width="0.5"/>
<path d="M614.181 48.1747C620.078 48.865 624.299 54.2049 623.609 60.1017C622.918 65.9985 617.578 70.2192 611.682 69.5289C605.785 68.8386 601.564 63.4987 602.254 57.6019C602.945 51.7051 608.285 47.4844 614.181 48.1747ZM619.826 58.0808C619.979 54.7311 615.814 52.1065 611.96 51.9302C608.107 51.7542 605.459 55.4085 605.229 60.4358C605.076 63.7856 610.329 64.7987 615.613 64.5135C619.457 64.3053 619.673 61.4304 619.826 58.0808ZM609.144 54.5345C610.603 52.7318 612.98 53.2497 614.759 54.004C617.028 54.9657 618.423 57.2005 617.379 58.1572C616.808 58.6802 614.405 58.5493 611.472 57.8295L611.474 57.8287C609.063 57.2356 607.983 55.9705 609.144 54.5345ZM615.779 56.0751C615.546 55.7525 615.097 55.6797 614.774 55.9123C614.452 56.1451 614.379 56.595 614.611 56.9178C614.844 57.2404 615.293 57.3134 615.616 57.0806C615.938 56.8477 616.011 56.3978 615.779 56.0751ZM611.939 55.1714C611.706 54.8486 611.255 54.7753 610.93 55.0081C610.608 55.241 610.535 55.6931 610.768 56.0175C611.001 56.3401 611.452 56.4126 611.776 56.1798C612.098 55.9469 612.171 55.4957 611.939 55.1714Z" fill="#254441"/>
<circle cx="612.932" cy="58.852" r="12.5" transform="rotate(6.67693 612.932 58.852)" stroke="#878787" stroke-width="0.5"/>
<g filter="url(#filter9_d_3040_3566)">
<ellipse cx="720.577" cy="77.7495" rx="18.25" ry="12.75" transform="rotate(-7.41931 720.577 77.7495)" fill="white"/>
<path fill-rule="evenodd" clip-rule="evenodd" d="M714.753 58.5915C721.987 57.6495 729.876 58.92 736.259 62.043C742.595 65.143 748.115 70.4505 749.086 77.9053C749.79 83.3177 750.576 89.4251 749.161 94.5599C748.411 97.2804 747.031 99.829 744.707 101.919C742.412 103.984 739.426 105.395 735.777 106.246C726.832 108.332 717.396 109.391 709.81 108.325C706.015 107.792 702.373 106.686 699.482 104.633C696.469 102.493 694.404 99.4038 693.883 95.4008C692.704 86.3536 693.852 77.8222 697.333 71.1644C700.865 64.4089 706.815 59.6251 714.753 58.5915ZM715.269 62.558C707.397 63.5832 701.846 69.0642 699.196 77L729.353 63.6701C725.039 62.4292 720.328 61.9933 715.878 62.4847L715.269 62.558Z" fill="white" stroke="#BEBEBE" stroke-width="0.5"/>
<path d="M713.654 73.4254C712.717 74.392 712.741 75.9412 713.707 76.8859C714.673 77.8247 716.22 77.8016 717.164 76.8342C718.101 75.8676 718.078 74.3184 717.111 73.3738C716.145 72.435 714.598 72.4581 713.654 73.4254Z" fill="#00D81E"/>
<path d="M727 74.1735C726.062 75.1401 726.085 76.6834 727.051 77.6222C728.017 78.561 729.558 78.5387 730.496 77.5721C731.433 76.6055 731.41 75.0622 730.445 74.1234C729.479 73.1846 727.937 73.2069 727 74.1735Z" fill="#00D81E"/>
<path d="M715.269 62.5575C702.318 64.2439 695.649 77.9883 697.849 94.8835C699.315 106.141 717.422 106.418 734.869 102.35C747.564 99.3883 746.585 89.679 745.119 78.4214C743.653 67.1638 728.22 60.8711 715.269 62.5575ZM717.13 82.5062C708.741 81.9512 704.396 78.3718 707.42 72.899C711.218 66.0289 719.447 66.355 725.822 67.8205C733.954 69.6876 739.926 76.3143 737.011 80.1195C735.417 82.2005 727.329 83.1823 717.125 82.5128L717.13 82.5062Z" fill="#00D81E"/>
</g>
<g filter="url(#filter10_d_3040_3566)">
<ellipse cx="702.146" cy="59.5103" rx="19.9066" ry="13.9074" transform="rotate(-4.06162 702.146 59.5103)" fill="white"/>
<path d="M697.027 38.2767C704.965 37.7131 713.474 39.6008 720.225 43.4092C726.926 47.1895 732.598 53.3215 733.179 61.5011C733.6 67.4397 734.065 74.1402 732.196 79.6411C731.206 82.5556 729.541 85.2427 726.877 87.3703C724.246 89.4714 720.904 90.8171 716.877 91.5108C707.003 93.2106 696.66 93.7613 688.468 92.1164C684.369 91.2934 680.475 89.8565 677.458 87.4367C674.314 84.9139 672.262 81.4175 671.95 77.0252C671.245 67.0985 673.04 57.882 677.256 50.8547C681.534 43.7243 688.318 38.8952 697.027 38.2767Z" fill="white" stroke="#BEBEBE" stroke-width="0.5"/>
<path d="M694.884 54.3602C693.802 55.3528 693.729 57.0412 694.721 58.1316C695.712 59.2156 697.399 59.2893 698.488 58.2962C699.57 57.3036 699.644 55.6151 698.652 54.5248C697.66 53.4408 695.973 53.3671 694.884 54.3602Z" fill="#00D81E"/>
<path d="M709.368 56.0272C708.285 57.0198 708.211 58.7018 709.203 59.7858C710.195 60.8697 711.875 60.9439 712.958 59.9513C714.04 58.9586 714.114 57.2766 713.122 56.1927C712.131 55.1087 710.45 55.0345 709.368 56.0272Z" fill="#00D81E"/>
<path d="M697.337 42.629C683.127 43.638 674.986 58.1782 676.303 76.716C677.18 89.0681 696.879 90.5263 716.137 87.2112C730.15 84.7974 729.704 74.1624 728.827 61.8102C727.95 49.4581 711.546 41.62 697.337 42.629ZM698.089 64.4701C688.989 63.3299 684.487 59.1546 688.129 53.3885C692.704 46.1503 701.643 47.031 708.491 49.0341C717.227 51.5867 723.307 59.1841 719.89 63.1413C718.021 65.3055 709.151 65.8579 698.083 64.477L698.089 64.4701Z" fill="#00D81E"/>
</g>
<defs>
<filter id="filter0_i_3040_3566" x="44.7007" y="22.5811" width="30.2378" height="31.5088" filterUnits="userSpaceOnUse" color-interpolation-filters="sRGB">
<feFlood flood-opacity="0" result="BackgroundImageFix"/>
<feBlend mode="normal" in="SourceGraphic" in2="BackgroundImageFix" result="shape"/>
<feColorMatrix in="SourceAlpha" type="matrix" values="0 0 0 0 0 0 0 0 0 0 0 0 0 0 0 0 0 0 127 0" result="hardAlpha"/>
<feOffset dy="-1.06856"/>
<feComposite in2="hardAlpha" operator="arithmetic" k2="-1" k3="1"/>
<feColorMatrix type="matrix" values="0 0 0 0 0.863469 0 0 0 0 0.863469 0 0 0 0 0.863469 0 0 0 1 0"/>
<feBlend mode="normal" in2="shape" result="effect1_innerShadow_3040_3566"/>
</filter>
<filter id="filter1_i_3040_3566" x="60.9277" y="47.2051" width="8.29834" height="12.2227" filterUnits="userSpaceOnUse" color-interpolation-filters="sRGB">
<feFlood flood-opacity="0" result="BackgroundImageFix"/>
<feBlend mode="normal" in="SourceGraphic" in2="BackgroundImageFix" result="shape"/>
<feColorMatrix in="SourceAlpha" type="matrix" values="0 0 0 0 0 0 0 0 0 0 0 0 0 0 0 0 0 0 127 0" result="hardAlpha"/>
<feOffset dy="1.06856"/>
<feComposite in2="hardAlpha" operator="arithmetic" k2="-1" k3="1"/>
<feColorMatrix type="matrix" values="0 0 0 0 0.555101 0 0 0 0 0.555101 0 0 0 0 0.555101 0 0 0 0.25 0"/>
<feBlend mode="normal" in2="shape" result="effect1_innerShadow_3040_3566"/>
</filter>
<filter id="filter2_di_3040_3566" x="165.482" y="46.5654" width="78.1914" height="82.3848" filterUnits="userSpaceOnUse" color-interpolation-filters="sRGB">
<feFlood flood-opacity="0" result="BackgroundImageFix"/>
<feColorMatrix in="SourceAlpha" type="matrix" values="0 0 0 0 0 0 0 0 0 0 0 0 0 0 0 0 0 0 127 0" result="hardAlpha"/>
<feOffset dy="2.37647"/>
<feGaussianBlur stdDeviation="1.18824"/>
<feComposite in2="hardAlpha" operator="out"/>
<feColorMatrix type="matrix" values="0 0 0 0 0 0 0 0 0 0 0 0 0 0 0 0 0 0 0.25 0"/>
<feBlend mode="normal" in2="BackgroundImageFix" result="effect1_dropShadow_3040_3566"/>
<feBlend mode="normal" in="SourceGraphic" in2="effect1_dropShadow_3040_3566" result="shape"/>
<feColorMatrix in="SourceAlpha" type="matrix" values="0 0 0 0 0 0 0 0 0 0 0 0 0 0 0 0 0 0 127 0" result="hardAlpha"/>
<feOffset/>
<feGaussianBlur stdDeviation="1.18824"/>
<feComposite in2="hardAlpha" operator="arithmetic" k2="-1" k3="1"/>
<feColorMatrix type="matrix" values="0 0 0 0 0 0 0 0 0 0 0 0 0 0 0 0 0 0 0.25 0"/>
<feBlend mode="normal" in2="shape" result="effect2_innerShadow_3040_3566"/>
</filter>
<filter id="filter3_d_3040_3566" x="276.851" y="24.0059" width="81.3021" height="106.712" filterUnits="userSpaceOnUse" color-interpolation-filters="sRGB">
<feFlood flood-opacity="0" result="BackgroundImageFix"/>
<feColorMatrix in="SourceAlpha" type="matrix" values="0 0 0 0 0 0 0 0 0 0 0 0 0 0 0 0 0 0 127 0" result="hardAlpha"/>
<feOffset dy="2.24966"/>
<feGaussianBlur stdDeviation="1.12483"/>
<feComposite in2="hardAlpha" operator="out"/>
<feColorMatrix type="matrix" values="0 0 0 0 0 0 0 0 0 0 0 0 0 0 0 0 0 0 0.25 0"/>
<feBlend mode="normal" in2="BackgroundImageFix" result="effect1_dropShadow_3040_3566"/>
<feBlend mode="normal" in="SourceGraphic" in2="effect1_dropShadow_3040_3566" result="shape"/>
</filter>
<filter id="filter4_d_3040_3566" x="314.062" y="76.0615" width="69.5342" height="51.2588" filterUnits="userSpaceOnUse" color-interpolation-filters="sRGB">
<feFlood flood-opacity="0" result="BackgroundImageFix"/>
<feColorMatrix in="SourceAlpha" type="matrix" values="0 0 0 0 0 0 0 0 0 0 0 0 0 0 0 0 0 0 127 0" result="hardAlpha"/>
<feOffset dy="2"/>
<feGaussianBlur stdDeviation="1"/>
<feComposite in2="hardAlpha" operator="out"/>
<feColorMatrix type="matrix" values="0 0 0 0 0 0 0 0 0 0 0 0 0 0 0 0 0 0 0.25 0"/>
<feBlend mode="normal" in2="BackgroundImageFix" result="effect1_dropShadow_3040_3566"/>
<feBlend mode="normal" in="SourceGraphic" in2="effect1_dropShadow_3040_3566" result="shape"/>
</filter>
<filter id="filter5_d_3040_3566" x="403.167" y="38.2197" width="107.667" height="83.0605" filterUnits="userSpaceOnUse" color-interpolation-filters="sRGB">
<feFlood flood-opacity="0" result="BackgroundImageFix"/>
<feColorMatrix in="SourceAlpha" type="matrix" values="0 0 0 0 0 0 0 0 0 0 0 0 0 0 0 0 0 0 127 0" result="hardAlpha"/>
<feOffset dy="2"/>
<feGaussianBlur stdDeviation="1"/>
<feComposite in2="hardAlpha" operator="out"/>
<feColorMatrix type="matrix" values="0 0 0 0 0 0 0 0 0 0 0 0 0 0 0 0 0 0 0.25 0"/>
<feBlend mode="normal" in2="BackgroundImageFix" result="effect1_dropShadow_3040_3566"/>
<feBlend mode="normal" in="SourceGraphic" in2="effect1_dropShadow_3040_3566" result="shape"/>
</filter>
<filter id="filter6_d_3040_3566" x="408" y="43.5" width="99" height="69" filterUnits="userSpaceOnUse" color-interpolation-filters="sRGB">
<feFlood flood-opacity="0" result="BackgroundImageFix"/>
<feColorMatrix in="SourceAlpha" type="matrix" values="0 0 0 0 0 0 0 0 0 0 0 0 0 0 0 0 0 0 127 0" result="hardAlpha"/>
<feOffset dy="2"/>
<feGaussianBlur stdDeviation="1"/>
<feComposite in2="hardAlpha" operator="out"/>
<feColorMatrix type="matrix" values="0 0 0 0 0 0 0 0 0 0 0 0 0 0 0 0 0 0 0.25 0"/>
<feBlend mode="normal" in2="BackgroundImageFix" result="effect1_dropShadow_3040_3566"/>
<feBlend mode="normal" in="SourceGraphic" in2="effect1_dropShadow_3040_3566" result="shape"/>
</filter>
<filter id="filter7_d_3040_3566" x="534.759" y="37.1953" width="106.741" height="88.3252" filterUnits="userSpaceOnUse" color-interpolation-filters="sRGB">
<feFlood flood-opacity="0" result="BackgroundImageFix"/>
<feColorMatrix in="SourceAlpha" type="matrix" values="0 0 0 0 0 0 0 0 0 0 0 0 0 0 0 0 0 0 127 0" result="hardAlpha"/>
<feOffset dy="2"/>
<feGaussianBlur stdDeviation="1"/>
<feComposite in2="hardAlpha" operator="out"/>
<feColorMatrix type="matrix" values="0 0 0 0 0 0 0 0 0 0 0 0 0 0 0 0 0 0 0.25 0"/>
<feBlend mode="normal" in2="BackgroundImageFix" result="effect1_dropShadow_3040_3566"/>
<feBlend mode="normal" in="SourceGraphic" in2="effect1_dropShadow_3040_3566" result="shape"/>
</filter>
<filter id="filter8_d_3040_3566" x="529" y="30.4795" width="106.741" height="88.3252" filterUnits="userSpaceOnUse" color-interpolation-filters="sRGB">
<feFlood flood-opacity="0" result="BackgroundImageFix"/>
<feColorMatrix in="SourceAlpha" type="matrix" values="0 0 0 0 0 0 0 0 0 0 0 0 0 0 0 0 0 0 127 0" result="hardAlpha"/>
<feOffset dy="2"/>
<feGaussianBlur stdDeviation="1"/>
<feComposite in2="hardAlpha" operator="out"/>
<feColorMatrix type="matrix" values="0 0 0 0 0 0 0 0 0 0 0 0 0 0 0 0 0 0 0.25 0"/>
<feBlend mode="normal" in2="BackgroundImageFix" result="effect1_dropShadow_3040_3566"/>
<feBlend mode="normal" in="SourceGraphic" in2="effect1_dropShadow_3040_3566" result="shape"/>
</filter>
<filter id="filter9_d_3040_3566" x="691.185" y="58.0371" width="61.0137" height="54.958" filterUnits="userSpaceOnUse" color-interpolation-filters="sRGB">
<feFlood flood-opacity="0" result="BackgroundImageFix"/>
<feColorMatrix in="SourceAlpha" type="matrix" values="0 0 0 0 0 0 0 0 0 0 0 0 0 0 0 0 0 0 127 0" result="hardAlpha"/>
<feOffset dy="2"/>
<feGaussianBlur stdDeviation="1"/>
<feComposite in2="hardAlpha" operator="out"/>
<feColorMatrix type="matrix" values="0 0 0 0 0 0 0 0 0 0 0 0 0 0 0 0 0 0 0.25 0"/>
<feBlend mode="normal" in2="BackgroundImageFix" result="effect1_dropShadow_3040_3566"/>
<feBlend mode="normal" in="SourceGraphic" in2="effect1_dropShadow_3040_3566" result="shape"/>
</filter>
<filter id="filter10_d_3040_3566" x="669.369" y="37.9287" width="66.6204" height="59.7889" filterUnits="userSpaceOnUse" color-interpolation-filters="sRGB">
<feFlood flood-opacity="0" result="BackgroundImageFix"/>
<feColorMatrix in="SourceAlpha" type="matrix" values="0 0 0 0 0 0 0 0 0 0 0 0 0 0 0 0 0 0 127 0" result="hardAlpha"/>
<feOffset dy="2.18155"/>
<feGaussianBlur stdDeviation="1.09077"/>
<feComposite in2="hardAlpha" operator="out"/>
<feColorMatrix type="matrix" values="0 0 0 0 0 0 0 0 0 0 0 0 0 0 0 0 0 0 0.25 0"/>
<feBlend mode="normal" in2="BackgroundImageFix" result="effect1_dropShadow_3040_3566"/>
<feBlend mode="normal" in="SourceGraphic" in2="effect1_dropShadow_3040_3566" result="shape"/>
</filter>
<linearGradient id="paint0_linear_3040_3566" x1="350.282" y1="76" x2="350.282" y2="119.444" gradientUnits="userSpaceOnUse">
<stop stop-color="white"/>
<stop offset="1" stop-color="#EDEDED"/>
</linearGradient>
<clipPath id="clip0_3040_3566">
<rect width="45.4124" height="6.23307" fill="white" transform="translate(175.053 42.4268) rotate(-8.61557)"/>
</clipPath>
<clipPath id="clip1_3040_3566">
<rect width="51" height="7" fill="white" transform="translate(289.001 38.5654) rotate(-5.10269)"/>
</clipPath>
<clipPath id="clip2_3040_3566">
<rect width="37.6303" height="5.16494" fill="white" transform="translate(330.807 94.5) rotate(3.40782)"/>
</clipPath>
</defs>
</svg>
