<svg width="200" height="200" viewBox="0 0 200 200" fill="none" xmlns="http://www.w3.org/2000/svg">
<g clip-path="url(#clip0_1037_1640)">
<path d="M58.6785 139.899C56.4479 139.88 55.5991 140.968 56.1323 143.165C56.756 145.733 57.3797 148.301 57.9814 150.876C58.4217 152.784 57.5925 154.354 56.0076 154.699C54.3053 155.066 53.0432 154.149 52.5443 152.109C51.6417 148.462 50.7319 144.816 49.9101 141.154C49.69 140.171 49.3965 139.591 48.2738 139.459C43.365 138.894 38.4488 138.381 33.5767 137.595C29.4676 136.935 25.6521 137.705 21.8953 139.21C18.6741 140.501 15.4896 141.851 12.2464 143.077C8.88576 144.346 5.62055 143.348 3.10376 140.479C0.5136 137.522 -1.09333 134.374 0.917166 130.427C1.8417 128.622 3.31655 127.514 5.18029 126.765C14.9319 122.869 24.4487 118.503 33.3272 112.846C40.2979 108.407 46.3881 102.903 52.148 97.048C55.516 93.6287 57.2403 89.3729 57.4458 84.5008C57.8273 75.5416 62.6995 70.0018 71.1964 68.703C77.3893 67.7565 84.4847 71.7921 86.6786 77.7429C87.3023 79.4305 88.3076 80.4284 89.7457 81.2576C91.2793 82.1454 92.8202 83.0406 94.2583 84.0605C96.7164 85.8069 96.577 88.1842 94.0015 89.6811C93.2384 90.1287 92.4459 90.5396 91.6682 90.9652C87.6839 93.1444 87.3977 93.8562 88.1608 98.4422C88.8872 102.808 90.5749 106.924 91.1986 111.327C93.2751 125.87 87.6252 134.594 73.5004 138.373C72.7152 138.586 71.9375 138.813 71.145 138.968C67.7184 139.635 67.7037 139.628 68.4374 142.937C68.9804 145.366 69.6114 147.78 70.1031 150.223C70.3452 151.441 70.536 152.725 69.6335 153.833C69.0244 154.582 68.232 154.912 67.2781 154.729C66.1041 154.508 65.2309 153.914 64.9374 152.674C64.1963 149.519 63.4185 146.371 62.7288 143.209C62.0171 139.929 62.0538 139.921 58.6785 139.899ZM38.7643 115.7C44.6564 117.784 50.2916 117.997 56.037 116.603C62.1858 115.113 68.0926 110.336 68.0706 102.426C68.0706 100.805 69.1712 99.8216 70.8368 99.9097C72.4804 99.9904 73.3756 101.003 73.405 102.661C73.515 109.082 70.7708 114.225 65.6785 117.828C56.6093 124.241 46.6302 124.417 36.5484 120.704C33.7528 119.677 31.5588 119.494 29.2548 121.335C28.9687 121.563 28.6091 121.695 28.2863 121.878C21.7485 125.496 14.8952 128.438 8.00525 131.3C6.77254 131.813 5.68658 132.386 5.80398 133.949C5.99476 136.436 8.97381 138.314 11.2998 137.405C14.1835 136.275 17.0671 135.145 19.9288 133.941C24.9037 131.85 30.128 131.256 35.3597 132.1C44.3629 133.545 53.3661 134.55 62.494 134.176C66.7278 134.007 70.8735 133.34 74.8578 131.938C80.5004 129.95 84.6755 126.486 85.6293 120.198C86.2824 115.906 85.8128 111.657 84.6388 107.504C83.2153 102.448 81.9752 97.3782 82.2834 92.0438C82.3788 90.3268 82.9144 89.0721 84.4774 88.265C85.5413 87.7073 86.5465 87.0249 87.7719 86.2691C86.3264 85.3079 85.2478 84.5375 84.1178 83.8551C83.1639 83.2827 82.6136 82.4683 82.3201 81.4337C80.8526 76.2827 76.8536 73.2963 72.1576 73.8466C66.9112 74.463 63.2351 78.5867 63.1544 83.9505C63.0517 90.1947 60.9678 95.6539 56.5873 100.144C51.1648 105.699 45.4122 110.894 38.7937 115.715" fill="#00FF85"/>
<path d="M141.182 139.466C138.966 138.857 137.91 139.929 137.55 142.526C137.124 145.571 136.237 148.558 135.517 151.566C135.019 153.643 133.522 154.751 131.922 154.281C130.242 153.789 129.625 152.322 130.117 150.201C130.821 147.193 131.262 144.104 132.208 141.176C132.847 139.195 131.937 138.835 130.484 138.659C127.461 138.3 124.592 137.412 121.774 136.297C112.36 132.569 107.209 123.405 108.684 113.359C109.264 109.412 110.166 105.552 111.26 101.729C111.48 100.952 111.707 100.166 111.876 99.3814C113.123 93.592 112.778 92.8436 107.627 90.004C107.048 89.6811 106.446 89.3876 105.888 89.0354C103.951 87.8027 103.805 85.5354 105.573 84.0459C106.079 83.6203 106.659 83.2828 107.239 82.9452C110.225 81.2209 112.705 79.3131 114.356 75.9012C117.093 70.2439 124.13 67.3602 129.941 68.5929C136.699 70.0238 141.189 74.8299 142.305 81.419C142.65 83.4662 142.481 85.5207 142.936 87.5606C143.882 91.831 146.172 95.1769 149.195 98.2661C162.079 111.444 177.87 119.89 194.776 126.589C200.169 128.724 201.592 133.978 198.107 138.63C197.447 139.518 196.757 140.406 195.942 141.154C193.594 143.326 190.901 144.148 187.79 142.908C184.848 141.734 181.898 140.567 178.963 139.371C174.575 137.581 170.085 136.825 165.33 137.588C160.891 138.307 156.415 138.828 151.939 139.342C150.772 139.474 150.361 139.899 150.127 141.059C149.393 144.728 148.468 148.36 147.632 152.006C147.192 153.899 145.966 154.934 144.102 154.472C142.327 154.024 141.842 152.527 142.224 150.774C142.305 150.414 142.327 150.047 142.415 149.688C143.068 146.973 143.618 144.229 144.425 141.558C144.983 139.701 144.425 139.188 142.657 139.459C142.297 139.518 141.916 139.466 141.175 139.466M151.205 123.25C148.043 123.324 142.862 122.744 138.071 120.301C131.408 116.911 127.343 111.628 126.698 104.041C126.492 101.619 127.549 100.13 129.2 99.983C130.88 99.8363 131.981 101.062 132.186 103.549C132.553 108.032 134.446 111.672 138.232 114.093C145.049 118.452 152.401 118.503 159.952 116.419C161.14 116.089 161.302 115.737 160.216 114.93C158.198 113.433 156.217 111.892 154.316 110.248C149.892 106.44 145.394 102.669 141.747 98.0826C138.203 93.6214 137.205 88.2796 136.897 82.7178C136.662 78.5207 133.147 74.8225 129.104 74.2209C124.335 73.5018 119.58 75.7911 118.472 79.8488C117.761 82.4609 116.432 84.1633 114.143 85.3079C112.573 86.093 112.426 86.6874 114.202 87.4945C115.618 88.1476 117.592 88.5951 117.702 90.5029C117.878 93.5847 118.091 96.7178 117.518 99.7849C116.66 104.4 114.987 108.825 114.459 113.528C113.27 124.248 117.834 129.84 126.764 132.334C138.144 135.512 149.635 134.271 161.06 132.584C167.825 131.586 174.407 131.358 180.834 134.147C183.74 135.409 186.734 136.473 189.639 137.735C191.518 138.549 193.029 136.957 194.233 134.558C195.201 132.635 193.565 132.056 192.127 131.461C184.063 128.152 176.109 124.623 168.588 120.183C167.641 119.626 166.908 119.611 165.939 120.051C161.94 121.871 157.75 122.979 151.205 123.243" fill="#00FF85"/>
<path d="M116.924 54.6442C116.587 59.2008 114.576 63.1851 110.709 66.1055C107.928 68.204 105.206 70.3172 102.851 72.9074C101.17 74.7565 98.5729 74.9106 96.9733 72.9881C94.4712 69.9724 91.1766 67.9839 88.3003 65.4671C84.294 61.9598 81.8872 57.6159 83.0759 52.1641C84.6388 45.032 92.468 42.0676 98.5362 46.1913C99.5854 46.9031 100.136 46.8664 101.134 46.1693C104.45 43.836 108.024 43.6819 111.582 45.575C115.06 47.424 116.887 50.3664 116.917 54.6442M111.553 55.1798C111.597 52.1421 110.372 50.2637 108.442 49.8234C105.874 49.2291 103.951 50.2343 102.719 52.8098C101.559 55.2385 99.5267 55.444 98.0005 53.2574C97.5823 52.6557 97.2888 51.9587 96.8412 51.379C95.5131 49.6693 93.1064 49.2291 91.0298 50.2563C89.0854 51.2176 88.2269 53.0666 88.6378 55.2092C89.1808 58.0195 90.6189 60.2428 92.8496 62.0038C94.9334 63.6474 96.9953 65.3204 99.0571 66.9933C99.5781 67.4189 99.989 67.9912 100.693 67.2208C102.807 64.9095 105.639 63.4933 107.965 61.4461C110.041 59.6191 111.377 57.4178 111.553 55.1872" fill="#00FF85"/>
<path d="M78.9669 81.4117C78.9816 83.0186 77.5214 84.4494 75.8264 84.4788C74.1608 84.5081 72.752 83.1067 72.7593 81.419C72.7593 79.8121 74.2635 78.2785 75.8484 78.2785C77.4113 78.2785 78.9522 79.8194 78.9742 81.419" fill="#00FF85"/>
<path d="M127.321 81.4704C127.307 83.114 125.802 84.5375 124.122 84.4788C122.552 84.4274 121.136 83.0186 121.106 81.4777C121.077 79.9735 122.75 78.2712 124.247 78.2859C125.876 78.3005 127.336 79.8121 127.329 81.4704" fill="#00FF85"/>
</g>
<defs>
<clipPath id="clip0_1037_1640">
<rect width="200" height="110.511" fill="white" transform="translate(0 44.2763)"/>
</clipPath>
</defs>
</svg>
