<svg width="630" height="274" viewBox="0 0 630 274" fill="none" xmlns="http://www.w3.org/2000/svg">
<rect x="162" y="82" width="144" height="48" rx="12" fill="url(#paint0_linear_169_444)" fill-opacity="0.3"/>
<path d="M206.222 111.176C205.337 111.176 204.494 111.032 203.694 110.744C202.894 110.456 202.121 110.035 201.374 109.48L202.782 107.448C203.561 107.992 204.222 108.376 204.766 108.6C205.31 108.824 205.86 108.936 206.414 108.936C206.809 108.936 207.145 108.888 207.422 108.792C207.71 108.685 207.929 108.547 208.078 108.376C208.238 108.195 208.318 107.987 208.318 107.752C208.318 107.421 208.206 107.171 207.982 107C207.769 106.819 207.39 106.68 206.846 106.584L204.462 106.168C203.577 106.019 202.894 105.677 202.414 105.144C201.945 104.611 201.71 103.949 201.71 103.16C201.71 102.435 201.886 101.811 202.238 101.288C202.59 100.755 203.097 100.344 203.758 100.056C204.43 99.768 205.23 99.624 206.158 99.624C207.022 99.624 207.86 99.7573 208.67 100.024C209.481 100.28 210.174 100.637 210.75 101.096L209.358 103.096C208.814 102.68 208.27 102.371 207.726 102.168C207.182 101.965 206.612 101.864 206.014 101.864C205.652 101.864 205.342 101.912 205.086 102.008C204.83 102.093 204.633 102.216 204.494 102.376C204.366 102.536 204.302 102.717 204.302 102.92C204.302 103.208 204.398 103.432 204.59 103.592C204.793 103.741 205.118 103.859 205.566 103.944L207.806 104.328C208.852 104.499 209.646 104.856 210.19 105.4C210.734 105.944 211.006 106.643 211.006 107.496C211.006 108.221 210.809 108.861 210.414 109.416C210.03 109.971 209.481 110.403 208.766 110.712C208.052 111.021 207.204 111.176 206.222 111.176ZM216.623 111.16C215.823 111.16 215.098 110.973 214.447 110.6C213.807 110.216 213.295 109.704 212.911 109.064C212.538 108.413 212.351 107.688 212.351 106.888C212.351 106.077 212.538 105.352 212.911 104.712C213.295 104.072 213.807 103.565 214.447 103.192C215.098 102.808 215.823 102.616 216.623 102.616C217.306 102.616 217.946 102.749 218.543 103.016C219.14 103.272 219.647 103.645 220.063 104.136L218.479 105.72C218.212 105.411 217.94 105.187 217.663 105.048C217.386 104.899 217.071 104.824 216.719 104.824C216.378 104.824 216.068 104.915 215.791 105.096C215.524 105.277 215.311 105.523 215.151 105.832C215.002 106.141 214.927 106.493 214.927 106.888C214.927 107.283 215.002 107.635 215.151 107.944C215.311 108.253 215.524 108.499 215.791 108.68C216.068 108.861 216.378 108.952 216.719 108.952C217.071 108.952 217.386 108.883 217.663 108.744C217.94 108.595 218.212 108.365 218.479 108.056L220.063 109.64C219.647 110.131 219.14 110.509 218.543 110.776C217.946 111.032 217.306 111.16 216.623 111.16ZM223.808 111.128C223.253 111.128 222.757 111.021 222.32 110.808C221.893 110.595 221.557 110.301 221.312 109.928C221.077 109.555 220.96 109.123 220.96 108.632C220.96 108.12 221.088 107.688 221.344 107.336C221.6 106.973 221.968 106.701 222.448 106.52C222.928 106.328 223.504 106.232 224.176 106.232C224.475 106.232 224.779 106.264 225.088 106.328C225.397 106.381 225.733 106.477 226.096 106.616V105.944C226.096 105.539 225.963 105.24 225.696 105.048C225.429 104.845 225.019 104.744 224.464 104.744C224.155 104.744 223.808 104.792 223.424 104.888C223.051 104.973 222.624 105.117 222.144 105.32L221.248 103.512C222.581 102.915 223.845 102.616 225.04 102.616C226.181 102.616 227.067 102.888 227.696 103.432C228.336 103.976 228.656 104.739 228.656 105.72V111H226.096V110.28C225.733 110.579 225.371 110.797 225.008 110.936C224.645 111.064 224.245 111.128 223.808 111.128ZM223.344 108.584C223.344 108.851 223.456 109.059 223.68 109.208C223.904 109.347 224.213 109.416 224.608 109.416C224.885 109.416 225.147 109.384 225.392 109.32C225.637 109.245 225.872 109.139 226.096 109V107.944C225.861 107.891 225.627 107.848 225.392 107.816C225.157 107.784 224.917 107.768 224.672 107.768C224.245 107.768 223.915 107.837 223.68 107.976C223.456 108.115 223.344 108.317 223.344 108.584ZM230.61 111V102.744H233.202V104.088C233.522 103.608 233.9 103.245 234.338 103C234.786 102.744 235.276 102.616 235.81 102.616C236.343 102.616 236.812 102.739 237.218 102.984C237.634 103.219 237.959 103.549 238.194 103.976C238.428 104.392 238.546 104.877 238.546 105.432V111H235.954V106.184C235.954 105.715 235.826 105.341 235.57 105.064C235.324 104.787 234.994 104.648 234.578 104.648C234.3 104.648 234.044 104.707 233.81 104.824C233.586 104.931 233.383 105.101 233.202 105.336V111H230.61ZM240.5 111V102.744H243.092V104.088C243.412 103.608 243.791 103.245 244.228 103C244.676 102.744 245.167 102.616 245.7 102.616C246.234 102.616 246.703 102.739 247.108 102.984C247.524 103.219 247.85 103.549 248.084 103.976C248.319 104.392 248.436 104.877 248.436 105.432V111H245.844V106.184C245.844 105.715 245.716 105.341 245.46 105.064C245.215 104.787 244.884 104.648 244.468 104.648C244.191 104.648 243.935 104.707 243.7 104.824C243.476 104.931 243.274 105.101 243.092 105.336V111H240.5ZM254.375 111.16C253.564 111.16 252.828 110.973 252.167 110.6C251.516 110.216 250.993 109.704 250.599 109.064C250.215 108.413 250.023 107.688 250.023 106.888C250.023 106.077 250.204 105.352 250.567 104.712C250.929 104.072 251.425 103.565 252.055 103.192C252.684 102.808 253.393 102.616 254.183 102.616C254.983 102.616 255.687 102.803 256.295 103.176C256.903 103.549 257.377 104.067 257.719 104.728C258.071 105.379 258.247 106.131 258.247 106.984V107.544H252.567C252.652 107.853 252.785 108.125 252.967 108.36C253.148 108.595 253.372 108.776 253.639 108.904C253.905 109.032 254.193 109.096 254.503 109.096C254.844 109.096 255.153 109.037 255.431 108.92C255.719 108.803 255.953 108.632 256.135 108.408L257.847 109.832C257.313 110.301 256.775 110.643 256.231 110.856C255.687 111.059 255.068 111.16 254.375 111.16ZM252.567 106.072H255.847C255.772 105.773 255.655 105.517 255.495 105.304C255.335 105.091 255.143 104.925 254.919 104.808C254.695 104.691 254.444 104.632 254.167 104.632C253.9 104.632 253.655 104.691 253.431 104.808C253.217 104.915 253.036 105.075 252.887 105.288C252.748 105.501 252.641 105.763 252.567 106.072ZM259.86 111V102.744H262.452V104.616C262.718 103.923 263.033 103.411 263.396 103.08C263.769 102.749 264.201 102.584 264.692 102.584C264.873 102.595 265.022 102.611 265.14 102.632C265.257 102.653 265.396 102.707 265.556 102.792V105.016C265.396 104.931 265.209 104.867 264.996 104.824C264.782 104.781 264.564 104.76 264.34 104.76C263.956 104.76 263.598 104.856 263.268 105.048C262.937 105.229 262.665 105.475 262.452 105.784V111H259.86Z" fill="white"/>
<rect x="163" y="83" width="142" height="46" rx="11" stroke="url(#paint1_linear_169_444)" stroke-opacity="0.4" stroke-width="2"/>
<rect x="486" y="82" width="144" height="48" rx="12" fill="url(#paint2_linear_169_444)" fill-opacity="0.3"/>
<path d="M532.425 111.176C531.54 111.176 530.697 111.032 529.897 110.744C529.097 110.456 528.324 110.035 527.577 109.48L528.985 107.448C529.764 107.992 530.425 108.376 530.969 108.6C531.513 108.824 532.063 108.936 532.617 108.936C533.012 108.936 533.348 108.888 533.625 108.792C533.913 108.685 534.132 108.547 534.281 108.376C534.441 108.195 534.521 107.987 534.521 107.752C534.521 107.421 534.409 107.171 534.185 107C533.972 106.819 533.593 106.68 533.049 106.584L530.665 106.168C529.78 106.019 529.097 105.677 528.617 105.144C528.148 104.611 527.913 103.949 527.913 103.16C527.913 102.435 528.089 101.811 528.441 101.288C528.793 100.755 529.3 100.344 529.961 100.056C530.633 99.768 531.433 99.624 532.361 99.624C533.225 99.624 534.063 99.7573 534.873 100.024C535.684 100.28 536.377 100.637 536.953 101.096L535.561 103.096C535.017 102.68 534.473 102.371 533.929 102.168C533.385 101.965 532.815 101.864 532.217 101.864C531.855 101.864 531.545 101.912 531.289 102.008C531.033 102.093 530.836 102.216 530.697 102.376C530.569 102.536 530.505 102.717 530.505 102.92C530.505 103.208 530.601 103.432 530.793 103.592C530.996 103.741 531.321 103.859 531.769 103.944L534.009 104.328C535.055 104.499 535.849 104.856 536.393 105.4C536.937 105.944 537.209 106.643 537.209 107.496C537.209 108.221 537.012 108.861 536.617 109.416C536.233 109.971 535.684 110.403 534.969 110.712C534.255 111.021 533.407 111.176 532.425 111.176ZM542.906 111.16C542.095 111.16 541.359 110.973 540.698 110.6C540.047 110.216 539.525 109.704 539.13 109.064C538.746 108.413 538.554 107.688 538.554 106.888C538.554 106.077 538.735 105.352 539.098 104.712C539.461 104.072 539.957 103.565 540.586 103.192C541.215 102.808 541.925 102.616 542.714 102.616C543.514 102.616 544.218 102.803 544.826 103.176C545.434 103.549 545.909 104.067 546.25 104.728C546.602 105.379 546.778 106.131 546.778 106.984V107.544H541.098C541.183 107.853 541.317 108.125 541.498 108.36C541.679 108.595 541.903 108.776 542.17 108.904C542.437 109.032 542.725 109.096 543.034 109.096C543.375 109.096 543.685 109.037 543.962 108.92C544.25 108.803 544.485 108.632 544.666 108.408L546.378 109.832C545.845 110.301 545.306 110.643 544.762 110.856C544.218 111.059 543.599 111.16 542.906 111.16ZM541.098 106.072H544.378C544.303 105.773 544.186 105.517 544.026 105.304C543.866 105.091 543.674 104.925 543.45 104.808C543.226 104.691 542.975 104.632 542.698 104.632C542.431 104.632 542.186 104.691 541.962 104.808C541.749 104.915 541.567 105.075 541.418 105.288C541.279 105.501 541.173 105.763 541.098 106.072ZM552.204 111.16C551.234 111.16 550.498 110.936 549.996 110.488C549.495 110.04 549.244 109.379 549.244 108.504V104.744H547.644V102.744H549.244V100.456L551.836 99.928V102.744H554.044V104.744H551.836V107.992C551.836 108.355 551.916 108.611 552.076 108.76C552.247 108.909 552.53 108.984 552.924 108.984C553.074 108.984 553.223 108.973 553.372 108.952C553.522 108.931 553.724 108.883 553.98 108.808V110.904C553.746 110.979 553.458 111.037 553.116 111.08C552.775 111.133 552.471 111.16 552.204 111.16ZM559.689 111.16C558.718 111.16 557.982 110.936 557.481 110.488C556.979 110.04 556.729 109.379 556.729 108.504V104.744H555.129V102.744H556.729V100.456L559.321 99.928V102.744H561.529V104.744H559.321V107.992C559.321 108.355 559.401 108.611 559.561 108.76C559.731 108.909 560.014 108.984 560.409 108.984C560.558 108.984 560.707 108.973 560.857 108.952C561.006 108.931 561.209 108.883 561.465 108.808V110.904C561.23 110.979 560.942 111.037 560.601 111.08C560.259 111.133 559.955 111.16 559.689 111.16ZM562.969 111V102.744H565.561V111H562.969ZM564.265 101.48C563.87 101.48 563.529 101.336 563.241 101.048C562.953 100.76 562.809 100.419 562.809 100.024C562.809 99.6187 562.953 99.2773 563.241 99C563.529 98.712 563.87 98.568 564.265 98.568C564.67 98.568 565.012 98.712 565.289 99C565.577 99.2773 565.721 99.6187 565.721 100.024C565.721 100.419 565.577 100.76 565.289 101.048C565.012 101.336 564.67 101.48 564.265 101.48ZM567.578 111V102.744H570.17V104.088C570.49 103.608 570.869 103.245 571.306 103C571.754 102.744 572.245 102.616 572.778 102.616C573.312 102.616 573.781 102.739 574.186 102.984C574.602 103.219 574.928 103.549 575.162 103.976C575.397 104.392 575.514 104.877 575.514 105.432V111H572.922V106.184C572.922 105.715 572.794 105.341 572.538 105.064C572.293 104.787 571.962 104.648 571.546 104.648C571.269 104.648 571.013 104.707 570.778 104.824C570.554 104.931 570.352 105.101 570.17 105.336V111H567.578ZM581.373 114.504C580.754 114.504 580.152 114.44 579.565 114.312C578.989 114.184 578.45 114.003 577.949 113.768L578.749 111.896C579.208 112.109 579.645 112.269 580.061 112.376C580.477 112.483 580.882 112.536 581.277 112.536C581.896 112.536 582.36 112.408 582.669 112.152C582.989 111.896 583.149 111.517 583.149 111.016V109.896C582.882 110.227 582.536 110.493 582.109 110.696C581.682 110.888 581.229 110.984 580.749 110.984C580.077 110.984 579.464 110.797 578.909 110.424C578.354 110.051 577.912 109.549 577.581 108.92C577.261 108.291 577.101 107.592 577.101 106.824C577.101 106.056 577.272 105.363 577.613 104.744C577.954 104.115 578.413 103.619 578.989 103.256C579.576 102.883 580.226 102.696 580.941 102.696C581.378 102.696 581.789 102.787 582.173 102.968C582.568 103.139 582.904 103.395 583.181 103.736V102.744H585.725V111.048C585.725 112.157 585.352 113.011 584.605 113.608C583.858 114.205 582.781 114.504 581.373 114.504ZM581.613 108.872C581.922 108.872 582.205 108.819 582.461 108.712C582.717 108.595 582.946 108.429 583.149 108.216V105.464C582.946 105.251 582.712 105.091 582.445 104.984C582.189 104.877 581.912 104.824 581.613 104.824C581.24 104.824 580.904 104.915 580.605 105.096C580.306 105.267 580.072 105.501 579.901 105.8C579.73 106.099 579.645 106.445 579.645 106.84C579.645 107.224 579.73 107.571 579.901 107.88C580.072 108.189 580.306 108.435 580.605 108.616C580.904 108.787 581.24 108.872 581.613 108.872Z" fill="white"/>
<rect x="487" y="83" width="142" height="46" rx="11" stroke="url(#paint3_linear_169_444)" stroke-opacity="0.4" stroke-width="2"/>
<path d="M293.357 16V4.8H296.109V13.648H301.661V16H293.357ZM307.194 16.16C306.373 16.16 305.637 15.9733 304.986 15.6C304.336 15.2267 303.818 14.72 303.434 14.08C303.061 13.4293 302.874 12.6987 302.874 11.888C302.874 11.0773 303.061 10.352 303.434 9.712C303.818 9.06133 304.336 8.54933 304.986 8.176C305.637 7.80267 306.368 7.616 307.178 7.616C308 7.616 308.73 7.80267 309.37 8.176C310.021 8.54933 310.533 9.06133 310.906 9.712C311.29 10.352 311.482 11.0773 311.482 11.888C311.482 12.6987 311.29 13.4293 310.906 14.08C310.533 14.72 310.021 15.2267 309.37 15.6C308.73 15.9733 308.005 16.16 307.194 16.16ZM307.178 14C307.53 14 307.84 13.9093 308.106 13.728C308.373 13.5467 308.581 13.296 308.73 12.976C308.88 12.656 308.954 12.2933 308.954 11.888C308.954 11.472 308.88 11.1093 308.73 10.8C308.581 10.48 308.373 10.2293 308.106 10.048C307.84 9.86667 307.53 9.776 307.178 9.776C306.837 9.776 306.528 9.86667 306.25 10.048C305.984 10.2293 305.776 10.48 305.626 10.8C305.477 11.1093 305.402 11.472 305.402 11.888C305.402 12.2933 305.477 12.656 305.626 12.976C305.776 13.296 305.984 13.5467 306.25 13.728C306.528 13.9093 306.837 14 307.178 14ZM317.037 19.504C316.418 19.504 315.816 19.44 315.229 19.312C314.653 19.184 314.114 19.0027 313.613 18.768L314.413 16.896C314.872 17.1093 315.309 17.2693 315.725 17.376C316.141 17.4827 316.546 17.536 316.941 17.536C317.56 17.536 318.024 17.408 318.333 17.152C318.653 16.896 318.813 16.5173 318.813 16.016V14.896C318.546 15.2267 318.2 15.4933 317.773 15.696C317.346 15.888 316.893 15.984 316.413 15.984C315.741 15.984 315.128 15.7973 314.573 15.424C314.018 15.0507 313.576 14.5493 313.245 13.92C312.925 13.2907 312.765 12.592 312.765 11.824C312.765 11.056 312.936 10.3627 313.277 9.744C313.618 9.11467 314.077 8.61867 314.653 8.256C315.24 7.88267 315.89 7.696 316.605 7.696C317.042 7.696 317.453 7.78667 317.837 7.968C318.232 8.13867 318.568 8.39467 318.845 8.736V7.744H321.389V16.048C321.389 17.1573 321.016 18.0107 320.269 18.608C319.522 19.2053 318.445 19.504 317.037 19.504ZM317.277 13.872C317.586 13.872 317.869 13.8187 318.125 13.712C318.381 13.5947 318.61 13.4293 318.813 13.216V10.464C318.61 10.2507 318.376 10.0907 318.109 9.984C317.853 9.87733 317.576 9.824 317.277 9.824C316.904 9.824 316.568 9.91467 316.269 10.096C315.97 10.2667 315.736 10.5013 315.565 10.8C315.394 11.0987 315.309 11.4453 315.309 11.84C315.309 12.224 315.394 12.5707 315.565 12.88C315.736 13.1893 315.97 13.4347 316.269 13.616C316.568 13.7867 316.904 13.872 317.277 13.872ZM323.399 16V7.744H325.991V16H323.399ZM324.695 6.48C324.3 6.48 323.959 6.336 323.671 6.048C323.383 5.76 323.239 5.41867 323.239 5.024C323.239 4.61867 323.383 4.27733 323.671 4C323.959 3.712 324.3 3.568 324.695 3.568C325.1 3.568 325.441 3.712 325.719 4C326.007 4.27733 326.151 4.61867 326.151 5.024C326.151 5.41867 326.007 5.76 325.719 6.048C325.441 6.336 325.1 6.48 324.695 6.48ZM328.008 16V7.744H330.6V9.088C330.92 8.608 331.299 8.24533 331.736 8C332.184 7.744 332.675 7.616 333.208 7.616C333.741 7.616 334.211 7.73867 334.616 7.984C335.032 8.21867 335.357 8.54933 335.592 8.976C335.827 9.392 335.944 9.87733 335.944 10.432V16H333.352V11.184C333.352 10.7147 333.224 10.3413 332.968 10.064C332.723 9.78667 332.392 9.648 331.976 9.648C331.699 9.648 331.443 9.70667 331.208 9.824C330.984 9.93067 330.781 10.1013 330.6 10.336V16H328.008Z" fill="white"/>
<rect x="191" y="154" width="125" height="48" rx="12" fill="url(#paint4_linear_169_444)" fill-opacity="0.3"/>
<path d="M209.061 182V173.6H211.005L214.737 178.688L214.701 173.6H216.645V182H214.821L210.969 176.744L211.005 182H209.061ZM221.326 182.12C220.718 182.12 220.166 181.98 219.67 181.7C219.182 181.412 218.79 181.028 218.494 180.548C218.206 180.06 218.062 179.516 218.062 178.916C218.062 178.308 218.198 177.764 218.47 177.284C218.742 176.804 219.114 176.424 219.586 176.144C220.058 175.856 220.59 175.712 221.182 175.712C221.782 175.712 222.31 175.852 222.766 176.132C223.222 176.412 223.578 176.8 223.834 177.296C224.098 177.784 224.23 178.348 224.23 178.988V179.408H219.97C220.034 179.64 220.134 179.844 220.27 180.02C220.406 180.196 220.574 180.332 220.774 180.428C220.974 180.524 221.19 180.572 221.422 180.572C221.678 180.572 221.91 180.528 222.118 180.44C222.334 180.352 222.51 180.224 222.646 180.056L223.93 181.124C223.53 181.476 223.126 181.732 222.718 181.892C222.31 182.044 221.846 182.12 221.326 182.12ZM219.97 178.304H222.43C222.374 178.08 222.286 177.888 222.166 177.728C222.046 177.568 221.902 177.444 221.734 177.356C221.566 177.268 221.378 177.224 221.17 177.224C220.97 177.224 220.786 177.268 220.618 177.356C220.458 177.436 220.322 177.556 220.21 177.716C220.106 177.876 220.026 178.072 219.97 178.304ZM226.414 182L224.758 175.808H226.594L227.458 179.504L228.502 175.808H230.098L231.13 179.492L231.982 175.808H233.77L232.126 182H230.278L229.27 178.352L228.286 182H226.414ZM241.511 182.132C240.887 182.132 240.307 182.024 239.771 181.808C239.235 181.584 238.763 181.276 238.355 180.884C237.955 180.492 237.643 180.032 237.419 179.504C237.195 178.976 237.083 178.408 237.083 177.8C237.083 177.184 237.195 176.616 237.419 176.096C237.643 175.568 237.955 175.108 238.355 174.716C238.763 174.324 239.235 174.02 239.771 173.804C240.307 173.58 240.887 173.468 241.511 173.468C241.959 173.468 242.395 173.536 242.819 173.672C243.251 173.8 243.647 173.988 244.007 174.236C244.375 174.476 244.679 174.764 244.919 175.1L243.527 176.42C243.255 176.044 242.951 175.764 242.615 175.58C242.279 175.396 241.911 175.304 241.511 175.304C241.183 175.304 240.879 175.368 240.599 175.496C240.327 175.616 240.087 175.792 239.879 176.024C239.671 176.248 239.507 176.512 239.387 176.816C239.275 177.112 239.219 177.44 239.219 177.8C239.219 178.16 239.275 178.492 239.387 178.796C239.507 179.092 239.671 179.356 239.879 179.588C240.087 179.812 240.327 179.988 240.599 180.116C240.879 180.236 241.183 180.296 241.511 180.296C241.911 180.296 242.279 180.204 242.615 180.02C242.951 179.828 243.255 179.548 243.527 179.18L244.919 180.5C244.679 180.828 244.375 181.116 244.007 181.364C243.647 181.612 243.251 181.804 242.819 181.94C242.395 182.068 241.959 182.132 241.511 182.132ZM245.936 182V175.808H247.88V177.212C248.08 176.692 248.316 176.308 248.588 176.06C248.868 175.812 249.192 175.688 249.56 175.688C249.696 175.696 249.808 175.708 249.896 175.724C249.984 175.74 250.088 175.78 250.208 175.844V177.512C250.088 177.448 249.948 177.4 249.788 177.368C249.628 177.336 249.464 177.32 249.296 177.32C249.008 177.32 248.74 177.392 248.492 177.536C248.244 177.672 248.04 177.856 247.88 178.088V182H245.936ZM254.045 182.12C253.437 182.12 252.885 181.98 252.389 181.7C251.901 181.412 251.509 181.028 251.213 180.548C250.925 180.06 250.781 179.516 250.781 178.916C250.781 178.308 250.917 177.764 251.189 177.284C251.461 176.804 251.833 176.424 252.305 176.144C252.777 175.856 253.309 175.712 253.901 175.712C254.501 175.712 255.029 175.852 255.485 176.132C255.941 176.412 256.297 176.8 256.553 177.296C256.817 177.784 256.949 178.348 256.949 178.988V179.408H252.689C252.753 179.64 252.853 179.844 252.989 180.02C253.125 180.196 253.293 180.332 253.493 180.428C253.693 180.524 253.909 180.572 254.141 180.572C254.397 180.572 254.629 180.528 254.837 180.44C255.053 180.352 255.229 180.224 255.365 180.056L256.649 181.124C256.249 181.476 255.845 181.732 255.437 181.892C255.029 182.044 254.565 182.12 254.045 182.12ZM252.689 178.304H255.149C255.093 178.08 255.005 177.888 254.885 177.728C254.765 177.568 254.621 177.444 254.453 177.356C254.285 177.268 254.097 177.224 253.889 177.224C253.689 177.224 253.505 177.268 253.337 177.356C253.177 177.436 253.041 177.556 252.929 177.716C252.825 177.876 252.745 178.072 252.689 178.304ZM260.677 182.036C260.173 182.036 259.713 181.896 259.297 181.616C258.881 181.328 258.549 180.948 258.301 180.476C258.061 179.996 257.941 179.468 257.941 178.892C257.941 178.308 258.069 177.784 258.325 177.32C258.581 176.848 258.925 176.472 259.357 176.192C259.797 175.912 260.285 175.772 260.821 175.772C261.149 175.772 261.453 175.836 261.733 175.964C262.021 176.092 262.269 176.276 262.477 176.516V173.456L264.421 173.156V182H262.501V181.196C262.301 181.452 262.037 181.656 261.709 181.808C261.389 181.96 261.045 182.036 260.677 182.036ZM261.325 180.428C261.557 180.428 261.769 180.388 261.961 180.308C262.153 180.22 262.325 180.096 262.477 179.936V177.848C262.325 177.688 262.149 177.568 261.949 177.488C261.757 177.408 261.549 177.368 261.325 177.368C261.045 177.368 260.793 177.436 260.569 177.572C260.345 177.7 260.169 177.88 260.041 178.112C259.913 178.344 259.849 178.608 259.849 178.904C259.849 179.192 259.913 179.452 260.041 179.684C260.169 179.916 260.345 180.1 260.569 180.236C260.793 180.364 261.045 180.428 261.325 180.428ZM268.916 182.12C268.308 182.12 267.756 181.98 267.26 181.7C266.772 181.412 266.38 181.028 266.084 180.548C265.796 180.06 265.652 179.516 265.652 178.916C265.652 178.308 265.788 177.764 266.06 177.284C266.332 176.804 266.704 176.424 267.176 176.144C267.648 175.856 268.18 175.712 268.772 175.712C269.372 175.712 269.9 175.852 270.356 176.132C270.812 176.412 271.168 176.8 271.424 177.296C271.688 177.784 271.82 178.348 271.82 178.988V179.408H267.56C267.624 179.64 267.724 179.844 267.86 180.02C267.996 180.196 268.164 180.332 268.364 180.428C268.564 180.524 268.78 180.572 269.012 180.572C269.268 180.572 269.5 180.528 269.708 180.44C269.924 180.352 270.1 180.224 270.236 180.056L271.52 181.124C271.12 181.476 270.716 181.732 270.308 181.892C269.9 182.044 269.436 182.12 268.916 182.12ZM267.56 178.304H270.02C269.964 178.08 269.876 177.888 269.756 177.728C269.636 177.568 269.492 177.444 269.324 177.356C269.156 177.268 268.968 177.224 268.76 177.224C268.56 177.224 268.376 177.268 268.208 177.356C268.048 177.436 267.912 177.556 267.8 177.716C267.696 177.876 267.616 178.072 267.56 178.304ZM273.029 182V175.808H274.973V176.816C275.213 176.456 275.497 176.184 275.825 176C276.161 175.808 276.529 175.712 276.929 175.712C277.329 175.712 277.681 175.804 277.985 175.988C278.297 176.164 278.541 176.412 278.717 176.732C278.893 177.044 278.981 177.408 278.981 177.824V182H277.037V178.388C277.037 178.036 276.941 177.756 276.749 177.548C276.565 177.34 276.317 177.236 276.005 177.236C275.797 177.236 275.605 177.28 275.429 177.368C275.261 177.448 275.109 177.576 274.973 177.752V182H273.029ZM283.308 182.12C282.58 182.12 282.028 181.952 281.652 181.616C281.276 181.28 281.088 180.784 281.088 180.128V177.308H279.888V175.808H281.088V174.092L283.032 173.696V175.808H284.688V177.308H283.032V179.744C283.032 180.016 283.092 180.208 283.212 180.32C283.34 180.432 283.552 180.488 283.848 180.488C283.96 180.488 284.072 180.48 284.184 180.464C284.296 180.448 284.448 180.412 284.64 180.356V181.928C284.464 181.984 284.248 182.028 283.992 182.06C283.736 182.1 283.508 182.12 283.308 182.12ZM285.768 182V175.808H287.712V182H285.768ZM286.74 174.86C286.444 174.86 286.188 174.752 285.972 174.536C285.756 174.32 285.648 174.064 285.648 173.768C285.648 173.464 285.756 173.208 285.972 173C286.188 172.784 286.444 172.676 286.74 172.676C287.044 172.676 287.3 172.784 287.508 173C287.724 173.208 287.832 173.464 287.832 173.768C287.832 174.064 287.724 174.32 287.508 174.536C287.3 174.752 287.044 174.86 286.74 174.86ZM291.073 182.096C290.657 182.096 290.285 182.016 289.957 181.856C289.637 181.696 289.385 181.476 289.201 181.196C289.025 180.916 288.937 180.592 288.937 180.224C288.937 179.84 289.033 179.516 289.225 179.252C289.417 178.98 289.693 178.776 290.053 178.64C290.413 178.496 290.845 178.424 291.349 178.424C291.573 178.424 291.801 178.448 292.033 178.496C292.265 178.536 292.517 178.608 292.789 178.712V178.208C292.789 177.904 292.689 177.68 292.489 177.536C292.289 177.384 291.981 177.308 291.565 177.308C291.333 177.308 291.073 177.344 290.785 177.416C290.505 177.48 290.185 177.588 289.825 177.74L289.153 176.384C290.153 175.936 291.101 175.712 291.997 175.712C292.853 175.712 293.517 175.916 293.989 176.324C294.469 176.732 294.709 177.304 294.709 178.04V182H292.789V181.46C292.517 181.684 292.245 181.848 291.973 181.952C291.701 182.048 291.401 182.096 291.073 182.096ZM290.725 180.188C290.725 180.388 290.809 180.544 290.977 180.656C291.145 180.76 291.377 180.812 291.673 180.812C291.881 180.812 292.077 180.788 292.261 180.74C292.445 180.684 292.621 180.604 292.789 180.5V179.708C292.613 179.668 292.437 179.636 292.261 179.612C292.085 179.588 291.905 179.576 291.721 179.576C291.401 179.576 291.153 179.628 290.977 179.732C290.809 179.836 290.725 179.988 290.725 180.188ZM296.174 182V173.456L298.118 173.156V182H296.174Z" fill="white"/>
<rect x="192" y="155" width="123" height="46" rx="11" stroke="url(#paint5_linear_169_444)" stroke-opacity="0.4" stroke-width="2"/>
<rect x="29" y="154" width="125" height="48" rx="12" fill="url(#paint6_linear_169_444)" fill-opacity="0.3"/>
<path d="M80.0035 182V173.6H82.0675V182H80.0035ZM83.6349 182V175.808H85.5789V176.816C85.8189 176.456 86.1029 176.184 86.4309 176C86.7669 175.808 87.1349 175.712 87.5349 175.712C87.9349 175.712 88.2869 175.804 88.5909 175.988C88.9029 176.164 89.1469 176.412 89.3229 176.732C89.4989 177.044 89.5869 177.408 89.5869 177.824V182H87.6429V178.388C87.6429 178.036 87.5469 177.756 87.3549 177.548C87.1709 177.34 86.9229 177.236 86.6109 177.236C86.4029 177.236 86.2109 177.28 86.0349 177.368C85.8669 177.448 85.7149 177.576 85.5789 177.752V182H83.6349ZM91.7891 182V177.308H90.5051V175.808H91.7891V174.992C91.7891 174.256 92.0011 173.692 92.4251 173.3C92.8491 172.908 93.4611 172.712 94.2611 172.712C94.4291 172.712 94.6091 172.724 94.8011 172.748C95.0011 172.764 95.1651 172.792 95.2931 172.832V174.428C95.1171 174.396 94.9771 174.376 94.8731 174.368C94.7691 174.36 94.6611 174.356 94.5491 174.356C94.2771 174.356 94.0731 174.412 93.9371 174.524C93.8011 174.628 93.7331 174.796 93.7331 175.028V175.808H95.2931V177.308H93.7331V182H91.7891ZM99.1145 182.12C98.4985 182.12 97.9465 181.98 97.4585 181.7C96.9705 181.42 96.5825 181.04 96.2945 180.56C96.0145 180.072 95.8745 179.524 95.8745 178.916C95.8745 178.308 96.0145 177.764 96.2945 177.284C96.5825 176.796 96.9705 176.412 97.4585 176.132C97.9465 175.852 98.4945 175.712 99.1025 175.712C99.7185 175.712 100.267 175.852 100.747 176.132C101.235 176.412 101.619 176.796 101.899 177.284C102.187 177.764 102.331 178.308 102.331 178.916C102.331 179.524 102.187 180.072 101.899 180.56C101.619 181.04 101.235 181.42 100.747 181.7C100.267 181.98 99.7225 182.12 99.1145 182.12ZM99.1025 180.5C99.3665 180.5 99.5985 180.432 99.7985 180.296C99.9985 180.16 100.155 179.972 100.267 179.732C100.379 179.492 100.435 179.22 100.435 178.916C100.435 178.604 100.379 178.332 100.267 178.1C100.155 177.86 99.9985 177.672 99.7985 177.536C99.5985 177.4 99.3665 177.332 99.1025 177.332C98.8465 177.332 98.6145 177.4 98.4065 177.536C98.2065 177.672 98.0505 177.86 97.9385 178.1C97.8265 178.332 97.7705 178.604 97.7705 178.916C97.7705 179.22 97.8265 179.492 97.9385 179.732C98.0505 179.972 98.2065 180.16 98.4065 180.296C98.6145 180.432 98.8465 180.5 99.1025 180.5Z" fill="white"/>
<rect x="30" y="155" width="123" height="46" rx="11" stroke="url(#paint7_linear_169_444)" stroke-opacity="0.4" stroke-width="2"/>
<rect x="353" y="154" width="125" height="48" rx="12" fill="url(#paint8_linear_169_444)" fill-opacity="0.3"/>
<path d="M397.04 182V173.6H401.12C401.696 173.6 402.208 173.716 402.656 173.948C403.104 174.172 403.452 174.488 403.7 174.896C403.956 175.296 404.084 175.756 404.084 176.276C404.084 176.812 403.94 177.288 403.652 177.704C403.372 178.112 402.996 178.42 402.524 178.628L404.288 182H401.984L400.46 178.916H399.104V182H397.04ZM399.104 177.296H400.928C401.248 177.296 401.504 177.204 401.696 177.02C401.896 176.836 401.996 176.596 401.996 176.3C401.996 175.996 401.896 175.756 401.696 175.58C401.504 175.396 401.248 175.304 400.928 175.304H399.104V177.296ZM407.98 182.12C407.372 182.12 406.82 181.98 406.324 181.7C405.836 181.412 405.444 181.028 405.148 180.548C404.86 180.06 404.716 179.516 404.716 178.916C404.716 178.308 404.852 177.764 405.124 177.284C405.396 176.804 405.768 176.424 406.24 176.144C406.712 175.856 407.244 175.712 407.836 175.712C408.436 175.712 408.964 175.852 409.42 176.132C409.876 176.412 410.232 176.8 410.488 177.296C410.752 177.784 410.884 178.348 410.884 178.988V179.408H406.624C406.688 179.64 406.788 179.844 406.924 180.02C407.06 180.196 407.228 180.332 407.428 180.428C407.628 180.524 407.844 180.572 408.076 180.572C408.332 180.572 408.564 180.528 408.772 180.44C408.988 180.352 409.164 180.224 409.3 180.056L410.584 181.124C410.184 181.476 409.78 181.732 409.372 181.892C408.964 182.044 408.5 182.12 407.98 182.12ZM406.624 178.304H409.084C409.028 178.08 408.94 177.888 408.82 177.728C408.7 177.568 408.556 177.444 408.388 177.356C408.22 177.268 408.032 177.224 407.824 177.224C407.624 177.224 407.44 177.268 407.272 177.356C407.112 177.436 406.976 177.556 406.864 177.716C406.76 177.876 406.68 178.072 406.624 178.304ZM414.492 182.12C413.932 182.12 413.408 182.056 412.92 181.928C412.432 181.8 412.008 181.612 411.648 181.364L412.5 180.068C412.948 180.3 413.316 180.464 413.604 180.56C413.9 180.648 414.196 180.692 414.492 180.692C414.772 180.692 414.988 180.648 415.14 180.56C415.3 180.464 415.38 180.34 415.38 180.188C415.38 180.068 415.332 179.972 415.236 179.9C415.148 179.828 415.004 179.776 414.804 179.744L413.616 179.528C413.016 179.416 412.56 179.208 412.248 178.904C411.944 178.6 411.792 178.208 411.792 177.728C411.792 177.304 411.896 176.944 412.104 176.648C412.312 176.344 412.608 176.112 412.992 175.952C413.384 175.792 413.848 175.712 414.384 175.712C414.816 175.712 415.244 175.772 415.668 175.892C416.092 176.012 416.504 176.188 416.904 176.42L416.016 177.656C415.704 177.472 415.4 177.34 415.104 177.26C414.816 177.172 414.528 177.128 414.24 177.128C414.008 177.128 413.824 177.164 413.688 177.236C413.56 177.308 413.496 177.412 413.496 177.548C413.496 177.676 413.54 177.772 413.628 177.836C413.724 177.9 413.892 177.952 414.132 177.992L415.296 178.208C415.912 178.32 416.376 178.528 416.688 178.832C417 179.136 417.156 179.524 417.156 179.996C417.156 180.396 417.04 180.76 416.808 181.088C416.576 181.408 416.26 181.66 415.86 181.844C415.46 182.028 415.004 182.12 414.492 182.12ZM420.285 182.096C419.885 182.096 419.529 182.008 419.217 181.832C418.913 181.648 418.673 181.4 418.497 181.088C418.321 180.768 418.233 180.4 418.233 179.984V175.808H420.177V179.42C420.177 179.764 420.269 180.044 420.453 180.26C420.645 180.468 420.897 180.572 421.209 180.572C421.417 180.572 421.605 180.532 421.773 180.452C421.949 180.364 422.105 180.232 422.241 180.056V175.808H424.185V182H422.241V180.992C422.001 181.352 421.713 181.628 421.377 181.82C421.049 182.004 420.685 182.096 420.285 182.096ZM425.699 182V173.456L427.643 173.156V182H425.699ZM432.192 182.12C431.464 182.12 430.912 181.952 430.536 181.616C430.16 181.28 429.972 180.784 429.972 180.128V177.308H428.772V175.808H429.972V174.092L431.916 173.696V175.808H433.572V177.308H431.916V179.744C431.916 180.016 431.976 180.208 432.096 180.32C432.224 180.432 432.436 180.488 432.732 180.488C432.844 180.488 432.956 180.48 433.068 180.464C433.18 180.448 433.332 180.412 433.524 180.356V181.928C433.348 181.984 433.132 182.028 432.876 182.06C432.62 182.1 432.392 182.12 432.192 182.12Z" fill="white"/>
<rect x="354" y="155" width="123" height="46" rx="11" stroke="url(#paint9_linear_169_444)" stroke-opacity="0.4" stroke-width="2"/>
<rect x="191" y="226" width="125" height="48" rx="12" fill="url(#paint10_linear_169_444)" fill-opacity="0.3"/>
<path d="M205.504 254L202.276 245.6H204.508L206.728 251.852L208.984 245.6H211.132L207.856 254H205.504ZM214.07 254.12C213.462 254.12 212.91 253.98 212.414 253.7C211.926 253.412 211.534 253.028 211.238 252.548C210.95 252.06 210.806 251.516 210.806 250.916C210.806 250.308 210.942 249.764 211.214 249.284C211.486 248.804 211.858 248.424 212.33 248.144C212.802 247.856 213.334 247.712 213.926 247.712C214.526 247.712 215.054 247.852 215.51 248.132C215.966 248.412 216.322 248.8 216.578 249.296C216.842 249.784 216.974 250.348 216.974 250.988V251.408H212.714C212.778 251.64 212.878 251.844 213.014 252.02C213.15 252.196 213.318 252.332 213.518 252.428C213.718 252.524 213.934 252.572 214.166 252.572C214.422 252.572 214.654 252.528 214.862 252.44C215.078 252.352 215.254 252.224 215.39 252.056L216.674 253.124C216.274 253.476 215.87 253.732 215.462 253.892C215.054 254.044 214.59 254.12 214.07 254.12ZM212.714 250.304H215.174C215.118 250.08 215.03 249.888 214.91 249.728C214.79 249.568 214.646 249.444 214.478 249.356C214.31 249.268 214.122 249.224 213.914 249.224C213.714 249.224 213.53 249.268 213.362 249.356C213.202 249.436 213.066 249.556 212.954 249.716C212.85 249.876 212.77 250.072 212.714 250.304ZM218.184 254V247.808H220.128V249.212C220.328 248.692 220.564 248.308 220.836 248.06C221.116 247.812 221.44 247.688 221.808 247.688C221.944 247.696 222.056 247.708 222.144 247.724C222.232 247.74 222.336 247.78 222.456 247.844V249.512C222.336 249.448 222.196 249.4 222.036 249.368C221.876 249.336 221.712 249.32 221.544 249.32C221.256 249.32 220.988 249.392 220.74 249.536C220.492 249.672 220.288 249.856 220.128 250.088V254H218.184ZM223.492 254V247.808H225.436V254H223.492ZM224.464 246.86C224.168 246.86 223.912 246.752 223.696 246.536C223.48 246.32 223.372 246.064 223.372 245.768C223.372 245.464 223.48 245.208 223.696 245C223.912 244.784 224.168 244.676 224.464 244.676C224.768 244.676 225.024 244.784 225.232 245C225.448 245.208 225.556 245.464 225.556 245.768C225.556 246.064 225.448 246.32 225.232 246.536C225.024 246.752 224.768 246.86 224.464 246.86ZM227.861 254V249.308H226.577V247.808H227.861V246.992C227.861 246.256 228.073 245.692 228.497 245.3C228.921 244.908 229.533 244.712 230.333 244.712C230.501 244.712 230.681 244.724 230.873 244.748C231.073 244.764 231.237 244.792 231.365 244.832V246.428C231.189 246.396 231.049 246.376 230.945 246.368C230.841 246.36 230.733 246.356 230.621 246.356C230.349 246.356 230.145 246.412 230.009 246.524C229.873 246.628 229.805 246.796 229.805 247.028V247.808H231.365V249.308H229.805V254H227.861ZM233.258 256.628C233.002 256.628 232.734 256.596 232.454 256.532V254.9C232.526 254.908 232.61 254.916 232.706 254.924C232.81 254.94 232.918 254.948 233.03 254.948C233.294 254.948 233.502 254.892 233.654 254.78C233.814 254.676 233.942 254.524 234.038 254.324L234.134 254.12L231.854 247.808H234.002L235.238 251.804L236.654 247.808H238.754L235.97 254.696C235.778 255.168 235.562 255.544 235.322 255.824C235.09 256.112 234.806 256.316 234.47 256.436C234.142 256.564 233.738 256.628 233.258 256.628ZM246.384 254.132C245.76 254.132 245.18 254.024 244.644 253.808C244.108 253.584 243.636 253.276 243.228 252.884C242.828 252.492 242.516 252.032 242.292 251.504C242.068 250.976 241.956 250.408 241.956 249.8C241.956 249.184 242.068 248.616 242.292 248.096C242.516 247.568 242.828 247.108 243.228 246.716C243.636 246.324 244.108 246.02 244.644 245.804C245.18 245.58 245.76 245.468 246.384 245.468C246.832 245.468 247.268 245.536 247.692 245.672C248.124 245.8 248.52 245.988 248.88 246.236C249.248 246.476 249.552 246.764 249.792 247.1L248.4 248.42C248.128 248.044 247.824 247.764 247.488 247.58C247.152 247.396 246.784 247.304 246.384 247.304C246.056 247.304 245.752 247.368 245.472 247.496C245.2 247.616 244.96 247.792 244.752 248.024C244.544 248.248 244.38 248.512 244.26 248.816C244.148 249.112 244.092 249.44 244.092 249.8C244.092 250.16 244.148 250.492 244.26 250.796C244.38 251.092 244.544 251.356 244.752 251.588C244.96 251.812 245.2 251.988 245.472 252.116C245.752 252.236 246.056 252.296 246.384 252.296C246.784 252.296 247.152 252.204 247.488 252.02C247.824 251.828 248.128 251.548 248.4 251.18L249.792 252.5C249.552 252.828 249.248 253.116 248.88 253.364C248.52 253.612 248.124 253.804 247.692 253.94C247.268 254.068 246.832 254.132 246.384 254.132ZM250.809 254V247.808H252.753V249.212C252.953 248.692 253.189 248.308 253.461 248.06C253.741 247.812 254.065 247.688 254.433 247.688C254.569 247.696 254.681 247.708 254.769 247.724C254.857 247.74 254.961 247.78 255.081 247.844V249.512C254.961 249.448 254.821 249.4 254.661 249.368C254.501 249.336 254.337 249.32 254.169 249.32C253.881 249.32 253.613 249.392 253.365 249.536C253.117 249.672 252.913 249.856 252.753 250.088V254H250.809ZM258.918 254.12C258.31 254.12 257.758 253.98 257.262 253.7C256.774 253.412 256.382 253.028 256.086 252.548C255.798 252.06 255.654 251.516 255.654 250.916C255.654 250.308 255.79 249.764 256.062 249.284C256.334 248.804 256.706 248.424 257.178 248.144C257.65 247.856 258.182 247.712 258.774 247.712C259.374 247.712 259.902 247.852 260.358 248.132C260.814 248.412 261.17 248.8 261.426 249.296C261.69 249.784 261.822 250.348 261.822 250.988V251.408H257.562C257.626 251.64 257.726 251.844 257.862 252.02C257.998 252.196 258.166 252.332 258.366 252.428C258.566 252.524 258.782 252.572 259.014 252.572C259.27 252.572 259.502 252.528 259.71 252.44C259.926 252.352 260.102 252.224 260.238 252.056L261.522 253.124C261.122 253.476 260.718 253.732 260.31 253.892C259.902 254.044 259.438 254.12 258.918 254.12ZM257.562 250.304H260.022C259.966 250.08 259.878 249.888 259.758 249.728C259.638 249.568 259.494 249.444 259.326 249.356C259.158 249.268 258.97 249.224 258.762 249.224C258.562 249.224 258.378 249.268 258.21 249.356C258.05 249.436 257.914 249.556 257.802 249.716C257.698 249.876 257.618 250.072 257.562 250.304ZM265.55 254.036C265.046 254.036 264.586 253.896 264.17 253.616C263.754 253.328 263.422 252.948 263.174 252.476C262.934 251.996 262.814 251.468 262.814 250.892C262.814 250.308 262.942 249.784 263.198 249.32C263.454 248.848 263.798 248.472 264.23 248.192C264.67 247.912 265.158 247.772 265.694 247.772C266.022 247.772 266.326 247.836 266.606 247.964C266.894 248.092 267.142 248.276 267.35 248.516V245.456L269.294 245.156V254H267.374V253.196C267.174 253.452 266.91 253.656 266.582 253.808C266.262 253.96 265.918 254.036 265.55 254.036ZM266.198 252.428C266.43 252.428 266.642 252.388 266.834 252.308C267.026 252.22 267.198 252.096 267.35 251.936V249.848C267.198 249.688 267.022 249.568 266.822 249.488C266.63 249.408 266.422 249.368 266.198 249.368C265.918 249.368 265.666 249.436 265.442 249.572C265.218 249.7 265.042 249.88 264.914 250.112C264.786 250.344 264.722 250.608 264.722 250.904C264.722 251.192 264.786 251.452 264.914 251.684C265.042 251.916 265.218 252.1 265.442 252.236C265.666 252.364 265.918 252.428 266.198 252.428ZM273.789 254.12C273.181 254.12 272.629 253.98 272.133 253.7C271.645 253.412 271.253 253.028 270.957 252.548C270.669 252.06 270.525 251.516 270.525 250.916C270.525 250.308 270.661 249.764 270.933 249.284C271.205 248.804 271.577 248.424 272.049 248.144C272.521 247.856 273.053 247.712 273.645 247.712C274.245 247.712 274.773 247.852 275.229 248.132C275.685 248.412 276.041 248.8 276.297 249.296C276.561 249.784 276.693 250.348 276.693 250.988V251.408H272.433C272.497 251.64 272.597 251.844 272.733 252.02C272.869 252.196 273.037 252.332 273.237 252.428C273.437 252.524 273.653 252.572 273.885 252.572C274.141 252.572 274.373 252.528 274.581 252.44C274.797 252.352 274.973 252.224 275.109 252.056L276.393 253.124C275.993 253.476 275.589 253.732 275.181 253.892C274.773 254.044 274.309 254.12 273.789 254.12ZM272.433 250.304H274.893C274.837 250.08 274.749 249.888 274.629 249.728C274.509 249.568 274.365 249.444 274.197 249.356C274.029 249.268 273.841 249.224 273.633 249.224C273.433 249.224 273.249 249.268 273.081 249.356C272.921 249.436 272.785 249.556 272.673 249.716C272.569 249.876 272.489 250.072 272.433 250.304ZM277.902 254V247.808H279.846V248.816C280.086 248.456 280.37 248.184 280.698 248C281.034 247.808 281.402 247.712 281.802 247.712C282.202 247.712 282.554 247.804 282.858 247.988C283.17 248.164 283.414 248.412 283.59 248.732C283.766 249.044 283.854 249.408 283.854 249.824V254H281.91V250.388C281.91 250.036 281.814 249.756 281.622 249.548C281.438 249.34 281.19 249.236 280.878 249.236C280.67 249.236 280.478 249.28 280.302 249.368C280.134 249.448 279.982 249.576 279.846 249.752V254H277.902ZM288.181 254.12C287.453 254.12 286.901 253.952 286.525 253.616C286.149 253.28 285.961 252.784 285.961 252.128V249.308H284.761V247.808H285.961V246.092L287.905 245.696V247.808H289.561V249.308H287.905V251.744C287.905 252.016 287.965 252.208 288.085 252.32C288.213 252.432 288.425 252.488 288.721 252.488C288.833 252.488 288.945 252.48 289.057 252.464C289.169 252.448 289.321 252.412 289.513 252.356V253.928C289.337 253.984 289.121 254.028 288.865 254.06C288.609 254.1 288.381 254.12 288.181 254.12ZM290.641 254V247.808H292.585V254H290.641ZM291.613 246.86C291.317 246.86 291.061 246.752 290.845 246.536C290.629 246.32 290.521 246.064 290.521 245.768C290.521 245.464 290.629 245.208 290.845 245C291.061 244.784 291.317 244.676 291.613 244.676C291.917 244.676 292.173 244.784 292.381 245C292.597 245.208 292.705 245.464 292.705 245.768C292.705 246.064 292.597 246.32 292.381 246.536C292.173 246.752 291.917 246.86 291.613 246.86ZM295.946 254.096C295.53 254.096 295.158 254.016 294.83 253.856C294.51 253.696 294.258 253.476 294.074 253.196C293.898 252.916 293.81 252.592 293.81 252.224C293.81 251.84 293.906 251.516 294.098 251.252C294.29 250.98 294.566 250.776 294.926 250.64C295.286 250.496 295.718 250.424 296.222 250.424C296.446 250.424 296.674 250.448 296.906 250.496C297.138 250.536 297.39 250.608 297.662 250.712V250.208C297.662 249.904 297.562 249.68 297.362 249.536C297.162 249.384 296.854 249.308 296.438 249.308C296.206 249.308 295.946 249.344 295.658 249.416C295.378 249.48 295.058 249.588 294.698 249.74L294.026 248.384C295.026 247.936 295.974 247.712 296.87 247.712C297.726 247.712 298.39 247.916 298.862 248.324C299.342 248.732 299.582 249.304 299.582 250.04V254H297.662V253.46C297.39 253.684 297.118 253.848 296.846 253.952C296.574 254.048 296.274 254.096 295.946 254.096ZM295.598 252.188C295.598 252.388 295.682 252.544 295.85 252.656C296.018 252.76 296.25 252.812 296.546 252.812C296.754 252.812 296.95 252.788 297.134 252.74C297.318 252.684 297.494 252.604 297.662 252.5V251.708C297.486 251.668 297.31 251.636 297.134 251.612C296.958 251.588 296.778 251.576 296.594 251.576C296.274 251.576 296.026 251.628 295.85 251.732C295.682 251.836 295.598 251.988 295.598 252.188ZM301.047 254V245.456L302.991 245.156V254H301.047Z" fill="white"/>
<rect x="192" y="227" width="123" height="46" rx="11" stroke="url(#paint11_linear_169_444)" stroke-opacity="0.4" stroke-width="2"/>
<rect x="29" y="226" width="125" height="48" rx="12" fill="url(#paint12_linear_169_444)" fill-opacity="0.3"/>
<path d="M69.8609 254V245.6H71.9249V248.864H75.3209V245.6H77.3849V254H75.3209V250.676H71.9249V254H69.8609ZM78.9533 254V247.808H80.8973V254H78.9533ZM79.9253 246.86C79.6293 246.86 79.3733 246.752 79.1573 246.536C78.9413 246.32 78.8333 246.064 78.8333 245.768C78.8333 245.464 78.9413 245.208 79.1573 245C79.3733 244.784 79.6293 244.676 79.9253 244.676C80.2293 244.676 80.4853 244.784 80.6933 245C80.9093 245.208 81.0173 245.464 81.0173 245.768C81.0173 246.064 80.9093 246.32 80.6933 246.536C80.4853 246.752 80.2293 246.86 79.9253 246.86ZM84.7503 254.12C84.1903 254.12 83.6663 254.056 83.1783 253.928C82.6903 253.8 82.2663 253.612 81.9063 253.364L82.7583 252.068C83.2063 252.3 83.5743 252.464 83.8623 252.56C84.1583 252.648 84.4543 252.692 84.7503 252.692C85.0303 252.692 85.2463 252.648 85.3983 252.56C85.5583 252.464 85.6383 252.34 85.6383 252.188C85.6383 252.068 85.5903 251.972 85.4943 251.9C85.4063 251.828 85.2623 251.776 85.0623 251.744L83.8743 251.528C83.2743 251.416 82.8183 251.208 82.5063 250.904C82.2023 250.6 82.0503 250.208 82.0503 249.728C82.0503 249.304 82.1543 248.944 82.3623 248.648C82.5703 248.344 82.8663 248.112 83.2503 247.952C83.6423 247.792 84.1063 247.712 84.6423 247.712C85.0743 247.712 85.5023 247.772 85.9263 247.892C86.3503 248.012 86.7623 248.188 87.1623 248.42L86.2743 249.656C85.9623 249.472 85.6583 249.34 85.3623 249.26C85.0743 249.172 84.7863 249.128 84.4983 249.128C84.2663 249.128 84.0823 249.164 83.9463 249.236C83.8183 249.308 83.7543 249.412 83.7543 249.548C83.7543 249.676 83.7983 249.772 83.8863 249.836C83.9823 249.9 84.1503 249.952 84.3903 249.992L85.5543 250.208C86.1703 250.32 86.6343 250.528 86.9463 250.832C87.2583 251.136 87.4143 251.524 87.4143 251.996C87.4143 252.396 87.2983 252.76 87.0663 253.088C86.8343 253.408 86.5183 253.66 86.1183 253.844C85.7183 254.028 85.2623 254.12 84.7503 254.12ZM91.458 254.12C90.73 254.12 90.178 253.952 89.802 253.616C89.426 253.28 89.238 252.784 89.238 252.128V249.308H88.038V247.808H89.238V246.092L91.182 245.696V247.808H92.838V249.308H91.182V251.744C91.182 252.016 91.242 252.208 91.362 252.32C91.49 252.432 91.702 252.488 91.998 252.488C92.11 252.488 92.222 252.48 92.334 252.464C92.446 252.448 92.598 252.412 92.79 252.356V253.928C92.614 253.984 92.398 254.028 92.142 254.06C91.886 254.1 91.658 254.12 91.458 254.12ZM96.8235 254.12C96.2075 254.12 95.6555 253.98 95.1675 253.7C94.6795 253.42 94.2915 253.04 94.0035 252.56C93.7235 252.072 93.5835 251.524 93.5835 250.916C93.5835 250.308 93.7235 249.764 94.0035 249.284C94.2915 248.796 94.6795 248.412 95.1675 248.132C95.6555 247.852 96.2035 247.712 96.8115 247.712C97.4275 247.712 97.9755 247.852 98.4555 248.132C98.9435 248.412 99.3275 248.796 99.6075 249.284C99.8955 249.764 100.04 250.308 100.04 250.916C100.04 251.524 99.8955 252.072 99.6075 252.56C99.3275 253.04 98.9435 253.42 98.4555 253.7C97.9755 253.98 97.4315 254.12 96.8235 254.12ZM96.8115 252.5C97.0755 252.5 97.3075 252.432 97.5075 252.296C97.7075 252.16 97.8635 251.972 97.9755 251.732C98.0875 251.492 98.1435 251.22 98.1435 250.916C98.1435 250.604 98.0875 250.332 97.9755 250.1C97.8635 249.86 97.7075 249.672 97.5075 249.536C97.3075 249.4 97.0755 249.332 96.8115 249.332C96.5555 249.332 96.3235 249.4 96.1155 249.536C95.9155 249.672 95.7595 249.86 95.6475 250.1C95.5355 250.332 95.4795 250.604 95.4795 250.916C95.4795 251.22 95.5355 251.492 95.6475 251.732C95.7595 251.972 95.9155 252.16 96.1155 252.296C96.3235 252.432 96.5555 252.5 96.8115 252.5ZM101.277 254V247.808H103.221V249.212C103.421 248.692 103.657 248.308 103.929 248.06C104.209 247.812 104.533 247.688 104.901 247.688C105.037 247.696 105.149 247.708 105.237 247.724C105.325 247.74 105.429 247.78 105.549 247.844V249.512C105.429 249.448 105.289 249.4 105.129 249.368C104.969 249.336 104.805 249.32 104.637 249.32C104.349 249.32 104.081 249.392 103.833 249.536C103.585 249.672 103.381 249.856 103.221 250.088V254H101.277ZM107.375 256.628C107.119 256.628 106.851 256.596 106.571 256.532V254.9C106.643 254.908 106.727 254.916 106.823 254.924C106.927 254.94 107.035 254.948 107.147 254.948C107.411 254.948 107.619 254.892 107.771 254.78C107.931 254.676 108.059 254.524 108.155 254.324L108.251 254.12L105.971 247.808H108.119L109.355 251.804L110.771 247.808H112.871L110.087 254.696C109.895 255.168 109.679 255.544 109.439 255.824C109.207 256.112 108.923 256.316 108.587 256.436C108.259 256.564 107.855 256.628 107.375 256.628Z" fill="white"/>
<rect x="30" y="227" width="123" height="46" rx="11" stroke="url(#paint13_linear_169_444)" stroke-opacity="0.4" stroke-width="2"/>
<rect x="353" y="226" width="125" height="48" rx="12" fill="url(#paint14_linear_169_444)" fill-opacity="0.3"/>
<path d="M393.861 254V245.6H395.925V248.864H399.321V245.6H401.385V254H399.321V250.676H395.925V254H393.861ZM402.953 254V247.808H404.897V254H402.953ZM403.925 246.86C403.629 246.86 403.373 246.752 403.157 246.536C402.941 246.32 402.833 246.064 402.833 245.768C402.833 245.464 402.941 245.208 403.157 245C403.373 244.784 403.629 244.676 403.925 244.676C404.229 244.676 404.485 244.784 404.693 245C404.909 245.208 405.017 245.464 405.017 245.768C405.017 246.064 404.909 246.32 404.693 246.536C404.485 246.752 404.229 246.86 403.925 246.86ZM408.75 254.12C408.19 254.12 407.666 254.056 407.178 253.928C406.69 253.8 406.266 253.612 405.906 253.364L406.758 252.068C407.206 252.3 407.574 252.464 407.862 252.56C408.158 252.648 408.454 252.692 408.75 252.692C409.03 252.692 409.246 252.648 409.398 252.56C409.558 252.464 409.638 252.34 409.638 252.188C409.638 252.068 409.59 251.972 409.494 251.9C409.406 251.828 409.262 251.776 409.062 251.744L407.874 251.528C407.274 251.416 406.818 251.208 406.506 250.904C406.202 250.6 406.05 250.208 406.05 249.728C406.05 249.304 406.154 248.944 406.362 248.648C406.57 248.344 406.866 248.112 407.25 247.952C407.642 247.792 408.106 247.712 408.642 247.712C409.074 247.712 409.502 247.772 409.926 247.892C410.35 248.012 410.762 248.188 411.162 248.42L410.274 249.656C409.962 249.472 409.658 249.34 409.362 249.26C409.074 249.172 408.786 249.128 408.498 249.128C408.266 249.128 408.082 249.164 407.946 249.236C407.818 249.308 407.754 249.412 407.754 249.548C407.754 249.676 407.798 249.772 407.886 249.836C407.982 249.9 408.15 249.952 408.39 249.992L409.554 250.208C410.17 250.32 410.634 250.528 410.946 250.832C411.258 251.136 411.414 251.524 411.414 251.996C411.414 252.396 411.298 252.76 411.066 253.088C410.834 253.408 410.518 253.66 410.118 253.844C409.718 254.028 409.262 254.12 408.75 254.12ZM415.458 254.12C414.73 254.12 414.178 253.952 413.802 253.616C413.426 253.28 413.238 252.784 413.238 252.128V249.308H412.038V247.808H413.238V246.092L415.182 245.696V247.808H416.838V249.308H415.182V251.744C415.182 252.016 415.242 252.208 415.362 252.32C415.49 252.432 415.702 252.488 415.998 252.488C416.11 252.488 416.222 252.48 416.334 252.464C416.446 252.448 416.598 252.412 416.79 252.356V253.928C416.614 253.984 416.398 254.028 416.142 254.06C415.886 254.1 415.658 254.12 415.458 254.12ZM420.824 254.12C420.208 254.12 419.656 253.98 419.168 253.7C418.68 253.42 418.292 253.04 418.004 252.56C417.724 252.072 417.584 251.524 417.584 250.916C417.584 250.308 417.724 249.764 418.004 249.284C418.292 248.796 418.68 248.412 419.168 248.132C419.656 247.852 420.204 247.712 420.812 247.712C421.428 247.712 421.976 247.852 422.456 248.132C422.944 248.412 423.328 248.796 423.608 249.284C423.896 249.764 424.04 250.308 424.04 250.916C424.04 251.524 423.896 252.072 423.608 252.56C423.328 253.04 422.944 253.42 422.456 253.7C421.976 253.98 421.432 254.12 420.824 254.12ZM420.812 252.5C421.076 252.5 421.308 252.432 421.508 252.296C421.708 252.16 421.864 251.972 421.976 251.732C422.088 251.492 422.144 251.22 422.144 250.916C422.144 250.604 422.088 250.332 421.976 250.1C421.864 249.86 421.708 249.672 421.508 249.536C421.308 249.4 421.076 249.332 420.812 249.332C420.556 249.332 420.324 249.4 420.116 249.536C419.916 249.672 419.76 249.86 419.648 250.1C419.536 250.332 419.48 250.604 419.48 250.916C419.48 251.22 419.536 251.492 419.648 251.732C419.76 251.972 419.916 252.16 420.116 252.296C420.324 252.432 420.556 252.5 420.812 252.5ZM425.277 254V247.808H427.221V249.212C427.421 248.692 427.657 248.308 427.929 248.06C428.209 247.812 428.533 247.688 428.901 247.688C429.037 247.696 429.149 247.708 429.237 247.724C429.325 247.74 429.429 247.78 429.549 247.844V249.512C429.429 249.448 429.289 249.4 429.129 249.368C428.969 249.336 428.805 249.32 428.637 249.32C428.349 249.32 428.081 249.392 427.833 249.536C427.585 249.672 427.381 249.856 427.221 250.088V254H425.277ZM431.375 256.628C431.119 256.628 430.851 256.596 430.571 256.532V254.9C430.643 254.908 430.727 254.916 430.823 254.924C430.927 254.94 431.035 254.948 431.147 254.948C431.411 254.948 431.619 254.892 431.771 254.78C431.931 254.676 432.059 254.524 432.155 254.324L432.251 254.12L429.971 247.808H432.119L433.355 251.804L434.771 247.808H436.871L434.087 254.696C433.895 255.168 433.679 255.544 433.439 255.824C433.207 256.112 432.923 256.316 432.587 256.436C432.259 256.564 431.855 256.628 431.375 256.628Z" fill="white"/>
<rect x="354" y="227" width="123" height="46" rx="11" stroke="url(#paint15_linear_169_444)" stroke-opacity="0.4" stroke-width="2"/>
<rect y="82" width="144" height="48" rx="12" fill="url(#paint16_linear_169_444)" fill-opacity="0.3"/>
<path d="M31.9834 111.176C31.1514 111.176 30.378 111.032 29.6634 110.744C28.9487 110.445 28.3194 110.035 27.7754 109.512C27.242 108.989 26.826 108.376 26.5274 107.672C26.2287 106.968 26.0794 106.211 26.0794 105.4C26.0794 104.579 26.2287 103.821 26.5274 103.128C26.826 102.424 27.242 101.811 27.7754 101.288C28.3194 100.765 28.9487 100.36 29.6634 100.072C30.378 99.7733 31.1514 99.624 31.9834 99.624C32.5807 99.624 33.162 99.7147 33.7274 99.896C34.3034 100.067 34.8314 100.317 35.3114 100.648C35.802 100.968 36.2074 101.352 36.5274 101.8L34.6714 103.56C34.3087 103.059 33.9034 102.685 33.4554 102.44C33.0074 102.195 32.5167 102.072 31.9834 102.072C31.546 102.072 31.1407 102.157 30.7674 102.328C30.4047 102.488 30.0847 102.723 29.8074 103.032C29.53 103.331 29.3114 103.683 29.1514 104.088C29.002 104.483 28.9274 104.92 28.9274 105.4C28.9274 105.88 29.002 106.323 29.1514 106.728C29.3114 107.123 29.53 107.475 29.8074 107.784C30.0847 108.083 30.4047 108.317 30.7674 108.488C31.1407 108.648 31.546 108.728 31.9834 108.728C32.5167 108.728 33.0074 108.605 33.4554 108.36C33.9034 108.104 34.3087 107.731 34.6714 107.24L36.5274 109C36.2074 109.437 35.802 109.821 35.3114 110.152C34.8314 110.483 34.3034 110.739 33.7274 110.92C33.162 111.091 32.5807 111.176 31.9834 111.176ZM37.883 111V102.744H40.475V104.616C40.7417 103.923 41.0563 103.411 41.419 103.08C41.7923 102.749 42.2243 102.584 42.715 102.584C42.8963 102.595 43.0457 102.611 43.163 102.632C43.2803 102.653 43.419 102.707 43.579 102.792V105.016C43.419 104.931 43.2323 104.867 43.019 104.824C42.8057 104.781 42.587 104.76 42.363 104.76C41.979 104.76 41.6217 104.856 41.291 105.048C40.9603 105.229 40.6883 105.475 40.475 105.784V111H37.883ZM48.6951 111.16C47.8845 111.16 47.1485 110.973 46.4871 110.6C45.8365 110.216 45.3138 109.704 44.9191 109.064C44.5351 108.413 44.3431 107.688 44.3431 106.888C44.3431 106.077 44.5245 105.352 44.8871 104.712C45.2498 104.072 45.7458 103.565 46.3751 103.192C47.0045 102.808 47.7138 102.616 48.5031 102.616C49.3031 102.616 50.0071 102.803 50.6151 103.176C51.2231 103.549 51.6978 104.067 52.0391 104.728C52.3911 105.379 52.5671 106.131 52.5671 106.984V107.544H46.8871C46.9725 107.853 47.1058 108.125 47.2871 108.36C47.4685 108.595 47.6925 108.776 47.9591 108.904C48.2258 109.032 48.5138 109.096 48.8231 109.096C49.1645 109.096 49.4738 109.037 49.7511 108.92C50.0391 108.803 50.2738 108.632 50.4551 108.408L52.1671 109.832C51.6338 110.301 51.0951 110.643 50.5511 110.856C50.0071 111.059 49.3885 111.16 48.6951 111.16ZM46.8871 106.072H50.1671C50.0925 105.773 49.9751 105.517 49.8151 105.304C49.6551 105.091 49.4631 104.925 49.2391 104.808C49.0151 104.691 48.7645 104.632 48.4871 104.632C48.2205 104.632 47.9751 104.691 47.7511 104.808C47.5378 104.915 47.3565 105.075 47.2071 105.288C47.0685 105.501 46.9618 105.763 46.8871 106.072ZM57.538 111.048C56.866 111.048 56.2527 110.861 55.698 110.488C55.1433 110.104 54.7007 109.597 54.37 108.968C54.05 108.328 53.89 107.624 53.89 106.856C53.89 106.077 54.0607 105.379 54.402 104.76C54.7433 104.131 55.202 103.629 55.778 103.256C56.3647 102.883 57.0153 102.696 57.73 102.696C58.1673 102.696 58.5727 102.781 58.946 102.952C59.33 103.123 59.6607 103.368 59.938 103.688V99.608L62.53 99.208V111H59.97V109.928C59.7033 110.269 59.3513 110.541 58.914 110.744C58.4873 110.947 58.0287 111.048 57.538 111.048ZM58.402 108.904C58.7113 108.904 58.994 108.851 59.25 108.744C59.506 108.627 59.7353 108.461 59.938 108.248V105.464C59.7353 105.251 59.5007 105.091 59.234 104.984C58.978 104.877 58.7007 104.824 58.402 104.824C58.0287 104.824 57.6927 104.915 57.394 105.096C57.0953 105.267 56.8607 105.507 56.69 105.816C56.5193 106.125 56.434 106.477 56.434 106.872C56.434 107.256 56.5193 107.603 56.69 107.912C56.8607 108.221 57.0953 108.467 57.394 108.648C57.6927 108.819 58.0287 108.904 58.402 108.904ZM68.5233 111.16C67.7126 111.16 66.9766 110.973 66.3153 110.6C65.6646 110.216 65.1419 109.704 64.7473 109.064C64.3633 108.413 64.1713 107.688 64.1713 106.888C64.1713 106.077 64.3526 105.352 64.7153 104.712C65.0779 104.072 65.5739 103.565 66.2033 103.192C66.8326 102.808 67.5419 102.616 68.3313 102.616C69.1313 102.616 69.8353 102.803 70.4433 103.176C71.0513 103.549 71.5259 104.067 71.8673 104.728C72.2193 105.379 72.3953 106.131 72.3953 106.984V107.544H66.7153C66.8006 107.853 66.9339 108.125 67.1153 108.36C67.2966 108.595 67.5206 108.776 67.7873 108.904C68.0539 109.032 68.3419 109.096 68.6513 109.096C68.9926 109.096 69.3019 109.037 69.5793 108.92C69.8673 108.803 70.1019 108.632 70.2833 108.408L71.9953 109.832C71.4619 110.301 70.9233 110.643 70.3793 110.856C69.8353 111.059 69.2166 111.16 68.5233 111.16ZM66.7153 106.072H69.9953C69.9206 105.773 69.8033 105.517 69.6433 105.304C69.4833 105.091 69.2913 104.925 69.0673 104.808C68.8433 104.691 68.5926 104.632 68.3153 104.632C68.0486 104.632 67.8033 104.691 67.5793 104.808C67.3659 104.915 67.1846 105.075 67.0353 105.288C66.8966 105.501 66.7899 105.763 66.7153 106.072ZM74.008 111V102.744H76.6V104.088C76.92 103.608 77.2987 103.245 77.736 103C78.184 102.744 78.6747 102.616 79.208 102.616C79.7413 102.616 80.2107 102.739 80.616 102.984C81.032 103.219 81.3573 103.549 81.592 103.976C81.8267 104.392 81.944 104.877 81.944 105.432V111H79.352V106.184C79.352 105.715 79.224 105.341 78.968 105.064C78.7227 104.787 78.392 104.648 77.976 104.648C77.6987 104.648 77.4427 104.707 77.208 104.824C76.984 104.931 76.7813 105.101 76.6 105.336V111H74.008ZM87.7123 111.16C86.7416 111.16 86.0056 110.936 85.5043 110.488C85.0029 110.04 84.7523 109.379 84.7523 108.504V104.744H83.1523V102.744H84.7523V100.456L87.3443 99.928V102.744H89.5523V104.744H87.3443V107.992C87.3443 108.355 87.4243 108.611 87.5843 108.76C87.7549 108.909 88.0376 108.984 88.4323 108.984C88.5816 108.984 88.7309 108.973 88.8803 108.952C89.0296 108.931 89.2323 108.883 89.4883 108.808V110.904C89.2536 110.979 88.9656 111.037 88.6243 111.08C88.2829 111.133 87.9789 111.16 87.7123 111.16ZM90.9924 111V102.744H93.5844V111H90.9924ZM92.2884 101.48C91.8937 101.48 91.5524 101.336 91.2644 101.048C90.9764 100.76 90.8324 100.419 90.8324 100.024C90.8324 99.6187 90.9764 99.2773 91.2644 99C91.5524 98.712 91.8937 98.568 92.2884 98.568C92.6937 98.568 93.035 98.712 93.3124 99C93.6004 99.2773 93.7444 99.6187 93.7444 100.024C93.7444 100.419 93.6004 100.76 93.3124 101.048C93.035 101.336 92.6937 101.48 92.2884 101.48ZM98.0658 111.128C97.5111 111.128 97.0151 111.021 96.5778 110.808C96.1511 110.595 95.8151 110.301 95.5698 109.928C95.3351 109.555 95.2178 109.123 95.2178 108.632C95.2178 108.12 95.3458 107.688 95.6018 107.336C95.8578 106.973 96.2258 106.701 96.7057 106.52C97.1858 106.328 97.7618 106.232 98.4338 106.232C98.7324 106.232 99.0364 106.264 99.3458 106.328C99.6551 106.381 99.9911 106.477 100.354 106.616V105.944C100.354 105.539 100.22 105.24 99.9538 105.048C99.6871 104.845 99.2764 104.744 98.7218 104.744C98.4124 104.744 98.0658 104.792 97.6818 104.888C97.3084 104.973 96.8818 105.117 96.4018 105.32L95.5058 103.512C96.8391 102.915 98.1031 102.616 99.2977 102.616C100.439 102.616 101.324 102.888 101.954 103.432C102.594 103.976 102.914 104.739 102.914 105.72V111H100.354V110.28C99.9911 110.579 99.6284 110.797 99.2658 110.936C98.9031 111.064 98.5031 111.128 98.0658 111.128ZM97.6018 108.584C97.6018 108.851 97.7138 109.059 97.9378 109.208C98.1618 109.347 98.4711 109.416 98.8658 109.416C99.1431 109.416 99.4044 109.384 99.6498 109.32C99.8951 109.245 100.13 109.139 100.354 109V107.944C100.119 107.891 99.8844 107.848 99.6498 107.816C99.4151 107.784 99.1751 107.768 98.9298 107.768C98.5031 107.768 98.1724 107.837 97.9378 107.976C97.7138 108.115 97.6018 108.317 97.6018 108.584ZM104.867 111V99.608L107.459 99.208V111H104.867ZM112.597 111.16C111.85 111.16 111.151 111.075 110.501 110.904C109.85 110.733 109.285 110.483 108.805 110.152L109.941 108.424C110.538 108.733 111.029 108.952 111.413 109.08C111.807 109.197 112.202 109.256 112.597 109.256C112.97 109.256 113.258 109.197 113.461 109.08C113.674 108.952 113.781 108.787 113.781 108.584C113.781 108.424 113.717 108.296 113.589 108.2C113.471 108.104 113.279 108.035 113.013 107.992L111.429 107.704C110.629 107.555 110.021 107.277 109.605 106.872C109.199 106.467 108.997 105.944 108.997 105.304C108.997 104.739 109.135 104.259 109.413 103.864C109.69 103.459 110.085 103.149 110.597 102.936C111.119 102.723 111.738 102.616 112.453 102.616C113.029 102.616 113.599 102.696 114.165 102.856C114.73 103.016 115.279 103.251 115.813 103.56L114.629 105.208C114.213 104.963 113.807 104.787 113.413 104.68C113.029 104.563 112.645 104.504 112.261 104.504C111.951 104.504 111.706 104.552 111.525 104.648C111.354 104.744 111.269 104.883 111.269 105.064C111.269 105.235 111.327 105.363 111.445 105.448C111.573 105.533 111.797 105.603 112.117 105.656L113.669 105.944C114.49 106.093 115.109 106.371 115.525 106.776C115.941 107.181 116.149 107.699 116.149 108.328C116.149 108.861 115.994 109.347 115.685 109.784C115.375 110.211 114.954 110.547 114.421 110.792C113.887 111.037 113.279 111.16 112.597 111.16Z" fill="white"/>
<rect x="1" y="83" width="142" height="46" rx="11" stroke="url(#paint17_linear_169_444)" stroke-opacity="0.4" stroke-width="2"/>
<rect x="324" y="82" width="144" height="48" rx="12" fill="url(#paint18_linear_169_444)" fill-opacity="0.3"/>
<path d="M345.664 111L341.36 99.8H344.336L347.296 108.136L350.304 99.8H353.168L348.8 111H345.664ZM357.086 111.16C356.275 111.16 355.539 110.973 354.878 110.6C354.227 110.216 353.704 109.704 353.31 109.064C352.926 108.413 352.734 107.688 352.734 106.888C352.734 106.077 352.915 105.352 353.278 104.712C353.64 104.072 354.136 103.565 354.766 103.192C355.395 102.808 356.104 102.616 356.894 102.616C357.694 102.616 358.398 102.803 359.006 103.176C359.614 103.549 360.088 104.067 360.43 104.728C360.782 105.379 360.958 106.131 360.958 106.984V107.544H355.278C355.363 107.853 355.496 108.125 355.678 108.36C355.859 108.595 356.083 108.776 356.35 108.904C356.616 109.032 356.904 109.096 357.214 109.096C357.555 109.096 357.864 109.037 358.142 108.92C358.43 108.803 358.664 108.632 358.846 108.408L360.558 109.832C360.024 110.301 359.486 110.643 358.942 110.856C358.398 111.059 357.779 111.16 357.086 111.16ZM355.278 106.072H358.558C358.483 105.773 358.366 105.517 358.206 105.304C358.046 105.091 357.854 104.925 357.63 104.808C357.406 104.691 357.155 104.632 356.878 104.632C356.611 104.632 356.366 104.691 356.142 104.808C355.928 104.915 355.747 105.075 355.598 105.288C355.459 105.501 355.352 105.763 355.278 106.072ZM362.571 111V102.744H365.163V104.616C365.429 103.923 365.744 103.411 366.107 103.08C366.48 102.749 366.912 102.584 367.403 102.584C367.584 102.595 367.733 102.611 367.851 102.632C367.968 102.653 368.107 102.707 368.267 102.792V105.016C368.107 104.931 367.92 104.867 367.707 104.824C367.493 104.781 367.275 104.76 367.051 104.76C366.667 104.76 366.309 104.856 365.979 105.048C365.648 105.229 365.376 105.475 365.163 105.784V111H362.571ZM369.649 111V102.744H372.241V111H369.649ZM370.945 101.48C370.55 101.48 370.209 101.336 369.921 101.048C369.633 100.76 369.489 100.419 369.489 100.024C369.489 99.6187 369.633 99.2773 369.921 99C370.209 98.712 370.55 98.568 370.945 98.568C371.35 98.568 371.691 98.712 371.969 99C372.257 99.2773 372.401 99.6187 372.401 100.024C372.401 100.419 372.257 100.76 371.969 101.048C371.691 101.336 371.35 101.48 370.945 101.48ZM375.474 111V104.744H373.762V102.744H375.474V101.656C375.474 100.675 375.757 99.9227 376.322 99.4C376.887 98.8773 377.703 98.616 378.77 98.616C378.994 98.616 379.234 98.632 379.49 98.664C379.757 98.6853 379.975 98.7227 380.146 98.776V100.904C379.911 100.861 379.725 100.835 379.586 100.824C379.447 100.813 379.303 100.808 379.154 100.808C378.791 100.808 378.519 100.883 378.338 101.032C378.157 101.171 378.066 101.395 378.066 101.704V102.744H380.146V104.744H378.066V111H375.474ZM382.67 114.504C382.328 114.504 381.971 114.461 381.598 114.376V112.2C381.694 112.211 381.806 112.221 381.934 112.232C382.072 112.253 382.216 112.264 382.366 112.264C382.718 112.264 382.995 112.189 383.198 112.04C383.411 111.901 383.582 111.699 383.71 111.432L383.838 111.16L380.798 102.744H383.662L385.31 108.072L387.198 102.744H389.998L386.286 111.928C386.03 112.557 385.742 113.059 385.422 113.432C385.112 113.816 384.734 114.088 384.286 114.248C383.848 114.419 383.31 114.504 382.67 114.504ZM400.059 111.176C399.248 111.176 398.491 111.032 397.787 110.744C397.083 110.445 396.464 110.035 395.931 109.512C395.408 108.979 394.998 108.365 394.699 107.672C394.411 106.968 394.267 106.211 394.267 105.4C394.267 104.589 394.411 103.837 394.699 103.144C394.998 102.44 395.408 101.827 395.931 101.304C396.464 100.771 397.083 100.36 397.787 100.072C398.491 99.7733 399.248 99.624 400.059 99.624C400.87 99.624 401.627 99.7733 402.331 100.072C403.035 100.36 403.648 100.771 404.171 101.304C404.704 101.827 405.115 102.44 405.403 103.144C405.702 103.837 405.851 104.589 405.851 105.4C405.851 106.211 405.702 106.968 405.403 107.672C405.115 108.365 404.704 108.979 404.171 109.512C403.648 110.035 403.035 110.445 402.331 110.744C401.627 111.032 400.87 111.176 400.059 111.176ZM400.059 108.728C400.475 108.728 400.864 108.648 401.227 108.488C401.59 108.317 401.904 108.083 402.171 107.784C402.438 107.475 402.646 107.123 402.795 106.728C402.944 106.323 403.019 105.88 403.019 105.4C403.019 104.92 402.944 104.483 402.795 104.088C402.646 103.683 402.438 103.331 402.171 103.032C401.904 102.723 401.59 102.488 401.227 102.328C400.864 102.157 400.475 102.072 400.059 102.072C399.643 102.072 399.254 102.157 398.891 102.328C398.528 102.488 398.214 102.723 397.947 103.032C397.68 103.331 397.472 103.683 397.323 104.088C397.174 104.483 397.099 104.92 397.099 105.4C397.099 105.88 397.174 106.323 397.323 106.728C397.472 107.123 397.68 107.475 397.947 107.784C398.214 108.083 398.528 108.317 398.891 108.488C399.254 108.648 399.643 108.728 400.059 108.728ZM411.634 111.16C410.663 111.16 409.927 110.936 409.426 110.488C408.925 110.04 408.674 109.379 408.674 108.504V104.744H407.074V102.744H408.674V100.456L411.266 99.928V102.744H413.474V104.744H411.266V107.992C411.266 108.355 411.346 108.611 411.506 108.76C411.677 108.909 411.959 108.984 412.354 108.984C412.503 108.984 412.653 108.973 412.802 108.952C412.951 108.931 413.154 108.883 413.41 108.808V110.904C413.175 110.979 412.887 111.037 412.546 111.08C412.205 111.133 411.901 111.16 411.634 111.16ZM414.914 111V99.608L417.506 99.208V104.088C417.826 103.608 418.205 103.245 418.642 103C419.09 102.744 419.581 102.616 420.114 102.616C420.648 102.616 421.117 102.739 421.522 102.984C421.938 103.219 422.264 103.549 422.498 103.976C422.733 104.392 422.85 104.877 422.85 105.432V111H420.258V106.184C420.258 105.715 420.13 105.341 419.874 105.064C419.629 104.787 419.298 104.648 418.882 104.648C418.605 104.648 418.349 104.707 418.114 104.824C417.89 104.931 417.688 105.101 417.506 105.336V111H414.914ZM428.789 111.16C427.978 111.16 427.242 110.973 426.581 110.6C425.93 110.216 425.408 109.704 425.013 109.064C424.629 108.413 424.437 107.688 424.437 106.888C424.437 106.077 424.618 105.352 424.981 104.712C425.344 104.072 425.84 103.565 426.469 103.192C427.098 102.808 427.808 102.616 428.597 102.616C429.397 102.616 430.101 102.803 430.709 103.176C431.317 103.549 431.792 104.067 432.133 104.728C432.485 105.379 432.661 106.131 432.661 106.984V107.544H426.981C427.066 107.853 427.2 108.125 427.381 108.36C427.562 108.595 427.786 108.776 428.053 108.904C428.32 109.032 428.608 109.096 428.917 109.096C429.258 109.096 429.568 109.037 429.845 108.92C430.133 108.803 430.368 108.632 430.549 108.408L432.261 109.832C431.728 110.301 431.189 110.643 430.645 110.856C430.101 111.059 429.482 111.16 428.789 111.16ZM426.981 106.072H430.261C430.186 105.773 430.069 105.517 429.909 105.304C429.749 105.091 429.557 104.925 429.333 104.808C429.109 104.691 428.858 104.632 428.581 104.632C428.314 104.632 428.069 104.691 427.845 104.808C427.632 104.915 427.45 105.075 427.301 105.288C427.162 105.501 427.056 105.763 426.981 106.072ZM434.274 111V102.744H436.866V104.616C437.132 103.923 437.447 103.411 437.81 103.08C438.183 102.749 438.615 102.584 439.106 102.584C439.287 102.595 439.436 102.611 439.554 102.632C439.671 102.653 439.81 102.707 439.97 102.792V105.016C439.81 104.931 439.623 104.867 439.41 104.824C439.196 104.781 438.978 104.76 438.754 104.76C438.37 104.76 438.012 104.856 437.682 105.048C437.351 105.229 437.079 105.475 436.866 105.784V111H434.274ZM444.628 111.16C443.881 111.16 443.183 111.075 442.532 110.904C441.881 110.733 441.316 110.483 440.836 110.152L441.972 108.424C442.569 108.733 443.06 108.952 443.444 109.08C443.839 109.197 444.233 109.256 444.628 109.256C445.001 109.256 445.289 109.197 445.492 109.08C445.705 108.952 445.812 108.787 445.812 108.584C445.812 108.424 445.748 108.296 445.62 108.2C445.503 108.104 445.311 108.035 445.044 107.992L443.46 107.704C442.66 107.555 442.052 107.277 441.636 106.872C441.231 106.467 441.028 105.944 441.028 105.304C441.028 104.739 441.167 104.259 441.444 103.864C441.721 103.459 442.116 103.149 442.628 102.936C443.151 102.723 443.769 102.616 444.484 102.616C445.06 102.616 445.631 102.696 446.196 102.856C446.761 103.016 447.311 103.251 447.844 103.56L446.66 105.208C446.244 104.963 445.839 104.787 445.444 104.68C445.06 104.563 444.676 104.504 444.292 104.504C443.983 104.504 443.737 104.552 443.556 104.648C443.385 104.744 443.3 104.883 443.3 105.064C443.3 105.235 443.359 105.363 443.476 105.448C443.604 105.533 443.828 105.603 444.148 105.656L445.7 105.944C446.521 106.093 447.14 106.371 447.556 106.776C447.972 107.181 448.18 107.699 448.18 108.328C448.18 108.861 448.025 109.347 447.716 109.784C447.407 110.211 446.985 110.547 446.452 110.792C445.919 111.037 445.311 111.16 444.628 111.16Z" fill="white"/>
<rect x="325" y="83" width="142" height="46" rx="11" stroke="url(#paint19_linear_169_444)" stroke-opacity="0.4" stroke-width="2"/>
<path d="M72 82L72 61C72 56.5817 75.5817 53 80 53L550 53C554.418 53 558 56.5818 558 61L558 82" stroke="#7CFFFF" stroke-width="2"/>
<path d="M234 53L234 82" stroke="#7CFFFF" stroke-width="2"/>
<path d="M396 53L396 82" stroke="#7CFFFF" stroke-width="2"/>
<path d="M315 34L315 53" stroke="#7CFFFF" stroke-width="2"/>
<path d="M175 130L175 249C175 249.552 175.448 250 176 250L191 250" stroke="#7CFFFF" stroke-width="2"/>
<path d="M13 130L13 249C13 249.552 13.4477 250 14 250L29 250" stroke="#7CFFFF" stroke-width="2"/>
<path d="M337 130L337 249C337 249.552 337.448 250 338 250L353 250" stroke="#7CFFFF" stroke-width="2"/>
<path d="M176 178H191" stroke="#7CFFFF" stroke-width="2"/>
<path d="M14 178H29" stroke="#7CFFFF" stroke-width="2"/>
<path d="M338 178H353" stroke="#7CFFFF" stroke-width="2"/>
<defs>
<linearGradient id="paint0_linear_169_444" x1="162" y1="82" x2="309.883" y2="107.356" gradientUnits="userSpaceOnUse">
<stop stop-color="white" stop-opacity="0.7"/>
<stop offset="1" stop-color="white" stop-opacity="0.6"/>
</linearGradient>
<linearGradient id="paint1_linear_169_444" x1="306" y1="130" x2="158.117" y2="104.644" gradientUnits="userSpaceOnUse">
<stop stop-color="#7CFFFF"/>
<stop offset="1" stop-color="#82FF96"/>
</linearGradient>
<linearGradient id="paint2_linear_169_444" x1="486" y1="82" x2="633.883" y2="107.356" gradientUnits="userSpaceOnUse">
<stop stop-color="white" stop-opacity="0.7"/>
<stop offset="1" stop-color="white" stop-opacity="0.6"/>
</linearGradient>
<linearGradient id="paint3_linear_169_444" x1="630" y1="130" x2="482.117" y2="104.644" gradientUnits="userSpaceOnUse">
<stop stop-color="#7CFFFF"/>
<stop offset="1" stop-color="#82FF96"/>
</linearGradient>
<linearGradient id="paint4_linear_169_444" x1="191" y1="154" x2="320.28" y2="173.242" gradientUnits="userSpaceOnUse">
<stop stop-color="white" stop-opacity="0.7"/>
<stop offset="1" stop-color="white" stop-opacity="0.6"/>
</linearGradient>
<linearGradient id="paint5_linear_169_444" x1="316" y1="202" x2="186.72" y2="182.758" gradientUnits="userSpaceOnUse">
<stop stop-color="#7CFFFF"/>
<stop offset="1" stop-color="#82FF96"/>
</linearGradient>
<linearGradient id="paint6_linear_169_444" x1="29" y1="154" x2="158.28" y2="173.242" gradientUnits="userSpaceOnUse">
<stop stop-color="white" stop-opacity="0.7"/>
<stop offset="1" stop-color="white" stop-opacity="0.6"/>
</linearGradient>
<linearGradient id="paint7_linear_169_444" x1="154" y1="202" x2="24.7197" y2="182.758" gradientUnits="userSpaceOnUse">
<stop stop-color="#7CFFFF"/>
<stop offset="1" stop-color="#82FF96"/>
</linearGradient>
<linearGradient id="paint8_linear_169_444" x1="353" y1="154" x2="482.28" y2="173.242" gradientUnits="userSpaceOnUse">
<stop stop-color="white" stop-opacity="0.7"/>
<stop offset="1" stop-color="white" stop-opacity="0.6"/>
</linearGradient>
<linearGradient id="paint9_linear_169_444" x1="478" y1="202" x2="348.72" y2="182.758" gradientUnits="userSpaceOnUse">
<stop stop-color="#7CFFFF"/>
<stop offset="1" stop-color="#82FF96"/>
</linearGradient>
<linearGradient id="paint10_linear_169_444" x1="191" y1="226" x2="320.28" y2="245.242" gradientUnits="userSpaceOnUse">
<stop stop-color="white" stop-opacity="0.7"/>
<stop offset="1" stop-color="white" stop-opacity="0.6"/>
</linearGradient>
<linearGradient id="paint11_linear_169_444" x1="316" y1="274" x2="186.72" y2="254.758" gradientUnits="userSpaceOnUse">
<stop stop-color="#7CFFFF"/>
<stop offset="1" stop-color="#82FF96"/>
</linearGradient>
<linearGradient id="paint12_linear_169_444" x1="29" y1="226" x2="158.28" y2="245.242" gradientUnits="userSpaceOnUse">
<stop stop-color="white" stop-opacity="0.7"/>
<stop offset="1" stop-color="white" stop-opacity="0.6"/>
</linearGradient>
<linearGradient id="paint13_linear_169_444" x1="154" y1="274" x2="24.7197" y2="254.758" gradientUnits="userSpaceOnUse">
<stop stop-color="#7CFFFF"/>
<stop offset="1" stop-color="#82FF96"/>
</linearGradient>
<linearGradient id="paint14_linear_169_444" x1="353" y1="226" x2="482.28" y2="245.242" gradientUnits="userSpaceOnUse">
<stop stop-color="white" stop-opacity="0.7"/>
<stop offset="1" stop-color="white" stop-opacity="0.6"/>
</linearGradient>
<linearGradient id="paint15_linear_169_444" x1="478" y1="274" x2="348.72" y2="254.758" gradientUnits="userSpaceOnUse">
<stop stop-color="#7CFFFF"/>
<stop offset="1" stop-color="#82FF96"/>
</linearGradient>
<linearGradient id="paint16_linear_169_444" x1="0" y1="82" x2="147.883" y2="107.356" gradientUnits="userSpaceOnUse">
<stop stop-color="white" stop-opacity="0.7"/>
<stop offset="1" stop-color="white" stop-opacity="0.6"/>
</linearGradient>
<linearGradient id="paint17_linear_169_444" x1="144" y1="130" x2="-3.88255" y2="104.644" gradientUnits="userSpaceOnUse">
<stop stop-color="#7CFFFF"/>
<stop offset="1" stop-color="#82FF96"/>
</linearGradient>
<linearGradient id="paint18_linear_169_444" x1="324" y1="82" x2="471.883" y2="107.356" gradientUnits="userSpaceOnUse">
<stop stop-color="white" stop-opacity="0.7"/>
<stop offset="1" stop-color="white" stop-opacity="0.6"/>
</linearGradient>
<linearGradient id="paint19_linear_169_444" x1="468" y1="130" x2="320.117" y2="104.644" gradientUnits="userSpaceOnUse">
<stop stop-color="#7CFFFF"/>
<stop offset="1" stop-color="#82FF96"/>
</linearGradient>
</defs>
</svg>
