<svg width="41" height="128" viewBox="0 0 41 128" fill="none" xmlns="http://www.w3.org/2000/svg">
<path d="M10.7055 11.5564C12.7062 3.97537 19.9778 -0.916084 27.6712 0.144012C36.8564 1.40967 42.8628 10.5269 40.4742 19.5779L35.0206 40.2432C34.5083 42.1844 35.7965 44.1398 37.7665 44.4112C39.7364 44.6827 41.0246 46.638 40.5124 48.5792L31.5243 82.6376C31.012 84.5788 32.3002 86.5341 34.2702 86.8056C36.2401 87.077 37.5283 89.0324 37.0161 90.9736L30.2945 116.444C28.2938 124.025 21.0222 128.916 13.3288 127.856C4.14361 126.59 -1.86276 117.473 0.525824 108.422L5.97941 87.7568C6.49169 85.8156 5.2035 83.8603 3.23354 83.5888C1.26359 83.3174 -0.0245997 81.362 0.487681 79.4208L9.47571 45.3625C9.98799 43.4213 8.6998 41.4659 6.72983 41.1944C4.75987 40.923 3.47167 38.9676 3.98395 37.0264L10.7055 11.5564Z" fill="#6CFFB0"/>
</svg>
