<svg width="48" height="48" viewBox="0 0 48 48" fill="none" xmlns="http://www.w3.org/2000/svg">
<path fill-rule="evenodd" clip-rule="evenodd" d="M32.9995 21.9999C32.9995 28.075 28.0747 32.9998 21.9996 32.9998C15.9246 32.9998 10.9998 28.075 10.9998 21.9999C10.9998 15.9248 15.9246 11 21.9996 11C28.0747 11 32.9995 15.9248 32.9995 21.9999ZM30.7943 32.8932C28.3907 34.8362 25.3311 35.9998 21.9996 35.9998C14.2677 35.9998 7.99976 29.7318 7.99976 21.9999C7.99976 14.268 14.2677 8 21.9996 8C29.7316 8 35.9995 14.268 35.9995 21.9999C35.9995 25.3314 34.8359 28.3911 32.8928 30.7947C32.9513 30.8381 33.0073 30.8863 33.0603 30.9393L39.0602 36.9393C39.646 37.5251 39.646 38.4748 39.0602 39.0606C38.4745 39.6464 37.5247 39.6464 36.9389 39.0606L30.939 33.0607C30.886 33.0076 30.8377 32.9516 30.7943 32.8932Z" fill="white"/>
</svg>
