<svg width="200" height="200" viewBox="0 0 200 200" fill="none" xmlns="http://www.w3.org/2000/svg">
<g clip-path="url(#clip0_1037_1634)">
<path d="M62.1521 152.595C60.2103 152.52 58.2349 152.629 56.3351 152.318C53.9815 151.931 51.6783 151.183 49.3582 150.595C46.8869 149.023 44.4155 147.443 41.9442 145.871C41.6332 145.627 41.3305 145.383 41.0195 145.148C40.3723 144.501 39.725 143.853 39.0693 143.198C38.8592 142.887 38.649 142.576 38.4305 142.265C37.6908 141.298 36.9426 140.34 36.2029 139.373C35.6397 138.305 35.0681 137.246 34.5049 136.179C34.2948 135.75 34.0846 135.321 33.8745 134.893C33.6559 134.144 33.4374 133.396 33.2188 132.648C33.0339 131.782 32.8405 130.917 32.6556 130.051C32.5295 129.101 32.395 128.151 32.2689 127.201C32.1933 126.983 32.1176 126.764 32.0336 126.545C32.0252 124.696 31.9747 122.838 32.0168 120.989C32.042 119.745 32.1849 118.501 32.2689 117.257C32.4034 116.828 32.5295 116.408 32.664 115.979C33.3113 114.054 33.9585 112.138 34.6058 110.213C34.8412 109.767 35.0765 109.322 35.3119 108.868C35.9255 107.397 36.5392 105.926 37.1444 104.455C37.4386 103.799 37.7328 103.152 38.0354 102.496C38.0859 102.404 38.1111 102.303 38.1027 102.193C38.5061 101.546 38.9096 100.899 39.3131 100.252C39.9436 98.52 40.5572 96.78 41.2129 95.0568C41.7761 93.5689 42.3897 92.1063 42.9865 90.6269C43.0622 90.5176 43.1462 90.4083 43.2219 90.299C44.3231 87.6343 45.4158 84.9613 46.517 82.2966C46.5927 82.1873 46.6767 82.0696 46.7524 81.9603C48.7026 77.2614 50.6611 72.5625 52.6113 67.872C52.687 67.7627 52.771 67.645 52.8467 67.5357C53.4939 66.2664 54.1412 65.0056 54.7885 63.7363C54.8725 63.5093 54.9482 63.2907 55.0322 63.0638C56.0998 57.7764 58.0163 53.0019 62.8161 49.9253C63.2364 49.6143 63.6651 49.2949 64.0854 48.9838C64.615 48.7401 65.1446 48.4963 65.6741 48.2525C66.4223 48.0424 67.1704 47.8322 67.9185 47.6221C70.1629 47.5128 72.4073 47.3951 74.6517 47.2858C75.7192 47.3951 76.7868 47.496 77.8628 47.6053C78.2915 47.7482 78.7118 47.8827 79.1405 48.0256C79.5608 48.2693 79.9811 48.5131 80.4013 48.7653C81.906 49.6983 83.4023 50.6314 84.9069 51.5645C84.8985 51.6737 84.9237 51.7662 84.991 51.8503C85.0751 51.9343 85.1591 52.0184 85.2432 52.1024C85.3272 52.1697 85.4197 52.1949 85.529 52.1865C86.42 53.481 87.311 54.7755 88.1937 56.0616C88.4038 56.5828 88.6224 57.0956 88.8325 57.6167C89.1099 58.264 89.3873 58.9112 89.6647 59.5669C89.8328 61.0127 89.9925 62.4586 90.1859 64.1313H110.209V61.7861C110.318 61.3574 110.419 60.9287 110.528 60.5C110.646 60.1805 110.755 59.8611 110.873 59.5417C110.999 59.0205 111.117 58.4994 111.243 57.9782C111.571 57.3309 111.898 56.6753 112.226 56.028C113.185 54.7419 114.143 53.4642 115.101 52.1781C115.311 51.9763 115.53 51.7746 115.74 51.5729C117.774 50.2783 119.808 48.9922 121.843 47.6977C122.582 47.5716 123.322 47.4455 124.062 47.311C124.701 47.2018 125.348 47.1009 125.987 46.9916C128.231 47.2018 130.476 47.4203 132.72 47.6305C133.468 47.8742 134.208 48.118 134.956 48.3618C135.494 48.656 136.032 48.9418 136.57 49.236C137.099 49.5891 137.629 49.9421 138.159 50.2868C139.226 51.2366 140.294 52.1949 141.361 53.1448C142.135 54.5318 142.908 55.9187 143.681 57.3057C143.765 57.415 143.858 57.5243 143.942 57.6419C144.068 57.9614 144.202 58.2724 144.329 58.5918L145.22 61.8029C145.245 62.2316 145.27 62.6519 145.295 63.0806C145.48 63.2991 145.657 63.5177 145.842 63.7363L146.909 66.9305C146.64 67.7459 147.027 67.9897 147.775 67.9224C147.809 68.3427 147.834 68.7546 147.867 69.1749C147.968 69.3935 148.069 69.6036 148.17 69.8222C148.389 70.3517 148.599 70.8897 148.817 71.4193C149.002 71.6378 149.179 71.8564 149.364 72.0749C149.725 73.1425 150.078 74.2017 150.431 75.2692C150.431 75.4878 150.414 75.7063 150.414 75.9165C150.498 76.0005 150.583 76.093 150.667 76.177C150.877 76.2107 151.087 76.2359 151.297 76.2695C151.255 76.5805 151.07 76.9756 151.196 77.1942C151.709 78.0852 152.314 78.9174 152.886 79.7748C153.104 80.3044 153.323 80.8423 153.541 81.3719C153.583 81.5821 153.617 81.7922 153.659 82.0024C153.76 82.5403 153.861 83.0699 153.97 83.6079C154.071 83.8264 154.172 84.0366 154.273 84.2552L154.92 85.8523C155.105 86.0708 155.281 86.2894 155.466 86.5079C155.819 87.5755 156.181 88.6346 156.534 89.7022C156.265 90.5176 156.652 90.7614 157.4 90.6941C157.425 91.1144 157.459 91.5263 157.484 91.9466C157.669 92.1651 157.845 92.3837 158.03 92.6023C158.35 93.1402 158.661 93.6782 158.98 94.2078C159.199 94.7374 159.417 95.2753 159.627 95.8049C159.737 96.0151 159.846 96.2336 159.947 96.4438C159.98 96.9733 160.014 97.5029 160.048 98.0409C160.233 98.2595 160.409 98.478 160.594 98.6882C160.729 99.2177 160.863 99.7557 160.997 100.285C161.182 100.504 161.367 100.722 161.544 100.933C162.073 102 162.611 103.068 163.141 104.135C163.788 105.741 164.436 107.346 165.083 108.952C165.554 109.994 166.033 111.036 166.503 112.07C167.31 114.441 168.378 116.769 168.84 119.199C169.185 121.006 168.807 122.965 168.647 124.839C168.462 127.016 168.159 129.185 167.907 131.354C167.495 132.32 167.083 133.287 166.672 134.254C166.487 134.472 166.302 134.691 166.108 134.901C165.873 135.75 165.638 136.599 165.394 137.448C165.192 137.843 164.999 138.247 164.797 138.642C164.242 139.415 163.696 140.188 163.141 140.953C162.931 141.18 162.721 141.407 162.511 141.626C162.275 141.71 161.964 141.718 161.821 141.878C160.745 143.156 159.703 144.459 158.644 145.753C157.366 146.644 156.088 147.535 154.811 148.426C154.382 148.712 153.945 148.998 153.516 149.284C153.306 149.393 153.088 149.502 152.877 149.603C152.449 149.813 152.02 150.023 151.591 150.242C149.834 150.805 148.103 151.528 146.304 151.881C144.673 152.2 142.958 152.099 141.286 152.226C140.672 152.268 140.067 152.461 139.453 152.528C135.948 152.906 132.644 152.116 129.442 150.755C129.164 150.637 128.836 150.628 128.534 150.57C126.298 149.191 124.053 147.812 121.817 146.425C121.288 145.997 120.75 145.568 120.22 145.139C119.573 144.492 118.926 143.845 118.27 143.189C117.312 141.911 116.354 140.642 115.395 139.364C115.042 138.742 114.689 138.12 114.328 137.507C113.933 136.725 113.538 135.943 113.134 135.17C113 134.758 112.865 134.346 112.731 133.934C112.251 132.808 111.781 131.681 111.352 130.656C111.402 130.025 111.621 129.328 111.495 128.697C110.915 125.965 110.68 123.267 111.125 120.451C111.436 118.476 111.159 116.408 111.142 114.382C111.049 114.298 110.965 114.206 110.873 114.121H89.3873C89.2948 114.206 89.2108 114.298 89.1183 114.382V126.882C89.0847 127.521 89.0511 128.151 89.0174 128.79C88.9502 129.008 88.8829 129.227 88.8157 129.445C88.7148 129.983 88.6224 130.513 88.5215 131.051C87.5464 133.388 86.5713 135.716 85.6046 138.053C84.3942 139.776 83.1921 141.5 81.9901 143.223C81.3512 143.862 80.7208 144.492 80.0819 145.131C78.3755 146.333 76.6691 147.535 74.9627 148.737C72.609 149.704 70.2554 150.67 67.9101 151.646C66.8426 151.856 65.775 152.057 64.6991 152.268C64.4889 152.377 64.2703 152.478 64.0602 152.587C63.4213 152.587 62.7741 152.587 62.1352 152.595M89.4545 91.9298C89.547 92.0138 89.6395 92.0979 89.7235 92.182H110.562C110.654 92.0979 110.747 92.0138 110.839 91.9298C110.747 88.4329 110.621 84.9444 110.579 81.4476C110.537 77.7321 110.57 74.0167 110.57 70.2425H89.4545V91.9298ZM131.35 145.089C134.964 145.98 138.495 147.728 142.353 146.131C144.295 146.997 146.052 145.988 147.674 145.316C154.601 142.449 159.611 137.65 161.889 130.32C162.359 128.807 163.107 127.344 163.292 125.797C163.452 124.461 162.948 123.057 162.838 121.678C162.763 120.787 163.133 119.77 162.83 118.997C161.872 116.584 160.821 114.172 159.552 111.911C157.417 108.111 154.088 105.522 150.347 103.421C150.221 103.337 150.095 103.253 149.977 103.169C147.64 102.605 145.312 102.042 142.975 101.479C142.866 101.328 142.757 101.185 142.656 101.033C142.546 101.185 142.437 101.328 142.336 101.479C142.042 101.395 141.756 101.244 141.454 101.235C136.301 101.092 131.585 102.093 127.172 105.127C123.936 107.355 121.532 110.053 119.783 113.399C118.943 115.012 118.657 116.895 118.01 118.619C116.765 121.947 117.177 125.343 117.656 128.706C117.816 129.832 118.489 130.883 118.926 131.967C119.01 132.194 119.085 132.413 119.17 132.64C119.842 134.052 120.33 135.59 121.212 136.86C123.641 140.365 126.836 143.029 130.795 144.719C130.98 144.837 131.165 144.954 131.35 145.072M56.6882 73.9579C56.6125 74.0672 56.5285 74.1848 56.4528 74.2941L55.7131 75.8996C55.5282 76.1182 55.3516 76.3368 55.1667 76.5553C54.8221 77.7237 54.469 78.8922 54.1244 80.0606C54.0487 80.1699 53.9647 80.2791 53.889 80.3968C51.4849 86.2221 49.0724 92.0559 46.6011 98.0409C60.681 91.9718 72.7351 94.6365 83.3098 105.514C83.3098 104.841 83.3014 104.329 83.3098 103.824C83.4107 99.6801 83.5536 95.5443 83.6124 91.4002C83.7469 82.3554 83.9739 73.3106 83.8898 64.2742C83.8478 59.7434 81.1159 55.6077 76.2488 54.1283C74.4415 53.5819 72.5502 53.3381 70.8018 52.9767C67.5739 54.599 64.0518 55.8851 62.4547 59.5417C60.7399 59.5417 61.7402 60.7858 61.5552 61.4835C61.1938 62.9209 61.0004 64.4255 60.4372 65.7705C59.2856 68.5445 57.9407 71.2344 56.6798 73.9579M152.785 97.4357C153.02 97.4189 153.256 97.402 153.491 97.3852C151.869 93.2411 150.297 89.0718 148.599 84.9528C147.565 82.4395 146.338 80.0102 145.194 77.5472L144.951 77.1942C144.707 76.4544 144.471 75.7147 144.236 74.975V74.5967C143.799 73.7982 143.303 73.0164 142.933 72.1842C141.555 69.0152 139.722 65.947 138.974 62.6267C137.679 56.8938 132.232 53.1111 126.701 53.4138C121.515 53.6912 116.429 58.5498 116.37 63.8539C116.337 66.9809 116.581 70.108 116.639 73.235C116.774 80.3128 116.875 87.3906 116.967 94.4768C117.001 97.4104 116.942 100.353 117.001 103.286C117.009 103.908 117.354 104.522 117.606 105.32C121.582 101.008 123.927 99.2682 127.458 97.6122C130.173 96.3345 133.014 95.4182 135.973 95.1997C139.092 94.9727 142.252 95.1577 145.388 95.2501C146.312 95.2753 147.254 95.5275 148.145 95.8133C149.7 96.3009 151.23 96.8893 152.776 97.4357M82.982 123.704C82.982 122.956 82.982 122.208 82.982 121.46C82.9231 115.071 79.7961 110.061 75.1392 106.245C70.0536 102.067 63.9425 100.386 57.2346 101.21C50.8208 102 45.6932 104.984 41.9862 110.162C38.2876 115.332 36.9763 121.14 38.0522 127.521C39.0946 133.69 42.272 138.591 47.2147 142.08C51.7959 145.316 57.0076 147.115 62.8834 146.173C65.8339 145.703 68.6498 145.047 71.2557 143.584C71.7684 143.298 72.0795 142.449 72.5754 142.349C75.3158 141.819 76.8877 139.734 78.426 137.826C79.8802 136.019 80.8973 133.917 81.6875 131.597C82.3263 129.706 82.8139 127.89 82.982 125.94C83.0408 125.2 82.9904 124.444 82.9904 123.696M110.822 98.3939H89.5386V108.229H110.822V98.3939Z" fill="#00FF85"/>
</g>
<defs>
<clipPath id="clip0_1037_1634">
<rect width="137" height="105.621" fill="white" transform="translate(32 47)"/>
</clipPath>
</defs>
</svg>
