<svg width="120" height="120" viewBox="0 0 120 120" fill="none" xmlns="http://www.w3.org/2000/svg">
<rect width="120" height="120" rx="16" fill="#67AFB1" fill-opacity="0.23"/>
<path d="M81.4999 51.1667C81.4999 51.1667 79.1249 48 75.1666 48C71.2083 48 68.8333 51.1667 68.8333 51.1667M83.0833 40.4633C82.4578 41.2312 81.6028 41.6667 80.7083 41.6667C79.8137 41.6667 78.9824 41.2312 78.3333 40.4633M71.9999 40.4633C71.3745 41.2312 70.5195 41.6667 69.6249 41.6667C68.7303 41.6667 67.8991 41.2312 67.2499 40.4633M90.9999 44.8333C90.9999 53.5778 83.9111 60.6667 75.1666 60.6667C66.4221 60.6667 59.3333 53.5778 59.3333 44.8333C59.3333 36.0888 66.4221 29 75.1666 29C83.9111 29 90.9999 36.0888 90.9999 44.8333Z" stroke="white" stroke-width="4" stroke-linecap="round" stroke-linejoin="round"/>
<path d="M47.915 81.5098C50.468 81.6391 52.498 83.7508 52.498 86.336C52.4979 89.0041 50.3352 91.1668 47.667 91.167C45.0818 91.167 42.9701 89.137 42.8408 86.584L42.835 86.336L42.8408 86.0869C42.9703 83.534 45.0819 81.5039 47.667 81.5039L47.915 81.5098ZM65 81.5039C67.6684 81.504 69.832 83.6675 69.832 86.336C69.8319 89.0042 67.6683 91.167 65 91.167C62.4148 91.167 60.3041 89.137 60.1748 86.584L60.168 86.336L60.1748 86.0869C60.3043 83.5341 62.415 81.5039 65 81.5039ZM47.667 85.8369C47.3918 85.8369 47.168 86.0607 47.168 86.336L47.1787 86.4365C47.2254 86.6634 47.4264 86.834 47.667 86.834C47.9075 86.8338 48.1087 86.6633 48.1553 86.4365C48.1557 86.4326 48.1558 86.4306 48.156 86.4286C48.1618 86.367 48.1618 86.3049 48.156 86.2433C48.1558 86.2413 48.1557 86.2393 48.1553 86.2354C48.1156 86.0408 47.962 85.8877 47.7676 85.8477L47.667 85.8369ZM65 85.8369C64.7248 85.8369 64.502 86.0607 64.502 86.336L64.5117 86.4365C64.5584 86.6634 64.7593 86.834 65 86.834C65.2406 86.834 65.4416 86.6634 65.4883 86.4365C65.4887 86.4326 65.4889 86.4306 65.489 86.4286C65.4948 86.367 65.4948 86.3049 65.489 86.2433C65.4889 86.2413 65.4887 86.2393 65.4883 86.2354C65.4419 86.0082 65.2409 85.837 65 85.8369ZM35.3301 42.5039C35.556 42.5039 35.8749 42.5026 36.1602 42.5244C36.4387 42.5458 36.8314 42.5966 37.2637 42.7637L37.4521 42.8428L37.6924 42.9639C38.2418 43.2644 38.7091 43.6982 39.0488 44.2276C39.3492 44.6956 39.4777 45.1501 39.5469 45.4619C39.6088 45.7412 39.6526 46.0568 39.6846 46.2803L40.1867 49.7971C40.2562 50.2842 40.291 50.5278 40.4086 50.711C40.5122 50.8724 40.66 51.0007 40.8345 51.0804C41.0325 51.1709 41.2785 51.1709 41.7706 51.1709H52.3883C52.7978 51.1709 53.0026 51.1709 53.1713 51.2336C53.3269 51.2915 53.4491 51.3739 53.5611 51.4965C53.6824 51.6294 53.7646 51.8328 53.929 52.2395C54.1546 52.7977 54.4024 53.3444 54.6714 53.8787C55.1595 54.8483 55.4036 55.3331 55.3581 55.6453C55.3155 55.937 55.1838 56.1508 54.9423 56.32C54.684 56.501 54.1814 56.501 53.1763 56.501H42.9556C42.323 56.501 42.0067 56.501 41.7786 56.6291C41.5783 56.7416 41.4229 56.9197 41.3384 57.1333C41.2422 57.3766 41.2849 57.69 41.3702 58.3168L42.9912 70.2276C43.1413 71.3305 43.2354 72.0094 43.3447 72.5176C43.4467 72.9918 43.5238 73.1179 43.542 73.1465C43.7144 73.4179 43.9617 73.6343 44.2539 73.7686C44.2845 73.7826 44.4193 73.8417 44.9033 73.8789C45.4217 73.9187 46.1073 73.9209 47.2207 73.9209H65.7627C66.8232 73.9209 67.4732 73.9186 67.9658 73.8819C68.425 73.8475 68.5553 73.7932 68.5869 73.7793C68.87 73.6546 69.1126 73.4531 69.2881 73.1983C69.3077 73.1697 69.3864 73.0525 69.5059 72.6084C69.6342 72.1313 69.7576 71.4929 69.9561 70.4512L70.5653 67.251C70.6671 66.7158 70.7181 66.4482 70.8501 66.267C70.9719 66.0996 71.1183 65.9889 71.3126 65.9173C71.523 65.8397 71.8137 65.8653 72.3952 65.9166C73.0337 65.9729 73.68 66.002 74.333 66.002C74.9245 66.002 75.2202 66.002 75.4052 66.0793C75.7241 66.2125 75.9269 66.4576 75.9982 66.7958C76.0396 66.992 75.9885 67.2603 75.8864 67.7969L75.1914 71.4483C75.0078 72.4123 74.8443 73.2786 74.6523 73.9922C74.4517 74.7382 74.176 75.4983 73.6787 76.2207C72.9424 77.2901 71.9226 78.134 70.7344 78.6572C69.9316 79.0107 69.1337 79.1397 68.3633 79.1973C67.6263 79.2523 66.7443 79.251 65.7627 79.251H47.2207C46.1889 79.251 45.2647 79.2525 44.4951 79.1934C43.6923 79.1317 42.8593 78.9931 42.0283 78.6113C40.8029 78.0483 39.7661 77.1432 39.043 76.0049C38.5526 75.2329 38.3031 74.4259 38.1338 73.6387C37.9715 72.8841 37.849 71.9686 37.71 70.9463L35.4307 54.1953C35.4307 54.1947 35.4306 54.194 35.4305 54.1934L34.7186 49.2078C34.6491 48.7207 34.6143 48.4771 34.4967 48.2939C34.3931 48.1325 34.2453 48.0042 34.0708 47.9245C33.8728 47.834 33.6268 47.834 33.1347 47.834H32.5C31.0282 47.834 29.835 46.6408 29.835 45.169C29.835 43.6971 31.0282 42.5039 32.5 42.5039H35.3301Z" fill="white"/>
</svg>
