<svg width="737" height="242" viewBox="0 0 737 242" fill="none" xmlns="http://www.w3.org/2000/svg">
<rect width="159" height="242" transform="translate(428)" fill="#82FF96"/>
<path d="M451.82 32L444.578 24.625V32H441.68V21.2656H444.828L452.078 28.6719V21.2656H454.961V32H451.82ZM458.32 32V21.2656H469.188V23.5547H461.297V25.3281H468.781V27.6172H461.297V29.7109H469.297V32H458.32ZM485.992 26.6406C485.992 27.5625 485.823 28.3776 485.484 29.0859C485.146 29.7891 484.661 30.3776 484.031 30.8516C483.401 31.3255 482.635 31.6849 481.734 31.9297C480.839 32.1693 479.831 32.2891 478.711 32.2891C477.591 32.2891 476.578 32.1693 475.672 31.9297C474.771 31.6849 474.003 31.3255 473.367 30.8516C472.732 30.3776 472.242 29.7891 471.898 29.0859C471.555 28.3776 471.383 27.5625 471.383 26.6406C471.383 25.7188 471.555 24.9062 471.898 24.2031C472.242 23.4948 472.732 22.9036 473.367 22.4297C474.003 21.9557 474.771 21.599 475.672 21.3594C476.578 21.1146 477.591 20.9922 478.711 20.9922C479.831 20.9922 480.839 21.1146 481.734 21.3594C482.635 21.599 483.401 21.9557 484.031 22.4297C484.661 22.9036 485.146 23.4948 485.484 24.2031C485.823 24.9062 485.992 25.7188 485.992 26.6406ZM483.062 26.6406C483.062 26.2396 482.997 25.8411 482.867 25.4453C482.742 25.0443 482.516 24.6849 482.188 24.3672C481.865 24.0495 481.422 23.7917 480.859 23.5938C480.297 23.3958 479.581 23.2969 478.711 23.2969C478.128 23.2969 477.615 23.3438 477.172 23.4375C476.729 23.526 476.346 23.651 476.023 23.8125C475.701 23.974 475.43 24.1641 475.211 24.3828C474.992 24.5964 474.818 24.8281 474.688 25.0781C474.557 25.3229 474.464 25.5807 474.406 25.8516C474.354 26.1172 474.328 26.3802 474.328 26.6406C474.328 26.9062 474.354 27.1745 474.406 27.4453C474.464 27.7161 474.557 27.9766 474.688 28.2266C474.818 28.4714 474.992 28.7005 475.211 28.9141C475.43 29.1276 475.701 29.3151 476.023 29.4766C476.346 29.6328 476.729 29.7578 477.172 29.8516C477.615 29.9401 478.128 29.9844 478.711 29.9844C479.581 29.9844 480.297 29.8854 480.859 29.6875C481.422 29.4896 481.865 29.2318 482.188 28.9141C482.516 28.5964 482.742 28.2396 482.867 27.8438C482.997 27.4427 483.062 27.0417 483.062 26.6406ZM498.773 32L491.531 24.625V32H488.633V21.2656H491.781L499.031 28.6719V21.2656H501.914V32H498.773ZM448.594 44.9922C449.646 44.9922 450.622 45.0833 451.523 45.2656C452.43 45.4427 453.26 45.6719 454.016 45.9531V48.5781C453.719 48.4115 453.383 48.25 453.008 48.0938C452.638 47.9375 452.234 47.7995 451.797 47.6797C451.359 47.5599 450.891 47.4635 450.391 47.3906C449.891 47.3177 449.365 47.2812 448.812 47.2812C448.125 47.2812 447.526 47.3307 447.016 47.4297C446.505 47.5286 446.068 47.6615 445.703 47.8281C445.339 47.9948 445.039 48.1901 444.805 48.4141C444.57 48.6328 444.385 48.8672 444.25 49.1172C444.115 49.3672 444.021 49.6224 443.969 49.8828C443.917 50.1432 443.891 50.3958 443.891 50.6406C443.891 50.8542 443.911 51.0859 443.953 51.3359C444 51.5859 444.083 51.8359 444.203 52.0859C444.328 52.3359 444.5 52.5755 444.719 52.8047C444.938 53.0339 445.221 53.237 445.57 53.4141C445.924 53.5911 446.349 53.7344 446.844 53.8438C447.339 53.9479 447.927 54 448.609 54C448.953 54 449.253 53.9896 449.508 53.9688C449.763 53.9479 449.995 53.9193 450.203 53.8828C450.417 53.8464 450.615 53.8021 450.797 53.75C450.984 53.6979 451.177 53.6432 451.375 53.5859V52.2891H448.125V49.9375H454.273V55.4219C453.888 55.5521 453.456 55.6719 452.977 55.7812C452.503 55.8854 452.01 55.974 451.5 56.0469C450.995 56.125 450.487 56.1849 449.977 56.2266C449.466 56.2682 448.984 56.2891 448.531 56.2891C447.828 56.2891 447.154 56.2422 446.508 56.1484C445.862 56.0547 445.258 55.9115 444.695 55.7188C444.138 55.5208 443.628 55.2708 443.164 54.9688C442.706 54.6667 442.312 54.3073 441.984 53.8906C441.661 53.474 441.409 52.9974 441.227 52.4609C441.049 51.9193 440.961 51.3125 440.961 50.6406C440.961 49.974 441.055 49.3698 441.242 48.8281C441.43 48.2865 441.69 47.8073 442.023 47.3906C442.362 46.974 442.766 46.6146 443.234 46.3125C443.708 46.0104 444.227 45.763 444.789 45.5703C445.357 45.3724 445.961 45.2266 446.602 45.1328C447.247 45.0391 447.911 44.9922 448.594 44.9922ZM460.297 56H457.398V45.2656H464.664C465.445 45.2656 466.107 45.3464 466.648 45.5078C467.195 45.6693 467.638 45.8984 467.977 46.1953C468.32 46.4922 468.568 46.8516 468.719 47.2734C468.875 47.6901 468.953 48.1562 468.953 48.6719C468.953 49.125 468.888 49.5208 468.758 49.8594C468.633 50.1979 468.461 50.4896 468.242 50.7344C468.029 50.974 467.779 51.1771 467.492 51.3438C467.206 51.5104 466.904 51.6484 466.586 51.7578L470.102 56H466.711L463.461 52.0469H460.297V56ZM466.023 48.6562C466.023 48.4479 465.995 48.2708 465.938 48.125C465.885 47.9792 465.792 47.862 465.656 47.7734C465.521 47.6797 465.339 47.612 465.109 47.5703C464.885 47.5286 464.604 47.5078 464.266 47.5078H460.297V49.8047H464.266C464.604 49.8047 464.885 49.7839 465.109 49.7422C465.339 49.7005 465.521 49.6354 465.656 49.5469C465.792 49.4531 465.885 49.3333 465.938 49.1875C465.995 49.0417 466.023 48.8646 466.023 48.6562ZM472.18 56V45.2656H483.047V47.5547H475.156V49.3281H482.641V51.6172H475.156V53.7109H483.156V56H472.18ZM485.961 56V45.2656H496.828V47.5547H488.938V49.3281H496.422V51.6172H488.938V53.7109H496.938V56H485.961ZM509.883 56L502.641 48.625V56H499.742V45.2656H502.891L510.141 52.6719V45.2656H513.023V56H509.883Z" fill="#232B3E"/>
<rect width="150" height="162" transform="translate(587)" fill="#7CFFFF"/>
<path d="M610.82 32L603.578 24.625V32H600.68V21.2656H603.828L611.078 28.6719V21.2656H613.961V32H610.82ZM617.32 32V21.2656H628.188V23.5547H620.297V25.3281H627.781V27.6172H620.297V29.7109H628.297V32H617.32ZM644.992 26.6406C644.992 27.5625 644.823 28.3776 644.484 29.0859C644.146 29.7891 643.661 30.3776 643.031 30.8516C642.401 31.3255 641.635 31.6849 640.734 31.9297C639.839 32.1693 638.831 32.2891 637.711 32.2891C636.591 32.2891 635.578 32.1693 634.672 31.9297C633.771 31.6849 633.003 31.3255 632.367 30.8516C631.732 30.3776 631.242 29.7891 630.898 29.0859C630.555 28.3776 630.383 27.5625 630.383 26.6406C630.383 25.7188 630.555 24.9062 630.898 24.2031C631.242 23.4948 631.732 22.9036 632.367 22.4297C633.003 21.9557 633.771 21.599 634.672 21.3594C635.578 21.1146 636.591 20.9922 637.711 20.9922C638.831 20.9922 639.839 21.1146 640.734 21.3594C641.635 21.599 642.401 21.9557 643.031 22.4297C643.661 22.9036 644.146 23.4948 644.484 24.2031C644.823 24.9062 644.992 25.7188 644.992 26.6406ZM642.062 26.6406C642.062 26.2396 641.997 25.8411 641.867 25.4453C641.742 25.0443 641.516 24.6849 641.188 24.3672C640.865 24.0495 640.422 23.7917 639.859 23.5938C639.297 23.3958 638.581 23.2969 637.711 23.2969C637.128 23.2969 636.615 23.3438 636.172 23.4375C635.729 23.526 635.346 23.651 635.023 23.8125C634.701 23.974 634.43 24.1641 634.211 24.3828C633.992 24.5964 633.818 24.8281 633.688 25.0781C633.557 25.3229 633.464 25.5807 633.406 25.8516C633.354 26.1172 633.328 26.3802 633.328 26.6406C633.328 26.9062 633.354 27.1745 633.406 27.4453C633.464 27.7161 633.557 27.9766 633.688 28.2266C633.818 28.4714 633.992 28.7005 634.211 28.9141C634.43 29.1276 634.701 29.3151 635.023 29.4766C635.346 29.6328 635.729 29.7578 636.172 29.8516C636.615 29.9401 637.128 29.9844 637.711 29.9844C638.581 29.9844 639.297 29.8854 639.859 29.6875C640.422 29.4896 640.865 29.2318 641.188 28.9141C641.516 28.5964 641.742 28.2396 641.867 27.8438C641.997 27.4427 642.062 27.0417 642.062 26.6406ZM657.773 32L650.531 24.625V32H647.633V21.2656H650.781L658.031 28.6719V21.2656H660.914V32H657.773ZM612.922 53.0391C612.922 53.4557 612.867 53.8177 612.758 54.125C612.648 54.4323 612.495 54.6979 612.297 54.9219C612.104 55.1406 611.87 55.3203 611.594 55.4609C611.323 55.5964 611.021 55.7057 610.688 55.7891C610.359 55.8672 610.008 55.9219 609.633 55.9531C609.258 55.9844 608.87 56 608.469 56H600.68V45.2656H608.328C608.635 45.2656 608.943 45.2786 609.25 45.3047C609.562 45.3307 609.859 45.3802 610.141 45.4531C610.422 45.5208 610.682 45.6172 610.922 45.7422C611.167 45.8672 611.378 46.0312 611.555 46.2344C611.737 46.4375 611.878 46.6823 611.977 46.9688C612.081 47.2552 612.133 47.5938 612.133 47.9844C612.133 48.6823 611.961 49.237 611.617 49.6484C611.273 50.0547 610.732 50.3255 609.992 50.4609C610.513 50.4974 610.958 50.5781 611.328 50.7031C611.703 50.8229 612.008 50.9896 612.242 51.2031C612.477 51.4115 612.648 51.6693 612.758 51.9766C612.867 52.2786 612.922 52.6328 612.922 53.0391ZM609.305 48.4453C609.305 48.3099 609.284 48.1823 609.242 48.0625C609.201 47.9375 609.125 47.8281 609.016 47.7344C608.906 47.6406 608.758 47.5651 608.57 47.5078C608.383 47.4505 608.143 47.4219 607.852 47.4219H603.578V49.4375H607.852C608.143 49.4375 608.383 49.4115 608.57 49.3594C608.758 49.3073 608.906 49.237 609.016 49.1484C609.125 49.0599 609.201 48.9557 609.242 48.8359C609.284 48.7109 609.305 48.5807 609.305 48.4453ZM609.977 52.7031C609.977 52.4583 609.935 52.263 609.852 52.1172C609.768 51.9661 609.638 51.8516 609.461 51.7734C609.284 51.6901 609.055 51.6354 608.773 51.6094C608.492 51.5833 608.156 51.5703 607.766 51.5703H603.578V53.8438H607.766C608.156 53.8438 608.492 53.8307 608.773 53.8047C609.055 53.7786 609.284 53.724 609.461 53.6406C609.638 53.5573 609.768 53.4427 609.852 53.2969C609.935 53.1458 609.977 52.9479 609.977 52.7031ZM615.57 56V45.2656H618.469V53.6484H626.305V56H615.57ZM641.305 52.3828C641.305 52.9193 641.172 53.4245 640.906 53.8984C640.641 54.3724 640.242 54.7865 639.711 55.1406C639.18 55.4948 638.516 55.776 637.719 55.9844C636.927 56.1875 636 56.2891 634.938 56.2891C633.875 56.2891 632.943 56.1875 632.141 55.9844C631.344 55.776 630.68 55.4948 630.148 55.1406C629.617 54.7865 629.219 54.3724 628.953 53.8984C628.688 53.4245 628.555 52.9193 628.555 52.3828V45.2656H631.445V51.3438C631.445 51.7031 631.49 52.0443 631.578 52.3672C631.672 52.6849 631.844 52.9635 632.094 53.2031C632.349 53.4427 632.703 53.6328 633.156 53.7734C633.615 53.9141 634.208 53.9844 634.938 53.9844C635.661 53.9844 636.25 53.9141 636.703 53.7734C637.156 53.6328 637.508 53.4427 637.758 53.2031C638.013 52.9635 638.185 52.6849 638.273 52.3672C638.362 52.0443 638.406 51.7031 638.406 51.3438V45.2656H641.305V52.3828ZM644.586 56V45.2656H655.453V47.5547H647.562V49.3281H655.047V51.6172H647.562V53.7109H655.562V56H644.586Z" fill="#232B3E"/>
<rect width="150" height="80" transform="translate(587 162)" fill="#B094FF"/>
<path d="M610.82 194L603.578 186.625V194H600.68V183.266H603.828L611.078 190.672V183.266H613.961V194H610.82ZM617.32 194V183.266H628.188V185.555H620.297V187.328H627.781V189.617H620.297V191.711H628.297V194H617.32ZM644.992 188.641C644.992 189.562 644.823 190.378 644.484 191.086C644.146 191.789 643.661 192.378 643.031 192.852C642.401 193.326 641.635 193.685 640.734 193.93C639.839 194.169 638.831 194.289 637.711 194.289C636.591 194.289 635.578 194.169 634.672 193.93C633.771 193.685 633.003 193.326 632.367 192.852C631.732 192.378 631.242 191.789 630.898 191.086C630.555 190.378 630.383 189.562 630.383 188.641C630.383 187.719 630.555 186.906 630.898 186.203C631.242 185.495 631.732 184.904 632.367 184.43C633.003 183.956 633.771 183.599 634.672 183.359C635.578 183.115 636.591 182.992 637.711 182.992C638.831 182.992 639.839 183.115 640.734 183.359C641.635 183.599 642.401 183.956 643.031 184.43C643.661 184.904 644.146 185.495 644.484 186.203C644.823 186.906 644.992 187.719 644.992 188.641ZM642.062 188.641C642.062 188.24 641.997 187.841 641.867 187.445C641.742 187.044 641.516 186.685 641.188 186.367C640.865 186.049 640.422 185.792 639.859 185.594C639.297 185.396 638.581 185.297 637.711 185.297C637.128 185.297 636.615 185.344 636.172 185.438C635.729 185.526 635.346 185.651 635.023 185.812C634.701 185.974 634.43 186.164 634.211 186.383C633.992 186.596 633.818 186.828 633.688 187.078C633.557 187.323 633.464 187.581 633.406 187.852C633.354 188.117 633.328 188.38 633.328 188.641C633.328 188.906 633.354 189.174 633.406 189.445C633.464 189.716 633.557 189.977 633.688 190.227C633.818 190.471 633.992 190.701 634.211 190.914C634.43 191.128 634.701 191.315 635.023 191.477C635.346 191.633 635.729 191.758 636.172 191.852C636.615 191.94 637.128 191.984 637.711 191.984C638.581 191.984 639.297 191.885 639.859 191.688C640.422 191.49 640.865 191.232 641.188 190.914C641.516 190.596 641.742 190.24 641.867 189.844C641.997 189.443 642.062 189.042 642.062 188.641ZM657.773 194L650.531 186.625V194H647.633V183.266H650.781L658.031 190.672V183.266H660.914V194H657.773ZM612.742 210.93C612.742 211.466 612.664 211.961 612.508 212.414C612.352 212.862 612.099 213.25 611.75 213.578C611.406 213.901 610.958 214.154 610.406 214.336C609.854 214.518 609.182 214.609 608.391 214.609H603.578V218H600.68V207.266H608.391C609.182 207.266 609.854 207.357 610.406 207.539C610.958 207.716 611.406 207.969 611.75 208.297C612.099 208.62 612.352 209.005 612.508 209.453C612.664 209.901 612.742 210.393 612.742 210.93ZM609.812 210.977C609.812 210.727 609.776 210.513 609.703 210.336C609.635 210.154 609.521 210.005 609.359 209.891C609.198 209.776 608.987 209.693 608.727 209.641C608.466 209.583 608.146 209.555 607.766 209.555H603.578V212.32H607.766C608.146 212.32 608.466 212.299 608.727 212.258C608.987 212.211 609.198 212.135 609.359 212.031C609.521 211.922 609.635 211.781 609.703 211.609C609.776 211.438 609.812 211.227 609.812 210.977ZM627.82 214.383C627.82 214.919 627.688 215.424 627.422 215.898C627.156 216.372 626.758 216.786 626.227 217.141C625.695 217.495 625.031 217.776 624.234 217.984C623.443 218.188 622.516 218.289 621.453 218.289C620.391 218.289 619.458 218.188 618.656 217.984C617.859 217.776 617.195 217.495 616.664 217.141C616.133 216.786 615.734 216.372 615.469 215.898C615.203 215.424 615.07 214.919 615.07 214.383V207.266H617.961V213.344C617.961 213.703 618.005 214.044 618.094 214.367C618.188 214.685 618.359 214.964 618.609 215.203C618.865 215.443 619.219 215.633 619.672 215.773C620.13 215.914 620.724 215.984 621.453 215.984C622.177 215.984 622.766 215.914 623.219 215.773C623.672 215.633 624.023 215.443 624.273 215.203C624.529 214.964 624.701 214.685 624.789 214.367C624.878 214.044 624.922 213.703 624.922 213.344V207.266H627.82V214.383ZM634 218H631.102V207.266H638.367C639.148 207.266 639.81 207.346 640.352 207.508C640.898 207.669 641.341 207.898 641.68 208.195C642.023 208.492 642.271 208.852 642.422 209.273C642.578 209.69 642.656 210.156 642.656 210.672C642.656 211.125 642.591 211.521 642.461 211.859C642.336 212.198 642.164 212.49 641.945 212.734C641.732 212.974 641.482 213.177 641.195 213.344C640.909 213.51 640.607 213.648 640.289 213.758L643.805 218H640.414L637.164 214.047H634V218ZM639.727 210.656C639.727 210.448 639.698 210.271 639.641 210.125C639.589 209.979 639.495 209.862 639.359 209.773C639.224 209.68 639.042 209.612 638.812 209.57C638.589 209.529 638.307 209.508 637.969 209.508H634V211.805H637.969C638.307 211.805 638.589 211.784 638.812 211.742C639.042 211.701 639.224 211.635 639.359 211.547C639.495 211.453 639.589 211.333 639.641 211.188C639.698 211.042 639.727 210.865 639.727 210.656ZM657.945 210.93C657.945 211.466 657.867 211.961 657.711 212.414C657.555 212.862 657.302 213.25 656.953 213.578C656.609 213.901 656.161 214.154 655.609 214.336C655.057 214.518 654.385 214.609 653.594 214.609H648.781V218H645.883V207.266H653.594C654.385 207.266 655.057 207.357 655.609 207.539C656.161 207.716 656.609 207.969 656.953 208.297C657.302 208.62 657.555 209.005 657.711 209.453C657.867 209.901 657.945 210.393 657.945 210.93ZM655.016 210.977C655.016 210.727 654.979 210.513 654.906 210.336C654.839 210.154 654.724 210.005 654.562 209.891C654.401 209.776 654.19 209.693 653.93 209.641C653.669 209.583 653.349 209.555 652.969 209.555H648.781V212.32H652.969C653.349 212.32 653.669 212.299 653.93 212.258C654.19 212.211 654.401 212.135 654.562 212.031C654.724 211.922 654.839 211.781 654.906 211.609C654.979 211.438 655.016 211.227 655.016 210.977ZM660.352 218V207.266H663.25V215.648H671.086V218H660.352ZM673.414 218V207.266H684.281V209.555H676.391V211.328H683.875V213.617H676.391V215.711H684.391V218H673.414Z" fill="#232B3E"/>
<rect width="428" height="162" fill="#232B3E"/>
<path d="M27.3281 32V24.4609L23.3438 32H20.5625L16.5781 24.4609V32H13.6797V21.2656H17.6172L21.9531 29.3906L26.2891 21.2656H30.2109V32H27.3281ZM33.5703 32V21.2656H36.4688V32H33.5703ZM52.9844 26.625C52.9844 27.3125 52.9089 27.9245 52.7578 28.4609C52.6068 28.9922 52.3932 29.4557 52.1172 29.8516C51.8464 30.2474 51.5182 30.5833 51.1328 30.8594C50.7526 31.1354 50.3281 31.3568 49.8594 31.5234C49.3906 31.6901 48.8854 31.8125 48.3438 31.8906C47.8021 31.9635 47.237 32 46.6484 32H39.8359V21.2656H46.6328C47.2214 21.2656 47.7865 21.3047 48.3281 21.3828C48.8698 21.4557 49.375 21.5755 49.8438 21.7422C50.3177 21.9089 50.7474 22.1302 51.1328 22.4062C51.5182 22.6771 51.8464 23.013 52.1172 23.4141C52.3932 23.8099 52.6068 24.2734 52.7578 24.8047C52.9089 25.3359 52.9844 25.9427 52.9844 26.625ZM50.0625 26.625C50.0625 26.1094 49.9948 25.6615 49.8594 25.2812C49.7292 24.901 49.5156 24.5885 49.2188 24.3438C48.9271 24.0938 48.5443 23.9089 48.0703 23.7891C47.5964 23.6641 47.0182 23.6016 46.3359 23.6016H42.7344V29.6641H46.3359C47.0182 29.6641 47.5964 29.6042 48.0703 29.4844C48.5443 29.3594 48.9271 29.1719 49.2188 28.9219C49.5156 28.6667 49.7292 28.349 49.8594 27.9688C49.9948 27.5885 50.0625 27.1406 50.0625 26.625ZM65.7734 32L58.5312 24.625V32H55.6328V21.2656H58.7812L66.0312 28.6719V21.2656H68.9141V32H65.7734ZM72.2734 32V21.2656H75.1719V32H72.2734ZM85.4531 20.9922C86.5052 20.9922 87.4818 21.0833 88.3828 21.2656C89.2891 21.4427 90.1198 21.6719 90.875 21.9531V24.5781C90.5781 24.4115 90.2422 24.25 89.8672 24.0938C89.4974 23.9375 89.0938 23.7995 88.6562 23.6797C88.2188 23.5599 87.75 23.4635 87.25 23.3906C86.75 23.3177 86.224 23.2812 85.6719 23.2812C84.9844 23.2812 84.3854 23.3307 83.875 23.4297C83.3646 23.5286 82.9271 23.6615 82.5625 23.8281C82.1979 23.9948 81.8984 24.1901 81.6641 24.4141C81.4297 24.6328 81.2448 24.8672 81.1094 25.1172C80.974 25.3672 80.8802 25.6224 80.8281 25.8828C80.776 26.1432 80.75 26.3958 80.75 26.6406C80.75 26.8542 80.7708 27.0859 80.8125 27.3359C80.8594 27.5859 80.9427 27.8359 81.0625 28.0859C81.1875 28.3359 81.3594 28.5755 81.5781 28.8047C81.7969 29.0339 82.0807 29.237 82.4297 29.4141C82.7839 29.5911 83.2083 29.7344 83.7031 29.8438C84.1979 29.9479 84.7865 30 85.4688 30C85.8125 30 86.112 29.9896 86.3672 29.9688C86.6224 29.9479 86.8542 29.9193 87.0625 29.8828C87.276 29.8464 87.474 29.8021 87.6562 29.75C87.8438 29.6979 88.0365 29.6432 88.2344 29.5859V28.2891H84.9844V25.9375H91.1328V31.4219C90.7474 31.5521 90.3151 31.6719 89.8359 31.7812C89.362 31.8854 88.8698 31.974 88.3594 32.0469C87.8542 32.125 87.3464 32.1849 86.8359 32.2266C86.3255 32.2682 85.8438 32.2891 85.3906 32.2891C84.6875 32.2891 84.013 32.2422 83.3672 32.1484C82.7214 32.0547 82.1172 31.9115 81.5547 31.7188C80.9974 31.5208 80.487 31.2708 80.0234 30.9688C79.5651 30.6667 79.1719 30.3073 78.8438 29.8906C78.5208 29.474 78.2682 28.9974 78.0859 28.4609C77.9089 27.9193 77.8203 27.3125 77.8203 26.6406C77.8203 25.974 77.9141 25.3698 78.1016 24.8281C78.2891 24.2865 78.5495 23.8073 78.8828 23.3906C79.2214 22.974 79.625 22.6146 80.0938 22.3125C80.5677 22.0104 81.0859 21.763 81.6484 21.5703C82.2161 21.3724 82.8203 21.2266 83.4609 21.1328C84.1068 21.0391 84.7708 20.9922 85.4531 20.9922ZM104.531 32V27.5234H97.1562V32H94.2578V21.2656H97.1562V25.1719H104.531V21.2656H107.43V32H104.531ZM116.805 23.6016V32H113.906V23.6016H109.352V21.2656H121.367V23.6016H116.805ZM25.9219 53.0391C25.9219 53.4557 25.8672 53.8177 25.7578 54.125C25.6484 54.4323 25.4948 54.6979 25.2969 54.9219C25.1042 55.1406 24.8698 55.3203 24.5938 55.4609C24.3229 55.5964 24.0208 55.7057 23.6875 55.7891C23.3594 55.8672 23.0078 55.9219 22.6328 55.9531C22.2578 55.9844 21.8698 56 21.4688 56H13.6797V45.2656H21.3281C21.6354 45.2656 21.9427 45.2786 22.25 45.3047C22.5625 45.3307 22.8594 45.3802 23.1406 45.4531C23.4219 45.5208 23.6823 45.6172 23.9219 45.7422C24.1667 45.8672 24.3776 46.0312 24.5547 46.2344C24.737 46.4375 24.8776 46.6823 24.9766 46.9688C25.0807 47.2552 25.1328 47.5938 25.1328 47.9844C25.1328 48.6823 24.9609 49.237 24.6172 49.6484C24.2734 50.0547 23.7318 50.3255 22.9922 50.4609C23.513 50.4974 23.9583 50.5781 24.3281 50.7031C24.7031 50.8229 25.0078 50.9896 25.2422 51.2031C25.4766 51.4115 25.6484 51.6693 25.7578 51.9766C25.8672 52.2786 25.9219 52.6328 25.9219 53.0391ZM22.3047 48.4453C22.3047 48.3099 22.2839 48.1823 22.2422 48.0625C22.2005 47.9375 22.125 47.8281 22.0156 47.7344C21.9062 47.6406 21.7578 47.5651 21.5703 47.5078C21.3828 47.4505 21.1432 47.4219 20.8516 47.4219H16.5781V49.4375H20.8516C21.1432 49.4375 21.3828 49.4115 21.5703 49.3594C21.7578 49.3073 21.9062 49.237 22.0156 49.1484C22.125 49.0599 22.2005 48.9557 22.2422 48.8359C22.2839 48.7109 22.3047 48.5807 22.3047 48.4453ZM22.9766 52.7031C22.9766 52.4583 22.9349 52.263 22.8516 52.1172C22.7682 51.9661 22.638 51.8516 22.4609 51.7734C22.2839 51.6901 22.0547 51.6354 21.7734 51.6094C21.4922 51.5833 21.1562 51.5703 20.7656 51.5703H16.5781V53.8438H20.7656C21.1562 53.8438 21.4922 53.8307 21.7734 53.8047C22.0547 53.7786 22.2839 53.724 22.4609 53.6406C22.638 53.5573 22.7682 53.4427 22.8516 53.2969C22.9349 53.1458 22.9766 52.9479 22.9766 52.7031ZM28.5703 56V45.2656H31.4688V53.6484H39.3047V56H28.5703ZM54.3047 52.3828C54.3047 52.9193 54.1719 53.4245 53.9062 53.8984C53.6406 54.3724 53.2422 54.7865 52.7109 55.1406C52.1797 55.4948 51.5156 55.776 50.7188 55.9844C49.9271 56.1875 49 56.2891 47.9375 56.2891C46.875 56.2891 45.9427 56.1875 45.1406 55.9844C44.3438 55.776 43.6797 55.4948 43.1484 55.1406C42.6172 54.7865 42.2188 54.3724 41.9531 53.8984C41.6875 53.4245 41.5547 52.9193 41.5547 52.3828V45.2656H44.4453V51.3438C44.4453 51.7031 44.4896 52.0443 44.5781 52.3672C44.6719 52.6849 44.8438 52.9635 45.0938 53.2031C45.349 53.4427 45.7031 53.6328 46.1562 53.7734C46.6146 53.9141 47.2083 53.9844 47.9375 53.9844C48.6615 53.9844 49.25 53.9141 49.7031 53.7734C50.1562 53.6328 50.5078 53.4427 50.7578 53.2031C51.013 52.9635 51.1849 52.6849 51.2734 52.3672C51.362 52.0443 51.4062 51.7031 51.4062 51.3438V45.2656H54.3047V52.3828ZM57.5859 56V45.2656H68.4531V47.5547H60.5625V49.3281H68.0469V51.6172H60.5625V53.7109H68.5625V56H57.5859Z" fill="white"/>
<rect width="428" height="80" transform="translate(0 162)" fill="url(#paint0_linear_277_2072)"/>
<path d="M22.3047 191.969H16.3203L15.3125 194H12.0781L17.6953 183.266H20.9297L26.5469 194H23.3125L22.3047 191.969ZM17.3594 189.875H21.2812L19.3281 185.922L17.3594 189.875ZM40.7422 190.383C40.7422 190.919 40.6094 191.424 40.3438 191.898C40.0781 192.372 39.6797 192.786 39.1484 193.141C38.6172 193.495 37.9531 193.776 37.1562 193.984C36.3646 194.188 35.4375 194.289 34.375 194.289C33.3125 194.289 32.3802 194.188 31.5781 193.984C30.7812 193.776 30.1172 193.495 29.5859 193.141C29.0547 192.786 28.6562 192.372 28.3906 191.898C28.125 191.424 27.9922 190.919 27.9922 190.383V183.266H30.8828V189.344C30.8828 189.703 30.9271 190.044 31.0156 190.367C31.1094 190.685 31.2812 190.964 31.5312 191.203C31.7865 191.443 32.1406 191.633 32.5938 191.773C33.0521 191.914 33.6458 191.984 34.375 191.984C35.099 191.984 35.6875 191.914 36.1406 191.773C36.5938 191.633 36.9453 191.443 37.1953 191.203C37.4505 190.964 37.6224 190.685 37.7109 190.367C37.7995 190.044 37.8438 189.703 37.8438 189.344V183.266H40.7422V190.383ZM46.9219 194H44.0234V183.266H51.2891C52.0703 183.266 52.7318 183.346 53.2734 183.508C53.8203 183.669 54.263 183.898 54.6016 184.195C54.9453 184.492 55.1927 184.852 55.3438 185.273C55.5 185.69 55.5781 186.156 55.5781 186.672C55.5781 187.125 55.513 187.521 55.3828 187.859C55.2578 188.198 55.0859 188.49 54.8672 188.734C54.6536 188.974 54.4036 189.177 54.1172 189.344C53.8307 189.51 53.5286 189.648 53.2109 189.758L56.7266 194H53.3359L50.0859 190.047H46.9219V194ZM52.6484 186.656C52.6484 186.448 52.6198 186.271 52.5625 186.125C52.5104 185.979 52.4167 185.862 52.2812 185.773C52.1458 185.68 51.9635 185.612 51.7344 185.57C51.5104 185.529 51.2292 185.508 50.8906 185.508H46.9219V187.805H50.8906C51.2292 187.805 51.5104 187.784 51.7344 187.742C51.9635 187.701 52.1458 187.635 52.2812 187.547C52.4167 187.453 52.5104 187.333 52.5625 187.188C52.6198 187.042 52.6484 186.865 52.6484 186.656ZM72.6172 188.641C72.6172 189.562 72.4479 190.378 72.1094 191.086C71.7708 191.789 71.2865 192.378 70.6562 192.852C70.026 193.326 69.2604 193.685 68.3594 193.93C67.4635 194.169 66.4557 194.289 65.3359 194.289C64.2161 194.289 63.2031 194.169 62.2969 193.93C61.3958 193.685 60.6276 193.326 59.9922 192.852C59.3568 192.378 58.8672 191.789 58.5234 191.086C58.1797 190.378 58.0078 189.562 58.0078 188.641C58.0078 187.719 58.1797 186.906 58.5234 186.203C58.8672 185.495 59.3568 184.904 59.9922 184.43C60.6276 183.956 61.3958 183.599 62.2969 183.359C63.2031 183.115 64.2161 182.992 65.3359 182.992C66.4557 182.992 67.4635 183.115 68.3594 183.359C69.2604 183.599 70.026 183.956 70.6562 184.43C71.2865 184.904 71.7708 185.495 72.1094 186.203C72.4479 186.906 72.6172 187.719 72.6172 188.641ZM69.6875 188.641C69.6875 188.24 69.6224 187.841 69.4922 187.445C69.3672 187.044 69.1406 186.685 68.8125 186.367C68.4896 186.049 68.0469 185.792 67.4844 185.594C66.9219 185.396 66.2057 185.297 65.3359 185.297C64.7526 185.297 64.2396 185.344 63.7969 185.438C63.3542 185.526 62.9714 185.651 62.6484 185.812C62.3255 185.974 62.0547 186.164 61.8359 186.383C61.6172 186.596 61.4427 186.828 61.3125 187.078C61.1823 187.323 61.0885 187.581 61.0312 187.852C60.9792 188.117 60.9531 188.38 60.9531 188.641C60.9531 188.906 60.9792 189.174 61.0312 189.445C61.0885 189.716 61.1823 189.977 61.3125 190.227C61.4427 190.471 61.6172 190.701 61.8359 190.914C62.0547 191.128 62.3255 191.315 62.6484 191.477C62.9714 191.633 63.3542 191.758 63.7969 191.852C64.2396 191.94 64.7526 191.984 65.3359 191.984C66.2057 191.984 66.9219 191.885 67.4844 191.688C68.0469 191.49 68.4896 191.232 68.8125 190.914C69.1406 190.596 69.3672 190.24 69.4922 189.844C69.6224 189.443 69.6875 189.042 69.6875 188.641ZM78.1562 194H75.2578V183.266H82.5234C83.3047 183.266 83.9661 183.346 84.5078 183.508C85.0547 183.669 85.4974 183.898 85.8359 184.195C86.1797 184.492 86.4271 184.852 86.5781 185.273C86.7344 185.69 86.8125 186.156 86.8125 186.672C86.8125 187.125 86.7474 187.521 86.6172 187.859C86.4922 188.198 86.3203 188.49 86.1016 188.734C85.888 188.974 85.638 189.177 85.3516 189.344C85.0651 189.51 84.763 189.648 84.4453 189.758L87.9609 194H84.5703L81.3203 190.047H78.1562V194ZM83.8828 186.656C83.8828 186.448 83.8542 186.271 83.7969 186.125C83.7448 185.979 83.651 185.862 83.5156 185.773C83.3802 185.68 83.1979 185.612 82.9688 185.57C82.7448 185.529 82.4635 185.508 82.125 185.508H78.1562V187.805H82.125C82.4635 187.805 82.7448 187.784 82.9688 187.742C83.1979 187.701 83.3802 187.635 83.5156 187.547C83.651 187.453 83.7448 187.333 83.7969 187.188C83.8542 187.042 83.8828 186.865 83.8828 186.656ZM98.6641 191.969H92.6797L91.6719 194H88.4375L94.0547 183.266H97.2891L102.906 194H99.6719L98.6641 191.969ZM93.7188 189.875H97.6406L95.6875 185.922L93.7188 189.875ZM20.5938 206.992C21.6458 206.992 22.6224 207.083 23.5234 207.266C24.4297 207.443 25.2604 207.672 26.0156 207.953V210.578C25.7188 210.411 25.3828 210.25 25.0078 210.094C24.638 209.938 24.2344 209.799 23.7969 209.68C23.3594 209.56 22.8906 209.464 22.3906 209.391C21.8906 209.318 21.3646 209.281 20.8125 209.281C20.125 209.281 19.526 209.331 19.0156 209.43C18.5052 209.529 18.0677 209.661 17.7031 209.828C17.3385 209.995 17.0391 210.19 16.8047 210.414C16.5703 210.633 16.3854 210.867 16.25 211.117C16.1146 211.367 16.0208 211.622 15.9688 211.883C15.9167 212.143 15.8906 212.396 15.8906 212.641C15.8906 212.854 15.9115 213.086 15.9531 213.336C16 213.586 16.0833 213.836 16.2031 214.086C16.3281 214.336 16.5 214.576 16.7188 214.805C16.9375 215.034 17.2214 215.237 17.5703 215.414C17.9245 215.591 18.349 215.734 18.8438 215.844C19.3385 215.948 19.9271 216 20.6094 216C20.9531 216 21.2526 215.99 21.5078 215.969C21.763 215.948 21.9948 215.919 22.2031 215.883C22.4167 215.846 22.6146 215.802 22.7969 215.75C22.9844 215.698 23.1771 215.643 23.375 215.586V214.289H20.125V211.938H26.2734V217.422C25.888 217.552 25.4557 217.672 24.9766 217.781C24.5026 217.885 24.0104 217.974 23.5 218.047C22.9948 218.125 22.487 218.185 21.9766 218.227C21.4661 218.268 20.9844 218.289 20.5312 218.289C19.8281 218.289 19.1536 218.242 18.5078 218.148C17.862 218.055 17.2578 217.911 16.6953 217.719C16.138 217.521 15.6276 217.271 15.1641 216.969C14.7057 216.667 14.3125 216.307 13.9844 215.891C13.6615 215.474 13.4089 214.997 13.2266 214.461C13.0495 213.919 12.9609 213.312 12.9609 212.641C12.9609 211.974 13.0547 211.37 13.2422 210.828C13.4297 210.286 13.6901 209.807 14.0234 209.391C14.362 208.974 14.7656 208.615 15.2344 208.312C15.7083 208.01 16.2266 207.763 16.7891 207.57C17.3568 207.372 17.9609 207.227 18.6016 207.133C19.2474 207.039 19.9115 206.992 20.5938 206.992ZM32.2969 218H29.3984V207.266H36.6641C37.4453 207.266 38.1068 207.346 38.6484 207.508C39.1953 207.669 39.638 207.898 39.9766 208.195C40.3203 208.492 40.5677 208.852 40.7188 209.273C40.875 209.69 40.9531 210.156 40.9531 210.672C40.9531 211.125 40.888 211.521 40.7578 211.859C40.6328 212.198 40.4609 212.49 40.2422 212.734C40.0286 212.974 39.7786 213.177 39.4922 213.344C39.2057 213.51 38.9036 213.648 38.5859 213.758L42.1016 218H38.7109L35.4609 214.047H32.2969V218ZM38.0234 210.656C38.0234 210.448 37.9948 210.271 37.9375 210.125C37.8854 209.979 37.7917 209.862 37.6562 209.773C37.5208 209.68 37.3385 209.612 37.1094 209.57C36.8854 209.529 36.6042 209.508 36.2656 209.508H32.2969V211.805H36.2656C36.6042 211.805 36.8854 211.784 37.1094 211.742C37.3385 211.701 37.5208 211.635 37.6562 211.547C37.7917 211.453 37.8854 211.333 37.9375 211.188C37.9948 211.042 38.0234 210.865 38.0234 210.656ZM52.8047 215.969H46.8203L45.8125 218H42.5781L48.1953 207.266H51.4297L57.0469 218H53.8125L52.8047 215.969ZM47.8594 213.875H51.7812L49.8281 209.922L47.8594 213.875ZM71.9531 212.625C71.9531 213.312 71.8776 213.924 71.7266 214.461C71.5755 214.992 71.362 215.456 71.0859 215.852C70.8151 216.247 70.487 216.583 70.1016 216.859C69.7214 217.135 69.2969 217.357 68.8281 217.523C68.3594 217.69 67.8542 217.812 67.3125 217.891C66.7708 217.964 66.2057 218 65.6172 218H58.8047V207.266H65.6016C66.1901 207.266 66.7552 207.305 67.2969 207.383C67.8385 207.456 68.3438 207.576 68.8125 207.742C69.2865 207.909 69.7161 208.13 70.1016 208.406C70.487 208.677 70.8151 209.013 71.0859 209.414C71.362 209.81 71.5755 210.273 71.7266 210.805C71.8776 211.336 71.9531 211.943 71.9531 212.625ZM69.0312 212.625C69.0312 212.109 68.9635 211.661 68.8281 211.281C68.6979 210.901 68.4844 210.589 68.1875 210.344C67.8958 210.094 67.513 209.909 67.0391 209.789C66.5651 209.664 65.987 209.602 65.3047 209.602H61.7031V215.664H65.3047C65.987 215.664 66.5651 215.604 67.0391 215.484C67.513 215.359 67.8958 215.172 68.1875 214.922C68.4844 214.667 68.6979 214.349 68.8281 213.969C68.9635 213.589 69.0312 213.141 69.0312 212.625ZM74.6016 218V207.266H77.5V218H74.6016ZM80.8672 218V207.266H91.7344V209.555H83.8438V211.328H91.3281V213.617H83.8438V215.711H91.8438V218H80.8672ZM104.789 218L97.5469 210.625V218H94.6484V207.266H97.7969L105.047 214.672V207.266H107.93V218H104.789ZM117.305 209.602V218H114.406V209.602H109.852V207.266H121.867V209.602H117.305Z" fill="#232B3E"/>
<defs>
<linearGradient id="paint0_linear_277_2072" x1="-306.733" y1="-56.6667" x2="-256.901" y2="208.643" gradientUnits="userSpaceOnUse">
<stop stop-color="#82FF96"/>
<stop offset="1" stop-color="#7CFFFF"/>
</linearGradient>
</defs>
</svg>
