<svg width="200" height="200" viewBox="0 0 200 200" fill="none" xmlns="http://www.w3.org/2000/svg">
<path d="M103.832 60.3672L112.261 77.3632C113.468 79.7966 115.798 81.4787 118.489 81.8676L137.338 84.5931C140.852 85.1012 142.227 89.3778 139.707 91.822L126.068 105.052C124.117 106.944 123.224 109.673 123.686 112.35L126.905 131.031C127.499 134.474 123.857 137.147 120.704 135.497L103.845 126.677C101.438 125.418 98.5624 125.418 96.1547 126.677L79.2956 135.497C76.1427 137.147 72.5012 134.474 73.0946 131.031L76.3144 112.35C76.7759 109.673 75.8832 106.944 73.9324 105.052L60.2931 91.822C57.7733 89.3778 59.1482 85.1012 62.6624 84.5931L81.5114 81.8676C84.2016 81.4787 86.5318 79.7966 87.7387 77.3632L96.1682 60.3672C97.7336 57.2109 102.266 57.2109 103.832 60.3672Z" fill="url(#paint0_linear_153_532)" stroke="url(#paint1_linear_153_532)" stroke-width="4"/>
<path d="M55 65L71.5 71" stroke="#7CFFFF" stroke-width="4"/>
<path d="M72.1482 48.6372L77.7617 65.2727" stroke="#7CFFFF" stroke-width="4"/>
<path d="M145 65L128.5 71" stroke="#7CFFFF" stroke-width="4"/>
<path d="M127.852 48.6372L122.238 65.2727" stroke="#7CFFFF" stroke-width="4"/>
<path opacity="0.3" d="M31.977 107.928C35.871 104.087 42.129 104.087 46.023 107.928L46.8092 108.704C47.5239 109.409 48.3406 110.003 49.232 110.464L50.2126 110.972C55.0695 113.489 57.0033 119.44 54.5531 124.331L54.0584 125.318C53.6087 126.216 53.2967 127.176 53.1329 128.166L52.9528 129.256C52.0605 134.653 46.9977 138.331 41.5893 137.512L40.4974 137.347C39.5048 137.196 38.4952 137.196 37.5026 137.347L36.4107 137.512C31.0023 138.331 25.9395 134.653 25.0472 129.256L24.8671 128.166C24.7033 127.176 24.3913 126.216 23.9416 125.318L23.4469 124.331C20.9967 119.44 22.9305 113.489 27.7874 110.972L28.768 110.464C29.6594 110.003 30.4761 109.409 31.1908 108.704L31.977 107.928Z" fill="white"/>
<path opacity="0.3" d="M153.977 107.928C157.871 104.087 164.129 104.087 168.023 107.928L168.809 108.704C169.524 109.409 170.341 110.003 171.232 110.464L172.213 110.972C177.069 113.489 179.003 119.44 176.553 124.331L176.058 125.318C175.609 126.216 175.297 127.176 175.133 128.166L174.953 129.256C174.06 134.653 168.998 138.331 163.589 137.512L162.497 137.347C161.505 137.196 160.495 137.196 159.503 137.347L158.411 137.512C153.002 138.331 147.94 134.653 147.047 129.256L146.867 128.166C146.703 127.176 146.391 126.216 145.942 125.318L145.447 124.331C142.997 119.44 144.931 113.489 149.787 110.972L150.768 110.464C151.659 110.003 152.476 109.409 153.191 108.704L153.977 107.928Z" fill="white"/>
<defs>
<linearGradient id="paint0_linear_153_532" x1="100" y1="56" x2="100" y2="138" gradientUnits="userSpaceOnUse">
<stop stop-color="#6CFFB0" stop-opacity="0.6"/>
<stop offset="1" stop-color="#7CFFFF" stop-opacity="0"/>
</linearGradient>
<linearGradient id="paint1_linear_153_532" x1="134.5" y1="138" x2="24" y2="8" gradientUnits="userSpaceOnUse">
<stop stop-color="#80FFBA"/>
<stop offset="1" stop-color="#7CFFFF"/>
</linearGradient>
</defs>
</svg>
