<svg width="737" height="858" viewBox="0 0 737 858" fill="none" xmlns="http://www.w3.org/2000/svg">
<path fill-rule="evenodd" clip-rule="evenodd" d="M187.322 0.9648C135.241 -6.13717 86.0153 26.6325 72.4717 77.4208L26.9697 248.053C23.5017 261.058 32.2223 274.158 45.5581 275.977C58.8939 277.795 67.6145 290.895 64.1465 303.9L3.3014 532.069C-0.166525 545.074 8.55398 558.174 21.8897 559.992C35.2255 561.811 43.946 574.91 40.4781 587.915L3.55961 726.359C-12.6101 786.996 28.0505 848.075 90.2304 856.554C142.312 863.656 191.537 830.887 205.081 780.098L250.583 609.465C254.051 596.461 245.33 583.361 231.995 581.542C218.659 579.724 209.938 566.624 213.406 553.619L274.252 325.45C277.719 312.445 268.999 299.345 255.663 297.527C242.327 295.708 233.607 282.609 237.075 269.604L273.993 131.16C290.163 70.5233 249.502 9.44388 187.322 0.9648ZM542.023 29.9438H737L666.099 295.821H737L666.099 561.699H737L666.099 827.577H471.122L542.023 561.699H471.122L492.392 481.936H344.83L293.871 295.821H471.122L542.023 29.9438Z" fill="#03112A"/>
</svg>
