<svg width="1061" height="314" viewBox="0 0 1061 314" fill="none" xmlns="http://www.w3.org/2000/svg">
<path opacity="0.8" d="M0 157C0 70.2913 70.2913 0 157 0H168.148C229.416 0 285.834 33.3246 315.408 86.9821L340.697 132.865C348.979 147.889 348.979 166.111 340.697 181.135L315.408 227.018C285.834 280.675 229.415 314 168.148 314H157C70.2912 314 0 243.709 0 157Z" fill="url(#paint0_linear_3018_3148)"/>
<path opacity="0.8" d="M354 157C354 70.2913 424.291 0 511 0H521.588C582.723 0 639.008 33.291 668.455 86.8679L693.764 132.917C702.006 147.914 702.007 166.086 693.764 181.083L668.455 227.132C639.008 280.709 582.723 314 521.588 314H511C424.291 314 354 243.709 354 157Z" fill="url(#paint1_linear_3018_3148)"/>
<path opacity="0.8" d="M707 157C707 70.2913 777.291 0 864 0H875.148C936.416 0 992.834 33.3246 1022.41 86.9821L1047.7 132.865C1055.98 147.889 1055.98 166.111 1047.7 181.135L1022.41 227.018C992.834 280.675 936.415 314 875.148 314H864C777.291 314 707 243.709 707 157Z" fill="url(#paint2_linear_3018_3148)"/>
<path d="M99.2194 150.296C101.547 150.296 103.479 150.584 105.015 151.16C106.575 151.736 107.739 152.588 108.507 153.716C109.299 154.82 109.695 156.212 109.695 157.892C109.695 158.924 109.515 159.872 109.155 160.736C108.819 161.6 108.327 162.368 107.679 163.04C107.031 163.712 106.251 164.3 105.339 164.804L112.827 176H104.943L99.5074 166.64H97.7434V176H90.7954V150.296H99.2194ZM99.1114 155.552H97.7434V161.42H99.0394C99.7594 161.42 100.383 161.324 100.911 161.132C101.463 160.916 101.895 160.58 102.207 160.124C102.519 159.644 102.675 159.008 102.675 158.216C102.675 157.664 102.555 157.196 102.315 156.812C102.075 156.404 101.691 156.092 101.163 155.876C100.635 155.66 99.9514 155.552 99.1114 155.552ZM123.727 155.732C125.671 155.732 127.339 156.068 128.731 156.74C130.147 157.412 131.227 158.42 131.971 159.764C132.739 161.108 133.123 162.8 133.123 164.84V167.9H120.847C120.895 168.932 121.279 169.784 121.999 170.456C122.743 171.128 123.811 171.464 125.203 171.464C126.451 171.464 127.591 171.344 128.623 171.104C129.655 170.864 130.723 170.48 131.827 169.952V174.884C130.867 175.388 129.811 175.76 128.659 176C127.531 176.24 126.103 176.36 124.375 176.36C122.359 176.36 120.559 176.012 118.975 175.316C117.415 174.596 116.179 173.48 115.267 171.968C114.355 170.456 113.899 168.524 113.899 166.172C113.899 163.772 114.307 161.804 115.123 160.268C115.963 158.732 117.115 157.592 118.579 156.848C120.067 156.104 121.783 155.732 123.727 155.732ZM123.979 160.412C123.163 160.412 122.479 160.664 121.927 161.168C121.399 161.672 121.087 162.476 120.991 163.58H126.895C126.895 162.98 126.775 162.452 126.535 161.996C126.319 161.516 125.995 161.132 125.563 160.844C125.131 160.556 124.603 160.412 123.979 160.412ZM143.209 176.36C141.169 176.36 139.477 175.484 138.133 173.732C136.813 171.98 136.153 169.424 136.153 166.064C136.153 162.656 136.825 160.088 138.169 158.36C139.537 156.608 141.301 155.732 143.461 155.732C144.349 155.732 145.117 155.864 145.765 156.128C146.413 156.368 146.977 156.716 147.457 157.172C147.937 157.604 148.345 158.096 148.681 158.648H148.825C148.729 158.144 148.645 157.448 148.573 156.56C148.525 155.672 148.501 154.808 148.501 153.968V148.64H155.413V176H150.229L148.753 173.48H148.501C148.189 174.008 147.793 174.488 147.313 174.92C146.833 175.352 146.257 175.7 145.585 175.964C144.913 176.228 144.121 176.36 143.209 176.36ZM146.017 170.924C147.121 170.924 147.901 170.576 148.357 169.88C148.813 169.184 149.053 168.116 149.077 166.676V166.136C149.077 164.576 148.849 163.376 148.393 162.536C147.961 161.696 147.145 161.276 145.945 161.276C145.129 161.276 144.445 161.672 143.893 162.464C143.365 163.256 143.101 164.492 143.101 166.172C143.101 167.828 143.365 169.04 143.893 169.808C144.445 170.552 145.153 170.924 146.017 170.924ZM169.113 155.732C171.057 155.732 172.725 156.068 174.117 156.74C175.533 157.412 176.613 158.42 177.357 159.764C178.125 161.108 178.509 162.8 178.509 164.84V167.9H166.233C166.281 168.932 166.665 169.784 167.385 170.456C168.129 171.128 169.197 171.464 170.589 171.464C171.837 171.464 172.977 171.344 174.009 171.104C175.041 170.864 176.109 170.48 177.213 169.952V174.884C176.253 175.388 175.197 175.76 174.045 176C172.917 176.24 171.489 176.36 169.761 176.36C167.745 176.36 165.945 176.012 164.361 175.316C162.801 174.596 161.565 173.48 160.653 171.968C159.741 170.456 159.285 168.524 159.285 166.172C159.285 163.772 159.693 161.804 160.509 160.268C161.349 158.732 162.501 157.592 163.965 156.848C165.453 156.104 167.169 155.732 169.113 155.732ZM169.365 160.412C168.549 160.412 167.865 160.664 167.313 161.168C166.785 161.672 166.473 162.476 166.377 163.58H172.281C172.281 162.98 172.161 162.452 171.921 161.996C171.705 161.516 171.381 161.132 170.949 160.844C170.517 160.556 169.989 160.412 169.365 160.412ZM194.571 161.24H190.323V176H183.447V161.24H180.819V157.856L183.591 156.164V155.84C183.591 154.112 183.819 152.708 184.275 151.628C184.731 150.548 185.451 149.756 186.435 149.252C187.443 148.724 188.751 148.46 190.359 148.46C191.391 148.46 192.327 148.544 193.167 148.712C194.007 148.856 194.883 149.084 195.795 149.396L194.319 153.86C193.983 153.764 193.599 153.68 193.167 153.608C192.759 153.536 192.315 153.5 191.835 153.5C191.307 153.5 190.923 153.668 190.683 154.004C190.443 154.316 190.323 154.832 190.323 155.552V156.092H194.571V161.24ZM204.183 156.092V176H197.307V156.092H204.183ZM200.763 148.064C201.747 148.064 202.599 148.268 203.319 148.676C204.063 149.084 204.435 149.9 204.435 151.124C204.435 152.3 204.063 153.104 203.319 153.536C202.599 153.944 201.747 154.148 200.763 154.148C199.755 154.148 198.891 153.944 198.171 153.536C197.475 153.104 197.127 152.3 197.127 151.124C197.127 149.9 197.475 149.084 198.171 148.676C198.891 148.268 199.755 148.064 200.763 148.064ZM221.437 155.732C223.501 155.732 225.181 156.308 226.477 157.46C227.773 158.612 228.421 160.472 228.421 163.04V176H221.545V165.128C221.545 163.808 221.353 162.812 220.969 162.14C220.585 161.468 219.973 161.132 219.133 161.132C217.837 161.132 216.961 161.66 216.505 162.716C216.073 163.772 215.857 165.296 215.857 167.288V176H208.981V156.092H214.165L215.101 158.72H215.353C215.785 158.096 216.289 157.568 216.865 157.136C217.465 156.68 218.137 156.332 218.881 156.092C219.649 155.852 220.501 155.732 221.437 155.732ZM242.063 155.732C244.007 155.732 245.675 156.068 247.067 156.74C248.483 157.412 249.563 158.42 250.307 159.764C251.075 161.108 251.459 162.8 251.459 164.84V167.9H239.183C239.231 168.932 239.615 169.784 240.335 170.456C241.079 171.128 242.147 171.464 243.539 171.464C244.787 171.464 245.927 171.344 246.959 171.104C247.991 170.864 249.059 170.48 250.163 169.952V174.884C249.203 175.388 248.147 175.76 246.995 176C245.867 176.24 244.439 176.36 242.711 176.36C240.695 176.36 238.895 176.012 237.311 175.316C235.751 174.596 234.515 173.48 233.603 171.968C232.691 170.456 232.235 168.524 232.235 166.172C232.235 163.772 232.643 161.804 233.459 160.268C234.299 158.732 235.451 157.592 236.915 156.848C238.403 156.104 240.119 155.732 242.063 155.732ZM242.315 160.412C241.499 160.412 240.815 160.664 240.263 161.168C239.735 161.672 239.423 162.476 239.327 163.58H245.231C245.231 162.98 245.111 162.452 244.871 161.996C244.655 161.516 244.331 161.132 243.899 160.844C243.467 160.556 242.939 160.412 242.315 160.412Z" fill="#007A00"/>
<path d="M444.917 150.296C447.245 150.296 449.177 150.584 450.713 151.16C452.273 151.736 453.437 152.588 454.205 153.716C454.997 154.82 455.393 156.212 455.393 157.892C455.393 158.924 455.213 159.872 454.853 160.736C454.517 161.6 454.025 162.368 453.377 163.04C452.729 163.712 451.949 164.3 451.037 164.804L458.525 176H450.641L445.205 166.64H443.441V176H436.493V150.296H444.917ZM444.809 155.552H443.441V161.42H444.737C445.457 161.42 446.081 161.324 446.609 161.132C447.161 160.916 447.593 160.58 447.905 160.124C448.217 159.644 448.373 159.008 448.373 158.216C448.373 157.664 448.253 157.196 448.013 156.812C447.773 156.404 447.389 156.092 446.861 155.876C446.333 155.66 445.649 155.552 444.809 155.552ZM469.424 155.732C471.368 155.732 473.036 156.068 474.428 156.74C475.844 157.412 476.924 158.42 477.668 159.764C478.436 161.108 478.82 162.8 478.82 164.84V167.9H466.544C466.592 168.932 466.976 169.784 467.696 170.456C468.44 171.128 469.508 171.464 470.9 171.464C472.148 171.464 473.288 171.344 474.32 171.104C475.352 170.864 476.42 170.48 477.524 169.952V174.884C476.564 175.388 475.508 175.76 474.356 176C473.228 176.24 471.8 176.36 470.072 176.36C468.056 176.36 466.256 176.012 464.672 175.316C463.112 174.596 461.876 173.48 460.964 171.968C460.052 170.456 459.596 168.524 459.596 166.172C459.596 163.772 460.004 161.804 460.82 160.268C461.66 158.732 462.812 157.592 464.276 156.848C465.764 156.104 467.48 155.732 469.424 155.732ZM469.676 160.412C468.86 160.412 468.176 160.664 467.624 161.168C467.096 161.672 466.784 162.476 466.688 163.58H472.592C472.592 162.98 472.472 162.452 472.232 161.996C472.016 161.516 471.692 161.132 471.26 160.844C470.828 160.556 470.3 160.412 469.676 160.412ZM488.906 176.36C486.866 176.36 485.174 175.484 483.83 173.732C482.51 171.98 481.85 169.424 481.85 166.064C481.85 162.656 482.522 160.088 483.866 158.36C485.234 156.608 486.998 155.732 489.158 155.732C490.046 155.732 490.814 155.864 491.462 156.128C492.11 156.368 492.674 156.716 493.154 157.172C493.634 157.604 494.042 158.096 494.378 158.648H494.522C494.426 158.144 494.342 157.448 494.27 156.56C494.222 155.672 494.198 154.808 494.198 153.968V148.64H501.11V176H495.926L494.45 173.48H494.198C493.886 174.008 493.49 174.488 493.01 174.92C492.53 175.352 491.954 175.7 491.282 175.964C490.61 176.228 489.818 176.36 488.906 176.36ZM491.714 170.924C492.818 170.924 493.598 170.576 494.054 169.88C494.51 169.184 494.75 168.116 494.774 166.676V166.136C494.774 164.576 494.546 163.376 494.09 162.536C493.658 161.696 492.842 161.276 491.642 161.276C490.826 161.276 490.142 161.672 489.59 162.464C489.062 163.256 488.798 164.492 488.798 166.172C488.798 167.828 489.062 169.04 489.59 169.808C490.142 170.552 490.85 170.924 491.714 170.924ZM514.811 155.732C516.755 155.732 518.423 156.068 519.815 156.74C521.231 157.412 522.311 158.42 523.055 159.764C523.823 161.108 524.207 162.8 524.207 164.84V167.9H511.931C511.979 168.932 512.363 169.784 513.083 170.456C513.827 171.128 514.895 171.464 516.287 171.464C517.535 171.464 518.675 171.344 519.707 171.104C520.739 170.864 521.807 170.48 522.911 169.952V174.884C521.951 175.388 520.895 175.76 519.743 176C518.615 176.24 517.187 176.36 515.459 176.36C513.443 176.36 511.643 176.012 510.059 175.316C508.499 174.596 507.263 173.48 506.351 171.968C505.439 170.456 504.983 168.524 504.983 166.172C504.983 163.772 505.391 161.804 506.207 160.268C507.047 158.732 508.199 157.592 509.663 156.848C511.151 156.104 512.867 155.732 514.811 155.732ZM515.063 160.412C514.247 160.412 513.563 160.664 513.011 161.168C512.483 161.672 512.171 162.476 512.075 163.58H517.979C517.979 162.98 517.859 162.452 517.619 161.996C517.403 161.516 517.079 161.132 516.647 160.844C516.215 160.556 515.687 160.412 515.063 160.412ZM542.897 169.88C542.897 171.128 542.609 172.244 542.033 173.228C541.481 174.212 540.581 174.98 539.333 175.532C538.109 176.084 536.489 176.36 534.473 176.36C533.057 176.36 531.785 176.276 530.657 176.108C529.553 175.964 528.425 175.676 527.273 175.244V169.736C528.545 170.312 529.829 170.732 531.125 170.996C532.421 171.236 533.441 171.356 534.185 171.356C534.953 171.356 535.517 171.272 535.877 171.104C536.237 170.936 536.417 170.684 536.417 170.348C536.417 170.06 536.297 169.808 536.057 169.592C535.817 169.376 535.385 169.136 534.761 168.872C534.161 168.608 533.297 168.248 532.169 167.792C531.065 167.336 530.141 166.844 529.397 166.316C528.677 165.764 528.137 165.116 527.777 164.372C527.417 163.604 527.237 162.68 527.237 161.6C527.237 159.656 527.981 158.192 529.469 157.208C530.981 156.224 532.973 155.732 535.445 155.732C536.765 155.732 538.001 155.876 539.153 156.164C540.305 156.452 541.505 156.872 542.753 157.424L540.881 161.852C540.233 161.54 539.561 161.276 538.865 161.06C538.193 160.844 537.557 160.676 536.957 160.556C536.381 160.436 535.889 160.376 535.481 160.376C534.953 160.376 534.533 160.448 534.221 160.592C533.933 160.736 533.789 160.94 533.789 161.204C533.789 161.444 533.885 161.66 534.077 161.852C534.293 162.044 534.689 162.26 535.265 162.5C535.841 162.74 536.681 163.088 537.785 163.544C538.937 164 539.885 164.504 540.629 165.056C541.397 165.584 541.961 166.232 542.321 167C542.705 167.744 542.897 168.704 542.897 169.88ZM553.61 156.092V176H546.734V156.092H553.61ZM550.19 148.064C551.174 148.064 552.026 148.268 552.746 148.676C553.49 149.084 553.862 149.9 553.862 151.124C553.862 152.3 553.49 153.104 552.746 153.536C552.026 153.944 551.174 154.148 550.19 154.148C549.182 154.148 548.318 153.944 547.598 153.536C546.902 153.104 546.554 152.3 546.554 151.124C546.554 149.9 546.902 149.084 547.598 148.676C548.318 148.268 549.182 148.064 550.19 148.064ZM564.777 155.732C566.169 155.732 567.285 156.008 568.125 156.56C568.989 157.088 569.685 157.748 570.213 158.54H570.357L570.861 156.092H576.801V176.036C576.801 177.908 576.417 179.48 575.649 180.752C574.881 182.024 573.705 182.984 572.121 183.632C570.561 184.304 568.581 184.64 566.181 184.64C564.573 184.64 563.157 184.556 561.933 184.388C560.709 184.22 559.533 183.92 558.405 183.488V177.764C559.221 178.1 559.989 178.376 560.709 178.592C561.429 178.832 562.197 179 563.013 179.096C563.829 179.216 564.753 179.276 565.785 179.276C567.177 179.276 568.209 179.024 568.881 178.52C569.577 178.016 569.925 177.284 569.925 176.324V175.964C569.925 175.652 569.937 175.28 569.961 174.848C570.009 174.416 570.069 173.96 570.141 173.48H569.925C569.469 174.272 568.821 174.956 567.981 175.532C567.141 176.084 566.037 176.36 564.669 176.36C562.557 176.36 560.841 175.484 559.521 173.732C558.201 171.98 557.541 169.424 557.541 166.064C557.541 163.808 557.841 161.924 558.441 160.412C559.065 158.876 559.917 157.712 560.997 156.92C562.101 156.128 563.361 155.732 564.777 155.732ZM567.369 161.06C566.745 161.06 566.217 161.252 565.785 161.636C565.353 162.02 565.029 162.596 564.813 163.364C564.621 164.108 564.525 165.044 564.525 166.172C564.525 167.9 564.765 169.148 565.245 169.916C565.725 170.66 566.469 171.032 567.477 171.032C568.029 171.032 568.497 170.948 568.881 170.78C569.265 170.588 569.565 170.324 569.781 169.988C570.021 169.628 570.189 169.184 570.285 168.656C570.405 168.128 570.465 167.504 570.465 166.784V165.956C570.465 164.924 570.369 164.048 570.177 163.328C570.009 162.584 569.697 162.02 569.241 161.636C568.809 161.252 568.185 161.06 567.369 161.06ZM593.994 155.732C596.058 155.732 597.738 156.308 599.034 157.46C600.33 158.612 600.978 160.472 600.978 163.04V176H594.102V165.128C594.102 163.808 593.91 162.812 593.526 162.14C593.142 161.468 592.53 161.132 591.69 161.132C590.394 161.132 589.518 161.66 589.062 162.716C588.63 163.772 588.414 165.296 588.414 167.288V176H581.538V156.092H586.722L587.658 158.72H587.91C588.342 158.096 588.846 157.568 589.422 157.136C590.022 156.68 590.694 156.332 591.438 156.092C592.206 155.852 593.058 155.732 593.994 155.732Z" fill="#254441"/>
<path d="M776.559 150.296C778.887 150.296 780.819 150.584 782.355 151.16C783.915 151.736 785.079 152.588 785.847 153.716C786.639 154.82 787.035 156.212 787.035 157.892C787.035 158.924 786.855 159.872 786.495 160.736C786.159 161.6 785.667 162.368 785.019 163.04C784.371 163.712 783.591 164.3 782.679 164.804L790.167 176H782.283L776.847 166.64H775.083V176H768.135V150.296H776.559ZM776.451 155.552H775.083V161.42H776.379C777.099 161.42 777.723 161.324 778.251 161.132C778.803 160.916 779.235 160.58 779.547 160.124C779.859 159.644 780.015 159.008 780.015 158.216C780.015 157.664 779.895 157.196 779.655 156.812C779.415 156.404 779.031 156.092 778.503 155.876C777.975 155.66 777.291 155.552 776.451 155.552ZM801.067 155.732C803.011 155.732 804.679 156.068 806.071 156.74C807.487 157.412 808.567 158.42 809.311 159.764C810.079 161.108 810.463 162.8 810.463 164.84V167.9H798.187C798.235 168.932 798.619 169.784 799.339 170.456C800.083 171.128 801.151 171.464 802.543 171.464C803.791 171.464 804.931 171.344 805.963 171.104C806.995 170.864 808.063 170.48 809.167 169.952V174.884C808.207 175.388 807.151 175.76 805.999 176C804.871 176.24 803.443 176.36 801.715 176.36C799.699 176.36 797.899 176.012 796.315 175.316C794.755 174.596 793.519 173.48 792.607 171.968C791.695 170.456 791.239 168.524 791.239 166.172C791.239 163.772 791.647 161.804 792.463 160.268C793.303 158.732 794.455 157.592 795.919 156.848C797.407 156.104 799.123 155.732 801.067 155.732ZM801.319 160.412C800.503 160.412 799.819 160.664 799.267 161.168C798.739 161.672 798.427 162.476 798.331 163.58H804.235C804.235 162.98 804.115 162.452 803.875 161.996C803.659 161.516 803.335 161.132 802.903 160.844C802.471 160.556 801.943 160.412 801.319 160.412ZM829.152 169.88C829.152 171.128 828.864 172.244 828.288 173.228C827.736 174.212 826.836 174.98 825.588 175.532C824.364 176.084 822.744 176.36 820.728 176.36C819.312 176.36 818.04 176.276 816.912 176.108C815.808 175.964 814.68 175.676 813.528 175.244V169.736C814.8 170.312 816.084 170.732 817.38 170.996C818.676 171.236 819.696 171.356 820.44 171.356C821.208 171.356 821.772 171.272 822.132 171.104C822.492 170.936 822.672 170.684 822.672 170.348C822.672 170.06 822.552 169.808 822.312 169.592C822.072 169.376 821.64 169.136 821.016 168.872C820.416 168.608 819.552 168.248 818.424 167.792C817.32 167.336 816.396 166.844 815.652 166.316C814.932 165.764 814.392 165.116 814.032 164.372C813.672 163.604 813.492 162.68 813.492 161.6C813.492 159.656 814.236 158.192 815.724 157.208C817.236 156.224 819.228 155.732 821.7 155.732C823.02 155.732 824.256 155.876 825.408 156.164C826.56 156.452 827.76 156.872 829.008 157.424L827.136 161.852C826.488 161.54 825.816 161.276 825.12 161.06C824.448 160.844 823.812 160.676 823.212 160.556C822.636 160.436 822.144 160.376 821.736 160.376C821.208 160.376 820.788 160.448 820.476 160.592C820.188 160.736 820.044 160.94 820.044 161.204C820.044 161.444 820.14 161.66 820.332 161.852C820.548 162.044 820.944 162.26 821.52 162.5C822.096 162.74 822.936 163.088 824.04 163.544C825.192 164 826.14 164.504 826.884 165.056C827.652 165.584 828.216 166.232 828.576 167C828.96 167.744 829.152 168.704 829.152 169.88ZM842.71 170.924C843.334 170.924 843.898 170.864 844.402 170.744C844.93 170.6 845.47 170.432 846.022 170.24V175.244C845.278 175.556 844.486 175.82 843.646 176.036C842.806 176.252 841.738 176.36 840.442 176.36C839.146 176.36 838.006 176.156 837.022 175.748C836.062 175.34 835.306 174.644 834.754 173.66C834.202 172.652 833.926 171.248 833.926 169.448V161.24H831.514V158.432L834.574 156.272L836.338 152.096H840.838V156.092H845.734V161.24H840.838V168.98C840.838 169.628 840.994 170.12 841.306 170.456C841.642 170.768 842.11 170.924 842.71 170.924ZM861.537 155.732C861.921 155.732 862.317 155.756 862.725 155.804C863.133 155.852 863.433 155.9 863.625 155.948L863.013 162.428C862.773 162.38 862.473 162.332 862.113 162.284C861.777 162.236 861.297 162.212 860.673 162.212C860.241 162.212 859.773 162.26 859.269 162.356C858.789 162.428 858.321 162.596 857.865 162.86C857.433 163.124 857.073 163.52 856.785 164.048C856.521 164.576 856.389 165.296 856.389 166.208V176H849.513V156.092H854.625L855.705 159.26H856.029C856.389 158.612 856.857 158.024 857.433 157.496C858.009 156.944 858.645 156.512 859.341 156.2C860.061 155.888 860.793 155.732 861.537 155.732ZM885.756 156.092V176H880.572L879.708 173.516H879.312C878.904 174.188 878.376 174.74 877.728 175.172C877.104 175.58 876.408 175.88 875.64 176.072C874.896 176.264 874.116 176.36 873.3 176.36C872.004 176.36 870.828 176.108 869.772 175.604C868.716 175.1 867.876 174.308 867.252 173.228C866.652 172.148 866.352 170.756 866.352 169.052V156.092H873.228V166.964C873.228 168.26 873.408 169.244 873.768 169.916C874.152 170.588 874.764 170.924 875.604 170.924C876.468 170.924 877.14 170.696 877.62 170.24C878.1 169.76 878.424 169.064 878.592 168.152C878.784 167.24 878.88 166.124 878.88 164.804V156.092H885.756ZM899.577 176.36C897.561 176.36 895.809 176 894.321 175.28C892.833 174.56 891.681 173.444 890.865 171.932C890.049 170.42 889.641 168.488 889.641 166.136C889.641 163.712 890.097 161.744 891.009 160.232C891.921 158.696 893.157 157.568 894.717 156.848C896.301 156.104 898.101 155.732 900.117 155.732C901.341 155.732 902.493 155.864 903.573 156.128C904.677 156.392 905.697 156.764 906.633 157.244L904.617 162.32C903.801 161.96 903.033 161.672 902.313 161.456C901.617 161.24 900.885 161.132 900.117 161.132C899.421 161.132 898.809 161.312 898.281 161.672C897.753 162.032 897.345 162.584 897.057 163.328C896.769 164.048 896.625 164.972 896.625 166.1C896.625 167.252 896.769 168.176 897.057 168.872C897.369 169.568 897.789 170.084 898.317 170.42C898.845 170.732 899.457 170.888 900.153 170.888C901.137 170.888 902.121 170.732 903.105 170.42C904.113 170.108 905.061 169.676 905.949 169.124V174.596C905.133 175.124 904.209 175.556 903.177 175.892C902.145 176.204 900.945 176.36 899.577 176.36ZM919.667 170.924C920.291 170.924 920.855 170.864 921.359 170.744C921.887 170.6 922.427 170.432 922.979 170.24V175.244C922.235 175.556 921.443 175.82 920.603 176.036C919.763 176.252 918.695 176.36 917.399 176.36C916.103 176.36 914.963 176.156 913.979 175.748C913.019 175.34 912.263 174.644 911.711 173.66C911.159 172.652 910.883 171.248 910.883 169.448V161.24H908.471V158.432L911.531 156.272L913.295 152.096H917.795V156.092H922.691V161.24H917.795V168.98C917.795 169.628 917.951 170.12 918.263 170.456C918.599 170.768 919.067 170.924 919.667 170.924ZM945.838 156.092V176H940.654L939.79 173.516H939.394C938.986 174.188 938.458 174.74 937.81 175.172C937.186 175.58 936.49 175.88 935.722 176.072C934.978 176.264 934.198 176.36 933.382 176.36C932.086 176.36 930.91 176.108 929.854 175.604C928.798 175.1 927.958 174.308 927.334 173.228C926.734 172.148 926.434 170.756 926.434 169.052V156.092H933.31V166.964C933.31 168.26 933.49 169.244 933.85 169.916C934.234 170.588 934.846 170.924 935.686 170.924C936.55 170.924 937.222 170.696 937.702 170.24C938.182 169.76 938.506 169.064 938.674 168.152C938.866 167.24 938.962 166.124 938.962 164.804V156.092H945.838ZM962.611 155.732C962.995 155.732 963.391 155.756 963.799 155.804C964.207 155.852 964.507 155.9 964.699 155.948L964.087 162.428C963.847 162.38 963.547 162.332 963.187 162.284C962.851 162.236 962.371 162.212 961.747 162.212C961.315 162.212 960.847 162.26 960.343 162.356C959.863 162.428 959.395 162.596 958.939 162.86C958.507 163.124 958.147 163.52 957.859 164.048C957.595 164.576 957.463 165.296 957.463 166.208V176H950.587V156.092H955.699L956.779 159.26H957.103C957.463 158.612 957.931 158.024 958.507 157.496C959.083 156.944 959.719 156.512 960.415 156.2C961.135 155.888 961.867 155.732 962.611 155.732ZM975.723 155.732C977.667 155.732 979.335 156.068 980.727 156.74C982.143 157.412 983.223 158.42 983.967 159.764C984.735 161.108 985.119 162.8 985.119 164.84V167.9H972.843C972.891 168.932 973.275 169.784 973.995 170.456C974.739 171.128 975.807 171.464 977.199 171.464C978.447 171.464 979.587 171.344 980.619 171.104C981.651 170.864 982.719 170.48 983.823 169.952V174.884C982.863 175.388 981.807 175.76 980.655 176C979.527 176.24 978.099 176.36 976.371 176.36C974.355 176.36 972.555 176.012 970.971 175.316C969.411 174.596 968.175 173.48 967.263 171.968C966.351 170.456 965.895 168.524 965.895 166.172C965.895 163.772 966.303 161.804 967.119 160.268C967.959 158.732 969.111 157.592 970.575 156.848C972.063 156.104 973.779 155.732 975.723 155.732ZM975.975 160.412C975.159 160.412 974.475 160.664 973.923 161.168C973.395 161.672 973.083 162.476 972.987 163.58H978.891C978.891 162.98 978.771 162.452 978.531 161.996C978.315 161.516 977.991 161.132 977.559 160.844C977.127 160.556 976.599 160.412 975.975 160.412Z" fill="#E16F00"/>
<defs>
<linearGradient id="paint0_linear_3018_3148" x1="177" y1="0" x2="177" y2="314" gradientUnits="userSpaceOnUse">
<stop stop-color="#53DF4B"/>
<stop offset="1" stop-color="#53DF4B" stop-opacity="0"/>
</linearGradient>
<linearGradient id="paint1_linear_3018_3148" x1="530.5" y1="0" x2="530.5" y2="314" gradientUnits="userSpaceOnUse">
<stop stop-color="#429D9E"/>
<stop offset="1" stop-color="#429D9E" stop-opacity="0"/>
</linearGradient>
<linearGradient id="paint2_linear_3018_3148" x1="884" y1="0" x2="884" y2="314" gradientUnits="userSpaceOnUse">
<stop stop-color="#E8DF3D"/>
<stop offset="1" stop-color="#E8DF3D" stop-opacity="0"/>
</linearGradient>
</defs>
</svg>
