<svg width="436" height="596" viewBox="0 0 436 596" fill="none" xmlns="http://www.w3.org/2000/svg">
<g clip-path="url(#clip0_275_1610)">
<rect width="435.673" height="596" rx="13.9415" fill="#F2FAFA"/>
<g clip-path="url(#clip1_275_1610)">
<g clip-path="url(#clip2_275_1610)">
<g clip-path="url(#clip3_275_1610)">
<rect width="813.255" height="1394.15" transform="translate(-188.211)" fill="white"/>
<g filter="url(#filter0_f_275_1610)">
<ellipse cx="342.148" cy="285.801" rx="150.452" ry="132.444" fill="#7CFFFF"/>
</g>
<g filter="url(#filter1_f_275_1610)">
<ellipse cx="77.8402" cy="92.9434" rx="103.4" ry="102.238" fill="#82FF96"/>
</g>
<g filter="url(#filter2_f_275_1610)">
<ellipse cx="325.883" cy="38.3392" rx="58.6706" ry="54.6043" fill="#B094FF"/>
</g>
<g filter="url(#filter3_f_275_1610)">
<ellipse cx="54.6043" cy="279.992" rx="66.2222" ry="58.0897" fill="#B094FF"/>
</g>
</g>
<rect x="-188.211" width="813.255" height="269.536" fill="url(#paint0_linear_275_1610)"/>
</g>
<path d="M150.843 159.625C150.489 159.452 150.021 159.257 149.44 159.039C148.859 158.821 148.201 158.617 147.466 158.427C146.731 158.227 145.932 158.064 145.07 157.936C144.208 157.8 143.323 157.732 142.415 157.732C141.689 157.732 141.067 157.755 140.55 157.8C140.042 157.846 139.61 157.905 139.256 157.977C138.912 158.05 138.635 158.136 138.426 158.236C138.226 158.327 138.072 158.422 137.963 158.522C137.854 158.622 137.781 158.722 137.745 158.821C137.718 158.921 137.704 159.012 137.704 159.094C137.704 159.366 137.84 159.607 138.113 159.815C138.385 160.015 138.757 160.197 139.229 160.36C139.701 160.514 140.25 160.664 140.877 160.809C141.503 160.945 142.165 161.091 142.864 161.245C143.572 161.39 144.298 161.553 145.043 161.735C145.796 161.907 146.522 162.112 147.221 162.348C147.929 162.584 148.596 162.861 149.222 163.178C149.849 163.487 150.398 163.85 150.87 164.267C151.342 164.685 151.714 165.166 151.986 165.711C152.259 166.255 152.395 166.877 152.395 167.576C152.395 168.474 152.236 169.246 151.918 169.89C151.6 170.535 151.174 171.079 150.638 171.524C150.112 171.969 149.499 172.327 148.8 172.6C148.101 172.863 147.366 173.067 146.595 173.212C145.832 173.357 145.056 173.453 144.267 173.498C143.486 173.544 142.742 173.566 142.034 173.566C140.182 173.566 138.467 173.412 136.887 173.103C135.317 172.804 133.929 172.427 132.721 171.973V167.508C133.965 168.197 135.381 168.738 136.969 169.128C138.567 169.518 140.273 169.713 142.088 169.713C143.159 169.713 144.031 169.659 144.702 169.55C145.383 169.432 145.914 169.287 146.295 169.114C146.676 168.933 146.935 168.738 147.071 168.529C147.207 168.32 147.276 168.12 147.276 167.93C147.276 167.63 147.139 167.372 146.867 167.154C146.595 166.927 146.223 166.732 145.751 166.568C145.279 166.396 144.73 166.242 144.103 166.105C143.477 165.96 142.81 165.819 142.102 165.683C141.403 165.538 140.681 165.384 139.937 165.22C139.193 165.057 138.467 164.866 137.759 164.649C137.06 164.422 136.397 164.163 135.771 163.873C135.145 163.573 134.596 163.224 134.124 162.824C133.652 162.416 133.28 161.948 133.007 161.422C132.735 160.886 132.599 160.269 132.599 159.57C132.599 158.744 132.744 158.032 133.034 157.433C133.325 156.834 133.715 156.325 134.205 155.908C134.705 155.481 135.276 155.136 135.921 154.873C136.574 154.61 137.26 154.406 137.977 154.261C138.694 154.115 139.42 154.015 140.155 153.961C140.89 153.907 141.589 153.879 142.252 153.879C142.978 153.879 143.722 153.916 144.484 153.988C145.256 154.061 146.014 154.165 146.758 154.301C147.502 154.428 148.219 154.578 148.909 154.751C149.608 154.923 150.253 155.105 150.843 155.295V159.625ZM179.27 166.759C179.27 167.694 179.039 168.574 178.576 169.4C178.113 170.226 177.419 170.948 176.493 171.565C175.567 172.182 174.41 172.672 173.021 173.035C171.641 173.389 170.026 173.566 168.174 173.566C166.323 173.566 164.698 173.389 163.3 173.035C161.911 172.672 160.754 172.182 159.828 171.565C158.903 170.948 158.208 170.226 157.745 169.4C157.282 168.574 157.051 167.694 157.051 166.759V154.356H162.088V164.948C162.088 165.574 162.166 166.169 162.32 166.732C162.483 167.285 162.783 167.771 163.218 168.188C163.663 168.606 164.28 168.937 165.07 169.182C165.869 169.427 166.903 169.55 168.174 169.55C169.436 169.55 170.461 169.427 171.251 169.182C172.041 168.937 172.653 168.606 173.089 168.188C173.534 167.771 173.833 167.285 173.988 166.732C174.142 166.169 174.219 165.574 174.219 164.948V154.356H179.27V166.759ZM205.601 171.783C204.948 172.055 204.29 172.3 203.627 172.518C202.964 172.736 202.279 172.922 201.571 173.076C200.863 173.239 200.114 173.362 199.325 173.444C198.544 173.525 197.705 173.566 196.806 173.566C194.9 173.566 193.144 173.362 191.537 172.954C189.94 172.545 188.56 171.932 187.398 171.116C186.246 170.29 185.347 169.264 184.703 168.039C184.058 166.804 183.736 165.366 183.736 163.723C183.736 162.08 184.058 160.646 184.703 159.421C185.347 158.186 186.246 157.16 187.398 156.344C188.56 155.518 189.94 154.9 191.537 154.492C193.144 154.084 194.9 153.879 196.806 153.879C197.705 153.879 198.544 153.92 199.325 154.002C200.114 154.084 200.863 154.206 201.571 154.369C202.279 154.524 202.964 154.71 203.627 154.928C204.29 155.145 204.948 155.391 205.601 155.663V160.21C205.084 159.929 204.539 159.652 203.967 159.38C203.396 159.098 202.765 158.849 202.075 158.631C201.385 158.404 200.627 158.222 199.801 158.086C198.975 157.941 198.045 157.868 197.01 157.868C195.422 157.868 194.101 158.032 193.048 158.359C192.005 158.685 191.17 159.121 190.543 159.666C189.917 160.21 189.477 160.836 189.223 161.544C188.968 162.243 188.841 162.969 188.841 163.723C188.841 164.222 188.896 164.717 189.005 165.207C189.114 165.688 189.295 166.146 189.549 166.582C189.804 167.008 190.135 167.403 190.543 167.766C190.952 168.129 191.46 168.443 192.068 168.706C192.676 168.969 193.384 169.178 194.192 169.332C195.009 169.477 195.948 169.55 197.01 169.55C198.045 169.55 198.975 169.486 199.801 169.359C200.627 169.223 201.385 169.046 202.075 168.828C202.765 168.61 203.396 168.365 203.967 168.093C204.539 167.812 205.084 167.526 205.601 167.235V171.783ZM230.925 171.783C230.271 172.055 229.613 172.3 228.951 172.518C228.288 172.736 227.603 172.922 226.895 173.076C226.187 173.239 225.438 173.362 224.648 173.444C223.868 173.525 223.028 173.566 222.13 173.566C220.223 173.566 218.467 173.362 216.861 172.954C215.263 172.545 213.884 171.932 212.722 171.116C211.569 170.29 210.67 169.264 210.026 168.039C209.382 166.804 209.059 165.366 209.059 163.723C209.059 162.08 209.382 160.646 210.026 159.421C210.67 158.186 211.569 157.16 212.722 156.344C213.884 155.518 215.263 154.9 216.861 154.492C218.467 154.084 220.223 153.879 222.13 153.879C223.028 153.879 223.868 153.92 224.648 154.002C225.438 154.084 226.187 154.206 226.895 154.369C227.603 154.524 228.288 154.71 228.951 154.928C229.613 155.145 230.271 155.391 230.925 155.663V160.21C230.407 159.929 229.863 159.652 229.291 159.38C228.719 159.098 228.088 158.849 227.398 158.631C226.709 158.404 225.951 158.222 225.125 158.086C224.299 157.941 223.368 157.868 222.334 157.868C220.745 157.868 219.425 158.032 218.372 158.359C217.328 158.685 216.493 159.121 215.867 159.666C215.24 160.21 214.8 160.836 214.546 161.544C214.292 162.243 214.165 162.969 214.165 163.723C214.165 164.222 214.219 164.717 214.328 165.207C214.437 165.688 214.619 166.146 214.873 166.582C215.127 167.008 215.458 167.403 215.867 167.766C216.275 168.129 216.783 168.443 217.392 168.706C218 168.969 218.708 169.178 219.515 169.332C220.332 169.477 221.272 169.55 222.334 169.55C223.368 169.55 224.299 169.486 225.125 169.359C225.951 169.223 226.709 169.046 227.398 168.828C228.088 168.61 228.719 168.365 229.291 168.093C229.863 167.812 230.407 167.526 230.925 167.235V171.783ZM235.635 173.062V154.356H254.574V158.345H240.823V161.435H253.866V165.425H240.823V169.073H254.764V173.062H235.635ZM276.888 159.625C276.534 159.452 276.067 159.257 275.486 159.039C274.905 158.821 274.247 158.617 273.512 158.427C272.776 158.227 271.978 158.064 271.115 157.936C270.253 157.8 269.368 157.732 268.461 157.732C267.734 157.732 267.113 157.755 266.595 157.8C266.087 157.846 265.656 157.905 265.302 157.977C264.957 158.05 264.68 158.136 264.471 158.236C264.272 158.327 264.117 158.422 264.009 158.522C263.9 158.622 263.827 158.722 263.791 158.821C263.763 158.921 263.75 159.012 263.75 159.094C263.75 159.366 263.886 159.607 264.158 159.815C264.431 160.015 264.803 160.197 265.275 160.36C265.747 160.514 266.296 160.664 266.922 160.809C267.548 160.945 268.211 161.091 268.91 161.245C269.618 161.39 270.344 161.553 271.088 161.735C271.842 161.907 272.568 162.112 273.267 162.348C273.975 162.584 274.642 162.861 275.268 163.178C275.894 163.487 276.443 163.85 276.915 164.267C277.387 164.685 277.759 165.166 278.032 165.711C278.304 166.255 278.44 166.877 278.44 167.576C278.44 168.474 278.281 169.246 277.964 169.89C277.646 170.535 277.219 171.079 276.684 171.524C276.157 171.969 275.545 172.327 274.846 172.6C274.147 172.863 273.412 173.067 272.64 173.212C271.878 173.357 271.102 173.453 270.312 173.498C269.532 173.544 268.787 173.566 268.079 173.566C266.228 173.566 264.512 173.412 262.933 173.103C261.363 172.804 259.974 172.427 258.767 171.973V167.508C260.01 168.197 261.426 168.738 263.015 169.128C264.612 169.518 266.319 169.713 268.134 169.713C269.205 169.713 270.076 169.659 270.748 169.55C271.429 169.432 271.96 169.287 272.341 169.114C272.722 168.933 272.981 168.738 273.117 168.529C273.253 168.32 273.321 168.12 273.321 167.93C273.321 167.63 273.185 167.372 272.913 167.154C272.64 166.927 272.268 166.732 271.796 166.568C271.324 166.396 270.775 166.242 270.149 166.105C269.523 165.96 268.855 165.819 268.147 165.683C267.449 165.538 266.727 165.384 265.983 165.22C265.238 165.057 264.512 164.866 263.804 164.649C263.105 164.422 262.443 164.163 261.817 163.873C261.19 163.573 260.641 163.224 260.169 162.824C259.697 162.416 259.325 161.948 259.053 161.422C258.78 160.886 258.644 160.269 258.644 159.57C258.644 158.744 258.79 158.032 259.08 157.433C259.37 156.834 259.761 156.325 260.251 155.908C260.75 155.481 261.322 155.136 261.966 154.873C262.62 154.61 263.305 154.406 264.022 154.261C264.739 154.115 265.465 154.015 266.201 153.961C266.936 153.907 267.635 153.879 268.297 153.879C269.023 153.879 269.768 153.916 270.53 153.988C271.302 154.061 272.059 154.165 272.804 154.301C273.548 154.428 274.265 154.578 274.955 154.751C275.654 154.923 276.298 155.105 276.888 155.295V159.625ZM300.469 159.625C300.115 159.452 299.647 159.257 299.067 159.039C298.486 158.821 297.828 158.617 297.092 158.427C296.357 158.227 295.558 158.064 294.696 157.936C293.834 157.8 292.949 157.732 292.041 157.732C291.315 157.732 290.693 157.755 290.176 157.8C289.668 157.846 289.237 157.905 288.883 157.977C288.538 158.05 288.261 158.136 288.052 158.236C287.853 158.327 287.698 158.422 287.589 158.522C287.48 158.622 287.408 158.722 287.371 158.821C287.344 158.921 287.331 159.012 287.331 159.094C287.331 159.366 287.467 159.607 287.739 159.815C288.011 160.015 288.384 160.197 288.855 160.36C289.327 160.514 289.877 160.664 290.503 160.809C291.129 160.945 291.792 161.091 292.491 161.245C293.199 161.39 293.925 161.553 294.669 161.735C295.422 161.907 296.148 162.112 296.847 162.348C297.555 162.584 298.222 162.861 298.849 163.178C299.475 163.487 300.024 163.85 300.496 164.267C300.968 164.685 301.34 165.166 301.613 165.711C301.885 166.255 302.021 166.877 302.021 167.576C302.021 168.474 301.862 169.246 301.544 169.89C301.227 170.535 300.8 171.079 300.265 171.524C299.738 171.969 299.126 172.327 298.427 172.6C297.728 172.863 296.993 173.067 296.221 173.212C295.459 173.357 294.683 173.453 293.893 173.498C293.112 173.544 292.368 173.566 291.66 173.566C289.809 173.566 288.093 173.412 286.514 173.103C284.944 172.804 283.555 172.427 282.348 171.973V167.508C283.591 168.197 285.007 168.738 286.595 169.128C288.193 169.518 289.899 169.713 291.715 169.713C292.786 169.713 293.657 169.659 294.329 169.55C295.009 169.432 295.54 169.287 295.922 169.114C296.303 168.933 296.561 168.738 296.698 168.529C296.834 168.32 296.902 168.12 296.902 167.93C296.902 167.63 296.766 167.372 296.493 167.154C296.221 166.927 295.849 166.732 295.377 166.568C294.905 166.396 294.356 166.242 293.73 166.105C293.103 165.96 292.436 165.819 291.728 165.683C291.029 165.538 290.308 165.384 289.563 165.22C288.819 165.057 288.093 164.866 287.385 164.649C286.686 164.422 286.024 164.163 285.397 163.873C284.771 163.573 284.222 163.224 283.75 162.824C283.278 162.416 282.906 161.948 282.634 161.422C282.361 160.886 282.225 160.269 282.225 159.57C282.225 158.744 282.37 158.032 282.661 157.433C282.951 156.834 283.342 156.325 283.832 155.908C284.331 155.481 284.903 155.136 285.547 154.873C286.201 154.61 286.886 154.406 287.603 154.261C288.32 154.115 289.046 154.015 289.781 153.961C290.516 153.907 291.215 153.879 291.878 153.879C292.604 153.879 293.348 153.916 294.111 153.988C294.882 154.061 295.64 154.165 296.384 154.301C297.129 154.428 297.846 154.578 298.536 154.751C299.234 154.923 299.879 155.105 300.469 155.295V159.625Z" fill="#232B3E"/>
<g filter="url(#filter4_d_275_1610)">
<circle cx="217.255" cy="83.649" r="46.4717" fill="url(#paint1_linear_275_1610)"/>
<path d="M199.828 85.062L211.654 97.5905L234.682 73.1929" stroke="#232B3E" stroke-width="9.29435" stroke-linecap="round" stroke-linejoin="round"/>
</g>
</g>
<rect y="213.77" width="435.673" height="686.62" rx="13.9415" fill="white"/>
<path d="M23.6076 262.653V250.905H19.1092V249.641H29.5374V250.905H25.039V262.653H23.6076ZM31.437 262.653V253.582H32.7939V262.653H31.437ZM32.1247 251.333C31.8521 251.333 31.6166 251.24 31.4184 251.054C31.2325 250.855 31.1395 250.626 31.1395 250.366C31.1395 250.106 31.2325 249.883 31.4184 249.697C31.6166 249.498 31.8521 249.399 32.1247 249.399C32.3974 249.399 32.6266 249.498 32.8125 249.697C33.0108 249.883 33.1099 250.106 33.1099 250.366C33.1099 250.626 33.0108 250.855 32.8125 251.054C32.6266 251.24 32.3974 251.333 32.1247 251.333ZM39.0338 262.839C38.2531 262.839 37.6582 262.653 37.2493 262.281C36.8527 261.897 36.6544 261.346 36.6544 260.627V254.697H34.777V253.582H36.6544V251.091L38.0114 250.775V253.582H40.6138V254.697H38.0114V260.274C38.0114 260.757 38.1105 261.104 38.3088 261.315C38.5195 261.525 38.8603 261.631 39.3312 261.631C39.5667 261.631 39.7773 261.612 39.9632 261.575C40.1491 261.538 40.366 261.476 40.6138 261.389V262.597C40.366 262.684 40.1057 262.746 39.8331 262.783C39.5605 262.82 39.294 262.839 39.0338 262.839ZM42.6015 262.653V249.232L43.9585 248.953V262.653H42.6015ZM50.8299 262.839C49.9872 262.839 49.2251 262.634 48.5435 262.226C47.8619 261.804 47.3228 261.24 46.9263 260.534C46.5297 259.815 46.3314 259.01 46.3314 258.117C46.3314 257.225 46.5173 256.426 46.8891 255.719C47.2733 255.013 47.7876 254.455 48.432 254.047C49.0764 253.638 49.7951 253.433 50.5883 253.433C51.3938 253.433 52.1063 253.638 52.726 254.047C53.358 254.443 53.8537 254.988 54.213 255.682C54.5848 256.364 54.7707 257.138 54.7707 258.006V258.415H47.6512C47.7008 259.034 47.8681 259.592 48.1531 260.088C48.4506 260.571 48.8347 260.955 49.3056 261.24C49.7889 261.513 50.3156 261.649 50.8857 261.649C51.3566 261.649 51.8089 261.569 52.2426 261.408C52.6888 261.234 53.0667 261.005 53.3766 260.72L54.2316 261.631C53.7112 262.04 53.1721 262.343 52.6144 262.542C52.0568 262.74 51.4619 262.839 50.8299 262.839ZM47.6884 257.448H53.4323C53.3704 256.903 53.2031 256.42 52.9304 255.998C52.6702 255.565 52.3356 255.224 51.9266 254.976C51.5301 254.728 51.084 254.604 50.5883 254.604C50.0926 254.604 49.6402 254.728 49.2313 254.976C48.8223 255.211 48.4815 255.546 48.2089 255.98C47.9487 256.401 47.7752 256.891 47.6884 257.448Z" fill="#7B808B"/>
<path d="M263.346 262.653V249.641H272.659V251.537H265.577V255.162H270.521V257.021H265.577V260.757H272.733V262.653H263.346ZM274.994 262.653V253.34H277.095V254.809C277.442 254.276 277.845 253.873 278.303 253.6C278.774 253.328 279.294 253.191 279.864 253.191C280.497 253.191 281.048 253.353 281.519 253.675C282.002 253.997 282.362 254.431 282.597 254.976C282.969 254.393 283.409 253.954 283.917 253.656C284.437 253.346 285.026 253.191 285.683 253.191C286.29 253.191 286.823 253.334 287.281 253.619C287.74 253.904 288.093 254.301 288.341 254.809C288.601 255.317 288.731 255.899 288.731 256.556V262.653H286.631V257.021C286.631 256.364 286.463 255.843 286.129 255.459C285.794 255.075 285.336 254.883 284.753 254.883C284.382 254.883 284.035 254.976 283.712 255.162C283.403 255.348 283.13 255.627 282.894 255.998C282.907 256.085 282.913 256.178 282.913 256.277C282.925 256.364 282.932 256.457 282.932 256.556V262.653H280.813V257.021C280.813 256.364 280.645 255.843 280.311 255.459C279.976 255.075 279.517 254.883 278.935 254.883C278.179 254.883 277.566 255.242 277.095 255.961V262.653H274.994ZM291.278 266.538V253.34H293.341V254.66C293.688 254.214 294.109 253.873 294.605 253.638C295.113 253.39 295.658 253.266 296.241 253.266C297.034 253.266 297.746 253.476 298.378 253.898C299.01 254.319 299.512 254.889 299.884 255.608C300.268 256.327 300.46 257.126 300.46 258.006C300.46 258.886 300.262 259.685 299.865 260.404C299.481 261.123 298.961 261.693 298.304 262.114C297.647 262.535 296.916 262.746 296.111 262.746C295.553 262.746 295.045 262.647 294.586 262.449C294.128 262.238 293.725 261.941 293.378 261.556V266.538H291.278ZM295.609 260.98C296.142 260.98 296.612 260.856 297.021 260.608C297.443 260.348 297.771 259.995 298.007 259.549C298.254 259.09 298.378 258.576 298.378 258.006C298.378 257.436 298.254 256.928 298.007 256.482C297.771 256.036 297.443 255.682 297.021 255.422C296.612 255.162 296.142 255.032 295.609 255.032C295.15 255.032 294.729 255.125 294.345 255.311C293.973 255.484 293.651 255.738 293.378 256.073V259.958C293.651 260.28 293.979 260.534 294.363 260.72C294.747 260.893 295.163 260.98 295.609 260.98ZM302.641 262.653V249.325L304.742 248.953V262.653H302.641ZM311.582 262.82C310.702 262.82 309.902 262.61 309.184 262.188C308.477 261.767 307.92 261.197 307.511 260.478C307.102 259.747 306.897 258.923 306.897 258.006C306.897 257.089 307.102 256.271 307.511 255.552C307.92 254.821 308.477 254.245 309.184 253.823C309.89 253.402 310.689 253.191 311.582 253.191C312.474 253.191 313.267 253.402 313.961 253.823C314.667 254.245 315.225 254.821 315.634 255.552C316.043 256.271 316.247 257.089 316.247 258.006C316.247 258.923 316.043 259.747 315.634 260.478C315.225 261.197 314.667 261.767 313.961 262.188C313.267 262.61 312.474 262.82 311.582 262.82ZM311.582 261.036C312.09 261.036 312.536 260.906 312.92 260.645C313.317 260.385 313.626 260.026 313.849 259.567C314.072 259.096 314.184 258.576 314.184 258.006C314.184 257.423 314.072 256.909 313.849 256.463C313.626 256.005 313.317 255.645 312.92 255.385C312.536 255.112 312.09 254.976 311.582 254.976C311.074 254.976 310.621 255.112 310.225 255.385C309.828 255.645 309.518 256.005 309.295 256.463C309.072 256.909 308.961 257.423 308.961 258.006C308.961 258.588 309.072 259.109 309.295 259.567C309.518 260.026 309.828 260.385 310.225 260.645C310.621 260.906 311.074 261.036 311.582 261.036ZM318.813 266.724C318.479 266.724 318.132 266.681 317.772 266.594V264.772C317.896 264.797 318.026 264.816 318.163 264.828C318.311 264.84 318.454 264.847 318.59 264.847C318.962 264.847 319.266 264.76 319.501 264.586C319.736 264.413 319.935 264.146 320.096 263.787L320.523 262.746L317.01 253.34H319.352L321.713 260.237L324.297 253.34H326.602L322.141 264.27C321.905 264.865 321.639 265.342 321.341 265.702C321.044 266.061 320.691 266.321 320.282 266.482C319.885 266.643 319.396 266.724 318.813 266.724ZM332.187 262.839C331.295 262.839 330.489 262.628 329.77 262.207C329.052 261.773 328.482 261.197 328.06 260.478C327.639 259.747 327.428 258.923 327.428 258.006C327.428 257.089 327.627 256.271 328.023 255.552C328.42 254.833 328.959 254.263 329.64 253.842C330.334 253.408 331.103 253.191 331.945 253.191C332.813 253.191 333.575 253.402 334.232 253.823C334.901 254.245 335.421 254.815 335.793 255.534C336.177 256.252 336.369 257.076 336.369 258.006V258.508H329.492C329.566 259.016 329.727 259.468 329.975 259.865C330.235 260.249 330.564 260.553 330.96 260.776C331.369 260.999 331.809 261.11 332.28 261.11C332.714 261.11 333.123 261.036 333.507 260.887C333.903 260.726 334.232 260.509 334.492 260.237L335.868 261.482C335.298 261.953 334.715 262.3 334.12 262.523C333.538 262.734 332.893 262.839 332.187 262.839ZM329.51 257.207H334.38C334.306 256.76 334.151 256.364 333.916 256.017C333.693 255.67 333.408 255.397 333.061 255.199C332.726 255.001 332.354 254.902 331.945 254.902C331.536 254.902 331.158 255.001 330.811 255.199C330.477 255.385 330.198 255.651 329.975 255.998C329.752 256.345 329.597 256.748 329.51 257.207ZM342.879 262.839C341.987 262.839 341.181 262.628 340.463 262.207C339.744 261.773 339.174 261.197 338.752 260.478C338.331 259.747 338.12 258.923 338.12 258.006C338.12 257.089 338.319 256.271 338.715 255.552C339.112 254.833 339.651 254.263 340.332 253.842C341.026 253.408 341.795 253.191 342.637 253.191C343.505 253.191 344.267 253.402 344.924 253.823C345.593 254.245 346.114 254.815 346.485 255.534C346.87 256.252 347.062 257.076 347.062 258.006V258.508H340.184C340.258 259.016 340.419 259.468 340.667 259.865C340.927 260.249 341.256 260.553 341.652 260.776C342.061 260.999 342.501 261.11 342.972 261.11C343.406 261.11 343.815 261.036 344.199 260.887C344.595 260.726 344.924 260.509 345.184 260.237L346.56 261.482C345.99 261.953 345.407 262.3 344.812 262.523C344.23 262.734 343.586 262.839 342.879 262.839ZM340.202 257.207H345.073C344.998 256.76 344.843 256.364 344.608 256.017C344.385 255.67 344.1 255.397 343.753 255.199C343.418 255.001 343.046 254.902 342.637 254.902C342.229 254.902 341.851 255.001 341.504 255.199C341.169 255.385 340.89 255.651 340.667 255.998C340.444 256.345 340.289 256.748 340.202 257.207ZM353.546 262.653V249.641H355.777V262.653H353.546ZM361.043 260.72H363.627C364.408 260.72 365.114 260.522 365.746 260.125C366.378 259.716 366.88 259.165 367.252 258.471C367.624 257.777 367.81 257.002 367.81 256.147C367.81 255.28 367.624 254.505 367.252 253.823C366.88 253.129 366.378 252.584 365.746 252.188C365.114 251.779 364.408 251.574 363.627 251.574H361.043V260.72ZM358.813 262.653V249.641H363.572C364.513 249.641 365.381 249.808 366.174 250.143C366.967 250.477 367.655 250.942 368.237 251.537C368.832 252.119 369.291 252.807 369.613 253.6C369.935 254.381 370.096 255.23 370.096 256.147C370.096 257.064 369.935 257.919 369.613 258.712C369.291 259.493 368.832 260.181 368.237 260.776C367.655 261.358 366.967 261.817 366.174 262.151C365.381 262.486 364.513 262.653 363.572 262.653H358.813ZM382.9 262.858C381.958 262.858 381.078 262.69 380.26 262.356C379.443 262.009 378.724 261.532 378.104 260.924C377.497 260.305 377.02 259.592 376.673 258.787C376.338 257.969 376.171 257.089 376.171 256.147C376.171 255.205 376.338 254.332 376.673 253.526C377.02 252.708 377.497 251.996 378.104 251.388C378.724 250.769 379.443 250.292 380.26 249.957C381.078 249.61 381.958 249.437 382.9 249.437C383.569 249.437 384.214 249.529 384.833 249.715C385.453 249.901 386.029 250.168 386.562 250.515C387.107 250.849 387.578 251.264 387.975 251.76L386.488 253.21C386.029 252.628 385.49 252.188 384.87 251.89C384.251 251.593 383.594 251.444 382.9 251.444C382.268 251.444 381.679 251.562 381.134 251.797C380.601 252.033 380.13 252.367 379.721 252.801C379.325 253.222 379.015 253.718 378.792 254.288C378.569 254.858 378.457 255.478 378.457 256.147C378.457 256.816 378.569 257.436 378.792 258.006C379.015 258.576 379.325 259.078 379.721 259.512C380.13 259.933 380.601 260.261 381.134 260.497C381.679 260.732 382.268 260.85 382.9 260.85C383.594 260.85 384.251 260.701 384.87 260.404C385.49 260.094 386.029 259.654 386.488 259.084L387.975 260.534C387.578 261.017 387.107 261.432 386.562 261.779C386.029 262.126 385.453 262.393 384.833 262.579C384.214 262.765 383.569 262.858 382.9 262.858ZM392.783 262.82C392.138 262.82 391.562 262.703 391.054 262.467C390.558 262.219 390.168 261.885 389.883 261.463C389.61 261.03 389.474 260.534 389.474 259.976C389.474 259.419 389.617 258.935 389.902 258.526C390.199 258.117 390.614 257.801 391.147 257.578C391.68 257.355 392.312 257.244 393.043 257.244C393.477 257.244 393.904 257.293 394.326 257.392C394.747 257.479 395.156 257.628 395.553 257.839V256.798C395.553 256.178 395.373 255.713 395.013 255.403C394.666 255.094 394.134 254.939 393.415 254.939C393.031 254.939 392.616 255.001 392.169 255.125C391.736 255.236 391.246 255.416 390.701 255.664L389.957 254.139C391.321 253.507 392.609 253.191 393.824 253.191C395.038 253.191 395.974 253.489 396.631 254.084C397.3 254.666 397.634 255.496 397.634 256.575V262.653H395.553V261.686C395.156 262.071 394.728 262.356 394.27 262.542C393.811 262.727 393.316 262.82 392.783 262.82ZM391.444 259.939C391.444 260.373 391.618 260.714 391.965 260.962C392.312 261.209 392.777 261.333 393.359 261.333C393.78 261.333 394.171 261.271 394.53 261.147C394.902 261.011 395.243 260.813 395.553 260.553V259.047C395.23 258.898 394.896 258.787 394.549 258.712C394.202 258.638 393.824 258.601 393.415 258.601C392.808 258.601 392.324 258.718 391.965 258.954C391.618 259.189 391.444 259.518 391.444 259.939ZM400.177 262.653V253.34H402.278V255.348C402.551 254.641 402.904 254.102 403.338 253.731C403.771 253.359 404.273 253.173 404.843 253.173C405.029 253.185 405.19 253.204 405.327 253.229C405.463 253.241 405.605 253.284 405.754 253.359V255.199C405.593 255.125 405.407 255.069 405.196 255.032C404.998 254.995 404.8 254.976 404.602 254.976C404.094 254.976 403.635 255.112 403.226 255.385C402.829 255.658 402.513 256.036 402.278 256.519V262.653H400.177ZM410.813 262.746C410.032 262.746 409.326 262.535 408.694 262.114C408.062 261.68 407.554 261.11 407.169 260.404C406.798 259.685 406.612 258.886 406.612 258.006C406.612 257.114 406.804 256.314 407.188 255.608C407.572 254.889 408.093 254.319 408.749 253.898C409.419 253.476 410.156 253.266 410.962 253.266C411.494 253.266 411.99 253.371 412.449 253.582C412.92 253.78 413.329 254.077 413.676 254.474V249.325L415.776 248.953V262.653H413.694V261.426C413.359 261.848 412.944 262.176 412.449 262.411C411.953 262.634 411.408 262.746 410.813 262.746ZM411.463 260.962C411.91 260.962 412.325 260.875 412.709 260.701C413.093 260.528 413.415 260.28 413.676 259.958V256.036C413.403 255.713 413.074 255.465 412.69 255.292C412.306 255.118 411.897 255.032 411.463 255.032C410.931 255.032 410.453 255.162 410.032 255.422C409.623 255.67 409.295 256.017 409.047 256.463C408.811 256.909 408.694 257.423 408.694 258.006C408.694 258.564 408.811 259.072 409.047 259.53C409.295 259.976 409.623 260.329 410.032 260.59C410.453 260.838 410.931 260.962 411.463 260.962Z" fill="#232B3E"/>
<path d="M23.8493 304.478L18.756 291.465H20.2803L24.7415 303.102L29.2214 291.465H30.6899L25.5594 304.478H23.8493ZM35.3272 304.663C34.4845 304.663 33.7224 304.459 33.0408 304.05C32.3592 303.629 31.8202 303.065 31.4236 302.358C31.027 301.64 30.8288 300.834 30.8288 299.942C30.8288 299.05 31.0146 298.25 31.3864 297.544C31.7706 296.838 32.2849 296.28 32.9293 295.871C33.5737 295.462 34.2925 295.258 35.0856 295.258C35.8911 295.258 36.6036 295.462 37.2233 295.871C37.8553 296.268 38.351 296.813 38.7104 297.507C39.0821 298.188 39.268 298.963 39.268 299.83V300.239H32.1486C32.1981 300.859 32.3654 301.417 32.6505 301.912C32.9479 302.396 33.332 302.78 33.803 303.065C34.2863 303.337 34.8129 303.474 35.383 303.474C35.8539 303.474 36.3062 303.393 36.74 303.232C37.1861 303.059 37.5641 302.829 37.8739 302.544L38.729 303.455C38.2085 303.864 37.6694 304.168 37.1117 304.366C36.5541 304.564 35.9592 304.663 35.3272 304.663ZM32.1857 299.273H37.9296C37.8677 298.727 37.7004 298.244 37.4277 297.823C37.1675 297.389 36.8329 297.048 36.424 296.8C36.0274 296.553 35.5813 296.429 35.0856 296.429C34.5899 296.429 34.1375 296.553 33.7286 296.8C33.3196 297.036 32.9789 297.37 32.7062 297.804C32.446 298.226 32.2725 298.715 32.1857 299.273ZM41.5849 304.478V295.406H42.9419V297.265C43.1774 296.633 43.512 296.144 43.9457 295.797C44.3918 295.437 44.8999 295.258 45.47 295.258C45.6311 295.258 45.7798 295.27 45.9161 295.295C46.0524 295.307 46.1887 295.338 46.3251 295.388V296.615C46.1763 296.565 46.0152 296.528 45.8417 296.503C45.6806 296.466 45.5257 296.447 45.377 296.447C44.8194 296.447 44.3299 296.608 43.9085 296.931C43.4996 297.253 43.1774 297.705 42.9419 298.288V304.478H41.5849ZM48.1014 304.478V295.406H49.4584V304.478H48.1014ZM48.7892 293.157C48.5166 293.157 48.2811 293.064 48.0828 292.878C47.897 292.68 47.804 292.451 47.804 292.19C47.804 291.93 47.897 291.707 48.0828 291.521C48.2811 291.323 48.5166 291.224 48.7892 291.224C49.0618 291.224 49.2911 291.323 49.477 291.521C49.6753 291.707 49.7744 291.93 49.7744 292.19C49.7744 292.451 49.6753 292.68 49.477 292.878C49.2911 293.064 49.0618 293.157 48.7892 293.157ZM53.3933 304.478V296.522H51.3671V295.406H53.3933V293.51C53.3933 292.618 53.6287 291.93 54.0996 291.447C54.5705 290.964 55.2397 290.722 56.1072 290.722C56.3551 290.722 56.5781 290.734 56.7764 290.759C56.9871 290.784 57.173 290.827 57.3341 290.889V292.116C57.1358 292.054 56.9561 292.011 56.795 291.986C56.6339 291.961 56.448 291.949 56.2373 291.949C55.7168 291.949 55.3389 292.079 55.1034 292.339C54.868 292.587 54.7502 292.984 54.7502 293.529V295.406H57.3341V296.522H54.7502V304.478H53.3933ZM59.6019 308.548C59.3169 308.548 59.0256 308.505 58.7282 308.418V307.21C58.8521 307.235 58.9823 307.253 59.1186 307.266C59.2549 307.278 59.3726 307.284 59.4718 307.284C59.8188 307.284 60.1038 307.191 60.3268 307.006C60.5623 306.82 60.7606 306.528 60.9217 306.132L61.5909 304.478L58.0962 295.406H59.6019L62.353 302.86L65.2714 295.406H66.7771L62.2043 306.541C62.006 307.024 61.7892 307.415 61.5537 307.712C61.3182 308.009 61.0456 308.22 60.7358 308.344C60.426 308.48 60.048 308.548 59.6019 308.548ZM74.4997 303.195H77.4739C78.4157 303.195 79.2584 302.966 80.002 302.507C80.7455 302.049 81.3341 301.429 81.7679 300.648C82.214 299.855 82.4371 298.963 82.4371 297.971C82.4371 296.98 82.214 296.094 81.7679 295.313C81.3341 294.52 80.7455 293.894 80.002 293.436C79.2584 292.977 78.4157 292.748 77.4739 292.748H74.4997V303.195ZM73.0684 304.478V291.465H77.381C78.3352 291.465 79.2088 291.633 80.002 291.967C80.8075 292.29 81.4952 292.748 82.0653 293.343C82.6477 293.925 83.0939 294.613 83.4037 295.406C83.7259 296.187 83.887 297.042 83.887 297.971C83.887 298.901 83.7259 299.762 83.4037 300.555C83.0939 301.336 82.6477 302.024 82.0653 302.619C81.4952 303.201 80.8075 303.66 80.002 303.994C79.2088 304.316 78.3352 304.478 77.381 304.478H73.0684ZM88.9575 304.645C88.3131 304.645 87.743 304.527 87.2473 304.292C86.7516 304.056 86.3613 303.734 86.0763 303.325C85.8036 302.904 85.6673 302.42 85.6673 301.875C85.6673 301.33 85.8098 300.859 86.0948 300.462C86.3799 300.053 86.7764 299.737 87.2845 299.514C87.7926 299.291 88.3874 299.18 89.069 299.18C89.5895 299.18 90.079 299.236 90.5375 299.347C91.0085 299.459 91.4422 299.638 91.8387 299.886V298.641C91.8387 297.897 91.6405 297.339 91.2439 296.968C90.8474 296.584 90.2649 296.391 89.4966 296.391C89.0752 296.391 88.6415 296.453 88.1954 296.577C87.7616 296.701 87.2783 296.9 86.7454 297.172L86.2436 296.131C87.458 295.549 88.5981 295.258 89.6639 295.258C90.7916 295.258 91.6591 295.536 92.2663 296.094C92.8735 296.639 93.1771 297.426 93.1771 298.455V304.478H91.8387V303.418C91.4422 303.827 91.0023 304.137 90.519 304.347C90.0356 304.546 89.5152 304.645 88.9575 304.645ZM86.9685 301.838C86.9685 302.371 87.173 302.798 87.5819 303.121C88.0033 303.443 88.5547 303.604 89.2363 303.604C89.7444 303.604 90.2091 303.517 90.6305 303.344C91.0642 303.17 91.467 302.91 91.8387 302.563V300.816C91.4546 300.593 91.058 300.431 90.6491 300.332C90.2401 300.221 89.7816 300.165 89.2735 300.165C88.5795 300.165 88.0219 300.32 87.6005 300.63C87.1792 300.927 86.9685 301.33 86.9685 301.838ZM99.1203 304.663C98.3396 304.663 97.7447 304.478 97.3358 304.106C96.9392 303.722 96.7409 303.17 96.7409 302.451V296.522H94.8635V295.406H96.7409V292.915L98.0979 292.599V295.406H100.7V296.522H98.0979V302.098C98.0979 302.581 98.197 302.928 98.3953 303.139C98.606 303.35 98.9468 303.455 99.4177 303.455C99.6532 303.455 99.8638 303.437 100.05 303.399C100.236 303.362 100.452 303.3 100.7 303.214V304.422C100.452 304.509 100.192 304.57 99.9196 304.608C99.647 304.645 99.3805 304.663 99.1203 304.663ZM106.596 304.663C105.753 304.663 104.991 304.459 104.31 304.05C103.628 303.629 103.089 303.065 102.692 302.358C102.296 301.64 102.098 300.834 102.098 299.942C102.098 299.05 102.283 298.25 102.655 297.544C103.039 296.838 103.554 296.28 104.198 295.871C104.842 295.462 105.561 295.258 106.354 295.258C107.16 295.258 107.872 295.462 108.492 295.871C109.124 296.268 109.62 296.813 109.979 297.507C110.351 298.188 110.537 298.963 110.537 299.83V300.239H103.417C103.467 300.859 103.634 301.417 103.919 301.912C104.217 302.396 104.601 302.78 105.072 303.065C105.555 303.337 106.082 303.474 106.652 303.474C107.123 303.474 107.575 303.393 108.009 303.232C108.455 303.059 108.833 302.829 109.143 302.544L109.998 303.455C109.477 303.864 108.938 304.168 108.381 304.366C107.823 304.564 107.228 304.663 106.596 304.663ZM103.455 299.273H109.198C109.136 298.727 108.969 298.244 108.697 297.823C108.436 297.389 108.102 297.048 107.693 296.8C107.296 296.553 106.85 296.429 106.354 296.429C105.859 296.429 105.406 296.553 104.997 296.8C104.588 297.036 104.248 297.37 103.975 297.804C103.715 298.226 103.541 298.715 103.455 299.273Z" fill="#7B808B"/>
<path d="M244.035 304.478V303.009L249.37 297.432C249.692 297.098 249.94 296.794 250.114 296.522C250.3 296.249 250.43 295.989 250.504 295.741C250.591 295.481 250.634 295.214 250.634 294.942C250.634 294.396 250.411 293.944 249.965 293.585C249.519 293.225 248.955 293.045 248.273 293.045C247.679 293.045 247.121 293.163 246.6 293.399C246.08 293.634 245.51 294.043 244.89 294.626L243.738 293.231C244.456 292.575 245.194 292.085 245.95 291.763C246.706 291.428 247.493 291.261 248.311 291.261C249.166 291.261 249.915 291.416 250.56 291.726C251.204 292.023 251.706 292.438 252.065 292.971C252.425 293.504 252.605 294.124 252.605 294.83C252.605 295.251 252.549 295.648 252.437 296.02C252.326 296.391 252.134 296.769 251.861 297.154C251.601 297.538 251.235 297.978 250.764 298.473L246.638 302.749L252.846 302.73V304.478H244.035ZM259.953 304.663C258.9 304.663 257.97 304.385 257.165 303.827C256.371 303.257 255.746 302.47 255.287 301.466C254.841 300.45 254.618 299.285 254.618 297.971C254.618 296.633 254.841 295.462 255.287 294.458C255.746 293.454 256.371 292.674 257.165 292.116C257.97 291.546 258.9 291.261 259.953 291.261C261.006 291.261 261.929 291.546 262.723 292.116C263.528 292.674 264.154 293.454 264.6 294.458C265.046 295.462 265.269 296.633 265.269 297.971C265.269 299.285 265.046 300.45 264.6 301.466C264.154 302.47 263.528 303.257 262.723 303.827C261.929 304.385 261.006 304.663 259.953 304.663ZM259.953 302.86C260.622 302.86 261.198 302.662 261.682 302.265C262.177 301.857 262.561 301.286 262.834 300.555C263.107 299.824 263.243 298.963 263.243 297.971C263.243 296.968 263.107 296.1 262.834 295.369C262.561 294.638 262.177 294.074 261.682 293.678C261.198 293.269 260.622 293.064 259.953 293.064C259.284 293.064 258.701 293.269 258.206 293.678C257.722 294.074 257.338 294.638 257.053 295.369C256.78 296.1 256.644 296.968 256.644 297.971C256.644 298.963 256.78 299.824 257.053 300.555C257.338 301.286 257.722 301.857 258.206 302.265C258.701 302.662 259.284 302.86 259.953 302.86ZM266.781 304.478V303.009L272.116 297.432C272.438 297.098 272.686 296.794 272.859 296.522C273.045 296.249 273.175 295.989 273.25 295.741C273.336 295.481 273.38 295.214 273.38 294.942C273.38 294.396 273.157 293.944 272.711 293.585C272.265 293.225 271.701 293.045 271.019 293.045C270.424 293.045 269.867 293.163 269.346 293.399C268.826 293.634 268.256 294.043 267.636 294.626L266.483 293.231C267.202 292.575 267.94 292.085 268.696 291.763C269.451 291.428 270.238 291.261 271.056 291.261C271.911 291.261 272.661 291.416 273.306 291.726C273.95 292.023 274.452 292.438 274.811 292.971C275.171 293.504 275.35 294.124 275.35 294.83C275.35 295.251 275.294 295.648 275.183 296.02C275.071 296.391 274.879 296.769 274.607 297.154C274.346 297.538 273.981 297.978 273.51 298.473L269.383 302.749L275.592 302.73V304.478H266.781ZM277.382 304.478V303.009L282.717 297.432C283.039 297.098 283.287 296.794 283.461 296.522C283.647 296.249 283.777 295.989 283.851 295.741C283.938 295.481 283.981 295.214 283.981 294.942C283.981 294.396 283.758 293.944 283.312 293.585C282.866 293.225 282.302 293.045 281.62 293.045C281.026 293.045 280.468 293.163 279.947 293.399C279.427 293.634 278.857 294.043 278.237 294.626L277.085 293.231C277.804 292.575 278.541 292.085 279.297 291.763C280.053 291.428 280.84 291.261 281.658 291.261C282.513 291.261 283.262 291.416 283.907 291.726C284.551 292.023 285.053 292.438 285.413 292.971C285.772 293.504 285.952 294.124 285.952 294.83C285.952 295.251 285.896 295.648 285.784 296.02C285.673 296.391 285.481 296.769 285.208 297.154C284.948 297.538 284.582 297.978 284.111 298.473L279.985 302.749L286.193 302.73V304.478H277.382ZM286.106 308.363L293.542 291.465H295.586L288.132 308.363H286.106ZM299.268 304.478V293.603L296.963 294.588V292.785L300.012 291.465H301.294V304.478H299.268ZM308.893 304.663C307.84 304.663 306.911 304.385 306.105 303.827C305.312 303.257 304.686 302.47 304.228 301.466C303.782 300.45 303.558 299.285 303.558 297.971C303.558 296.633 303.782 295.462 304.228 294.458C304.686 293.454 305.312 292.674 306.105 292.116C306.911 291.546 307.84 291.261 308.893 291.261C309.947 291.261 310.87 291.546 311.663 292.116C312.469 292.674 313.094 293.454 313.541 294.458C313.987 295.462 314.21 296.633 314.21 297.971C314.21 299.285 313.987 300.45 313.541 301.466C313.094 302.47 312.469 303.257 311.663 303.827C310.87 304.385 309.947 304.663 308.893 304.663ZM308.893 302.86C309.563 302.86 310.139 302.662 310.622 302.265C311.118 301.857 311.502 301.286 311.775 300.555C312.047 299.824 312.184 298.963 312.184 297.971C312.184 296.968 312.047 296.1 311.775 295.369C311.502 294.638 311.118 294.074 310.622 293.678C310.139 293.269 309.563 293.064 308.893 293.064C308.224 293.064 307.642 293.269 307.146 293.678C306.663 294.074 306.279 294.638 305.994 295.369C305.721 296.1 305.585 296.968 305.585 297.971C305.585 298.963 305.721 299.824 305.994 300.555C306.279 301.286 306.663 301.857 307.146 302.265C307.642 302.662 308.224 302.86 308.893 302.86ZM313.662 308.363L321.098 291.465H323.143L315.689 308.363H313.662ZM324.489 304.478V303.009L329.824 297.432C330.146 297.098 330.394 296.794 330.568 296.522C330.754 296.249 330.884 295.989 330.958 295.741C331.045 295.481 331.088 295.214 331.088 294.942C331.088 294.396 330.865 293.944 330.419 293.585C329.973 293.225 329.409 293.045 328.728 293.045C328.133 293.045 327.575 293.163 327.055 293.399C326.534 293.634 325.964 294.043 325.344 294.626L324.192 293.231C324.911 292.575 325.648 292.085 326.404 291.763C327.16 291.428 327.947 291.261 328.765 291.261C329.62 291.261 330.37 291.416 331.014 291.726C331.658 292.023 332.16 292.438 332.52 292.971C332.879 293.504 333.059 294.124 333.059 294.83C333.059 295.251 333.003 295.648 332.891 296.02C332.78 296.391 332.588 296.769 332.315 297.154C332.055 297.538 331.689 297.978 331.218 298.473L327.092 302.749L333.3 302.73V304.478H324.489ZM339.87 304.682C338.928 304.682 338.092 304.521 337.361 304.199C336.642 303.877 336.072 303.43 335.651 302.86C335.242 302.278 335.037 301.621 335.037 300.89C335.037 300.394 335.155 299.936 335.39 299.514C335.626 299.081 335.954 298.709 336.375 298.399C336.797 298.077 337.28 297.848 337.825 297.711C337.131 297.476 336.568 297.098 336.134 296.577C335.7 296.057 335.483 295.474 335.483 294.83C335.483 294.148 335.675 293.541 336.059 293.008C336.444 292.463 336.964 292.036 337.621 291.726C338.29 291.416 339.04 291.261 339.87 291.261C340.713 291.261 341.463 291.416 342.119 291.726C342.789 292.036 343.309 292.463 343.681 293.008C344.065 293.541 344.257 294.148 344.257 294.83C344.257 295.474 344.04 296.057 343.606 296.577C343.173 297.098 342.609 297.476 341.915 297.711C342.733 297.922 343.402 298.318 343.923 298.901C344.443 299.483 344.703 300.146 344.703 300.89C344.703 301.621 344.499 302.278 344.09 302.86C343.681 303.43 343.111 303.877 342.38 304.199C341.648 304.521 340.812 304.682 339.87 304.682ZM339.87 296.968C340.329 296.968 340.738 296.881 341.097 296.707C341.456 296.522 341.741 296.28 341.952 295.983C342.163 295.673 342.268 295.326 342.268 294.942C342.268 294.557 342.163 294.217 341.952 293.919C341.741 293.609 341.456 293.368 341.097 293.194C340.738 293.021 340.329 292.934 339.87 292.934C339.412 292.934 339.003 293.021 338.643 293.194C338.284 293.368 337.999 293.609 337.788 293.919C337.578 294.217 337.472 294.557 337.472 294.942C337.472 295.326 337.578 295.673 337.788 295.983C337.999 296.28 338.284 296.522 338.643 296.707C339.003 296.881 339.412 296.968 339.87 296.968ZM339.87 303.009C340.415 303.009 340.893 302.916 341.302 302.73C341.723 302.532 342.051 302.259 342.287 301.912C342.535 301.565 342.658 301.187 342.658 300.778C342.658 300.345 342.535 299.96 342.287 299.626C342.051 299.279 341.723 299.012 341.302 298.827C340.893 298.628 340.415 298.529 339.87 298.529C339.337 298.529 338.86 298.628 338.439 298.827C338.017 299.012 337.683 299.273 337.435 299.607C337.2 299.942 337.082 300.326 337.082 300.76C337.082 301.194 337.2 301.584 337.435 301.931C337.683 302.265 338.017 302.532 338.439 302.73C338.86 302.916 339.337 303.009 339.87 303.009ZM352.838 304.478V293.603L350.533 294.588V292.785L353.581 291.465H354.864V304.478H352.838ZM361.664 304.682C360.697 304.682 359.799 304.515 358.968 304.18C358.138 303.833 357.432 303.35 356.849 302.73L358.206 301.429C358.727 301.974 359.247 302.358 359.768 302.581C360.288 302.792 360.908 302.897 361.627 302.897C362.197 302.897 362.692 302.811 363.114 302.637C363.547 302.451 363.882 302.197 364.117 301.875C364.353 301.553 364.471 301.175 364.471 300.741C364.471 300.357 364.371 300.016 364.173 299.719C363.975 299.421 363.702 299.192 363.355 299.031C363.008 298.858 362.606 298.771 362.147 298.771H360.548V297.061H361.98C362.612 297.061 363.114 296.887 363.485 296.54C363.87 296.193 364.062 295.722 364.062 295.127C364.062 294.743 363.95 294.396 363.727 294.086C363.516 293.764 363.225 293.516 362.853 293.343C362.482 293.157 362.06 293.064 361.589 293.064C360.933 293.064 360.356 293.182 359.861 293.417C359.377 293.64 358.875 294.037 358.355 294.607L356.979 293.324C357.574 292.655 358.274 292.147 359.08 291.8C359.898 291.441 360.753 291.261 361.645 291.261C362.513 291.261 363.281 291.416 363.95 291.726C364.619 292.036 365.14 292.469 365.512 293.027C365.896 293.572 366.088 294.198 366.088 294.904C366.088 295.598 365.859 296.218 365.4 296.763C364.954 297.296 364.365 297.668 363.634 297.879C364.502 298.064 365.196 298.43 365.716 298.975C366.249 299.508 366.515 300.14 366.515 300.871C366.515 301.602 366.305 302.259 365.883 302.842C365.462 303.412 364.886 303.864 364.155 304.199C363.436 304.521 362.606 304.682 361.664 304.682ZM369.813 304.645C369.454 304.645 369.144 304.515 368.884 304.254C368.636 303.982 368.512 303.666 368.512 303.306C368.512 302.922 368.636 302.6 368.884 302.34C369.144 302.08 369.454 301.949 369.813 301.949C370.173 301.949 370.476 302.08 370.724 302.34C370.984 302.6 371.115 302.922 371.115 303.306C371.115 303.666 370.984 303.982 370.724 304.254C370.476 304.515 370.173 304.645 369.813 304.645ZM369.813 297.674C369.454 297.674 369.144 297.544 368.884 297.284C368.636 297.011 368.512 296.695 368.512 296.336C368.512 295.952 368.636 295.629 368.884 295.369C369.144 295.109 369.454 294.979 369.813 294.979C370.173 294.979 370.476 295.109 370.724 295.369C370.984 295.629 371.115 295.952 371.115 296.336C371.115 296.695 370.984 297.011 370.724 297.284C370.476 297.544 370.173 297.674 369.813 297.674ZM378.401 304.663C377.348 304.663 376.419 304.385 375.613 303.827C374.82 303.257 374.194 302.47 373.736 301.466C373.289 300.45 373.066 299.285 373.066 297.971C373.066 296.633 373.289 295.462 373.736 294.458C374.194 293.454 374.82 292.674 375.613 292.116C376.419 291.546 377.348 291.261 378.401 291.261C379.455 291.261 380.378 291.546 381.171 292.116C381.977 292.674 382.602 293.454 383.049 294.458C383.495 295.462 383.718 296.633 383.718 297.971C383.718 299.285 383.495 300.45 383.049 301.466C382.602 302.47 381.977 303.257 381.171 303.827C380.378 304.385 379.455 304.663 378.401 304.663ZM378.401 302.86C379.071 302.86 379.647 302.662 380.13 302.265C380.626 301.857 381.01 301.286 381.283 300.555C381.555 299.824 381.692 298.963 381.692 297.971C381.692 296.968 381.555 296.1 381.283 295.369C381.01 294.638 380.626 294.074 380.13 293.678C379.647 293.269 379.071 293.064 378.401 293.064C377.732 293.064 377.15 293.269 376.654 293.678C376.171 294.074 375.787 294.638 375.502 295.369C375.229 296.1 375.093 296.968 375.093 297.971C375.093 298.963 375.229 299.824 375.502 300.555C375.787 301.286 376.171 301.857 376.654 302.265C377.15 302.662 377.732 302.86 378.401 302.86ZM385.229 304.478V303.009L390.564 297.432C390.887 297.098 391.134 296.794 391.308 296.522C391.494 296.249 391.624 295.989 391.698 295.741C391.785 295.481 391.828 295.214 391.828 294.942C391.828 294.396 391.605 293.944 391.159 293.585C390.713 293.225 390.149 293.045 389.468 293.045C388.873 293.045 388.315 293.163 387.795 293.399C387.274 293.634 386.704 294.043 386.084 294.626L384.932 293.231C385.651 292.575 386.388 292.085 387.144 291.763C387.9 291.428 388.687 291.261 389.505 291.261C390.36 291.261 391.11 291.416 391.754 291.726C392.398 292.023 392.9 292.438 393.26 292.971C393.619 293.504 393.799 294.124 393.799 294.83C393.799 295.251 393.743 295.648 393.631 296.02C393.52 296.391 393.328 296.769 393.055 297.154C392.795 297.538 392.429 297.978 391.958 298.473L387.832 302.749L394.04 302.73V304.478H385.229ZM397.206 304.645C396.847 304.645 396.537 304.515 396.277 304.254C396.029 303.982 395.905 303.666 395.905 303.306C395.905 302.922 396.029 302.6 396.277 302.34C396.537 302.08 396.847 301.949 397.206 301.949C397.566 301.949 397.869 302.08 398.117 302.34C398.377 302.6 398.507 302.922 398.507 303.306C398.507 303.666 398.377 303.982 398.117 304.254C397.869 304.515 397.566 304.645 397.206 304.645ZM397.206 297.674C396.847 297.674 396.537 297.544 396.277 297.284C396.029 297.011 395.905 296.695 395.905 296.336C395.905 295.952 396.029 295.629 396.277 295.369C396.537 295.109 396.847 294.979 397.206 294.979C397.566 294.979 397.869 295.109 398.117 295.369C398.377 295.629 398.507 295.952 398.507 296.336C398.507 296.695 398.377 297.011 398.117 297.284C397.869 297.544 397.566 297.674 397.206 297.674ZM404.995 304.682C404.028 304.682 403.13 304.515 402.3 304.18C401.469 303.833 400.763 303.35 400.18 302.73L401.537 301.429C402.058 301.974 402.578 302.358 403.099 302.581C403.619 302.792 404.239 302.897 404.958 302.897C405.528 302.897 406.024 302.811 406.445 302.637C406.879 302.451 407.213 302.197 407.449 301.875C407.684 301.553 407.802 301.175 407.802 300.741C407.802 300.357 407.703 300.016 407.504 299.719C407.306 299.421 407.033 299.192 406.687 299.031C406.34 298.858 405.937 298.771 405.478 298.771H403.88V297.061H405.311C405.943 297.061 406.445 296.887 406.817 296.54C407.201 296.193 407.393 295.722 407.393 295.127C407.393 294.743 407.281 294.396 407.058 294.086C406.848 293.764 406.556 293.516 406.185 293.343C405.813 293.157 405.391 293.064 404.921 293.064C404.264 293.064 403.688 293.182 403.192 293.417C402.709 293.64 402.207 294.037 401.686 294.607L400.311 293.324C400.905 292.655 401.606 292.147 402.411 291.8C403.229 291.441 404.084 291.261 404.976 291.261C405.844 291.261 406.612 291.416 407.281 291.726C407.951 292.036 408.471 292.469 408.843 293.027C409.227 293.572 409.419 294.198 409.419 294.904C409.419 295.598 409.19 296.218 408.731 296.763C408.285 297.296 407.696 297.668 406.965 297.879C407.833 298.064 408.527 298.43 409.047 298.975C409.58 299.508 409.847 300.14 409.847 300.871C409.847 301.602 409.636 302.259 409.215 302.842C408.793 303.412 408.217 303.864 407.486 304.199C406.767 304.521 405.937 304.682 404.995 304.682ZM413.723 304.478V293.603L411.418 294.588V292.785L414.467 291.465H415.749V304.478H413.723Z" fill="#232B3E"/>
<path d="M20.2245 346.302V333.29H21.6558V339.108H29.1285V333.29H30.5598V346.302H29.1285V340.391H21.6558V346.302H20.2245ZM37.6128 346.451C36.7701 346.451 36.0141 346.246 35.3449 345.838C34.6757 345.429 34.1491 344.871 33.7649 344.165C33.3807 343.458 33.1887 342.659 33.1887 341.767C33.1887 340.874 33.3807 340.075 33.7649 339.369C34.1491 338.662 34.6757 338.105 35.3449 337.696C36.0141 337.287 36.7701 337.082 37.6128 337.082C38.4431 337.082 39.1866 337.287 39.8434 337.696C40.5126 338.105 41.0393 338.662 41.4234 339.369C41.8076 340.075 41.9997 340.874 41.9997 341.767C41.9997 342.659 41.8076 343.458 41.4234 344.165C41.0393 344.871 40.5126 345.429 39.8434 345.838C39.1866 346.246 38.4431 346.451 37.6128 346.451ZM37.5942 345.261C38.189 345.261 38.7157 345.113 39.1742 344.815C39.6327 344.505 39.9921 344.084 40.2524 343.551C40.525 343.018 40.6613 342.423 40.6613 341.767C40.6613 341.097 40.525 340.503 40.2524 339.982C39.9921 339.449 39.6327 339.034 39.1742 338.737C38.7157 338.427 38.189 338.272 37.5942 338.272C36.9993 338.272 36.4727 338.427 36.0141 338.737C35.5556 339.034 35.19 339.449 34.9174 339.982C34.6572 340.503 34.527 341.097 34.527 341.767C34.527 342.423 34.6572 343.018 34.9174 343.551C35.19 344.084 35.5556 344.505 36.0141 344.815C36.4727 345.113 36.9993 345.261 37.5942 345.261ZM44.3805 346.302V332.881L45.7375 332.602V346.302H44.3805ZM52.2929 346.432C51.5122 346.432 50.8058 346.228 50.1738 345.819C49.5418 345.398 49.0399 344.84 48.6681 344.146C48.2963 343.44 48.1104 342.653 48.1104 341.785C48.1104 340.905 48.2963 340.118 48.6681 339.424C49.0523 338.718 49.5666 338.16 50.211 337.751C50.8554 337.33 51.5741 337.119 52.3672 337.119C52.9249 337.119 53.4454 337.231 53.9287 337.454C54.412 337.665 54.8333 337.975 55.1927 338.383V332.881L56.5497 332.602V346.302H55.1927V345.094C54.8457 345.528 54.4244 345.862 53.9287 346.098C53.433 346.321 52.8877 346.432 52.2929 346.432ZM52.6275 345.243C53.1604 345.243 53.6499 345.137 54.096 344.927C54.5421 344.716 54.9077 344.419 55.1927 344.034V339.536C54.8953 339.152 54.5173 338.854 54.0588 338.644C53.6127 338.421 53.1356 338.309 52.6275 338.309C52.0203 338.309 51.475 338.458 50.9917 338.755C50.5208 339.053 50.1428 339.462 49.8578 339.982C49.5851 340.503 49.4488 341.097 49.4488 341.767C49.4488 342.423 49.5851 343.018 49.8578 343.551C50.1428 344.072 50.5208 344.487 50.9917 344.797C51.475 345.094 52.0203 345.243 52.6275 345.243ZM63.4281 346.488C62.5854 346.488 61.8233 346.284 61.1417 345.875C60.4601 345.453 59.921 344.89 59.5245 344.183C59.1279 343.464 58.9296 342.659 58.9296 341.767C58.9296 340.874 59.1155 340.075 59.4873 339.369C59.8715 338.662 60.3858 338.105 61.0302 337.696C61.6746 337.287 62.3933 337.082 63.1865 337.082C63.992 337.082 64.7045 337.287 65.3242 337.696C65.9562 338.092 66.4519 338.638 66.8112 339.331C67.183 340.013 67.3689 340.788 67.3689 341.655V342.064H60.2494C60.299 342.684 60.4663 343.241 60.7513 343.737C61.0488 344.22 61.4329 344.604 61.9038 344.89C62.3871 345.162 62.9138 345.298 63.4839 345.298C63.9548 345.298 64.4071 345.218 64.8408 345.057C65.287 344.883 65.6649 344.654 65.9748 344.369L66.8298 345.28C66.3094 345.689 65.7703 345.992 65.2126 346.191C64.655 346.389 64.0601 346.488 63.4281 346.488ZM60.2866 341.097H66.0305C65.9686 340.552 65.8013 340.069 65.5286 339.647C65.2684 339.214 64.9338 338.873 64.5248 338.625C64.1283 338.377 63.6821 338.253 63.1865 338.253C62.6908 338.253 62.2384 338.377 61.8295 338.625C61.4205 338.861 61.0797 339.195 60.8071 339.629C60.5469 340.05 60.3734 340.54 60.2866 341.097ZM69.6858 346.302V337.231H71.0428V339.09C71.2782 338.458 71.6128 337.968 72.0466 337.621C72.4927 337.262 73.0008 337.082 73.5709 337.082C73.732 337.082 73.8807 337.095 74.017 337.119C74.1533 337.132 74.2896 337.163 74.4259 337.212V338.439C74.2772 338.39 74.1161 338.352 73.9426 338.328C73.7815 338.291 73.6266 338.272 73.4779 338.272C72.9202 338.272 72.4307 338.433 72.0094 338.755C71.6004 339.077 71.2782 339.53 71.0428 340.112V346.302H69.6858Z" fill="#7B808B"/>
<path d="M374.788 346.302V333.29H377.018V344.369H383.952V346.302H374.788ZM390.113 346.488C389.221 346.488 388.416 346.277 387.697 345.856C386.978 345.422 386.408 344.846 385.987 344.127C385.565 343.396 385.355 342.572 385.355 341.655C385.355 340.738 385.553 339.92 385.949 339.201C386.346 338.483 386.885 337.913 387.567 337.491C388.261 337.057 389.029 336.841 389.872 336.841C390.739 336.841 391.501 337.051 392.158 337.473C392.827 337.894 393.348 338.464 393.72 339.183C394.104 339.902 394.296 340.726 394.296 341.655V342.157H387.418C387.492 342.665 387.653 343.117 387.901 343.514C388.162 343.898 388.49 344.202 388.886 344.425C389.295 344.648 389.735 344.759 390.206 344.759C390.64 344.759 391.049 344.685 391.433 344.536C391.83 344.375 392.158 344.158 392.418 343.886L393.794 345.131C393.224 345.602 392.641 345.949 392.047 346.172C391.464 346.383 390.82 346.488 390.113 346.488ZM387.437 340.856H392.307C392.232 340.41 392.078 340.013 391.842 339.666C391.619 339.319 391.334 339.046 390.987 338.848C390.652 338.65 390.281 338.551 389.872 338.551C389.463 338.551 389.085 338.65 388.738 338.848C388.403 339.034 388.124 339.301 387.901 339.647C387.678 339.994 387.523 340.397 387.437 340.856ZM400.731 346.47C399.851 346.47 399.052 346.259 398.333 345.838C397.627 345.416 397.069 344.846 396.66 344.127C396.251 343.396 396.047 342.572 396.047 341.655C396.047 340.738 396.251 339.92 396.66 339.201C397.069 338.47 397.627 337.894 398.333 337.473C399.04 337.051 399.839 336.841 400.731 336.841C401.623 336.841 402.416 337.051 403.11 337.473C403.817 337.894 404.374 338.47 404.783 339.201C405.192 339.92 405.397 340.738 405.397 341.655C405.397 342.572 405.192 343.396 404.783 344.127C404.374 344.846 403.817 345.416 403.11 345.838C402.416 346.259 401.623 346.47 400.731 346.47ZM400.731 344.685C401.239 344.685 401.685 344.555 402.069 344.295C402.466 344.034 402.776 343.675 402.999 343.217C403.222 342.746 403.334 342.225 403.334 341.655C403.334 341.073 403.222 340.558 402.999 340.112C402.776 339.654 402.466 339.294 402.069 339.034C401.685 338.761 401.239 338.625 400.731 338.625C400.223 338.625 399.771 338.761 399.374 339.034C398.978 339.294 398.668 339.654 398.445 340.112C398.222 340.558 398.11 341.073 398.11 341.655C398.11 342.238 398.222 342.758 398.445 343.217C398.668 343.675 398.978 344.034 399.374 344.295C399.771 344.555 400.223 344.685 400.731 344.685ZM407.566 346.302V336.989H409.666V338.514C410.026 337.956 410.453 337.541 410.949 337.268C411.445 336.983 412.002 336.841 412.622 336.841C413.254 336.841 413.812 336.983 414.295 337.268C414.778 337.541 415.156 337.925 415.429 338.421C415.714 338.916 415.856 339.499 415.856 340.168V346.302H413.737V340.763C413.737 340.081 413.551 339.542 413.18 339.146C412.808 338.737 412.312 338.532 411.692 338.532C411.271 338.532 410.887 338.631 410.54 338.83C410.205 339.015 409.914 339.294 409.666 339.666V346.302H407.566Z" fill="#232B3E"/>
<rect x="18.5887" y="419.407" width="398.495" height="139.415" rx="6.97076" fill="url(#paint2_linear_275_1610)"/>
<path d="M32.6975 454.349L37.8466 441.337H39.5567L44.6315 454.349H43.0886L41.5457 450.259H35.7461L34.2032 454.349H32.6975ZM36.1922 449.125H41.1182L38.6459 442.638L36.1922 449.125ZM50.0338 458.42C49.4266 458.42 48.8131 458.333 48.1935 458.16C47.5863 457.998 47.0224 457.769 46.5019 457.472L47.0782 456.431C47.6359 456.716 48.1439 456.927 48.6025 457.063C49.061 457.199 49.5195 457.267 49.978 457.267C50.8083 457.267 51.4341 457.069 51.8555 456.672C52.2892 456.276 52.5061 455.7 52.5061 454.944V453.122C52.1591 453.556 51.7378 453.89 51.2421 454.126C50.7464 454.349 50.2011 454.46 49.6063 454.46C48.8255 454.46 48.1192 454.256 47.4871 453.847C46.8551 453.426 46.3532 452.868 45.9815 452.174C45.6097 451.468 45.4238 450.681 45.4238 449.813C45.4238 448.946 45.6097 448.165 45.9815 447.471C46.3656 446.765 46.8799 446.207 47.5243 445.798C48.1687 445.377 48.8875 445.166 49.6806 445.166C50.2507 445.166 50.7773 445.278 51.2606 445.501C51.744 445.711 52.1653 446.027 52.5247 446.449V445.278H53.8631V454.925C53.8631 456.053 53.5347 456.914 52.8779 457.509C52.2211 458.116 51.273 458.42 50.0338 458.42ZM49.9408 453.289C50.4737 453.289 50.9632 453.184 51.4094 452.973C51.8555 452.75 52.2211 452.447 52.5061 452.062V447.583C52.2087 447.198 51.8307 446.901 51.3722 446.69C50.9261 446.467 50.4489 446.356 49.9408 446.356C49.3336 446.356 48.7884 446.504 48.305 446.802C47.8341 447.099 47.4562 447.508 47.1711 448.029C46.8985 448.549 46.7622 449.144 46.7622 449.813C46.7622 450.47 46.8985 451.065 47.1711 451.598C47.4562 452.118 47.8341 452.533 48.305 452.843C48.7884 453.141 49.3336 453.289 49.9408 453.289ZM60.7415 454.535C59.8988 454.535 59.1366 454.33 58.4551 453.921C57.7735 453.5 57.2344 452.936 56.8378 452.23C56.4413 451.511 56.243 450.705 56.243 449.813C56.243 448.921 56.4289 448.122 56.8007 447.415C57.1848 446.709 57.6991 446.151 58.3435 445.742C58.9879 445.333 59.7067 445.129 60.4998 445.129C61.3053 445.129 62.0179 445.333 62.6375 445.742C63.2695 446.139 63.7652 446.684 64.1246 447.378C64.4964 448.06 64.6823 448.834 64.6823 449.702V450.111H57.5628C57.6124 450.73 57.7797 451.288 58.0647 451.784C58.3621 452.267 58.7463 452.651 59.2172 452.936C59.7005 453.209 60.2272 453.345 60.7972 453.345C61.2681 453.345 61.7205 453.265 62.1542 453.103C62.6003 452.93 62.9783 452.701 63.2881 452.416L64.1432 453.326C63.6227 453.735 63.0836 454.039 62.526 454.237C61.9683 454.436 61.3735 454.535 60.7415 454.535ZM57.6 449.144H63.3439C63.2819 448.599 63.1146 448.115 62.842 447.694C62.5817 447.26 62.2471 446.92 61.8382 446.672C61.4416 446.424 60.9955 446.3 60.4998 446.3C60.0041 446.3 59.5518 446.424 59.1428 446.672C58.7339 446.907 58.3931 447.242 58.1205 447.676C57.8602 448.097 57.6867 448.586 57.6 449.144Z" fill="#7B808B"/>
<path d="M380.963 454.349V452.88L386.298 447.304C386.621 446.969 386.868 446.666 387.042 446.393C387.228 446.12 387.358 445.86 387.432 445.612C387.519 445.352 387.562 445.086 387.562 444.813C387.562 444.268 387.339 443.815 386.893 443.456C386.447 443.097 385.883 442.917 385.202 442.917C384.607 442.917 384.049 443.035 383.529 443.27C383.008 443.505 382.438 443.914 381.818 444.497L380.666 443.103C381.385 442.446 382.122 441.956 382.878 441.634C383.634 441.3 384.421 441.132 385.239 441.132C386.094 441.132 386.844 441.287 387.488 441.597C388.132 441.894 388.634 442.31 388.994 442.842C389.353 443.375 389.533 443.995 389.533 444.701C389.533 445.123 389.477 445.519 389.365 445.891C389.254 446.263 389.062 446.641 388.789 447.025C388.529 447.409 388.163 447.849 387.692 448.345L383.566 452.62L389.774 452.602V454.349H380.963ZM396.881 454.535C395.828 454.535 394.898 454.256 394.093 453.698C393.3 453.128 392.674 452.341 392.215 451.338C391.769 450.321 391.546 449.156 391.546 447.843C391.546 446.504 391.769 445.333 392.215 444.33C392.674 443.326 393.3 442.545 394.093 441.987C394.898 441.417 395.828 441.132 396.881 441.132C397.934 441.132 398.858 441.417 399.651 441.987C400.456 442.545 401.082 443.326 401.528 444.33C401.974 445.333 402.197 446.504 402.197 447.843C402.197 449.156 401.974 450.321 401.528 451.338C401.082 452.341 400.456 453.128 399.651 453.698C398.858 454.256 397.934 454.535 396.881 454.535ZM396.881 452.732C397.55 452.732 398.127 452.533 398.61 452.137C399.106 451.728 399.49 451.158 399.762 450.427C400.035 449.696 400.171 448.834 400.171 447.843C400.171 446.839 400.035 445.972 399.762 445.24C399.49 444.509 399.106 443.945 398.61 443.549C398.127 443.14 397.55 442.935 396.881 442.935C396.212 442.935 395.629 443.14 395.134 443.549C394.65 443.945 394.266 444.509 393.981 445.24C393.709 445.972 393.572 446.839 393.572 447.843C393.572 448.834 393.709 449.696 393.981 450.427C394.266 451.158 394.65 451.728 395.134 452.137C395.629 452.533 396.212 452.732 396.881 452.732Z" fill="#4F5565"/>
<path d="M40.1516 496.378C39.2221 496.378 38.3609 496.205 37.5677 495.858C36.7746 495.511 36.0745 495.033 35.4672 494.426C34.8724 493.807 34.4077 493.094 34.0731 492.289C33.7385 491.471 33.5712 490.597 33.5712 489.668C33.5712 488.738 33.7385 487.871 34.0731 487.065C34.4077 486.247 34.8724 485.535 35.4672 484.927C36.0745 484.308 36.7746 483.824 37.5677 483.478C38.3609 483.131 39.2221 482.957 40.1516 482.957C41.143 482.957 42.0786 483.137 42.9585 483.496C43.8507 483.855 44.6067 484.388 45.2263 485.095L44.2597 486.061C43.7764 485.479 43.1691 485.033 42.438 484.723C41.7068 484.413 40.9447 484.258 40.1516 484.258C39.4204 484.258 38.745 484.401 38.1254 484.686C37.5058 484.958 36.9605 485.343 36.4896 485.838C36.0311 486.322 35.6717 486.892 35.4115 487.548C35.1512 488.205 35.0211 488.912 35.0211 489.668C35.0211 490.423 35.1512 491.13 35.4115 491.787C35.6717 492.443 36.0311 493.02 36.4896 493.515C36.9605 493.999 37.5058 494.383 38.1254 494.668C38.745 494.941 39.4204 495.077 40.1516 495.077C41.0191 495.077 41.7936 494.885 42.4752 494.501C43.1691 494.116 43.7268 493.59 44.1481 492.921C44.5819 492.239 44.8359 491.477 44.9103 490.634H40.5234V489.37H46.3602V489.946C46.3602 490.851 46.2053 491.694 45.8955 492.474C45.5857 493.243 45.1457 493.924 44.5757 494.519C44.018 495.102 43.3612 495.56 42.6053 495.895C41.8493 496.217 41.0314 496.378 40.1516 496.378ZM52.8631 496.359C52.0204 496.359 51.2582 496.155 50.5766 495.746C49.8951 495.325 49.356 494.761 48.9594 494.054C48.5629 493.336 48.3646 492.53 48.3646 491.638C48.3646 490.746 48.5505 489.946 48.9222 489.24C49.3064 488.534 49.8207 487.976 50.4651 487.567C51.1095 487.158 51.8283 486.954 52.6214 486.954C53.4269 486.954 54.1395 487.158 54.7591 487.567C55.3911 487.964 55.8868 488.509 56.2462 489.203C56.618 489.884 56.8039 490.659 56.8039 491.526V491.935H49.6844C49.734 492.555 49.9013 493.113 50.1863 493.608C50.4837 494.092 50.8679 494.476 51.3388 494.761C51.8221 495.033 52.3488 495.17 52.9188 495.17C53.3897 495.17 53.8421 495.089 54.2758 494.928C54.7219 494.755 55.0999 494.525 55.4097 494.24L56.2648 495.151C55.7443 495.56 55.2052 495.864 54.6476 496.062C54.0899 496.26 53.4951 496.359 52.8631 496.359ZM49.7216 490.969H55.4655C55.4035 490.423 55.2362 489.94 54.9636 489.519C54.7033 489.085 54.3687 488.744 53.9598 488.496C53.5632 488.249 53.1171 488.125 52.6214 488.125C52.1257 488.125 51.6734 488.249 51.2644 488.496C50.8555 488.732 50.5147 489.067 50.242 489.5C49.9818 489.922 49.8083 490.411 49.7216 490.969ZM59.1208 496.174V487.102H60.4777V488.571C60.8247 488.026 61.2399 487.623 61.7232 487.363C62.2065 487.09 62.7518 486.954 63.359 486.954C64.0158 486.954 64.5858 487.096 65.0691 487.381C65.5648 487.654 65.949 488.044 66.2216 488.552C66.5067 489.048 66.6492 489.63 66.6492 490.3V496.174H65.2922V490.69C65.2922 489.884 65.0691 489.252 64.623 488.794C64.1893 488.323 63.6006 488.088 62.8571 488.088C62.3614 488.088 61.9091 488.205 61.5001 488.441C61.0912 488.676 60.7504 489.023 60.4777 489.482V496.174H59.1208ZM73.1507 496.304C72.37 496.304 71.6636 496.099 71.0316 495.69C70.3996 495.269 69.8977 494.711 69.5259 494.017C69.1542 493.311 68.9683 492.524 68.9683 491.657C68.9683 490.777 69.1542 489.99 69.5259 489.296C69.9101 488.589 70.4244 488.032 71.0688 487.623C71.7132 487.201 72.432 486.991 73.2251 486.991C73.7827 486.991 74.3032 487.102 74.7865 487.325C75.2698 487.536 75.6912 487.846 76.0506 488.255V482.753L77.4075 482.474V496.174H76.0506V494.965C75.7036 495.399 75.2822 495.734 74.7865 495.969C74.2908 496.192 73.7456 496.304 73.1507 496.304ZM73.4853 495.114C74.0182 495.114 74.5077 495.009 74.9538 494.798C75.4 494.587 75.7655 494.29 76.0506 493.906V489.407C75.7531 489.023 75.3752 488.726 74.9167 488.515C74.4705 488.292 73.9934 488.18 73.4853 488.18C72.8781 488.18 72.3328 488.329 71.8495 488.627C71.3786 488.924 71.0006 489.333 70.7156 489.853C70.443 490.374 70.3067 490.969 70.3067 491.638C70.3067 492.295 70.443 492.89 70.7156 493.422C71.0006 493.943 71.3786 494.358 71.8495 494.668C72.3328 494.965 72.8781 495.114 73.4853 495.114ZM84.2859 496.359C83.4432 496.359 82.6811 496.155 81.9995 495.746C81.3179 495.325 80.7789 494.761 80.3823 494.054C79.9857 493.336 79.7875 492.53 79.7875 491.638C79.7875 490.746 79.9734 489.946 80.3451 489.24C80.7293 488.534 81.2436 487.976 81.888 487.567C82.5324 487.158 83.2512 486.954 84.0443 486.954C84.8498 486.954 85.5624 487.158 86.182 487.567C86.814 487.964 87.3097 488.509 87.6691 489.203C88.0409 489.884 88.2267 490.659 88.2267 491.526V491.935H81.1073C81.1568 492.555 81.3241 493.113 81.6092 493.608C81.9066 494.092 82.2907 494.476 82.7617 494.761C83.245 495.033 83.7716 495.17 84.3417 495.17C84.8126 495.17 85.2649 495.089 85.6987 494.928C86.1448 494.755 86.5228 494.525 86.8326 494.24L87.6877 495.151C87.1672 495.56 86.6281 495.864 86.0704 496.062C85.5128 496.26 84.918 496.359 84.2859 496.359ZM81.1444 490.969H86.8884C86.8264 490.423 86.6591 489.94 86.3865 489.519C86.1262 489.085 85.7916 488.744 85.3827 488.496C84.9861 488.249 84.54 488.125 84.0443 488.125C83.5486 488.125 83.0963 488.249 82.6873 488.496C82.2784 488.732 81.9376 489.067 81.6649 489.5C81.4047 489.922 81.2312 490.411 81.1444 490.969ZM90.5436 496.174V487.102H91.9006V488.961C92.1361 488.329 92.4707 487.84 92.9044 487.493C93.3505 487.133 93.8586 486.954 94.4287 486.954C94.5898 486.954 94.7385 486.966 94.8748 486.991C95.0111 487.003 95.1474 487.034 95.2838 487.084V488.311C95.1351 488.261 94.9739 488.224 94.8005 488.199C94.6394 488.162 94.4844 488.143 94.3357 488.143C93.7781 488.143 93.2886 488.304 92.8672 488.627C92.4583 488.949 92.1361 489.401 91.9006 489.984V496.174H90.5436Z" fill="#7B808B"/>
<path d="M362.807 496.174V483.161H365.706L369.517 491.062L373.309 483.161H376.209V496.174H374.108V485.987L369.498 495.244L364.87 485.931V496.174H362.807ZM381.71 496.341C381.065 496.341 380.489 496.223 379.981 495.988C379.485 495.74 379.095 495.405 378.81 494.984C378.537 494.55 378.401 494.054 378.401 493.497C378.401 492.939 378.543 492.456 378.828 492.047C379.126 491.638 379.541 491.322 380.074 491.099C380.607 490.876 381.239 490.764 381.97 490.764C382.403 490.764 382.831 490.814 383.252 490.913C383.674 491 384.083 491.148 384.479 491.359V490.318C384.479 489.699 384.3 489.234 383.94 488.924C383.593 488.614 383.06 488.459 382.342 488.459C381.957 488.459 381.542 488.521 381.096 488.645C380.662 488.757 380.173 488.936 379.628 489.184L378.884 487.66C380.247 487.028 381.536 486.712 382.75 486.712C383.965 486.712 384.901 487.009 385.557 487.604C386.227 488.187 386.561 489.017 386.561 490.095V496.174H384.479V495.207C384.083 495.591 383.655 495.876 383.197 496.062C382.738 496.248 382.242 496.341 381.71 496.341ZM380.371 493.46C380.371 493.893 380.545 494.234 380.892 494.482C381.239 494.73 381.703 494.854 382.286 494.854C382.707 494.854 383.097 494.792 383.457 494.668C383.829 494.532 384.169 494.333 384.479 494.073V492.567C384.157 492.419 383.822 492.307 383.475 492.233C383.128 492.158 382.75 492.121 382.342 492.121C381.734 492.121 381.251 492.239 380.892 492.474C380.545 492.71 380.371 493.038 380.371 493.46ZM389.104 496.174V482.845L391.205 482.474V496.174H389.104ZM398.119 496.359C397.227 496.359 396.421 496.149 395.702 495.727C394.984 495.294 394.413 494.717 393.992 493.999C393.571 493.268 393.36 492.443 393.36 491.526C393.36 490.609 393.558 489.791 393.955 489.073C394.352 488.354 394.891 487.784 395.572 487.363C396.266 486.929 397.034 486.712 397.877 486.712C398.745 486.712 399.507 486.923 400.164 487.344C400.833 487.765 401.353 488.335 401.725 489.054C402.109 489.773 402.301 490.597 402.301 491.526V492.028H395.423C395.498 492.536 395.659 492.989 395.907 493.385C396.167 493.769 396.495 494.073 396.892 494.296C397.301 494.519 397.741 494.631 398.212 494.631C398.646 494.631 399.054 494.556 399.439 494.408C399.835 494.247 400.164 494.03 400.424 493.757L401.799 495.002C401.229 495.473 400.647 495.82 400.052 496.043C399.47 496.254 398.825 496.359 398.119 496.359ZM395.442 490.727H400.312C400.238 490.281 400.083 489.884 399.848 489.537C399.625 489.19 399.339 488.918 398.992 488.72C398.658 488.521 398.286 488.422 397.877 488.422C397.468 488.422 397.09 488.521 396.743 488.72C396.409 488.905 396.13 489.172 395.907 489.519C395.684 489.866 395.529 490.269 395.442 490.727Z" fill="#4F5565"/>
<path d="M34.1846 537.998V524.986H43.07V526.25H35.6159V530.804H40.7836V532.05H35.6159V536.734H43.1444V537.998H34.1846ZM44.2809 537.998L47.757 533.295L44.4854 528.927H46.1026L48.612 532.384L51.1029 528.927H52.6458L49.3556 533.332L52.8503 537.998H51.2331L48.5191 534.299L45.8237 537.998H44.2809ZM54.4917 541.883V528.927H55.8301V530.228C56.1771 529.769 56.5985 529.422 57.0942 529.187C57.6022 528.939 58.1599 528.815 58.7671 528.815C59.5603 528.815 60.2666 529.026 60.8863 529.447C61.5183 529.856 62.0202 530.414 62.3919 531.12C62.7637 531.814 62.9496 532.595 62.9496 533.462C62.9496 534.33 62.7575 535.117 62.3733 535.823C62.0016 536.53 61.4935 537.093 60.8491 537.515C60.2171 537.924 59.4983 538.128 58.6928 538.128C58.1227 538.128 57.5961 538.023 57.1127 537.812C56.6294 537.589 56.2081 537.273 55.8487 536.864V541.883H54.4917ZM58.4325 536.957C59.0398 536.957 59.5788 536.808 60.0498 536.511C60.5331 536.201 60.911 535.786 61.1837 535.266C61.4687 534.733 61.6112 534.138 61.6112 533.481C61.6112 532.812 61.4687 532.217 61.1837 531.696C60.911 531.176 60.5331 530.767 60.0498 530.47C59.5788 530.16 59.0398 530.005 58.4325 530.005C57.8997 530.005 57.404 530.116 56.9454 530.34C56.4993 530.55 56.1337 530.854 55.8487 531.25V535.693C56.1461 536.09 56.5179 536.399 56.964 536.622C57.4226 536.846 57.9121 536.957 58.4325 536.957ZM65.3105 537.998V528.927H66.6675V537.998H65.3105ZM65.9983 526.678C65.7257 526.678 65.4902 526.585 65.2919 526.399C65.106 526.2 65.0131 525.971 65.0131 525.711C65.0131 525.451 65.106 525.228 65.2919 525.042C65.4902 524.843 65.7257 524.744 65.9983 524.744C66.2709 524.744 66.5002 524.843 66.6861 525.042C66.8843 525.228 66.9835 525.451 66.9835 525.711C66.9835 525.971 66.8843 526.2 66.6861 526.399C66.5002 526.585 66.2709 526.678 65.9983 526.678ZM69.4498 537.998V528.927H70.8068V530.786C71.0423 530.154 71.3769 529.664 71.8106 529.317C72.2567 528.958 72.7648 528.778 73.3349 528.778C73.496 528.778 73.6447 528.79 73.781 528.815C73.9173 528.828 74.0536 528.859 74.1899 528.908V530.135C74.0412 530.085 73.8801 530.048 73.7066 530.023C73.5455 529.986 73.3906 529.968 73.2419 529.968C72.6843 529.968 72.1948 530.129 71.7734 530.451C71.3645 530.773 71.0423 531.226 70.8068 531.808V537.998H69.4498ZM79.5117 538.184C78.669 538.184 77.9069 537.979 77.2253 537.571C76.5437 537.149 76.0046 536.585 75.6081 535.879C75.2115 535.16 75.0132 534.355 75.0132 533.462C75.0132 532.57 75.1991 531.771 75.5709 531.064C75.9551 530.358 76.4693 529.8 77.1137 529.391C77.7582 528.983 78.4769 528.778 79.27 528.778C80.0755 528.778 80.7881 528.983 81.4077 529.391C82.0398 529.788 82.5354 530.333 82.8948 531.027C83.2666 531.709 83.4525 532.483 83.4525 533.351V533.76H76.333C76.3826 534.379 76.5499 534.937 76.8349 535.433C77.1323 535.916 77.5165 536.3 77.9874 536.585C78.4707 536.858 78.9974 536.994 79.5675 536.994C80.0384 536.994 80.4907 536.914 80.9244 536.753C81.3706 536.579 81.7485 536.35 82.0583 536.065L82.9134 536.976C82.3929 537.385 81.8539 537.688 81.2962 537.887C80.7385 538.085 80.1437 538.184 79.5117 538.184ZM76.3702 532.793H82.1141C82.0521 532.248 81.8848 531.765 81.6122 531.343C81.352 530.91 81.0174 530.569 80.6084 530.321C80.2119 530.073 79.7657 529.949 79.27 529.949C78.7743 529.949 78.322 530.073 77.9131 530.321C77.5041 530.556 77.1633 530.891 76.8907 531.325C76.6304 531.746 76.4569 532.236 76.3702 532.793ZM91.7995 536.715H94.7737C95.7156 536.715 96.5582 536.486 97.3018 536.028C98.0453 535.569 98.634 534.95 99.0677 534.169C99.5139 533.376 99.7369 532.483 99.7369 531.492C99.7369 530.501 99.5139 529.615 99.0677 528.834C98.634 528.041 98.0453 527.415 97.3018 526.956C96.5582 526.498 95.7156 526.269 94.7737 526.269H91.7995V536.715ZM90.3682 537.998V524.986H94.6808C95.635 524.986 96.5087 525.153 97.3018 525.488C98.1073 525.81 98.7951 526.269 99.3651 526.863C99.9476 527.446 100.394 528.134 100.704 528.927C101.026 529.707 101.187 530.563 101.187 531.492C101.187 532.421 101.026 533.283 100.704 534.076C100.394 534.857 99.9476 535.544 99.3651 536.139C98.7951 536.722 98.1073 537.18 97.3018 537.515C96.5087 537.837 95.635 537.998 94.6808 537.998H90.3682ZM106.257 538.165C105.613 538.165 105.043 538.048 104.547 537.812C104.051 537.577 103.661 537.254 103.376 536.846C103.103 536.424 102.967 535.941 102.967 535.396C102.967 534.85 103.11 534.379 103.395 533.983C103.68 533.574 104.076 533.258 104.584 533.035C105.092 532.812 105.687 532.7 106.369 532.7C106.889 532.7 107.379 532.756 107.837 532.868C108.308 532.979 108.742 533.159 109.139 533.407V532.161C109.139 531.418 108.94 530.86 108.544 530.488C108.147 530.104 107.565 529.912 106.796 529.912C106.375 529.912 105.941 529.974 105.495 530.098C105.061 530.222 104.578 530.42 104.045 530.693L103.543 529.652C104.758 529.069 105.898 528.778 106.964 528.778C108.091 528.778 108.959 529.057 109.566 529.615C110.173 530.16 110.477 530.947 110.477 531.975V537.998H109.139V536.938C108.742 537.347 108.302 537.657 107.819 537.868C107.335 538.066 106.815 538.165 106.257 538.165ZM104.268 535.358C104.268 535.891 104.473 536.319 104.882 536.641C105.303 536.963 105.855 537.124 106.536 537.124C107.044 537.124 107.509 537.038 107.93 536.864C108.364 536.691 108.767 536.43 109.139 536.083V534.336C108.754 534.113 108.358 533.952 107.949 533.853C107.54 533.741 107.081 533.685 106.573 533.685C105.879 533.685 105.322 533.84 104.9 534.15C104.479 534.448 104.268 534.85 104.268 535.358ZM116.42 538.184C115.639 538.184 115.045 537.998 114.636 537.626C114.239 537.242 114.041 536.691 114.041 535.972V530.042H112.163V528.927H114.041V526.436L115.398 526.12V528.927H118V530.042H115.398V535.619C115.398 536.102 115.497 536.449 115.695 536.66C115.906 536.87 116.247 536.976 116.718 536.976C116.953 536.976 117.164 536.957 117.35 536.92C117.535 536.883 117.752 536.821 118 536.734V537.942C117.752 538.029 117.492 538.091 117.219 538.128C116.947 538.165 116.68 538.184 116.42 538.184ZM123.896 538.184C123.053 538.184 122.291 537.979 121.609 537.571C120.928 537.149 120.389 536.585 119.992 535.879C119.596 535.16 119.397 534.355 119.397 533.462C119.397 532.57 119.583 531.771 119.955 531.064C120.339 530.358 120.853 529.8 121.498 529.391C122.142 528.983 122.861 528.778 123.654 528.778C124.46 528.778 125.172 528.983 125.792 529.391C126.424 529.788 126.92 530.333 127.279 531.027C127.651 531.709 127.837 532.483 127.837 533.351V533.76H120.717C120.767 534.379 120.934 534.937 121.219 535.433C121.516 535.916 121.901 536.3 122.372 536.585C122.855 536.858 123.382 536.994 123.952 536.994C124.423 536.994 124.875 536.914 125.309 536.753C125.755 536.579 126.133 536.35 126.442 536.065L127.298 536.976C126.777 537.385 126.238 537.688 125.68 537.887C125.123 538.085 124.528 538.184 123.896 538.184ZM120.754 532.793H126.498C126.436 532.248 126.269 531.765 125.996 531.343C125.736 530.91 125.402 530.569 124.993 530.321C124.596 530.073 124.15 529.949 123.654 529.949C123.158 529.949 122.706 530.073 122.297 530.321C121.888 530.556 121.547 530.891 121.275 531.325C121.015 531.746 120.841 532.236 120.754 532.793Z" fill="#7B808B"/>
<path d="M296.189 537.998V536.53L301.524 530.953C301.846 530.618 302.094 530.315 302.267 530.042C302.453 529.769 302.583 529.509 302.658 529.261C302.744 529.001 302.788 528.735 302.788 528.462C302.788 527.917 302.565 527.464 302.119 527.105C301.672 526.746 301.109 526.566 300.427 526.566C299.832 526.566 299.275 526.684 298.754 526.919C298.234 527.155 297.663 527.564 297.044 528.146L295.891 526.752C296.61 526.095 297.347 525.606 298.103 525.283C298.859 524.949 299.646 524.781 300.464 524.781C301.319 524.781 302.069 524.936 302.713 525.246C303.358 525.544 303.86 525.959 304.219 526.492C304.578 527.025 304.758 527.644 304.758 528.351C304.758 528.772 304.702 529.168 304.591 529.54C304.479 529.912 304.287 530.29 304.015 530.674C303.754 531.058 303.389 531.498 302.918 531.994L298.791 536.269L305 536.251V537.998H296.189ZM312.107 538.184C311.053 538.184 310.124 537.905 309.318 537.347C308.525 536.777 307.899 535.99 307.441 534.987C306.995 533.97 306.772 532.806 306.772 531.492C306.772 530.154 306.995 528.983 307.441 527.979C307.899 526.975 308.525 526.194 309.318 525.637C310.124 525.067 311.053 524.781 312.107 524.781C313.16 524.781 314.083 525.067 314.876 525.637C315.682 526.194 316.308 526.975 316.754 527.979C317.2 528.983 317.423 530.154 317.423 531.492C317.423 532.806 317.2 533.97 316.754 534.987C316.308 535.99 315.682 536.777 314.876 537.347C314.083 537.905 313.16 538.184 312.107 538.184ZM312.107 536.381C312.776 536.381 313.352 536.183 313.835 535.786C314.331 535.377 314.715 534.807 314.988 534.076C315.26 533.345 315.397 532.483 315.397 531.492C315.397 530.488 315.26 529.621 314.988 528.89C314.715 528.158 314.331 527.595 313.835 527.198C313.352 526.789 312.776 526.585 312.107 526.585C311.437 526.585 310.855 526.789 310.359 527.198C309.876 527.595 309.492 528.158 309.207 528.89C308.934 529.621 308.798 530.488 308.798 531.492C308.798 532.483 308.934 533.345 309.207 534.076C309.492 534.807 309.876 535.377 310.359 535.786C310.855 536.183 311.437 536.381 312.107 536.381ZM318.935 537.998V536.53L324.269 530.953C324.592 530.618 324.84 530.315 325.013 530.042C325.199 529.769 325.329 529.509 325.403 529.261C325.49 529.001 325.534 528.735 325.534 528.462C325.534 527.917 325.31 527.464 324.864 527.105C324.418 526.746 323.854 526.566 323.173 526.566C322.578 526.566 322.02 526.684 321.5 526.919C320.979 527.155 320.409 527.564 319.79 528.146L318.637 526.752C319.356 526.095 320.093 525.606 320.849 525.283C321.605 524.949 322.392 524.781 323.21 524.781C324.065 524.781 324.815 524.936 325.459 525.246C326.104 525.544 326.605 525.959 326.965 526.492C327.324 527.025 327.504 527.644 327.504 528.351C327.504 528.772 327.448 529.168 327.337 529.54C327.225 529.912 327.033 530.29 326.76 530.674C326.5 531.058 326.135 531.498 325.664 531.994L321.537 536.269L327.746 536.251V537.998H318.935ZM336.159 537.998V534.782H329.002V533.109L335.861 524.986H338.241V533.016H339.969V534.782H338.241V537.998H336.159ZM331.419 533.016H336.159V527.365L331.419 533.016ZM339.567 541.883L347.002 524.986H349.047L341.593 541.883H339.567ZM355.438 538.184C354.384 538.184 353.455 537.905 352.649 537.347C351.856 536.777 351.231 535.99 350.772 534.987C350.326 533.97 350.103 532.806 350.103 531.492C350.103 530.154 350.326 528.983 350.772 527.979C351.231 526.975 351.856 526.194 352.649 525.637C353.455 525.067 354.384 524.781 355.438 524.781C356.491 524.781 357.414 525.067 358.208 525.637C359.013 526.194 359.639 526.975 360.085 527.979C360.531 528.983 360.754 530.154 360.754 531.492C360.754 532.806 360.531 533.97 360.085 534.987C359.639 535.99 359.013 536.777 358.208 537.347C357.414 537.905 356.491 538.184 355.438 538.184ZM355.438 536.381C356.107 536.381 356.683 536.183 357.167 535.786C357.662 535.377 358.046 534.807 358.319 534.076C358.592 533.345 358.728 532.483 358.728 531.492C358.728 530.488 358.592 529.621 358.319 528.89C358.046 528.158 357.662 527.595 357.167 527.198C356.683 526.789 356.107 526.585 355.438 526.585C354.769 526.585 354.186 526.789 353.69 527.198C353.207 527.595 352.823 528.158 352.538 528.89C352.265 529.621 352.129 530.488 352.129 531.492C352.129 532.483 352.265 533.345 352.538 534.076C352.823 534.807 353.207 535.377 353.69 535.786C354.186 536.183 354.769 536.381 355.438 536.381ZM363.289 537.998L369.368 526.77H361.895V524.986H371.561V526.529L365.687 537.998H363.289ZM369.719 541.883L377.154 524.986H379.199L371.745 541.883H369.719ZM384.881 538.203C383.915 538.203 383.016 538.035 382.186 537.701C381.356 537.354 380.649 536.87 380.067 536.251L381.424 534.95C381.944 535.495 382.465 535.879 382.985 536.102C383.506 536.313 384.125 536.418 384.844 536.418C385.414 536.418 385.91 536.331 386.331 536.158C386.765 535.972 387.1 535.718 387.335 535.396C387.571 535.073 387.688 534.695 387.688 534.262C387.688 533.878 387.589 533.537 387.391 533.239C387.193 532.942 386.92 532.713 386.573 532.552C386.226 532.378 385.823 532.291 385.365 532.291H383.766V530.581H385.197C385.829 530.581 386.331 530.408 386.703 530.061C387.087 529.714 387.279 529.243 387.279 528.648C387.279 528.264 387.168 527.917 386.945 527.607C386.734 527.285 386.443 527.037 386.071 526.863C385.699 526.678 385.278 526.585 384.807 526.585C384.15 526.585 383.574 526.702 383.078 526.938C382.595 527.161 382.093 527.557 381.573 528.127L380.197 526.845C380.792 526.176 381.492 525.668 382.298 525.321C383.115 524.961 383.971 524.781 384.863 524.781C385.73 524.781 386.499 524.936 387.168 525.246C387.837 525.556 388.357 525.99 388.729 526.547C389.113 527.093 389.306 527.718 389.306 528.425C389.306 529.119 389.076 529.738 388.618 530.284C388.172 530.817 387.583 531.188 386.852 531.399C387.719 531.585 388.413 531.951 388.934 532.496C389.467 533.029 389.733 533.661 389.733 534.392C389.733 535.123 389.522 535.78 389.101 536.362C388.68 536.932 388.103 537.385 387.372 537.719C386.654 538.041 385.823 538.203 384.881 538.203ZM396.881 538.184C395.828 538.184 394.898 537.905 394.093 537.347C393.3 536.777 392.674 535.99 392.215 534.987C391.769 533.97 391.546 532.806 391.546 531.492C391.546 530.154 391.769 528.983 392.215 527.979C392.674 526.975 393.3 526.194 394.093 525.637C394.898 525.067 395.828 524.781 396.881 524.781C397.935 524.781 398.858 525.067 399.651 525.637C400.456 526.194 401.082 526.975 401.528 527.979C401.974 528.983 402.198 530.154 402.198 531.492C402.198 532.806 401.974 533.97 401.528 534.987C401.082 535.99 400.456 536.777 399.651 537.347C398.858 537.905 397.935 538.184 396.881 538.184ZM396.881 536.381C397.55 536.381 398.127 536.183 398.61 535.786C399.106 535.377 399.49 534.807 399.762 534.076C400.035 533.345 400.171 532.483 400.171 531.492C400.171 530.488 400.035 529.621 399.762 528.89C399.49 528.158 399.106 527.595 398.61 527.198C398.127 526.789 397.55 526.585 396.881 526.585C396.212 526.585 395.63 526.789 395.134 527.198C394.651 527.595 394.266 528.158 393.981 528.89C393.709 529.621 393.572 530.488 393.572 531.492C393.572 532.483 393.709 533.345 393.981 534.076C394.266 534.807 394.651 535.377 395.134 535.786C395.63 536.183 396.212 536.381 396.881 536.381Z" fill="#4F5565"/>
<line x1="18.5887" y1="393.267" x2="417.084" y2="393.267" stroke="#D3D5D8" stroke-width="1.16179"/>
<rect width="132.177" height="25" transform="translate(152.328 381.068)" fill="white"/>
<path d="M175.86 399.068L171.24 387.683H173.794L177.275 396.645L180.837 387.683H183.277L178.592 399.068H175.86ZM187.069 399.231C186.223 399.231 185.453 399.036 184.759 398.645C184.076 398.255 183.534 397.729 183.133 397.068C182.732 396.406 182.531 395.663 182.531 394.839C182.531 394.015 182.721 393.272 183.1 392.611C183.491 391.949 184.016 391.424 184.678 391.033C185.339 390.643 186.077 390.448 186.89 390.448C187.703 390.448 188.424 390.648 189.053 391.049C189.682 391.451 190.176 391.993 190.533 392.676C190.902 393.359 191.086 394.134 191.086 395.002V395.587H184.808C184.906 395.924 185.063 396.227 185.28 396.498C185.507 396.769 185.784 396.981 186.109 397.133C186.445 397.284 186.803 397.36 187.183 397.36C187.562 397.36 187.909 397.301 188.224 397.181C188.549 397.062 188.826 396.894 189.053 396.677L190.517 398.011C189.997 398.434 189.46 398.743 188.907 398.938C188.365 399.133 187.752 399.231 187.069 399.231ZM184.776 393.993H188.891C188.815 393.657 188.674 393.364 188.468 393.115C188.273 392.855 188.034 392.654 187.752 392.513C187.481 392.361 187.177 392.286 186.841 392.286C186.494 392.286 186.18 392.356 185.898 392.497C185.616 392.638 185.377 392.839 185.182 393.099C184.998 393.348 184.862 393.646 184.776 393.993ZM192.452 399.068V390.594H194.68V391.537C194.951 391.169 195.276 390.887 195.656 390.692C196.035 390.496 196.464 390.399 196.941 390.399C197.353 390.41 197.662 390.475 197.868 390.594V392.546C197.705 392.47 197.526 392.416 197.331 392.383C197.136 392.34 196.935 392.318 196.729 392.318C196.296 392.318 195.9 392.427 195.542 392.643C195.184 392.86 194.897 393.169 194.68 393.571V399.068H192.452ZM199.091 399.068V390.594H201.319V399.068H199.091ZM200.197 389.586C199.85 389.586 199.552 389.461 199.303 389.211C199.053 388.962 198.928 388.664 198.928 388.317C198.928 387.959 199.053 387.661 199.303 387.422C199.552 387.173 199.85 387.048 200.197 387.048C200.555 387.048 200.853 387.173 201.092 387.422C201.341 387.661 201.466 387.959 201.466 388.317C201.466 388.664 201.341 388.962 201.092 389.211C200.853 389.461 200.555 389.586 200.197 389.586ZM204.363 399.068V392.448H202.477V390.594H204.363V389.781C204.363 388.827 204.64 388.1 205.193 387.601C205.746 387.092 206.543 386.837 207.584 386.837C207.812 386.837 208.045 386.848 208.283 386.869C208.522 386.891 208.728 386.929 208.901 386.983V388.854C208.695 388.81 208.516 388.778 208.365 388.756C208.213 388.734 208.045 388.724 207.86 388.724C207.437 388.724 207.118 388.816 206.901 389C206.695 389.174 206.592 389.45 206.592 389.83V390.594H208.901V392.448H206.592V399.068H204.363ZM210.067 399.068V390.594H212.295V399.068H210.067ZM211.173 389.586C210.826 389.586 210.528 389.461 210.278 389.211C210.029 388.962 209.904 388.664 209.904 388.317C209.904 387.959 210.029 387.661 210.278 387.422C210.528 387.173 210.826 387.048 211.173 387.048C211.531 387.048 211.829 387.173 212.067 387.422C212.317 387.661 212.442 387.959 212.442 388.317C212.442 388.664 212.317 388.962 212.067 389.211C211.829 389.461 211.531 389.586 211.173 389.586ZM218.185 399.231C217.34 399.231 216.57 399.036 215.876 398.645C215.193 398.255 214.651 397.729 214.249 397.068C213.848 396.406 213.647 395.663 213.647 394.839C213.647 394.015 213.837 393.272 214.217 392.611C214.607 391.949 215.133 391.424 215.794 391.033C216.456 390.643 217.193 390.448 218.007 390.448C218.82 390.448 219.541 390.648 220.17 391.049C220.799 391.451 221.292 391.993 221.65 392.676C222.019 393.359 222.203 394.134 222.203 395.002V395.587H215.925C216.022 395.924 216.179 396.227 216.396 396.498C216.624 396.769 216.901 396.981 217.226 397.133C217.562 397.284 217.92 397.36 218.299 397.36C218.679 397.36 219.026 397.301 219.34 397.181C219.666 397.062 219.942 396.894 220.17 396.677L221.634 398.011C221.113 398.434 220.576 398.743 220.023 398.938C219.481 399.133 218.869 399.231 218.185 399.231ZM215.892 393.993H220.007C219.931 393.657 219.79 393.364 219.584 393.115C219.389 392.855 219.151 392.654 218.869 392.513C218.598 392.361 218.294 392.286 217.958 392.286C217.611 392.286 217.296 392.356 217.014 392.497C216.732 392.638 216.494 392.839 216.299 393.099C216.114 393.348 215.979 393.646 215.892 393.993ZM227.552 399.182C226.749 399.182 226.023 398.987 225.372 398.596C224.721 398.206 224.201 397.686 223.811 397.035C223.431 396.374 223.241 395.636 223.241 394.823C223.241 394.01 223.431 393.278 223.811 392.627C224.201 391.966 224.727 391.445 225.388 391.066C226.05 390.675 226.793 390.48 227.617 390.48C228.04 390.48 228.446 390.54 228.837 390.659C229.227 390.767 229.59 390.93 229.926 391.147V387.683L232.155 387.308V399.068H229.959V398.369C229.265 398.911 228.462 399.182 227.552 399.182ZM227.909 397.279C228.322 397.279 228.696 397.214 229.032 397.084C229.379 396.943 229.677 396.737 229.926 396.466V393.164C229.677 392.914 229.379 392.719 229.032 392.578C228.685 392.437 228.311 392.367 227.909 392.367C227.443 392.367 227.02 392.475 226.641 392.692C226.272 392.898 225.979 393.191 225.762 393.571C225.546 393.939 225.437 394.357 225.437 394.823C225.437 395.289 225.546 395.707 225.762 396.075C225.979 396.444 226.272 396.737 226.641 396.954C227.02 397.171 227.443 397.279 227.909 397.279ZM237.311 399.068V387.683H239.67V392.774L244.647 387.683H247.526L241.996 393.099L247.786 399.068H244.63L239.67 393.782V399.068H237.311ZM251.875 399.231C251.029 399.231 250.26 399.036 249.566 398.645C248.882 398.255 248.34 397.729 247.939 397.068C247.538 396.406 247.337 395.663 247.337 394.839C247.337 394.015 247.527 393.272 247.907 392.611C248.297 391.949 248.823 391.424 249.484 391.033C250.146 390.643 250.883 390.448 251.696 390.448C252.51 390.448 253.231 390.648 253.86 391.049C254.488 391.451 254.982 391.993 255.34 392.676C255.708 393.359 255.893 394.134 255.893 395.002V395.587H249.614C249.712 395.924 249.869 396.227 250.086 396.498C250.314 396.769 250.59 396.981 250.916 397.133C251.252 397.284 251.61 397.36 251.989 397.36C252.369 397.36 252.716 397.301 253.03 397.181C253.355 397.062 253.632 396.894 253.86 396.677L255.323 398.011C254.803 398.434 254.266 398.743 253.713 398.938C253.171 399.133 252.558 399.231 251.875 399.231ZM249.582 393.993H253.697C253.621 393.657 253.48 393.364 253.274 393.115C253.079 392.855 252.84 392.654 252.558 392.513C252.287 392.361 251.984 392.286 251.647 392.286C251.301 392.286 250.986 392.356 250.704 392.497C250.422 392.638 250.184 392.839 249.988 393.099C249.804 393.348 249.669 393.646 249.582 393.993ZM257.849 402.565C257.654 402.565 257.464 402.554 257.28 402.533C257.106 402.522 256.96 402.505 256.841 402.484V400.565C257.058 400.608 257.318 400.63 257.621 400.63C258.435 400.63 258.999 400.245 259.313 399.475L259.443 399.149L256.141 390.594H258.597L260.712 396.368L263.103 390.594H265.51L261.606 399.751C261.314 400.434 260.994 400.982 260.647 401.394C260.3 401.806 259.899 402.104 259.443 402.289C258.999 402.473 258.467 402.565 257.849 402.565Z" fill="#7B808B"/>
</g>
<defs>
<filter id="filter0_f_275_1610" x="-203.314" y="-241.653" width="1090.92" height="1054.91" filterUnits="userSpaceOnUse" color-interpolation-filters="sRGB">
<feFlood flood-opacity="0" result="BackgroundImageFix"/>
<feBlend mode="normal" in="SourceGraphic" in2="BackgroundImageFix" result="shape"/>
<feGaussianBlur stdDeviation="197.505" result="effect1_foregroundBlur_275_1610"/>
</filter>
<filter id="filter1_f_275_1610" x="-432.187" y="-415.922" width="1020.05" height="1017.73" filterUnits="userSpaceOnUse" color-interpolation-filters="sRGB">
<feFlood flood-opacity="0" result="BackgroundImageFix"/>
<feBlend mode="normal" in="SourceGraphic" in2="BackgroundImageFix" result="shape"/>
<feGaussianBlur stdDeviation="203.314" result="effect1_foregroundBlur_275_1610"/>
</filter>
<filter id="filter2_f_275_1610" x="34.8538" y="-248.624" width="582.059" height="573.926" filterUnits="userSpaceOnUse" color-interpolation-filters="sRGB">
<feFlood flood-opacity="0" result="BackgroundImageFix"/>
<feBlend mode="normal" in="SourceGraphic" in2="BackgroundImageFix" result="shape"/>
<feGaussianBlur stdDeviation="116.179" result="effect1_foregroundBlur_275_1610"/>
</filter>
<filter id="filter3_f_275_1610" x="-243.977" y="-10.4561" width="597.162" height="580.897" filterUnits="userSpaceOnUse" color-interpolation-filters="sRGB">
<feFlood flood-opacity="0" result="BackgroundImageFix"/>
<feBlend mode="normal" in="SourceGraphic" in2="BackgroundImageFix" result="shape"/>
<feGaussianBlur stdDeviation="116.179" result="effect1_foregroundBlur_275_1610"/>
</filter>
<filter id="filter4_d_275_1610" x="119.665" y="-13.9417" width="195.181" height="195.181" filterUnits="userSpaceOnUse" color-interpolation-filters="sRGB">
<feFlood flood-opacity="0" result="BackgroundImageFix"/>
<feColorMatrix in="SourceAlpha" type="matrix" values="0 0 0 0 0 0 0 0 0 0 0 0 0 0 0 0 0 0 127 0" result="hardAlpha"/>
<feOffset/>
<feGaussianBlur stdDeviation="25.5595"/>
<feComposite in2="hardAlpha" operator="out"/>
<feColorMatrix type="matrix" values="0 0 0 0 0.4875 0 0 0 0 1 0 0 0 0 1 0 0 0 0.3 0"/>
<feBlend mode="normal" in2="BackgroundImageFix" result="effect1_dropShadow_275_1610"/>
<feBlend mode="normal" in="SourceGraphic" in2="effect1_dropShadow_275_1610" result="shape"/>
</filter>
<linearGradient id="paint0_linear_275_1610" x1="218.417" y1="0" x2="218.417" y2="269.536" gradientUnits="userSpaceOnUse">
<stop stop-color="#82FF96" stop-opacity="0"/>
<stop offset="1" stop-color="#82FF96" stop-opacity="0.4"/>
</linearGradient>
<linearGradient id="paint1_linear_275_1610" x1="263.727" y1="130.121" x2="105.723" y2="-25.5596" gradientUnits="userSpaceOnUse">
<stop stop-color="#82FF96"/>
<stop offset="1" stop-color="#7CFFFF"/>
</linearGradient>
<linearGradient id="paint2_linear_275_1610" x1="-266.999" y1="320.655" x2="-117.23" y2="746.667" gradientUnits="userSpaceOnUse">
<stop stop-color="#7CFFFF" stop-opacity="0"/>
<stop offset="1" stop-color="#7CFFFF" stop-opacity="0.2"/>
</linearGradient>
<clipPath id="clip0_275_1610">
<rect width="435.673" height="596" rx="13.9415" fill="white"/>
</clipPath>
<clipPath id="clip1_275_1610">
<rect width="435.673" height="269.536" fill="white"/>
</clipPath>
<clipPath id="clip2_275_1610">
<rect width="813.255" height="269.536" fill="white" transform="translate(-188.211)"/>
</clipPath>
<clipPath id="clip3_275_1610">
<rect width="813.255" height="1394.15" fill="white" transform="translate(-188.211)"/>
</clipPath>
</defs>
</svg>
