<svg width="107" height="51" viewBox="0 0 107 51" fill="none" xmlns="http://www.w3.org/2000/svg">
<g clip-path="url(#clip0_237_1149)">
<path d="M94.9996 14.5723C101.278 15.6718 105.756 21.272 105.449 27.6383C105.081 35.239 98.1324 40.796 90.6368 39.4832L73.5231 36.486C71.9155 36.2045 70.4252 37.3963 70.3464 39.0265C70.2676 40.6566 68.7773 41.8484 67.1697 41.5669L38.9647 36.6272C37.3571 36.3457 35.8668 37.5375 35.788 39.1676C35.7092 40.7977 34.2189 41.9895 32.6113 41.708L11.5186 38.014C5.24045 36.9144 0.761958 31.3142 1.06969 24.9479C1.4371 17.3472 8.38583 11.7903 15.8814 13.103L32.9951 16.1002C34.6027 16.3817 36.093 15.1899 36.1718 13.5598C36.2506 11.9296 37.7409 10.7378 39.3484 11.0194L67.5535 15.959C69.1611 16.2406 70.6514 15.0488 70.7302 13.4186C70.809 11.7885 72.2993 10.5967 73.9069 10.8782L94.9996 14.5723Z" fill="#6CFFB0"/>
<path d="M21.4866 31.224C20.4693 31.224 19.6199 31.0326 18.9386 30.65C18.2573 30.258 17.7719 29.7166 17.4826 29.026C17.2026 28.326 17.1559 27.514 17.3426 26.59L18.4206 21.2H21.7246L20.6606 26.534C20.5953 26.8793 20.5719 27.178 20.5906 27.43C20.6093 27.682 20.6699 27.892 20.7726 28.06C20.8846 28.228 21.0339 28.354 21.2206 28.438C21.4073 28.5126 21.6313 28.55 21.8926 28.55C22.2099 28.55 22.4806 28.4846 22.7046 28.354C22.9379 28.2233 23.1293 28.0086 23.2786 27.71C23.4373 27.4113 23.5633 27.0193 23.6566 26.534L24.7206 21.2H27.9686L26.8626 26.73C26.5733 28.1953 25.9806 29.3106 25.0846 30.076C24.1886 30.8413 22.9893 31.224 21.4866 31.224Z" fill="#0B1D3F"/>
<path d="M27.5231 31L29.4831 21.2H32.7871L30.8271 31H27.5231Z" fill="#0B1D3F"/>
<path d="M36.6149 31L38.5749 21.2H42.9989C44.0349 21.2 44.9262 21.368 45.6729 21.704C46.4196 22.04 46.9936 22.5206 47.3949 23.146C47.7962 23.762 47.9969 24.4993 47.9969 25.358C47.9969 26.226 47.8429 27.0053 47.5349 27.696C47.2362 28.3866 46.8116 28.9793 46.2609 29.474C45.7196 29.9686 45.0756 30.3466 44.3289 30.608C43.5822 30.8693 42.7609 31 41.8649 31H36.6149ZM40.4369 28.424H41.9769C42.5649 28.424 43.0549 28.298 43.4469 28.046C43.8482 27.7846 44.1516 27.4393 44.3569 27.01C44.5622 26.5713 44.6649 26.086 44.6649 25.554C44.6649 25.1713 44.5856 24.8493 44.4269 24.588C44.2776 24.3266 44.0489 24.126 43.7409 23.986C43.4422 23.846 43.0689 23.776 42.6209 23.776H41.3609L40.4369 28.424Z" fill="#0B1D3F"/>
<path d="M52.6473 31.14C51.8073 31.14 51.07 30.9953 50.4353 30.706C49.81 30.4166 49.32 30.006 48.9653 29.474C48.6106 28.942 48.4333 28.3166 48.4333 27.598C48.4333 26.758 48.6293 26.0066 49.0213 25.344C49.4133 24.6813 49.964 24.1586 50.6733 23.776C51.392 23.3933 52.2273 23.202 53.1793 23.202C54.0006 23.202 54.7006 23.3466 55.2793 23.636C55.858 23.9253 56.3013 24.322 56.6093 24.826C56.9173 25.33 57.0713 25.9133 57.0713 26.576C57.0713 26.8093 57.0526 27.038 57.0153 27.262C56.9873 27.486 56.95 27.7006 56.9033 27.906H50.9533L51.2473 26.38H55.4473L54.1313 26.786C54.206 26.4873 54.2013 26.2353 54.1173 26.03C54.0426 25.8153 53.912 25.652 53.7253 25.54C53.5386 25.4186 53.31 25.358 53.0393 25.358C52.6566 25.358 52.3533 25.4606 52.1293 25.666C51.9053 25.8713 51.742 26.1373 51.6393 26.464C51.546 26.7906 51.4993 27.1313 51.4993 27.486C51.4993 27.962 51.6253 28.3026 51.8773 28.508C52.1386 28.704 52.5166 28.802 53.0113 28.802C53.3006 28.802 53.59 28.76 53.8793 28.676C54.1686 28.5826 54.4346 28.4473 54.6773 28.27L55.9933 30.188C55.4706 30.5426 54.9246 30.79 54.3553 30.93C53.7953 31.07 53.226 31.14 52.6473 31.14Z" fill="#0B1D3F"/>
<path d="M60.3534 31.14C59.6721 31.14 59.0234 31.0746 58.4074 30.944C57.8008 30.804 57.3294 30.636 56.9934 30.44L58.0854 28.284C58.4681 28.5173 58.8974 28.6946 59.3734 28.816C59.8588 28.928 60.3161 28.984 60.7454 28.984C61.1001 28.984 61.3428 28.9513 61.4734 28.886C61.6134 28.8113 61.6834 28.7226 61.6834 28.62C61.6834 28.508 61.5901 28.4286 61.4034 28.382C61.2168 28.326 60.9741 28.2793 60.6754 28.242C60.3861 28.2046 60.0781 28.1486 59.7514 28.074C59.4248 27.9993 59.1121 27.892 58.8134 27.752C58.5241 27.6026 58.2861 27.3973 58.0994 27.136C57.9128 26.8746 57.8194 26.5293 57.8194 26.1C57.8194 25.4373 58.0108 24.896 58.3934 24.476C58.7854 24.0466 59.3081 23.7293 59.9614 23.524C60.6148 23.3093 61.3381 23.202 62.1314 23.202C62.6914 23.202 63.2281 23.2533 63.7414 23.356C64.2641 23.4493 64.7261 23.5893 65.1274 23.776L64.0354 25.932C63.6341 25.6986 63.2328 25.5446 62.8314 25.47C62.4394 25.3953 62.0801 25.358 61.7534 25.358C61.3894 25.358 61.1374 25.4 60.9974 25.484C60.8574 25.5586 60.7874 25.6426 60.7874 25.736C60.7874 25.848 60.8808 25.932 61.0674 25.988C61.2541 26.044 61.4921 26.0953 61.7814 26.142C62.0708 26.1793 62.3788 26.2353 62.7054 26.31C63.0414 26.3753 63.3541 26.4826 63.6434 26.632C63.9328 26.772 64.1708 26.9726 64.3574 27.234C64.5441 27.4953 64.6374 27.8406 64.6374 28.27C64.6374 28.9046 64.4414 29.4366 64.0494 29.866C63.6668 30.2953 63.1488 30.6173 62.4954 30.832C61.8514 31.0373 61.1374 31.14 60.3534 31.14Z" fill="#0B1D3F"/>
<path d="M65.0774 31L66.6035 23.342H69.7535L68.2275 31H65.0774ZM68.5215 22.726C67.9708 22.726 67.5321 22.5813 67.2054 22.292C66.8881 22.0026 66.7295 21.648 66.7295 21.228C66.7295 20.7333 66.9114 20.3226 67.2754 19.996C67.6488 19.6693 68.1388 19.506 68.7454 19.506C69.2961 19.506 69.7301 19.6413 70.0475 19.912C70.3741 20.1826 70.5374 20.528 70.5374 20.948C70.5374 21.4706 70.3508 21.9 69.9775 22.236C69.6135 22.5626 69.1281 22.726 68.5215 22.726Z" fill="#0B1D3F"/>
<path d="M73.2702 33.856C72.4955 33.856 71.7862 33.7766 71.1422 33.618C70.5075 33.4593 69.9522 33.2213 69.4762 32.904L70.8202 30.748C71.1282 30.9813 71.5062 31.1633 71.9542 31.294C72.4115 31.434 72.8689 31.504 73.3262 31.504C73.9422 31.504 74.3902 31.3733 74.6702 31.112C74.9502 30.86 75.1368 30.5053 75.2302 30.048L75.4262 29.068L76.0002 26.884L76.4902 24.504L76.7142 23.342H79.7242L78.5062 29.46C78.1982 31.0186 77.5915 32.1386 76.6862 32.82C75.7902 33.5106 74.6515 33.856 73.2702 33.856ZM73.3402 30.58C72.7802 30.58 72.2482 30.4493 71.7442 30.188C71.2402 29.9266 70.8295 29.5486 70.5122 29.054C70.1948 28.5593 70.0362 27.9666 70.0362 27.276C70.0362 26.7066 70.1388 26.1793 70.3442 25.694C70.5588 25.1993 70.8529 24.7653 71.2262 24.392C71.6089 24.0186 72.0475 23.7293 72.5422 23.524C73.0462 23.3093 73.5829 23.202 74.1522 23.202C74.7215 23.202 75.2162 23.314 75.6362 23.538C76.0655 23.762 76.3735 24.1446 76.5602 24.686C76.7469 25.218 76.7609 25.9506 76.6022 26.884C76.4622 27.724 76.2429 28.4193 75.9442 28.97C75.6455 29.5113 75.2769 29.9173 74.8382 30.188C74.3995 30.4493 73.9002 30.58 73.3402 30.58ZM74.3482 28.102C74.6189 28.102 74.8569 28.046 75.0622 27.934C75.2675 27.8126 75.4262 27.6446 75.5382 27.43C75.6502 27.2153 75.7062 26.9633 75.7062 26.674C75.7062 26.3846 75.6082 26.1513 75.4122 25.974C75.2255 25.7873 74.9549 25.694 74.6002 25.694C74.3295 25.694 74.0915 25.7546 73.8862 25.876C73.6808 25.988 73.5175 26.1513 73.3962 26.366C73.2842 26.5806 73.2282 26.8326 73.2282 27.122C73.2282 27.4113 73.3262 27.6493 73.5222 27.836C73.7275 28.0133 74.0029 28.102 74.3482 28.102Z" fill="#0B1D3F"/>
<path d="M86.2333 23.202C86.868 23.202 87.4093 23.3373 87.8573 23.608C88.3146 23.8693 88.6366 24.266 88.8233 24.798C89.0193 25.3206 89.038 25.9786 88.8793 26.772L88.0393 31H84.8753L85.6453 27.15C85.7293 26.73 85.7106 26.4126 85.5893 26.198C85.468 25.974 85.2393 25.862 84.9033 25.862C84.5486 25.862 84.25 25.9833 84.0073 26.226C83.7646 26.4593 83.592 26.8233 83.4893 27.318L82.7473 31H79.5833L81.1093 23.342H84.0913L83.6573 25.484L83.2933 24.896C83.6573 24.308 84.1053 23.8786 84.6373 23.608C85.1786 23.3373 85.7106 23.202 86.2333 23.202Z" fill="#0B1D3F"/>
</g>
<defs>
<clipPath id="clip0_237_1149">
<rect width="107" height="51" fill="white"/>
</clipPath>
</defs>
</svg>
