<svg width="230" height="133" viewBox="0 0 230 133" fill="none" xmlns="http://www.w3.org/2000/svg">
<path d="M212.256 63L206.159 59.48L199.142 66.5138L193.6 63.3138L191.833 70.0535L196.448 72.7175L194.342 74.8277L196.559 76.1077L189.542 83.1415L195.639 86.6615L202.656 79.6277L200.439 78.3477L207.456 71.3138L205.239 70.0338L212.256 63Z" fill="#FFF96C"/>
<path d="M26.2638 56.9608L30.0291 50.5499L22.6561 43.0842L26.0792 37.2561L18.9755 35.3375L16.1259 40.1894L13.914 37.9497L12.5448 40.2809L5.17188 32.8152L1.40657 39.2261L8.7795 46.6918L10.1487 44.3606L17.5216 51.8263L18.8908 49.4951L26.2638 56.9608Z" fill="#FFF96C"/>
<path d="M48 30.3904L49.074 34.3986L54.9303 34.3916L55.9067 38.0355L59.452 35.9627L58.6392 32.9292L60.3961 32.9271L60.0055 31.4695L65.8618 31.4625L64.7878 27.4543L58.9315 27.4613L59.3221 28.9189L53.4658 28.9259L53.8563 30.3834L48 30.3904Z" fill="#FFF96C"/>
<path d="M44.6601 114.998L41.2896 116.456L42.0526 121.583L38.9886 122.909L41.2615 125.745L43.8123 124.641L44.0412 126.179L45.2668 125.649L46.0298 130.775L49.4002 129.317L48.6372 124.19L47.4116 124.721L46.6486 119.594L45.423 120.124L44.6601 114.998Z" fill="#FFF96C"/>
<path d="M135 29.1943L142.136 30.9101L147.071 21.8024L153.559 23.3621L153.331 16.1016L147.93 14.8031L149.411 12.0707L146.816 11.4468L151.75 2.33913L144.614 0.623381L139.679 9.73109L142.274 10.355L137.34 19.4627L139.935 20.0866L135 29.1943Z" fill="#FFF96C"/>
<path d="M13.7293 75.8112C12.3857 74.4708 12.2497 72.34 13.412 70.8396C14.7997 69.0484 17.4437 68.8796 19.0478 70.48L22.7104 74.1338C23.0544 74.477 23.6215 74.4408 23.9191 74.0566C24.2167 73.6725 24.7838 73.6363 25.1278 73.9795L31.1641 80.0013C31.5081 80.3445 32.0752 80.3083 32.3728 79.9242C32.6704 79.54 33.2375 79.5038 33.5815 79.847L38.0957 84.3504C39.4393 85.6908 39.5753 87.8216 38.4129 89.322C37.0252 91.1132 34.3813 91.282 32.7771 89.6816L29.1145 86.0278C28.7705 85.6846 28.2034 85.7208 27.9058 86.105C27.6082 86.4892 27.0412 86.5253 26.6971 86.1821L20.6608 80.1603C20.3168 79.8171 19.7497 79.8533 19.4521 80.2374C19.1545 80.6216 18.5874 80.6578 18.2434 80.3146L13.7293 75.8112Z" fill="#6CFFB0"/>
<path d="M98.1223 22.2233C98.8879 21.3686 100.17 21.2175 101.113 21.8705C102.24 22.6502 102.427 24.241 101.513 25.2613L99.4262 27.5909C99.2301 27.8098 99.2703 28.1509 99.5119 28.3182C99.7535 28.4854 99.7937 28.8266 99.5977 29.0454L96.1579 32.8848C95.9618 33.1037 96.0021 33.4448 96.2436 33.6121C96.4852 33.7793 96.5255 34.1205 96.3294 34.3393L93.757 37.2105C92.9913 38.0652 91.7093 38.2164 90.7659 37.5633C89.6394 36.7836 89.4519 35.1928 90.366 34.1725L92.4531 31.8429C92.6492 31.624 92.6089 31.2829 92.3674 31.1156C92.1258 30.9484 92.0855 30.6073 92.2816 30.3884L95.7214 26.549C95.9174 26.3302 95.8772 25.989 95.6356 25.8218C95.394 25.6545 95.3538 25.3134 95.5499 25.0945L98.1223 22.2233Z" fill="#6CFFB0"/>
<path d="M216.122 94.2233C216.888 93.3686 218.17 93.2175 219.113 93.8705C220.24 94.6502 220.427 96.241 219.513 97.2613L217.426 99.5909C217.23 99.8098 217.27 100.151 217.512 100.318C217.753 100.485 217.794 100.827 217.598 101.045L214.158 104.885C213.962 105.104 214.002 105.445 214.244 105.612C214.485 105.779 214.525 106.12 214.329 106.339L211.757 109.211C210.991 110.065 209.709 110.216 208.766 109.563C207.639 108.784 207.452 107.193 208.366 106.172L210.453 103.843C210.649 103.624 210.609 103.283 210.367 103.116C210.126 102.948 210.086 102.607 210.282 102.388L213.721 98.549C213.917 98.3302 213.877 97.989 213.636 97.8218C213.394 97.6545 213.354 97.3134 213.55 97.0945L216.122 94.2233Z" fill="#6CFFB0"/>
<path d="M176.609 30.5337C176.94 29.6282 177.894 29.1108 178.833 29.3263C179.955 29.5837 180.597 30.7664 180.202 31.8474L179.299 34.3156C179.215 34.5474 179.352 34.8011 179.593 34.8563C179.834 34.9115 179.971 35.1652 179.887 35.397L178.399 39.4647C178.314 39.6966 178.452 39.9503 178.693 40.0055C178.933 40.0607 179.071 40.3143 178.986 40.5462L177.874 43.5882C177.543 44.4936 176.589 45.0111 175.65 44.7955C174.528 44.5382 173.886 43.3554 174.281 42.2744L175.184 39.8063C175.268 39.5744 175.131 39.3208 174.89 39.2656C174.65 39.2104 174.512 38.9567 174.597 38.7248L176.084 34.6571C176.169 34.4253 176.031 34.1716 175.791 34.1164C175.55 34.0612 175.412 33.8075 175.497 33.5757L176.609 30.5337Z" fill="#6CFFB0"/>
<path d="M203.381 42.5819C201.552 42.8591 199.803 41.7321 199.3 39.9524C198.699 37.8277 200.098 35.6575 202.281 35.3265L207.265 34.5709C207.733 34.4999 208.033 34.0345 207.904 33.5788C207.776 33.1231 208.075 32.6576 208.544 32.5867L216.758 31.3413C217.227 31.2704 217.527 30.8049 217.398 30.3492C217.269 29.8935 217.569 29.4281 218.037 29.3571L224.18 28.4258C226.009 28.1486 227.758 29.2756 228.261 31.0553C228.862 33.18 227.463 35.3502 225.28 35.6811L220.296 36.4368C219.828 36.5077 219.528 36.9732 219.656 37.4289C219.785 37.8846 219.485 38.35 219.017 38.421L210.802 39.6663C210.334 39.7373 210.034 40.2027 210.163 40.6584C210.292 41.1141 209.992 41.5796 209.524 41.6506L203.381 42.5819Z" fill="#6CFFB0"/>
</svg>
