<svg width="200" height="200" viewBox="0 0 200 200" fill="none" xmlns="http://www.w3.org/2000/svg">
<g clip-path="url(#clip0_1037_1637)">
<path d="M77.1152 34.8573C80.4177 34.5173 82.846 36.4843 85.2177 38.5888C85.6224 38.9449 86.1161 39.2202 86.4723 39.6168C87.4436 40.7014 88.0183 39.8677 88.334 39.1311C89.532 36.3952 91.4989 34.315 94.0972 33.0603C96.6793 31.8057 99.5204 31.6843 102.337 32.5909C104.717 33.3598 107.081 34.1693 109.46 34.9463C111.039 35.4563 112.698 35.7881 114.179 36.6057C115.507 37.3342 116.591 36.549 117.765 36.0148C119.999 34.9868 122.249 34.404 124.799 35.2539C126.143 35.6991 127.454 36.1038 128.595 36.9214C131.906 39.2849 133.29 43.2835 132.133 47.1931C131.938 47.8406 132.181 48.1239 132.796 48.2535C135.84 48.8929 138.033 50.7465 139.636 53.2881C141.465 56.1859 141.449 59.2618 140.259 62.4348C139.903 63.3818 139.474 64.2398 138.908 65.0492C138.495 65.632 138.673 66.0449 139.377 66.2634C141.935 67.0728 143.861 68.6755 145.124 71.031C146.808 74.1878 146.719 77.4093 145.181 80.5823C144.841 81.2784 144.646 81.6993 145.472 82.1931C147.844 83.6096 149.406 85.8194 149.981 88.3934C150.402 90.3117 150.62 92.4648 149.641 94.4237C149.098 95.5245 149.6 96.3016 150.458 96.9329C154.101 99.6283 157.492 102.631 160.997 105.505C161.823 106.185 162.802 106.695 163.539 107.447C164.291 108.208 164.486 107.609 164.866 107.156C166.016 105.812 167.027 104.388 168.679 103.489C171.342 102.032 174.158 102.372 176.36 104.024C179.42 106.322 182.431 108.702 185.321 111.211C188.453 113.931 189.028 118.334 186.033 122.025C183.783 124.794 181.46 127.505 179.298 130.355C177.186 133.147 174.822 135.753 172.596 138.465C171.034 140.367 169.529 142.31 167.982 144.22C165.846 146.843 163.701 149.449 161.547 152.055C160.05 153.877 158.496 155.649 157.039 157.503C154.902 160.223 152.668 162.853 150.482 165.533C148.758 167.645 146.646 168.778 143.95 168.633C142.283 168.544 140.842 167.702 139.563 166.65C136.576 164.197 133.541 161.809 130.667 159.235C129.55 158.24 128.935 156.823 128.725 155.196C128.328 152.088 129.826 149.83 131.728 147.733C132.327 147.069 132.133 146.859 131.574 146.398C128.272 143.702 125.01 140.966 121.723 138.255C118.235 135.365 114.762 132.443 111.233 129.602C109.8 128.444 108.335 127.319 106.983 126.065C106.571 125.676 105.972 125.676 105.413 125.716C102.612 125.919 99.8766 125.255 97.0921 125.126C95.368 125.045 93.6196 124.608 91.855 124.462C90.9242 124.381 90.2766 124.761 89.5886 125.32C86.2699 128.015 82.8703 130.605 79.5921 133.349C76.5 135.932 73.2218 138.279 70.2269 140.982C69.3042 141.816 68.2681 142.601 67.1753 143.265C66.3173 143.791 66.3902 144.301 66.9811 144.989C68.4866 146.737 69.9598 148.51 71.4249 150.283C71.8377 150.785 71.8782 151.448 72.0239 152.055C72.8657 155.585 71.7972 158.369 68.9561 160.571C66.6573 162.343 64.5123 164.318 62.2135 166.091C60.457 167.451 58.6439 168.843 56.2156 168.641C54.281 168.479 52.5246 167.767 51.2376 166.31C49.2059 164.011 47.3199 161.574 45.4177 159.162C42.9085 155.989 40.2211 152.962 37.639 149.846C35.7935 147.62 34.0209 145.329 32.1915 143.095C27.0678 136.83 21.8955 130.614 16.8284 124.308C15.4605 122.6 13.7769 121.046 13.2346 118.755C12.498 115.663 13.445 113.162 15.8086 111.187C18.5606 108.888 21.3937 106.687 24.17 104.404C27.0759 102.016 30.6941 101.935 33.5109 104.299C34.118 104.809 34.5875 104.679 35.1379 104.21C38.6427 101.263 42.1638 98.3332 45.6767 95.4031C46.5266 94.6908 47.3037 93.8652 48.2427 93.3066C48.9792 92.8695 48.8012 92.4001 48.5502 91.9468C47.2066 89.5671 47.4737 86.9607 48.2022 84.6457C48.963 82.2093 50.6629 80.1371 53.164 78.9796C53.7792 78.6963 54.1677 78.4697 53.5202 77.4498C51.9984 75.0296 51.3509 72.2451 52.2251 69.3797C53.2369 66.0529 55.39 63.6246 58.6439 62.3619C59.599 61.9896 59.2672 61.4634 59.1134 61.0183C58.393 58.9218 58.5144 56.9063 59.1377 54.7694C60.0361 51.6612 62.3187 49.9614 64.8361 48.3992C64.8685 48.3749 64.9089 48.3587 64.9494 48.3506C65.6212 48.2211 66.5683 48.4073 66.8111 47.6788C67.0135 47.0636 66.6492 46.2784 66.6168 45.5661C66.4307 41.8103 68.0576 38.9288 70.9392 36.6542C72.6957 35.2701 74.7031 34.6711 77.099 34.8249M104.118 120.455C106.765 120.39 108.813 119.872 110.893 119.476C113.831 118.917 116.357 117.484 118.518 115.623C123.569 111.26 128.814 107.148 133.832 102.753C136.835 100.114 139.984 97.6371 143.068 95.0874C144.525 93.8813 145.351 90.9998 144.727 89.308C143.934 87.1549 142.072 85.9246 139.507 85.8194C138.349 85.7708 137.272 85.5118 136.876 84.2329C136.382 82.6464 136.665 81.8693 137.969 80.898C138.997 80.129 139.911 79.2872 140.454 78.0569C142.024 74.4549 139.838 71.5733 136.584 70.9419C135.581 70.7477 134.545 70.7962 133.549 70.4077C131.59 69.6387 130.498 67.3723 132.027 65.4782C132.877 64.426 133.622 63.2847 134.423 62.2C135.743 60.4355 136.253 58.339 135.297 56.453C133.703 53.3043 130.319 52.2602 127.268 54.5428C126.361 55.2227 125.212 55.1984 124.322 54.5428C122.759 53.3853 122.492 51.8393 124.273 50.188C125.795 48.7796 126.806 47.0231 127.155 44.9914C127.422 43.4535 126.531 41.7294 125.204 40.9847C123.245 39.8839 121.173 39.7301 119.36 41.2033C114.171 45.4204 109.088 49.7752 103.875 53.96C102.96 54.6966 103.22 55.4008 103.454 56.024C104.523 58.8328 104.215 61.5525 102.863 64.0941C100.969 67.6475 97.7477 69.2259 93.8301 69.5254C93.5144 69.5497 93.142 69.5092 93.1825 69.8897C93.2473 70.5291 92.7373 70.9743 92.7211 71.5733C92.6483 75.5395 88.1397 79.8134 84.4163 79.7891C83.5664 79.7891 83.2426 80.1614 83.2912 81.0275C83.3479 82.0393 83.4288 83.0997 83.1941 84.0548C82.3361 87.4868 80.1263 89.818 76.8562 91.0726C76.1034 91.3559 76.0468 91.6149 76.2006 92.2868C76.3544 92.9748 76.9776 93.4281 76.9371 94.2456C76.8562 95.8483 76.751 97.37 76.3543 98.9889C75.4559 102.623 71.0121 105.821 67.8067 105.885C66.4064 105.918 64.9656 105.991 63.6867 105.472C60.3032 104.113 57.9235 101.361 55.2038 99.086C54.3539 98.3737 53.5445 97.4833 52.5569 97.1029C51.6423 96.7548 51.2457 98.0985 50.4362 98.4223C50.1529 98.5356 49.9829 98.7784 49.7644 98.9646C48.1455 100.349 46.4943 101.7 44.8592 103.077C42.6899 104.898 40.5449 106.751 38.3513 108.548C37.8819 108.929 37.8009 109.083 38.238 109.601C40.6178 112.442 42.957 115.323 45.3044 118.189C47.5061 120.868 49.6511 123.596 51.8608 126.275C54.9772 130.039 57.9154 133.948 61.1774 137.591C62.9987 139.623 62.8692 139.614 64.917 138.117C69.207 134.993 73.2218 131.528 77.3661 128.226C80.96 125.36 84.5701 122.511 88.164 119.646C88.8197 119.12 89.6291 118.585 90.3495 118.852C90.9809 119.087 91.5556 119.087 92.1626 119.136C93.7167 119.257 95.3194 119.184 96.825 119.524C99.4152 120.107 102.086 119.808 104.134 120.455M135.548 142.634C135.848 142.715 135.977 142.609 136.075 142.464C136.423 141.897 136.989 141.509 137.362 140.982C139.337 138.238 141.587 135.721 143.707 133.099C145.844 130.46 148.022 127.861 150.167 125.223C153.453 121.176 156.723 117.112 160.026 113.081C160.519 112.474 160.738 112.142 159.961 111.519C155.323 107.796 150.725 104.032 146.16 100.219C145.715 99.8469 145.683 99.9764 145.351 100.26C143.529 101.814 141.7 103.368 139.806 104.825C137.038 106.962 134.391 109.244 131.704 111.47C128.725 113.931 125.762 116.432 122.832 118.958C120.323 121.119 117.684 123.07 114.43 124.017C113.742 124.219 113.475 124.64 114.244 125.215C117.789 127.861 121.116 130.784 124.548 133.568C128.037 136.401 131.509 139.258 134.933 142.172C135.152 142.358 135.403 142.52 135.556 142.634M66.8759 154.136C66.9568 153.521 66.7464 152.905 66.3497 152.412C64.8927 150.615 63.3872 148.85 61.914 147.069C60.368 145.208 58.8301 143.338 57.3002 141.468C55.6247 139.42 53.9654 137.364 52.2979 135.324C50.161 132.71 48.016 130.095 45.8791 127.481C44.2602 125.498 42.6575 123.491 41.0306 121.515C39.1608 119.241 37.2262 117.031 35.4212 114.716C33.8671 112.733 32.3291 110.742 30.6455 108.872C29.5852 107.707 28.711 107.577 27.5292 108.524C24.6962 110.79 21.9036 113.097 19.1272 115.429C18.2935 116.133 18.0021 117.153 18.7468 118.011C19.2891 118.634 19.7181 119.33 20.2605 119.953C21.8712 121.823 23.4011 123.758 24.9552 125.668C28.3953 129.901 31.8354 134.135 35.2674 138.368C37.4852 141.104 39.6707 143.856 41.9129 146.576C44.1064 149.239 46.47 151.772 48.5502 154.516C50.3957 156.953 52.4355 159.219 54.2729 161.655C55.8594 163.76 56.7255 163.728 58.7006 162.02C61.0398 159.996 63.4358 158.037 65.9045 156.184C66.6654 155.609 66.9082 155.026 66.892 154.136M134.108 154.37C133.881 154.969 134.383 155.479 134.836 155.852C137.564 158.134 140.324 160.385 143.109 162.602C144.42 163.647 145.132 163.582 146.257 162.222C149.479 158.321 152.652 154.387 155.841 150.461C158.69 146.964 161.572 143.492 164.429 140.003C166.558 137.413 168.614 134.766 170.743 132.168C172.936 129.497 175.178 126.858 177.372 124.195C178.958 122.268 180.488 120.293 182.083 118.375C182.925 117.355 182.973 116.465 182.01 115.55C179.226 112.887 176.069 110.669 173.106 108.216C172.515 107.731 171.795 107.893 171.099 108.216C170.378 108.548 170.208 109.269 169.771 109.795C167.489 112.515 165.182 115.218 162.94 117.97C160.35 121.151 157.873 124.438 155.242 127.586C152.093 131.35 148.977 135.13 145.933 138.983C142.663 143.127 139.223 147.126 135.896 151.222C135.168 152.12 134.083 152.849 134.108 154.37ZM77.18 40.1915C76.1358 40.2158 75.4235 40.2239 74.6626 40.6771C71.7729 42.4093 70.9554 45.7037 73.2056 48.0025C75.4721 50.3094 78.1189 52.2521 80.5958 54.3566C82.9189 56.3316 85.1853 58.3876 87.5731 60.2817C89.1434 61.5282 90.4547 63.1471 92.4459 63.827C94.421 64.4988 96.9464 63.6489 97.9744 61.9491C99.1319 60.0388 98.8405 57.5458 97.3511 55.9998C95.6513 54.2352 93.6682 52.8025 91.7984 51.2484C88.2207 48.2777 84.7401 45.1857 81.1705 42.207C79.9482 41.1871 78.7988 39.8839 77.18 40.1915ZM87.4517 69.5497C87.5893 68.4893 87.2979 67.2671 86.2699 66.49C85.501 65.9153 84.8453 65.2273 84.1168 64.6283C80.2963 61.4958 76.581 58.2419 72.8009 55.0608C70.0731 52.762 67.5639 52.673 65.2489 54.7289C64.059 55.7812 63.7595 59.8931 64.8927 60.9697C66.3093 62.3215 67.8472 63.5518 69.3365 64.8226C71.6111 66.7572 73.8937 68.6755 76.1763 70.602C77.6171 71.8161 78.8879 73.435 80.5391 74.1311C83.7121 75.4667 87.6379 74.1068 87.4436 69.5497M78.0623 81.416C78.2727 80.0967 77.6575 78.9149 76.6377 77.9921C74.9217 76.4461 73.068 75.0458 71.352 73.4998C69.7332 72.0428 68.0172 70.6991 66.374 69.2664C64.1723 67.34 62.7963 66.3443 59.9471 67.6637C57.9559 68.5865 56.3856 71.8809 57.8911 74.2606C58.7977 75.6933 60.0847 76.5918 61.2665 77.6522C63.7514 79.8619 66.3173 81.9907 68.8671 84.1357C69.9841 85.0828 71.0525 86.1836 72.5743 86.4103C75.2454 86.8069 78.3132 84.6538 78.0623 81.4322M71.6353 95.7026C71.6839 94.2942 70.9878 93.0476 69.8951 92.0277C67.3939 89.6966 64.6904 87.6001 62.1245 85.3499C60.5623 83.9819 58.9272 82.3955 56.3046 83.5368C54.8881 84.1519 53.852 84.9614 53.4068 86.2807C52.7998 88.0777 52.8402 89.907 54.4025 91.3316C56.5313 93.2662 58.6358 95.225 60.8456 97.0705C62.1973 98.1956 63.3629 99.7417 65.0061 100.3C68.26 101.417 71.3925 99.5474 71.6353 95.6945M110.974 41.1709C107.21 39.9082 103.729 38.6778 100.208 37.5851C98.9133 37.1885 97.5697 37.2613 96.3069 38.0303C94.5343 39.1068 93.4901 40.7176 92.5431 42.5065C91.7822 43.9473 92.3245 44.7 93.4011 45.558C95.1899 46.9826 96.8735 48.5368 98.6138 50.018C99.3018 50.6008 99.9332 50.4875 100.605 49.8723C101.665 48.8929 102.799 47.9944 103.908 47.0636C106.198 45.1533 108.481 43.243 110.966 41.179" fill="#00FF85"/>
</g>
<defs>
<clipPath id="clip0_1037_1637">
<rect width="175" height="136.681" fill="white" transform="translate(13 32)"/>
</clipPath>
</defs>
</svg>
