<svg width="391" height="148" viewBox="0 0 391 148" fill="none" xmlns="http://www.w3.org/2000/svg">
<g filter="url(#filter0_bd_208_477)">
<g clip-path="url(#clip0_208_477)">
<rect x="24" y="52" width="343" height="66" rx="33" fill="url(#paint0_linear_208_477)" shape-rendering="crispEdges"/>
<g opacity="0.3" filter="url(#filter1_f_208_477)">
<ellipse cx="72" cy="75.5" rx="49" ry="51.5" fill="#82FF96"/>
</g>
<g opacity="0.3" filter="url(#filter2_f_208_477)">
<ellipse cx="265.5" cy="97.5" rx="132.5" ry="74.5" fill="#7CFFFF"/>
</g>
<g filter="url(#filter3_b_208_477)">
<path fill-rule="evenodd" clip-rule="evenodd" d="M98.8333 79.1414C100.685 77.3265 101.833 74.7974 101.833 72C101.833 66.4772 97.3562 62 91.8333 62C86.3105 62 81.8333 66.4772 81.8333 72C81.8333 74.7974 82.982 77.3265 84.8333 79.1414V88.0568C84.8333 88.8702 85.7527 89.3433 86.4146 88.8705L91.2521 85.4152C91.5998 85.1668 92.0669 85.1668 92.4146 85.4152L97.2521 88.8705C97.914 89.3433 98.8333 88.8702 98.8333 88.0568V79.1414Z" fill="#232B3E"/>
</g>
<circle cx="91.8333" cy="72" r="7" fill="url(#paint1_linear_208_477)"/>
<path d="M62.5709 105.132C61.9469 105.132 61.3669 105.024 60.8309 104.808C60.2949 104.584 59.8229 104.276 59.4149 103.884C59.0149 103.492 58.7029 103.032 58.4789 102.504C58.2549 101.976 58.1429 101.408 58.1429 100.8C58.1429 100.184 58.2549 99.616 58.4789 99.096C58.7029 98.568 59.0149 98.108 59.4149 97.716C59.8229 97.324 60.2949 97.02 60.8309 96.804C61.3669 96.58 61.9469 96.468 62.5709 96.468C63.0189 96.468 63.4549 96.536 63.8789 96.672C64.3109 96.8 64.7069 96.988 65.0669 97.236C65.4349 97.476 65.7389 97.764 65.9789 98.1L64.5869 99.42C64.3149 99.044 64.0109 98.764 63.6749 98.58C63.3389 98.396 62.9709 98.304 62.5709 98.304C62.2429 98.304 61.9389 98.368 61.6589 98.496C61.3869 98.616 61.1469 98.792 60.9389 99.024C60.7309 99.248 60.5669 99.512 60.4469 99.816C60.3349 100.112 60.2789 100.44 60.2789 100.8C60.2789 101.16 60.3349 101.492 60.4469 101.796C60.5669 102.092 60.7309 102.356 60.9389 102.588C61.1469 102.812 61.3869 102.988 61.6589 103.116C61.9389 103.236 62.2429 103.296 62.5709 103.296C62.9709 103.296 63.3389 103.204 63.6749 103.02C64.0109 102.828 64.3149 102.548 64.5869 102.18L65.9789 103.5C65.7389 103.828 65.4349 104.116 65.0669 104.364C64.7069 104.612 64.3109 104.804 63.8789 104.94C63.4549 105.068 63.0189 105.132 62.5709 105.132ZM66.9956 105V98.808H68.9396V100.212C69.1396 99.692 69.3756 99.308 69.6476 99.06C69.9276 98.812 70.2516 98.688 70.6196 98.688C70.7556 98.696 70.8676 98.708 70.9556 98.724C71.0436 98.74 71.1476 98.78 71.2676 98.844V100.512C71.1476 100.448 71.0076 100.4 70.8476 100.368C70.6876 100.336 70.5236 100.32 70.3556 100.32C70.0676 100.32 69.7996 100.392 69.5516 100.536C69.3036 100.672 69.0996 100.856 68.9396 101.088V105H66.9956ZM75.1047 105.12C74.4967 105.12 73.9447 104.98 73.4487 104.7C72.9607 104.412 72.5687 104.028 72.2727 103.548C71.9847 103.06 71.8407 102.516 71.8407 101.916C71.8407 101.308 71.9767 100.764 72.2487 100.284C72.5207 99.804 72.8927 99.424 73.3647 99.144C73.8367 98.856 74.3687 98.712 74.9607 98.712C75.5607 98.712 76.0887 98.852 76.5447 99.132C77.0007 99.412 77.3567 99.8 77.6127 100.296C77.8767 100.784 78.0087 101.348 78.0087 101.988V102.408H73.7487C73.8127 102.64 73.9127 102.844 74.0487 103.02C74.1847 103.196 74.3527 103.332 74.5527 103.428C74.7527 103.524 74.9687 103.572 75.2007 103.572C75.4567 103.572 75.6887 103.528 75.8967 103.44C76.1127 103.352 76.2887 103.224 76.4247 103.056L77.7087 104.124C77.3087 104.476 76.9047 104.732 76.4967 104.892C76.0887 105.044 75.6247 105.12 75.1047 105.12ZM73.7487 101.304H76.2087C76.1527 101.08 76.0647 100.888 75.9447 100.728C75.8247 100.568 75.6807 100.444 75.5127 100.356C75.3447 100.268 75.1567 100.224 74.9487 100.224C74.7487 100.224 74.5647 100.268 74.3967 100.356C74.2367 100.436 74.1007 100.556 73.9887 100.716C73.8847 100.876 73.8047 101.072 73.7487 101.304ZM81.7368 105.036C81.2328 105.036 80.7728 104.896 80.3568 104.616C79.9408 104.328 79.6088 103.948 79.3608 103.476C79.1208 102.996 79.0008 102.468 79.0008 101.892C79.0008 101.308 79.1288 100.784 79.3848 100.32C79.6408 99.848 79.9848 99.472 80.4168 99.192C80.8568 98.912 81.3448 98.772 81.8808 98.772C82.2088 98.772 82.5128 98.836 82.7928 98.964C83.0808 99.092 83.3288 99.276 83.5368 99.516V96.456L85.4808 96.156V105H83.5608V104.196C83.3608 104.452 83.0968 104.656 82.7688 104.808C82.4488 104.96 82.1048 105.036 81.7368 105.036ZM82.3848 103.428C82.6168 103.428 82.8288 103.388 83.0208 103.308C83.2128 103.22 83.3848 103.096 83.5368 102.936V100.848C83.3848 100.688 83.2088 100.568 83.0088 100.488C82.8168 100.408 82.6088 100.368 82.3848 100.368C82.1048 100.368 81.8528 100.436 81.6288 100.572C81.4048 100.7 81.2288 100.88 81.1008 101.112C80.9728 101.344 80.9088 101.608 80.9088 101.904C80.9088 102.192 80.9728 102.452 81.1008 102.684C81.2288 102.916 81.4048 103.1 81.6288 103.236C81.8528 103.364 82.1048 103.428 82.3848 103.428ZM89.9758 105.12C89.3678 105.12 88.8158 104.98 88.3198 104.7C87.8318 104.412 87.4398 104.028 87.1438 103.548C86.8558 103.06 86.7118 102.516 86.7118 101.916C86.7118 101.308 86.8478 100.764 87.1198 100.284C87.3918 99.804 87.7638 99.424 88.2358 99.144C88.7078 98.856 89.2398 98.712 89.8318 98.712C90.4318 98.712 90.9598 98.852 91.4158 99.132C91.8718 99.412 92.2278 99.8 92.4838 100.296C92.7478 100.784 92.8798 101.348 92.8798 101.988V102.408H88.6198C88.6838 102.64 88.7838 102.844 88.9198 103.02C89.0558 103.196 89.2238 103.332 89.4238 103.428C89.6238 103.524 89.8398 103.572 90.0718 103.572C90.3278 103.572 90.5598 103.528 90.7678 103.44C90.9838 103.352 91.1598 103.224 91.2958 103.056L92.5798 104.124C92.1798 104.476 91.7758 104.732 91.3678 104.892C90.9598 105.044 90.4958 105.12 89.9758 105.12ZM88.6198 101.304H91.0798C91.0238 101.08 90.9358 100.888 90.8158 100.728C90.6958 100.568 90.5518 100.444 90.3838 100.356C90.2158 100.268 90.0278 100.224 89.8198 100.224C89.6198 100.224 89.4358 100.268 89.2678 100.356C89.1078 100.436 88.9718 100.556 88.8598 100.716C88.7558 100.876 88.6758 101.072 88.6198 101.304ZM94.0893 105V98.808H96.0333V99.816C96.2733 99.456 96.5573 99.184 96.8853 99C97.2213 98.808 97.5893 98.712 97.9893 98.712C98.3893 98.712 98.7413 98.804 99.0453 98.988C99.3573 99.164 99.6013 99.412 99.7773 99.732C99.9533 100.044 100.041 100.408 100.041 100.824V105H98.0973V101.388C98.0973 101.036 98.0013 100.756 97.8093 100.548C97.6253 100.34 97.3773 100.236 97.0653 100.236C96.8573 100.236 96.6653 100.28 96.4893 100.368C96.3213 100.448 96.1693 100.576 96.0333 100.752V105H94.0893ZM104.368 105.12C103.64 105.12 103.088 104.952 102.712 104.616C102.336 104.28 102.148 103.784 102.148 103.128V100.308H100.948V98.808H102.148V97.092L104.092 96.696V98.808H105.748V100.308H104.092V102.744C104.092 103.016 104.152 103.208 104.272 103.32C104.4 103.432 104.612 103.488 104.908 103.488C105.02 103.488 105.132 103.48 105.244 103.464C105.356 103.448 105.508 103.412 105.7 103.356V104.928C105.524 104.984 105.308 105.028 105.052 105.06C104.796 105.1 104.568 105.12 104.368 105.12ZM106.828 105V98.808H108.772V105H106.828ZM107.8 97.86C107.504 97.86 107.248 97.752 107.032 97.536C106.816 97.32 106.708 97.064 106.708 96.768C106.708 96.464 106.816 96.208 107.032 96C107.248 95.784 107.504 95.676 107.8 95.676C108.104 95.676 108.36 95.784 108.568 96C108.784 96.208 108.892 96.464 108.892 96.768C108.892 97.064 108.784 97.32 108.568 97.536C108.36 97.752 108.104 97.86 107.8 97.86ZM112.133 105.096C111.717 105.096 111.345 105.016 111.017 104.856C110.697 104.696 110.445 104.476 110.261 104.196C110.085 103.916 109.997 103.592 109.997 103.224C109.997 102.84 110.093 102.516 110.285 102.252C110.477 101.98 110.753 101.776 111.113 101.64C111.473 101.496 111.905 101.424 112.409 101.424C112.633 101.424 112.861 101.448 113.093 101.496C113.325 101.536 113.577 101.608 113.849 101.712V101.208C113.849 100.904 113.749 100.68 113.549 100.536C113.349 100.384 113.041 100.308 112.625 100.308C112.393 100.308 112.133 100.344 111.845 100.416C111.565 100.48 111.245 100.588 110.885 100.74L110.213 99.384C111.213 98.936 112.161 98.712 113.057 98.712C113.913 98.712 114.577 98.916 115.049 99.324C115.529 99.732 115.769 100.304 115.769 101.04V105H113.849V104.46C113.577 104.684 113.305 104.848 113.033 104.952C112.761 105.048 112.461 105.096 112.133 105.096ZM111.785 103.188C111.785 103.388 111.869 103.544 112.037 103.656C112.205 103.76 112.437 103.812 112.733 103.812C112.941 103.812 113.137 103.788 113.321 103.74C113.505 103.684 113.681 103.604 113.849 103.5V102.708C113.673 102.668 113.497 102.636 113.321 102.612C113.145 102.588 112.965 102.576 112.781 102.576C112.461 102.576 112.213 102.628 112.037 102.732C111.869 102.836 111.785 102.988 111.785 103.188ZM117.234 105V96.456L119.178 96.156V105H117.234ZM123.031 105.12C122.471 105.12 121.947 105.056 121.459 104.928C120.971 104.8 120.547 104.612 120.187 104.364L121.039 103.068C121.487 103.3 121.855 103.464 122.143 103.56C122.439 103.648 122.735 103.692 123.031 103.692C123.311 103.692 123.527 103.648 123.679 103.56C123.839 103.464 123.919 103.34 123.919 103.188C123.919 103.068 123.871 102.972 123.775 102.9C123.687 102.828 123.543 102.776 123.343 102.744L122.155 102.528C121.555 102.416 121.099 102.208 120.787 101.904C120.483 101.6 120.331 101.208 120.331 100.728C120.331 100.304 120.435 99.944 120.643 99.648C120.851 99.344 121.147 99.112 121.531 98.952C121.923 98.792 122.387 98.712 122.923 98.712C123.355 98.712 123.783 98.772 124.207 98.892C124.631 99.012 125.043 99.188 125.443 99.42L124.555 100.656C124.243 100.472 123.939 100.34 123.643 100.26C123.355 100.172 123.067 100.128 122.779 100.128C122.547 100.128 122.363 100.164 122.227 100.236C122.099 100.308 122.035 100.412 122.035 100.548C122.035 100.676 122.079 100.772 122.167 100.836C122.263 100.9 122.431 100.952 122.671 100.992L123.835 101.208C124.451 101.32 124.915 101.528 125.227 101.832C125.539 102.136 125.695 102.524 125.695 102.996C125.695 103.396 125.579 103.76 125.347 104.088C125.115 104.408 124.799 104.66 124.399 104.844C123.999 105.028 123.543 105.12 123.031 105.12Z" fill="#232B3E"/>
<g opacity="0.3">
<path d="M299.167 88C289.083 84.3333 288.743 73.9674 289.138 65.3114C289.178 64.4358 290.3 64.0037 291.056 64.4486C293.433 65.8492 296.134 65.6062 298.4 63.7196C298.839 63.3537 299.494 63.3537 299.933 63.7196C302.2 65.6062 304.9 65.8492 307.278 64.4486C308.033 64.0037 309.155 64.4358 309.195 65.3114C309.59 73.9674 309.25 84.3333 299.167 88Z" fill="#232B3E"/>
<path d="M295.167 76L298.167 79L304.167 73" stroke="#B4B4B4" stroke-width="3" stroke-linecap="round" stroke-linejoin="round"/>
</g>
<path opacity="0.6" d="M284.126 105L280.898 96.6H283.13L285.35 102.852L287.606 96.6H289.754L286.478 105H284.126ZM292.692 105.12C292.084 105.12 291.532 104.98 291.036 104.7C290.548 104.412 290.156 104.028 289.86 103.548C289.572 103.06 289.428 102.516 289.428 101.916C289.428 101.308 289.564 100.764 289.836 100.284C290.108 99.804 290.48 99.424 290.952 99.144C291.424 98.856 291.956 98.712 292.548 98.712C293.148 98.712 293.676 98.852 294.132 99.132C294.588 99.412 294.944 99.8 295.2 100.296C295.464 100.784 295.596 101.348 295.596 101.988V102.408H291.336C291.4 102.64 291.5 102.844 291.636 103.02C291.772 103.196 291.94 103.332 292.14 103.428C292.34 103.524 292.556 103.572 292.788 103.572C293.044 103.572 293.276 103.528 293.484 103.44C293.7 103.352 293.876 103.224 294.012 103.056L295.296 104.124C294.896 104.476 294.492 104.732 294.084 104.892C293.676 105.044 293.212 105.12 292.692 105.12ZM291.336 101.304H293.796C293.74 101.08 293.652 100.888 293.532 100.728C293.412 100.568 293.268 100.444 293.1 100.356C292.932 100.268 292.744 100.224 292.536 100.224C292.336 100.224 292.152 100.268 291.984 100.356C291.824 100.436 291.688 100.556 291.576 100.716C291.472 100.876 291.392 101.072 291.336 101.304ZM296.805 105V98.808H298.749V100.212C298.949 99.692 299.185 99.308 299.457 99.06C299.737 98.812 300.061 98.688 300.429 98.688C300.565 98.696 300.677 98.708 300.765 98.724C300.853 98.74 300.957 98.78 301.077 98.844V100.512C300.957 100.448 300.817 100.4 300.657 100.368C300.497 100.336 300.333 100.32 300.165 100.32C299.877 100.32 299.609 100.392 299.361 100.536C299.113 100.672 298.909 100.856 298.749 101.088V105H296.805ZM302.114 105V98.808H304.058V105H302.114ZM303.086 97.86C302.79 97.86 302.534 97.752 302.318 97.536C302.102 97.32 301.994 97.064 301.994 96.768C301.994 96.464 302.102 96.208 302.318 96C302.534 95.784 302.79 95.676 303.086 95.676C303.39 95.676 303.646 95.784 303.854 96C304.07 96.208 304.178 96.464 304.178 96.768C304.178 97.064 304.07 97.32 303.854 97.536C303.646 97.752 303.39 97.86 303.086 97.86ZM306.483 105V100.308H305.199V98.808H306.483V97.992C306.483 97.256 306.695 96.692 307.119 96.3C307.543 95.908 308.155 95.712 308.955 95.712C309.123 95.712 309.303 95.724 309.495 95.748C309.695 95.764 309.859 95.792 309.987 95.832V97.428C309.811 97.396 309.671 97.376 309.567 97.368C309.463 97.36 309.355 97.356 309.243 97.356C308.971 97.356 308.767 97.412 308.631 97.524C308.495 97.628 308.427 97.796 308.427 98.028V98.808H309.987V100.308H308.427V105H306.483ZM311.88 107.628C311.624 107.628 311.356 107.596 311.076 107.532V105.9C311.148 105.908 311.232 105.916 311.328 105.924C311.432 105.94 311.54 105.948 311.652 105.948C311.916 105.948 312.124 105.892 312.276 105.78C312.436 105.676 312.564 105.524 312.66 105.324L312.756 105.12L310.476 98.808H312.624L313.86 102.804L315.276 98.808H317.376L314.592 105.696C314.4 106.168 314.184 106.544 313.944 106.824C313.712 107.112 313.428 107.316 313.092 107.436C312.764 107.564 312.36 107.628 311.88 107.628Z" fill="#232B3E"/>
</g>
<rect x="25" y="53" width="341" height="64" rx="32" stroke="url(#paint2_linear_208_477)" stroke-opacity="0.4" stroke-width="2" shape-rendering="crispEdges"/>
</g>
<g filter="url(#filter4_d_208_477)">
<rect x="165" y="44" width="60" height="60" rx="8" fill="url(#paint3_linear_208_477)"/>
<path d="M190.5 83H186V78.5M199.5 83H204V78.5" stroke="#232B3E" stroke-width="3" stroke-linecap="round" stroke-linejoin="round"/>
<path d="M190.5 65H186V69.5M199.5 65H204V69.5" stroke="#232B3E" stroke-width="3" stroke-linecap="round" stroke-linejoin="round"/>
<path d="M182 74H208" stroke="#232B3E" stroke-width="3" stroke-linecap="round"/>
</g>
<defs>
<filter id="filter0_bd_208_477" x="0" y="28" width="391" height="114" filterUnits="userSpaceOnUse" color-interpolation-filters="sRGB">
<feFlood flood-opacity="0" result="BackgroundImageFix"/>
<feGaussianBlur in="BackgroundImageFix" stdDeviation="10"/>
<feComposite in2="SourceAlpha" operator="in" result="effect1_backgroundBlur_208_477"/>
<feColorMatrix in="SourceAlpha" type="matrix" values="0 0 0 0 0 0 0 0 0 0 0 0 0 0 0 0 0 0 127 0" result="hardAlpha"/>
<feOffset/>
<feGaussianBlur stdDeviation="12"/>
<feComposite in2="hardAlpha" operator="out"/>
<feColorMatrix type="matrix" values="0 0 0 0 0.4875 0 0 0 0 1 0 0 0 0 1 0 0 0 0.3 0"/>
<feBlend mode="normal" in2="effect1_backgroundBlur_208_477" result="effect2_dropShadow_208_477"/>
<feBlend mode="normal" in="SourceGraphic" in2="effect2_dropShadow_208_477" result="shape"/>
</filter>
<filter id="filter1_f_208_477" x="-87" y="-86" width="318" height="323" filterUnits="userSpaceOnUse" color-interpolation-filters="sRGB">
<feFlood flood-opacity="0" result="BackgroundImageFix"/>
<feBlend mode="normal" in="SourceGraphic" in2="BackgroundImageFix" result="shape"/>
<feGaussianBlur stdDeviation="55" result="effect1_foregroundBlur_208_477"/>
</filter>
<filter id="filter2_f_208_477" x="13" y="-97" width="505" height="389" filterUnits="userSpaceOnUse" color-interpolation-filters="sRGB">
<feFlood flood-opacity="0" result="BackgroundImageFix"/>
<feBlend mode="normal" in="SourceGraphic" in2="BackgroundImageFix" result="shape"/>
<feGaussianBlur stdDeviation="60" result="effect1_foregroundBlur_208_477"/>
</filter>
<filter id="filter3_b_208_477" x="80.8333" y="61" width="22" height="29.0586" filterUnits="userSpaceOnUse" color-interpolation-filters="sRGB">
<feFlood flood-opacity="0" result="BackgroundImageFix"/>
<feGaussianBlur in="BackgroundImageFix" stdDeviation="0.5"/>
<feComposite in2="SourceAlpha" operator="in" result="effect1_backgroundBlur_208_477"/>
<feBlend mode="normal" in="SourceGraphic" in2="effect1_backgroundBlur_208_477" result="shape"/>
</filter>
<filter id="filter4_d_208_477" x="121" y="0" width="148" height="148" filterUnits="userSpaceOnUse" color-interpolation-filters="sRGB">
<feFlood flood-opacity="0" result="BackgroundImageFix"/>
<feColorMatrix in="SourceAlpha" type="matrix" values="0 0 0 0 0 0 0 0 0 0 0 0 0 0 0 0 0 0 127 0" result="hardAlpha"/>
<feOffset/>
<feGaussianBlur stdDeviation="22"/>
<feComposite in2="hardAlpha" operator="out"/>
<feColorMatrix type="matrix" values="0 0 0 0 0.4875 0 0 0 0 1 0 0 0 0 1 0 0 0 0.3 0"/>
<feBlend mode="normal" in2="BackgroundImageFix" result="effect1_dropShadow_208_477"/>
<feBlend mode="normal" in="SourceGraphic" in2="effect1_dropShadow_208_477" result="shape"/>
</filter>
<linearGradient id="paint0_linear_208_477" x1="24" y1="52" x2="357.207" y2="150.97" gradientUnits="userSpaceOnUse">
<stop stop-color="white" stop-opacity="0.7"/>
<stop offset="1" stop-color="white" stop-opacity="0.6"/>
</linearGradient>
<linearGradient id="paint1_linear_208_477" x1="83.2332" y1="62" x2="109.233" y2="92.5" gradientUnits="userSpaceOnUse">
<stop stop-color="#7CFFFF"/>
<stop offset="1" stop-color="#82FF96"/>
</linearGradient>
<linearGradient id="paint2_linear_208_477" x1="367" y1="118" x2="33.7929" y2="19.0299" gradientUnits="userSpaceOnUse">
<stop stop-color="#7CFFFF"/>
<stop offset="1" stop-color="#82FF96"/>
</linearGradient>
<linearGradient id="paint3_linear_208_477" x1="229.375" y1="104" x2="125" y2="15.25" gradientUnits="userSpaceOnUse">
<stop stop-color="#7CFFFF"/>
<stop offset="1" stop-color="#82FF96"/>
</linearGradient>
<clipPath id="clip0_208_477">
<rect x="24" y="52" width="343" height="66" rx="33" fill="white"/>
</clipPath>
</defs>
</svg>
