<svg width="414" height="220" viewBox="0 0 414 220" fill="none" xmlns="http://www.w3.org/2000/svg">
<g clip-path="url(#clip0_994_1105)">
<rect width="414" height="220" fill="#122216"/>
<path d="M-2.4 218.2L7.2 214.6L40.2 134.8H43.8L78 216.4L84 218.2V220H69.6C65.44 220 62.04 219.08 59.4 217.24C56.76 215.32 54.8 212.84 53.52 209.8L47.4 195.4H18.72L10.8 214.6L19.8 218.2V220H-2.4V218.2ZM19.92 192.4H46.2L33 160.84L19.92 192.4ZM109.763 221.8C102.643 221.8 97.1625 220.28 93.3225 217.24C89.4825 214.2 87.5625 210.32 87.5625 205.6C87.5625 202.48 88.2425 199.4 89.6025 196.36C90.1625 194.92 90.8825 193.6 91.7625 192.4C95.0425 191.6 98.6025 190.88 102.443 190.24C111.083 188.8 118.723 187.92 125.363 187.6V184C125.363 175.12 124.283 169 122.123 165.64C119.963 162.28 116.643 160.6 112.163 160.6C110.483 160.6 109.043 160.8 107.843 161.2L106.163 161.8V179.8L104.603 180.16C103.323 180.32 102.243 180.4 101.363 180.4C98.6425 180.4 96.4425 179.6 94.7625 178C93.1625 176.32 92.3625 174.12 92.3625 171.4C92.3625 167.72 94.2025 164.6 97.8825 162.04C101.643 159.48 107.203 158.2 114.563 158.2C120.803 158.2 126.163 159.32 130.643 161.56C135.203 163.72 138.643 166.76 140.963 170.68C143.363 174.52 144.563 178.96 144.563 184V216.4L151.763 218.2V220H140.963C136.163 220 132.443 218.52 129.803 215.56C128.683 214.36 127.803 212.84 127.163 211C126.043 213 124.723 214.8 123.203 216.4C119.603 220 115.123 221.8 109.763 221.8ZM114.563 217.6C117.523 217.6 120.203 216 122.603 212.8C123.483 211.6 124.403 210 125.363 208V190.6C121.683 190.6 118.163 190.8 114.803 191.2C112.323 191.52 110.643 191.72 109.763 191.8C109.363 192.68 108.963 193.88 108.563 195.4C107.763 198.44 107.363 201.44 107.363 204.4C107.363 208.88 108.043 212.2 109.403 214.36C110.763 216.52 112.483 217.6 114.563 217.6ZM160.219 218.2L167.419 216.4V139.6L160.219 137.8V136H192.619C204.779 136 213.699 137.96 219.379 141.88C225.139 145.72 228.019 150.76 228.019 157C228.019 161.32 226.779 164.8 224.299 167.44C221.819 170.08 218.659 172.04 214.819 173.32C210.739 174.76 206.339 175.52 201.619 175.6V176.2C207.459 176.44 212.539 177.32 216.859 178.84C221.259 180.28 224.899 182.52 227.779 185.56C230.739 188.6 232.219 192.48 232.219 197.2C232.219 204.32 229.299 209.92 223.459 214C217.619 218 208.139 220 195.019 220H160.219V218.2ZM192.619 174.4C195.259 174.4 197.699 173.68 199.939 172.24C202.259 170.72 204.099 168.64 205.459 166C206.899 163.28 207.619 160.28 207.619 157C207.619 153.48 206.899 150.36 205.459 147.64C204.099 144.92 202.259 142.8 199.939 141.28C197.699 139.76 195.259 139 192.619 139H187.219V174.4H192.619ZM195.019 217C199.979 217 204.019 215.24 207.139 211.72C210.259 208.2 211.819 203.36 211.819 197.2C211.819 191.04 210.259 186.2 207.139 182.68C204.019 179.16 199.979 177.4 195.019 177.4H187.219V217H195.019ZM280.181 221.8C274.821 221.8 270.341 220 266.741 216.4C265.221 214.8 263.901 213 262.781 211C262.221 212.76 261.261 214.36 259.901 215.8C256.861 219 252.421 220.6 246.581 220.6H245.381V139.6L238.181 137.8V136H253.781C260.981 136 264.581 139.6 264.581 146.8V163C265.861 161.96 267.101 161.16 268.301 160.6C271.181 159 274.541 158.2 278.381 158.2C286.461 158.2 292.861 160.96 297.581 166.48C302.381 171.92 304.781 179.76 304.781 190C304.781 196.8 303.701 202.6 301.541 207.4C299.381 212.12 296.461 215.72 292.781 218.2C289.101 220.6 284.901 221.8 280.181 221.8ZM275.381 217.6C277.941 217.6 280.061 215.6 281.741 211.6C283.501 207.52 284.381 200.32 284.381 190C284.381 179.2 283.421 171.8 281.501 167.8C279.661 163.8 277.021 161.8 273.581 161.8C271.501 161.8 269.381 162.6 267.221 164.2C266.581 164.68 265.701 165.48 264.581 166.6V208C265.301 209.84 266.181 211.44 267.221 212.8C269.621 216 272.341 217.6 275.381 217.6Z" fill="#00FF85"/>
<path d="M8.4 110V108.2L16.8 105.8V39.92L4.2 48.8L1.8 45.8L23.64 26H36.6V105.8L45 108.2V110H8.4ZM53.4047 104.6C53.4047 99.88 54.3247 95.6 56.1647 91.76C58.0847 87.84 60.4047 84.44 63.1247 81.56C65.8447 78.68 69.4047 75.28 73.8047 71.36C77.8847 67.76 81.0847 64.76 83.4047 62.36C85.7247 59.88 87.6847 57.12 89.2847 54.08C90.8847 50.96 91.6847 47.6 91.6847 44C91.6847 38.72 90.4047 34.6 87.8447 31.64C85.2847 28.68 81.9647 27.2 77.8847 27.2C75.5647 27.2 73.2047 27.52 70.8047 28.16L68.2847 29V48.2L66.7247 48.56C65.4447 48.72 64.3647 48.8 63.4847 48.8C60.7647 48.8 58.5647 48 56.8847 46.4C55.2847 44.72 54.4847 42.52 54.4847 39.8C54.4847 37.24 55.4447 34.76 57.3647 32.36C59.3647 29.96 62.2847 28 66.1247 26.48C70.0447 24.96 74.7647 24.2 80.2847 24.2C91.0847 24.2 99.0847 26.36 104.285 30.68C109.485 35 112.085 41.04 112.085 48.8C112.085 53.68 110.805 57.88 108.245 61.4C105.765 64.92 102.685 67.84 99.0047 70.16C95.4047 72.48 90.5647 75.12 84.4847 78.08C79.3647 80.56 75.2047 82.76 72.0047 84.68C68.8847 86.52 65.9647 88.76 63.2447 91.4C60.6047 94.04 58.7247 97.04 57.6047 100.4H102.005C102.565 96.08 103.925 92.48 106.085 89.6C106.965 88.24 108.005 87.04 109.205 86H112.805V110H53.4047V104.6ZM147.628 111.8C142.108 111.8 137.388 111.04 133.468 109.52C129.628 108 126.708 106.04 124.708 103.64C122.788 101.24 121.828 98.76 121.828 96.2C121.828 93.48 122.628 91.32 124.228 89.72C125.908 88.04 128.108 87.2 130.828 87.2C131.468 87.2 132.108 87.28 132.748 87.44C133.388 87.52 133.828 87.56 134.068 87.56L135.628 87.8V107C135.708 107 136.548 107.32 138.148 107.96C140.228 108.52 142.588 108.8 145.228 108.8C150.828 108.8 155.108 107.12 158.068 103.76C161.108 100.32 162.628 95.2 162.628 88.4C162.628 81.44 161.148 76.2 158.188 72.68C155.308 69.16 151.388 67.4 146.428 67.4H140.428V64.4H146.428C150.028 64.4 153.028 62.8 155.428 59.6C157.828 56.4 159.028 51.8 159.028 45.8C159.028 39.8 157.788 35.2 155.308 32C152.828 28.8 149.668 27.2 145.828 27.2C143.748 27.2 141.748 27.52 139.828 28.16C139.588 28.24 138.788 28.52 137.428 29V48.2L135.868 48.56C134.588 48.72 133.508 48.8 132.628 48.8C129.908 48.8 127.708 48 126.028 46.4C124.428 44.72 123.628 42.52 123.628 39.8C123.628 37.32 124.588 34.88 126.508 32.48C128.428 30.08 131.228 28.12 134.908 26.6C138.668 25 143.108 24.2 148.228 24.2C154.948 24.2 160.628 25.2 165.268 27.2C169.988 29.12 173.508 31.72 175.828 35C178.228 38.28 179.428 41.88 179.428 45.8C179.428 50.36 178.268 54 175.948 56.72C173.628 59.36 170.588 61.48 166.828 63.08C163.148 64.52 158.948 65.36 154.228 65.6V66.2C159.508 66.44 164.308 67.36 168.628 68.96C178.228 72.8 183.028 79.28 183.028 88.4C183.028 95.44 180.108 101.12 174.268 105.44C168.508 109.68 159.628 111.8 147.628 111.8Z" fill="#00FF85"/>
<path d="M289.205 37.7L290.405 37.4V32.8L286.305 24.6L285.305 24.3V24H287.805C288.498 24 289.051 24.1467 289.465 24.44C289.891 24.7333 290.238 25.1533 290.505 25.7L293.465 31.6L296.505 24.9L295.005 24.3V24H298.805V24.3L297.205 24.9L293.705 32.6V37.4L294.905 37.7V38H289.205V37.7ZM303.614 38.3C301.907 38.3 300.581 37.8333 299.634 36.9C298.687 35.9533 298.214 34.6533 298.214 33C298.214 31.92 298.421 30.98 298.834 30.18C299.247 29.38 299.821 28.7667 300.554 28.34C301.301 27.9133 302.154 27.7 303.114 27.7C304.074 27.7 304.914 27.88 305.634 28.24C306.367 28.6 306.927 29.0867 307.314 29.7C307.714 30.3 307.914 30.9667 307.914 31.7C307.914 32.0333 307.881 32.32 307.814 32.56L307.714 32.9C307.141 33.02 306.521 33.12 305.854 33.2C304.454 33.4 303.041 33.5 301.614 33.5C301.614 35.0467 301.827 36.1533 302.254 36.82C302.681 37.4733 303.267 37.8 304.014 37.8C304.534 37.8 305.014 37.68 305.454 37.44C305.907 37.1867 306.261 36.86 306.514 36.46C306.781 36.0467 306.914 35.6267 306.914 35.2H307.414C307.414 35.7333 307.254 36.24 306.934 36.72C306.614 37.2 306.167 37.5867 305.594 37.88C305.021 38.16 304.361 38.3 303.614 38.3ZM301.614 33C302.467 33 303.161 32.9667 303.694 32.9C303.921 32.8867 304.161 32.8533 304.414 32.8C304.427 32.7333 304.461 32.5867 304.514 32.36C304.581 32.0267 304.614 31.6733 304.614 31.3C304.614 30.1933 304.467 29.3867 304.174 28.88C303.881 28.36 303.527 28.1 303.114 28.1C302.114 28.1 301.614 29.7333 301.614 33ZM314.105 38.3C313.279 38.3 312.539 38.12 311.885 37.76C311.565 37.5867 311.305 37.4 311.105 37.2C310.892 37.4933 310.659 37.72 310.405 37.88C310.285 37.96 310.152 38.0333 310.005 38.1H309.505V34.7H310.305C310.479 35.26 310.732 35.78 311.065 36.26C311.772 37.2867 312.652 37.8 313.705 37.8C314.265 37.8 314.685 37.6667 314.965 37.4C315.259 37.12 315.405 36.72 315.405 36.2C315.405 35.76 315.205 35.3933 314.805 35.1C314.419 34.7933 313.805 34.42 312.965 33.98C312.245 33.62 311.659 33.3 311.205 33.02C310.765 32.7267 310.385 32.3667 310.065 31.94C309.759 31.5 309.605 30.9867 309.605 30.4C309.605 29.6 309.945 28.9533 310.625 28.46C311.319 27.9533 312.379 27.7 313.805 27.7C314.512 27.7 315.165 27.8867 315.765 28.26C316.059 28.4333 316.312 28.6133 316.525 28.8C316.699 28.56 316.932 28.3333 317.225 28.12C317.452 27.9867 317.585 27.9133 317.625 27.9H318.125V31.3H317.325C317.125 30.7267 316.879 30.2133 316.585 29.76C315.919 28.72 315.125 28.2 314.205 28.2C313.845 28.2 313.539 28.3333 313.285 28.6C313.032 28.8667 312.905 29.2 312.905 29.6C312.905 30.1067 313.119 30.5333 313.545 30.88C313.972 31.2133 314.619 31.6 315.485 32.04C316.192 32.4 316.752 32.72 317.165 33C317.592 33.2667 317.952 33.6 318.245 34C318.552 34.4 318.705 34.8667 318.705 35.4C318.705 37.3333 317.172 38.3 314.105 38.3ZM325.606 38.3C323.9 38.3 322.573 37.8333 321.626 36.9C320.68 35.9533 320.206 34.6533 320.206 33C320.206 31.92 320.413 30.98 320.826 30.18C321.24 29.38 321.813 28.7667 322.546 28.34C323.293 27.9133 324.146 27.7 325.106 27.7C326.066 27.7 326.906 27.88 327.626 28.24C328.36 28.6 328.92 29.0867 329.306 29.7C329.706 30.3 329.906 30.9667 329.906 31.7C329.906 32.0333 329.873 32.32 329.806 32.56L329.706 32.9C329.133 33.02 328.513 33.12 327.846 33.2C326.446 33.4 325.033 33.5 323.606 33.5C323.606 35.0467 323.82 36.1533 324.246 36.82C324.673 37.4733 325.26 37.8 326.006 37.8C326.526 37.8 327.006 37.68 327.446 37.44C327.9 37.1867 328.253 36.86 328.506 36.46C328.773 36.0467 328.906 35.6267 328.906 35.2H329.406C329.406 35.7333 329.246 36.24 328.926 36.72C328.606 37.2 328.16 37.5867 327.586 37.88C327.013 38.16 326.353 38.3 325.606 38.3ZM323.606 33C324.46 33 325.153 32.9667 325.686 32.9C325.913 32.8867 326.153 32.8533 326.406 32.8C326.42 32.7333 326.453 32.5867 326.506 32.36C326.573 32.0267 326.606 31.6733 326.606 31.3C326.606 30.1933 326.46 29.3867 326.166 28.88C325.873 28.36 325.52 28.1 325.106 28.1C324.106 28.1 323.606 29.7333 323.606 33ZM331.198 28.6L330.198 28.3V28H332.698C333.391 28 333.938 28.1467 334.338 28.44C334.751 28.72 335.104 29.14 335.398 29.7L337.778 34.32L339.998 28.9L338.498 28.3V28H342.198V28.3L340.598 28.9L336.798 38.2H336.198L331.198 28.6ZM345.688 38.3C344.502 38.3 343.588 38.0467 342.948 37.54C342.308 37.0333 341.988 36.3867 341.988 35.6C341.988 35.08 342.102 34.5667 342.328 34.06C342.422 33.82 342.542 33.6 342.688 33.4C343.235 33.2667 343.828 33.1467 344.468 33.04C345.908 32.8 347.182 32.6533 348.288 32.6V32C348.288 30.52 348.108 29.5 347.748 28.94C347.388 28.38 346.835 28.1 346.088 28.1C345.808 28.1 345.568 28.1333 345.368 28.2L345.088 28.3V31.3L344.828 31.36C344.615 31.3867 344.435 31.4 344.288 31.4C343.835 31.4 343.468 31.2667 343.188 31C342.922 30.72 342.788 30.3533 342.788 29.9C342.788 29.2867 343.095 28.7667 343.708 28.34C344.335 27.9133 345.262 27.7 346.488 27.7C347.528 27.7 348.422 27.8867 349.168 28.26C349.928 28.62 350.502 29.1267 350.888 29.78C351.288 30.42 351.488 31.16 351.488 32V37.4L352.688 37.7V38H350.888C350.088 38 349.468 37.7533 349.028 37.26C348.842 37.06 348.695 36.8067 348.588 36.5C348.402 36.8333 348.182 37.1333 347.928 37.4C347.328 38 346.582 38.3 345.688 38.3ZM346.488 37.6C346.982 37.6 347.428 37.3333 347.828 36.8C347.975 36.6 348.128 36.3333 348.288 36V33.1C347.675 33.1 347.088 33.1333 346.528 33.2C346.115 33.2533 345.835 33.2867 345.688 33.3C345.622 33.4467 345.555 33.6467 345.488 33.9C345.355 34.4067 345.288 34.9067 345.288 35.4C345.288 36.1467 345.402 36.7 345.628 37.06C345.855 37.42 346.142 37.6 346.488 37.6ZM366.103 38.3C364.796 38.3 363.65 38.02 362.663 37.46C361.69 36.8867 360.936 36.0533 360.403 34.96C359.87 33.8667 359.603 32.5467 359.603 31C359.603 29.4533 359.87 28.1333 360.403 27.04C360.936 25.9467 361.69 25.12 362.663 24.56C363.65 23.9867 364.796 23.7 366.103 23.7C367.41 23.7 368.55 23.9867 369.523 24.56C370.51 25.12 371.27 25.9467 371.803 27.04C372.336 28.1333 372.603 29.4533 372.603 31C372.603 32.5467 372.336 33.8667 371.803 34.96C371.27 36.0533 370.51 36.8867 369.523 37.46C368.55 38.02 367.41 38.3 366.103 38.3ZM366.103 37.9C366.623 37.9 367.103 37.68 367.543 37.24C367.996 36.8 368.37 36.0667 368.663 35.04C368.956 34.0133 369.103 32.6667 369.103 31C369.103 29.3333 368.956 27.9867 368.663 26.96C368.37 25.9333 367.996 25.2 367.543 24.76C367.103 24.32 366.623 24.1 366.103 24.1C365.583 24.1 365.096 24.32 364.643 24.76C364.203 25.2 363.836 25.9333 363.543 26.96C363.25 27.9867 363.103 29.3333 363.103 31C363.103 32.6667 363.25 34.0133 363.543 35.04C363.836 36.0667 364.203 36.8 364.643 37.24C365.096 37.68 365.583 37.9 366.103 37.9ZM374.308 37.7L375.508 37.4V28.6L374.308 28.3V28H376.108C376.894 28 377.514 28.2533 377.968 28.76C378.141 28.96 378.288 29.2067 378.408 29.5C378.594 29.1533 378.814 28.8533 379.068 28.6C379.668 28 380.414 27.7 381.308 27.7C382.054 27.7 382.721 27.86 383.308 28.18C383.908 28.4867 384.374 28.8933 384.708 29.4C385.041 29.9067 385.208 30.44 385.208 31V37.4L386.408 37.7V38H383.808C382.608 38 382.008 37.4 382.008 36.2V31C382.008 30.16 381.854 29.52 381.548 29.08C381.254 28.6267 380.908 28.4 380.508 28.4C380.001 28.4 379.548 28.6667 379.148 29.2C378.974 29.4267 378.828 29.6933 378.708 30V37.4L379.908 37.7V38H374.308V37.7ZM393.009 38.3C391.302 38.3 389.975 37.8333 389.029 36.9C388.082 35.9533 387.609 34.6533 387.609 33C387.609 31.92 387.815 30.98 388.229 30.18C388.642 29.38 389.215 28.7667 389.949 28.34C390.695 27.9133 391.549 27.7 392.509 27.7C393.469 27.7 394.309 27.88 395.029 28.24C395.762 28.6 396.322 29.0867 396.709 29.7C397.109 30.3 397.309 30.9667 397.309 31.7C397.309 32.0333 397.275 32.32 397.209 32.56L397.109 32.9C396.535 33.02 395.915 33.12 395.249 33.2C393.849 33.4 392.435 33.5 391.009 33.5C391.009 35.0467 391.222 36.1533 391.649 36.82C392.075 37.4733 392.662 37.8 393.409 37.8C393.929 37.8 394.409 37.68 394.849 37.44C395.302 37.1867 395.655 36.86 395.909 36.46C396.175 36.0467 396.309 35.6267 396.309 35.2H396.809C396.809 35.7333 396.649 36.24 396.329 36.72C396.009 37.2 395.562 37.5867 394.989 37.88C394.415 38.16 393.755 38.3 393.009 38.3ZM391.009 33C391.862 33 392.555 32.9667 393.089 32.9C393.315 32.8867 393.555 32.8533 393.809 32.8C393.822 32.7333 393.855 32.5867 393.909 32.36C393.975 32.0267 394.009 31.6733 394.009 31.3C394.009 30.1933 393.862 29.3867 393.569 28.88C393.275 28.36 392.922 28.1 392.509 28.1C391.509 28.1 391.009 29.7333 391.009 33Z" fill="white"/>
<path d="M318.794 72C318.647 72 318.534 71.96 318.454 71.88C318.374 71.7867 318.334 71.6733 318.334 71.54V58.48C318.334 58.3333 318.374 58.22 318.454 58.14C318.534 58.0467 318.647 58 318.794 58H319.814C319.96 58 320.074 58.0467 320.154 58.14C320.247 58.22 320.294 58.3333 320.294 58.48V64H327.174V58.48C327.174 58.3333 327.214 58.22 327.294 58.14C327.387 58.0467 327.5 58 327.634 58H328.654C328.8 58 328.914 58.0467 328.994 58.14C329.087 58.22 329.134 58.3333 329.134 58.48V71.54C329.134 71.6733 329.087 71.7867 328.994 71.88C328.914 71.96 328.8 72 328.654 72H327.634C327.5 72 327.387 71.96 327.294 71.88C327.214 71.7867 327.174 71.6733 327.174 71.54V65.8H320.294V71.54C320.294 71.6733 320.247 71.7867 320.154 71.88C320.074 71.96 319.96 72 319.814 72H318.794ZM336.472 72.2C335.098 72.2 334.005 71.78 333.192 70.94C332.378 70.0867 331.932 68.9267 331.852 67.46C331.838 67.2867 331.832 67.0667 331.832 66.8C331.832 66.52 331.838 66.2933 331.852 66.12C331.905 65.1733 332.125 64.3467 332.512 63.64C332.898 62.92 333.425 62.3667 334.092 61.98C334.772 61.5933 335.565 61.4 336.472 61.4C337.485 61.4 338.332 61.6133 339.012 62.04C339.705 62.4667 340.232 63.0733 340.592 63.86C340.952 64.6467 341.132 65.5667 341.132 66.62V66.96C341.132 67.1067 341.085 67.22 340.992 67.3C340.912 67.38 340.805 67.42 340.672 67.42H333.752C333.752 67.4333 333.752 67.46 333.752 67.5C333.752 67.54 333.752 67.5733 333.752 67.6C333.778 68.1467 333.898 68.66 334.112 69.14C334.325 69.6067 334.632 69.9867 335.032 70.28C335.432 70.5733 335.912 70.72 336.472 70.72C336.952 70.72 337.352 70.6467 337.672 70.5C337.992 70.3533 338.252 70.1933 338.452 70.02C338.652 69.8333 338.785 69.6933 338.852 69.6C338.972 69.4267 339.065 69.3267 339.132 69.3C339.198 69.26 339.305 69.24 339.452 69.24H340.412C340.545 69.24 340.652 69.28 340.732 69.36C340.825 69.4267 340.865 69.5267 340.852 69.66C340.838 69.86 340.732 70.1067 340.532 70.4C340.332 70.68 340.045 70.96 339.672 71.24C339.298 71.52 338.845 71.7533 338.312 71.94C337.778 72.1133 337.165 72.2 336.472 72.2ZM333.752 66.04H339.232V65.98C339.232 65.38 339.118 64.8467 338.892 64.38C338.678 63.9133 338.365 63.5467 337.952 63.28C337.538 63 337.045 62.86 336.472 62.86C335.898 62.86 335.405 63 334.992 63.28C334.592 63.5467 334.285 63.9133 334.072 64.38C333.858 64.8467 333.752 65.38 333.752 65.98V66.04ZM346.423 72.2C345.756 72.2 345.15 72.0667 344.603 71.8C344.056 71.5333 343.616 71.1733 343.283 70.72C342.95 70.2667 342.783 69.7533 342.783 69.18C342.783 68.26 343.156 67.5267 343.903 66.98C344.65 66.4333 345.623 66.0733 346.823 65.9L349.803 65.48V64.9C349.803 64.26 349.616 63.76 349.243 63.4C348.883 63.04 348.29 62.86 347.463 62.86C346.863 62.86 346.376 62.98 346.003 63.22C345.643 63.46 345.39 63.7667 345.243 64.14C345.163 64.34 345.023 64.44 344.823 64.44H343.923C343.776 64.44 343.663 64.4 343.583 64.32C343.516 64.2267 343.483 64.12 343.483 64C343.483 63.8 343.556 63.5533 343.703 63.26C343.863 62.9667 344.103 62.68 344.423 62.4C344.743 62.12 345.15 61.8867 345.643 61.7C346.15 61.5 346.763 61.4 347.483 61.4C348.283 61.4 348.956 61.5067 349.503 61.72C350.05 61.92 350.476 62.1933 350.783 62.54C351.103 62.8867 351.33 63.28 351.463 63.72C351.61 64.16 351.683 64.6067 351.683 65.06V71.54C351.683 71.6733 351.636 71.7867 351.543 71.88C351.463 71.96 351.356 72 351.223 72H350.303C350.156 72 350.043 71.96 349.963 71.88C349.883 71.7867 349.843 71.6733 349.843 71.54V70.68C349.67 70.92 349.436 71.16 349.143 71.4C348.85 71.6267 348.483 71.82 348.043 71.98C347.603 72.1267 347.063 72.2 346.423 72.2ZM346.843 70.7C347.39 70.7 347.89 70.5867 348.343 70.36C348.796 70.12 349.15 69.7533 349.403 69.26C349.67 68.7667 349.803 68.1467 349.803 67.4V66.84L347.483 67.18C346.536 67.3133 345.823 67.54 345.343 67.86C344.863 68.1667 344.623 68.56 344.623 69.04C344.623 69.4133 344.73 69.7267 344.943 69.98C345.17 70.22 345.45 70.4 345.783 70.52C346.13 70.64 346.483 70.7 346.843 70.7ZM358.358 72.2C357.625 72.2 356.991 72.0733 356.458 71.82C355.925 71.5533 355.485 71.2 355.138 70.76C354.805 70.3067 354.551 69.7933 354.378 69.22C354.218 68.6467 354.125 68.04 354.098 67.4C354.085 67.1867 354.078 66.9867 354.078 66.8C354.078 66.6133 354.085 66.4133 354.098 66.2C354.125 65.5733 354.218 64.9733 354.378 64.4C354.551 63.8267 354.805 63.3133 355.138 62.86C355.485 62.4067 355.925 62.0533 356.458 61.8C356.991 61.5333 357.625 61.4 358.358 61.4C359.145 61.4 359.798 61.54 360.318 61.82C360.838 62.1 361.265 62.4467 361.598 62.86V58.26C361.598 58.1267 361.638 58.02 361.718 57.94C361.811 57.8467 361.925 57.8 362.058 57.8H363.018C363.151 57.8 363.258 57.8467 363.338 57.94C363.431 58.02 363.478 58.1267 363.478 58.26V71.54C363.478 71.6733 363.431 71.7867 363.338 71.88C363.258 71.96 363.151 72 363.018 72H362.118C361.971 72 361.858 71.96 361.778 71.88C361.698 71.7867 361.658 71.6733 361.658 71.54V70.7C361.325 71.1267 360.891 71.4867 360.358 71.78C359.825 72.06 359.158 72.2 358.358 72.2ZM358.778 70.58C359.445 70.58 359.978 70.4267 360.378 70.12C360.778 69.8133 361.078 69.4267 361.278 68.96C361.478 68.48 361.585 67.9933 361.598 67.5C361.611 67.2867 361.618 67.0333 361.618 66.74C361.618 66.4333 361.611 66.1733 361.598 65.96C361.585 65.4933 361.471 65.0333 361.258 64.58C361.058 64.1267 360.751 63.7533 360.338 63.46C359.938 63.1667 359.418 63.02 358.778 63.02C358.098 63.02 357.558 63.1733 357.158 63.48C356.758 63.7733 356.471 64.1667 356.298 64.66C356.125 65.14 356.025 65.66 355.998 66.22C355.985 66.6067 355.985 66.9933 355.998 67.38C356.025 67.94 356.125 68.4667 356.298 68.96C356.471 69.44 356.758 69.8333 357.158 70.14C357.558 70.4333 358.098 70.58 358.778 70.58ZM366.933 72C366.799 72 366.686 71.96 366.593 71.88C366.513 71.7867 366.473 71.6733 366.473 71.54V58.26C366.473 58.1267 366.513 58.02 366.593 57.94C366.686 57.8467 366.799 57.8 366.933 57.8H367.873C368.019 57.8 368.133 57.8467 368.213 57.94C368.293 58.02 368.333 58.1267 368.333 58.26V71.54C368.333 71.6733 368.293 71.7867 368.213 71.88C368.133 71.96 368.019 72 367.873 72H366.933ZM371.776 72C371.643 72 371.529 71.96 371.436 71.88C371.356 71.7867 371.316 71.6733 371.316 71.54V62.06C371.316 61.9267 371.356 61.82 371.436 61.74C371.529 61.6467 371.643 61.6 371.776 61.6H372.736C372.869 61.6 372.976 61.6467 373.056 61.74C373.136 61.82 373.176 61.9267 373.176 62.06V71.54C373.176 71.6733 373.136 71.7867 373.056 71.88C372.976 71.96 372.869 72 372.736 72H371.776ZM371.616 59.66C371.483 59.66 371.369 59.62 371.276 59.54C371.196 59.4467 371.156 59.3333 371.156 59.2V58.12C371.156 57.9867 371.196 57.88 371.276 57.8C371.369 57.7067 371.483 57.66 371.616 57.66H372.876C373.009 57.66 373.116 57.7067 373.196 57.8C373.289 57.88 373.336 57.9867 373.336 58.12V59.2C373.336 59.3333 373.289 59.4467 373.196 59.54C373.116 59.62 373.009 59.66 372.876 59.66H371.616ZM376.62 72C376.486 72 376.373 71.96 376.28 71.88C376.2 71.7867 376.16 71.6733 376.16 71.54V62.06C376.16 61.9267 376.2 61.82 376.28 61.74C376.373 61.6467 376.486 61.6 376.62 61.6H377.56C377.693 61.6 377.8 61.6467 377.88 61.74C377.973 61.82 378.02 61.9267 378.02 62.06V62.94C378.366 62.4867 378.8 62.12 379.32 61.84C379.853 61.5467 380.533 61.4 381.36 61.4C382.226 61.4 382.96 61.5933 383.56 61.98C384.173 62.3533 384.633 62.88 384.94 63.56C385.246 64.2267 385.4 65.0067 385.4 65.9V71.54C385.4 71.6733 385.36 71.7867 385.28 71.88C385.2 71.96 385.093 72 384.96 72H383.96C383.826 72 383.713 71.96 383.62 71.88C383.54 71.7867 383.5 71.6733 383.5 71.54V66C383.5 65.0667 383.273 64.34 382.82 63.82C382.366 63.2867 381.7 63.02 380.82 63.02C379.993 63.02 379.326 63.2867 378.82 63.82C378.326 64.34 378.08 65.0667 378.08 66V71.54C378.08 71.6733 378.033 71.7867 377.94 71.88C377.86 71.96 377.753 72 377.62 72H376.62ZM392.429 72.2C391.055 72.2 389.962 71.78 389.149 70.94C388.335 70.0867 387.889 68.9267 387.809 67.46C387.795 67.2867 387.789 67.0667 387.789 66.8C387.789 66.52 387.795 66.2933 387.809 66.12C387.862 65.1733 388.082 64.3467 388.469 63.64C388.855 62.92 389.382 62.3667 390.049 61.98C390.729 61.5933 391.522 61.4 392.429 61.4C393.442 61.4 394.289 61.6133 394.969 62.04C395.662 62.4667 396.189 63.0733 396.549 63.86C396.909 64.6467 397.089 65.5667 397.089 66.62V66.96C397.089 67.1067 397.042 67.22 396.949 67.3C396.869 67.38 396.762 67.42 396.629 67.42H389.709C389.709 67.4333 389.709 67.46 389.709 67.5C389.709 67.54 389.709 67.5733 389.709 67.6C389.735 68.1467 389.855 68.66 390.069 69.14C390.282 69.6067 390.589 69.9867 390.989 70.28C391.389 70.5733 391.869 70.72 392.429 70.72C392.909 70.72 393.309 70.6467 393.629 70.5C393.949 70.3533 394.209 70.1933 394.409 70.02C394.609 69.8333 394.742 69.6933 394.809 69.6C394.929 69.4267 395.022 69.3267 395.089 69.3C395.155 69.26 395.262 69.24 395.409 69.24H396.369C396.502 69.24 396.609 69.28 396.689 69.36C396.782 69.4267 396.822 69.5267 396.809 69.66C396.795 69.86 396.689 70.1067 396.489 70.4C396.289 70.68 396.002 70.96 395.629 71.24C395.255 71.52 394.802 71.7533 394.269 71.94C393.735 72.1133 393.122 72.2 392.429 72.2ZM389.709 66.04H395.189V65.98C395.189 65.38 395.075 64.8467 394.849 64.38C394.635 63.9133 394.322 63.5467 393.909 63.28C393.495 63 393.002 62.86 392.429 62.86C391.855 62.86 391.362 63 390.949 63.28C390.549 63.5467 390.242 63.9133 390.029 64.38C389.815 64.8467 389.709 65.38 389.709 65.98V66.04Z" fill="white"/>
</g>
<defs>
<clipPath id="clip0_994_1105">
<rect width="414" height="220" fill="white"/>
</clipPath>
</defs>
</svg>
