<svg width="414" height="220" viewBox="0 0 414 220" fill="none" xmlns="http://www.w3.org/2000/svg">
<g clip-path="url(#clip0_994_1116)">
<rect width="414" height="220" fill="#0C1618"/>
<path d="M4.8 220C4.16 220 3.6 219.76 3.12 219.28C2.64 218.8 2.4 218.24 2.4 217.6C2.4 217.2 2.44 216.76 2.52 216.28L32.28 138.64C32.6 137.84 33.04 137.2 33.6 136.72C34.16 136.24 35 136 36.12 136H44.28C45.32 136 46.12 136.24 46.68 136.72C47.32 137.2 47.8 137.84 48.12 138.64L77.76 216.28C77.92 216.76 78 217.2 78 217.6C78 218.24 77.76 218.8 77.28 219.28C76.8 219.76 76.24 220 75.6 220H69.48C68.52 220 67.8 219.76 67.32 219.28C66.92 218.8 66.64 218.36 66.48 217.96L59.88 200.92H20.52L13.92 217.96C13.84 218.36 13.56 218.8 13.08 219.28C12.6 219.76 11.88 220 10.92 220H4.8ZM24 190.6H56.4L40.2 148L24 190.6ZM106.671 221.2C102.671 221.2 99.0306 220.4 95.7506 218.8C92.4706 217.2 89.8306 215.04 87.8306 212.32C85.8306 209.6 84.8306 206.52 84.8306 203.08C84.8306 197.56 87.0706 193.16 91.5506 189.88C96.0306 186.6 101.871 184.44 109.071 183.4L126.951 180.88V177.4C126.951 173.56 125.831 170.56 123.591 168.4C121.431 166.24 117.871 165.16 112.911 165.16C109.311 165.16 106.391 165.88 104.151 167.32C101.991 168.76 100.471 170.6 99.5906 172.84C99.1106 174.04 98.2706 174.64 97.0706 174.64H91.6706C90.7906 174.64 90.1106 174.4 89.6306 173.92C89.2306 173.36 89.0306 172.72 89.0306 172C89.0306 170.8 89.4706 169.32 90.3506 167.56C91.3106 165.8 92.7506 164.08 94.6706 162.4C96.5906 160.72 99.0306 159.32 101.991 158.2C105.031 157 108.711 156.4 113.031 156.4C117.831 156.4 121.871 157.04 125.151 158.32C128.431 159.52 130.991 161.16 132.831 163.24C134.751 165.32 136.111 167.68 136.911 170.32C137.791 172.96 138.231 175.64 138.231 178.36V217.24C138.231 218.04 137.951 218.72 137.391 219.28C136.911 219.76 136.271 220 135.471 220H129.951C129.071 220 128.391 219.76 127.911 219.28C127.431 218.72 127.191 218.04 127.191 217.24V212.08C126.151 213.52 124.751 214.96 122.991 216.4C121.231 217.76 119.031 218.92 116.391 219.88C113.751 220.76 110.511 221.2 106.671 221.2ZM109.191 212.2C112.471 212.2 115.471 211.52 118.191 210.16C120.911 208.72 123.031 206.52 124.551 203.56C126.151 200.6 126.951 196.88 126.951 192.4V189.04L113.031 191.08C107.351 191.88 103.071 193.24 100.191 195.16C97.3106 197 95.8706 199.36 95.8706 202.24C95.8706 204.48 96.5106 206.36 97.7906 207.88C99.1506 209.32 100.831 210.4 102.831 211.12C104.911 211.84 107.031 212.2 109.191 212.2ZM159.802 220C158.922 220 158.242 219.76 157.762 219.28C157.282 218.72 157.042 218.04 157.042 217.24V138.88C157.042 138 157.282 137.32 157.762 136.84C158.242 136.28 158.922 136 159.802 136H192.682C198.682 136 203.562 137 207.322 139C211.162 140.92 213.962 143.56 215.722 146.92C217.562 150.28 218.482 154.04 218.482 158.2C218.482 161.48 217.922 164.32 216.802 166.72C215.762 169.04 214.442 170.96 212.842 172.48C211.242 173.92 209.682 175.04 208.162 175.84C211.282 177.36 214.042 179.84 216.442 183.28C218.922 186.72 220.162 190.88 220.162 195.76C220.162 200.16 219.162 204.2 217.162 207.88C215.162 211.56 212.162 214.52 208.162 216.76C204.242 218.92 199.362 220 193.522 220H159.802ZM168.802 210.28H191.962C197.162 210.28 201.162 208.88 203.962 206.08C206.762 203.28 208.162 199.84 208.162 195.76C208.162 191.52 206.762 188.04 203.962 185.32C201.162 182.52 197.162 181.12 191.962 181.12H168.802V210.28ZM168.802 171.52H190.882C196.002 171.52 199.882 170.36 202.522 168.04C205.162 165.64 206.482 162.4 206.482 158.32C206.482 154.24 205.162 151.12 202.522 148.96C199.882 146.8 196.002 145.72 190.882 145.72H168.802V171.52ZM266.478 221.2C261.678 221.2 257.678 220.36 254.478 218.68C251.278 216.92 248.718 214.76 246.798 212.2V217.24C246.798 218.04 246.518 218.72 245.958 219.28C245.478 219.76 244.838 220 244.038 220H238.518C237.718 220 237.038 219.76 236.478 219.28C235.998 218.72 235.758 218.04 235.758 217.24V137.56C235.758 136.76 235.998 136.12 236.478 135.64C237.038 135.08 237.718 134.8 238.518 134.8H244.278C245.158 134.8 245.838 135.08 246.318 135.64C246.798 136.12 247.038 136.76 247.038 137.56V165.16C249.038 162.68 251.598 160.6 254.718 158.92C257.918 157.24 261.838 156.4 266.478 156.4C270.958 156.4 274.758 157.2 277.878 158.8C281.078 160.32 283.678 162.44 285.678 165.16C287.758 167.88 289.318 170.96 290.358 174.4C291.398 177.84 291.958 181.44 292.038 185.2C292.118 186.48 292.158 187.68 292.158 188.8C292.158 189.92 292.118 191.12 292.038 192.4C291.958 196.24 291.398 199.88 290.358 203.32C289.318 206.76 287.758 209.84 285.678 212.56C283.678 215.2 281.078 217.32 277.878 218.92C274.758 220.44 270.958 221.2 266.478 221.2ZM263.958 211.48C268.118 211.48 271.358 210.6 273.678 208.84C276.078 207 277.798 204.64 278.838 201.76C279.878 198.8 280.478 195.64 280.638 192.28C280.718 189.96 280.718 187.64 280.638 185.32C280.478 181.96 279.878 178.84 278.838 175.96C277.798 173 276.078 170.64 273.678 168.88C271.358 167.04 268.118 166.12 263.958 166.12C260.198 166.12 257.078 167 254.598 168.76C252.118 170.52 250.238 172.76 248.958 175.48C247.758 178.2 247.118 180.96 247.038 183.76C246.958 185.04 246.918 186.6 246.918 188.44C246.918 190.2 246.958 191.72 247.038 193C247.198 195.96 247.838 198.88 248.958 201.76C250.158 204.56 251.958 206.88 254.358 208.72C256.838 210.56 260.038 211.48 263.958 211.48Z" fill="#00FFFF"/>
<path d="M33.12 111C32.32 111 31.64 110.76 31.08 110.28C30.6 109.72 30.36 109.04 30.36 108.24V41.04L10.44 56.4C9.8 56.88 9.12 57.08 8.4 57C7.68 56.92 7.08 56.56 6.6 55.92L3.48 51.96C3 51.24 2.8 50.52 2.88 49.8C3.04 49.08 3.44 48.48 4.08 48L30.24 27.84C30.8 27.44 31.32 27.2 31.8 27.12C32.28 27.04 32.8 27 33.36 27H39.48C40.28 27 40.92 27.28 41.4 27.84C41.88 28.32 42.12 28.96 42.12 29.76V108.24C42.12 109.04 41.88 109.72 41.4 110.28C40.92 110.76 40.28 111 39.48 111H33.12ZM59.9681 111C59.1681 111 58.4881 110.76 57.9281 110.28C57.4481 109.72 57.2081 109.04 57.2081 108.24V104.4C57.2081 103.68 57.4081 102.88 57.8081 102C58.2081 101.12 59.0081 100.16 60.2081 99.12L85.6481 73.68C89.7281 70.24 92.9281 67.32 95.2481 64.92C97.6481 62.44 99.3281 60.08 100.288 57.84C101.328 55.6 101.848 53.28 101.848 50.88C101.848 46.32 100.568 42.72 98.0081 40.08C95.4481 37.36 91.6481 36 86.6081 36C83.4081 36 80.6481 36.68 78.3281 38.04C76.0081 39.32 74.1681 41.12 72.8081 43.44C71.5281 45.68 70.6881 48.24 70.2881 51.12C70.1281 52.16 69.6881 52.88 68.9681 53.28C68.3281 53.68 67.7281 53.88 67.1681 53.88H60.9281C60.2081 53.88 59.6081 53.68 59.1281 53.28C58.6481 52.8 58.4081 52.24 58.4081 51.6C58.4881 48.56 59.1281 45.52 60.3281 42.48C61.5281 39.36 63.2881 36.56 65.6081 34.08C68.0081 31.6 70.9281 29.6 74.3681 28.08C77.8881 26.48 81.9681 25.68 86.6081 25.68C92.9281 25.68 98.0881 26.84 102.088 29.16C106.168 31.4 109.168 34.4 111.088 38.16C113.008 41.92 113.968 46.04 113.968 50.52C113.968 54.04 113.368 57.28 112.168 60.24C110.968 63.12 109.208 65.96 106.888 68.76C104.648 71.48 101.848 74.28 98.4881 77.16L75.4481 100.56H112.888C113.768 100.56 114.448 100.8 114.928 101.28C115.488 101.76 115.768 102.44 115.768 103.32V108.24C115.768 109.04 115.488 109.72 114.928 110.28C114.448 110.76 113.768 111 112.888 111H59.9681ZM157.518 112.2C152.478 112.2 148.078 111.6 144.318 110.4C140.558 109.12 137.398 107.44 134.838 105.36C132.278 103.28 130.318 101 128.958 98.52C127.678 96.04 126.998 93.48 126.918 90.84C126.918 90.12 127.158 89.56 127.638 89.16C128.118 88.76 128.718 88.56 129.438 88.56H135.318C136.038 88.56 136.678 88.72 137.238 89.04C137.798 89.36 138.278 90.04 138.678 91.08C139.478 93.96 140.838 96.2 142.758 97.8C144.758 99.4 147.038 100.52 149.598 101.16C152.238 101.72 154.878 102 157.518 102C163.038 102 167.518 100.68 170.958 98.04C174.398 95.4 176.118 91.52 176.118 86.4C176.118 81.2 174.558 77.48 171.438 75.24C168.318 73 163.998 71.88 158.478 71.88H147.078C146.278 71.88 145.598 71.64 145.038 71.16C144.558 70.68 144.318 70 144.318 69.12V65.88C144.318 65.16 144.438 64.56 144.678 64.08C144.998 63.52 145.318 63.04 145.638 62.64L168.918 37.2H133.518C132.718 37.2 132.038 36.96 131.478 36.48C130.998 36 130.758 35.32 130.758 34.44V29.88C130.758 29 130.998 28.32 131.478 27.84C132.038 27.28 132.718 27 133.518 27H181.398C182.278 27 182.958 27.28 183.438 27.84C183.998 28.32 184.278 29 184.278 29.88V34.2C184.278 34.76 184.118 35.28 183.798 35.76C183.558 36.16 183.278 36.56 182.958 36.96L159.798 62.76L161.718 62.88C166.998 63.04 171.598 64 175.518 65.76C179.518 67.52 182.598 70.16 184.758 73.68C186.998 77.12 188.118 81.48 188.118 86.76C188.118 92.12 186.798 96.72 184.158 100.56C181.518 104.32 177.878 107.2 173.238 109.2C168.598 111.2 163.358 112.2 157.518 112.2Z" fill="#00FFFF"/>
<path d="M343.22 38C343.074 38 342.954 37.9533 342.86 37.86C342.767 37.7533 342.72 37.6333 342.72 37.5V24.5C342.72 24.3533 342.767 24.2333 342.86 24.14C342.954 24.0467 343.074 24 343.22 24H348.66C350.394 24 351.754 24.4 352.74 25.2C353.727 25.9867 354.22 27.1067 354.22 28.56C354.22 29.5067 353.994 30.3067 353.54 30.96C353.087 31.6133 352.487 32.1067 351.74 32.44L354.48 37.36C354.52 37.44 354.54 37.5133 354.54 37.58C354.54 37.6867 354.494 37.7867 354.4 37.88C354.32 37.96 354.227 38 354.12 38H351.46C351.207 38 351.02 37.94 350.9 37.82C350.78 37.6867 350.694 37.5667 350.64 37.46L348.36 33.06H346.32V37.5C346.32 37.6333 346.267 37.7533 346.16 37.86C346.067 37.9533 345.947 38 345.8 38H343.22ZM346.32 30.22H348.62C349.247 30.22 349.714 30.0667 350.02 29.76C350.34 29.4533 350.5 29.04 350.5 28.52C350.5 28 350.347 27.58 350.04 27.26C349.747 26.94 349.274 26.78 348.62 26.78H346.32V30.22ZM360.148 38.2C359.388 38.2 358.708 38.0267 358.108 37.68C357.522 37.3333 357.062 36.8267 356.728 36.16C356.395 35.48 356.228 34.6533 356.228 33.68V28.1C356.228 27.9533 356.275 27.8333 356.368 27.74C356.462 27.6467 356.582 27.6 356.728 27.6H359.228C359.375 27.6 359.495 27.6467 359.588 27.74C359.695 27.8333 359.748 27.9533 359.748 28.1V33.56C359.748 34.8667 360.328 35.52 361.488 35.52C362.035 35.52 362.468 35.3533 362.788 35.02C363.122 34.6733 363.288 34.1867 363.288 33.56V28.1C363.288 27.9533 363.335 27.8333 363.428 27.74C363.522 27.6467 363.642 27.6 363.788 27.6H366.288C366.435 27.6 366.555 27.6467 366.648 27.74C366.742 27.8333 366.788 27.9533 366.788 28.1V37.5C366.788 37.6333 366.742 37.7533 366.648 37.86C366.555 37.9533 366.435 38 366.288 38H363.968C363.835 38 363.715 37.9533 363.608 37.86C363.515 37.7533 363.468 37.6333 363.468 37.5V36.74C363.122 37.22 362.668 37.5867 362.108 37.84C361.562 38.08 360.908 38.2 360.148 38.2ZM375.501 38.2C374.768 38.2 374.148 38.0733 373.641 37.82C373.134 37.5667 372.721 37.2467 372.401 36.86V37.5C372.401 37.6333 372.348 37.7533 372.241 37.86C372.148 37.9533 372.034 38 371.901 38H369.641C369.494 38 369.374 37.9533 369.281 37.86C369.188 37.7533 369.141 37.6333 369.141 37.5V24.3C369.141 24.1533 369.188 24.0333 369.281 23.94C369.374 23.8467 369.494 23.8 369.641 23.8H372.081C372.228 23.8 372.348 23.8467 372.441 23.94C372.534 24.0333 372.581 24.1533 372.581 24.3V28.58C372.914 28.2333 373.321 27.9533 373.801 27.74C374.281 27.5133 374.848 27.4 375.501 27.4C376.168 27.4 376.754 27.5133 377.261 27.74C377.781 27.9533 378.221 28.2667 378.581 28.68C378.941 29.08 379.221 29.5733 379.421 30.16C379.621 30.7333 379.734 31.3733 379.761 32.08C379.774 32.3467 379.781 32.5867 379.781 32.8C379.781 33 379.774 33.2333 379.761 33.5C379.734 34.2467 379.621 34.9133 379.421 35.5C379.221 36.0733 378.934 36.5667 378.561 36.98C378.201 37.38 377.768 37.6867 377.261 37.9C376.754 38.1 376.168 38.2 375.501 38.2ZM374.421 35.52C374.874 35.52 375.228 35.4267 375.481 35.24C375.734 35.0533 375.914 34.8 376.021 34.48C376.141 34.16 376.214 33.8067 376.241 33.42C376.268 33.0067 376.268 32.5933 376.241 32.18C376.214 31.7933 376.141 31.44 376.021 31.12C375.914 30.8 375.734 30.5467 375.481 30.36C375.228 30.1733 374.874 30.08 374.421 30.08C374.008 30.08 373.668 30.1733 373.401 30.36C373.134 30.5333 372.934 30.7667 372.801 31.06C372.668 31.34 372.594 31.6467 372.581 31.98C372.568 32.2333 372.561 32.48 372.561 32.72C372.561 32.96 372.568 33.2133 372.581 33.48C372.608 33.84 372.681 34.1733 372.801 34.48C372.921 34.7867 373.114 35.04 373.381 35.24C373.648 35.4267 373.994 35.52 374.421 35.52ZM382.258 38C382.111 38 381.991 37.9533 381.898 37.86C381.805 37.7533 381.758 37.6333 381.758 37.5V28.1C381.758 27.9533 381.805 27.8333 381.898 27.74C381.991 27.6467 382.111 27.6 382.258 27.6H384.618C384.765 27.6 384.885 27.6467 384.978 27.74C385.071 27.8333 385.118 27.9533 385.118 28.1V37.5C385.118 37.6333 385.071 37.7533 384.978 37.86C384.885 37.9533 384.765 38 384.618 38H382.258ZM382.238 26.1C382.091 26.1 381.971 26.0533 381.878 25.96C381.785 25.8667 381.738 25.7467 381.738 25.6V23.8C381.738 23.6667 381.785 23.5533 381.878 23.46C381.971 23.3533 382.091 23.3 382.238 23.3H384.638C384.771 23.3 384.885 23.3533 384.978 23.46C385.085 23.5533 385.138 23.6667 385.138 23.8V25.6C385.138 25.7467 385.085 25.8667 384.978 25.96C384.885 26.0533 384.771 26.1 384.638 26.1H382.238ZM387.981 38C387.834 38 387.714 37.9533 387.621 37.86C387.527 37.7533 387.481 37.6333 387.481 37.5V24.3C387.481 24.1533 387.527 24.0333 387.621 23.94C387.714 23.8467 387.834 23.8 387.981 23.8H390.301C390.434 23.8 390.547 23.8467 390.641 23.94C390.747 24.0333 390.801 24.1533 390.801 24.3V31L393.581 27.94C393.661 27.8467 393.747 27.7667 393.841 27.7C393.934 27.6333 394.067 27.6 394.241 27.6H396.921C397.041 27.6 397.141 27.6467 397.221 27.74C397.314 27.82 397.361 27.92 397.361 28.04C397.361 28.0933 397.347 28.1533 397.321 28.22C397.307 28.2867 397.267 28.34 397.201 28.38L393.601 32.26L397.701 37.24C397.807 37.3467 397.861 37.4467 397.861 37.54C397.861 37.6733 397.814 37.7867 397.721 37.88C397.641 37.96 397.534 38 397.401 38H394.661C394.461 38 394.314 37.9667 394.221 37.9C394.127 37.82 394.041 37.74 393.961 37.66L390.801 33.86V37.5C390.801 37.6333 390.747 37.7533 390.641 37.86C390.547 37.9533 390.434 38 390.301 38H387.981Z" fill="white"/>
<path d="M304.023 75.8C303.889 75.8 303.776 75.7533 303.683 75.66C303.603 75.58 303.563 75.4733 303.563 75.34V62.06C303.563 61.9267 303.603 61.82 303.683 61.74C303.776 61.6467 303.889 61.6 304.023 61.6H304.943C305.076 61.6 305.183 61.6467 305.263 61.74C305.356 61.82 305.403 61.9267 305.403 62.06V62.94C305.723 62.5 306.149 62.1333 306.683 61.84C307.216 61.5467 307.883 61.4 308.683 61.4C309.429 61.4 310.063 61.5267 310.583 61.78C311.116 62.0333 311.549 62.38 311.883 62.82C312.229 63.26 312.489 63.76 312.663 64.32C312.836 64.88 312.929 65.48 312.943 66.12C312.956 66.3333 312.963 66.56 312.963 66.8C312.963 67.04 312.956 67.2667 312.943 67.48C312.929 68.1067 312.836 68.7067 312.663 69.28C312.489 69.84 312.229 70.34 311.883 70.78C311.549 71.2067 311.116 71.5533 310.583 71.82C310.063 72.0733 309.429 72.2 308.683 72.2C307.909 72.2 307.256 72.06 306.723 71.78C306.203 71.4867 305.776 71.1267 305.443 70.7V75.34C305.443 75.4733 305.403 75.58 305.323 75.66C305.243 75.7533 305.129 75.8 304.983 75.8H304.023ZM308.263 70.58C308.956 70.58 309.496 70.4333 309.883 70.14C310.283 69.8333 310.569 69.44 310.743 68.96C310.916 68.4667 311.016 67.94 311.043 67.38C311.056 66.9933 311.056 66.6067 311.043 66.22C311.016 65.66 310.916 65.14 310.743 64.66C310.569 64.1667 310.283 63.7733 309.883 63.48C309.496 63.1733 308.956 63.02 308.263 63.02C307.609 63.02 307.076 63.1733 306.663 63.48C306.263 63.7867 305.963 64.18 305.763 64.66C305.576 65.1267 305.469 65.6067 305.443 66.1C305.429 66.3133 305.423 66.5667 305.423 66.86C305.423 67.1533 305.429 67.4133 305.443 67.64C305.456 68.1067 305.563 68.5667 305.763 69.02C305.976 69.4733 306.289 69.8467 306.703 70.14C307.116 70.4333 307.636 70.58 308.263 70.58ZM318.357 72.2C317.69 72.2 317.083 72.0667 316.537 71.8C315.99 71.5333 315.55 71.1733 315.217 70.72C314.883 70.2667 314.717 69.7533 314.717 69.18C314.717 68.26 315.09 67.5267 315.837 66.98C316.583 66.4333 317.557 66.0733 318.757 65.9L321.737 65.48V64.9C321.737 64.26 321.55 63.76 321.177 63.4C320.817 63.04 320.223 62.86 319.397 62.86C318.797 62.86 318.31 62.98 317.937 63.22C317.577 63.46 317.323 63.7667 317.177 64.14C317.097 64.34 316.957 64.44 316.757 64.44H315.857C315.71 64.44 315.597 64.4 315.517 64.32C315.45 64.2267 315.417 64.12 315.417 64C315.417 63.8 315.49 63.5533 315.637 63.26C315.797 62.9667 316.037 62.68 316.357 62.4C316.677 62.12 317.083 61.8867 317.577 61.7C318.083 61.5 318.697 61.4 319.417 61.4C320.217 61.4 320.89 61.5067 321.437 61.72C321.983 61.92 322.41 62.1933 322.717 62.54C323.037 62.8867 323.263 63.28 323.397 63.72C323.543 64.16 323.617 64.6067 323.617 65.06V71.54C323.617 71.6733 323.57 71.7867 323.477 71.88C323.397 71.96 323.29 72 323.157 72H322.237C322.09 72 321.977 71.96 321.897 71.88C321.817 71.7867 321.777 71.6733 321.777 71.54V70.68C321.603 70.92 321.37 71.16 321.077 71.4C320.783 71.6267 320.417 71.82 319.977 71.98C319.537 72.1267 318.997 72.2 318.357 72.2ZM318.777 70.7C319.323 70.7 319.823 70.5867 320.277 70.36C320.73 70.12 321.083 69.7533 321.337 69.26C321.603 68.7667 321.737 68.1467 321.737 67.4V66.84L319.417 67.18C318.47 67.3133 317.757 67.54 317.277 67.86C316.797 68.1667 316.557 68.56 316.557 69.04C316.557 69.4133 316.663 69.7267 316.877 69.98C317.103 70.22 317.383 70.4 317.717 70.52C318.063 70.64 318.417 70.7 318.777 70.7ZM326.952 72C326.818 72 326.705 71.96 326.612 71.88C326.532 71.7867 326.492 71.6733 326.492 71.54V62.08C326.492 61.9467 326.532 61.8333 326.612 61.74C326.705 61.6467 326.818 61.6 326.952 61.6H327.872C328.005 61.6 328.118 61.6467 328.212 61.74C328.305 61.8333 328.352 61.9467 328.352 62.08V62.96C328.618 62.5067 328.985 62.1667 329.452 61.94C329.918 61.7133 330.478 61.6 331.132 61.6H331.932C332.065 61.6 332.172 61.6467 332.252 61.74C332.332 61.82 332.372 61.9267 332.372 62.06V62.88C332.372 63.0133 332.332 63.12 332.252 63.2C332.172 63.28 332.065 63.32 331.932 63.32H330.732C330.012 63.32 329.445 63.5333 329.032 63.96C328.618 64.3733 328.412 64.94 328.412 65.66V71.54C328.412 71.6733 328.365 71.7867 328.272 71.88C328.178 71.96 328.065 72 327.932 72H326.952ZM336.833 72.2C336.166 72.2 335.56 72.0667 335.013 71.8C334.466 71.5333 334.026 71.1733 333.693 70.72C333.36 70.2667 333.193 69.7533 333.193 69.18C333.193 68.26 333.566 67.5267 334.313 66.98C335.06 66.4333 336.033 66.0733 337.233 65.9L340.213 65.48V64.9C340.213 64.26 340.026 63.76 339.653 63.4C339.293 63.04 338.7 62.86 337.873 62.86C337.273 62.86 336.786 62.98 336.413 63.22C336.053 63.46 335.8 63.7667 335.653 64.14C335.573 64.34 335.433 64.44 335.233 64.44H334.333C334.186 64.44 334.073 64.4 333.993 64.32C333.926 64.2267 333.893 64.12 333.893 64C333.893 63.8 333.966 63.5533 334.113 63.26C334.273 62.9667 334.513 62.68 334.833 62.4C335.153 62.12 335.56 61.8867 336.053 61.7C336.56 61.5 337.173 61.4 337.893 61.4C338.693 61.4 339.366 61.5067 339.913 61.72C340.46 61.92 340.886 62.1933 341.193 62.54C341.513 62.8867 341.74 63.28 341.873 63.72C342.02 64.16 342.093 64.6067 342.093 65.06V71.54C342.093 71.6733 342.046 71.7867 341.953 71.88C341.873 71.96 341.766 72 341.633 72H340.713C340.566 72 340.453 71.96 340.373 71.88C340.293 71.7867 340.253 71.6733 340.253 71.54V70.68C340.08 70.92 339.846 71.16 339.553 71.4C339.26 71.6267 338.893 71.82 338.453 71.98C338.013 72.1267 337.473 72.2 336.833 72.2ZM337.253 70.7C337.8 70.7 338.3 70.5867 338.753 70.36C339.206 70.12 339.56 69.7533 339.813 69.26C340.08 68.7667 340.213 68.1467 340.213 67.4V66.84L337.893 67.18C336.946 67.3133 336.233 67.54 335.753 67.86C335.273 68.1667 335.033 68.56 335.033 69.04C335.033 69.4133 335.14 69.7267 335.353 69.98C335.58 70.22 335.86 70.4 336.193 70.52C336.54 70.64 336.893 70.7 337.253 70.7ZM349.228 76.4C348.322 76.4 347.575 76.28 346.988 76.04C346.415 75.8 345.962 75.5067 345.628 75.16C345.308 74.8267 345.075 74.4867 344.928 74.14C344.795 73.8067 344.722 73.54 344.708 73.34C344.695 73.2067 344.735 73.0933 344.828 73C344.935 72.9067 345.048 72.86 345.168 72.86H346.128C346.248 72.86 346.348 72.8867 346.428 72.94C346.508 72.9933 346.575 73.1067 346.628 73.28C346.708 73.48 346.828 73.7 346.988 73.94C347.148 74.1933 347.395 74.4067 347.728 74.58C348.062 74.7667 348.528 74.86 349.128 74.86C349.755 74.86 350.282 74.7733 350.708 74.6C351.135 74.44 351.455 74.1467 351.668 73.72C351.895 73.3067 352.008 72.7333 352.008 72V70.64C351.688 71.0533 351.268 71.4 350.748 71.68C350.228 71.9467 349.575 72.08 348.788 72.08C348.042 72.08 347.402 71.9533 346.868 71.7C346.335 71.4333 345.895 71.08 345.548 70.64C345.215 70.1867 344.962 69.6733 344.788 69.1C344.628 68.5267 344.535 67.9267 344.508 67.3C344.495 66.9267 344.495 66.56 344.508 66.2C344.535 65.5733 344.628 64.9733 344.788 64.4C344.962 63.8267 345.215 63.3133 345.548 62.86C345.895 62.4067 346.335 62.0533 346.868 61.8C347.402 61.5333 348.042 61.4 348.788 61.4C349.588 61.4 350.248 61.5533 350.768 61.86C351.302 62.1533 351.735 62.5133 352.068 62.94V62.08C352.068 61.9467 352.108 61.8333 352.188 61.74C352.282 61.6467 352.395 61.6 352.528 61.6H353.448C353.582 61.6 353.695 61.6467 353.788 61.74C353.882 61.8333 353.928 61.9467 353.928 62.08V71.78C353.928 72.6733 353.775 73.4667 353.468 74.16C353.175 74.8533 352.682 75.4 351.988 75.8C351.308 76.2 350.388 76.4 349.228 76.4ZM349.188 70.48C349.855 70.48 350.388 70.3267 350.788 70.02C351.202 69.7133 351.502 69.3267 351.688 68.86C351.888 68.3933 351.995 67.92 352.008 67.44C352.022 67.2533 352.028 67.0267 352.028 66.76C352.028 66.48 352.022 66.2467 352.008 66.06C351.995 65.58 351.888 65.1067 351.688 64.64C351.502 64.1733 351.202 63.7867 350.788 63.48C350.388 63.1733 349.855 63.02 349.188 63.02C348.522 63.02 347.988 63.1733 347.588 63.48C347.188 63.7733 346.902 64.1667 346.728 64.66C346.555 65.14 346.455 65.66 346.428 66.22C346.415 66.5667 346.415 66.92 346.428 67.28C346.455 67.84 346.555 68.3667 346.728 68.86C346.902 69.34 347.188 69.7333 347.588 70.04C347.988 70.3333 348.522 70.48 349.188 70.48ZM357.362 72C357.229 72 357.115 71.96 357.022 71.88C356.942 71.7867 356.902 71.6733 356.902 71.54V62.08C356.902 61.9467 356.942 61.8333 357.022 61.74C357.115 61.6467 357.229 61.6 357.362 61.6H358.282C358.415 61.6 358.529 61.6467 358.622 61.74C358.715 61.8333 358.762 61.9467 358.762 62.08V62.96C359.029 62.5067 359.395 62.1667 359.862 61.94C360.329 61.7133 360.889 61.6 361.542 61.6H362.342C362.475 61.6 362.582 61.6467 362.662 61.74C362.742 61.82 362.782 61.9267 362.782 62.06V62.88C362.782 63.0133 362.742 63.12 362.662 63.2C362.582 63.28 362.475 63.32 362.342 63.32H361.142C360.422 63.32 359.855 63.5333 359.442 63.96C359.029 64.3733 358.822 64.94 358.822 65.66V71.54C358.822 71.6733 358.775 71.7867 358.682 71.88C358.589 71.96 358.475 72 358.342 72H357.362ZM367.243 72.2C366.577 72.2 365.97 72.0667 365.423 71.8C364.877 71.5333 364.437 71.1733 364.103 70.72C363.77 70.2667 363.603 69.7533 363.603 69.18C363.603 68.26 363.977 67.5267 364.723 66.98C365.47 66.4333 366.443 66.0733 367.643 65.9L370.623 65.48V64.9C370.623 64.26 370.437 63.76 370.063 63.4C369.703 63.04 369.11 62.86 368.283 62.86C367.683 62.86 367.197 62.98 366.823 63.22C366.463 63.46 366.21 63.7667 366.063 64.14C365.983 64.34 365.843 64.44 365.643 64.44H364.743C364.597 64.44 364.483 64.4 364.403 64.32C364.337 64.2267 364.303 64.12 364.303 64C364.303 63.8 364.377 63.5533 364.523 63.26C364.683 62.9667 364.923 62.68 365.243 62.4C365.563 62.12 365.97 61.8867 366.463 61.7C366.97 61.5 367.583 61.4 368.303 61.4C369.103 61.4 369.777 61.5067 370.323 61.72C370.87 61.92 371.297 62.1933 371.603 62.54C371.923 62.8867 372.15 63.28 372.283 63.72C372.43 64.16 372.503 64.6067 372.503 65.06V71.54C372.503 71.6733 372.457 71.7867 372.363 71.88C372.283 71.96 372.177 72 372.043 72H371.123C370.977 72 370.863 71.96 370.783 71.88C370.703 71.7867 370.663 71.6733 370.663 71.54V70.68C370.49 70.92 370.257 71.16 369.963 71.4C369.67 71.6267 369.303 71.82 368.863 71.98C368.423 72.1267 367.883 72.2 367.243 72.2ZM367.663 70.7C368.21 70.7 368.71 70.5867 369.163 70.36C369.617 70.12 369.97 69.7533 370.223 69.26C370.49 68.7667 370.623 68.1467 370.623 67.4V66.84L368.303 67.18C367.357 67.3133 366.643 67.54 366.163 67.86C365.683 68.1667 365.443 68.56 365.443 69.04C365.443 69.4133 365.55 69.7267 365.763 69.98C365.99 70.22 366.27 70.4 366.603 70.52C366.95 70.64 367.303 70.7 367.663 70.7ZM375.858 75.8C375.725 75.8 375.612 75.7533 375.518 75.66C375.438 75.58 375.398 75.4733 375.398 75.34V62.06C375.398 61.9267 375.438 61.82 375.518 61.74C375.612 61.6467 375.725 61.6 375.858 61.6H376.778C376.912 61.6 377.018 61.6467 377.098 61.74C377.192 61.82 377.238 61.9267 377.238 62.06V62.94C377.558 62.5 377.985 62.1333 378.518 61.84C379.052 61.5467 379.718 61.4 380.518 61.4C381.265 61.4 381.898 61.5267 382.418 61.78C382.952 62.0333 383.385 62.38 383.718 62.82C384.065 63.26 384.325 63.76 384.498 64.32C384.672 64.88 384.765 65.48 384.778 66.12C384.792 66.3333 384.798 66.56 384.798 66.8C384.798 67.04 384.792 67.2667 384.778 67.48C384.765 68.1067 384.672 68.7067 384.498 69.28C384.325 69.84 384.065 70.34 383.718 70.78C383.385 71.2067 382.952 71.5533 382.418 71.82C381.898 72.0733 381.265 72.2 380.518 72.2C379.745 72.2 379.092 72.06 378.558 71.78C378.038 71.4867 377.612 71.1267 377.278 70.7V75.34C377.278 75.4733 377.238 75.58 377.158 75.66C377.078 75.7533 376.965 75.8 376.818 75.8H375.858ZM380.098 70.58C380.792 70.58 381.332 70.4333 381.718 70.14C382.118 69.8333 382.405 69.44 382.578 68.96C382.752 68.4667 382.852 67.94 382.878 67.38C382.892 66.9933 382.892 66.6067 382.878 66.22C382.852 65.66 382.752 65.14 382.578 64.66C382.405 64.1667 382.118 63.7733 381.718 63.48C381.332 63.1733 380.792 63.02 380.098 63.02C379.445 63.02 378.912 63.1733 378.498 63.48C378.098 63.7867 377.798 64.18 377.598 64.66C377.412 65.1267 377.305 65.6067 377.278 66.1C377.265 66.3133 377.258 66.5667 377.258 66.86C377.258 67.1533 377.265 67.4133 377.278 67.64C377.292 68.1067 377.398 68.5667 377.598 69.02C377.812 69.4733 378.125 69.8467 378.538 70.14C378.952 70.4333 379.472 70.58 380.098 70.58ZM387.773 72C387.639 72 387.526 71.96 387.433 71.88C387.353 71.7867 387.313 71.6733 387.313 71.54V58.26C387.313 58.1267 387.353 58.02 387.433 57.94C387.526 57.8467 387.639 57.8 387.773 57.8H388.773C388.919 57.8 389.033 57.8467 389.113 57.94C389.193 58.02 389.233 58.1267 389.233 58.26V62.92C389.593 62.4667 390.033 62.1 390.553 61.82C391.073 61.54 391.733 61.4 392.533 61.4C393.399 61.4 394.133 61.5933 394.733 61.98C395.346 62.3533 395.806 62.88 396.113 63.56C396.433 64.2267 396.593 65.0067 396.593 65.9V71.54C396.593 71.6733 396.553 71.7867 396.473 71.88C396.393 71.96 396.279 72 396.133 72H395.133C394.999 72 394.886 71.96 394.793 71.88C394.713 71.7867 394.673 71.6733 394.673 71.54V66C394.673 65.0667 394.446 64.34 393.993 63.82C393.539 63.2867 392.873 63.02 391.993 63.02C391.166 63.02 390.499 63.2867 389.993 63.82C389.486 64.34 389.233 65.0667 389.233 66V71.54C389.233 71.6733 389.193 71.7867 389.113 71.88C389.033 71.96 388.919 72 388.773 72H387.773Z" fill="white"/>
</g>
<defs>
<clipPath id="clip0_994_1116">
<rect width="414" height="220" fill="white"/>
</clipPath>
</defs>
</svg>
